  0
SECTION
  2
HEADER
  9
$ACADVER
  1
AC1014
  9
$HANDSEED
  5
FFFF
  9
$MEASUREMENT
 70
     1
  0
ENDSEC
  0
SECTION
  2
TABLES
  0
TABLE
  2
VPORT
  5
8
330
0
100
AcDbSymbolTable
 70
     4
  0
VPORT
  5
2E
330
8
100
AcDbSymbolTableRecord
100
AcDbViewportTableRecord
  2
*ACTIVE
 70
     0
 10
0.0
 20
0.0
 11
1.0
 21
1.0
 12
210.0
 22
148.5
 13
0.0
 23
0.0
 14
10.0
 24
10.0
 15
10.0
 25
10.0
 16
0.0
 26
0.0
 36
1.0
 17
0.0
 27
0.0
 37
0.0
 40
341.0
 41
1.24
 42
50.0
 43
0.0
 44
0.0
 50
0.0
 51
0.0
 71
     0
 72
   100
 73
     1
 74
     3
 75
     0
 76
     0
 77
     0
 78
     0
  0
ENDTAB
  0
TABLE
  2
LTYPE
  5
5
330
0
100
AcDbSymbolTable
 70
     1
  0
LTYPE
  5
14
330
5
100
AcDbSymbolTableRecord
100
AcDbLinetypeTableRecord
  2
BYBLOCK
 70
     0
  3

 72
    65
 73
     0
 40
0.0
  0
LTYPE
  5
15
330
5
100
AcDbSymbolTableRecord
100
AcDbLinetypeTableRecord
  2
BYLAYER
 70
     0
  3

 72
    65
 73
     0
 40
0.0
  0
LTYPE
  5
16
330
5
100
AcDbSymbolTableRecord
100
AcDbLinetypeTableRecord
  2
CONTINUOUS
 70
     0
  3
Solid line
 72
    65
 73
     0
 40
0.0
  0
ENDTAB
  0
TABLE
  2
LAYER
  5
2
100
AcDbSymbolTable
 70
2
  0
LAYER
  5
50
100
AcDbSymbolTableRecord
100
AcDbLayerTableRecord
  2
0
 70
0
  6
CONTINUOUS
  0
LAYER
  5
51
100
AcDbSymbolTableRecord
100
AcDbLayerTableRecord
  2
Layer_1
 70
0
  6
CONTINUOUS
  0
ENDTAB
  0
TABLE
  2
STYLE
  5
3
330
0
100
AcDbSymbolTable
 70
     1
  0
STYLE
  5
11
330
3
100
AcDbSymbolTableRecord
100
AcDbTextStyleTableRecord
  2
STANDARD
 70
     0
 40
0.0
 41
1.0
 50
0.0
 71
     0
 42
2.5
  3
txt
  4

  0
ENDTAB
  0
TABLE
  2
VIEW
  5
6
330
0
100
AcDbSymbolTable
 70
     0
  0
ENDTAB
  0
TABLE
  2
UCS
  5
7
330
0
100
AcDbSymbolTable
 70
     0
  0
ENDTAB
  0
TABLE
  2
APPID
  5
9
330
0
100
AcDbSymbolTable
 70
     2
  0
APPID
  5
12
330
9
100
AcDbSymbolTableRecord
100
AcDbRegAppTableRecord
  2
ACAD
 70
     0
  0
ENDTAB
  0
TABLE
  2
DIMSTYLE
  5
A
330
0
100
AcDbSymbolTable
 70
     1
  0
DIMSTYLE
105
27
330
A
100
AcDbSymbolTableRecord
100
AcDbDimStyleTableRecord
  2
ISO-25
 70
     0
  3

  4

  5

  6

  7

 40
1.0
 41
2.5
 42
0.625
 43
3.75
 44
1.25
 45
0.0
 46
0.0
 47
0.0
 48
0.0
140
2.5
141
2.5
142
0.0
143
0.03937007874016
144
1.0
145
0.0
146
1.0
147
0.625
 71
     0
 72
     0
 73
     0
 74
     0
 75
     0
 76
     0
 77
     1
 78
     8
170
     0
171
     3
172
     1
173
     0
174
     0
175
     0
176
     0
177
     0
178
     0
270
     2
271
     2
272
     2
273
     2
274
     3
340
11
275
     0
280
     0
281
     0
282
     0
283
     0
284
     8
285
     0
286
     0
287
     3
288
     0
  0
ENDTAB
  0
TABLE
  2
BLOCK_RECORD
  5
1
330
0
100
AcDbSymbolTable
 70
     1
  0
BLOCK_RECORD
  5
1F
330
1
100
AcDbSymbolTableRecord
100
AcDbBlockTableRecord
  2
*MODEL_SPACE
  0
BLOCK_RECORD
  5
1B
330
1
100
AcDbSymbolTableRecord
100
AcDbBlockTableRecord
  2
*PAPER_SPACE
  0
ENDTAB
  0
ENDSEC
  0
SECTION
  2
BLOCKS
  0
BLOCK
  5
20
330
1F
100
AcDbEntity
  8
0
100
AcDbBlockBegin
  2
*MODEL_SPACE
 70
     0
 10
0.0
 20
0.0
 30
0.0
  3
*MODEL_SPACE
  1

  0
ENDBLK
  5
21
330
1F
100
AcDbEntity
  8
0
100
AcDbBlockEnd
  0
BLOCK
  5
1C
330
1B
100
AcDbEntity
 67
     1
  8
0
100
AcDbBlockBegin
  2
*PAPER_SPACE
  1

  0
ENDBLK
  5
1D
330
1B
100
AcDbEntity
 67
     1
  8
0
100
AcDbBlockEnd
  0
ENDSEC
  0
SECTION
  2
ENTITIES
  0
SPLINE
  5
100
100
AcDbEntity
  8
Layer_1
 62
3
100
AcDbSpline
 70
8
 71
3
 72
8
 73
4
 74
0
 40
0
 40
0
 40
0
 40
0
 40
1
 40
1
 40
1
 40
1
 10
116.704881
 20
-14.277145
 30
0.0
 10
116.621825
 20
-14.557827
 30
0.0
 10
116.782191
 20
-14.852671
 30
0.0
 10
117.062840
 20
-14.935655
 30
0.0
  0
SPLINE
  5
101
100
AcDbEntity
  8
Layer_1
 62
3
100
AcDbSpline
 70
8
 71
3
 72
8
 73
4
 74
0
 40
0
 40
0
 40
0
 40
0
 40
1
 40
1
 40
1
 40
1
 10
117.062840
 20
-14.935655
 30
0.0
 10
117.343490
 20
-15.018607
 30
0.0
 10
117.638350
 20
-14.858505
 30
0.0
 10
117.721334
 20
-14.577712
 30
0.0
  0
SPLINE
  5
102
100
AcDbEntity
  8
Layer_1
 62
3
100
AcDbSpline
 70
8
 71
3
 72
8
 73
4
 74
0
 40
0
 40
0
 40
0
 40
0
 40
1
 40
1
 40
1
 40
1
 10
117.721334
 20
-14.577712
 30
0.0
 10
117.804286
 20
-14.297023
 30
0.0
 10
117.644184
 20
-14.002170
 30
0.0
 10
117.363359
 20
-13.919194
 30
0.0
  0
SPLINE
  5
103
100
AcDbEntity
  8
Layer_1
 62
3
100
AcDbSpline
 70
8
 71
3
 72
8
 73
4
 74
0
 40
0
 40
0
 40
0
 40
0
 40
1
 40
1
 40
1
 40
1
 10
117.363359
 20
-13.919194
 30
0.0
 10
117.082702
 20
-13.836242
 30
0.0
 10
116.787873
 20
-13.996344
 30
0.0
 10
116.704881
 20
-14.277145
 30
0.0
  0
LINE
  5
104
100
AcDbEntity
  8
Layer_1
 62
3
100
AcDbLine
 10
116.704881
 20
-14.277145
 30
0.0
 11
116.704881
 21
-14.277145
 31
0.0
  0
LINE
  5
105
100
AcDbEntity
  8
Layer_1
 62
3
100
AcDbLine
 10
116.877369
 20
-14.328393
 30
0.0
 11
116.918255
 21
-14.498625
 31
0.0
  0
LINE
  5
106
100
AcDbEntity
  8
Layer_1
 62
3
100
AcDbLine
 10
116.918255
 20
-14.498625
 30
0.0
 11
116.959301
 21
-14.668794
 31
0.0
  0
LINE
  5
107
100
AcDbEntity
  8
Layer_1
 62
3
100
AcDbLine
 10
116.959301
 20
-14.668794
 30
0.0
 11
117.127167
 21
-14.718367
 31
0.0
  0
LINE
  5
108
100
AcDbEntity
  8
Layer_1
 62
3
100
AcDbLine
 10
117.127167
 20
-14.718367
 30
0.0
 11
117.295056
 21
-14.767941
 31
0.0
  0
LINE
  5
109
100
AcDbEntity
  8
Layer_1
 62
3
100
AcDbLine
 10
117.295056
 20
-14.767941
 30
0.0
 11
117.421971
 21
-14.647394
 31
0.0
  0
LINE
  5
10a
100
AcDbEntity
  8
Layer_1
 62
3
100
AcDbLine
 10
117.421971
 20
-14.647394
 30
0.0
 11
117.548735
 21
-14.526863
 31
0.0
  0
LINE
  5
10b
100
AcDbEntity
  8
Layer_1
 62
3
100
AcDbLine
 10
117.548735
 20
-14.526863
 30
0.0
 11
117.507689
 21
-14.356647
 31
0.0
  0
LINE
  5
10c
100
AcDbEntity
  8
Layer_1
 62
3
100
AcDbLine
 10
117.507689
 20
-14.356647
 30
0.0
 11
117.466802
 21
-14.186430
 31
0.0
  0
LINE
  5
10d
100
AcDbEntity
  8
Layer_1
 62
3
100
AcDbLine
 10
117.466802
 20
-14.186430
 30
0.0
 11
117.298921
 21
-14.136856
 31
0.0
  0
LINE
  5
10e
100
AcDbEntity
  8
Layer_1
 62
3
100
AcDbLine
 10
117.298921
 20
-14.136856
 30
0.0
 11
117.131048
 21
-14.087283
 31
0.0
  0
LINE
  5
10f
100
AcDbEntity
  8
Layer_1
 62
3
100
AcDbLine
 10
117.131048
 20
-14.087283
 30
0.0
 11
117.004141
 21
-14.207814
 31
0.0
  0
LINE
  5
110
100
AcDbEntity
  8
Layer_1
 62
3
100
AcDbLine
 10
117.004141
 20
-14.207814
 30
0.0
 11
116.877369
 21
-14.328393
 31
0.0
  0
SPLINE
  5
111
100
AcDbEntity
  8
Layer_1
 62
3
100
AcDbSpline
 70
8
 71
3
 72
8
 73
4
 74
0
 40
0
 40
0
 40
0
 40
0
 40
1
 40
1
 40
1
 40
1
 10
121.473946
 20
1.851711
 30
0.0
 10
121.390794
 20
1.571044
 30
0.0
 10
121.551096
 20
1.276205
 30
0.0
 10
121.831881
 20
1.193215
 30
0.0
  0
SPLINE
  5
112
100
AcDbEntity
  8
Layer_1
 62
3
100
AcDbSpline
 70
8
 71
3
 72
8
 73
4
 74
0
 40
0
 40
0
 40
0
 40
0
 40
1
 40
1
 40
1
 40
1
 10
121.831881
 20
1.193215
 30
0.0
 10
122.112570
 20
1.110311
 30
0.0
 10
122.407399
 20
1.270429
 30
0.0
 10
122.490383
 20
1.551163
 30
0.0
  0
SPLINE
  5
113
100
AcDbEntity
  8
Layer_1
 62
3
100
AcDbSpline
 70
8
 71
3
 72
8
 73
4
 74
0
 40
0
 40
0
 40
0
 40
0
 40
1
 40
1
 40
1
 40
1
 10
122.490383
 20
1.551163
 30
0.0
 10
122.573335
 20
1.831847
 30
0.0
 10
122.413233
 20
2.126685
 30
0.0
 10
122.132440
 20
2.209677
 30
0.0
  0
SPLINE
  5
114
100
AcDbEntity
  8
Layer_1
 62
3
100
AcDbSpline
 70
8
 71
3
 72
8
 73
4
 74
0
 40
0
 40
0
 40
0
 40
0
 40
1
 40
1
 40
1
 40
1
 10
122.132440
 20
2.209677
 30
0.0
 10
121.851782
 20
2.292570
 30
0.0
 10
121.556922
 20
2.132455
 30
0.0
 10
121.473946
 20
1.851711
 30
0.0
  0
LINE
  5
115
100
AcDbEntity
  8
Layer_1
 62
3
100
AcDbLine
 10
121.473946
 20
1.851711
 30
0.0
 11
121.473946
 21
1.851711
 31
0.0
  0
LINE
  5
116
100
AcDbEntity
  8
Layer_1
 62
3
100
AcDbLine
 10
121.646426
 20
1.800567
 30
0.0
 11
121.687312
 21
1.630349
 31
0.0
  0
LINE
  5
117
100
AcDbEntity
  8
Layer_1
 62
3
100
AcDbLine
 10
121.687312
 20
1.630349
 30
0.0
 11
121.728438
 21
1.460145
 31
0.0
  0
LINE
  5
118
100
AcDbEntity
  8
Layer_1
 62
3
100
AcDbLine
 10
121.728438
 20
1.460145
 30
0.0
 11
121.896295
 21
1.410539
 31
0.0
  0
LINE
  5
119
100
AcDbEntity
  8
Layer_1
 62
3
100
AcDbLine
 10
121.896295
 20
1.410539
 30
0.0
 11
122.064184
 21
1.360934
 31
0.0
  0
LINE
  5
11a
100
AcDbEntity
  8
Layer_1
 62
3
100
AcDbLine
 10
122.064184
 20
1.360934
 30
0.0
 11
122.191091
 21
1.481518
 31
0.0
  0
LINE
  5
11b
100
AcDbEntity
  8
Layer_1
 62
3
100
AcDbLine
 10
122.191091
 20
1.481518
 30
0.0
 11
122.318006
 21
1.602103
 31
0.0
  0
LINE
  5
11c
100
AcDbEntity
  8
Layer_1
 62
3
100
AcDbLine
 10
122.318006
 20
1.602103
 30
0.0
 11
122.276961
 21
1.772335
 31
0.0
  0
LINE
  5
11d
100
AcDbEntity
  8
Layer_1
 62
3
100
AcDbLine
 10
122.276961
 20
1.772335
 30
0.0
 11
122.235915
 21
1.942525
 31
0.0
  0
LINE
  5
11e
100
AcDbEntity
  8
Layer_1
 62
3
100
AcDbLine
 10
122.235915
 20
1.942525
 30
0.0
 11
122.068034
 21
1.992266
 31
0.0
  0
LINE
  5
11f
100
AcDbEntity
  8
Layer_1
 62
3
100
AcDbLine
 10
122.068034
 20
1.992266
 30
0.0
 11
121.900176
 21
2.041872
 31
0.0
  0
LINE
  5
120
100
AcDbEntity
  8
Layer_1
 62
3
100
AcDbLine
 10
121.900176
 20
2.041872
 30
0.0
 11
121.773261
 21
1.921287
 31
0.0
  0
LINE
  5
121
100
AcDbEntity
  8
Layer_1
 62
3
100
AcDbLine
 10
121.773261
 20
1.921287
 30
0.0
 11
121.646426
 21
1.800567
 31
0.0
  0
SPLINE
  5
122
100
AcDbEntity
  8
Layer_1
 62
3
100
AcDbSpline
 70
8
 71
3
 72
8
 73
4
 74
0
 40
0
 40
0
 40
0
 40
0
 40
1
 40
1
 40
1
 40
1
 10
111.683357
 20
-3.470489
 30
0.0
 10
111.402692
 20
-3.387585
 30
0.0
 10
111.107840
 20
-3.547710
 30
0.0
 10
111.024863
 20
-3.828453
 30
0.0
  0
SPLINE
  5
123
100
AcDbEntity
  8
Layer_1
 62
3
100
AcDbSpline
 70
8
 71
3
 72
8
 73
4
 74
0
 40
0
 40
0
 40
0
 40
0
 40
1
 40
1
 40
1
 40
1
 10
111.024863
 20
-3.828453
 30
0.0
 10
110.941903
 20
-4.109121
 30
0.0
 10
111.102173
 20
-4.403959
 30
0.0
 10
111.382806
 20
-4.486950
 30
0.0
  0
SPLINE
  5
124
100
AcDbEntity
  8
Layer_1
 62
3
100
AcDbSpline
 70
8
 71
3
 72
8
 73
4
 74
0
 40
0
 40
0
 40
0
 40
0
 40
1
 40
1
 40
1
 40
1
 10
111.382806
 20
-4.486950
 30
0.0
 10
111.663504
 20
-4.569833
 30
0.0
 10
111.958324
 20
-4.409728
 30
0.0
 10
112.041308
 20
-4.129001
 30
0.0
  0
SPLINE
  5
125
100
AcDbEntity
  8
Layer_1
 62
3
100
AcDbSpline
 70
8
 71
3
 72
8
 73
4
 74
0
 40
0
 40
0
 40
0
 40
0
 40
1
 40
1
 40
1
 40
1
 10
112.041308
 20
-4.129001
 30
0.0
 10
112.124252
 20
-3.848345
 30
0.0
 10
111.963999
 20
-3.553493
 30
0.0
 10
111.683357
 20
-3.470489
 30
0.0
  0
LINE
  5
126
100
AcDbEntity
  8
Layer_1
 62
3
100
AcDbLine
 10
111.683357
 20
-3.470489
 30
0.0
 11
111.683357
 21
-3.470489
 31
0.0
  0
LINE
  5
127
100
AcDbEntity
  8
Layer_1
 62
3
100
AcDbLine
 10
111.632269
 20
-3.642988
 30
0.0
 11
111.462045
 21
-3.683939
 31
0.0
  0
LINE
  5
128
100
AcDbEntity
  8
Layer_1
 62
3
100
AcDbLine
 10
111.462045
 20
-3.683939
 30
0.0
 11
111.291860
 21
-3.725032
 31
0.0
  0
LINE
  5
129
100
AcDbEntity
  8
Layer_1
 62
3
100
AcDbLine
 10
111.291860
 20
-3.725032
 30
0.0
 11
111.242286
 21
-3.892911
 31
0.0
  0
LINE
  5
12a
100
AcDbEntity
  8
Layer_1
 62
3
100
AcDbLine
 10
111.242286
 20
-3.892911
 30
0.0
 11
111.192713
 21
-4.060778
 31
0.0
  0
LINE
  5
12b
100
AcDbEntity
  8
Layer_1
 62
3
100
AcDbLine
 10
111.192713
 20
-4.060778
 30
0.0
 11
111.313252
 21
-4.187739
 31
0.0
  0
LINE
  5
12c
100
AcDbEntity
  8
Layer_1
 62
3
100
AcDbLine
 10
111.313252
 20
-4.187739
 30
0.0
 11
111.433791
 21
-4.314700
 31
0.0
  0
LINE
  5
12d
100
AcDbEntity
  8
Layer_1
 62
3
100
AcDbLine
 10
111.433791
 20
-4.314700
 30
0.0
 11
111.604023
 21
-4.273606
 31
0.0
  0
LINE
  5
12e
100
AcDbEntity
  8
Layer_1
 62
3
100
AcDbLine
 10
111.604023
 20
-4.273606
 30
0.0
 11
111.774200
 21
-4.232513
 31
0.0
  0
LINE
  5
12f
100
AcDbEntity
  8
Layer_1
 62
3
100
AcDbLine
 10
111.774200
 20
-4.232513
 30
0.0
 11
111.824013
 21
-4.064647
 31
0.0
  0
LINE
  5
130
100
AcDbEntity
  8
Layer_1
 62
3
100
AcDbLine
 10
111.824013
 20
-4.064647
 30
0.0
 11
111.873586
 21
-3.896765
 31
0.0
  0
LINE
  5
131
100
AcDbEntity
  8
Layer_1
 62
3
100
AcDbLine
 10
111.873586
 20
-3.896765
 30
0.0
 11
111.753055
 21
-3.769805
 31
0.0
  0
LINE
  5
132
100
AcDbEntity
  8
Layer_1
 62
3
100
AcDbLine
 10
111.753055
 20
-3.769805
 30
0.0
 11
111.632269
 21
-3.642988
 31
0.0
  0
SPLINE
  5
133
100
AcDbEntity
  8
Layer_1
 62
3
100
AcDbSpline
 70
8
 71
3
 72
8
 73
4
 74
0
 40
0
 40
0
 40
0
 40
0
 40
1
 40
1
 40
1
 40
1
 10
127.812370
 20
-8.239567
 30
0.0
 10
127.531697
 20
-8.156662
 30
0.0
 10
127.236836
 20
-8.316797
 30
0.0
 10
127.153868
 20
-8.597518
 30
0.0
  0
SPLINE
  5
134
100
AcDbEntity
  8
Layer_1
 62
3
100
AcDbSpline
 70
8
 71
3
 72
8
 73
4
 74
0
 40
0
 40
0
 40
0
 40
0
 40
1
 40
1
 40
1
 40
1
 10
127.153868
 20
-8.597518
 30
0.0
 10
127.070709
 20
-8.878183
 30
0.0
 10
127.231018
 20
-9.173028
 30
0.0
 10
127.511827
 20
-9.256020
 30
0.0
  0
SPLINE
  5
135
100
AcDbEntity
  8
Layer_1
 62
3
100
AcDbSpline
 70
8
 71
3
 72
8
 73
4
 74
0
 40
0
 40
0
 40
0
 40
0
 40
1
 40
1
 40
1
 40
1
 10
127.511827
 20
-9.256020
 30
0.0
 10
127.792501
 20
-9.338972
 30
0.0
 10
128.087337
 20
-9.178790
 30
0.0
 10
128.170329
 20
-8.898061
 30
0.0
  0
SPLINE
  5
136
100
AcDbEntity
  8
Layer_1
 62
3
100
AcDbSpline
 70
8
 71
3
 72
8
 73
4
 74
0
 40
0
 40
0
 40
0
 40
0
 40
1
 40
1
 40
1
 40
1
 10
128.170329
 20
-8.898061
 30
0.0
 10
128.253289
 20
-8.617379
 30
0.0
 10
128.093019
 20
-8.322559
 30
0.0
 10
127.812370
 20
-8.239567
 30
0.0
  0
LINE
  5
137
100
AcDbEntity
  8
Layer_1
 62
3
100
AcDbLine
 10
127.812370
 20
-8.239567
 30
0.0
 11
127.812370
 21
-8.239567
 31
0.0
  0
LINE
  5
138
100
AcDbEntity
  8
Layer_1
 62
3
100
AcDbLine
 10
127.761282
 20
-8.412039
 30
0.0
 11
127.591050
 21
-8.453085
 31
0.0
  0
LINE
  5
139
100
AcDbEntity
  8
Layer_1
 62
3
100
AcDbLine
 10
127.591050
 20
-8.453085
 30
0.0
 11
127.420849
 21
-8.494210
 31
0.0
  0
LINE
  5
13a
100
AcDbEntity
  8
Layer_1
 62
3
100
AcDbLine
 10
127.420849
 20
-8.494210
 30
0.0
 11
127.371275
 21
-8.662075
 31
0.0
  0
LINE
  5
13b
100
AcDbEntity
  8
Layer_1
 62
3
100
AcDbLine
 10
127.371275
 20
-8.662075
 30
0.0
 11
127.321702
 21
-8.829949
 31
0.0
  0
LINE
  5
13c
100
AcDbEntity
  8
Layer_1
 62
3
100
AcDbLine
 10
127.321702
 20
-8.829949
 30
0.0
 11
127.442233
 21
-8.956912
 31
0.0
  0
LINE
  5
13d
100
AcDbEntity
  8
Layer_1
 62
3
100
AcDbLine
 10
127.442233
 20
-8.956912
 30
0.0
 11
127.562772
 21
-9.083882
 31
0.0
  0
LINE
  5
13e
100
AcDbEntity
  8
Layer_1
 62
3
100
AcDbLine
 10
127.562772
 20
-9.083882
 30
0.0
 11
127.732996
 21
-9.042837
 31
0.0
  0
LINE
  5
13f
100
AcDbEntity
  8
Layer_1
 62
3
100
AcDbLine
 10
127.732996
 20
-9.042837
 30
0.0
 11
127.903181
 21
-9.001711
 31
0.0
  0
LINE
  5
140
100
AcDbEntity
  8
Layer_1
 62
3
100
AcDbLine
 10
127.903181
 20
-9.001711
 30
0.0
 11
127.952754
 21
-8.833822
 31
0.0
  0
LINE
  5
141
100
AcDbEntity
  8
Layer_1
 62
3
100
AcDbLine
 10
127.952754
 20
-8.833822
 30
0.0
 11
128.002567
 21
-8.665949
 31
0.0
  0
LINE
  5
142
100
AcDbEntity
  8
Layer_1
 62
3
100
AcDbLine
 10
128.002567
 20
-8.665949
 30
0.0
 11
127.882028
 21
-8.538994
 31
0.0
  0
LINE
  5
143
100
AcDbEntity
  8
Layer_1
 62
3
100
AcDbLine
 10
127.882028
 20
-8.538994
 30
0.0
 11
127.761282
 21
-8.412039
 31
0.0
  0
SPLINE
  5
144
100
AcDbEntity
  8
Layer_1
 62
3
100
AcDbSpline
 70
8
 71
3
 72
8
 73
4
 74
0
 40
0
 40
0
 40
0
 40
0
 40
1
 40
1
 40
1
 40
1
 10
128.700226
 20
-8.737520
 30
0.0
 10
129.986808
 20
-3.956545
 30
0.0
 10
127.290929
 20
1.002670
 30
0.0
 10
122.579105
 20
2.522928
 30
0.0
  0
LINE
  5
145
100
AcDbEntity
  8
Layer_1
 62
3
100
AcDbLine
 10
122.579105
 20
2.522928
 30
0.0
 11
122.521721
 21
2.329074
 31
0.0
  0
SPLINE
  5
146
100
AcDbEntity
  8
Layer_1
 62
3
100
AcDbSpline
 70
8
 71
3
 72
8
 73
4
 74
0
 40
0
 40
0
 40
0
 40
0
 40
1
 40
1
 40
1
 40
1
 10
122.521721
 20
2.329074
 30
0.0
 10
122.681154
 20
2.191770
 30
0.0
 10
122.783171
 20
1.997566
 30
0.0
 10
122.805288
 20
1.787885
 30
0.0
  0
SPLINE
  5
147
100
AcDbEntity
  8
Layer_1
 62
3
100
AcDbSpline
 70
8
 71
3
 72
8
 73
4
 74
0
 40
0
 40
0
 40
0
 40
0
 40
1
 40
1
 40
1
 40
1
 10
122.805288
 20
1.787885
 30
0.0
 10
126.800906
 20
0.272986
 30
0.0
 10
129.101773
 20
-3.950537
 30
0.0
 10
128.210514
 20
-8.127715
 30
0.0
  0
SPLINE
  5
148
100
AcDbEntity
  8
Layer_1
 62
3
100
AcDbSpline
 70
8
 71
3
 72
8
 73
4
 74
0
 40
0
 40
0
 40
0
 40
0
 40
1
 40
1
 40
1
 40
1
 10
128.210514
 20
-8.127715
 30
0.0
 10
128.368162
 20
-8.267430
 30
0.0
 10
128.467803
 20
-8.463525
 30
0.0
 10
128.486652
 20
-8.674405
 30
0.0
  0
LINE
  5
149
100
AcDbEntity
  8
Layer_1
 62
3
100
AcDbLine
 10
128.486652
 20
-8.674405
 30
0.0
 11
128.700226
 21
-8.737520
 31
0.0
  0
SPLINE
  5
14a
100
AcDbEntity
  8
Layer_1
 62
3
100
AcDbSpline
 70
8
 71
3
 72
8
 73
4
 74
0
 40
0
 40
0
 40
0
 40
0
 40
1
 40
1
 40
1
 40
1
 10
127.567602
 20
-7.925140
 30
0.0
 10
128.351153
 20
-4.102390
 30
0.0
 10
126.246079
 20
-0.251498
 30
0.0
 10
122.598752
 20
1.148969
 30
0.0
  0
SPLINE
  5
14b
100
AcDbEntity
  8
Layer_1
 62
3
100
AcDbSpline
 70
8
 71
3
 72
8
 73
4
 74
0
 40
0
 40
0
 40
0
 40
0
 40
1
 40
1
 40
1
 40
1
 10
122.598752
 20
1.148969
 30
0.0
 10
122.467780
 20
1.002956
 30
0.0
 10
122.288151
 20
0.907523
 30
0.0
 10
122.093562
 20
0.880869
 30
0.0
  0
LINE
  5
14c
100
AcDbEntity
  8
Layer_1
 62
3
100
AcDbLine
 10
122.093562
 20
0.880869
 30
0.0
 11
121.682132
 21
-0.510601
 31
0.0
  0
SPLINE
  5
14d
100
AcDbEntity
  8
Layer_1
 62
3
100
AcDbSpline
 70
8
 71
3
 72
8
 73
4
 74
0
 40
0
 40
0
 40
0
 40
0
 40
1
 40
1
 40
1
 40
1
 10
121.682132
 20
-0.510601
 30
0.0
 10
124.720268
 20
-1.533722
 30
0.0
 10
126.460195
 20
-4.734504
 30
0.0
 10
125.666648
 20
-7.840578
 30
0.0
  0
LINE
  5
14e
100
AcDbEntity
  8
Layer_1
 62
3
100
AcDbLine
 10
125.666648
 20
-7.840578
 30
0.0
 11
127.009674
 21
-8.237702
 31
0.0
  0
SPLINE
  5
14f
100
AcDbEntity
  8
Layer_1
 62
3
100
AcDbSpline
 70
8
 71
3
 72
8
 73
4
 74
0
 40
0
 40
0
 40
0
 40
0
 40
1
 40
1
 40
1
 40
1
 10
127.009674
 20
-8.237702
 30
0.0
 10
127.146081
 20
-8.063293
 30
0.0
 10
127.348019
 20
-7.950445
 30
0.0
 10
127.567562
 20
-7.925140
 30
0.0
  0
LINE
  5
150
100
AcDbEntity
  8
Layer_1
 62
3
100
AcDbLine
 10
127.567562
 20
-7.925140
 30
0.0
 11
127.567602
 21
-7.925140
 31
0.0
  0
SPLINE
  5
151
100
AcDbEntity
  8
Layer_1
 62
3
100
AcDbSpline
 70
8
 71
3
 72
8
 73
4
 74
0
 40
0
 40
0
 40
0
 40
0
 40
1
 40
1
 40
1
 40
1
 10
110.697525
 20
-3.414462
 30
0.0
 10
112.217677
 20
1.297437
 30
0.0
 10
117.176947
 20
3.993192
 30
0.0
 10
121.957888
 20
2.706621
 30
0.0
  0
LINE
  5
152
100
AcDbEntity
  8
Layer_1
 62
3
100
AcDbLine
 10
121.957888
 20
2.706621
 30
0.0
 11
121.904409
 21
2.525689
 31
0.0
  0
SPLINE
  5
153
100
AcDbEntity
  8
Layer_1
 62
3
100
AcDbSpline
 70
8
 71
3
 72
8
 73
4
 74
0
 40
0
 40
0
 40
0
 40
0
 40
1
 40
1
 40
1
 40
1
 10
121.904409
 20
2.525689
 30
0.0
 10
121.681837
 20
2.504727
 30
0.0
 10
121.476002
 20
2.393626
 30
0.0
 10
121.336112
 20
2.219446
 30
0.0
  0
SPLINE
  5
154
100
AcDbEntity
  8
Layer_1
 62
3
100
AcDbSpline
 70
8
 71
3
 72
8
 73
4
 74
0
 40
0
 40
0
 40
0
 40
0
 40
1
 40
1
 40
1
 40
1
 10
121.336112
 20
2.219446
 30
0.0
 10
117.174341
 20
3.101353
 30
0.0
 10
112.969469
 20
0.816128
 30
0.0
 10
111.445323
 20
-3.155360
 30
0.0
  0
SPLINE
  5
155
100
AcDbEntity
  8
Layer_1
 62
3
100
AcDbSpline
 70
8
 71
3
 72
8
 73
4
 74
0
 40
0
 40
0
 40
0
 40
0
 40
1
 40
1
 40
1
 40
1
 10
111.445323
 20
-3.155360
 30
0.0
 10
111.223222
 20
-3.179023
 30
0.0
 10
111.018479
 20
-3.292384
 30
0.0
 10
110.880581
 20
-3.468619
 30
0.0
  0
LINE
  5
156
100
AcDbEntity
  8
Layer_1
 62
3
100
AcDbLine
 10
110.880581
 20
-3.468619
 30
0.0
 11
110.697525
 21
-3.414462
 31
0.0
  0
SPLINE
  5
157
100
AcDbEntity
  8
Layer_1
 62
3
100
AcDbSpline
 70
8
 71
3
 72
8
 73
4
 74
0
 40
0
 40
0
 40
0
 40
0
 40
1
 40
1
 40
1
 40
1
 10
112.084713
 20
-3.361477
 30
0.0
 10
113.498170
 20
0.271207
 30
0.0
 10
117.347244
 20
2.362209
 30
0.0
 10
121.164429
 20
1.570264
 30
0.0
  0
SPLINE
  5
158
100
AcDbEntity
  8
Layer_1
 62
3
100
AcDbSpline
 70
8
 71
3
 72
8
 73
4
 74
0
 40
0
 40
0
 40
0
 40
0
 40
1
 40
1
 40
1
 40
1
 10
121.164429
 20
1.570264
 30
0.0
 10
121.197345
 20
1.366435
 30
0.0
 10
121.305802
 20
1.180376
 30
0.0
 10
121.468614
 20
1.051590
 30
0.0
  0
LINE
  5
159
100
AcDbEntity
  8
Layer_1
 62
3
100
AcDbLine
 10
121.468614
 20
1.051590
 30
0.0
 11
121.060986
 21
-0.326930
 31
0.0
  0
SPLINE
  5
15a
100
AcDbEntity
  8
Layer_1
 62
3
100
AcDbSpline
 70
8
 71
3
 72
8
 73
4
 74
0
 40
0
 40
0
 40
0
 40
0
 40
1
 40
1
 40
1
 40
1
 10
121.060986
 20
-0.326930
 30
0.0
 10
117.955000
 20
0.466645
 30
0.0
 10
114.754235
 20
-1.273280
 30
0.0
 10
113.731055
 20
-4.311440
 30
0.0
  0
LINE
  5
15b
100
AcDbEntity
  8
Layer_1
 62
3
100
AcDbLine
 10
113.731055
 20
-4.311440
 30
0.0
 11
112.357679
 21
-3.905358
 31
0.0
  0
SPLINE
  5
15c
100
AcDbEntity
  8
Layer_1
 62
3
100
AcDbSpline
 70
8
 71
3
 72
8
 73
4
 74
0
 40
0
 40
0
 40
0
 40
0
 40
1
 40
1
 40
1
 40
1
 10
112.357679
 20
-3.905358
 30
0.0
 10
112.339109
 20
-3.695920
 30
0.0
 10
112.240559
 20
-3.501004
 30
0.0
 10
112.084713
 20
-3.361477
 30
0.0
  0
LINE
  5
15d
100
AcDbEntity
  8
Layer_1
 62
3
100
AcDbLine
 10
112.084713
 20
-3.361477
 30
0.0
 11
112.084713
 21
-3.361477
 31
0.0
  0
SPLINE
  5
15e
100
AcDbEntity
  8
Layer_1
 62
3
100
AcDbSpline
 70
8
 71
3
 72
8
 73
4
 74
0
 40
0
 40
0
 40
0
 40
0
 40
1
 40
1
 40
1
 40
1
 10
128.522087
 20
-9.340128
 30
0.0
 10
127.001839
 20
-14.052007
 30
0.0
 10
122.042553
 20
-16.747750
 30
0.0
 10
117.261605
 20
-15.461200
 30
0.0
  0
LINE
  5
15f
100
AcDbEntity
  8
Layer_1
 62
3
100
AcDbLine
 10
117.261605
 20
-15.461200
 30
0.0
 11
117.324649
 21
-15.248272
 31
0.0
  0
SPLINE
  5
160
100
AcDbEntity
  8
Layer_1
 62
3
100
AcDbSpline
 70
8
 71
3
 72
8
 73
4
 74
0
 40
0
 40
0
 40
0
 40
0
 40
1
 40
1
 40
1
 40
1
 10
117.324649
 20
-15.248272
 30
0.0
 10
117.525701
 20
-15.220696
 30
0.0
 10
117.710837
 20
-15.119787
 30
0.0
 10
117.842678
 20
-14.965391
 30
0.0
  0
SPLINE
  5
161
100
AcDbEntity
  8
Layer_1
 62
3
100
AcDbSpline
 70
8
 71
3
 72
8
 73
4
 74
0
 40
0
 40
0
 40
0
 40
0
 40
1
 40
1
 40
1
 40
1
 10
117.842678
 20
-14.965391
 30
0.0
 10
122.029243
 20
-15.873507
 30
0.0
 10
126.268810
 20
-13.571222
 30
0.0
 10
127.787145
 20
-9.566294
 30
0.0
  0
SPLINE
  5
162
100
AcDbEntity
  8
Layer_1
 62
3
100
AcDbSpline
 70
8
 71
3
 72
8
 73
4
 74
0
 40
0
 40
0
 40
0
 40
0
 40
1
 40
1
 40
1
 40
1
 10
127.787145
 20
-9.566294
 30
0.0
 10
127.987655
 20
-9.535529
 30
0.0
 10
128.171309
 20
-9.431544
 30
0.0
 10
128.300854
 20
-9.274686
 30
0.0
  0
LINE
  5
163
100
AcDbEntity
  8
Layer_1
 62
3
100
AcDbLine
 10
128.300854
 20
-9.274686
 30
0.0
 11
128.522087
 21
-9.340128
 31
0.0
  0
SPLINE
  5
164
100
AcDbEntity
  8
Layer_1
 62
3
100
AcDbSpline
 70
8
 71
3
 72
8
 73
4
 74
0
 40
0
 40
0
 40
0
 40
0
 40
1
 40
1
 40
1
 40
1
 10
127.136892
 20
-9.388028
 30
0.0
 10
125.722407
 20
-13.030613
 30
0.0
 10
121.859832
 20
-15.125071
 30
0.0
 10
118.033896
 20
-14.320526
 30
0.0
  0
SPLINE
  5
165
100
AcDbEntity
  8
Layer_1
 62
3
100
AcDbSpline
 70
8
 71
3
 72
8
 73
4
 74
0
 40
0
 40
0
 40
0
 40
0
 40
1
 40
1
 40
1
 40
1
 10
118.033896
 20
-14.320526
 30
0.0
 10
118.007435
 20
-14.118701
 30
0.0
 10
117.906980
 20
-13.932703
 30
0.0
 10
117.752776
 20
-13.800002
 30
0.0
  0
LINE
  5
166
100
AcDbEntity
  8
Layer_1
 62
3
100
AcDbLine
 10
117.752776
 20
-13.800002
 30
0.0
 11
118.158579
 21
-12.427607
 31
0.0
  0
SPLINE
  5
167
100
AcDbEntity
  8
Layer_1
 62
3
100
AcDbSpline
 70
8
 71
3
 72
8
 73
4
 74
0
 40
0
 40
0
 40
0
 40
0
 40
1
 40
1
 40
1
 40
1
 10
118.158579
 20
-12.427607
 30
0.0
 10
121.264573
 20
-13.221209
 30
0.0
 10
124.465362
 20
-11.481267
 30
0.0
 10
125.488534
 20
-8.443106
 30
0.0
  0
LINE
  5
168
100
AcDbEntity
  8
Layer_1
 62
3
100
AcDbLine
 10
125.488534
 20
-8.443106
 30
0.0
 11
126.839402
 21
-8.842517
 31
0.0
  0
SPLINE
  5
169
100
AcDbEntity
  8
Layer_1
 62
3
100
AcDbSpline
 70
8
 71
3
 72
8
 73
4
 74
0
 40
0
 40
0
 40
0
 40
0
 40
1
 40
1
 40
1
 40
1
 10
126.839402
 20
-8.842517
 30
0.0
 10
126.864109
 20
-9.055501
 30
0.0
 10
126.971147
 20
-9.251939
 30
0.0
 10
127.136892
 20
-9.388028
 30
0.0
  0
LINE
  5
16a
100
AcDbEntity
  8
Layer_1
 62
3
100
AcDbLine
 10
127.136892
 20
-9.388028
 30
0.0
 11
127.136892
 21
-9.388028
 31
0.0
  0
SPLINE
  5
16b
100
AcDbEntity
  8
Layer_1
 62
3
100
AcDbSpline
 70
8
 71
3
 72
8
 73
4
 74
0
 40
0
 40
0
 40
0
 40
0
 40
1
 40
1
 40
1
 40
1
 10
110.519371
 20
-4.017001
 30
0.0
 10
109.232709
 20
-8.797989
 30
0.0
 10
111.928556
 20
-13.757203
 30
0.0
 10
116.640403
 20
-15.277459
 30
0.0
  0
LINE
  5
16c
100
AcDbEntity
  8
Layer_1
 62
3
100
AcDbLine
 10
116.640403
 20
-15.277459
 30
0.0
 11
116.699701
 21
-15.077458
 31
0.0
  0
SPLINE
  5
16d
100
AcDbEntity
  8
Layer_1
 62
3
100
AcDbSpline
 70
8
 71
3
 72
8
 73
4
 74
0
 40
0
 40
0
 40
0
 40
0
 40
1
 40
1
 40
1
 40
1
 10
116.699701
 20
-15.077458
 30
0.0
 10
116.530249
 20
-14.943378
 30
0.0
 10
116.419577
 20
-14.747362
 30
0.0
 10
116.391889
 20
-14.533733
 30
0.0
  0
SPLINE
  5
16e
100
AcDbEntity
  8
Layer_1
 62
3
100
AcDbSpline
 70
8
 71
3
 72
8
 73
4
 74
0
 40
0
 40
0
 40
0
 40
0
 40
1
 40
1
 40
1
 40
1
 10
116.391889
 20
-14.533733
 30
0.0
 10
112.408138
 20
-13.010791
 30
0.0
 10
110.117202
 20
-8.792083
 30
0.0
 10
111.010294
 20
-4.620875
 30
0.0
  0
SPLINE
  5
16f
100
AcDbEntity
  8
Layer_1
 62
3
100
AcDbSpline
 70
8
 71
3
 72
8
 73
4
 74
0
 40
0
 40
0
 40
0
 40
0
 40
1
 40
1
 40
1
 40
1
 10
111.010294
 20
-4.620875
 30
0.0
 10
110.843170
 20
-4.484707
 30
0.0
 10
110.735208
 20
-4.287425
 30
0.0
 10
110.710421
 20
-4.073451
 30
0.0
  0
LINE
  5
170
100
AcDbEntity
  8
Layer_1
 62
3
100
AcDbLine
 10
110.710421
 20
-4.073451
 30
0.0
 11
110.519371
 21
-4.017001
 31
0.0
  0
SPLINE
  5
171
100
AcDbEntity
  8
Layer_1
 62
3
100
AcDbSpline
 70
8
 71
3
 72
8
 73
4
 74
0
 40
0
 40
0
 40
0
 40
0
 40
1
 40
1
 40
1
 40
1
 10
111.658395
 20
-4.797100
 30
0.0
 10
110.858927
 20
-8.617602
 30
0.0
 10
112.949241
 20
-12.472789
 30
0.0
 10
116.584183
 20
-13.889020
 30
0.0
  0
SPLINE
  5
172
100
AcDbEntity
  8
Layer_1
 62
3
100
AcDbSpline
 70
8
 71
3
 72
8
 73
4
 74
0
 40
0
 40
0
 40
0
 40
0
 40
1
 40
1
 40
1
 40
1
 10
116.584183
 20
-13.889020
 30
0.0
 10
116.723539
 20
-13.726709
 30
0.0
 10
116.921746
 20
-13.623537
 30
0.0
 10
117.135392
 20
-13.603389
 30
0.0
  0
LINE
  5
173
100
AcDbEntity
  8
Layer_1
 62
3
100
AcDbLine
 10
117.135392
 20
-13.603389
 30
0.0
 11
117.537385
 21
-12.243921
 31
0.0
  0
SPLINE
  5
174
100
AcDbEntity
  8
Layer_1
 62
3
100
AcDbSpline
 70
8
 71
3
 72
8
 73
4
 74
0
 40
0
 40
0
 40
0
 40
0
 40
1
 40
1
 40
1
 40
1
 10
117.537385
 20
-12.243921
 30
0.0
 10
114.499233
 20
-11.220781
 30
0.0
 10
112.759330
 20
-8.020056
 30
0.0
 10
113.552869
 20
-4.913957
 30
0.0
  0
LINE
  5
175
100
AcDbEntity
  8
Layer_1
 62
3
100
AcDbLine
 10
113.552869
 20
-4.913957
 30
0.0
 11
112.171690
 21
-4.505577
 31
0.0
  0
SPLINE
  5
176
100
AcDbEntity
  8
Layer_1
 62
3
100
AcDbSpline
 70
8
 71
3
 72
8
 73
4
 74
0
 40
0
 40
0
 40
0
 40
0
 40
1
 40
1
 40
1
 40
1
 10
112.171690
 20
-4.505577
 30
0.0
 10
112.042296
 20
-4.662278
 30
0.0
 10
111.858714
 20
-4.766226
 30
0.0
 10
111.658395
 20
-4.797100
 30
0.0
  0
LINE
  5
177
100
AcDbEntity
  8
Layer_1
 62
3
100
AcDbLine
 10
111.658395
 20
-4.797100
 30
0.0
 11
111.658395
 21
-4.797100
 31
0.0
  0
SPLINE
  5
178
100
AcDbEntity
  8
Layer_1
 62
3
100
AcDbSpline
 70
8
 71
3
 72
8
 73
4
 74
0
 40
0
 40
0
 40
0
 40
0
 40
1
 40
1
 40
1
 40
1
 10
120.927360
 20
-5.229341
 30
0.0
 10
121.095002
 20
-5.540615
 30
0.0
 10
121.267474
 20
-5.829801
 30
0.0
 10
121.422188
 20
-6.149449
 30
0.0
  0
LINE
  5
179
100
AcDbEntity
  8
Layer_1
 62
3
100
AcDbLine
 10
121.422188
 20
-6.149449
 30
0.0
 11
118.778004
 21
-7.651983
 31
0.0
  0
LINE
  5
17a
100
AcDbEntity
  8
Layer_1
 62
3
100
AcDbLine
 10
118.778004
 20
-7.651983
 30
0.0
 11
118.769954
 21
-7.682986
 31
0.0
  0
LINE
  5
17b
100
AcDbEntity
  8
Layer_1
 62
3
100
AcDbLine
 10
118.769954
 20
-7.682986
 30
0.0
 11
116.531485
 21
-7.021115
 31
0.0
  0
LINE
  5
17c
100
AcDbEntity
  8
Layer_1
 62
3
100
AcDbLine
 10
116.531485
 20
-7.021115
 30
0.0
 11
119.294073
 21
-6.283467
 31
0.0
  0
LINE
  5
17d
100
AcDbEntity
  8
Layer_1
 62
3
100
AcDbLine
 10
119.294073
 20
-6.283467
 30
0.0
 11
117.378375
 21
-4.179572
 31
0.0
  0
LINE
  5
17e
100
AcDbEntity
  8
Layer_1
 62
3
100
AcDbLine
 10
117.378375
 20
-4.179572
 30
0.0
 11
120.927360
 21
-5.229341
 31
0.0
  0
SPLINE
  5
17f
100
AcDbEntity
  8
Layer_1
 62
3
100
AcDbSpline
 70
8
 71
3
 72
8
 73
4
 74
0
 40
0
 40
0
 40
0
 40
0
 40
1
 40
1
 40
1
 40
1
 10
123.463590
 20
-10.102535
 30
0.0
 10
124.045810
 20
-9.501465
 30
0.0
 10
124.495561
 20
-8.754879
 30
0.0
 10
124.749287
 20
-7.896855
 30
0.0
  0
SPLINE
  5
180
100
AcDbEntity
  8
Layer_1
 62
3
100
AcDbSpline
 70
8
 71
3
 72
8
 73
4
 74
0
 40
0
 40
0
 40
0
 40
0
 40
1
 40
1
 40
1
 40
1
 10
124.749287
 20
-7.896855
 30
0.0
 10
125.002934
 20
-7.038880
 30
0.0
 10
125.031515
 20
-6.167770
 30
0.0
 10
124.869675
 20
-5.346720
 30
0.0
  0
LINE
  5
181
100
AcDbEntity
  8
Layer_1
 62
3
100
AcDbLine
 10
124.869675
 20
-5.346720
 30
0.0
 11
123.463590
 21
-10.102535
 31
0.0
  0
SPLINE
  5
182
100
AcDbEntity
  8
Layer_1
 62
3
100
AcDbSpline
 70
8
 71
3
 72
8
 73
4
 74
0
 40
0
 40
0
 40
0
 40
0
 40
1
 40
1
 40
1
 40
1
 10
114.394052
 20
-7.612717
 30
0.0
 10
114.823821
 20
-9.419358
 30
0.0
 10
116.181886
 20
-10.952485
 30
0.0
 10
118.090148
 20
-11.516709
 30
0.0
  0
SPLINE
  5
183
100
AcDbEntity
  8
Layer_1
 62
3
100
AcDbSpline
 70
8
 71
3
 72
8
 73
4
 74
0
 40
0
 40
0
 40
0
 40
0
 40
1
 40
1
 40
1
 40
1
 10
118.090148
 20
-11.516709
 30
0.0
 10
119.364600
 20
-11.893541
 30
0.0
 10
120.668014
 20
-11.773927
 30
0.0
 10
121.793402
 20
-11.271208
 30
0.0
  0
LINE
  5
184
100
AcDbEntity
  8
Layer_1
 62
3
100
AcDbLine
 10
121.793402
 20
-11.271208
 30
0.0
 11
122.617776
 21
-8.483140
 31
0.0
  0
LINE
  5
185
100
AcDbEntity
  8
Layer_1
 62
3
100
AcDbLine
 10
122.617776
 20
-8.483140
 30
0.0
 11
122.041446
 21
-7.346387
 31
0.0
  0
LINE
  5
186
100
AcDbEntity
  8
Layer_1
 62
3
100
AcDbLine
 10
122.041446
 20
-7.346387
 30
0.0
 11
119.026693
 21
-8.982495
 31
0.0
  0
LINE
  5
187
100
AcDbEntity
  8
Layer_1
 62
3
100
AcDbLine
 10
119.026693
 20
-8.982495
 30
0.0
 11
118.878634
 21
-8.938740
 31
0.0
  0
LINE
  5
188
100
AcDbEntity
  8
Layer_1
 62
3
100
AcDbLine
 10
118.878634
 20
-8.938740
 30
0.0
 11
118.686005
 21
-8.881913
 31
0.0
  0
LINE
  5
189
100
AcDbEntity
  8
Layer_1
 62
3
100
AcDbLine
 10
118.686005
 20
-8.881913
 30
0.0
 11
118.436232
 21
-8.808111
 31
0.0
  0
LINE
  5
18a
100
AcDbEntity
  8
Layer_1
 62
3
100
AcDbLine
 10
118.436232
 20
-8.808111
 30
0.0
 11
114.394052
 21
-7.612717
 31
0.0
  0
SPLINE
  5
18b
100
AcDbEntity
  8
Layer_1
 62
3
100
AcDbSpline
 70
8
 71
3
 72
8
 73
4
 74
0
 40
0
 40
0
 40
0
 40
0
 40
1
 40
1
 40
1
 40
1
 10
115.196429
 20
-3.334867
 30
0.0
 10
114.883294
 20
-3.789154
 30
0.0
 10
114.635258
 20
-4.299809
 30
0.0
 10
114.470317
 20
-4.857604
 30
0.0
  0
SPLINE
  5
18c
100
AcDbEntity
  8
Layer_1
 62
3
100
AcDbSpline
 70
8
 71
3
 72
8
 73
4
 74
0
 40
0
 40
0
 40
0
 40
0
 40
1
 40
1
 40
1
 40
1
 10
114.470317
 20
-4.857604
 30
0.0
 10
114.305385
 20
-5.415428
 30
0.0
 10
114.235894
 20
-5.978821
 30
0.0
 10
114.251555
 20
-6.530382
 30
0.0
  0
LINE
  5
18d
100
AcDbEntity
  8
Layer_1
 62
3
100
AcDbLine
 10
114.251555
 20
-6.530382
 30
0.0
 11
114.267256
 21
-6.476959
 31
0.0
  0
LINE
  5
18e
100
AcDbEntity
  8
Layer_1
 62
3
100
AcDbLine
 10
114.267256
 20
-6.476959
 30
0.0
 11
114.357820
 21
-6.456420
 31
0.0
  0
LINE
  5
18f
100
AcDbEntity
  8
Layer_1
 62
3
100
AcDbLine
 10
114.357820
 20
-6.456420
 30
0.0
 11
117.150009
 21
-5.653182
 31
0.0
  0
LINE
  5
190
100
AcDbEntity
  8
Layer_1
 62
3
100
AcDbLine
 10
117.150009
 20
-5.653182
 30
0.0
 11
115.239013
 21
-3.476256
 31
0.0
  0
LINE
  5
191
100
AcDbEntity
  8
Layer_1
 62
3
100
AcDbLine
 10
115.239013
 20
-3.476256
 30
0.0
 11
115.174296
 21
-3.409801
 31
0.0
  0
LINE
  5
192
100
AcDbEntity
  8
Layer_1
 62
3
100
AcDbLine
 10
115.174296
 20
-3.409801
 30
0.0
 11
115.196429
 21
-3.334867
 31
0.0
  0
SPLINE
  5
193
100
AcDbEntity
  8
Layer_1
 62
3
100
AcDbSpline
 70
8
 71
3
 72
8
 73
4
 74
0
 40
0
 40
0
 40
0
 40
0
 40
1
 40
1
 40
1
 40
1
 10
121.129488
 20
-1.237787
 30
0.0
 10
119.221178
 20
-0.673532
 30
0.0
 10
117.247761
 20
-1.221489
 30
0.0
 10
115.904528
 20
-2.504113
 30
0.0
  0
SPLINE
  5
194
100
AcDbEntity
  8
Layer_1
 62
3
100
AcDbSpline
 70
8
 71
3
 72
8
 73
4
 74
0
 40
0
 40
0
 40
0
 40
0
 40
1
 40
1
 40
1
 40
1
 10
115.904528
 20
-2.504113
 30
0.0
 10
117.918266
 20
-3.102432
 30
0.0
 10
119.923444
 20
-3.729403
 30
0.0
 10
121.938018
 20
-4.325074
 30
0.0
  0
LINE
  5
195
100
AcDbEntity
  8
Layer_1
 62
3
100
AcDbLine
 10
121.938018
 20
-4.325074
 30
0.0
 11
123.143361
 21
-6.705657
 31
0.0
  0
LINE
  5
196
100
AcDbEntity
  8
Layer_1
 62
3
100
AcDbLine
 10
123.143361
 20
-6.705657
 30
0.0
 11
124.103713
 21
-3.457747
 31
0.0
  0
SPLINE
  5
197
100
AcDbEntity
  8
Layer_1
 62
3
100
AcDbSpline
 70
8
 71
3
 72
8
 73
4
 74
0
 40
0
 40
0
 40
0
 40
0
 40
1
 40
1
 40
1
 40
1
 10
124.103713
 20
-3.457747
 30
0.0
 10
123.432770
 20
-2.423786
 30
0.0
 10
122.403924
 20
-1.614653
 30
0.0
 10
121.129488
 20
-1.237787
 30
0.0
  0
LINE
  5
198
100
AcDbEntity
  8
Layer_1
 62
3
100
AcDbLine
 10
121.129488
 20
-1.237787
 30
0.0
 11
121.129488
 21
-1.237787
 31
0.0
  0
LINE
  5
199
100
AcDbEntity
  8
Layer_1
 62
3
100
AcDbLine
 10
107.261994
 20
-8.806222
 30
0.0
 11
107.261994
 21
-3.947891
 31
0.0
  0
LINE
  5
19a
100
AcDbEntity
  8
Layer_1
 62
3
100
AcDbLine
 10
107.261994
 20
-3.947891
 30
0.0
 11
106.347446
 21
-3.947891
 31
0.0
  0
LINE
  5
19b
100
AcDbEntity
  8
Layer_1
 62
3
100
AcDbLine
 10
106.347446
 20
-3.947891
 30
0.0
 11
104.058670
 21
-6.884540
 31
0.0
  0
LINE
  5
19c
100
AcDbEntity
  8
Layer_1
 62
3
100
AcDbLine
 10
104.058670
 20
-6.884540
 30
0.0
 11
101.820097
 21
-3.947891
 31
0.0
  0
LINE
  5
19d
100
AcDbEntity
  8
Layer_1
 62
3
100
AcDbLine
 10
101.820097
 20
-3.947891
 30
0.0
 11
100.914938
 21
-3.947891
 31
0.0
  0
LINE
  5
19e
100
AcDbEntity
  8
Layer_1
 62
3
100
AcDbLine
 10
100.914938
 20
-3.947891
 30
0.0
 11
100.914938
 21
-8.806222
 31
0.0
  0
LINE
  5
19f
100
AcDbEntity
  8
Layer_1
 62
3
100
AcDbLine
 10
100.914938
 20
-8.806222
 30
0.0
 11
101.962841
 21
-8.806222
 31
0.0
  0
LINE
  5
1a0
100
AcDbEntity
  8
Layer_1
 62
3
100
AcDbLine
 10
101.962841
 20
-8.806222
 30
0.0
 11
101.962841
 21
-5.805250
 31
0.0
  0
SPLINE
  5
1a1
100
AcDbEntity
  8
Layer_1
 62
3
100
AcDbSpline
 70
8
 71
3
 72
8
 73
4
 74
0
 40
0
 40
0
 40
0
 40
0
 40
1
 40
1
 40
1
 40
1
 10
101.962841
 20
-5.805250
 30
0.0
 10
101.962841
 20
-5.747236
 30
0.0
 10
101.959653
 20
-5.673471
 30
0.0
 10
101.951842
 20
-5.584052
 30
0.0
  0
SPLINE
  5
1a2
100
AcDbEntity
  8
Layer_1
 62
3
100
AcDbSpline
 70
8
 71
3
 72
8
 73
4
 74
0
 40
0
 40
0
 40
0
 40
0
 40
1
 40
1
 40
1
 40
1
 10
101.951842
 20
-5.584052
 30
0.0
 10
101.943872
 20
-5.494655
 30
0.0
 10
101.933033
 20
-5.395805
 30
0.0
 10
101.922034
 20
-5.285997
 30
0.0
  0
SPLINE
  5
1a3
100
AcDbEntity
  8
Layer_1
 62
3
100
AcDbSpline
 70
8
 71
3
 72
8
 73
4
 74
0
 40
0
 40
0
 40
0
 40
0
 40
1
 40
1
 40
1
 40
1
 10
101.922034
 20
-5.285997
 30
0.0
 10
101.983244
 20
-5.411503
 30
0.0
 10
102.036548
 20
-5.515044
 30
0.0
 10
102.082057
 20
-5.595052
 30
0.0
  0
SPLINE
  5
1a4
100
AcDbEntity
  8
Layer_1
 62
3
100
AcDbSpline
 70
8
 71
3
 72
8
 73
4
 74
0
 40
0
 40
0
 40
0
 40
0
 40
1
 40
1
 40
1
 40
1
 10
102.082057
 20
-5.595052
 30
0.0
 10
102.127486
 20
-5.676622
 30
0.0
 10
102.169895
 20
-5.744076
 30
0.0
 10
102.205967
 20
-5.795832
 30
0.0
  0
LINE
  5
1a5
100
AcDbEntity
  8
Layer_1
 62
3
100
AcDbLine
 10
102.205967
 20
-5.795832
 30
0.0
 11
104.030416
 21
-8.222646
 31
0.0
  0
LINE
  5
1a6
100
AcDbEntity
  8
Layer_1
 62
3
100
AcDbLine
 10
104.030416
 20
-8.222646
 30
0.0
 11
104.256312
 21
-8.222646
 31
0.0
  0
LINE
  5
1a7
100
AcDbEntity
  8
Layer_1
 62
3
100
AcDbLine
 10
104.256312
 20
-8.222646
 30
0.0
 11
106.085431
 21
-5.786437
 31
0.0
  0
SPLINE
  5
1a8
100
AcDbEntity
  8
Layer_1
 62
3
100
AcDbSpline
 70
8
 71
3
 72
8
 73
4
 74
0
 40
0
 40
0
 40
0
 40
0
 40
1
 40
1
 40
1
 40
1
 10
106.085431
 20
-5.786437
 30
0.0
 10
106.152857
 20
-5.693867
 30
0.0
 10
106.210919
 20
-5.607592
 30
0.0
 10
106.257998
 20
-5.526016
 30
0.0
  0
SPLINE
  5
1a9
100
AcDbEntity
  8
Layer_1
 62
3
100
AcDbSpline
 70
8
 71
3
 72
8
 73
4
 74
0
 40
0
 40
0
 40
0
 40
0
 40
1
 40
1
 40
1
 40
1
 10
106.257998
 20
-5.526016
 30
0.0
 10
106.305022
 20
-5.446015
 30
0.0
 10
106.344266
 20
-5.366006
 30
0.0
 10
106.375644
 20
-5.290717
 30
0.0
  0
SPLINE
  5
1aa
100
AcDbEntity
  8
Layer_1
 62
3
100
AcDbSpline
 70
8
 71
3
 72
8
 73
4
 74
0
 40
0
 40
0
 40
0
 40
0
 40
1
 40
1
 40
1
 40
1
 10
106.375644
 20
-5.290717
 30
0.0
 10
106.366240
 20
-5.391114
 30
0.0
 10
106.358429
 20
-5.483662
 30
0.0
 10
106.353647
 20
-5.565239
 30
0.0
  0
SPLINE
  5
1ab
100
AcDbEntity
  8
Layer_1
 62
3
100
AcDbSpline
 70
8
 71
3
 72
8
 73
4
 74
0
 40
0
 40
0
 40
0
 40
0
 40
1
 40
1
 40
1
 40
1
 10
106.353647
 20
-5.565239
 30
0.0
 10
106.349662
 20
-5.648369
 30
0.0
 10
106.347271
 20
-5.728371
 30
0.0
 10
106.347271
 20
-5.805250
 30
0.0
  0
LINE
  5
1ac
100
AcDbEntity
  8
Layer_1
 62
3
100
AcDbLine
 10
106.347271
 20
-5.805250
 30
0.0
 11
106.347271
 21
-8.806222
 31
0.0
  0
LINE
  5
1ad
100
AcDbEntity
  8
Layer_1
 62
3
100
AcDbLine
 10
106.347271
 20
-8.806222
 30
0.0
 11
107.261994
 21
-8.806222
 31
0.0
  0
LINE
  5
1ae
100
AcDbEntity
  8
Layer_1
 62
3
100
AcDbLine
 10
97.674219
 20
-6.867281
 30
0.0
 11
95.547028
 21
-6.867281
 31
0.0
  0
LINE
  5
1af
100
AcDbEntity
  8
Layer_1
 62
3
100
AcDbLine
 10
95.547028
 20
-6.867281
 30
0.0
 11
96.594938
 21
-4.890675
 31
0.0
  0
LINE
  5
1b0
100
AcDbEntity
  8
Layer_1
 62
3
100
AcDbLine
 10
96.594938
 20
-4.890675
 30
0.0
 11
97.674219
 21
-6.867281
 31
0.0
  0
LINE
  5
1b1
100
AcDbEntity
  8
Layer_1
 62
3
100
AcDbLine
 10
99.848482
 20
-8.806222
 30
0.0
 11
97.100080
 21
-3.947891
 31
0.0
  0
LINE
  5
1b2
100
AcDbEntity
  8
Layer_1
 62
3
100
AcDbLine
 10
97.100080
 20
-3.947891
 30
0.0
 11
96.011395
 21
-3.947891
 31
0.0
  0
LINE
  5
1b3
100
AcDbEntity
  8
Layer_1
 62
3
100
AcDbLine
 10
96.011395
 20
-3.947891
 30
0.0
 11
93.225327
 21
-8.806222
 31
0.0
  0
LINE
  5
1b4
100
AcDbEntity
  8
Layer_1
 62
3
100
AcDbLine
 10
93.225327
 20
-8.806222
 30
0.0
 11
94.494423
 21
-8.806222
 31
0.0
  0
LINE
  5
1b5
100
AcDbEntity
  8
Layer_1
 62
3
100
AcDbLine
 10
94.494423
 20
-8.806222
 30
0.0
 11
95.077998
 21
-7.745766
 31
0.0
  0
LINE
  5
1b6
100
AcDbEntity
  8
Layer_1
 62
3
100
AcDbLine
 10
95.077998
 20
-7.745766
 30
0.0
 11
98.157396
 21
-7.745766
 31
0.0
  0
LINE
  5
1b7
100
AcDbEntity
  8
Layer_1
 62
3
100
AcDbLine
 10
98.157396
 20
-7.745766
 30
0.0
 11
98.722114
 21
-8.806222
 31
0.0
  0
LINE
  5
1b8
100
AcDbEntity
  8
Layer_1
 62
3
100
AcDbLine
 10
98.722114
 20
-8.806222
 30
0.0
 11
99.848482
 21
-8.806222
 31
0.0
  0
LINE
  5
1b9
100
AcDbEntity
  8
Layer_1
 62
3
100
AcDbLine
 10
92.044333
 20
-8.806222
 30
0.0
 11
92.044333
 21
-3.947891
 31
0.0
  0
LINE
  5
1ba
100
AcDbEntity
  8
Layer_1
 62
3
100
AcDbLine
 10
92.044333
 20
-3.947891
 30
0.0
 11
90.903882
 21
-3.947891
 31
0.0
  0
LINE
  5
1bb
100
AcDbEntity
  8
Layer_1
 62
3
100
AcDbLine
 10
90.903882
 20
-3.947891
 30
0.0
 11
90.903882
 21
-5.974677
 31
0.0
  0
LINE
  5
1bc
100
AcDbEntity
  8
Layer_1
 62
3
100
AcDbLine
 10
90.903882
 20
-5.974677
 30
0.0
 11
88.210394
 21
-3.947891
 31
0.0
  0
LINE
  5
1bd
100
AcDbEntity
  8
Layer_1
 62
3
100
AcDbLine
 10
88.210394
 20
-3.947891
 30
0.0
 11
86.574198
 21
-3.947891
 31
0.0
  0
LINE
  5
1be
100
AcDbEntity
  8
Layer_1
 62
3
100
AcDbLine
 10
86.574198
 20
-3.947891
 30
0.0
 11
89.791677
 21
-6.236659
 31
0.0
  0
LINE
  5
1bf
100
AcDbEntity
  8
Layer_1
 62
3
100
AcDbLine
 10
89.791677
 20
-6.236659
 30
0.0
 11
86.178876
 21
-8.806222
 31
0.0
  0
LINE
  5
1c0
100
AcDbEntity
  8
Layer_1
 62
3
100
AcDbLine
 10
86.178876
 20
-8.806222
 30
0.0
 11
87.993888
 21
-8.806222
 31
0.0
  0
LINE
  5
1c1
100
AcDbEntity
  8
Layer_1
 62
3
100
AcDbLine
 10
87.993888
 20
-8.806222
 30
0.0
 11
90.903882
 21
-6.669615
 31
0.0
  0
LINE
  5
1c2
100
AcDbEntity
  8
Layer_1
 62
3
100
AcDbLine
 10
90.903882
 20
-6.669615
 30
0.0
 11
90.903882
 21
-8.806222
 31
0.0
  0
LINE
  5
1c3
100
AcDbEntity
  8
Layer_1
 62
3
100
AcDbLine
 10
90.903882
 20
-8.806222
 30
0.0
 11
92.044333
 21
-8.806222
 31
0.0
  0
LINE
  5
1c4
100
AcDbEntity
  8
Layer_1
 62
3
100
AcDbLine
 10
84.952412
 20
-8.806222
 30
0.0
 11
84.952412
 21
-3.947891
 31
0.0
  0
LINE
  5
1c5
100
AcDbEntity
  8
Layer_1
 62
3
100
AcDbLine
 10
84.952412
 20
-3.947891
 30
0.0
 11
79.977999
 21
-3.947891
 31
0.0
  0
LINE
  5
1c6
100
AcDbEntity
  8
Layer_1
 62
3
100
AcDbLine
 10
79.977999
 20
-3.947891
 30
0.0
 11
79.977999
 21
-4.774587
 31
0.0
  0
LINE
  5
1c7
100
AcDbEntity
  8
Layer_1
 62
3
100
AcDbLine
 10
79.977999
 20
-4.774587
 30
0.0
 11
83.821374
 21
-4.774587
 31
0.0
  0
LINE
  5
1c8
100
AcDbEntity
  8
Layer_1
 62
3
100
AcDbLine
 10
83.821374
 20
-4.774587
 30
0.0
 11
83.821374
 21
-5.860143
 31
0.0
  0
LINE
  5
1c9
100
AcDbEntity
  8
Layer_1
 62
3
100
AcDbLine
 10
83.821374
 20
-5.860143
 30
0.0
 11
81.578107
 21
-5.860143
 31
0.0
  0
LINE
  5
1ca
100
AcDbEntity
  8
Layer_1
 62
3
100
AcDbLine
 10
81.578107
 20
-5.860143
 30
0.0
 11
81.578107
 21
-6.686882
 31
0.0
  0
LINE
  5
1cb
100
AcDbEntity
  8
Layer_1
 62
3
100
AcDbLine
 10
81.578107
 20
-6.686882
 30
0.0
 11
83.821374
 21
-6.686882
 31
0.0
  0
LINE
  5
1cc
100
AcDbEntity
  8
Layer_1
 62
3
100
AcDbLine
 10
83.821374
 20
-6.686882
 30
0.0
 11
83.821374
 21
-7.891666
 31
0.0
  0
LINE
  5
1cd
100
AcDbEntity
  8
Layer_1
 62
3
100
AcDbLine
 10
83.821374
 20
-7.891666
 30
0.0
 11
79.932498
 21
-7.891666
 31
0.0
  0
LINE
  5
1ce
100
AcDbEntity
  8
Layer_1
 62
3
100
AcDbLine
 10
79.932498
 20
-7.891666
 30
0.0
 11
79.932498
 21
-8.806222
 31
0.0
  0
LINE
  5
1cf
100
AcDbEntity
  8
Layer_1
 62
3
100
AcDbLine
 10
79.932498
 20
-8.806222
 30
0.0
 11
84.952412
 21
-8.806222
 31
0.0
  0
LINE
  5
1d0
100
AcDbEntity
  8
Layer_1
 62
3
100
AcDbLine
 10
74.574000
 20
-4.788709
 30
0.0
 11
77.116909
 21
-4.788709
 31
0.0
  0
LINE
  5
1d1
100
AcDbEntity
  8
Layer_1
 62
3
100
AcDbLine
 10
77.116909
 20
-4.788709
 30
0.0
 11
77.116909
 21
-6.140967
 31
0.0
  0
LINE
  5
1d2
100
AcDbEntity
  8
Layer_1
 62
3
100
AcDbLine
 10
77.116909
 20
-6.140967
 30
0.0
 11
74.574000
 21
-6.140967
 31
0.0
  0
SPLINE
  5
1d3
100
AcDbEntity
  8
Layer_1
 62
3
100
AcDbSpline
 70
8
 71
3
 72
8
 73
4
 74
0
 40
0
 40
0
 40
0
 40
0
 40
1
 40
1
 40
1
 40
1
 10
74.574000
 20
-6.140967
 30
0.0
 10
74.377913
 20
-6.140967
 30
0.0
 10
74.244574
 20
-6.112722
 30
0.0
 10
74.172413
 20
-6.056232
 30
0.0
  0
SPLINE
  5
1d4
100
AcDbEntity
  8
Layer_1
 62
3
100
AcDbSpline
 70
8
 71
3
 72
8
 73
4
 74
0
 40
0
 40
0
 40
0
 40
0
 40
1
 40
1
 40
1
 40
1
 10
74.172413
 20
-6.056232
 30
0.0
 10
74.100204
 20
-5.999812
 30
0.0
 10
74.064164
 20
-5.899374
 30
0.0
 10
74.064164
 20
-5.755055
 30
0.0
  0
LINE
  5
1d5
100
AcDbEntity
  8
Layer_1
 62
3
100
AcDbLine
 10
74.064164
 20
-5.755055
 30
0.0
 11
74.064164
 21
-5.169910
 31
0.0
  0
SPLINE
  5
1d6
100
AcDbEntity
  8
Layer_1
 62
3
100
AcDbSpline
 70
8
 71
3
 72
8
 73
4
 74
0
 40
0
 40
0
 40
0
 40
0
 40
1
 40
1
 40
1
 40
1
 10
74.064164
 20
-5.169910
 30
0.0
 10
74.064164
 20
-5.028742
 30
0.0
 10
74.100268
 20
-4.929899
 30
0.0
 10
74.172413
 20
-4.873430
 30
0.0
  0
SPLINE
  5
1d7
100
AcDbEntity
  8
Layer_1
 62
3
100
AcDbSpline
 70
8
 71
3
 72
8
 73
4
 74
0
 40
0
 40
0
 40
0
 40
0
 40
1
 40
1
 40
1
 40
1
 10
74.172413
 20
-4.873430
 30
0.0
 10
74.244622
 20
-4.816938
 30
0.0
 10
74.377913
 20
-4.788709
 30
0.0
 10
74.574000
 20
-4.788709
 30
0.0
  0
LINE
  5
1d8
100
AcDbEntity
  8
Layer_1
 62
3
100
AcDbLine
 10
74.574000
 20
-4.788709
 30
0.0
 11
74.574000
 21
-4.788709
 31
0.0
  0
LINE
  5
1d9
100
AcDbEntity
  8
Layer_1
 62
3
100
AcDbLine
 10
78.229130
 20
-8.806222
 30
0.0
 11
78.229130
 21
-3.947891
 31
0.0
  0
LINE
  5
1da
100
AcDbEntity
  8
Layer_1
 62
3
100
AcDbLine
 10
78.229130
 20
-3.947891
 30
0.0
 11
74.073584
 21
-3.947891
 31
0.0
  0
SPLINE
  5
1db
100
AcDbEntity
  8
Layer_1
 62
3
100
AcDbSpline
 70
8
 71
3
 72
8
 73
4
 74
0
 40
0
 40
0
 40
0
 40
0
 40
1
 40
1
 40
1
 40
1
 10
74.073584
 20
-3.947891
 30
0.0
 10
73.687690
 20
-3.947891
 30
0.0
 10
73.408443
 20
-4.021622
 30
0.0
 10
73.234322
 20
-4.170636
 30
0.0
  0
SPLINE
  5
1dc
100
AcDbEntity
  8
Layer_1
 62
3
100
AcDbSpline
 70
8
 71
3
 72
8
 73
4
 74
0
 40
0
 40
0
 40
0
 40
0
 40
1
 40
1
 40
1
 40
1
 10
73.234322
 20
-4.170636
 30
0.0
 10
73.061770
 20
-4.319673
 30
0.0
 10
72.975470
 20
-4.559684
 30
0.0
 10
72.975470
 20
-4.889128
 30
0.0
  0
LINE
  5
1dd
100
AcDbEntity
  8
Layer_1
 62
3
100
AcDbLine
 10
72.975470
 20
-4.889128
 30
0.0
 11
72.975470
 21
-6.031153
 31
0.0
  0
SPLINE
  5
1de
100
AcDbEntity
  8
Layer_1
 62
3
100
AcDbSpline
 70
8
 71
3
 72
8
 73
4
 74
0
 40
0
 40
0
 40
0
 40
0
 40
1
 40
1
 40
1
 40
1
 10
72.975470
 20
-6.031153
 30
0.0
 10
72.975470
 20
-6.359014
 30
0.0
 10
73.061770
 20
-6.597456
 30
0.0
 10
73.234322
 20
-6.746495
 30
0.0
  0
SPLINE
  5
1df
100
AcDbEntity
  8
Layer_1
 62
3
100
AcDbSpline
 70
8
 71
3
 72
8
 73
4
 74
0
 40
0
 40
0
 40
0
 40
0
 40
1
 40
1
 40
1
 40
1
 10
73.234322
 20
-6.746495
 30
0.0
 10
73.408443
 20
-6.897079
 30
0.0
 10
73.687690
 20
-6.972390
 30
0.0
 10
74.073584
 20
-6.972390
 30
0.0
  0
LINE
  5
1e0
100
AcDbEntity
  8
Layer_1
 62
3
100
AcDbLine
 10
74.073584
 20
-6.972390
 30
0.0
 11
74.707363
 21
-6.972390
 31
0.0
  0
LINE
  5
1e1
100
AcDbEntity
  8
Layer_1
 62
3
100
AcDbLine
 10
74.707363
 20
-6.972390
 30
0.0
 11
72.465642
 21
-8.806222
 31
0.0
  0
LINE
  5
1e2
100
AcDbEntity
  8
Layer_1
 62
3
100
AcDbLine
 10
72.465642
 20
-8.806222
 30
0.0
 11
74.087707
 21
-8.806222
 31
0.0
  0
LINE
  5
1e3
100
AcDbEntity
  8
Layer_1
 62
3
100
AcDbLine
 10
74.087707
 20
-8.806222
 30
0.0
 11
76.045463
 21
-6.972390
 31
0.0
  0
LINE
  5
1e4
100
AcDbEntity
  8
Layer_1
 62
3
100
AcDbLine
 10
76.045463
 20
-6.972390
 30
0.0
 11
77.116909
 21
-6.972390
 31
0.0
  0
LINE
  5
1e5
100
AcDbEntity
  8
Layer_1
 62
3
100
AcDbLine
 10
77.116909
 20
-6.972390
 30
0.0
 11
77.116909
 21
-8.806222
 31
0.0
  0
LINE
  5
1e6
100
AcDbEntity
  8
Layer_1
 62
3
100
AcDbLine
 10
77.116909
 20
-8.806222
 30
0.0
 11
78.229130
 21
-8.806222
 31
0.0
  0
LINE
  5
1e7
100
AcDbEntity
  8
Layer_1
 62
3
100
AcDbLine
 10
66.854589
 20
-4.798127
 30
0.0
 11
70.034393
 21
-4.798127
 31
0.0
  0
LINE
  5
1e8
100
AcDbEntity
  8
Layer_1
 62
3
100
AcDbLine
 10
70.034393
 20
-4.798127
 30
0.0
 11
70.034393
 21
-5.841337
 31
0.0
  0
LINE
  5
1e9
100
AcDbEntity
  8
Layer_1
 62
3
100
AcDbLine
 10
70.034393
 20
-5.841337
 30
0.0
 11
67.006753
 21
-5.841337
 31
0.0
  0
SPLINE
  5
1ea
100
AcDbEntity
  8
Layer_1
 62
3
100
AcDbSpline
 70
8
 71
3
 72
8
 73
4
 74
0
 40
0
 40
0
 40
0
 40
0
 40
1
 40
1
 40
1
 40
1
 10
67.006753
 20
-5.841337
 30
0.0
 10
66.531419
 20
-5.841337
 30
0.0
 10
66.209859
 20
-5.922914
 30
0.0
 10
66.043548
 20
-6.084492
 30
0.0
  0
SPLINE
  5
1eb
100
AcDbEntity
  8
Layer_1
 62
3
100
AcDbSpline
 70
8
 71
3
 72
8
 73
4
 74
0
 40
0
 40
0
 40
0
 40
0
 40
1
 40
1
 40
1
 40
1
 10
66.043548
 20
-6.084492
 30
0.0
 10
65.875691
 20
-6.247631
 30
0.0
 10
65.792563
 20
-6.548822
 30
0.0
 10
65.792563
 20
-6.991196
 30
0.0
  0
LINE
  5
1ec
100
AcDbEntity
  8
Layer_1
 62
3
100
AcDbLine
 10
65.792563
 20
-6.991196
 30
0.0
 11
65.792563
 21
-7.657928
 31
0.0
  0
SPLINE
  5
1ed
100
AcDbEntity
  8
Layer_1
 62
3
100
AcDbSpline
 70
8
 71
3
 72
8
 73
4
 74
0
 40
0
 40
0
 40
0
 40
0
 40
1
 40
1
 40
1
 40
1
 10
65.792563
 20
-7.657928
 30
0.0
 10
65.792563
 20
-8.098728
 30
0.0
 10
65.875691
 20
-8.399924
 30
0.0
 10
66.043548
 20
-8.563055
 30
0.0
  0
SPLINE
  5
1ee
100
AcDbEntity
  8
Layer_1
 62
3
100
AcDbSpline
 70
8
 71
3
 72
8
 73
4
 74
0
 40
0
 40
0
 40
0
 40
0
 40
1
 40
1
 40
1
 40
1
 10
66.043548
 20
-8.563055
 30
0.0
 10
66.209859
 20
-8.724648
 30
0.0
 10
66.531419
 20
-8.806222
 30
0.0
 10
67.006753
 20
-8.806222
 30
0.0
  0
LINE
  5
1ef
100
AcDbEntity
  8
Layer_1
 62
3
100
AcDbLine
 10
67.006753
 20
-8.806222
 30
0.0
 11
70.006147
 21
-8.806222
 31
0.0
  0
SPLINE
  5
1f0
100
AcDbEntity
  8
Layer_1
 62
3
100
AcDbSpline
 70
8
 71
3
 72
8
 73
4
 74
0
 40
0
 40
0
 40
0
 40
0
 40
1
 40
1
 40
1
 40
1
 10
70.006147
 20
-8.806222
 30
0.0
 10
70.481465
 20
-8.806222
 30
0.0
 10
70.803057
 20
-8.724648
 30
0.0
 10
70.969344
 20
-8.563055
 30
0.0
  0
SPLINE
  5
1f1
100
AcDbEntity
  8
Layer_1
 62
3
100
AcDbSpline
 70
8
 71
3
 72
8
 73
4
 74
0
 40
0
 40
0
 40
0
 40
0
 40
1
 40
1
 40
1
 40
1
 10
70.969344
 20
-8.563055
 30
0.0
 10
71.137201
 20
-8.399924
 30
0.0
 10
71.220353
 20
-8.098728
 30
0.0
 10
71.220353
 20
-7.657928
 30
0.0
  0
LINE
  5
1f2
100
AcDbEntity
  8
Layer_1
 62
3
100
AcDbLine
 10
71.220353
 20
-7.657928
 30
0.0
 11
71.220353
 21
-7.524578
 31
0.0
  0
LINE
  5
1f3
100
AcDbEntity
  8
Layer_1
 62
3
100
AcDbLine
 10
71.220353
 20
-7.524578
 30
0.0
 11
70.222646
 21
-7.317488
 31
0.0
  0
LINE
  5
1f4
100
AcDbEntity
  8
Layer_1
 62
3
100
AcDbLine
 10
70.222646
 20
-7.317488
 30
0.0
 11
70.222646
 21
-7.891666
 31
0.0
  0
LINE
  5
1f5
100
AcDbEntity
  8
Layer_1
 62
3
100
AcDbLine
 10
70.222646
 20
-7.891666
 30
0.0
 11
66.790278
 21
-7.891666
 31
0.0
  0
LINE
  5
1f6
100
AcDbEntity
  8
Layer_1
 62
3
100
AcDbLine
 10
66.790278
 20
-7.891666
 30
0.0
 11
66.790278
 21
-6.784143
 31
0.0
  0
LINE
  5
1f7
100
AcDbEntity
  8
Layer_1
 62
3
100
AcDbLine
 10
66.790278
 20
-6.784143
 30
0.0
 11
69.817895
 21
-6.784143
 31
0.0
  0
SPLINE
  5
1f8
100
AcDbEntity
  8
Layer_1
 62
3
100
AcDbSpline
 70
8
 71
3
 72
8
 73
4
 74
0
 40
0
 40
0
 40
0
 40
0
 40
1
 40
1
 40
1
 40
1
 10
69.817895
 20
-6.784143
 30
0.0
 10
70.290080
 20
-6.784143
 30
0.0
 10
70.608548
 20
-6.702566
 30
0.0
 10
70.774827
 20
-6.540988
 30
0.0
  0
SPLINE
  5
1f9
100
AcDbEntity
  8
Layer_1
 62
3
100
AcDbSpline
 70
8
 71
3
 72
8
 73
4
 74
0
 40
0
 40
0
 40
0
 40
0
 40
1
 40
1
 40
1
 40
1
 10
70.774827
 20
-6.540988
 30
0.0
 10
70.939536
 20
-6.377827
 30
0.0
 10
71.022688
 20
-6.076643
 30
0.0
 10
71.022688
 20
-5.634255
 30
0.0
  0
LINE
  5
1fa
100
AcDbEntity
  8
Layer_1
 62
3
100
AcDbLine
 10
71.022688
 20
-5.634255
 30
0.0
 11
71.022688
 21
-5.097750
 31
0.0
  0
SPLINE
  5
1fb
100
AcDbEntity
  8
Layer_1
 62
3
100
AcDbSpline
 70
8
 71
3
 72
8
 73
4
 74
0
 40
0
 40
0
 40
0
 40
0
 40
1
 40
1
 40
1
 40
1
 10
71.022688
 20
-5.097750
 30
0.0
 10
71.022688
 20
-4.655377
 30
0.0
 10
70.939536
 20
-4.354185
 30
0.0
 10
70.774827
 20
-4.191046
 30
0.0
  0
SPLINE
  5
1fc
100
AcDbEntity
  8
Layer_1
 62
3
100
AcDbSpline
 70
8
 71
3
 72
8
 73
4
 74
0
 40
0
 40
0
 40
0
 40
0
 40
1
 40
1
 40
1
 40
1
 10
70.774827
 20
-4.191046
 30
0.0
 10
70.608548
 20
-4.029468
 30
0.0
 10
70.290080
 20
-3.947891
 30
0.0
 10
69.817895
 20
-3.947891
 30
0.0
  0
LINE
  5
1fd
100
AcDbEntity
  8
Layer_1
 62
3
100
AcDbLine
 10
69.817895
 20
-3.947891
 30
0.0
 11
67.061667
 21
-3.947891
 31
0.0
  0
SPLINE
  5
1fe
100
AcDbEntity
  8
Layer_1
 62
3
100
AcDbSpline
 70
8
 71
3
 72
8
 73
4
 74
0
 40
0
 40
0
 40
0
 40
0
 40
1
 40
1
 40
1
 40
1
 10
67.061667
 20
-3.947891
 30
0.0
 10
66.605158
 20
-3.947891
 30
0.0
 10
66.289855
 20
-4.026324
 30
0.0
 10
66.117279
 20
-4.181629
 30
0.0
  0
SPLINE
  5
1ff
100
AcDbEntity
  8
Layer_1
 62
3
100
AcDbSpline
 70
8
 71
3
 72
8
 73
4
 74
0
 40
0
 40
0
 40
0
 40
0
 40
1
 40
1
 40
1
 40
1
 10
66.117279
 20
-4.181629
 30
0.0
 10
65.943157
 20
-4.338486
 30
0.0
 10
65.856874
 20
-4.616160
 30
0.0
 10
65.856874
 20
-5.014604
 30
0.0
  0
LINE
  5
200
100
AcDbEntity
  8
Layer_1
 62
3
100
AcDbLine
 10
65.856874
 20
-5.014604
 30
0.0
 11
65.856874
 21
-5.115024
 31
0.0
  0
LINE
  5
201
100
AcDbEntity
  8
Layer_1
 62
3
100
AcDbLine
 10
65.856874
 20
-5.115024
 30
0.0
 11
66.854589
 21
-5.350308
 31
0.0
  0
LINE
  5
202
100
AcDbEntity
  8
Layer_1
 62
3
100
AcDbLine
 10
66.854589
 20
-5.350308
 30
0.0
 11
66.854589
 21
-4.798127
 31
0.0
  0
LINE
  5
203
100
AcDbEntity
  8
Layer_1
 62
3
100
AcDbLine
 10
60.175230
 20
-4.788690
 30
0.0
 11
62.718131
 21
-4.788690
 31
0.0
  0
LINE
  5
204
100
AcDbEntity
  8
Layer_1
 62
3
100
AcDbLine
 10
62.718131
 20
-4.788690
 30
0.0
 11
62.718131
 21
-6.076623
 31
0.0
  0
LINE
  5
205
100
AcDbEntity
  8
Layer_1
 62
3
100
AcDbLine
 10
62.718131
 20
-6.076623
 30
0.0
 11
60.175230
 21
-6.076623
 31
0.0
  0
SPLINE
  5
206
100
AcDbEntity
  8
Layer_1
 62
3
100
AcDbSpline
 70
8
 71
3
 72
8
 73
4
 74
0
 40
0
 40
0
 40
0
 40
0
 40
1
 40
1
 40
1
 40
1
 10
60.175230
 20
-6.076623
 30
0.0
 10
59.979143
 20
-6.076623
 30
0.0
 10
59.845796
 20
-6.048449
 30
0.0
 10
59.773627
 20
-5.991903
 30
0.0
  0
SPLINE
  5
207
100
AcDbEntity
  8
Layer_1
 62
3
100
AcDbSpline
 70
8
 71
3
 72
8
 73
4
 74
0
 40
0
 40
0
 40
0
 40
0
 40
1
 40
1
 40
1
 40
1
 10
59.773627
 20
-5.991903
 30
0.0
 10
59.701418
 20
-5.935411
 30
0.0
 10
59.665394
 20
-5.835044
 30
0.0
 10
59.665394
 20
-5.690726
 30
0.0
  0
LINE
  5
208
100
AcDbEntity
  8
Layer_1
 62
3
100
AcDbLine
 10
59.665394
 20
-5.690726
 30
0.0
 11
59.665394
 21
-5.169890
 31
0.0
  0
SPLINE
  5
209
100
AcDbEntity
  8
Layer_1
 62
3
100
AcDbSpline
 70
8
 71
3
 72
8
 73
4
 74
0
 40
0
 40
0
 40
0
 40
0
 40
1
 40
1
 40
1
 40
1
 10
59.665394
 20
-5.169890
 30
0.0
 10
59.665394
 20
-5.028723
 30
0.0
 10
59.701498
 20
-4.929887
 30
0.0
 10
59.773627
 20
-4.873411
 30
0.0
  0
SPLINE
  5
20a
100
AcDbEntity
  8
Layer_1
 62
3
100
AcDbSpline
 70
8
 71
3
 72
8
 73
4
 74
0
 40
0
 40
0
 40
0
 40
0
 40
1
 40
1
 40
1
 40
1
 10
59.773627
 20
-4.873411
 30
0.0
 10
59.845756
 20
-4.816919
 30
0.0
 10
59.979143
 20
-4.788690
 30
0.0
 10
60.175230
 20
-4.788690
 30
0.0
  0
LINE
  5
20b
100
AcDbEntity
  8
Layer_1
 62
3
100
AcDbLine
 10
60.175230
 20
-4.788690
 30
0.0
 11
60.175230
 21
-4.788690
 31
0.0
  0
LINE
  5
20c
100
AcDbEntity
  8
Layer_1
 62
3
100
AcDbLine
 10
63.830344
 20
-8.806198
 30
0.0
 11
63.830344
 21
-3.947872
 31
0.0
  0
LINE
  5
20d
100
AcDbEntity
  8
Layer_1
 62
3
100
AcDbLine
 10
63.830344
 20
-3.947872
 30
0.0
 11
59.674814
 21
-3.947872
 31
0.0
  0
SPLINE
  5
20e
100
AcDbEntity
  8
Layer_1
 62
3
100
AcDbSpline
 70
8
 71
3
 72
8
 73
4
 74
0
 40
0
 40
0
 40
0
 40
0
 40
1
 40
1
 40
1
 40
1
 10
59.674814
 20
-3.947872
 30
0.0
 10
59.288904
 20
-3.947872
 30
0.0
 10
59.009673
 20
-4.021595
 30
0.0
 10
58.835544
 20
-4.170616
 30
0.0
  0
SPLINE
  5
20f
100
AcDbEntity
  8
Layer_1
 62
3
100
AcDbSpline
 70
8
 71
3
 72
8
 73
4
 74
0
 40
0
 40
0
 40
0
 40
0
 40
1
 40
1
 40
1
 40
1
 10
58.835544
 20
-4.170616
 30
0.0
 10
58.662984
 20
-4.319654
 30
0.0
 10
58.576692
 20
-4.559665
 30
0.0
 10
58.576692
 20
-4.889102
 30
0.0
  0
LINE
  5
210
100
AcDbEntity
  8
Layer_1
 62
3
100
AcDbLine
 10
58.576692
 20
-4.889102
 30
0.0
 11
58.576692
 21
-5.974658
 31
0.0
  0
SPLINE
  5
211
100
AcDbEntity
  8
Layer_1
 62
3
100
AcDbSpline
 70
8
 71
3
 72
8
 73
4
 74
0
 40
0
 40
0
 40
0
 40
0
 40
1
 40
1
 40
1
 40
1
 10
58.576692
 20
-5.974658
 30
0.0
 10
58.576692
 20
-6.302526
 30
0.0
 10
58.662984
 20
-6.540968
 30
0.0
 10
58.835544
 20
-6.689977
 30
0.0
  0
SPLINE
  5
212
100
AcDbEntity
  8
Layer_1
 62
3
100
AcDbSpline
 70
8
 71
3
 72
8
 73
4
 74
0
 40
0
 40
0
 40
0
 40
0
 40
1
 40
1
 40
1
 40
1
 10
58.835544
 20
-6.689977
 30
0.0
 10
59.009673
 20
-6.839016
 30
0.0
 10
59.288904
 20
-6.912744
 30
0.0
 10
59.674814
 20
-6.912744
 30
0.0
  0
LINE
  5
213
100
AcDbEntity
  8
Layer_1
 62
3
100
AcDbLine
 10
59.674814
 20
-6.912744
 30
0.0
 11
62.718131
 21
-6.912744
 31
0.0
  0
LINE
  5
214
100
AcDbEntity
  8
Layer_1
 62
3
100
AcDbLine
 10
62.718131
 20
-6.912744
 30
0.0
 11
62.718131
 21
-8.806198
 31
0.0
  0
LINE
  5
215
100
AcDbEntity
  8
Layer_1
 62
3
100
AcDbLine
 10
62.718131
 20
-8.806198
 30
0.0
 11
63.830344
 21
-8.806198
 31
0.0
  0
LINE
  5
216
100
AcDbEntity
  8
Layer_1
 62
3
100
AcDbLine
 10
56.485836
 20
-6.867254
 30
0.0
 11
54.358645
 21
-6.867254
 31
0.0
  0
LINE
  5
217
100
AcDbEntity
  8
Layer_1
 62
3
100
AcDbLine
 10
54.358645
 20
-6.867254
 30
0.0
 11
55.406548
 21
-4.890656
 31
0.0
  0
LINE
  5
218
100
AcDbEntity
  8
Layer_1
 62
3
100
AcDbLine
 10
55.406548
 20
-4.890656
 30
0.0
 11
56.485836
 21
-6.867254
 31
0.0
  0
LINE
  5
219
100
AcDbEntity
  8
Layer_1
 62
3
100
AcDbLine
 10
58.660099
 20
-8.806198
 30
0.0
 11
55.911690
 21
-3.947872
 31
0.0
  0
LINE
  5
21a
100
AcDbEntity
  8
Layer_1
 62
3
100
AcDbLine
 10
55.911690
 20
-3.947872
 30
0.0
 11
54.823004
 21
-3.947872
 31
0.0
  0
LINE
  5
21b
100
AcDbEntity
  8
Layer_1
 62
3
100
AcDbLine
 10
54.823004
 20
-3.947872
 30
0.0
 11
52.036953
 21
-8.806198
 31
0.0
  0
LINE
  5
21c
100
AcDbEntity
  8
Layer_1
 62
3
100
AcDbLine
 10
52.036953
 20
-8.806198
 30
0.0
 11
53.306048
 21
-8.806198
 31
0.0
  0
LINE
  5
21d
100
AcDbEntity
  8
Layer_1
 62
3
100
AcDbLine
 10
53.306048
 20
-8.806198
 30
0.0
 11
53.889615
 21
-7.745742
 31
0.0
  0
LINE
  5
21e
100
AcDbEntity
  8
Layer_1
 62
3
100
AcDbLine
 10
53.889615
 20
-7.745742
 30
0.0
 11
56.969013
 21
-7.745742
 31
0.0
  0
LINE
  5
21f
100
AcDbEntity
  8
Layer_1
 62
3
100
AcDbLine
 10
56.969013
 20
-7.745742
 30
0.0
 11
57.533755
 21
-8.806198
 31
0.0
  0
LINE
  5
220
100
AcDbEntity
  8
Layer_1
 62
3
100
AcDbLine
 10
57.533755
 20
-8.806198
 30
0.0
 11
58.660099
 21
-8.806198
 31
0.0
  0
LINE
  5
221
100
AcDbEntity
  8
Layer_1
 62
3
100
AcDbLine
 10
46.943555
 20
-4.816942
 30
0.0
 11
49.990020
 21
-4.816942
 31
0.0
  0
LINE
  5
222
100
AcDbEntity
  8
Layer_1
 62
3
100
AcDbLine
 10
49.990020
 20
-4.816942
 30
0.0
 11
49.990020
 21
-7.891634
 31
0.0
  0
LINE
  5
223
100
AcDbEntity
  8
Layer_1
 62
3
100
AcDbLine
 10
49.990020
 20
-7.891634
 30
0.0
 11
46.943555
 21
-7.891634
 31
0.0
  0
LINE
  5
224
100
AcDbEntity
  8
Layer_1
 62
3
100
AcDbLine
 10
46.943555
 20
-7.891634
 30
0.0
 11
46.943555
 21
-6.848440
 31
0.0
  0
LINE
  5
225
100
AcDbEntity
  8
Layer_1
 62
3
100
AcDbLine
 10
46.943555
 20
-6.848440
 30
0.0
 11
45.812508
 21
-7.082185
 31
0.0
  0
LINE
  5
226
100
AcDbEntity
  8
Layer_1
 62
3
100
AcDbLine
 10
45.812508
 20
-7.082185
 30
0.0
 11
45.812508
 21
-7.657904
 31
0.0
  0
SPLINE
  5
227
100
AcDbEntity
  8
Layer_1
 62
3
100
AcDbSpline
 70
8
 71
3
 72
8
 73
4
 74
0
 40
0
 40
0
 40
0
 40
0
 40
1
 40
1
 40
1
 40
1
 10
45.812508
 20
-7.657904
 30
0.0
 10
45.812508
 20
-8.101844
 30
0.0
 10
45.895660
 20
-8.404603
 30
0.0
 10
46.063501
 20
-8.564610
 30
0.0
  0
SPLINE
  5
228
100
AcDbEntity
  8
Layer_1
 62
3
100
AcDbSpline
 70
8
 71
3
 72
8
 73
4
 74
0
 40
0
 40
0
 40
0
 40
0
 40
1
 40
1
 40
1
 40
1
 10
46.063501
 20
-8.564610
 30
0.0
 10
46.229789
 20
-8.726194
 30
0.0
 10
46.548232
 20
-8.806198
 30
0.0
 10
47.017294
 20
-8.806198
 30
0.0
  0
LINE
  5
229
100
AcDbEntity
  8
Layer_1
 62
3
100
AcDbLine
 10
47.017294
 20
-8.806198
 30
0.0
 11
49.916289
 21
-8.806198
 31
0.0
  0
SPLINE
  5
22a
100
AcDbEntity
  8
Layer_1
 62
3
100
AcDbSpline
 70
8
 71
3
 72
8
 73
4
 74
0
 40
0
 40
0
 40
0
 40
0
 40
1
 40
1
 40
1
 40
1
 10
49.916289
 20
-8.806198
 30
0.0
 10
50.388467
 20
-8.806198
 30
0.0
 10
50.706918
 20
-8.726194
 30
0.0
 10
50.873213
 20
-8.564610
 30
0.0
  0
SPLINE
  5
22b
100
AcDbEntity
  8
Layer_1
 62
3
100
AcDbSpline
 70
8
 71
3
 72
8
 73
4
 74
0
 40
0
 40
0
 40
0
 40
0
 40
1
 40
1
 40
1
 40
1
 10
50.873213
 20
-8.564610
 30
0.0
 10
51.037922
 20
-8.404603
 30
0.0
 10
51.121074
 20
-8.101844
 30
0.0
 10
51.121074
 20
-7.657904
 30
0.0
  0
LINE
  5
22c
100
AcDbEntity
  8
Layer_1
 62
3
100
AcDbLine
 10
51.121074
 20
-7.657904
 30
0.0
 11
51.121074
 21
-5.097730
 31
0.0
  0
SPLINE
  5
22d
100
AcDbEntity
  8
Layer_1
 62
3
100
AcDbSpline
 70
8
 71
3
 72
8
 73
4
 74
0
 40
0
 40
0
 40
0
 40
0
 40
1
 40
1
 40
1
 40
1
 10
51.121074
 20
-5.097730
 30
0.0
 10
51.121074
 20
-4.655357
 30
0.0
 10
51.037922
 20
-4.354158
 30
0.0
 10
50.873213
 20
-4.191019
 30
0.0
  0
SPLINE
  5
22e
100
AcDbEntity
  8
Layer_1
 62
3
100
AcDbSpline
 70
8
 71
3
 72
8
 73
4
 74
0
 40
0
 40
0
 40
0
 40
0
 40
1
 40
1
 40
1
 40
1
 10
50.873213
 20
-4.191019
 30
0.0
 10
50.706918
 20
-4.029448
 30
0.0
 10
50.388467
 20
-3.947872
 30
0.0
 10
49.916289
 20
-3.947872
 30
0.0
  0
LINE
  5
22f
100
AcDbEntity
  8
Layer_1
 62
3
100
AcDbLine
 10
49.916289
 20
-3.947872
 30
0.0
 11
47.017294
 21
-3.947872
 31
0.0
  0
SPLINE
  5
230
100
AcDbEntity
  8
Layer_1
 62
3
100
AcDbSpline
 70
8
 71
3
 72
8
 73
4
 74
0
 40
0
 40
0
 40
0
 40
0
 40
1
 40
1
 40
1
 40
1
 10
47.017294
 20
-3.947872
 30
0.0
 10
46.548232
 20
-3.947872
 30
0.0
 10
46.229789
 20
-4.029448
 30
0.0
 10
46.063501
 20
-4.191019
 30
0.0
  0
SPLINE
  5
231
100
AcDbEntity
  8
Layer_1
 62
3
100
AcDbSpline
 70
8
 71
3
 72
8
 73
4
 74
0
 40
0
 40
0
 40
0
 40
0
 40
1
 40
1
 40
1
 40
1
 10
46.063501
 20
-4.191019
 30
0.0
 10
45.895660
 20
-4.354158
 30
0.0
 10
45.812508
 20
-4.655357
 30
0.0
 10
45.812508
 20
-5.097730
 30
0.0
  0
LINE
  5
232
100
AcDbEntity
  8
Layer_1
 62
3
100
AcDbLine
 10
45.812508
 20
-5.097730
 30
0.0
 11
45.812508
 21
-5.557378
 31
0.0
  0
LINE
  5
233
100
AcDbEntity
  8
Layer_1
 62
3
100
AcDbLine
 10
45.812508
 20
-5.557378
 30
0.0
 11
46.943555
 21
-5.736193
 31
0.0
  0
LINE
  5
234
100
AcDbEntity
  8
Layer_1
 62
3
100
AcDbLine
 10
46.943555
 20
-5.736193
 30
0.0
 11
46.943555
 21
-4.816942
 31
0.0
  0
LINE
  5
235
100
AcDbEntity
  8
Layer_1
 62
3
100
AcDbLine
 10
43.864420
 20
-8.806198
 30
0.0
 11
43.864420
 21
-3.947872
 31
0.0
  0
LINE
  5
236
100
AcDbEntity
  8
Layer_1
 62
3
100
AcDbLine
 10
43.864420
 20
-3.947872
 30
0.0
 11
38.889999
 21
-3.947872
 31
0.0
  0
LINE
  5
237
100
AcDbEntity
  8
Layer_1
 62
3
100
AcDbLine
 10
38.889999
 20
-3.947872
 30
0.0
 11
38.889999
 21
-4.774560
 31
0.0
  0
LINE
  5
238
100
AcDbEntity
  8
Layer_1
 62
3
100
AcDbLine
 10
38.889999
 20
-4.774560
 30
0.0
 11
42.733390
 21
-4.774560
 31
0.0
  0
LINE
  5
239
100
AcDbEntity
  8
Layer_1
 62
3
100
AcDbLine
 10
42.733390
 20
-4.774560
 30
0.0
 11
42.733390
 21
-5.860123
 31
0.0
  0
LINE
  5
23a
100
AcDbEntity
  8
Layer_1
 62
3
100
AcDbLine
 10
42.733390
 20
-5.860123
 30
0.0
 11
40.490115
 21
-5.860123
 31
0.0
  0
LINE
  5
23b
100
AcDbEntity
  8
Layer_1
 62
3
100
AcDbLine
 10
40.490115
 20
-5.860123
 30
0.0
 11
40.490115
 21
-6.686863
 31
0.0
  0
LINE
  5
23c
100
AcDbEntity
  8
Layer_1
 62
3
100
AcDbLine
 10
40.490115
 20
-6.686863
 30
0.0
 11
42.733390
 21
-6.686863
 31
0.0
  0
LINE
  5
23d
100
AcDbEntity
  8
Layer_1
 62
3
100
AcDbLine
 10
42.733390
 20
-6.686863
 30
0.0
 11
42.733390
 21
-7.891634
 31
0.0
  0
LINE
  5
23e
100
AcDbEntity
  8
Layer_1
 62
3
100
AcDbLine
 10
42.733390
 20
-7.891634
 30
0.0
 11
38.844514
 21
-7.891634
 31
0.0
  0
LINE
  5
23f
100
AcDbEntity
  8
Layer_1
 62
3
100
AcDbLine
 10
38.844514
 20
-7.891634
 30
0.0
 11
38.844514
 21
-8.806198
 31
0.0
  0
LINE
  5
240
100
AcDbEntity
  8
Layer_1
 62
3
100
AcDbLine
 10
38.844514
 20
-8.806198
 30
0.0
 11
43.864420
 21
-8.806198
 31
0.0
  0
LINE
  5
241
100
AcDbEntity
  8
Layer_1
 62
3
100
AcDbLine
 10
199.469013
 20
-8.805342
 30
0.0
 11
199.469013
 21
-3.948766
 31
0.0
  0
LINE
  5
242
100
AcDbEntity
  8
Layer_1
 62
3
100
AcDbLine
 10
199.469013
 20
-3.948766
 30
0.0
 11
198.202784
 21
-3.948766
 31
0.0
  0
LINE
  5
243
100
AcDbEntity
  8
Layer_1
 62
3
100
AcDbLine
 10
198.202784
 20
-3.948766
 30
0.0
 11
198.202784
 21
-5.974822
 31
0.0
  0
LINE
  5
244
100
AcDbEntity
  8
Layer_1
 62
3
100
AcDbLine
 10
198.202784
 20
-5.974822
 30
0.0
 11
195.212246
 21
-3.948766
 31
0.0
  0
LINE
  5
245
100
AcDbEntity
  8
Layer_1
 62
3
100
AcDbLine
 10
195.212246
 20
-3.948766
 30
0.0
 11
193.395603
 21
-3.948766
 31
0.0
  0
LINE
  5
246
100
AcDbEntity
  8
Layer_1
 62
3
100
AcDbLine
 10
193.395603
 20
-3.948766
 30
0.0
 11
196.967914
 21
-6.236709
 31
0.0
  0
LINE
  5
247
100
AcDbEntity
  8
Layer_1
 62
3
100
AcDbLine
 10
196.967914
 20
-6.236709
 30
0.0
 11
192.956682
 21
-8.805342
 31
0.0
  0
LINE
  5
248
100
AcDbEntity
  8
Layer_1
 62
3
100
AcDbLine
 10
192.956682
 20
-8.805342
 30
0.0
 11
194.971865
 21
-8.805342
 31
0.0
  0
LINE
  5
249
100
AcDbEntity
  8
Layer_1
 62
3
100
AcDbLine
 10
194.971865
 20
-8.805342
 30
0.0
 11
198.202784
 21
-6.669510
 31
0.0
  0
LINE
  5
24a
100
AcDbEntity
  8
Layer_1
 62
3
100
AcDbLine
 10
198.202784
 20
-6.669510
 30
0.0
 11
198.202784
 21
-8.805342
 31
0.0
  0
LINE
  5
24b
100
AcDbEntity
  8
Layer_1
 62
3
100
AcDbLine
 10
198.202784
 20
-8.805342
 30
0.0
 11
199.469013
 21
-8.805342
 31
0.0
  0
LINE
  5
24c
100
AcDbEntity
  8
Layer_1
 62
3
100
AcDbLine
 10
189.730280
 20
-6.867104
 30
0.0
 11
187.368492
 21
-6.867104
 31
0.0
  0
LINE
  5
24d
100
AcDbEntity
  8
Layer_1
 62
3
100
AcDbLine
 10
187.368492
 20
-6.867104
 30
0.0
 11
188.531962
 21
-4.891210
 31
0.0
  0
LINE
  5
24e
100
AcDbEntity
  8
Layer_1
 62
3
100
AcDbLine
 10
188.531962
 20
-4.891210
 30
0.0
 11
189.730280
 21
-6.867104
 31
0.0
  0
LINE
  5
24f
100
AcDbEntity
  8
Layer_1
 62
3
100
AcDbLine
 10
192.144328
 20
-8.805342
 30
0.0
 11
189.092806
 21
-3.948766
 31
0.0
  0
LINE
  5
250
100
AcDbEntity
  8
Layer_1
 62
3
100
AcDbLine
 10
189.092806
 20
-3.948766
 30
0.0
 11
187.884061
 21
-3.948766
 31
0.0
  0
LINE
  5
251
100
AcDbEntity
  8
Layer_1
 62
3
100
AcDbLine
 10
187.884061
 20
-3.948766
 30
0.0
 11
184.790743
 21
-8.805342
 31
0.0
  0
LINE
  5
252
100
AcDbEntity
  8
Layer_1
 62
3
100
AcDbLine
 10
184.790743
 20
-8.805342
 30
0.0
 11
186.199806
 21
-8.805342
 31
0.0
  0
LINE
  5
253
100
AcDbEntity
  8
Layer_1
 62
3
100
AcDbLine
 10
186.199806
 20
-8.805342
 30
0.0
 11
186.847732
 21
-7.745275
 31
0.0
  0
LINE
  5
254
100
AcDbEntity
  8
Layer_1
 62
3
100
AcDbLine
 10
186.847732
 20
-7.745275
 30
0.0
 11
190.266736
 21
-7.745275
 31
0.0
  0
LINE
  5
255
100
AcDbEntity
  8
Layer_1
 62
3
100
AcDbLine
 10
190.266736
 20
-7.745275
 30
0.0
 11
190.893749
 21
-8.805342
 31
0.0
  0
LINE
  5
256
100
AcDbEntity
  8
Layer_1
 62
3
100
AcDbLine
 10
190.893749
 20
-8.805342
 30
0.0
 11
192.144328
 21
-8.805342
 31
0.0
  0
LINE
  5
257
100
AcDbEntity
  8
Layer_1
 62
3
100
AcDbLine
 10
182.635485
 20
-8.805342
 30
0.0
 11
182.635485
 21
-3.948766
 31
0.0
  0
LINE
  5
258
100
AcDbEntity
  8
Layer_1
 62
3
100
AcDbLine
 10
182.635485
 20
-3.948766
 30
0.0
 11
181.620068
 21
-3.948766
 31
0.0
  0
LINE
  5
259
100
AcDbEntity
  8
Layer_1
 62
3
100
AcDbLine
 10
181.620068
 20
-3.948766
 30
0.0
 11
179.078881
 21
-6.884357
 31
0.0
  0
LINE
  5
25a
100
AcDbEntity
  8
Layer_1
 62
3
100
AcDbLine
 10
179.078881
 20
-6.884357
 30
0.0
 11
176.593430
 21
-3.948766
 31
0.0
  0
LINE
  5
25b
100
AcDbEntity
  8
Layer_1
 62
3
100
AcDbLine
 10
176.593430
 20
-3.948766
 30
0.0
 11
175.588446
 21
-3.948766
 31
0.0
  0
LINE
  5
25c
100
AcDbEntity
  8
Layer_1
 62
3
100
AcDbLine
 10
175.588446
 20
-3.948766
 30
0.0
 11
175.588446
 21
-8.805342
 31
0.0
  0
LINE
  5
25d
100
AcDbEntity
  8
Layer_1
 62
3
100
AcDbLine
 10
175.588446
 20
-8.805342
 30
0.0
 11
176.751916
 21
-8.805342
 31
0.0
  0
LINE
  5
25e
100
AcDbEntity
  8
Layer_1
 62
3
100
AcDbLine
 10
176.751916
 20
-8.805342
 30
0.0
 11
176.751916
 21
-5.805455
 31
0.0
  0
SPLINE
  5
25f
100
AcDbEntity
  8
Layer_1
 62
3
100
AcDbSpline
 70
8
 71
3
 72
8
 73
4
 74
0
 40
0
 40
0
 40
0
 40
0
 40
1
 40
1
 40
1
 40
1
 10
176.751916
 20
-5.805455
 30
0.0
 10
176.751916
 20
-5.747465
 30
0.0
 10
176.748488
 20
-5.673724
 30
0.0
 10
176.739729
 20
-5.584337
 30
0.0
  0
SPLINE
  5
260
100
AcDbEntity
  8
Layer_1
 62
3
100
AcDbSpline
 70
8
 71
3
 72
8
 73
4
 74
0
 40
0
 40
0
 40
0
 40
0
 40
1
 40
1
 40
1
 40
1
 10
176.739729
 20
-5.584337
 30
0.0
 10
176.731058
 20
-5.494973
 30
0.0
 10
176.718840
 20
-5.396158
 30
0.0
 10
176.706638
 20
-5.286390
 30
0.0
  0
SPLINE
  5
261
100
AcDbEntity
  8
Layer_1
 62
3
100
AcDbSpline
 70
8
 71
3
 72
8
 73
4
 74
0
 40
0
 40
0
 40
0
 40
0
 40
1
 40
1
 40
1
 40
1
 10
176.706638
 20
-5.286390
 30
0.0
 10
176.774574
 20
-5.411850
 30
0.0
 10
176.833778
 20
-5.515355
 30
0.0
 10
176.884288
 20
-5.595333
 30
0.0
  0
SPLINE
  5
262
100
AcDbEntity
  8
Layer_1
 62
3
100
AcDbSpline
 70
8
 71
3
 72
8
 73
4
 74
0
 40
0
 40
0
 40
0
 40
0
 40
1
 40
1
 40
1
 40
1
 10
176.884288
 20
-5.595333
 30
0.0
 10
176.934810
 20
-5.676874
 30
0.0
 10
176.981831
 20
-5.744304
 30
0.0
 10
177.021888
 20
-5.796042
 30
0.0
  0
LINE
  5
263
100
AcDbEntity
  8
Layer_1
 62
3
100
AcDbLine
 10
177.021888
 20
-5.796042
 30
0.0
 11
179.047533
 21
-8.221982
 31
0.0
  0
LINE
  5
264
100
AcDbEntity
  8
Layer_1
 62
3
100
AcDbLine
 10
179.047533
 20
-8.221982
 30
0.0
 11
179.298348
 21
-8.221982
 31
0.0
  0
LINE
  5
265
100
AcDbEntity
  8
Layer_1
 62
3
100
AcDbLine
 10
179.298348
 20
-8.221982
 30
0.0
 11
181.329201
 21
-5.786650
 31
0.0
  0
SPLINE
  5
266
100
AcDbEntity
  8
Layer_1
 62
3
100
AcDbSpline
 70
8
 71
3
 72
8
 73
4
 74
0
 40
0
 40
0
 40
0
 40
0
 40
1
 40
1
 40
1
 40
1
 10
181.329201
 20
-5.786650
 30
0.0
 10
181.404088
 20
-5.694113
 30
0.0
 10
181.468522
 20
-5.607869
 30
0.0
 10
181.520790
 20
-5.526322
 30
0.0
  0
SPLINE
  5
267
100
AcDbEntity
  8
Layer_1
 62
3
100
AcDbSpline
 70
8
 71
3
 72
8
 73
4
 74
0
 40
0
 40
0
 40
0
 40
0
 40
1
 40
1
 40
1
 40
1
 10
181.520790
 20
-5.526322
 30
0.0
 10
181.573018
 20
-5.446350
 30
0.0
 10
181.616575
 20
-5.366370
 30
0.0
 10
181.651416
 20
-5.291108
 30
0.0
  0
SPLINE
  5
268
100
AcDbEntity
  8
Layer_1
 62
3
100
AcDbSpline
 70
8
 71
3
 72
8
 73
4
 74
0
 40
0
 40
0
 40
0
 40
0
 40
1
 40
1
 40
1
 40
1
 10
181.651416
 20
-5.291108
 30
0.0
 10
181.640959
 20
-5.391470
 30
0.0
 10
181.632256
 20
-5.483984
 30
0.0
 10
181.627035
 20
-5.565532
 30
0.0
  0
SPLINE
  5
269
100
AcDbEntity
  8
Layer_1
 62
3
100
AcDbSpline
 70
8
 71
3
 72
8
 73
4
 74
0
 40
0
 40
0
 40
0
 40
0
 40
1
 40
1
 40
1
 40
1
 10
181.627035
 20
-5.565532
 30
0.0
 10
181.621775
 20
-5.648631
 30
0.0
 10
181.620101
 20
-5.728605
 30
0.0
 10
181.620101
 20
-5.805455
 30
0.0
  0
LINE
  5
26a
100
AcDbEntity
  8
Layer_1
 62
3
100
AcDbLine
 10
181.620101
 20
-5.805455
 30
0.0
 11
181.620101
 21
-8.805342
 31
0.0
  0
LINE
  5
26b
100
AcDbEntity
  8
Layer_1
 62
3
100
AcDbLine
 10
181.620101
 20
-8.805342
 30
0.0
 11
182.635485
 21
-8.805342
 31
0.0
  0
LINE
  5
26c
100
AcDbEntity
  8
Layer_1
 62
3
100
AcDbLine
 10
172.518773
 20
-8.805342
 30
0.0
 11
172.518773
 21
-3.948766
 31
0.0
  0
LINE
  5
26d
100
AcDbEntity
  8
Layer_1
 62
3
100
AcDbLine
 10
172.518773
 20
-3.948766
 30
0.0
 11
171.263006
 21
-3.948766
 31
0.0
  0
LINE
  5
26e
100
AcDbEntity
  8
Layer_1
 62
3
100
AcDbLine
 10
171.263006
 20
-3.948766
 30
0.0
 11
171.263006
 21
-7.891117
 31
0.0
  0
LINE
  5
26f
100
AcDbEntity
  8
Layer_1
 62
3
100
AcDbLine
 10
171.263006
 20
-7.891117
 30
0.0
 11
167.216961
 21
-7.891117
 31
0.0
  0
LINE
  5
270
100
AcDbEntity
  8
Layer_1
 62
3
100
AcDbLine
 10
167.216961
 20
-7.891117
 30
0.0
 11
167.216961
 21
-8.805342
 31
0.0
  0
LINE
  5
271
100
AcDbEntity
  8
Layer_1
 62
3
100
AcDbLine
 10
167.216961
 20
-8.805342
 30
0.0
 11
172.518773
 21
-8.805342
 31
0.0
  0
SPLINE
  5
272
100
AcDbEntity
  8
Layer_1
 62
3
100
AcDbSpline
 70
8
 71
3
 72
8
 73
4
 74
0
 40
0
 40
0
 40
0
 40
0
 40
1
 40
1
 40
1
 40
1
 10
165.242857
 20
-5.098210
 30
0.0
 10
165.242857
 20
-4.655996
 30
0.0
 10
165.150530
 20
-4.354913
 30
0.0
 10
164.967666
 20
-4.191833
 30
0.0
  0
SPLINE
  5
273
100
AcDbEntity
  8
Layer_1
 62
3
100
AcDbSpline
 70
8
 71
3
 72
8
 73
4
 74
0
 40
0
 40
0
 40
0
 40
0
 40
1
 40
1
 40
1
 40
1
 10
164.967666
 20
-4.191833
 30
0.0
 10
164.783024
 20
-4.030313
 30
0.0
 10
164.429453
 20
-3.948766
 30
0.0
 10
163.905197
 20
-3.948766
 30
0.0
  0
LINE
  5
274
100
AcDbEntity
  8
Layer_1
 62
3
100
AcDbLine
 10
163.905197
 20
-3.948766
 30
0.0
 11
159.937527
 21
-3.948766
 31
0.0
  0
SPLINE
  5
275
100
AcDbEntity
  8
Layer_1
 62
3
100
AcDbSpline
 70
8
 71
3
 72
8
 73
4
 74
0
 40
0
 40
0
 40
0
 40
0
 40
1
 40
1
 40
1
 40
1
 10
159.937527
 20
-3.948766
 30
0.0
 10
159.413267
 20
-3.948766
 30
0.0
 10
159.059710
 20
-4.030313
 30
0.0
 10
158.875100
 20
-4.191833
 30
0.0
  0
SPLINE
  5
276
100
AcDbEntity
  8
Layer_1
 62
3
100
AcDbSpline
 70
8
 71
3
 72
8
 73
4
 74
0
 40
0
 40
0
 40
0
 40
0
 40
1
 40
1
 40
1
 40
1
 10
158.875100
 20
-4.191833
 30
0.0
 10
158.692197
 20
-4.354913
 30
0.0
 10
158.599904
 20
-4.655996
 30
0.0
 10
158.599904
 20
-5.098210
 30
0.0
  0
LINE
  5
277
100
AcDbEntity
  8
Layer_1
 62
3
100
AcDbLine
 10
158.599904
 20
-5.098210
 30
0.0
 11
158.599904
 21
-7.657463
 31
0.0
  0
SPLINE
  5
278
100
AcDbEntity
  8
Layer_1
 62
3
100
AcDbSpline
 70
8
 71
3
 72
8
 73
4
 74
0
 40
0
 40
0
 40
0
 40
0
 40
1
 40
1
 40
1
 40
1
 10
158.599904
 20
-7.657463
 30
0.0
 10
158.599904
 20
-8.101244
 30
0.0
 10
158.692197
 20
-8.403883
 30
0.0
 10
158.875100
 20
-8.563842
 30
0.0
  0
SPLINE
  5
279
100
AcDbEntity
  8
Layer_1
 62
3
100
AcDbSpline
 70
8
 71
3
 72
8
 73
4
 74
0
 40
0
 40
0
 40
0
 40
0
 40
1
 40
1
 40
1
 40
1
 10
158.875100
 20
-8.563842
 30
0.0
 10
159.059710
 20
-8.725379
 30
0.0
 10
159.413267
 20
-8.805342
 30
0.0
 10
159.937527
 20
-8.805342
 30
0.0
  0
LINE
  5
27a
100
AcDbEntity
  8
Layer_1
 62
3
100
AcDbLine
 10
159.937527
 20
-8.805342
 30
0.0
 11
163.905197
 21
-8.805342
 31
0.0
  0
SPLINE
  5
27b
100
AcDbEntity
  8
Layer_1
 62
3
100
AcDbSpline
 70
8
 71
3
 72
8
 73
4
 74
0
 40
0
 40
0
 40
0
 40
0
 40
1
 40
1
 40
1
 40
1
 10
163.905197
 20
-8.805342
 30
0.0
 10
164.429453
 20
-8.805342
 30
0.0
 10
164.783024
 20
-8.725379
 30
0.0
 10
164.967666
 20
-8.563842
 30
0.0
  0
SPLINE
  5
27c
100
AcDbEntity
  8
Layer_1
 62
3
100
AcDbSpline
 70
8
 71
3
 72
8
 73
4
 74
0
 40
0
 40
0
 40
0
 40
0
 40
1
 40
1
 40
1
 40
1
 10
164.967666
 20
-8.563842
 30
0.0
 10
165.150530
 20
-8.403883
 30
0.0
 10
165.242857
 20
-8.101244
 30
0.0
 10
165.242857
 20
-7.657463
 30
0.0
  0
LINE
  5
27d
100
AcDbEntity
  8
Layer_1
 62
3
100
AcDbLine
 10
165.242857
 20
-7.657463
 30
0.0
 11
165.242857
 21
-5.098210
 31
0.0
  0
LINE
  5
27e
100
AcDbEntity
  8
Layer_1
 62
3
100
AcDbLine
 10
163.987063
 20
-7.891117
 30
0.0
 11
159.850446
 21
-7.891117
 31
0.0
  0
LINE
  5
27f
100
AcDbEntity
  8
Layer_1
 62
3
100
AcDbLine
 10
159.850446
 20
-7.891117
 30
0.0
 11
159.850446
 21
-4.817530
 31
0.0
  0
LINE
  5
280
100
AcDbEntity
  8
Layer_1
 62
3
100
AcDbLine
 10
159.850446
 20
-4.817530
 30
0.0
 11
163.987063
 21
-4.817530
 31
0.0
  0
LINE
  5
281
100
AcDbEntity
  8
Layer_1
 62
3
100
AcDbLine
 10
163.987063
 20
-4.817530
 30
0.0
 11
163.987063
 21
-7.891117
 31
0.0
  0
SPLINE
  5
282
100
AcDbEntity
  8
Layer_1
 62
3
100
AcDbSpline
 70
8
 71
3
 72
8
 73
4
 74
0
 40
0
 40
0
 40
0
 40
0
 40
1
 40
1
 40
1
 40
1
 10
155.636504
 20
-5.098210
 30
0.0
 10
155.636504
 20
-4.655996
 30
0.0
 10
155.544178
 20
-4.354913
 30
0.0
 10
155.361308
 20
-4.191833
 30
0.0
  0
SPLINE
  5
283
100
AcDbEntity
  8
Layer_1
 62
3
100
AcDbSpline
 70
8
 71
3
 72
8
 73
4
 74
0
 40
0
 40
0
 40
0
 40
0
 40
1
 40
1
 40
1
 40
1
 10
155.361308
 20
-4.191833
 30
0.0
 10
155.176666
 20
-4.030313
 30
0.0
 10
154.823109
 20
-3.948766
 30
0.0
 10
154.298857
 20
-3.948766
 30
0.0
  0
LINE
  5
284
100
AcDbEntity
  8
Layer_1
 62
3
100
AcDbLine
 10
154.298857
 20
-3.948766
 30
0.0
 11
150.331187
 21
-3.948766
 31
0.0
  0
SPLINE
  5
285
100
AcDbEntity
  8
Layer_1
 62
3
100
AcDbSpline
 70
8
 71
3
 72
8
 73
4
 74
0
 40
0
 40
0
 40
0
 40
0
 40
1
 40
1
 40
1
 40
1
 10
150.331187
 20
-3.948766
 30
0.0
 10
149.806933
 20
-3.948766
 30
0.0
 10
149.453374
 20
-4.030313
 30
0.0
 10
149.268755
 20
-4.191833
 30
0.0
  0
SPLINE
  5
286
100
AcDbEntity
  8
Layer_1
 62
3
100
AcDbSpline
 70
8
 71
3
 72
8
 73
4
 74
0
 40
0
 40
0
 40
0
 40
0
 40
1
 40
1
 40
1
 40
1
 10
149.268755
 20
-4.191833
 30
0.0
 10
149.085851
 20
-4.354913
 30
0.0
 10
148.993565
 20
-4.655996
 30
0.0
 10
148.993565
 20
-5.098210
 30
0.0
  0
LINE
  5
287
100
AcDbEntity
  8
Layer_1
 62
3
100
AcDbLine
 10
148.993565
 20
-5.098210
 30
0.0
 11
148.993565
 21
-7.657463
 31
0.0
  0
SPLINE
  5
288
100
AcDbEntity
  8
Layer_1
 62
3
100
AcDbSpline
 70
8
 71
3
 72
8
 73
4
 74
0
 40
0
 40
0
 40
0
 40
0
 40
1
 40
1
 40
1
 40
1
 10
148.993565
 20
-7.657463
 30
0.0
 10
148.993565
 20
-8.101244
 30
0.0
 10
149.085851
 20
-8.403883
 30
0.0
 10
149.268755
 20
-8.563842
 30
0.0
  0
SPLINE
  5
289
100
AcDbEntity
  8
Layer_1
 62
3
100
AcDbSpline
 70
8
 71
3
 72
8
 73
4
 74
0
 40
0
 40
0
 40
0
 40
0
 40
1
 40
1
 40
1
 40
1
 10
149.268755
 20
-8.563842
 30
0.0
 10
149.453374
 20
-8.725379
 30
0.0
 10
149.806933
 20
-8.805342
 30
0.0
 10
150.331187
 20
-8.805342
 30
0.0
  0
LINE
  5
28a
100
AcDbEntity
  8
Layer_1
 62
3
100
AcDbLine
 10
150.331187
 20
-8.805342
 30
0.0
 11
154.298857
 21
-8.805342
 31
0.0
  0
SPLINE
  5
28b
100
AcDbEntity
  8
Layer_1
 62
3
100
AcDbSpline
 70
8
 71
3
 72
8
 73
4
 74
0
 40
0
 40
0
 40
0
 40
0
 40
1
 40
1
 40
1
 40
1
 10
154.298857
 20
-8.805342
 30
0.0
 10
154.823109
 20
-8.805342
 30
0.0
 10
155.176666
 20
-8.725379
 30
0.0
 10
155.361308
 20
-8.563842
 30
0.0
  0
SPLINE
  5
28c
100
AcDbEntity
  8
Layer_1
 62
3
100
AcDbSpline
 70
8
 71
3
 72
8
 73
4
 74
0
 40
0
 40
0
 40
0
 40
0
 40
1
 40
1
 40
1
 40
1
 10
155.361308
 20
-8.563842
 30
0.0
 10
155.544178
 20
-8.403883
 30
0.0
 10
155.636504
 20
-8.101244
 30
0.0
 10
155.636504
 20
-7.657463
 30
0.0
  0
LINE
  5
28d
100
AcDbEntity
  8
Layer_1
 62
3
100
AcDbLine
 10
155.636504
 20
-7.657463
 30
0.0
 11
155.636504
 21
-5.098210
 31
0.0
  0
LINE
  5
28e
100
AcDbEntity
  8
Layer_1
 62
3
100
AcDbLine
 10
154.380717
 20
-7.891117
 30
0.0
 11
150.244107
 21
-7.891117
 31
0.0
  0
LINE
  5
28f
100
AcDbEntity
  8
Layer_1
 62
3
100
AcDbLine
 10
150.244107
 20
-7.891117
 30
0.0
 11
150.244107
 21
-4.817530
 31
0.0
  0
LINE
  5
290
100
AcDbEntity
  8
Layer_1
 62
3
100
AcDbLine
 10
150.244107
 20
-4.817530
 30
0.0
 11
154.380717
 21
-4.817530
 31
0.0
  0
LINE
  5
291
100
AcDbEntity
  8
Layer_1
 62
3
100
AcDbLine
 10
154.380717
 20
-4.817530
 30
0.0
 11
154.380717
 21
-7.891117
 31
0.0
  0
LINE
  5
292
100
AcDbEntity
  8
Layer_1
 62
3
100
AcDbLine
 10
141.860431
 20
-4.789281
 30
0.0
 11
144.683775
 21
-4.789281
 31
0.0
  0
LINE
  5
293
100
AcDbEntity
  8
Layer_1
 62
3
100
AcDbLine
 10
144.683775
 20
-4.789281
 30
0.0
 11
144.683775
 21
-6.076751
 31
0.0
  0
LINE
  5
294
100
AcDbEntity
  8
Layer_1
 62
3
100
AcDbLine
 10
144.683775
 20
-6.076751
 30
0.0
 11
141.860431
 21
-6.076751
 31
0.0
  0
SPLINE
  5
295
100
AcDbEntity
  8
Layer_1
 62
3
100
AcDbSpline
 70
8
 71
3
 72
8
 73
4
 74
0
 40
0
 40
0
 40
0
 40
0
 40
1
 40
1
 40
1
 40
1
 10
141.860431
 20
-6.076751
 30
0.0
 10
141.642713
 20
-6.076751
 30
0.0
 10
141.494670
 20
-6.048585
 30
0.0
 10
141.414555
 20
-5.992067
 30
0.0
  0
SPLINE
  5
296
100
AcDbEntity
  8
Layer_1
 62
3
100
AcDbSpline
 70
8
 71
3
 72
8
 73
4
 74
0
 40
0
 40
0
 40
0
 40
0
 40
1
 40
1
 40
1
 40
1
 10
141.414555
 20
-5.992067
 30
0.0
 10
141.334376
 20
-5.935600
 30
0.0
 10
141.294374
 20
-5.835251
 30
0.0
 10
141.294374
 20
-5.690991
 30
0.0
  0
LINE
  5
297
100
AcDbEntity
  8
Layer_1
 62
3
100
AcDbLine
 10
141.294374
 20
-5.690991
 30
0.0
 11
141.294374
 21
-5.170345
 31
0.0
  0
SPLINE
  5
298
100
AcDbEntity
  8
Layer_1
 62
3
100
AcDbSpline
 70
8
 71
3
 72
8
 73
4
 74
0
 40
0
 40
0
 40
0
 40
0
 40
1
 40
1
 40
1
 40
1
 10
141.294374
 20
-5.170345
 30
0.0
 10
141.294374
 20
-5.029227
 30
0.0
 10
141.334464
 20
-4.930420
 30
0.0
 10
141.414555
 20
-4.873972
 30
0.0
  0
SPLINE
  5
299
100
AcDbEntity
  8
Layer_1
 62
3
100
AcDbSpline
 70
8
 71
3
 72
8
 73
4
 74
0
 40
0
 40
0
 40
0
 40
0
 40
1
 40
1
 40
1
 40
1
 10
141.414555
 20
-4.873972
 30
0.0
 10
141.494725
 20
-4.817504
 30
0.0
 10
141.642713
 20
-4.789281
 30
0.0
 10
141.860431
 20
-4.789281
 30
0.0
  0
LINE
  5
29a
100
AcDbEntity
  8
Layer_1
 62
3
100
AcDbLine
 10
141.860431
 20
-4.789281
 30
0.0
 11
141.860431
 21
-4.789281
 31
0.0
  0
LINE
  5
29b
100
AcDbEntity
  8
Layer_1
 62
3
100
AcDbLine
 10
145.918655
 20
-8.805342
 30
0.0
 11
145.918655
 21
-3.948766
 31
0.0
  0
LINE
  5
29c
100
AcDbEntity
  8
Layer_1
 62
3
100
AcDbLine
 10
145.918655
 20
-3.948766
 30
0.0
 11
141.304831
 21
-3.948766
 31
0.0
  0
SPLINE
  5
29d
100
AcDbEntity
  8
Layer_1
 62
3
100
AcDbSpline
 70
8
 71
3
 72
8
 73
4
 74
0
 40
0
 40
0
 40
0
 40
0
 40
1
 40
1
 40
1
 40
1
 10
141.304831
 20
-3.948766
 30
0.0
 10
140.876353
 20
-3.948766
 30
0.0
 10
140.566326
 20
-4.022473
 30
0.0
 10
140.372996
 20
-4.171430
 30
0.0
  0
SPLINE
  5
29e
100
AcDbEntity
  8
Layer_1
 62
3
100
AcDbSpline
 70
8
 71
3
 72
8
 73
4
 74
0
 40
0
 40
0
 40
0
 40
0
 40
1
 40
1
 40
1
 40
1
 10
140.372996
 20
-4.171430
 30
0.0
 10
140.181420
 20
-4.320414
 30
0.0
 10
140.085596
 20
-4.560338
 30
0.0
 10
140.085596
 20
-4.889664
 30
0.0
  0
LINE
  5
29f
100
AcDbEntity
  8
Layer_1
 62
3
100
AcDbLine
 10
140.085596
 20
-4.889664
 30
0.0
 11
140.085596
 21
-5.974822
 31
0.0
  0
SPLINE
  5
2a0
100
AcDbEntity
  8
Layer_1
 62
3
100
AcDbSpline
 70
8
 71
3
 72
8
 73
4
 74
0
 40
0
 40
0
 40
0
 40
0
 40
1
 40
1
 40
1
 40
1
 10
140.085596
 20
-5.974822
 30
0.0
 10
140.085596
 20
-6.302565
 30
0.0
 10
140.181420
 20
-6.540928
 30
0.0
 10
140.372996
 20
-6.689892
 30
0.0
  0
SPLINE
  5
2a1
100
AcDbEntity
  8
Layer_1
 62
3
100
AcDbSpline
 70
8
 71
3
 72
8
 73
4
 74
0
 40
0
 40
0
 40
0
 40
0
 40
1
 40
1
 40
1
 40
1
 10
140.372996
 20
-6.689892
 30
0.0
 10
140.566326
 20
-6.838869
 30
0.0
 10
140.876353
 20
-6.912577
 30
0.0
 10
141.304831
 20
-6.912577
 30
0.0
  0
LINE
  5
2a2
100
AcDbEntity
  8
Layer_1
 62
3
100
AcDbLine
 10
141.304831
 20
-6.912577
 30
0.0
 11
144.683775
 21
-6.912577
 31
0.0
  0
LINE
  5
2a3
100
AcDbEntity
  8
Layer_1
 62
3
100
AcDbLine
 10
144.683775
 20
-6.912577
 30
0.0
 11
144.683775
 21
-8.805342
 31
0.0
  0
LINE
  5
2a4
100
AcDbEntity
  8
Layer_1
 62
3
100
AcDbLine
 10
144.683775
 20
-8.805342
 30
0.0
 11
145.918655
 21
-8.805342
 31
0.0
  0
LINE
  5
2a5
100
AcDbEntity
  8
Layer_1
 62
3
100
AcDbLine
 10
133.048278
 20
-4.798695
 30
0.0
 11
136.578781
 21
-4.798695
 31
0.0
  0
LINE
  5
2a6
100
AcDbEntity
  8
Layer_1
 62
3
100
AcDbLine
 10
136.578781
 20
-4.798695
 30
0.0
 11
136.578781
 21
-5.841530
 31
0.0
  0
LINE
  5
2a7
100
AcDbEntity
  8
Layer_1
 62
3
100
AcDbLine
 10
136.578781
 20
-5.841530
 30
0.0
 11
133.217227
 21
-5.841530
 31
0.0
  0
SPLINE
  5
2a8
100
AcDbEntity
  8
Layer_1
 62
3
100
AcDbSpline
 70
8
 71
3
 72
8
 73
4
 74
0
 40
0
 40
0
 40
0
 40
0
 40
1
 40
1
 40
1
 40
1
 10
133.217227
 20
-5.841530
 30
0.0
 10
132.689474
 20
-5.841530
 30
0.0
 10
132.332448
 20
-5.923077
 30
0.0
 10
132.147806
 20
-6.084597
 30
0.0
  0
SPLINE
  5
2a9
100
AcDbEntity
  8
Layer_1
 62
3
100
AcDbSpline
 70
8
 71
3
 72
8
 73
4
 74
0
 40
0
 40
0
 40
0
 40
0
 40
1
 40
1
 40
1
 40
1
 10
132.147806
 20
-6.084597
 30
0.0
 10
131.961434
 20
-6.247677
 30
0.0
 10
131.869149
 20
-6.548760
 30
0.0
 10
131.869149
 20
-6.990974
 30
0.0
  0
LINE
  5
2aa
100
AcDbEntity
  8
Layer_1
 62
3
100
AcDbLine
 10
131.869149
 20
-6.990974
 30
0.0
 11
131.869149
 21
-7.657463
 31
0.0
  0
SPLINE
  5
2ab
100
AcDbEntity
  8
Layer_1
 62
3
100
AcDbSpline
 70
8
 71
3
 72
8
 73
4
 74
0
 40
0
 40
0
 40
0
 40
0
 40
1
 40
1
 40
1
 40
1
 10
131.869149
 20
-7.657463
 30
0.0
 10
131.869149
 20
-8.098104
 30
0.0
 10
131.961434
 20
-8.399196
 30
0.0
 10
132.147806
 20
-8.562264
 30
0.0
  0
SPLINE
  5
2ac
100
AcDbEntity
  8
Layer_1
 62
3
100
AcDbSpline
 70
8
 71
3
 72
8
 73
4
 74
0
 40
0
 40
0
 40
0
 40
0
 40
1
 40
1
 40
1
 40
1
 10
132.147806
 20
-8.562264
 30
0.0
 10
132.332448
 20
-8.723801
 30
0.0
 10
132.689474
 20
-8.805342
 30
0.0
 10
133.217227
 20
-8.805342
 30
0.0
  0
LINE
  5
2ad
100
AcDbEntity
  8
Layer_1
 62
3
100
AcDbLine
 10
133.217227
 20
-8.805342
 30
0.0
 11
136.547411
 21
-8.805342
 31
0.0
  0
SPLINE
  5
2ae
100
AcDbEntity
  8
Layer_1
 62
3
100
AcDbSpline
 70
8
 71
3
 72
8
 73
4
 74
0
 40
0
 40
0
 40
0
 40
0
 40
1
 40
1
 40
1
 40
1
 10
136.547411
 20
-8.805342
 30
0.0
 10
137.075156
 20
-8.805342
 30
0.0
 10
137.432222
 20
-8.723801
 30
0.0
 10
137.616824
 20
-8.562264
 30
0.0
  0
SPLINE
  5
2af
100
AcDbEntity
  8
Layer_1
 62
3
100
AcDbSpline
 70
8
 71
3
 72
8
 73
4
 74
0
 40
0
 40
0
 40
0
 40
0
 40
1
 40
1
 40
1
 40
1
 10
137.616824
 20
-8.562264
 30
0.0
 10
137.803204
 20
-8.399196
 30
0.0
 10
137.895521
 20
-8.098104
 30
0.0
 10
137.895521
 20
-7.657463
 30
0.0
  0
LINE
  5
2b0
100
AcDbEntity
  8
Layer_1
 62
3
100
AcDbLine
 10
137.895521
 20
-7.657463
 30
0.0
 11
137.895521
 21
-7.524164
 31
0.0
  0
LINE
  5
2b1
100
AcDbEntity
  8
Layer_1
 62
3
100
AcDbLine
 10
137.895521
 20
-7.524164
 30
0.0
 11
136.787795
 21
-7.317149
 31
0.0
  0
LINE
  5
2b2
100
AcDbEntity
  8
Layer_1
 62
3
100
AcDbLine
 10
136.787795
 20
-7.317149
 30
0.0
 11
136.787795
 21
-7.891117
 31
0.0
  0
LINE
  5
2b3
100
AcDbEntity
  8
Layer_1
 62
3
100
AcDbLine
 10
136.787795
 20
-7.891117
 30
0.0
 11
132.976882
 21
-7.891117
 31
0.0
  0
LINE
  5
2b4
100
AcDbEntity
  8
Layer_1
 62
3
100
AcDbLine
 10
132.976882
 20
-7.891117
 30
0.0
 11
132.976882
 21
-6.783996
 31
0.0
  0
LINE
  5
2b5
100
AcDbEntity
  8
Layer_1
 62
3
100
AcDbLine
 10
132.976882
 20
-6.783996
 30
0.0
 11
136.338396
 21
-6.783996
 31
0.0
  0
SPLINE
  5
2b6
100
AcDbEntity
  8
Layer_1
 62
3
100
AcDbSpline
 70
8
 71
3
 72
8
 73
4
 74
0
 40
0
 40
0
 40
0
 40
0
 40
1
 40
1
 40
1
 40
1
 10
136.338396
 20
-6.783996
 30
0.0
 10
136.862658
 20
-6.783996
 30
0.0
 10
137.216241
 20
-6.702449
 30
0.0
 10
137.400884
 20
-6.540928
 30
0.0
  0
SPLINE
  5
2b7
100
AcDbEntity
  8
Layer_1
 62
3
100
AcDbSpline
 70
8
 71
3
 72
8
 73
4
 74
0
 40
0
 40
0
 40
0
 40
0
 40
1
 40
1
 40
1
 40
1
 10
137.400884
 20
-6.540928
 30
0.0
 10
137.583733
 20
-6.377827
 30
0.0
 10
137.676066
 20
-6.076751
 30
0.0
 10
137.676066
 20
-5.634522
 30
0.0
  0
LINE
  5
2b8
100
AcDbEntity
  8
Layer_1
 62
3
100
AcDbLine
 10
137.676066
 20
-5.634522
 30
0.0
 11
137.676066
 21
-5.098210
 31
0.0
  0
SPLINE
  5
2b9
100
AcDbEntity
  8
Layer_1
 62
3
100
AcDbSpline
 70
8
 71
3
 72
8
 73
4
 74
0
 40
0
 40
0
 40
0
 40
0
 40
1
 40
1
 40
1
 40
1
 10
137.676066
 20
-5.098210
 30
0.0
 10
137.676066
 20
-4.655996
 30
0.0
 10
137.583733
 20
-4.354913
 30
0.0
 10
137.400884
 20
-4.191833
 30
0.0
  0
SPLINE
  5
2ba
100
AcDbEntity
  8
Layer_1
 62
3
100
AcDbSpline
 70
8
 71
3
 72
8
 73
4
 74
0
 40
0
 40
0
 40
0
 40
0
 40
1
 40
1
 40
1
 40
1
 10
137.400884
 20
-4.191833
 30
0.0
 10
137.216241
 20
-4.030313
 30
0.0
 10
136.862658
 20
-3.948766
 30
0.0
 10
136.338396
 20
-3.948766
 30
0.0
  0
LINE
  5
2bb
100
AcDbEntity
  8
Layer_1
 62
3
100
AcDbLine
 10
136.338396
 20
-3.948766
 30
0.0
 11
133.278206
 21
-3.948766
 31
0.0
  0
SPLINE
  5
2bc
100
AcDbEntity
  8
Layer_1
 62
3
100
AcDbSpline
 70
8
 71
3
 72
8
 73
4
 74
0
 40
0
 40
0
 40
0
 40
0
 40
1
 40
1
 40
1
 40
1
 10
133.278206
 20
-3.948766
 30
0.0
 10
132.771343
 20
-3.948766
 30
0.0
 10
132.421282
 20
-4.027167
 30
0.0
 10
132.229666
 20
-4.182419
 30
0.0
  0
SPLINE
  5
2bd
100
AcDbEntity
  8
Layer_1
 62
3
100
AcDbSpline
 70
8
 71
3
 72
8
 73
4
 74
0
 40
0
 40
0
 40
0
 40
0
 40
1
 40
1
 40
1
 40
1
 10
132.229666
 20
-4.182419
 30
0.0
 10
132.036344
 20
-4.339220
 30
0.0
 10
131.940552
 20
-4.616794
 30
0.0
 10
131.940552
 20
-5.015095
 30
0.0
  0
LINE
  5
2be
100
AcDbEntity
  8
Layer_1
 62
3
100
AcDbLine
 10
131.940552
 20
-5.015095
 30
0.0
 11
131.940552
 21
-5.115478
 31
0.0
  0
LINE
  5
2bf
100
AcDbEntity
  8
Layer_1
 62
3
100
AcDbLine
 10
131.940552
 20
-5.115478
 30
0.0
 11
133.048278
 21
-5.350677
 31
0.0
  0
LINE
  5
2c0
100
AcDbEntity
  8
Layer_1
 62
3
100
AcDbLine
 10
133.048278
 20
-5.350677
 30
0.0
 11
133.048278
 21
-4.798695
 31
0.0
  0
LINE
  5
2c1
100
AcDbEntity
  8
Layer_1
 62
3
100
AcDbLine
 10
200.224832
 20
-2.591428
 30
0.0
 11
129.275239
 21
-2.591428
 31
0.0
  0
SPLINE
  5
2c2
100
AcDbEntity
  8
Layer_1
 62
3
100
AcDbSpline
 70
8
 71
3
 72
8
 73
4
 74
0
 40
0
 40
0
 40
0
 40
0
 40
1
 40
1
 40
1
 40
1
 10
129.275239
 20
-2.591428
 30
0.0
 10
129.442730
 20
-2.741799
 30
0.0
 10
129.600258
 20
-2.901163
 30
0.0
 10
129.746931
 20
-3.068555
 30
0.0
  0
LINE
  5
2c3
100
AcDbEntity
  8
Layer_1
 62
3
100
AcDbLine
 10
129.746931
 20
-3.068555
 30
0.0
 11
200.224832
 21
-3.068555
 31
0.0
  0
SPLINE
  5
2c4
100
AcDbEntity
  8
Layer_1
 62
3
100
AcDbSpline
 70
8
 71
3
 72
8
 73
4
 74
0
 40
0
 40
0
 40
0
 40
0
 40
1
 40
1
 40
1
 40
1
 10
200.224832
 20
-3.068555
 30
0.0
 10
200.731403
 20
-3.068555
 30
0.0
 10
201.145863
 20
-3.501732
 30
0.0
 10
201.145863
 20
-4.031170
 30
0.0
  0
LINE
  5
2c5
100
AcDbEntity
  8
Layer_1
 62
3
100
AcDbLine
 10
201.145863
 20
-4.031170
 30
0.0
 11
201.145863
 21
-8.722924
 31
0.0
  0
SPLINE
  5
2c6
100
AcDbEntity
  8
Layer_1
 62
3
100
AcDbSpline
 70
8
 71
3
 72
8
 73
4
 74
0
 40
0
 40
0
 40
0
 40
0
 40
1
 40
1
 40
1
 40
1
 10
201.145863
 20
-8.722924
 30
0.0
 10
201.145863
 20
-9.252367
 30
0.0
 10
200.731403
 20
-9.685539
 30
0.0
 10
200.224832
 20
-9.685539
 30
0.0
  0
LINE
  5
2c7
100
AcDbEntity
  8
Layer_1
 62
3
100
AcDbLine
 10
200.224832
 20
-9.685539
 30
0.0
 11
129.746931
 21
-9.685539
 31
0.0
  0
SPLINE
  5
2c8
100
AcDbEntity
  8
Layer_1
 62
3
100
AcDbSpline
 70
8
 71
3
 72
8
 73
4
 74
0
 40
0
 40
0
 40
0
 40
0
 40
1
 40
1
 40
1
 40
1
 10
129.746931
 20
-9.685539
 30
0.0
 10
129.600258
 20
-9.852934
 30
0.0
 10
129.442730
 20
-10.012279
 30
0.0
 10
129.275279
 20
-10.162650
 30
0.0
  0
LINE
  5
2c9
100
AcDbEntity
  8
Layer_1
 62
3
100
AcDbLine
 10
129.275279
 20
-10.162650
 30
0.0
 11
200.224832
 21
-10.162650
 31
0.0
  0
SPLINE
  5
2ca
100
AcDbEntity
  8
Layer_1
 62
3
100
AcDbSpline
 70
8
 71
3
 72
8
 73
4
 74
0
 40
0
 40
0
 40
0
 40
0
 40
1
 40
1
 40
1
 40
1
 10
200.224832
 20
-10.162650
 30
0.0
 10
201.022843
 20
-10.162650
 30
0.0
 10
201.675775
 20
-9.514789
 30
0.0
 10
201.675775
 20
-8.722924
 30
0.0
  0
LINE
  5
2cb
100
AcDbEntity
  8
Layer_1
 62
3
100
AcDbLine
 10
201.675775
 20
-8.722924
 30
0.0
 11
201.675775
 21
-4.031162
 31
0.0
  0
SPLINE
  5
2cc
100
AcDbEntity
  8
Layer_1
 62
3
100
AcDbSpline
 70
8
 71
3
 72
8
 73
4
 74
0
 40
0
 40
0
 40
0
 40
0
 40
1
 40
1
 40
1
 40
1
 10
201.675775
 20
-4.031162
 30
0.0
 10
201.675775
 20
-3.239315
 30
0.0
 10
201.022843
 20
-2.591428
 30
0.0
 10
200.224832
 20
-2.591428
 30
0.0
  0
LINE
  5
2cd
100
AcDbEntity
  8
Layer_1
 62
3
100
AcDbLine
 10
200.224832
 20
-2.591428
 30
0.0
 11
200.224832
 21
-2.591428
 31
0.0
  0
LINE
  5
2ce
100
AcDbEntity
  8
Layer_1
 62
3
100
AcDbLine
 10
109.928543
 20
-2.590064
 30
0.0
 11
38.830064
 21
-2.590064
 31
0.0
  0
SPLINE
  5
2cf
100
AcDbEntity
  8
Layer_1
 62
3
100
AcDbSpline
 70
8
 71
3
 72
8
 73
4
 74
0
 40
0
 40
0
 40
0
 40
0
 40
1
 40
1
 40
1
 40
1
 10
38.830064
 20
-2.590064
 30
0.0
 10
38.111317
 20
-2.590064
 30
0.0
 10
37.523239
 20
-3.238184
 30
0.0
 10
37.523239
 20
-4.030317
 30
0.0
  0
LINE
  5
2d0
100
AcDbEntity
  8
Layer_1
 62
3
100
AcDbLine
 10
37.523239
 20
-4.030317
 30
0.0
 11
37.523239
 21
-8.723772
 31
0.0
  0
SPLINE
  5
2d1
100
AcDbEntity
  8
Layer_1
 62
3
100
AcDbSpline
 70
8
 71
3
 72
8
 73
4
 74
0
 40
0
 40
0
 40
0
 40
0
 40
1
 40
1
 40
1
 40
1
 10
37.523239
 20
-8.723772
 30
0.0
 10
37.523239
 20
-9.515923
 30
0.0
 10
38.111317
 20
-10.164016
 30
0.0
 10
38.830064
 20
-10.164016
 30
0.0
  0
LINE
  5
2d2
100
AcDbEntity
  8
Layer_1
 62
3
100
AcDbLine
 10
38.830064
 20
-10.164016
 30
0.0
 11
109.928527
 21
-10.164016
 31
0.0
  0
SPLINE
  5
2d3
100
AcDbEntity
  8
Layer_1
 62
3
100
AcDbSpline
 70
8
 71
3
 72
8
 73
4
 74
0
 40
0
 40
0
 40
0
 40
0
 40
1
 40
1
 40
1
 40
1
 10
109.928527
 20
-10.164016
 30
0.0
 10
109.777701
 20
-10.013589
 30
0.0
 10
109.635819
 20
-9.854188
 30
0.0
 10
109.503715
 20
-9.686737
 30
0.0
  0
LINE
  5
2d4
100
AcDbEntity
  8
Layer_1
 62
3
100
AcDbLine
 10
109.503715
 20
-9.686737
 30
0.0
 11
38.830080
 21
-9.686737
 31
0.0
  0
SPLINE
  5
2d5
100
AcDbEntity
  8
Layer_1
 62
3
100
AcDbSpline
 70
8
 71
3
 72
8
 73
4
 74
0
 40
0
 40
0
 40
0
 40
0
 40
1
 40
1
 40
1
 40
1
 10
38.830080
 20
-9.686737
 30
0.0
 10
38.373827
 20
-9.686737
 30
0.0
 10
38.000533
 20
-9.253405
 30
0.0
 10
38.000533
 20
-8.723772
 30
0.0
  0
LINE
  5
2d6
100
AcDbEntity
  8
Layer_1
 62
3
100
AcDbLine
 10
38.000533
 20
-8.723772
 30
0.0
 11
38.000533
 21
-4.030324
 31
0.0
  0
SPLINE
  5
2d7
100
AcDbEntity
  8
Layer_1
 62
3
100
AcDbSpline
 70
8
 71
3
 72
8
 73
4
 74
0
 40
0
 40
0
 40
0
 40
0
 40
1
 40
1
 40
1
 40
1
 10
38.000533
 20
-4.030324
 30
0.0
 10
38.000533
 20
-3.500696
 30
0.0
 10
38.373827
 20
-3.067363
 30
0.0
 10
38.830080
 20
-3.067363
 30
0.0
  0
LINE
  5
2d8
100
AcDbEntity
  8
Layer_1
 62
3
100
AcDbLine
 10
38.830080
 20
-3.067363
 30
0.0
 11
109.503715
 21
-3.067363
 31
0.0
  0
SPLINE
  5
2d9
100
AcDbEntity
  8
Layer_1
 62
3
100
AcDbSpline
 70
8
 71
3
 72
8
 73
4
 74
0
 40
0
 40
0
 40
0
 40
0
 40
1
 40
1
 40
1
 40
1
 10
109.503715
 20
-3.067363
 30
0.0
 10
109.635819
 20
-2.899910
 30
0.0
 10
109.777701
 20
-2.740489
 30
0.0
 10
109.928543
 20
-2.590064
 30
0.0
  0
LINE
  5
2da
100
AcDbEntity
  8
Layer_1
 62
3
100
AcDbLine
 10
109.928543
 20
-2.590064
 30
0.0
 11
109.928543
 21
-2.590064
 31
0.0
  0
SPLINE
  5
2db
100
AcDbEntity
  8
Layer_1
 62
7
100
AcDbSpline
 70
8
 71
3
 72
8
 73
4
 74
0
 40
0
 40
0
 40
0
 40
0
 40
1
 40
1
 40
1
 40
1
 10
35.146820
 20
3.960530
 30
0.0
 10
34.444460
 20
2.625790
 30
0.0
 10
34.395620
 20
-0.256520
 30
0.0
 10
34.395620
 20
-0.256520
 30
0.0
  0
LINE
  5
2dc
100
AcDbEntity
  8
Layer_1
 62
7
100
AcDbLine
 10
34.395620
 20
-0.256520
 30
0.0
 11
34.395620
 21
-23.190560
 31
0.0
  0
LINE
  5
2dd
100
AcDbEntity
  8
Layer_1
 62
7
100
AcDbLine
 10
34.395620
 20
-23.190560
 30
0.0
 11
27.191470
 21
-23.190560
 31
0.0
  0
LINE
  5
2de
100
AcDbEntity
  8
Layer_1
 62
7
100
AcDbLine
 10
27.191470
 20
-23.190560
 30
0.0
 11
27.191470
 21
-28.146180
 31
0.0
  0
LINE
  5
2df
100
AcDbEntity
  8
Layer_1
 62
7
100
AcDbLine
 10
27.191470
 20
-28.146180
 30
0.0
 11
212.007544
 21
-28.146180
 31
0.0
  0
LINE
  5
2e0
100
AcDbEntity
  8
Layer_1
 62
7
100
AcDbLine
 10
212.007544
 20
-28.146180
 30
0.0
 11
212.007544
 21
-23.190560
 31
0.0
  0
LINE
  5
2e1
100
AcDbEntity
  8
Layer_1
 62
7
100
AcDbLine
 10
212.007544
 20
-23.190560
 30
0.0
 11
204.797138
 21
-23.190560
 31
0.0
  0
LINE
  5
2e2
100
AcDbEntity
  8
Layer_1
 62
7
100
AcDbLine
 10
204.797138
 20
-23.190560
 30
0.0
 11
204.797138
 21
-0.523790
 31
0.0
  0
SPLINE
  5
2e3
100
AcDbEntity
  8
Layer_1
 62
7
100
AcDbSpline
 70
8
 71
3
 72
8
 73
4
 74
0
 40
0
 40
0
 40
0
 40
0
 40
1
 40
1
 40
1
 40
1
 10
204.797138
 20
-0.523790
 30
0.0
 10
204.797138
 20
-0.523790
 30
0.0
 10
204.894998
 20
3.229010
 30
0.0
 10
203.686833
 20
4.399870
 30
0.0
  0
SPLINE
  5
2e4
100
AcDbEntity
  8
Layer_1
 62
7
100
AcDbSpline
 70
8
 71
3
 72
8
 73
4
 74
0
 40
0
 40
0
 40
0
 40
0
 40
1
 40
1
 40
1
 40
1
 10
203.686833
 20
4.399870
 30
0.0
 10
202.701076
 20
5.355200
 30
0.0
 10
199.643121
 20
5.179420
 30
0.0
 10
199.643121
 20
5.179420
 30
0.0
  0
SPLINE
  5
2e5
100
AcDbEntity
  8
Layer_1
 62
7
100
AcDbSpline
 70
8
 71
3
 72
8
 73
4
 74
0
 40
0
 40
0
 40
0
 40
0
 40
1
 40
1
 40
1
 40
1
 10
199.643121
 20
5.179420
 30
0.0
 10
87.295920
 20
5.178760
 30
0.0
 10
51.329420
 20
5.179020
 30
0.0
 10
39.815920
 20
5.179240
 30
0.0
  0
SPLINE
  5
2e6
100
AcDbEntity
  8
Layer_1
 62
7
100
AcDbSpline
 70
8
 71
3
 72
8
 73
4
 74
0
 40
0
 40
0
 40
0
 40
0
 40
1
 40
1
 40
1
 40
1
 10
39.815920
 20
5.179240
 30
0.0
 10
34.331700
 20
5.179350
 30
0.0
 10
35.850110
 20
5.297030
 30
0.0
 10
35.146820
 20
3.960530
 30
0.0
  0
LINE
  5
2e7
100
AcDbEntity
  8
Layer_1
 62
7
100
AcDbLine
 10
35.146820
 20
3.960530
 30
0.0
 11
35.146820
 21
3.960530
 31
0.0
  0
ENDSEC
  0
SECTION
  2
OBJECTS
  0
DICTIONARY
  5
C
330
0
100
AcDbDictionary
  3
ACAD_GROUP
350
D
  3
ACAD_MLINESTYLE
350
17
  0
DICTIONARY
  5
D
330
C
100
AcDbDictionary
  0
DICTIONARY
  5
1A
330
C
100
AcDbDictionary
  0
DICTIONARY
  5
17
330
C
100
AcDbDictionary
  3
STANDARD
350
18
  0
DICTIONARY
  5
19
330
C
100
AcDbDictionary
  0
ENDSEC
  0
EOF
