  0
SECTION
  2
HEADER
  9
$ACADVER
  1
AC1014
  9
$HANDSEED
  5
FFFF
  9
$MEASUREMENT
 70
     1
  0
ENDSEC
  0
SECTION
  2
TABLES
  0
TABLE
  2
VPORT
  5
8
330
0
100
AcDbSymbolTable
 70
     4
  0
VPORT
  5
2E
330
8
100
AcDbSymbolTableRecord
100
AcDbViewportTableRecord
  2
*ACTIVE
 70
     0
 10
0.0
 20
0.0
 11
1.0
 21
1.0
 12
210.0
 22
148.5
 13
0.0
 23
0.0
 14
10.0
 24
10.0
 15
10.0
 25
10.0
 16
0.0
 26
0.0
 36
1.0
 17
0.0
 27
0.0
 37
0.0
 40
341.0
 41
1.24
 42
50.0
 43
0.0
 44
0.0
 50
0.0
 51
0.0
 71
     0
 72
   100
 73
     1
 74
     3
 75
     0
 76
     0
 77
     0
 78
     0
  0
ENDTAB
  0
TABLE
  2
LTYPE
  5
5
330
0
100
AcDbSymbolTable
 70
     1
  0
LTYPE
  5
14
330
5
100
AcDbSymbolTableRecord
100
AcDbLinetypeTableRecord
  2
BYBLOCK
 70
     0
  3

 72
    65
 73
     0
 40
0.0
  0
LTYPE
  5
15
330
5
100
AcDbSymbolTableRecord
100
AcDbLinetypeTableRecord
  2
BYLAYER
 70
     0
  3

 72
    65
 73
     0
 40
0.0
  0
LTYPE
  5
16
330
5
100
AcDbSymbolTableRecord
100
AcDbLinetypeTableRecord
  2
CONTINUOUS
 70
     0
  3
Solid line
 72
    65
 73
     0
 40
0.0
  0
ENDTAB
  0
TABLE
  2
LAYER
  5
2
100
AcDbSymbolTable
 70
2
  0
LAYER
  5
50
100
AcDbSymbolTableRecord
100
AcDbLayerTableRecord
  2
0
 70
0
  6
CONTINUOUS
  0
LAYER
  5
51
100
AcDbSymbolTableRecord
100
AcDbLayerTableRecord
  2
Layer_1
 70
0
  6
CONTINUOUS
  0
ENDTAB
  0
TABLE
  2
STYLE
  5
3
330
0
100
AcDbSymbolTable
 70
     1
  0
STYLE
  5
11
330
3
100
AcDbSymbolTableRecord
100
AcDbTextStyleTableRecord
  2
STANDARD
 70
     0
 40
0.0
 41
1.0
 50
0.0
 71
     0
 42
2.5
  3
txt
  4

  0
ENDTAB
  0
TABLE
  2
VIEW
  5
6
330
0
100
AcDbSymbolTable
 70
     0
  0
ENDTAB
  0
TABLE
  2
UCS
  5
7
330
0
100
AcDbSymbolTable
 70
     0
  0
ENDTAB
  0
TABLE
  2
APPID
  5
9
330
0
100
AcDbSymbolTable
 70
     2
  0
APPID
  5
12
330
9
100
AcDbSymbolTableRecord
100
AcDbRegAppTableRecord
  2
ACAD
 70
     0
  0
ENDTAB
  0
TABLE
  2
DIMSTYLE
  5
A
330
0
100
AcDbSymbolTable
 70
     1
  0
DIMSTYLE
105
27
330
A
100
AcDbSymbolTableRecord
100
AcDbDimStyleTableRecord
  2
ISO-25
 70
     0
  3

  4

  5

  6

  7

 40
1.0
 41
2.5
 42
0.625
 43
3.75
 44
1.25
 45
0.0
 46
0.0
 47
0.0
 48
0.0
140
2.5
141
2.5
142
0.0
143
0.03937007874016
144
1.0
145
0.0
146
1.0
147
0.625
 71
     0
 72
     0
 73
     0
 74
     0
 75
     0
 76
     0
 77
     1
 78
     8
170
     0
171
     3
172
     1
173
     0
174
     0
175
     0
176
     0
177
     0
178
     0
270
     2
271
     2
272
     2
273
     2
274
     3
340
11
275
     0
280
     0
281
     0
282
     0
283
     0
284
     8
285
     0
286
     0
287
     3
288
     0
  0
ENDTAB
  0
TABLE
  2
BLOCK_RECORD
  5
1
330
0
100
AcDbSymbolTable
 70
     1
  0
BLOCK_RECORD
  5
1F
330
1
100
AcDbSymbolTableRecord
100
AcDbBlockTableRecord
  2
*MODEL_SPACE
  0
BLOCK_RECORD
  5
1B
330
1
100
AcDbSymbolTableRecord
100
AcDbBlockTableRecord
  2
*PAPER_SPACE
  0
ENDTAB
  0
ENDSEC
  0
SECTION
  2
BLOCKS
  0
BLOCK
  5
20
330
1F
100
AcDbEntity
  8
0
100
AcDbBlockBegin
  2
*MODEL_SPACE
 70
     0
 10
0.0
 20
0.0
 30
0.0
  3
*MODEL_SPACE
  1

  0
ENDBLK
  5
21
330
1F
100
AcDbEntity
  8
0
100
AcDbBlockEnd
  0
BLOCK
  5
1C
330
1B
100
AcDbEntity
 67
     1
  8
0
100
AcDbBlockBegin
  2
*PAPER_SPACE
  1

  0
ENDBLK
  5
1D
330
1B
100
AcDbEntity
 67
     1
  8
0
100
AcDbBlockEnd
  0
ENDSEC
  0
SECTION
  2
ENTITIES
  0
SPLINE
  5
100
100
AcDbEntity
  8
Layer_1
 62
3
100
AcDbSpline
 70
8
 71
3
 72
8
 73
4
 74
0
 40
0
 40
0
 40
0
 40
0
 40
1
 40
1
 40
1
 40
1
 10
122.494129
 20
-14.277145
 30
0.0
 10
122.577185
 20
-14.557827
 30
0.0
 10
122.416819
 20
-14.852671
 30
0.0
 10
122.136170
 20
-14.935655
 30
0.0
  0
SPLINE
  5
101
100
AcDbEntity
  8
Layer_1
 62
3
100
AcDbSpline
 70
8
 71
3
 72
8
 73
4
 74
0
 40
0
 40
0
 40
0
 40
0
 40
1
 40
1
 40
1
 40
1
 10
122.136170
 20
-14.935655
 30
0.0
 10
121.855520
 20
-15.018607
 30
0.0
 10
121.560660
 20
-14.858505
 30
0.0
 10
121.477676
 20
-14.577712
 30
0.0
  0
SPLINE
  5
102
100
AcDbEntity
  8
Layer_1
 62
3
100
AcDbSpline
 70
8
 71
3
 72
8
 73
4
 74
0
 40
0
 40
0
 40
0
 40
0
 40
1
 40
1
 40
1
 40
1
 10
121.477676
 20
-14.577712
 30
0.0
 10
121.394724
 20
-14.297023
 30
0.0
 10
121.554826
 20
-14.002170
 30
0.0
 10
121.835651
 20
-13.919194
 30
0.0
  0
SPLINE
  5
103
100
AcDbEntity
  8
Layer_1
 62
3
100
AcDbSpline
 70
8
 71
3
 72
8
 73
4
 74
0
 40
0
 40
0
 40
0
 40
0
 40
1
 40
1
 40
1
 40
1
 10
121.835651
 20
-13.919194
 30
0.0
 10
122.116308
 20
-13.836242
 30
0.0
 10
122.411137
 20
-13.996344
 30
0.0
 10
122.494129
 20
-14.277145
 30
0.0
  0
LINE
  5
104
100
AcDbEntity
  8
Layer_1
 62
3
100
AcDbLine
 10
122.494129
 20
-14.277145
 30
0.0
 11
122.494129
 21
-14.277145
 31
0.0
  0
LINE
  5
105
100
AcDbEntity
  8
Layer_1
 62
3
100
AcDbLine
 10
122.321641
 20
-14.328393
 30
0.0
 11
122.280755
 21
-14.498625
 31
0.0
  0
LINE
  5
106
100
AcDbEntity
  8
Layer_1
 62
3
100
AcDbLine
 10
122.280755
 20
-14.498625
 30
0.0
 11
122.239709
 21
-14.668794
 31
0.0
  0
LINE
  5
107
100
AcDbEntity
  8
Layer_1
 62
3
100
AcDbLine
 10
122.239709
 20
-14.668794
 30
0.0
 11
122.071843
 21
-14.718367
 31
0.0
  0
LINE
  5
108
100
AcDbEntity
  8
Layer_1
 62
3
100
AcDbLine
 10
122.071843
 20
-14.718367
 30
0.0
 11
121.903954
 21
-14.767941
 31
0.0
  0
LINE
  5
109
100
AcDbEntity
  8
Layer_1
 62
3
100
AcDbLine
 10
121.903954
 20
-14.767941
 30
0.0
 11
121.777039
 21
-14.647394
 31
0.0
  0
LINE
  5
10a
100
AcDbEntity
  8
Layer_1
 62
3
100
AcDbLine
 10
121.777039
 20
-14.647394
 30
0.0
 11
121.650275
 21
-14.526863
 31
0.0
  0
LINE
  5
10b
100
AcDbEntity
  8
Layer_1
 62
3
100
AcDbLine
 10
121.650275
 20
-14.526863
 30
0.0
 11
121.691321
 21
-14.356647
 31
0.0
  0
LINE
  5
10c
100
AcDbEntity
  8
Layer_1
 62
3
100
AcDbLine
 10
121.691321
 20
-14.356647
 30
0.0
 11
121.732208
 21
-14.186430
 31
0.0
  0
LINE
  5
10d
100
AcDbEntity
  8
Layer_1
 62
3
100
AcDbLine
 10
121.732208
 20
-14.186430
 30
0.0
 11
121.900089
 21
-14.136856
 31
0.0
  0
LINE
  5
10e
100
AcDbEntity
  8
Layer_1
 62
3
100
AcDbLine
 10
121.900089
 20
-14.136856
 30
0.0
 11
122.067962
 21
-14.087283
 31
0.0
  0
LINE
  5
10f
100
AcDbEntity
  8
Layer_1
 62
3
100
AcDbLine
 10
122.067962
 20
-14.087283
 30
0.0
 11
122.194869
 21
-14.207814
 31
0.0
  0
LINE
  5
110
100
AcDbEntity
  8
Layer_1
 62
3
100
AcDbLine
 10
122.194869
 20
-14.207814
 30
0.0
 11
122.321641
 21
-14.328393
 31
0.0
  0
SPLINE
  5
111
100
AcDbEntity
  8
Layer_1
 62
3
100
AcDbSpline
 70
8
 71
3
 72
8
 73
4
 74
0
 40
0
 40
0
 40
0
 40
0
 40
1
 40
1
 40
1
 40
1
 10
117.725064
 20
1.851711
 30
0.0
 10
117.808216
 20
1.571044
 30
0.0
 10
117.647914
 20
1.276205
 30
0.0
 10
117.367129
 20
1.193215
 30
0.0
  0
SPLINE
  5
112
100
AcDbEntity
  8
Layer_1
 62
3
100
AcDbSpline
 70
8
 71
3
 72
8
 73
4
 74
0
 40
0
 40
0
 40
0
 40
0
 40
1
 40
1
 40
1
 40
1
 10
117.367129
 20
1.193215
 30
0.0
 10
117.086440
 20
1.110311
 30
0.0
 10
116.791611
 20
1.270429
 30
0.0
 10
116.708627
 20
1.551163
 30
0.0
  0
SPLINE
  5
113
100
AcDbEntity
  8
Layer_1
 62
3
100
AcDbSpline
 70
8
 71
3
 72
8
 73
4
 74
0
 40
0
 40
0
 40
0
 40
0
 40
1
 40
1
 40
1
 40
1
 10
116.708627
 20
1.551163
 30
0.0
 10
116.625675
 20
1.831847
 30
0.0
 10
116.785777
 20
2.126685
 30
0.0
 10
117.066570
 20
2.209677
 30
0.0
  0
SPLINE
  5
114
100
AcDbEntity
  8
Layer_1
 62
3
100
AcDbSpline
 70
8
 71
3
 72
8
 73
4
 74
0
 40
0
 40
0
 40
0
 40
0
 40
1
 40
1
 40
1
 40
1
 10
117.066570
 20
2.209677
 30
0.0
 10
117.347228
 20
2.292570
 30
0.0
 10
117.642088
 20
2.132455
 30
0.0
 10
117.725064
 20
1.851711
 30
0.0
  0
LINE
  5
115
100
AcDbEntity
  8
Layer_1
 62
3
100
AcDbLine
 10
117.725064
 20
1.851711
 30
0.0
 11
117.725064
 21
1.851711
 31
0.0
  0
LINE
  5
116
100
AcDbEntity
  8
Layer_1
 62
3
100
AcDbLine
 10
117.552584
 20
1.800567
 30
0.0
 11
117.511698
 21
1.630349
 31
0.0
  0
LINE
  5
117
100
AcDbEntity
  8
Layer_1
 62
3
100
AcDbLine
 10
117.511698
 20
1.630349
 30
0.0
 11
117.470572
 21
1.460145
 31
0.0
  0
LINE
  5
118
100
AcDbEntity
  8
Layer_1
 62
3
100
AcDbLine
 10
117.470572
 20
1.460145
 30
0.0
 11
117.302715
 21
1.410539
 31
0.0
  0
LINE
  5
119
100
AcDbEntity
  8
Layer_1
 62
3
100
AcDbLine
 10
117.302715
 20
1.410539
 30
0.0
 11
117.134826
 21
1.360934
 31
0.0
  0
LINE
  5
11a
100
AcDbEntity
  8
Layer_1
 62
3
100
AcDbLine
 10
117.134826
 20
1.360934
 30
0.0
 11
117.007919
 21
1.481518
 31
0.0
  0
LINE
  5
11b
100
AcDbEntity
  8
Layer_1
 62
3
100
AcDbLine
 10
117.007919
 20
1.481518
 30
0.0
 11
116.881004
 21
1.602103
 31
0.0
  0
LINE
  5
11c
100
AcDbEntity
  8
Layer_1
 62
3
100
AcDbLine
 10
116.881004
 20
1.602103
 30
0.0
 11
116.922049
 21
1.772335
 31
0.0
  0
LINE
  5
11d
100
AcDbEntity
  8
Layer_1
 62
3
100
AcDbLine
 10
116.922049
 20
1.772335
 30
0.0
 11
116.963095
 21
1.942525
 31
0.0
  0
LINE
  5
11e
100
AcDbEntity
  8
Layer_1
 62
3
100
AcDbLine
 10
116.963095
 20
1.942525
 30
0.0
 11
117.130976
 21
1.992266
 31
0.0
  0
LINE
  5
11f
100
AcDbEntity
  8
Layer_1
 62
3
100
AcDbLine
 10
117.130976
 20
1.992266
 30
0.0
 11
117.298834
 21
2.041872
 31
0.0
  0
LINE
  5
120
100
AcDbEntity
  8
Layer_1
 62
3
100
AcDbLine
 10
117.298834
 20
2.041872
 30
0.0
 11
117.425749
 21
1.921287
 31
0.0
  0
LINE
  5
121
100
AcDbEntity
  8
Layer_1
 62
3
100
AcDbLine
 10
117.425749
 20
1.921287
 30
0.0
 11
117.552584
 21
1.800567
 31
0.0
  0
SPLINE
  5
122
100
AcDbEntity
  8
Layer_1
 62
3
100
AcDbSpline
 70
8
 71
3
 72
8
 73
4
 74
0
 40
0
 40
0
 40
0
 40
0
 40
1
 40
1
 40
1
 40
1
 10
127.515653
 20
-3.470489
 30
0.0
 10
127.796318
 20
-3.387585
 30
0.0
 10
128.091170
 20
-3.547710
 30
0.0
 10
128.174147
 20
-3.828453
 30
0.0
  0
SPLINE
  5
123
100
AcDbEntity
  8
Layer_1
 62
3
100
AcDbSpline
 70
8
 71
3
 72
8
 73
4
 74
0
 40
0
 40
0
 40
0
 40
0
 40
1
 40
1
 40
1
 40
1
 10
128.174147
 20
-3.828453
 30
0.0
 10
128.257107
 20
-4.109121
 30
0.0
 10
128.096837
 20
-4.403959
 30
0.0
 10
127.816204
 20
-4.486950
 30
0.0
  0
SPLINE
  5
124
100
AcDbEntity
  8
Layer_1
 62
3
100
AcDbSpline
 70
8
 71
3
 72
8
 73
4
 74
0
 40
0
 40
0
 40
0
 40
0
 40
1
 40
1
 40
1
 40
1
 10
127.816204
 20
-4.486950
 30
0.0
 10
127.535506
 20
-4.569833
 30
0.0
 10
127.240686
 20
-4.409728
 30
0.0
 10
127.157702
 20
-4.129001
 30
0.0
  0
SPLINE
  5
125
100
AcDbEntity
  8
Layer_1
 62
3
100
AcDbSpline
 70
8
 71
3
 72
8
 73
4
 74
0
 40
0
 40
0
 40
0
 40
0
 40
1
 40
1
 40
1
 40
1
 10
127.157702
 20
-4.129001
 30
0.0
 10
127.074758
 20
-3.848345
 30
0.0
 10
127.235011
 20
-3.553493
 30
0.0
 10
127.515653
 20
-3.470489
 30
0.0
  0
LINE
  5
126
100
AcDbEntity
  8
Layer_1
 62
3
100
AcDbLine
 10
127.515653
 20
-3.470489
 30
0.0
 11
127.515653
 21
-3.470489
 31
0.0
  0
LINE
  5
127
100
AcDbEntity
  8
Layer_1
 62
3
100
AcDbLine
 10
127.566741
 20
-3.642988
 30
0.0
 11
127.736965
 21
-3.683939
 31
0.0
  0
LINE
  5
128
100
AcDbEntity
  8
Layer_1
 62
3
100
AcDbLine
 10
127.736965
 20
-3.683939
 30
0.0
 11
127.907150
 21
-3.725032
 31
0.0
  0
LINE
  5
129
100
AcDbEntity
  8
Layer_1
 62
3
100
AcDbLine
 10
127.907150
 20
-3.725032
 30
0.0
 11
127.956724
 21
-3.892911
 31
0.0
  0
LINE
  5
12a
100
AcDbEntity
  8
Layer_1
 62
3
100
AcDbLine
 10
127.956724
 20
-3.892911
 30
0.0
 11
128.006297
 21
-4.060778
 31
0.0
  0
LINE
  5
12b
100
AcDbEntity
  8
Layer_1
 62
3
100
AcDbLine
 10
128.006297
 20
-4.060778
 30
0.0
 11
127.885758
 21
-4.187739
 31
0.0
  0
LINE
  5
12c
100
AcDbEntity
  8
Layer_1
 62
3
100
AcDbLine
 10
127.885758
 20
-4.187739
 30
0.0
 11
127.765219
 21
-4.314700
 31
0.0
  0
LINE
  5
12d
100
AcDbEntity
  8
Layer_1
 62
3
100
AcDbLine
 10
127.765219
 20
-4.314700
 30
0.0
 11
127.594987
 21
-4.273606
 31
0.0
  0
LINE
  5
12e
100
AcDbEntity
  8
Layer_1
 62
3
100
AcDbLine
 10
127.594987
 20
-4.273606
 30
0.0
 11
127.424810
 21
-4.232513
 31
0.0
  0
LINE
  5
12f
100
AcDbEntity
  8
Layer_1
 62
3
100
AcDbLine
 10
127.424810
 20
-4.232513
 30
0.0
 11
127.374997
 21
-4.064647
 31
0.0
  0
LINE
  5
130
100
AcDbEntity
  8
Layer_1
 62
3
100
AcDbLine
 10
127.374997
 20
-4.064647
 30
0.0
 11
127.325424
 21
-3.896765
 31
0.0
  0
LINE
  5
131
100
AcDbEntity
  8
Layer_1
 62
3
100
AcDbLine
 10
127.325424
 20
-3.896765
 30
0.0
 11
127.445955
 21
-3.769805
 31
0.0
  0
LINE
  5
132
100
AcDbEntity
  8
Layer_1
 62
3
100
AcDbLine
 10
127.445955
 20
-3.769805
 30
0.0
 11
127.566741
 21
-3.642988
 31
0.0
  0
SPLINE
  5
133
100
AcDbEntity
  8
Layer_1
 62
3
100
AcDbSpline
 70
8
 71
3
 72
8
 73
4
 74
0
 40
0
 40
0
 40
0
 40
0
 40
1
 40
1
 40
1
 40
1
 10
111.386640
 20
-8.239567
 30
0.0
 10
111.667313
 20
-8.156662
 30
0.0
 10
111.962174
 20
-8.316797
 30
0.0
 10
112.045142
 20
-8.597518
 30
0.0
  0
SPLINE
  5
134
100
AcDbEntity
  8
Layer_1
 62
3
100
AcDbSpline
 70
8
 71
3
 72
8
 73
4
 74
0
 40
0
 40
0
 40
0
 40
0
 40
1
 40
1
 40
1
 40
1
 10
112.045142
 20
-8.597518
 30
0.0
 10
112.128301
 20
-8.878183
 30
0.0
 10
111.967992
 20
-9.173028
 30
0.0
 10
111.687183
 20
-9.256020
 30
0.0
  0
SPLINE
  5
135
100
AcDbEntity
  8
Layer_1
 62
3
100
AcDbSpline
 70
8
 71
3
 72
8
 73
4
 74
0
 40
0
 40
0
 40
0
 40
0
 40
1
 40
1
 40
1
 40
1
 10
111.687183
 20
-9.256020
 30
0.0
 10
111.406509
 20
-9.338972
 30
0.0
 10
111.111673
 20
-9.178790
 30
0.0
 10
111.028681
 20
-8.898061
 30
0.0
  0
SPLINE
  5
136
100
AcDbEntity
  8
Layer_1
 62
3
100
AcDbSpline
 70
8
 71
3
 72
8
 73
4
 74
0
 40
0
 40
0
 40
0
 40
0
 40
1
 40
1
 40
1
 40
1
 10
111.028681
 20
-8.898061
 30
0.0
 10
110.945721
 20
-8.617379
 30
0.0
 10
111.105991
 20
-8.322559
 30
0.0
 10
111.386640
 20
-8.239567
 30
0.0
  0
LINE
  5
137
100
AcDbEntity
  8
Layer_1
 62
3
100
AcDbLine
 10
111.386640
 20
-8.239567
 30
0.0
 11
111.386640
 21
-8.239567
 31
0.0
  0
LINE
  5
138
100
AcDbEntity
  8
Layer_1
 62
3
100
AcDbLine
 10
111.437728
 20
-8.412039
 30
0.0
 11
111.607961
 21
-8.453085
 31
0.0
  0
LINE
  5
139
100
AcDbEntity
  8
Layer_1
 62
3
100
AcDbLine
 10
111.607961
 20
-8.453085
 30
0.0
 11
111.778161
 21
-8.494210
 31
0.0
  0
LINE
  5
13a
100
AcDbEntity
  8
Layer_1
 62
3
100
AcDbLine
 10
111.778161
 20
-8.494210
 30
0.0
 11
111.827735
 21
-8.662075
 31
0.0
  0
LINE
  5
13b
100
AcDbEntity
  8
Layer_1
 62
3
100
AcDbLine
 10
111.827735
 20
-8.662075
 30
0.0
 11
111.877308
 21
-8.829949
 31
0.0
  0
LINE
  5
13c
100
AcDbEntity
  8
Layer_1
 62
3
100
AcDbLine
 10
111.877308
 20
-8.829949
 30
0.0
 11
111.756777
 21
-8.956912
 31
0.0
  0
LINE
  5
13d
100
AcDbEntity
  8
Layer_1
 62
3
100
AcDbLine
 10
111.756777
 20
-8.956912
 30
0.0
 11
111.636238
 21
-9.083882
 31
0.0
  0
LINE
  5
13e
100
AcDbEntity
  8
Layer_1
 62
3
100
AcDbLine
 10
111.636238
 20
-9.083882
 30
0.0
 11
111.466014
 21
-9.042837
 31
0.0
  0
LINE
  5
13f
100
AcDbEntity
  8
Layer_1
 62
3
100
AcDbLine
 10
111.466014
 20
-9.042837
 30
0.0
 11
111.295829
 21
-9.001711
 31
0.0
  0
LINE
  5
140
100
AcDbEntity
  8
Layer_1
 62
3
100
AcDbLine
 10
111.295829
 20
-9.001711
 30
0.0
 11
111.246256
 21
-8.833822
 31
0.0
  0
LINE
  5
141
100
AcDbEntity
  8
Layer_1
 62
3
100
AcDbLine
 10
111.246256
 20
-8.833822
 30
0.0
 11
111.196443
 21
-8.665949
 31
0.0
  0
LINE
  5
142
100
AcDbEntity
  8
Layer_1
 62
3
100
AcDbLine
 10
111.196443
 20
-8.665949
 30
0.0
 11
111.316982
 21
-8.538994
 31
0.0
  0
LINE
  5
143
100
AcDbEntity
  8
Layer_1
 62
3
100
AcDbLine
 10
111.316982
 20
-8.538994
 30
0.0
 11
111.437728
 21
-8.412039
 31
0.0
  0
SPLINE
  5
144
100
AcDbEntity
  8
Layer_1
 62
3
100
AcDbSpline
 70
8
 71
3
 72
8
 73
4
 74
0
 40
0
 40
0
 40
0
 40
0
 40
1
 40
1
 40
1
 40
1
 10
110.498784
 20
-8.737520
 30
0.0
 10
109.212202
 20
-3.956545
 30
0.0
 10
111.908081
 20
1.002670
 30
0.0
 10
116.619905
 20
2.522928
 30
0.0
  0
LINE
  5
145
100
AcDbEntity
  8
Layer_1
 62
3
100
AcDbLine
 10
116.619905
 20
2.522928
 30
0.0
 11
116.677289
 21
2.329074
 31
0.0
  0
SPLINE
  5
146
100
AcDbEntity
  8
Layer_1
 62
3
100
AcDbSpline
 70
8
 71
3
 72
8
 73
4
 74
0
 40
0
 40
0
 40
0
 40
0
 40
1
 40
1
 40
1
 40
1
 10
116.677289
 20
2.329074
 30
0.0
 10
116.517856
 20
2.191770
 30
0.0
 10
116.415839
 20
1.997566
 30
0.0
 10
116.393722
 20
1.787885
 30
0.0
  0
SPLINE
  5
147
100
AcDbEntity
  8
Layer_1
 62
3
100
AcDbSpline
 70
8
 71
3
 72
8
 73
4
 74
0
 40
0
 40
0
 40
0
 40
0
 40
1
 40
1
 40
1
 40
1
 10
116.393722
 20
1.787885
 30
0.0
 10
112.398104
 20
0.272986
 30
0.0
 10
110.097237
 20
-3.950537
 30
0.0
 10
110.988496
 20
-8.127715
 30
0.0
  0
SPLINE
  5
148
100
AcDbEntity
  8
Layer_1
 62
3
100
AcDbSpline
 70
8
 71
3
 72
8
 73
4
 74
0
 40
0
 40
0
 40
0
 40
0
 40
1
 40
1
 40
1
 40
1
 10
110.988496
 20
-8.127715
 30
0.0
 10
110.830848
 20
-8.267430
 30
0.0
 10
110.731207
 20
-8.463525
 30
0.0
 10
110.712358
 20
-8.674405
 30
0.0
  0
LINE
  5
149
100
AcDbEntity
  8
Layer_1
 62
3
100
AcDbLine
 10
110.712358
 20
-8.674405
 30
0.0
 11
110.498784
 21
-8.737520
 31
0.0
  0
SPLINE
  5
14a
100
AcDbEntity
  8
Layer_1
 62
3
100
AcDbSpline
 70
8
 71
3
 72
8
 73
4
 74
0
 40
0
 40
0
 40
0
 40
0
 40
1
 40
1
 40
1
 40
1
 10
111.631408
 20
-7.925140
 30
0.0
 10
110.847857
 20
-4.102390
 30
0.0
 10
112.952931
 20
-0.251498
 30
0.0
 10
116.600258
 20
1.148969
 30
0.0
  0
SPLINE
  5
14b
100
AcDbEntity
  8
Layer_1
 62
3
100
AcDbSpline
 70
8
 71
3
 72
8
 73
4
 74
0
 40
0
 40
0
 40
0
 40
0
 40
1
 40
1
 40
1
 40
1
 10
116.600258
 20
1.148969
 30
0.0
 10
116.731230
 20
1.002956
 30
0.0
 10
116.910859
 20
0.907523
 30
0.0
 10
117.105448
 20
0.880869
 30
0.0
  0
LINE
  5
14c
100
AcDbEntity
  8
Layer_1
 62
3
100
AcDbLine
 10
117.105448
 20
0.880869
 30
0.0
 11
117.516878
 21
-0.510601
 31
0.0
  0
SPLINE
  5
14d
100
AcDbEntity
  8
Layer_1
 62
3
100
AcDbSpline
 70
8
 71
3
 72
8
 73
4
 74
0
 40
0
 40
0
 40
0
 40
0
 40
1
 40
1
 40
1
 40
1
 10
117.516878
 20
-0.510601
 30
0.0
 10
114.478742
 20
-1.533722
 30
0.0
 10
112.738815
 20
-4.734504
 30
0.0
 10
113.532362
 20
-7.840578
 30
0.0
  0
LINE
  5
14e
100
AcDbEntity
  8
Layer_1
 62
3
100
AcDbLine
 10
113.532362
 20
-7.840578
 30
0.0
 11
112.189336
 21
-8.237702
 31
0.0
  0
SPLINE
  5
14f
100
AcDbEntity
  8
Layer_1
 62
3
100
AcDbSpline
 70
8
 71
3
 72
8
 73
4
 74
0
 40
0
 40
0
 40
0
 40
0
 40
1
 40
1
 40
1
 40
1
 10
112.189336
 20
-8.237702
 30
0.0
 10
112.052929
 20
-8.063293
 30
0.0
 10
111.850991
 20
-7.950445
 30
0.0
 10
111.631448
 20
-7.925140
 30
0.0
  0
LINE
  5
150
100
AcDbEntity
  8
Layer_1
 62
3
100
AcDbLine
 10
111.631448
 20
-7.925140
 30
0.0
 11
111.631408
 21
-7.925140
 31
0.0
  0
SPLINE
  5
151
100
AcDbEntity
  8
Layer_1
 62
3
100
AcDbSpline
 70
8
 71
3
 72
8
 73
4
 74
0
 40
0
 40
0
 40
0
 40
0
 40
1
 40
1
 40
1
 40
1
 10
128.501485
 20
-3.414462
 30
0.0
 10
126.981333
 20
1.297437
 30
0.0
 10
122.022063
 20
3.993192
 30
0.0
 10
117.241122
 20
2.706621
 30
0.0
  0
LINE
  5
152
100
AcDbEntity
  8
Layer_1
 62
3
100
AcDbLine
 10
117.241122
 20
2.706621
 30
0.0
 11
117.294602
 21
2.525689
 31
0.0
  0
SPLINE
  5
153
100
AcDbEntity
  8
Layer_1
 62
3
100
AcDbSpline
 70
8
 71
3
 72
8
 73
4
 74
0
 40
0
 40
0
 40
0
 40
0
 40
1
 40
1
 40
1
 40
1
 10
117.294602
 20
2.525689
 30
0.0
 10
117.517173
 20
2.504727
 30
0.0
 10
117.723008
 20
2.393626
 30
0.0
 10
117.862898
 20
2.219446
 30
0.0
  0
SPLINE
  5
154
100
AcDbEntity
  8
Layer_1
 62
3
100
AcDbSpline
 70
8
 71
3
 72
8
 73
4
 74
0
 40
0
 40
0
 40
0
 40
0
 40
1
 40
1
 40
1
 40
1
 10
117.862898
 20
2.219446
 30
0.0
 10
122.024669
 20
3.101353
 30
0.0
 10
126.229541
 20
0.816128
 30
0.0
 10
127.753687
 20
-3.155360
 30
0.0
  0
SPLINE
  5
155
100
AcDbEntity
  8
Layer_1
 62
3
100
AcDbSpline
 70
8
 71
3
 72
8
 73
4
 74
0
 40
0
 40
0
 40
0
 40
0
 40
1
 40
1
 40
1
 40
1
 10
127.753687
 20
-3.155360
 30
0.0
 10
127.975788
 20
-3.179023
 30
0.0
 10
128.180531
 20
-3.292384
 30
0.0
 10
128.318429
 20
-3.468619
 30
0.0
  0
LINE
  5
156
100
AcDbEntity
  8
Layer_1
 62
3
100
AcDbLine
 10
128.318429
 20
-3.468619
 30
0.0
 11
128.501485
 21
-3.414462
 31
0.0
  0
SPLINE
  5
157
100
AcDbEntity
  8
Layer_1
 62
3
100
AcDbSpline
 70
8
 71
3
 72
8
 73
4
 74
0
 40
0
 40
0
 40
0
 40
0
 40
1
 40
1
 40
1
 40
1
 10
127.114297
 20
-3.361477
 30
0.0
 10
125.700840
 20
0.271207
 30
0.0
 10
121.851766
 20
2.362209
 30
0.0
 10
118.034581
 20
1.570264
 30
0.0
  0
SPLINE
  5
158
100
AcDbEntity
  8
Layer_1
 62
3
100
AcDbSpline
 70
8
 71
3
 72
8
 73
4
 74
0
 40
0
 40
0
 40
0
 40
0
 40
1
 40
1
 40
1
 40
1
 10
118.034581
 20
1.570264
 30
0.0
 10
118.001665
 20
1.366435
 30
0.0
 10
117.893208
 20
1.180376
 30
0.0
 10
117.730396
 20
1.051590
 30
0.0
  0
LINE
  5
159
100
AcDbEntity
  8
Layer_1
 62
3
100
AcDbLine
 10
117.730396
 20
1.051590
 30
0.0
 11
118.138024
 21
-0.326930
 31
0.0
  0
SPLINE
  5
15a
100
AcDbEntity
  8
Layer_1
 62
3
100
AcDbSpline
 70
8
 71
3
 72
8
 73
4
 74
0
 40
0
 40
0
 40
0
 40
0
 40
1
 40
1
 40
1
 40
1
 10
118.138024
 20
-0.326930
 30
0.0
 10
121.244010
 20
0.466645
 30
0.0
 10
124.444775
 20
-1.273280
 30
0.0
 10
125.467955
 20
-4.311440
 30
0.0
  0
LINE
  5
15b
100
AcDbEntity
  8
Layer_1
 62
3
100
AcDbLine
 10
125.467955
 20
-4.311440
 30
0.0
 11
126.841331
 21
-3.905358
 31
0.0
  0
SPLINE
  5
15c
100
AcDbEntity
  8
Layer_1
 62
3
100
AcDbSpline
 70
8
 71
3
 72
8
 73
4
 74
0
 40
0
 40
0
 40
0
 40
0
 40
1
 40
1
 40
1
 40
1
 10
126.841331
 20
-3.905358
 30
0.0
 10
126.859901
 20
-3.695920
 30
0.0
 10
126.958451
 20
-3.501004
 30
0.0
 10
127.114297
 20
-3.361477
 30
0.0
  0
LINE
  5
15d
100
AcDbEntity
  8
Layer_1
 62
3
100
AcDbLine
 10
127.114297
 20
-3.361477
 30
0.0
 11
127.114297
 21
-3.361477
 31
0.0
  0
SPLINE
  5
15e
100
AcDbEntity
  8
Layer_1
 62
3
100
AcDbSpline
 70
8
 71
3
 72
8
 73
4
 74
0
 40
0
 40
0
 40
0
 40
0
 40
1
 40
1
 40
1
 40
1
 10
110.676923
 20
-9.340128
 30
0.0
 10
112.197171
 20
-14.052007
 30
0.0
 10
117.156457
 20
-16.747750
 30
0.0
 10
121.937405
 20
-15.461200
 30
0.0
  0
LINE
  5
15f
100
AcDbEntity
  8
Layer_1
 62
3
100
AcDbLine
 10
121.937405
 20
-15.461200
 30
0.0
 11
121.874362
 21
-15.248272
 31
0.0
  0
SPLINE
  5
160
100
AcDbEntity
  8
Layer_1
 62
3
100
AcDbSpline
 70
8
 71
3
 72
8
 73
4
 74
0
 40
0
 40
0
 40
0
 40
0
 40
1
 40
1
 40
1
 40
1
 10
121.874362
 20
-15.248272
 30
0.0
 10
121.673309
 20
-15.220696
 30
0.0
 10
121.488173
 20
-15.119787
 30
0.0
 10
121.356332
 20
-14.965391
 30
0.0
  0
SPLINE
  5
161
100
AcDbEntity
  8
Layer_1
 62
3
100
AcDbSpline
 70
8
 71
3
 72
8
 73
4
 74
0
 40
0
 40
0
 40
0
 40
0
 40
1
 40
1
 40
1
 40
1
 10
121.356332
 20
-14.965391
 30
0.0
 10
117.169767
 20
-15.873507
 30
0.0
 10
112.930200
 20
-13.571222
 30
0.0
 10
111.411865
 20
-9.566294
 30
0.0
  0
SPLINE
  5
162
100
AcDbEntity
  8
Layer_1
 62
3
100
AcDbSpline
 70
8
 71
3
 72
8
 73
4
 74
0
 40
0
 40
0
 40
0
 40
0
 40
1
 40
1
 40
1
 40
1
 10
111.411865
 20
-9.566294
 30
0.0
 10
111.211355
 20
-9.535529
 30
0.0
 10
111.027701
 20
-9.431544
 30
0.0
 10
110.898156
 20
-9.274686
 30
0.0
  0
LINE
  5
163
100
AcDbEntity
  8
Layer_1
 62
3
100
AcDbLine
 10
110.898156
 20
-9.274686
 30
0.0
 11
110.676923
 21
-9.340128
 31
0.0
  0
SPLINE
  5
164
100
AcDbEntity
  8
Layer_1
 62
3
100
AcDbSpline
 70
8
 71
3
 72
8
 73
4
 74
0
 40
0
 40
0
 40
0
 40
0
 40
1
 40
1
 40
1
 40
1
 10
112.062118
 20
-9.388028
 30
0.0
 10
113.476603
 20
-13.030613
 30
0.0
 10
117.339178
 20
-15.125071
 30
0.0
 10
121.165114
 20
-14.320526
 30
0.0
  0
SPLINE
  5
165
100
AcDbEntity
  8
Layer_1
 62
3
100
AcDbSpline
 70
8
 71
3
 72
8
 73
4
 74
0
 40
0
 40
0
 40
0
 40
0
 40
1
 40
1
 40
1
 40
1
 10
121.165114
 20
-14.320526
 30
0.0
 10
121.191575
 20
-14.118701
 30
0.0
 10
121.292030
 20
-13.932703
 30
0.0
 10
121.446234
 20
-13.800002
 30
0.0
  0
LINE
  5
166
100
AcDbEntity
  8
Layer_1
 62
3
100
AcDbLine
 10
121.446234
 20
-13.800002
 30
0.0
 11
121.040431
 21
-12.427607
 31
0.0
  0
SPLINE
  5
167
100
AcDbEntity
  8
Layer_1
 62
3
100
AcDbSpline
 70
8
 71
3
 72
8
 73
4
 74
0
 40
0
 40
0
 40
0
 40
0
 40
1
 40
1
 40
1
 40
1
 10
121.040431
 20
-12.427607
 30
0.0
 10
117.934437
 20
-13.221209
 30
0.0
 10
114.733648
 20
-11.481267
 30
0.0
 10
113.710477
 20
-8.443106
 30
0.0
  0
LINE
  5
168
100
AcDbEntity
  8
Layer_1
 62
3
100
AcDbLine
 10
113.710477
 20
-8.443106
 30
0.0
 11
112.359608
 21
-8.842517
 31
0.0
  0
SPLINE
  5
169
100
AcDbEntity
  8
Layer_1
 62
3
100
AcDbSpline
 70
8
 71
3
 72
8
 73
4
 74
0
 40
0
 40
0
 40
0
 40
0
 40
1
 40
1
 40
1
 40
1
 10
112.359608
 20
-8.842517
 30
0.0
 10
112.334901
 20
-9.055501
 30
0.0
 10
112.227863
 20
-9.251939
 30
0.0
 10
112.062118
 20
-9.388028
 30
0.0
  0
LINE
  5
16a
100
AcDbEntity
  8
Layer_1
 62
3
100
AcDbLine
 10
112.062118
 20
-9.388028
 30
0.0
 11
112.062118
 21
-9.388028
 31
0.0
  0
SPLINE
  5
16b
100
AcDbEntity
  8
Layer_1
 62
3
100
AcDbSpline
 70
8
 71
3
 72
8
 73
4
 74
0
 40
0
 40
0
 40
0
 40
0
 40
1
 40
1
 40
1
 40
1
 10
128.679639
 20
-4.017001
 30
0.0
 10
129.966301
 20
-8.797989
 30
0.0
 10
127.270454
 20
-13.757203
 30
0.0
 10
122.558607
 20
-15.277459
 30
0.0
  0
LINE
  5
16c
100
AcDbEntity
  8
Layer_1
 62
3
100
AcDbLine
 10
122.558607
 20
-15.277459
 30
0.0
 11
122.499309
 21
-15.077458
 31
0.0
  0
SPLINE
  5
16d
100
AcDbEntity
  8
Layer_1
 62
3
100
AcDbSpline
 70
8
 71
3
 72
8
 73
4
 74
0
 40
0
 40
0
 40
0
 40
0
 40
1
 40
1
 40
1
 40
1
 10
122.499309
 20
-15.077458
 30
0.0
 10
122.668761
 20
-14.943378
 30
0.0
 10
122.779433
 20
-14.747362
 30
0.0
 10
122.807121
 20
-14.533733
 30
0.0
  0
SPLINE
  5
16e
100
AcDbEntity
  8
Layer_1
 62
3
100
AcDbSpline
 70
8
 71
3
 72
8
 73
4
 74
0
 40
0
 40
0
 40
0
 40
0
 40
1
 40
1
 40
1
 40
1
 10
122.807121
 20
-14.533733
 30
0.0
 10
126.790872
 20
-13.010791
 30
0.0
 10
129.081808
 20
-8.792083
 30
0.0
 10
128.188716
 20
-4.620875
 30
0.0
  0
SPLINE
  5
16f
100
AcDbEntity
  8
Layer_1
 62
3
100
AcDbSpline
 70
8
 71
3
 72
8
 73
4
 74
0
 40
0
 40
0
 40
0
 40
0
 40
1
 40
1
 40
1
 40
1
 10
128.188716
 20
-4.620875
 30
0.0
 10
128.355840
 20
-4.484707
 30
0.0
 10
128.463802
 20
-4.287425
 30
0.0
 10
128.488589
 20
-4.073451
 30
0.0
  0
LINE
  5
170
100
AcDbEntity
  8
Layer_1
 62
3
100
AcDbLine
 10
128.488589
 20
-4.073451
 30
0.0
 11
128.679639
 21
-4.017001
 31
0.0
  0
SPLINE
  5
171
100
AcDbEntity
  8
Layer_1
 62
3
100
AcDbSpline
 70
8
 71
3
 72
8
 73
4
 74
0
 40
0
 40
0
 40
0
 40
0
 40
1
 40
1
 40
1
 40
1
 10
127.540615
 20
-4.797100
 30
0.0
 10
128.340083
 20
-8.617602
 30
0.0
 10
126.249769
 20
-12.472789
 30
0.0
 10
122.614827
 20
-13.889020
 30
0.0
  0
SPLINE
  5
172
100
AcDbEntity
  8
Layer_1
 62
3
100
AcDbSpline
 70
8
 71
3
 72
8
 73
4
 74
0
 40
0
 40
0
 40
0
 40
0
 40
1
 40
1
 40
1
 40
1
 10
122.614827
 20
-13.889020
 30
0.0
 10
122.475471
 20
-13.726709
 30
0.0
 10
122.277264
 20
-13.623537
 30
0.0
 10
122.063618
 20
-13.603389
 30
0.0
  0
LINE
  5
173
100
AcDbEntity
  8
Layer_1
 62
3
100
AcDbLine
 10
122.063618
 20
-13.603389
 30
0.0
 11
121.661625
 21
-12.243921
 31
0.0
  0
SPLINE
  5
174
100
AcDbEntity
  8
Layer_1
 62
3
100
AcDbSpline
 70
8
 71
3
 72
8
 73
4
 74
0
 40
0
 40
0
 40
0
 40
0
 40
1
 40
1
 40
1
 40
1
 10
121.661625
 20
-12.243921
 30
0.0
 10
124.699777
 20
-11.220781
 30
0.0
 10
126.439680
 20
-8.020056
 30
0.0
 10
125.646141
 20
-4.913957
 30
0.0
  0
LINE
  5
175
100
AcDbEntity
  8
Layer_1
 62
3
100
AcDbLine
 10
125.646141
 20
-4.913957
 30
0.0
 11
127.027320
 21
-4.505577
 31
0.0
  0
SPLINE
  5
176
100
AcDbEntity
  8
Layer_1
 62
3
100
AcDbSpline
 70
8
 71
3
 72
8
 73
4
 74
0
 40
0
 40
0
 40
0
 40
0
 40
1
 40
1
 40
1
 40
1
 10
127.027320
 20
-4.505577
 30
0.0
 10
127.156714
 20
-4.662278
 30
0.0
 10
127.340296
 20
-4.766226
 30
0.0
 10
127.540615
 20
-4.797100
 30
0.0
  0
LINE
  5
177
100
AcDbEntity
  8
Layer_1
 62
3
100
AcDbLine
 10
127.540615
 20
-4.797100
 30
0.0
 11
127.540615
 21
-4.797100
 31
0.0
  0
SPLINE
  5
178
100
AcDbEntity
  8
Layer_1
 62
3
100
AcDbSpline
 70
8
 71
3
 72
8
 73
4
 74
0
 40
0
 40
0
 40
0
 40
0
 40
1
 40
1
 40
1
 40
1
 10
118.271650
 20
-5.229341
 30
0.0
 10
118.104008
 20
-5.540615
 30
0.0
 10
117.931536
 20
-5.829801
 30
0.0
 10
117.776822
 20
-6.149449
 30
0.0
  0
LINE
  5
179
100
AcDbEntity
  8
Layer_1
 62
3
100
AcDbLine
 10
117.776822
 20
-6.149449
 30
0.0
 11
120.421006
 21
-7.651983
 31
0.0
  0
LINE
  5
17a
100
AcDbEntity
  8
Layer_1
 62
3
100
AcDbLine
 10
120.421006
 20
-7.651983
 30
0.0
 11
120.429056
 21
-7.682986
 31
0.0
  0
LINE
  5
17b
100
AcDbEntity
  8
Layer_1
 62
3
100
AcDbLine
 10
120.429056
 20
-7.682986
 30
0.0
 11
122.667525
 21
-7.021115
 31
0.0
  0
LINE
  5
17c
100
AcDbEntity
  8
Layer_1
 62
3
100
AcDbLine
 10
122.667525
 20
-7.021115
 30
0.0
 11
119.904937
 21
-6.283467
 31
0.0
  0
LINE
  5
17d
100
AcDbEntity
  8
Layer_1
 62
3
100
AcDbLine
 10
119.904937
 20
-6.283467
 30
0.0
 11
121.820635
 21
-4.179572
 31
0.0
  0
LINE
  5
17e
100
AcDbEntity
  8
Layer_1
 62
3
100
AcDbLine
 10
121.820635
 20
-4.179572
 30
0.0
 11
118.271650
 21
-5.229341
 31
0.0
  0
SPLINE
  5
17f
100
AcDbEntity
  8
Layer_1
 62
3
100
AcDbSpline
 70
8
 71
3
 72
8
 73
4
 74
0
 40
0
 40
0
 40
0
 40
0
 40
1
 40
1
 40
1
 40
1
 10
115.735420
 20
-10.102535
 30
0.0
 10
115.153200
 20
-9.501465
 30
0.0
 10
114.703450
 20
-8.754879
 30
0.0
 10
114.449723
 20
-7.896855
 30
0.0
  0
SPLINE
  5
180
100
AcDbEntity
  8
Layer_1
 62
3
100
AcDbSpline
 70
8
 71
3
 72
8
 73
4
 74
0
 40
0
 40
0
 40
0
 40
0
 40
1
 40
1
 40
1
 40
1
 10
114.449723
 20
-7.896855
 30
0.0
 10
114.196076
 20
-7.038880
 30
0.0
 10
114.167495
 20
-6.167770
 30
0.0
 10
114.329335
 20
-5.346720
 30
0.0
  0
LINE
  5
181
100
AcDbEntity
  8
Layer_1
 62
3
100
AcDbLine
 10
114.329335
 20
-5.346720
 30
0.0
 11
115.735420
 21
-10.102535
 31
0.0
  0
SPLINE
  5
182
100
AcDbEntity
  8
Layer_1
 62
3
100
AcDbSpline
 70
8
 71
3
 72
8
 73
4
 74
0
 40
0
 40
0
 40
0
 40
0
 40
1
 40
1
 40
1
 40
1
 10
124.804958
 20
-7.612717
 30
0.0
 10
124.375189
 20
-9.419358
 30
0.0
 10
123.017124
 20
-10.952485
 30
0.0
 10
121.108862
 20
-11.516709
 30
0.0
  0
SPLINE
  5
183
100
AcDbEntity
  8
Layer_1
 62
3
100
AcDbSpline
 70
8
 71
3
 72
8
 73
4
 74
0
 40
0
 40
0
 40
0
 40
0
 40
1
 40
1
 40
1
 40
1
 10
121.108862
 20
-11.516709
 30
0.0
 10
119.834410
 20
-11.893541
 30
0.0
 10
118.530996
 20
-11.773927
 30
0.0
 10
117.405608
 20
-11.271208
 30
0.0
  0
LINE
  5
184
100
AcDbEntity
  8
Layer_1
 62
3
100
AcDbLine
 10
117.405608
 20
-11.271208
 30
0.0
 11
116.581234
 21
-8.483140
 31
0.0
  0
LINE
  5
185
100
AcDbEntity
  8
Layer_1
 62
3
100
AcDbLine
 10
116.581234
 20
-8.483140
 30
0.0
 11
117.157564
 21
-7.346387
 31
0.0
  0
LINE
  5
186
100
AcDbEntity
  8
Layer_1
 62
3
100
AcDbLine
 10
117.157564
 20
-7.346387
 30
0.0
 11
120.172317
 21
-8.982495
 31
0.0
  0
LINE
  5
187
100
AcDbEntity
  8
Layer_1
 62
3
100
AcDbLine
 10
120.172317
 20
-8.982495
 30
0.0
 11
120.320376
 21
-8.938740
 31
0.0
  0
LINE
  5
188
100
AcDbEntity
  8
Layer_1
 62
3
100
AcDbLine
 10
120.320376
 20
-8.938740
 30
0.0
 11
120.513005
 21
-8.881913
 31
0.0
  0
LINE
  5
189
100
AcDbEntity
  8
Layer_1
 62
3
100
AcDbLine
 10
120.513005
 20
-8.881913
 30
0.0
 11
120.762778
 21
-8.808111
 31
0.0
  0
LINE
  5
18a
100
AcDbEntity
  8
Layer_1
 62
3
100
AcDbLine
 10
120.762778
 20
-8.808111
 30
0.0
 11
124.804958
 21
-7.612717
 31
0.0
  0
SPLINE
  5
18b
100
AcDbEntity
  8
Layer_1
 62
3
100
AcDbSpline
 70
8
 71
3
 72
8
 73
4
 74
0
 40
0
 40
0
 40
0
 40
0
 40
1
 40
1
 40
1
 40
1
 10
124.002581
 20
-3.334867
 30
0.0
 10
124.315716
 20
-3.789154
 30
0.0
 10
124.563752
 20
-4.299809
 30
0.0
 10
124.728693
 20
-4.857604
 30
0.0
  0
SPLINE
  5
18c
100
AcDbEntity
  8
Layer_1
 62
3
100
AcDbSpline
 70
8
 71
3
 72
8
 73
4
 74
0
 40
0
 40
0
 40
0
 40
0
 40
1
 40
1
 40
1
 40
1
 10
124.728693
 20
-4.857604
 30
0.0
 10
124.893625
 20
-5.415428
 30
0.0
 10
124.963116
 20
-5.978821
 30
0.0
 10
124.947455
 20
-6.530382
 30
0.0
  0
LINE
  5
18d
100
AcDbEntity
  8
Layer_1
 62
3
100
AcDbLine
 10
124.947455
 20
-6.530382
 30
0.0
 11
124.931754
 21
-6.476959
 31
0.0
  0
LINE
  5
18e
100
AcDbEntity
  8
Layer_1
 62
3
100
AcDbLine
 10
124.931754
 20
-6.476959
 30
0.0
 11
124.841190
 21
-6.456420
 31
0.0
  0
LINE
  5
18f
100
AcDbEntity
  8
Layer_1
 62
3
100
AcDbLine
 10
124.841190
 20
-6.456420
 30
0.0
 11
122.049001
 21
-5.653182
 31
0.0
  0
LINE
  5
190
100
AcDbEntity
  8
Layer_1
 62
3
100
AcDbLine
 10
122.049001
 20
-5.653182
 30
0.0
 11
123.959997
 21
-3.476256
 31
0.0
  0
LINE
  5
191
100
AcDbEntity
  8
Layer_1
 62
3
100
AcDbLine
 10
123.959997
 20
-3.476256
 30
0.0
 11
124.024714
 21
-3.409801
 31
0.0
  0
LINE
  5
192
100
AcDbEntity
  8
Layer_1
 62
3
100
AcDbLine
 10
124.024714
 20
-3.409801
 30
0.0
 11
124.002581
 21
-3.334867
 31
0.0
  0
SPLINE
  5
193
100
AcDbEntity
  8
Layer_1
 62
3
100
AcDbSpline
 70
8
 71
3
 72
8
 73
4
 74
0
 40
0
 40
0
 40
0
 40
0
 40
1
 40
1
 40
1
 40
1
 10
118.069522
 20
-1.237787
 30
0.0
 10
119.977832
 20
-0.673532
 30
0.0
 10
121.951249
 20
-1.221489
 30
0.0
 10
123.294482
 20
-2.504113
 30
0.0
  0
SPLINE
  5
194
100
AcDbEntity
  8
Layer_1
 62
3
100
AcDbSpline
 70
8
 71
3
 72
8
 73
4
 74
0
 40
0
 40
0
 40
0
 40
0
 40
1
 40
1
 40
1
 40
1
 10
123.294482
 20
-2.504113
 30
0.0
 10
121.280744
 20
-3.102432
 30
0.0
 10
119.275566
 20
-3.729403
 30
0.0
 10
117.260992
 20
-4.325074
 30
0.0
  0
LINE
  5
195
100
AcDbEntity
  8
Layer_1
 62
3
100
AcDbLine
 10
117.260992
 20
-4.325074
 30
0.0
 11
116.055649
 21
-6.705657
 31
0.0
  0
LINE
  5
196
100
AcDbEntity
  8
Layer_1
 62
3
100
AcDbLine
 10
116.055649
 20
-6.705657
 30
0.0
 11
115.095297
 21
-3.457747
 31
0.0
  0
SPLINE
  5
197
100
AcDbEntity
  8
Layer_1
 62
3
100
AcDbSpline
 70
8
 71
3
 72
8
 73
4
 74
0
 40
0
 40
0
 40
0
 40
0
 40
1
 40
1
 40
1
 40
1
 10
115.095297
 20
-3.457747
 30
0.0
 10
115.766240
 20
-2.423786
 30
0.0
 10
116.795086
 20
-1.614653
 30
0.0
 10
118.069522
 20
-1.237787
 30
0.0
  0
LINE
  5
198
100
AcDbEntity
  8
Layer_1
 62
3
100
AcDbLine
 10
118.069522
 20
-1.237787
 30
0.0
 11
118.069522
 21
-1.237787
 31
0.0
  0
LINE
  5
199
100
AcDbEntity
  8
Layer_1
 62
3
100
AcDbLine
 10
131.937016
 20
-8.806222
 30
0.0
 11
131.937016
 21
-3.947891
 31
0.0
  0
LINE
  5
19a
100
AcDbEntity
  8
Layer_1
 62
3
100
AcDbLine
 10
131.937016
 20
-3.947891
 30
0.0
 11
132.851564
 21
-3.947891
 31
0.0
  0
LINE
  5
19b
100
AcDbEntity
  8
Layer_1
 62
3
100
AcDbLine
 10
132.851564
 20
-3.947891
 30
0.0
 11
135.140340
 21
-6.884540
 31
0.0
  0
LINE
  5
19c
100
AcDbEntity
  8
Layer_1
 62
3
100
AcDbLine
 10
135.140340
 20
-6.884540
 30
0.0
 11
137.378913
 21
-3.947891
 31
0.0
  0
LINE
  5
19d
100
AcDbEntity
  8
Layer_1
 62
3
100
AcDbLine
 10
137.378913
 20
-3.947891
 30
0.0
 11
138.284072
 21
-3.947891
 31
0.0
  0
LINE
  5
19e
100
AcDbEntity
  8
Layer_1
 62
3
100
AcDbLine
 10
138.284072
 20
-3.947891
 30
0.0
 11
138.284072
 21
-8.806222
 31
0.0
  0
LINE
  5
19f
100
AcDbEntity
  8
Layer_1
 62
3
100
AcDbLine
 10
138.284072
 20
-8.806222
 30
0.0
 11
137.236169
 21
-8.806222
 31
0.0
  0
LINE
  5
1a0
100
AcDbEntity
  8
Layer_1
 62
3
100
AcDbLine
 10
137.236169
 20
-8.806222
 30
0.0
 11
137.236169
 21
-5.805250
 31
0.0
  0
SPLINE
  5
1a1
100
AcDbEntity
  8
Layer_1
 62
3
100
AcDbSpline
 70
8
 71
3
 72
8
 73
4
 74
0
 40
0
 40
0
 40
0
 40
0
 40
1
 40
1
 40
1
 40
1
 10
137.236169
 20
-5.805250
 30
0.0
 10
137.236169
 20
-5.747236
 30
0.0
 10
137.239357
 20
-5.673471
 30
0.0
 10
137.247168
 20
-5.584052
 30
0.0
  0
SPLINE
  5
1a2
100
AcDbEntity
  8
Layer_1
 62
3
100
AcDbSpline
 70
8
 71
3
 72
8
 73
4
 74
0
 40
0
 40
0
 40
0
 40
0
 40
1
 40
1
 40
1
 40
1
 10
137.247168
 20
-5.584052
 30
0.0
 10
137.255138
 20
-5.494655
 30
0.0
 10
137.265977
 20
-5.395805
 30
0.0
 10
137.276976
 20
-5.285997
 30
0.0
  0
SPLINE
  5
1a3
100
AcDbEntity
  8
Layer_1
 62
3
100
AcDbSpline
 70
8
 71
3
 72
8
 73
4
 74
0
 40
0
 40
0
 40
0
 40
0
 40
1
 40
1
 40
1
 40
1
 10
137.276976
 20
-5.285997
 30
0.0
 10
137.215766
 20
-5.411503
 30
0.0
 10
137.162462
 20
-5.515044
 30
0.0
 10
137.116953
 20
-5.595052
 30
0.0
  0
SPLINE
  5
1a4
100
AcDbEntity
  8
Layer_1
 62
3
100
AcDbSpline
 70
8
 71
3
 72
8
 73
4
 74
0
 40
0
 40
0
 40
0
 40
0
 40
1
 40
1
 40
1
 40
1
 10
137.116953
 20
-5.595052
 30
0.0
 10
137.071524
 20
-5.676622
 30
0.0
 10
137.029115
 20
-5.744076
 30
0.0
 10
136.993043
 20
-5.795832
 30
0.0
  0
LINE
  5
1a5
100
AcDbEntity
  8
Layer_1
 62
3
100
AcDbLine
 10
136.993043
 20
-5.795832
 30
0.0
 11
135.168594
 21
-8.222646
 31
0.0
  0
LINE
  5
1a6
100
AcDbEntity
  8
Layer_1
 62
3
100
AcDbLine
 10
135.168594
 20
-8.222646
 30
0.0
 11
134.942698
 21
-8.222646
 31
0.0
  0
LINE
  5
1a7
100
AcDbEntity
  8
Layer_1
 62
3
100
AcDbLine
 10
134.942698
 20
-8.222646
 30
0.0
 11
133.113579
 21
-5.786437
 31
0.0
  0
SPLINE
  5
1a8
100
AcDbEntity
  8
Layer_1
 62
3
100
AcDbSpline
 70
8
 71
3
 72
8
 73
4
 74
0
 40
0
 40
0
 40
0
 40
0
 40
1
 40
1
 40
1
 40
1
 10
133.113579
 20
-5.786437
 30
0.0
 10
133.046153
 20
-5.693867
 30
0.0
 10
132.988091
 20
-5.607592
 30
0.0
 10
132.941012
 20
-5.526016
 30
0.0
  0
SPLINE
  5
1a9
100
AcDbEntity
  8
Layer_1
 62
3
100
AcDbSpline
 70
8
 71
3
 72
8
 73
4
 74
0
 40
0
 40
0
 40
0
 40
0
 40
1
 40
1
 40
1
 40
1
 10
132.941012
 20
-5.526016
 30
0.0
 10
132.893988
 20
-5.446015
 30
0.0
 10
132.854744
 20
-5.366006
 30
0.0
 10
132.823366
 20
-5.290717
 30
0.0
  0
SPLINE
  5
1aa
100
AcDbEntity
  8
Layer_1
 62
3
100
AcDbSpline
 70
8
 71
3
 72
8
 73
4
 74
0
 40
0
 40
0
 40
0
 40
0
 40
1
 40
1
 40
1
 40
1
 10
132.823366
 20
-5.290717
 30
0.0
 10
132.832770
 20
-5.391114
 30
0.0
 10
132.840581
 20
-5.483662
 30
0.0
 10
132.845363
 20
-5.565239
 30
0.0
  0
SPLINE
  5
1ab
100
AcDbEntity
  8
Layer_1
 62
3
100
AcDbSpline
 70
8
 71
3
 72
8
 73
4
 74
0
 40
0
 40
0
 40
0
 40
0
 40
1
 40
1
 40
1
 40
1
 10
132.845363
 20
-5.565239
 30
0.0
 10
132.849348
 20
-5.648369
 30
0.0
 10
132.851739
 20
-5.728371
 30
0.0
 10
132.851739
 20
-5.805250
 30
0.0
  0
LINE
  5
1ac
100
AcDbEntity
  8
Layer_1
 62
3
100
AcDbLine
 10
132.851739
 20
-5.805250
 30
0.0
 11
132.851739
 21
-8.806222
 31
0.0
  0
LINE
  5
1ad
100
AcDbEntity
  8
Layer_1
 62
3
100
AcDbLine
 10
132.851739
 20
-8.806222
 30
0.0
 11
131.937016
 21
-8.806222
 31
0.0
  0
LINE
  5
1ae
100
AcDbEntity
  8
Layer_1
 62
3
100
AcDbLine
 10
141.524791
 20
-6.867281
 30
0.0
 11
143.651982
 21
-6.867281
 31
0.0
  0
LINE
  5
1af
100
AcDbEntity
  8
Layer_1
 62
3
100
AcDbLine
 10
143.651982
 20
-6.867281
 30
0.0
 11
142.604072
 21
-4.890675
 31
0.0
  0
LINE
  5
1b0
100
AcDbEntity
  8
Layer_1
 62
3
100
AcDbLine
 10
142.604072
 20
-4.890675
 30
0.0
 11
141.524791
 21
-6.867281
 31
0.0
  0
LINE
  5
1b1
100
AcDbEntity
  8
Layer_1
 62
3
100
AcDbLine
 10
139.350529
 20
-8.806222
 30
0.0
 11
142.098930
 21
-3.947891
 31
0.0
  0
LINE
  5
1b2
100
AcDbEntity
  8
Layer_1
 62
3
100
AcDbLine
 10
142.098930
 20
-3.947891
 30
0.0
 11
143.187615
 21
-3.947891
 31
0.0
  0
LINE
  5
1b3
100
AcDbEntity
  8
Layer_1
 62
3
100
AcDbLine
 10
143.187615
 20
-3.947891
 30
0.0
 11
145.973683
 21
-8.806222
 31
0.0
  0
LINE
  5
1b4
100
AcDbEntity
  8
Layer_1
 62
3
100
AcDbLine
 10
145.973683
 20
-8.806222
 30
0.0
 11
144.704587
 21
-8.806222
 31
0.0
  0
LINE
  5
1b5
100
AcDbEntity
  8
Layer_1
 62
3
100
AcDbLine
 10
144.704587
 20
-8.806222
 30
0.0
 11
144.121012
 21
-7.745766
 31
0.0
  0
LINE
  5
1b6
100
AcDbEntity
  8
Layer_1
 62
3
100
AcDbLine
 10
144.121012
 20
-7.745766
 30
0.0
 11
141.041614
 21
-7.745766
 31
0.0
  0
LINE
  5
1b7
100
AcDbEntity
  8
Layer_1
 62
3
100
AcDbLine
 10
141.041614
 20
-7.745766
 30
0.0
 11
140.476896
 21
-8.806222
 31
0.0
  0
LINE
  5
1b8
100
AcDbEntity
  8
Layer_1
 62
3
100
AcDbLine
 10
140.476896
 20
-8.806222
 30
0.0
 11
139.350529
 21
-8.806222
 31
0.0
  0
LINE
  5
1b9
100
AcDbEntity
  8
Layer_1
 62
3
100
AcDbLine
 10
147.154677
 20
-8.806222
 30
0.0
 11
147.154677
 21
-3.947891
 31
0.0
  0
LINE
  5
1ba
100
AcDbEntity
  8
Layer_1
 62
3
100
AcDbLine
 10
147.154677
 20
-3.947891
 30
0.0
 11
148.295128
 21
-3.947891
 31
0.0
  0
LINE
  5
1bb
100
AcDbEntity
  8
Layer_1
 62
3
100
AcDbLine
 10
148.295128
 20
-3.947891
 30
0.0
 11
148.295128
 21
-5.974677
 31
0.0
  0
LINE
  5
1bc
100
AcDbEntity
  8
Layer_1
 62
3
100
AcDbLine
 10
148.295128
 20
-5.974677
 30
0.0
 11
150.988616
 21
-3.947891
 31
0.0
  0
LINE
  5
1bd
100
AcDbEntity
  8
Layer_1
 62
3
100
AcDbLine
 10
150.988616
 20
-3.947891
 30
0.0
 11
152.624812
 21
-3.947891
 31
0.0
  0
LINE
  5
1be
100
AcDbEntity
  8
Layer_1
 62
3
100
AcDbLine
 10
152.624812
 20
-3.947891
 30
0.0
 11
149.407333
 21
-6.236659
 31
0.0
  0
LINE
  5
1bf
100
AcDbEntity
  8
Layer_1
 62
3
100
AcDbLine
 10
149.407333
 20
-6.236659
 30
0.0
 11
153.020134
 21
-8.806222
 31
0.0
  0
LINE
  5
1c0
100
AcDbEntity
  8
Layer_1
 62
3
100
AcDbLine
 10
153.020134
 20
-8.806222
 30
0.0
 11
151.205122
 21
-8.806222
 31
0.0
  0
LINE
  5
1c1
100
AcDbEntity
  8
Layer_1
 62
3
100
AcDbLine
 10
151.205122
 20
-8.806222
 30
0.0
 11
148.295128
 21
-6.669615
 31
0.0
  0
LINE
  5
1c2
100
AcDbEntity
  8
Layer_1
 62
3
100
AcDbLine
 10
148.295128
 20
-6.669615
 30
0.0
 11
148.295128
 21
-8.806222
 31
0.0
  0
LINE
  5
1c3
100
AcDbEntity
  8
Layer_1
 62
3
100
AcDbLine
 10
148.295128
 20
-8.806222
 30
0.0
 11
147.154677
 21
-8.806222
 31
0.0
  0
LINE
  5
1c4
100
AcDbEntity
  8
Layer_1
 62
3
100
AcDbLine
 10
154.246598
 20
-8.806222
 30
0.0
 11
154.246598
 21
-3.947891
 31
0.0
  0
LINE
  5
1c5
100
AcDbEntity
  8
Layer_1
 62
3
100
AcDbLine
 10
154.246598
 20
-3.947891
 30
0.0
 11
159.221011
 21
-3.947891
 31
0.0
  0
LINE
  5
1c6
100
AcDbEntity
  8
Layer_1
 62
3
100
AcDbLine
 10
159.221011
 20
-3.947891
 30
0.0
 11
159.221011
 21
-4.774587
 31
0.0
  0
LINE
  5
1c7
100
AcDbEntity
  8
Layer_1
 62
3
100
AcDbLine
 10
159.221011
 20
-4.774587
 30
0.0
 11
155.377636
 21
-4.774587
 31
0.0
  0
LINE
  5
1c8
100
AcDbEntity
  8
Layer_1
 62
3
100
AcDbLine
 10
155.377636
 20
-4.774587
 30
0.0
 11
155.377636
 21
-5.860143
 31
0.0
  0
LINE
  5
1c9
100
AcDbEntity
  8
Layer_1
 62
3
100
AcDbLine
 10
155.377636
 20
-5.860143
 30
0.0
 11
157.620903
 21
-5.860143
 31
0.0
  0
LINE
  5
1ca
100
AcDbEntity
  8
Layer_1
 62
3
100
AcDbLine
 10
157.620903
 20
-5.860143
 30
0.0
 11
157.620903
 21
-6.686882
 31
0.0
  0
LINE
  5
1cb
100
AcDbEntity
  8
Layer_1
 62
3
100
AcDbLine
 10
157.620903
 20
-6.686882
 30
0.0
 11
155.377636
 21
-6.686882
 31
0.0
  0
LINE
  5
1cc
100
AcDbEntity
  8
Layer_1
 62
3
100
AcDbLine
 10
155.377636
 20
-6.686882
 30
0.0
 11
155.377636
 21
-7.891666
 31
0.0
  0
LINE
  5
1cd
100
AcDbEntity
  8
Layer_1
 62
3
100
AcDbLine
 10
155.377636
 20
-7.891666
 30
0.0
 11
159.266512
 21
-7.891666
 31
0.0
  0
LINE
  5
1ce
100
AcDbEntity
  8
Layer_1
 62
3
100
AcDbLine
 10
159.266512
 20
-7.891666
 30
0.0
 11
159.266512
 21
-8.806222
 31
0.0
  0
LINE
  5
1cf
100
AcDbEntity
  8
Layer_1
 62
3
100
AcDbLine
 10
159.266512
 20
-8.806222
 30
0.0
 11
154.246598
 21
-8.806222
 31
0.0
  0
LINE
  5
1d0
100
AcDbEntity
  8
Layer_1
 62
3
100
AcDbLine
 10
164.625010
 20
-4.788709
 30
0.0
 11
162.082101
 21
-4.788709
 31
0.0
  0
LINE
  5
1d1
100
AcDbEntity
  8
Layer_1
 62
3
100
AcDbLine
 10
162.082101
 20
-4.788709
 30
0.0
 11
162.082101
 21
-6.140967
 31
0.0
  0
LINE
  5
1d2
100
AcDbEntity
  8
Layer_1
 62
3
100
AcDbLine
 10
162.082101
 20
-6.140967
 30
0.0
 11
164.625010
 21
-6.140967
 31
0.0
  0
SPLINE
  5
1d3
100
AcDbEntity
  8
Layer_1
 62
3
100
AcDbSpline
 70
8
 71
3
 72
8
 73
4
 74
0
 40
0
 40
0
 40
0
 40
0
 40
1
 40
1
 40
1
 40
1
 10
164.625010
 20
-6.140967
 30
0.0
 10
164.821097
 20
-6.140967
 30
0.0
 10
164.954436
 20
-6.112722
 30
0.0
 10
165.026597
 20
-6.056232
 30
0.0
  0
SPLINE
  5
1d4
100
AcDbEntity
  8
Layer_1
 62
3
100
AcDbSpline
 70
8
 71
3
 72
8
 73
4
 74
0
 40
0
 40
0
 40
0
 40
0
 40
1
 40
1
 40
1
 40
1
 10
165.026597
 20
-6.056232
 30
0.0
 10
165.098806
 20
-5.999812
 30
0.0
 10
165.134846
 20
-5.899374
 30
0.0
 10
165.134846
 20
-5.755055
 30
0.0
  0
LINE
  5
1d5
100
AcDbEntity
  8
Layer_1
 62
3
100
AcDbLine
 10
165.134846
 20
-5.755055
 30
0.0
 11
165.134846
 21
-5.169910
 31
0.0
  0
SPLINE
  5
1d6
100
AcDbEntity
  8
Layer_1
 62
3
100
AcDbSpline
 70
8
 71
3
 72
8
 73
4
 74
0
 40
0
 40
0
 40
0
 40
0
 40
1
 40
1
 40
1
 40
1
 10
165.134846
 20
-5.169910
 30
0.0
 10
165.134846
 20
-5.028742
 30
0.0
 10
165.098742
 20
-4.929899
 30
0.0
 10
165.026597
 20
-4.873430
 30
0.0
  0
SPLINE
  5
1d7
100
AcDbEntity
  8
Layer_1
 62
3
100
AcDbSpline
 70
8
 71
3
 72
8
 73
4
 74
0
 40
0
 40
0
 40
0
 40
0
 40
1
 40
1
 40
1
 40
1
 10
165.026597
 20
-4.873430
 30
0.0
 10
164.954388
 20
-4.816938
 30
0.0
 10
164.821097
 20
-4.788709
 30
0.0
 10
164.625010
 20
-4.788709
 30
0.0
  0
LINE
  5
1d8
100
AcDbEntity
  8
Layer_1
 62
3
100
AcDbLine
 10
164.625010
 20
-4.788709
 30
0.0
 11
164.625010
 21
-4.788709
 31
0.0
  0
LINE
  5
1d9
100
AcDbEntity
  8
Layer_1
 62
3
100
AcDbLine
 10
160.969880
 20
-8.806222
 30
0.0
 11
160.969880
 21
-3.947891
 31
0.0
  0
LINE
  5
1da
100
AcDbEntity
  8
Layer_1
 62
3
100
AcDbLine
 10
160.969880
 20
-3.947891
 30
0.0
 11
165.125426
 21
-3.947891
 31
0.0
  0
SPLINE
  5
1db
100
AcDbEntity
  8
Layer_1
 62
3
100
AcDbSpline
 70
8
 71
3
 72
8
 73
4
 74
0
 40
0
 40
0
 40
0
 40
0
 40
1
 40
1
 40
1
 40
1
 10
165.125426
 20
-3.947891
 30
0.0
 10
165.511320
 20
-3.947891
 30
0.0
 10
165.790567
 20
-4.021622
 30
0.0
 10
165.964688
 20
-4.170636
 30
0.0
  0
SPLINE
  5
1dc
100
AcDbEntity
  8
Layer_1
 62
3
100
AcDbSpline
 70
8
 71
3
 72
8
 73
4
 74
0
 40
0
 40
0
 40
0
 40
0
 40
1
 40
1
 40
1
 40
1
 10
165.964688
 20
-4.170636
 30
0.0
 10
166.137240
 20
-4.319673
 30
0.0
 10
166.223540
 20
-4.559684
 30
0.0
 10
166.223540
 20
-4.889128
 30
0.0
  0
LINE
  5
1dd
100
AcDbEntity
  8
Layer_1
 62
3
100
AcDbLine
 10
166.223540
 20
-4.889128
 30
0.0
 11
166.223540
 21
-6.031153
 31
0.0
  0
SPLINE
  5
1de
100
AcDbEntity
  8
Layer_1
 62
3
100
AcDbSpline
 70
8
 71
3
 72
8
 73
4
 74
0
 40
0
 40
0
 40
0
 40
0
 40
1
 40
1
 40
1
 40
1
 10
166.223540
 20
-6.031153
 30
0.0
 10
166.223540
 20
-6.359014
 30
0.0
 10
166.137240
 20
-6.597456
 30
0.0
 10
165.964688
 20
-6.746495
 30
0.0
  0
SPLINE
  5
1df
100
AcDbEntity
  8
Layer_1
 62
3
100
AcDbSpline
 70
8
 71
3
 72
8
 73
4
 74
0
 40
0
 40
0
 40
0
 40
0
 40
1
 40
1
 40
1
 40
1
 10
165.964688
 20
-6.746495
 30
0.0
 10
165.790567
 20
-6.897079
 30
0.0
 10
165.511320
 20
-6.972390
 30
0.0
 10
165.125426
 20
-6.972390
 30
0.0
  0
LINE
  5
1e0
100
AcDbEntity
  8
Layer_1
 62
3
100
AcDbLine
 10
165.125426
 20
-6.972390
 30
0.0
 11
164.491647
 21
-6.972390
 31
0.0
  0
LINE
  5
1e1
100
AcDbEntity
  8
Layer_1
 62
3
100
AcDbLine
 10
164.491647
 20
-6.972390
 30
0.0
 11
166.733368
 21
-8.806222
 31
0.0
  0
LINE
  5
1e2
100
AcDbEntity
  8
Layer_1
 62
3
100
AcDbLine
 10
166.733368
 20
-8.806222
 30
0.0
 11
165.111303
 21
-8.806222
 31
0.0
  0
LINE
  5
1e3
100
AcDbEntity
  8
Layer_1
 62
3
100
AcDbLine
 10
165.111303
 20
-8.806222
 30
0.0
 11
163.153547
 21
-6.972390
 31
0.0
  0
LINE
  5
1e4
100
AcDbEntity
  8
Layer_1
 62
3
100
AcDbLine
 10
163.153547
 20
-6.972390
 30
0.0
 11
162.082101
 21
-6.972390
 31
0.0
  0
LINE
  5
1e5
100
AcDbEntity
  8
Layer_1
 62
3
100
AcDbLine
 10
162.082101
 20
-6.972390
 30
0.0
 11
162.082101
 21
-8.806222
 31
0.0
  0
LINE
  5
1e6
100
AcDbEntity
  8
Layer_1
 62
3
100
AcDbLine
 10
162.082101
 20
-8.806222
 30
0.0
 11
160.969880
 21
-8.806222
 31
0.0
  0
LINE
  5
1e7
100
AcDbEntity
  8
Layer_1
 62
3
100
AcDbLine
 10
172.344421
 20
-4.798127
 30
0.0
 11
169.164617
 21
-4.798127
 31
0.0
  0
LINE
  5
1e8
100
AcDbEntity
  8
Layer_1
 62
3
100
AcDbLine
 10
169.164617
 20
-4.798127
 30
0.0
 11
169.164617
 21
-5.841337
 31
0.0
  0
LINE
  5
1e9
100
AcDbEntity
  8
Layer_1
 62
3
100
AcDbLine
 10
169.164617
 20
-5.841337
 30
0.0
 11
172.192257
 21
-5.841337
 31
0.0
  0
SPLINE
  5
1ea
100
AcDbEntity
  8
Layer_1
 62
3
100
AcDbSpline
 70
8
 71
3
 72
8
 73
4
 74
0
 40
0
 40
0
 40
0
 40
0
 40
1
 40
1
 40
1
 40
1
 10
172.192257
 20
-5.841337
 30
0.0
 10
172.667591
 20
-5.841337
 30
0.0
 10
172.989151
 20
-5.922914
 30
0.0
 10
173.155462
 20
-6.084492
 30
0.0
  0
SPLINE
  5
1eb
100
AcDbEntity
  8
Layer_1
 62
3
100
AcDbSpline
 70
8
 71
3
 72
8
 73
4
 74
0
 40
0
 40
0
 40
0
 40
0
 40
1
 40
1
 40
1
 40
1
 10
173.155462
 20
-6.084492
 30
0.0
 10
173.323319
 20
-6.247631
 30
0.0
 10
173.406447
 20
-6.548822
 30
0.0
 10
173.406447
 20
-6.991196
 30
0.0
  0
LINE
  5
1ec
100
AcDbEntity
  8
Layer_1
 62
3
100
AcDbLine
 10
173.406447
 20
-6.991196
 30
0.0
 11
173.406447
 21
-7.657928
 31
0.0
  0
SPLINE
  5
1ed
100
AcDbEntity
  8
Layer_1
 62
3
100
AcDbSpline
 70
8
 71
3
 72
8
 73
4
 74
0
 40
0
 40
0
 40
0
 40
0
 40
1
 40
1
 40
1
 40
1
 10
173.406447
 20
-7.657928
 30
0.0
 10
173.406447
 20
-8.098728
 30
0.0
 10
173.323319
 20
-8.399924
 30
0.0
 10
173.155462
 20
-8.563055
 30
0.0
  0
SPLINE
  5
1ee
100
AcDbEntity
  8
Layer_1
 62
3
100
AcDbSpline
 70
8
 71
3
 72
8
 73
4
 74
0
 40
0
 40
0
 40
0
 40
0
 40
1
 40
1
 40
1
 40
1
 10
173.155462
 20
-8.563055
 30
0.0
 10
172.989151
 20
-8.724648
 30
0.0
 10
172.667591
 20
-8.806222
 30
0.0
 10
172.192257
 20
-8.806222
 30
0.0
  0
LINE
  5
1ef
100
AcDbEntity
  8
Layer_1
 62
3
100
AcDbLine
 10
172.192257
 20
-8.806222
 30
0.0
 11
169.192863
 21
-8.806222
 31
0.0
  0
SPLINE
  5
1f0
100
AcDbEntity
  8
Layer_1
 62
3
100
AcDbSpline
 70
8
 71
3
 72
8
 73
4
 74
0
 40
0
 40
0
 40
0
 40
0
 40
1
 40
1
 40
1
 40
1
 10
169.192863
 20
-8.806222
 30
0.0
 10
168.717545
 20
-8.806222
 30
0.0
 10
168.395953
 20
-8.724648
 30
0.0
 10
168.229666
 20
-8.563055
 30
0.0
  0
SPLINE
  5
1f1
100
AcDbEntity
  8
Layer_1
 62
3
100
AcDbSpline
 70
8
 71
3
 72
8
 73
4
 74
0
 40
0
 40
0
 40
0
 40
0
 40
1
 40
1
 40
1
 40
1
 10
168.229666
 20
-8.563055
 30
0.0
 10
168.061809
 20
-8.399924
 30
0.0
 10
167.978657
 20
-8.098728
 30
0.0
 10
167.978657
 20
-7.657928
 30
0.0
  0
LINE
  5
1f2
100
AcDbEntity
  8
Layer_1
 62
3
100
AcDbLine
 10
167.978657
 20
-7.657928
 30
0.0
 11
167.978657
 21
-7.524578
 31
0.0
  0
LINE
  5
1f3
100
AcDbEntity
  8
Layer_1
 62
3
100
AcDbLine
 10
167.978657
 20
-7.524578
 30
0.0
 11
168.976364
 21
-7.317488
 31
0.0
  0
LINE
  5
1f4
100
AcDbEntity
  8
Layer_1
 62
3
100
AcDbLine
 10
168.976364
 20
-7.317488
 30
0.0
 11
168.976364
 21
-7.891666
 31
0.0
  0
LINE
  5
1f5
100
AcDbEntity
  8
Layer_1
 62
3
100
AcDbLine
 10
168.976364
 20
-7.891666
 30
0.0
 11
172.408732
 21
-7.891666
 31
0.0
  0
LINE
  5
1f6
100
AcDbEntity
  8
Layer_1
 62
3
100
AcDbLine
 10
172.408732
 20
-7.891666
 30
0.0
 11
172.408732
 21
-6.784143
 31
0.0
  0
LINE
  5
1f7
100
AcDbEntity
  8
Layer_1
 62
3
100
AcDbLine
 10
172.408732
 20
-6.784143
 30
0.0
 11
169.381115
 21
-6.784143
 31
0.0
  0
SPLINE
  5
1f8
100
AcDbEntity
  8
Layer_1
 62
3
100
AcDbSpline
 70
8
 71
3
 72
8
 73
4
 74
0
 40
0
 40
0
 40
0
 40
0
 40
1
 40
1
 40
1
 40
1
 10
169.381115
 20
-6.784143
 30
0.0
 10
168.908930
 20
-6.784143
 30
0.0
 10
168.590462
 20
-6.702566
 30
0.0
 10
168.424183
 20
-6.540988
 30
0.0
  0
SPLINE
  5
1f9
100
AcDbEntity
  8
Layer_1
 62
3
100
AcDbSpline
 70
8
 71
3
 72
8
 73
4
 74
0
 40
0
 40
0
 40
0
 40
0
 40
1
 40
1
 40
1
 40
1
 10
168.424183
 20
-6.540988
 30
0.0
 10
168.259474
 20
-6.377827
 30
0.0
 10
168.176322
 20
-6.076643
 30
0.0
 10
168.176322
 20
-5.634255
 30
0.0
  0
LINE
  5
1fa
100
AcDbEntity
  8
Layer_1
 62
3
100
AcDbLine
 10
168.176322
 20
-5.634255
 30
0.0
 11
168.176322
 21
-5.097750
 31
0.0
  0
SPLINE
  5
1fb
100
AcDbEntity
  8
Layer_1
 62
3
100
AcDbSpline
 70
8
 71
3
 72
8
 73
4
 74
0
 40
0
 40
0
 40
0
 40
0
 40
1
 40
1
 40
1
 40
1
 10
168.176322
 20
-5.097750
 30
0.0
 10
168.176322
 20
-4.655377
 30
0.0
 10
168.259474
 20
-4.354185
 30
0.0
 10
168.424183
 20
-4.191046
 30
0.0
  0
SPLINE
  5
1fc
100
AcDbEntity
  8
Layer_1
 62
3
100
AcDbSpline
 70
8
 71
3
 72
8
 73
4
 74
0
 40
0
 40
0
 40
0
 40
0
 40
1
 40
1
 40
1
 40
1
 10
168.424183
 20
-4.191046
 30
0.0
 10
168.590462
 20
-4.029468
 30
0.0
 10
168.908930
 20
-3.947891
 30
0.0
 10
169.381115
 20
-3.947891
 30
0.0
  0
LINE
  5
1fd
100
AcDbEntity
  8
Layer_1
 62
3
100
AcDbLine
 10
169.381115
 20
-3.947891
 30
0.0
 11
172.137343
 21
-3.947891
 31
0.0
  0
SPLINE
  5
1fe
100
AcDbEntity
  8
Layer_1
 62
3
100
AcDbSpline
 70
8
 71
3
 72
8
 73
4
 74
0
 40
0
 40
0
 40
0
 40
0
 40
1
 40
1
 40
1
 40
1
 10
172.137343
 20
-3.947891
 30
0.0
 10
172.593852
 20
-3.947891
 30
0.0
 10
172.909155
 20
-4.026324
 30
0.0
 10
173.081731
 20
-4.181629
 30
0.0
  0
SPLINE
  5
1ff
100
AcDbEntity
  8
Layer_1
 62
3
100
AcDbSpline
 70
8
 71
3
 72
8
 73
4
 74
0
 40
0
 40
0
 40
0
 40
0
 40
1
 40
1
 40
1
 40
1
 10
173.081731
 20
-4.181629
 30
0.0
 10
173.255853
 20
-4.338486
 30
0.0
 10
173.342136
 20
-4.616160
 30
0.0
 10
173.342136
 20
-5.014604
 30
0.0
  0
LINE
  5
200
100
AcDbEntity
  8
Layer_1
 62
3
100
AcDbLine
 10
173.342136
 20
-5.014604
 30
0.0
 11
173.342136
 21
-5.115024
 31
0.0
  0
LINE
  5
201
100
AcDbEntity
  8
Layer_1
 62
3
100
AcDbLine
 10
173.342136
 20
-5.115024
 30
0.0
 11
172.344421
 21
-5.350308
 31
0.0
  0
LINE
  5
202
100
AcDbEntity
  8
Layer_1
 62
3
100
AcDbLine
 10
172.344421
 20
-5.350308
 30
0.0
 11
172.344421
 21
-4.798127
 31
0.0
  0
LINE
  5
203
100
AcDbEntity
  8
Layer_1
 62
3
100
AcDbLine
 10
179.023780
 20
-4.788690
 30
0.0
 11
176.480879
 21
-4.788690
 31
0.0
  0
LINE
  5
204
100
AcDbEntity
  8
Layer_1
 62
3
100
AcDbLine
 10
176.480879
 20
-4.788690
 30
0.0
 11
176.480879
 21
-6.076623
 31
0.0
  0
LINE
  5
205
100
AcDbEntity
  8
Layer_1
 62
3
100
AcDbLine
 10
176.480879
 20
-6.076623
 30
0.0
 11
179.023780
 21
-6.076623
 31
0.0
  0
SPLINE
  5
206
100
AcDbEntity
  8
Layer_1
 62
3
100
AcDbSpline
 70
8
 71
3
 72
8
 73
4
 74
0
 40
0
 40
0
 40
0
 40
0
 40
1
 40
1
 40
1
 40
1
 10
179.023780
 20
-6.076623
 30
0.0
 10
179.219867
 20
-6.076623
 30
0.0
 10
179.353214
 20
-6.048449
 30
0.0
 10
179.425383
 20
-5.991903
 30
0.0
  0
SPLINE
  5
207
100
AcDbEntity
  8
Layer_1
 62
3
100
AcDbSpline
 70
8
 71
3
 72
8
 73
4
 74
0
 40
0
 40
0
 40
0
 40
0
 40
1
 40
1
 40
1
 40
1
 10
179.425383
 20
-5.991903
 30
0.0
 10
179.497592
 20
-5.935411
 30
0.0
 10
179.533616
 20
-5.835044
 30
0.0
 10
179.533616
 20
-5.690726
 30
0.0
  0
LINE
  5
208
100
AcDbEntity
  8
Layer_1
 62
3
100
AcDbLine
 10
179.533616
 20
-5.690726
 30
0.0
 11
179.533616
 21
-5.169890
 31
0.0
  0
SPLINE
  5
209
100
AcDbEntity
  8
Layer_1
 62
3
100
AcDbSpline
 70
8
 71
3
 72
8
 73
4
 74
0
 40
0
 40
0
 40
0
 40
0
 40
1
 40
1
 40
1
 40
1
 10
179.533616
 20
-5.169890
 30
0.0
 10
179.533616
 20
-5.028723
 30
0.0
 10
179.497512
 20
-4.929887
 30
0.0
 10
179.425383
 20
-4.873411
 30
0.0
  0
SPLINE
  5
20a
100
AcDbEntity
  8
Layer_1
 62
3
100
AcDbSpline
 70
8
 71
3
 72
8
 73
4
 74
0
 40
0
 40
0
 40
0
 40
0
 40
1
 40
1
 40
1
 40
1
 10
179.425383
 20
-4.873411
 30
0.0
 10
179.353254
 20
-4.816919
 30
0.0
 10
179.219867
 20
-4.788690
 30
0.0
 10
179.023780
 20
-4.788690
 30
0.0
  0
LINE
  5
20b
100
AcDbEntity
  8
Layer_1
 62
3
100
AcDbLine
 10
179.023780
 20
-4.788690
 30
0.0
 11
179.023780
 21
-4.788690
 31
0.0
  0
LINE
  5
20c
100
AcDbEntity
  8
Layer_1
 62
3
100
AcDbLine
 10
175.368666
 20
-8.806198
 30
0.0
 11
175.368666
 21
-3.947872
 31
0.0
  0
LINE
  5
20d
100
AcDbEntity
  8
Layer_1
 62
3
100
AcDbLine
 10
175.368666
 20
-3.947872
 30
0.0
 11
179.524196
 21
-3.947872
 31
0.0
  0
SPLINE
  5
20e
100
AcDbEntity
  8
Layer_1
 62
3
100
AcDbSpline
 70
8
 71
3
 72
8
 73
4
 74
0
 40
0
 40
0
 40
0
 40
0
 40
1
 40
1
 40
1
 40
1
 10
179.524196
 20
-3.947872
 30
0.0
 10
179.910106
 20
-3.947872
 30
0.0
 10
180.189337
 20
-4.021595
 30
0.0
 10
180.363466
 20
-4.170616
 30
0.0
  0
SPLINE
  5
20f
100
AcDbEntity
  8
Layer_1
 62
3
100
AcDbSpline
 70
8
 71
3
 72
8
 73
4
 74
0
 40
0
 40
0
 40
0
 40
0
 40
1
 40
1
 40
1
 40
1
 10
180.363466
 20
-4.170616
 30
0.0
 10
180.536026
 20
-4.319654
 30
0.0
 10
180.622318
 20
-4.559665
 30
0.0
 10
180.622318
 20
-4.889102
 30
0.0
  0
LINE
  5
210
100
AcDbEntity
  8
Layer_1
 62
3
100
AcDbLine
 10
180.622318
 20
-4.889102
 30
0.0
 11
180.622318
 21
-5.974658
 31
0.0
  0
SPLINE
  5
211
100
AcDbEntity
  8
Layer_1
 62
3
100
AcDbSpline
 70
8
 71
3
 72
8
 73
4
 74
0
 40
0
 40
0
 40
0
 40
0
 40
1
 40
1
 40
1
 40
1
 10
180.622318
 20
-5.974658
 30
0.0
 10
180.622318
 20
-6.302526
 30
0.0
 10
180.536026
 20
-6.540968
 30
0.0
 10
180.363466
 20
-6.689977
 30
0.0
  0
SPLINE
  5
212
100
AcDbEntity
  8
Layer_1
 62
3
100
AcDbSpline
 70
8
 71
3
 72
8
 73
4
 74
0
 40
0
 40
0
 40
0
 40
0
 40
1
 40
1
 40
1
 40
1
 10
180.363466
 20
-6.689977
 30
0.0
 10
180.189337
 20
-6.839016
 30
0.0
 10
179.910106
 20
-6.912744
 30
0.0
 10
179.524196
 20
-6.912744
 30
0.0
  0
LINE
  5
213
100
AcDbEntity
  8
Layer_1
 62
3
100
AcDbLine
 10
179.524196
 20
-6.912744
 30
0.0
 11
176.480879
 21
-6.912744
 31
0.0
  0
LINE
  5
214
100
AcDbEntity
  8
Layer_1
 62
3
100
AcDbLine
 10
176.480879
 20
-6.912744
 30
0.0
 11
176.480879
 21
-8.806198
 31
0.0
  0
LINE
  5
215
100
AcDbEntity
  8
Layer_1
 62
3
100
AcDbLine
 10
176.480879
 20
-8.806198
 30
0.0
 11
175.368666
 21
-8.806198
 31
0.0
  0
LINE
  5
216
100
AcDbEntity
  8
Layer_1
 62
3
100
AcDbLine
 10
182.713174
 20
-6.867254
 30
0.0
 11
184.840365
 21
-6.867254
 31
0.0
  0
LINE
  5
217
100
AcDbEntity
  8
Layer_1
 62
3
100
AcDbLine
 10
184.840365
 20
-6.867254
 30
0.0
 11
183.792462
 21
-4.890656
 31
0.0
  0
LINE
  5
218
100
AcDbEntity
  8
Layer_1
 62
3
100
AcDbLine
 10
183.792462
 20
-4.890656
 30
0.0
 11
182.713174
 21
-6.867254
 31
0.0
  0
LINE
  5
219
100
AcDbEntity
  8
Layer_1
 62
3
100
AcDbLine
 10
180.538911
 20
-8.806198
 30
0.0
 11
183.287320
 21
-3.947872
 31
0.0
  0
LINE
  5
21a
100
AcDbEntity
  8
Layer_1
 62
3
100
AcDbLine
 10
183.287320
 20
-3.947872
 30
0.0
 11
184.376006
 21
-3.947872
 31
0.0
  0
LINE
  5
21b
100
AcDbEntity
  8
Layer_1
 62
3
100
AcDbLine
 10
184.376006
 20
-3.947872
 30
0.0
 11
187.162057
 21
-8.806198
 31
0.0
  0
LINE
  5
21c
100
AcDbEntity
  8
Layer_1
 62
3
100
AcDbLine
 10
187.162057
 20
-8.806198
 30
0.0
 11
185.892962
 21
-8.806198
 31
0.0
  0
LINE
  5
21d
100
AcDbEntity
  8
Layer_1
 62
3
100
AcDbLine
 10
185.892962
 20
-8.806198
 30
0.0
 11
185.309395
 21
-7.745742
 31
0.0
  0
LINE
  5
21e
100
AcDbEntity
  8
Layer_1
 62
3
100
AcDbLine
 10
185.309395
 20
-7.745742
 30
0.0
 11
182.229997
 21
-7.745742
 31
0.0
  0
LINE
  5
21f
100
AcDbEntity
  8
Layer_1
 62
3
100
AcDbLine
 10
182.229997
 20
-7.745742
 30
0.0
 11
181.665255
 21
-8.806198
 31
0.0
  0
LINE
  5
220
100
AcDbEntity
  8
Layer_1
 62
3
100
AcDbLine
 10
181.665255
 20
-8.806198
 30
0.0
 11
180.538911
 21
-8.806198
 31
0.0
  0
LINE
  5
221
100
AcDbEntity
  8
Layer_1
 62
3
100
AcDbLine
 10
192.255455
 20
-4.816942
 30
0.0
 11
189.208990
 21
-4.816942
 31
0.0
  0
LINE
  5
222
100
AcDbEntity
  8
Layer_1
 62
3
100
AcDbLine
 10
189.208990
 20
-4.816942
 30
0.0
 11
189.208990
 21
-7.891634
 31
0.0
  0
LINE
  5
223
100
AcDbEntity
  8
Layer_1
 62
3
100
AcDbLine
 10
189.208990
 20
-7.891634
 30
0.0
 11
192.255455
 21
-7.891634
 31
0.0
  0
LINE
  5
224
100
AcDbEntity
  8
Layer_1
 62
3
100
AcDbLine
 10
192.255455
 20
-7.891634
 30
0.0
 11
192.255455
 21
-6.848440
 31
0.0
  0
LINE
  5
225
100
AcDbEntity
  8
Layer_1
 62
3
100
AcDbLine
 10
192.255455
 20
-6.848440
 30
0.0
 11
193.386502
 21
-7.082185
 31
0.0
  0
LINE
  5
226
100
AcDbEntity
  8
Layer_1
 62
3
100
AcDbLine
 10
193.386502
 20
-7.082185
 30
0.0
 11
193.386502
 21
-7.657904
 31
0.0
  0
SPLINE
  5
227
100
AcDbEntity
  8
Layer_1
 62
3
100
AcDbSpline
 70
8
 71
3
 72
8
 73
4
 74
0
 40
0
 40
0
 40
0
 40
0
 40
1
 40
1
 40
1
 40
1
 10
193.386502
 20
-7.657904
 30
0.0
 10
193.386502
 20
-8.101844
 30
0.0
 10
193.303350
 20
-8.404603
 30
0.0
 10
193.135509
 20
-8.564610
 30
0.0
  0
SPLINE
  5
228
100
AcDbEntity
  8
Layer_1
 62
3
100
AcDbSpline
 70
8
 71
3
 72
8
 73
4
 74
0
 40
0
 40
0
 40
0
 40
0
 40
1
 40
1
 40
1
 40
1
 10
193.135509
 20
-8.564610
 30
0.0
 10
192.969221
 20
-8.726194
 30
0.0
 10
192.650778
 20
-8.806198
 30
0.0
 10
192.181716
 20
-8.806198
 30
0.0
  0
LINE
  5
229
100
AcDbEntity
  8
Layer_1
 62
3
100
AcDbLine
 10
192.181716
 20
-8.806198
 30
0.0
 11
189.282721
 21
-8.806198
 31
0.0
  0
SPLINE
  5
22a
100
AcDbEntity
  8
Layer_1
 62
3
100
AcDbSpline
 70
8
 71
3
 72
8
 73
4
 74
0
 40
0
 40
0
 40
0
 40
0
 40
1
 40
1
 40
1
 40
1
 10
189.282721
 20
-8.806198
 30
0.0
 10
188.810543
 20
-8.806198
 30
0.0
 10
188.492092
 20
-8.726194
 30
0.0
 10
188.325797
 20
-8.564610
 30
0.0
  0
SPLINE
  5
22b
100
AcDbEntity
  8
Layer_1
 62
3
100
AcDbSpline
 70
8
 71
3
 72
8
 73
4
 74
0
 40
0
 40
0
 40
0
 40
0
 40
1
 40
1
 40
1
 40
1
 10
188.325797
 20
-8.564610
 30
0.0
 10
188.161088
 20
-8.404603
 30
0.0
 10
188.077936
 20
-8.101844
 30
0.0
 10
188.077936
 20
-7.657904
 30
0.0
  0
LINE
  5
22c
100
AcDbEntity
  8
Layer_1
 62
3
100
AcDbLine
 10
188.077936
 20
-7.657904
 30
0.0
 11
188.077936
 21
-5.097730
 31
0.0
  0
SPLINE
  5
22d
100
AcDbEntity
  8
Layer_1
 62
3
100
AcDbSpline
 70
8
 71
3
 72
8
 73
4
 74
0
 40
0
 40
0
 40
0
 40
0
 40
1
 40
1
 40
1
 40
1
 10
188.077936
 20
-5.097730
 30
0.0
 10
188.077936
 20
-4.655357
 30
0.0
 10
188.161088
 20
-4.354158
 30
0.0
 10
188.325797
 20
-4.191019
 30
0.0
  0
SPLINE
  5
22e
100
AcDbEntity
  8
Layer_1
 62
3
100
AcDbSpline
 70
8
 71
3
 72
8
 73
4
 74
0
 40
0
 40
0
 40
0
 40
0
 40
1
 40
1
 40
1
 40
1
 10
188.325797
 20
-4.191019
 30
0.0
 10
188.492092
 20
-4.029448
 30
0.0
 10
188.810543
 20
-3.947872
 30
0.0
 10
189.282721
 20
-3.947872
 30
0.0
  0
LINE
  5
22f
100
AcDbEntity
  8
Layer_1
 62
3
100
AcDbLine
 10
189.282721
 20
-3.947872
 30
0.0
 11
192.181716
 21
-3.947872
 31
0.0
  0
SPLINE
  5
230
100
AcDbEntity
  8
Layer_1
 62
3
100
AcDbSpline
 70
8
 71
3
 72
8
 73
4
 74
0
 40
0
 40
0
 40
0
 40
0
 40
1
 40
1
 40
1
 40
1
 10
192.181716
 20
-3.947872
 30
0.0
 10
192.650778
 20
-3.947872
 30
0.0
 10
192.969221
 20
-4.029448
 30
0.0
 10
193.135509
 20
-4.191019
 30
0.0
  0
SPLINE
  5
231
100
AcDbEntity
  8
Layer_1
 62
3
100
AcDbSpline
 70
8
 71
3
 72
8
 73
4
 74
0
 40
0
 40
0
 40
0
 40
0
 40
1
 40
1
 40
1
 40
1
 10
193.135509
 20
-4.191019
 30
0.0
 10
193.303350
 20
-4.354158
 30
0.0
 10
193.386502
 20
-4.655357
 30
0.0
 10
193.386502
 20
-5.097730
 30
0.0
  0
LINE
  5
232
100
AcDbEntity
  8
Layer_1
 62
3
100
AcDbLine
 10
193.386502
 20
-5.097730
 30
0.0
 11
193.386502
 21
-5.557378
 31
0.0
  0
LINE
  5
233
100
AcDbEntity
  8
Layer_1
 62
3
100
AcDbLine
 10
193.386502
 20
-5.557378
 30
0.0
 11
192.255455
 21
-5.736193
 31
0.0
  0
LINE
  5
234
100
AcDbEntity
  8
Layer_1
 62
3
100
AcDbLine
 10
192.255455
 20
-5.736193
 30
0.0
 11
192.255455
 21
-4.816942
 31
0.0
  0
LINE
  5
235
100
AcDbEntity
  8
Layer_1
 62
3
100
AcDbLine
 10
195.334590
 20
-8.806198
 30
0.0
 11
195.334590
 21
-3.947872
 31
0.0
  0
LINE
  5
236
100
AcDbEntity
  8
Layer_1
 62
3
100
AcDbLine
 10
195.334590
 20
-3.947872
 30
0.0
 11
200.309011
 21
-3.947872
 31
0.0
  0
LINE
  5
237
100
AcDbEntity
  8
Layer_1
 62
3
100
AcDbLine
 10
200.309011
 20
-3.947872
 30
0.0
 11
200.309011
 21
-4.774560
 31
0.0
  0
LINE
  5
238
100
AcDbEntity
  8
Layer_1
 62
3
100
AcDbLine
 10
200.309011
 20
-4.774560
 30
0.0
 11
196.465620
 21
-4.774560
 31
0.0
  0
LINE
  5
239
100
AcDbEntity
  8
Layer_1
 62
3
100
AcDbLine
 10
196.465620
 20
-4.774560
 30
0.0
 11
196.465620
 21
-5.860123
 31
0.0
  0
LINE
  5
23a
100
AcDbEntity
  8
Layer_1
 62
3
100
AcDbLine
 10
196.465620
 20
-5.860123
 30
0.0
 11
198.708895
 21
-5.860123
 31
0.0
  0
LINE
  5
23b
100
AcDbEntity
  8
Layer_1
 62
3
100
AcDbLine
 10
198.708895
 20
-5.860123
 30
0.0
 11
198.708895
 21
-6.686863
 31
0.0
  0
LINE
  5
23c
100
AcDbEntity
  8
Layer_1
 62
3
100
AcDbLine
 10
198.708895
 20
-6.686863
 30
0.0
 11
196.465620
 21
-6.686863
 31
0.0
  0
LINE
  5
23d
100
AcDbEntity
  8
Layer_1
 62
3
100
AcDbLine
 10
196.465620
 20
-6.686863
 30
0.0
 11
196.465620
 21
-7.891634
 31
0.0
  0
LINE
  5
23e
100
AcDbEntity
  8
Layer_1
 62
3
100
AcDbLine
 10
196.465620
 20
-7.891634
 30
0.0
 11
200.354496
 21
-7.891634
 31
0.0
  0
LINE
  5
23f
100
AcDbEntity
  8
Layer_1
 62
3
100
AcDbLine
 10
200.354496
 20
-7.891634
 30
0.0
 11
200.354496
 21
-8.806198
 31
0.0
  0
LINE
  5
240
100
AcDbEntity
  8
Layer_1
 62
3
100
AcDbLine
 10
200.354496
 20
-8.806198
 30
0.0
 11
195.334590
 21
-8.806198
 31
0.0
  0
LINE
  5
241
100
AcDbEntity
  8
Layer_1
 62
3
100
AcDbLine
 10
39.729997
 20
-8.805342
 30
0.0
 11
39.729997
 21
-3.948766
 31
0.0
  0
LINE
  5
242
100
AcDbEntity
  8
Layer_1
 62
3
100
AcDbLine
 10
39.729997
 20
-3.948766
 30
0.0
 11
40.996226
 21
-3.948766
 31
0.0
  0
LINE
  5
243
100
AcDbEntity
  8
Layer_1
 62
3
100
AcDbLine
 10
40.996226
 20
-3.948766
 30
0.0
 11
40.996226
 21
-5.974822
 31
0.0
  0
LINE
  5
244
100
AcDbEntity
  8
Layer_1
 62
3
100
AcDbLine
 10
40.996226
 20
-5.974822
 30
0.0
 11
43.986764
 21
-3.948766
 31
0.0
  0
LINE
  5
245
100
AcDbEntity
  8
Layer_1
 62
3
100
AcDbLine
 10
43.986764
 20
-3.948766
 30
0.0
 11
45.803407
 21
-3.948766
 31
0.0
  0
LINE
  5
246
100
AcDbEntity
  8
Layer_1
 62
3
100
AcDbLine
 10
45.803407
 20
-3.948766
 30
0.0
 11
42.231096
 21
-6.236709
 31
0.0
  0
LINE
  5
247
100
AcDbEntity
  8
Layer_1
 62
3
100
AcDbLine
 10
42.231096
 20
-6.236709
 30
0.0
 11
46.242328
 21
-8.805342
 31
0.0
  0
LINE
  5
248
100
AcDbEntity
  8
Layer_1
 62
3
100
AcDbLine
 10
46.242328
 20
-8.805342
 30
0.0
 11
44.227145
 21
-8.805342
 31
0.0
  0
LINE
  5
249
100
AcDbEntity
  8
Layer_1
 62
3
100
AcDbLine
 10
44.227145
 20
-8.805342
 30
0.0
 11
40.996226
 21
-6.669510
 31
0.0
  0
LINE
  5
24a
100
AcDbEntity
  8
Layer_1
 62
3
100
AcDbLine
 10
40.996226
 20
-6.669510
 30
0.0
 11
40.996226
 21
-8.805342
 31
0.0
  0
LINE
  5
24b
100
AcDbEntity
  8
Layer_1
 62
3
100
AcDbLine
 10
40.996226
 20
-8.805342
 30
0.0
 11
39.729997
 21
-8.805342
 31
0.0
  0
LINE
  5
24c
100
AcDbEntity
  8
Layer_1
 62
3
100
AcDbLine
 10
49.468730
 20
-6.867104
 30
0.0
 11
51.830518
 21
-6.867104
 31
0.0
  0
LINE
  5
24d
100
AcDbEntity
  8
Layer_1
 62
3
100
AcDbLine
 10
51.830518
 20
-6.867104
 30
0.0
 11
50.667048
 21
-4.891210
 31
0.0
  0
LINE
  5
24e
100
AcDbEntity
  8
Layer_1
 62
3
100
AcDbLine
 10
50.667048
 20
-4.891210
 30
0.0
 11
49.468730
 21
-6.867104
 31
0.0
  0
LINE
  5
24f
100
AcDbEntity
  8
Layer_1
 62
3
100
AcDbLine
 10
47.054682
 20
-8.805342
 30
0.0
 11
50.106204
 21
-3.948766
 31
0.0
  0
LINE
  5
250
100
AcDbEntity
  8
Layer_1
 62
3
100
AcDbLine
 10
50.106204
 20
-3.948766
 30
0.0
 11
51.314949
 21
-3.948766
 31
0.0
  0
LINE
  5
251
100
AcDbEntity
  8
Layer_1
 62
3
100
AcDbLine
 10
51.314949
 20
-3.948766
 30
0.0
 11
54.408268
 21
-8.805342
 31
0.0
  0
LINE
  5
252
100
AcDbEntity
  8
Layer_1
 62
3
100
AcDbLine
 10
54.408268
 20
-8.805342
 30
0.0
 11
52.999204
 21
-8.805342
 31
0.0
  0
LINE
  5
253
100
AcDbEntity
  8
Layer_1
 62
3
100
AcDbLine
 10
52.999204
 20
-8.805342
 30
0.0
 11
52.351278
 21
-7.745275
 31
0.0
  0
LINE
  5
254
100
AcDbEntity
  8
Layer_1
 62
3
100
AcDbLine
 10
52.351278
 20
-7.745275
 30
0.0
 11
48.932274
 21
-7.745275
 31
0.0
  0
LINE
  5
255
100
AcDbEntity
  8
Layer_1
 62
3
100
AcDbLine
 10
48.932274
 20
-7.745275
 30
0.0
 11
48.305261
 21
-8.805342
 31
0.0
  0
LINE
  5
256
100
AcDbEntity
  8
Layer_1
 62
3
100
AcDbLine
 10
48.305261
 20
-8.805342
 30
0.0
 11
47.054682
 21
-8.805342
 31
0.0
  0
LINE
  5
257
100
AcDbEntity
  8
Layer_1
 62
3
100
AcDbLine
 10
56.563525
 20
-8.805342
 30
0.0
 11
56.563525
 21
-3.948766
 31
0.0
  0
LINE
  5
258
100
AcDbEntity
  8
Layer_1
 62
3
100
AcDbLine
 10
56.563525
 20
-3.948766
 30
0.0
 11
57.578942
 21
-3.948766
 31
0.0
  0
LINE
  5
259
100
AcDbEntity
  8
Layer_1
 62
3
100
AcDbLine
 10
57.578942
 20
-3.948766
 30
0.0
 11
60.120129
 21
-6.884357
 31
0.0
  0
LINE
  5
25a
100
AcDbEntity
  8
Layer_1
 62
3
100
AcDbLine
 10
60.120129
 20
-6.884357
 30
0.0
 11
62.605580
 21
-3.948766
 31
0.0
  0
LINE
  5
25b
100
AcDbEntity
  8
Layer_1
 62
3
100
AcDbLine
 10
62.605580
 20
-3.948766
 30
0.0
 11
63.610564
 21
-3.948766
 31
0.0
  0
LINE
  5
25c
100
AcDbEntity
  8
Layer_1
 62
3
100
AcDbLine
 10
63.610564
 20
-3.948766
 30
0.0
 11
63.610564
 21
-8.805342
 31
0.0
  0
LINE
  5
25d
100
AcDbEntity
  8
Layer_1
 62
3
100
AcDbLine
 10
63.610564
 20
-8.805342
 30
0.0
 11
62.447094
 21
-8.805342
 31
0.0
  0
LINE
  5
25e
100
AcDbEntity
  8
Layer_1
 62
3
100
AcDbLine
 10
62.447094
 20
-8.805342
 30
0.0
 11
62.447094
 21
-5.805455
 31
0.0
  0
SPLINE
  5
25f
100
AcDbEntity
  8
Layer_1
 62
3
100
AcDbSpline
 70
8
 71
3
 72
8
 73
4
 74
0
 40
0
 40
0
 40
0
 40
0
 40
1
 40
1
 40
1
 40
1
 10
62.447094
 20
-5.805455
 30
0.0
 10
62.447094
 20
-5.747465
 30
0.0
 10
62.450522
 20
-5.673724
 30
0.0
 10
62.459281
 20
-5.584337
 30
0.0
  0
SPLINE
  5
260
100
AcDbEntity
  8
Layer_1
 62
3
100
AcDbSpline
 70
8
 71
3
 72
8
 73
4
 74
0
 40
0
 40
0
 40
0
 40
0
 40
1
 40
1
 40
1
 40
1
 10
62.459281
 20
-5.584337
 30
0.0
 10
62.467952
 20
-5.494973
 30
0.0
 10
62.480170
 20
-5.396158
 30
0.0
 10
62.492372
 20
-5.286390
 30
0.0
  0
SPLINE
  5
261
100
AcDbEntity
  8
Layer_1
 62
3
100
AcDbSpline
 70
8
 71
3
 72
8
 73
4
 74
0
 40
0
 40
0
 40
0
 40
0
 40
1
 40
1
 40
1
 40
1
 10
62.492372
 20
-5.286390
 30
0.0
 10
62.424436
 20
-5.411850
 30
0.0
 10
62.365232
 20
-5.515355
 30
0.0
 10
62.314722
 20
-5.595333
 30
0.0
  0
SPLINE
  5
262
100
AcDbEntity
  8
Layer_1
 62
3
100
AcDbSpline
 70
8
 71
3
 72
8
 73
4
 74
0
 40
0
 40
0
 40
0
 40
0
 40
1
 40
1
 40
1
 40
1
 10
62.314722
 20
-5.595333
 30
0.0
 10
62.264200
 20
-5.676874
 30
0.0
 10
62.217179
 20
-5.744304
 30
0.0
 10
62.177122
 20
-5.796042
 30
0.0
  0
LINE
  5
263
100
AcDbEntity
  8
Layer_1
 62
3
100
AcDbLine
 10
62.177122
 20
-5.796042
 30
0.0
 11
60.151477
 21
-8.221982
 31
0.0
  0
LINE
  5
264
100
AcDbEntity
  8
Layer_1
 62
3
100
AcDbLine
 10
60.151477
 20
-8.221982
 30
0.0
 11
59.900662
 21
-8.221982
 31
0.0
  0
LINE
  5
265
100
AcDbEntity
  8
Layer_1
 62
3
100
AcDbLine
 10
59.900662
 20
-8.221982
 30
0.0
 11
57.869809
 21
-5.786650
 31
0.0
  0
SPLINE
  5
266
100
AcDbEntity
  8
Layer_1
 62
3
100
AcDbSpline
 70
8
 71
3
 72
8
 73
4
 74
0
 40
0
 40
0
 40
0
 40
0
 40
1
 40
1
 40
1
 40
1
 10
57.869809
 20
-5.786650
 30
0.0
 10
57.794922
 20
-5.694113
 30
0.0
 10
57.730488
 20
-5.607869
 30
0.0
 10
57.678220
 20
-5.526322
 30
0.0
  0
SPLINE
  5
267
100
AcDbEntity
  8
Layer_1
 62
3
100
AcDbSpline
 70
8
 71
3
 72
8
 73
4
 74
0
 40
0
 40
0
 40
0
 40
0
 40
1
 40
1
 40
1
 40
1
 10
57.678220
 20
-5.526322
 30
0.0
 10
57.625992
 20
-5.446350
 30
0.0
 10
57.582435
 20
-5.366370
 30
0.0
 10
57.547594
 20
-5.291108
 30
0.0
  0
SPLINE
  5
268
100
AcDbEntity
  8
Layer_1
 62
3
100
AcDbSpline
 70
8
 71
3
 72
8
 73
4
 74
0
 40
0
 40
0
 40
0
 40
0
 40
1
 40
1
 40
1
 40
1
 10
57.547594
 20
-5.291108
 30
0.0
 10
57.558051
 20
-5.391470
 30
0.0
 10
57.566754
 20
-5.483984
 30
0.0
 10
57.571975
 20
-5.565532
 30
0.0
  0
SPLINE
  5
269
100
AcDbEntity
  8
Layer_1
 62
3
100
AcDbSpline
 70
8
 71
3
 72
8
 73
4
 74
0
 40
0
 40
0
 40
0
 40
0
 40
1
 40
1
 40
1
 40
1
 10
57.571975
 20
-5.565532
 30
0.0
 10
57.577235
 20
-5.648631
 30
0.0
 10
57.578909
 20
-5.728605
 30
0.0
 10
57.578909
 20
-5.805455
 30
0.0
  0
LINE
  5
26a
100
AcDbEntity
  8
Layer_1
 62
3
100
AcDbLine
 10
57.578909
 20
-5.805455
 30
0.0
 11
57.578909
 21
-8.805342
 31
0.0
  0
LINE
  5
26b
100
AcDbEntity
  8
Layer_1
 62
3
100
AcDbLine
 10
57.578909
 20
-8.805342
 30
0.0
 11
56.563525
 21
-8.805342
 31
0.0
  0
LINE
  5
26c
100
AcDbEntity
  8
Layer_1
 62
3
100
AcDbLine
 10
66.680237
 20
-8.805342
 30
0.0
 11
66.680237
 21
-3.948766
 31
0.0
  0
LINE
  5
26d
100
AcDbEntity
  8
Layer_1
 62
3
100
AcDbLine
 10
66.680237
 20
-3.948766
 30
0.0
 11
67.936004
 21
-3.948766
 31
0.0
  0
LINE
  5
26e
100
AcDbEntity
  8
Layer_1
 62
3
100
AcDbLine
 10
67.936004
 20
-3.948766
 30
0.0
 11
67.936004
 21
-7.891117
 31
0.0
  0
LINE
  5
26f
100
AcDbEntity
  8
Layer_1
 62
3
100
AcDbLine
 10
67.936004
 20
-7.891117
 30
0.0
 11
71.982049
 21
-7.891117
 31
0.0
  0
LINE
  5
270
100
AcDbEntity
  8
Layer_1
 62
3
100
AcDbLine
 10
71.982049
 20
-7.891117
 30
0.0
 11
71.982049
 21
-8.805342
 31
0.0
  0
LINE
  5
271
100
AcDbEntity
  8
Layer_1
 62
3
100
AcDbLine
 10
71.982049
 20
-8.805342
 30
0.0
 11
66.680237
 21
-8.805342
 31
0.0
  0
SPLINE
  5
272
100
AcDbEntity
  8
Layer_1
 62
3
100
AcDbSpline
 70
8
 71
3
 72
8
 73
4
 74
0
 40
0
 40
0
 40
0
 40
0
 40
1
 40
1
 40
1
 40
1
 10
73.956153
 20
-5.098210
 30
0.0
 10
73.956153
 20
-4.655996
 30
0.0
 10
74.048480
 20
-4.354913
 30
0.0
 10
74.231344
 20
-4.191833
 30
0.0
  0
SPLINE
  5
273
100
AcDbEntity
  8
Layer_1
 62
3
100
AcDbSpline
 70
8
 71
3
 72
8
 73
4
 74
0
 40
0
 40
0
 40
0
 40
0
 40
1
 40
1
 40
1
 40
1
 10
74.231344
 20
-4.191833
 30
0.0
 10
74.415986
 20
-4.030313
 30
0.0
 10
74.769557
 20
-3.948766
 30
0.0
 10
75.293813
 20
-3.948766
 30
0.0
  0
LINE
  5
274
100
AcDbEntity
  8
Layer_1
 62
3
100
AcDbLine
 10
75.293813
 20
-3.948766
 30
0.0
 11
79.261483
 21
-3.948766
 31
0.0
  0
SPLINE
  5
275
100
AcDbEntity
  8
Layer_1
 62
3
100
AcDbSpline
 70
8
 71
3
 72
8
 73
4
 74
0
 40
0
 40
0
 40
0
 40
0
 40
1
 40
1
 40
1
 40
1
 10
79.261483
 20
-3.948766
 30
0.0
 10
79.785743
 20
-3.948766
 30
0.0
 10
80.139300
 20
-4.030313
 30
0.0
 10
80.323910
 20
-4.191833
 30
0.0
  0
SPLINE
  5
276
100
AcDbEntity
  8
Layer_1
 62
3
100
AcDbSpline
 70
8
 71
3
 72
8
 73
4
 74
0
 40
0
 40
0
 40
0
 40
0
 40
1
 40
1
 40
1
 40
1
 10
80.323910
 20
-4.191833
 30
0.0
 10
80.506813
 20
-4.354913
 30
0.0
 10
80.599106
 20
-4.655996
 30
0.0
 10
80.599106
 20
-5.098210
 30
0.0
  0
LINE
  5
277
100
AcDbEntity
  8
Layer_1
 62
3
100
AcDbLine
 10
80.599106
 20
-5.098210
 30
0.0
 11
80.599106
 21
-7.657463
 31
0.0
  0
SPLINE
  5
278
100
AcDbEntity
  8
Layer_1
 62
3
100
AcDbSpline
 70
8
 71
3
 72
8
 73
4
 74
0
 40
0
 40
0
 40
0
 40
0
 40
1
 40
1
 40
1
 40
1
 10
80.599106
 20
-7.657463
 30
0.0
 10
80.599106
 20
-8.101244
 30
0.0
 10
80.506813
 20
-8.403883
 30
0.0
 10
80.323910
 20
-8.563842
 30
0.0
  0
SPLINE
  5
279
100
AcDbEntity
  8
Layer_1
 62
3
100
AcDbSpline
 70
8
 71
3
 72
8
 73
4
 74
0
 40
0
 40
0
 40
0
 40
0
 40
1
 40
1
 40
1
 40
1
 10
80.323910
 20
-8.563842
 30
0.0
 10
80.139300
 20
-8.725379
 30
0.0
 10
79.785743
 20
-8.805342
 30
0.0
 10
79.261483
 20
-8.805342
 30
0.0
  0
LINE
  5
27a
100
AcDbEntity
  8
Layer_1
 62
3
100
AcDbLine
 10
79.261483
 20
-8.805342
 30
0.0
 11
75.293813
 21
-8.805342
 31
0.0
  0
SPLINE
  5
27b
100
AcDbEntity
  8
Layer_1
 62
3
100
AcDbSpline
 70
8
 71
3
 72
8
 73
4
 74
0
 40
0
 40
0
 40
0
 40
0
 40
1
 40
1
 40
1
 40
1
 10
75.293813
 20
-8.805342
 30
0.0
 10
74.769557
 20
-8.805342
 30
0.0
 10
74.415986
 20
-8.725379
 30
0.0
 10
74.231344
 20
-8.563842
 30
0.0
  0
SPLINE
  5
27c
100
AcDbEntity
  8
Layer_1
 62
3
100
AcDbSpline
 70
8
 71
3
 72
8
 73
4
 74
0
 40
0
 40
0
 40
0
 40
0
 40
1
 40
1
 40
1
 40
1
 10
74.231344
 20
-8.563842
 30
0.0
 10
74.048480
 20
-8.403883
 30
0.0
 10
73.956153
 20
-8.101244
 30
0.0
 10
73.956153
 20
-7.657463
 30
0.0
  0
LINE
  5
27d
100
AcDbEntity
  8
Layer_1
 62
3
100
AcDbLine
 10
73.956153
 20
-7.657463
 30
0.0
 11
73.956153
 21
-5.098210
 31
0.0
  0
LINE
  5
27e
100
AcDbEntity
  8
Layer_1
 62
3
100
AcDbLine
 10
75.211947
 20
-7.891117
 30
0.0
 11
79.348564
 21
-7.891117
 31
0.0
  0
LINE
  5
27f
100
AcDbEntity
  8
Layer_1
 62
3
100
AcDbLine
 10
79.348564
 20
-7.891117
 30
0.0
 11
79.348564
 21
-4.817530
 31
0.0
  0
LINE
  5
280
100
AcDbEntity
  8
Layer_1
 62
3
100
AcDbLine
 10
79.348564
 20
-4.817530
 30
0.0
 11
75.211947
 21
-4.817530
 31
0.0
  0
LINE
  5
281
100
AcDbEntity
  8
Layer_1
 62
3
100
AcDbLine
 10
75.211947
 20
-4.817530
 30
0.0
 11
75.211947
 21
-7.891117
 31
0.0
  0
SPLINE
  5
282
100
AcDbEntity
  8
Layer_1
 62
3
100
AcDbSpline
 70
8
 71
3
 72
8
 73
4
 74
0
 40
0
 40
0
 40
0
 40
0
 40
1
 40
1
 40
1
 40
1
 10
83.562506
 20
-5.098210
 30
0.0
 10
83.562506
 20
-4.655996
 30
0.0
 10
83.654832
 20
-4.354913
 30
0.0
 10
83.837702
 20
-4.191833
 30
0.0
  0
SPLINE
  5
283
100
AcDbEntity
  8
Layer_1
 62
3
100
AcDbSpline
 70
8
 71
3
 72
8
 73
4
 74
0
 40
0
 40
0
 40
0
 40
0
 40
1
 40
1
 40
1
 40
1
 10
83.837702
 20
-4.191833
 30
0.0
 10
84.022344
 20
-4.030313
 30
0.0
 10
84.375901
 20
-3.948766
 30
0.0
 10
84.900153
 20
-3.948766
 30
0.0
  0
LINE
  5
284
100
AcDbEntity
  8
Layer_1
 62
3
100
AcDbLine
 10
84.900153
 20
-3.948766
 30
0.0
 11
88.867823
 21
-3.948766
 31
0.0
  0
SPLINE
  5
285
100
AcDbEntity
  8
Layer_1
 62
3
100
AcDbSpline
 70
8
 71
3
 72
8
 73
4
 74
0
 40
0
 40
0
 40
0
 40
0
 40
1
 40
1
 40
1
 40
1
 10
88.867823
 20
-3.948766
 30
0.0
 10
89.392077
 20
-3.948766
 30
0.0
 10
89.745636
 20
-4.030313
 30
0.0
 10
89.930255
 20
-4.191833
 30
0.0
  0
SPLINE
  5
286
100
AcDbEntity
  8
Layer_1
 62
3
100
AcDbSpline
 70
8
 71
3
 72
8
 73
4
 74
0
 40
0
 40
0
 40
0
 40
0
 40
1
 40
1
 40
1
 40
1
 10
89.930255
 20
-4.191833
 30
0.0
 10
90.113159
 20
-4.354913
 30
0.0
 10
90.205445
 20
-4.655996
 30
0.0
 10
90.205445
 20
-5.098210
 30
0.0
  0
LINE
  5
287
100
AcDbEntity
  8
Layer_1
 62
3
100
AcDbLine
 10
90.205445
 20
-5.098210
 30
0.0
 11
90.205445
 21
-7.657463
 31
0.0
  0
SPLINE
  5
288
100
AcDbEntity
  8
Layer_1
 62
3
100
AcDbSpline
 70
8
 71
3
 72
8
 73
4
 74
0
 40
0
 40
0
 40
0
 40
0
 40
1
 40
1
 40
1
 40
1
 10
90.205445
 20
-7.657463
 30
0.0
 10
90.205445
 20
-8.101244
 30
0.0
 10
90.113159
 20
-8.403883
 30
0.0
 10
89.930255
 20
-8.563842
 30
0.0
  0
SPLINE
  5
289
100
AcDbEntity
  8
Layer_1
 62
3
100
AcDbSpline
 70
8
 71
3
 72
8
 73
4
 74
0
 40
0
 40
0
 40
0
 40
0
 40
1
 40
1
 40
1
 40
1
 10
89.930255
 20
-8.563842
 30
0.0
 10
89.745636
 20
-8.725379
 30
0.0
 10
89.392077
 20
-8.805342
 30
0.0
 10
88.867823
 20
-8.805342
 30
0.0
  0
LINE
  5
28a
100
AcDbEntity
  8
Layer_1
 62
3
100
AcDbLine
 10
88.867823
 20
-8.805342
 30
0.0
 11
84.900153
 21
-8.805342
 31
0.0
  0
SPLINE
  5
28b
100
AcDbEntity
  8
Layer_1
 62
3
100
AcDbSpline
 70
8
 71
3
 72
8
 73
4
 74
0
 40
0
 40
0
 40
0
 40
0
 40
1
 40
1
 40
1
 40
1
 10
84.900153
 20
-8.805342
 30
0.0
 10
84.375901
 20
-8.805342
 30
0.0
 10
84.022344
 20
-8.725379
 30
0.0
 10
83.837702
 20
-8.563842
 30
0.0
  0
SPLINE
  5
28c
100
AcDbEntity
  8
Layer_1
 62
3
100
AcDbSpline
 70
8
 71
3
 72
8
 73
4
 74
0
 40
0
 40
0
 40
0
 40
0
 40
1
 40
1
 40
1
 40
1
 10
83.837702
 20
-8.563842
 30
0.0
 10
83.654832
 20
-8.403883
 30
0.0
 10
83.562506
 20
-8.101244
 30
0.0
 10
83.562506
 20
-7.657463
 30
0.0
  0
LINE
  5
28d
100
AcDbEntity
  8
Layer_1
 62
3
100
AcDbLine
 10
83.562506
 20
-7.657463
 30
0.0
 11
83.562506
 21
-5.098210
 31
0.0
  0
LINE
  5
28e
100
AcDbEntity
  8
Layer_1
 62
3
100
AcDbLine
 10
84.818293
 20
-7.891117
 30
0.0
 11
88.954903
 21
-7.891117
 31
0.0
  0
LINE
  5
28f
100
AcDbEntity
  8
Layer_1
 62
3
100
AcDbLine
 10
88.954903
 20
-7.891117
 30
0.0
 11
88.954903
 21
-4.817530
 31
0.0
  0
LINE
  5
290
100
AcDbEntity
  8
Layer_1
 62
3
100
AcDbLine
 10
88.954903
 20
-4.817530
 30
0.0
 11
84.818293
 21
-4.817530
 31
0.0
  0
LINE
  5
291
100
AcDbEntity
  8
Layer_1
 62
3
100
AcDbLine
 10
84.818293
 20
-4.817530
 30
0.0
 11
84.818293
 21
-7.891117
 31
0.0
  0
LINE
  5
292
100
AcDbEntity
  8
Layer_1
 62
3
100
AcDbLine
 10
97.338579
 20
-4.789281
 30
0.0
 11
94.515235
 21
-4.789281
 31
0.0
  0
LINE
  5
293
100
AcDbEntity
  8
Layer_1
 62
3
100
AcDbLine
 10
94.515235
 20
-4.789281
 30
0.0
 11
94.515235
 21
-6.076751
 31
0.0
  0
LINE
  5
294
100
AcDbEntity
  8
Layer_1
 62
3
100
AcDbLine
 10
94.515235
 20
-6.076751
 30
0.0
 11
97.338579
 21
-6.076751
 31
0.0
  0
SPLINE
  5
295
100
AcDbEntity
  8
Layer_1
 62
3
100
AcDbSpline
 70
8
 71
3
 72
8
 73
4
 74
0
 40
0
 40
0
 40
0
 40
0
 40
1
 40
1
 40
1
 40
1
 10
97.338579
 20
-6.076751
 30
0.0
 10
97.556297
 20
-6.076751
 30
0.0
 10
97.704340
 20
-6.048585
 30
0.0
 10
97.784455
 20
-5.992067
 30
0.0
  0
SPLINE
  5
296
100
AcDbEntity
  8
Layer_1
 62
3
100
AcDbSpline
 70
8
 71
3
 72
8
 73
4
 74
0
 40
0
 40
0
 40
0
 40
0
 40
1
 40
1
 40
1
 40
1
 10
97.784455
 20
-5.992067
 30
0.0
 10
97.864634
 20
-5.935600
 30
0.0
 10
97.904636
 20
-5.835251
 30
0.0
 10
97.904636
 20
-5.690991
 30
0.0
  0
LINE
  5
297
100
AcDbEntity
  8
Layer_1
 62
3
100
AcDbLine
 10
97.904636
 20
-5.690991
 30
0.0
 11
97.904636
 21
-5.170345
 31
0.0
  0
SPLINE
  5
298
100
AcDbEntity
  8
Layer_1
 62
3
100
AcDbSpline
 70
8
 71
3
 72
8
 73
4
 74
0
 40
0
 40
0
 40
0
 40
0
 40
1
 40
1
 40
1
 40
1
 10
97.904636
 20
-5.170345
 30
0.0
 10
97.904636
 20
-5.029227
 30
0.0
 10
97.864546
 20
-4.930420
 30
0.0
 10
97.784455
 20
-4.873972
 30
0.0
  0
SPLINE
  5
299
100
AcDbEntity
  8
Layer_1
 62
3
100
AcDbSpline
 70
8
 71
3
 72
8
 73
4
 74
0
 40
0
 40
0
 40
0
 40
0
 40
1
 40
1
 40
1
 40
1
 10
97.784455
 20
-4.873972
 30
0.0
 10
97.704285
 20
-4.817504
 30
0.0
 10
97.556297
 20
-4.789281
 30
0.0
 10
97.338579
 20
-4.789281
 30
0.0
  0
LINE
  5
29a
100
AcDbEntity
  8
Layer_1
 62
3
100
AcDbLine
 10
97.338579
 20
-4.789281
 30
0.0
 11
97.338579
 21
-4.789281
 31
0.0
  0
LINE
  5
29b
100
AcDbEntity
  8
Layer_1
 62
3
100
AcDbLine
 10
93.280355
 20
-8.805342
 30
0.0
 11
93.280355
 21
-3.948766
 31
0.0
  0
LINE
  5
29c
100
AcDbEntity
  8
Layer_1
 62
3
100
AcDbLine
 10
93.280355
 20
-3.948766
 30
0.0
 11
97.894179
 21
-3.948766
 31
0.0
  0
SPLINE
  5
29d
100
AcDbEntity
  8
Layer_1
 62
3
100
AcDbSpline
 70
8
 71
3
 72
8
 73
4
 74
0
 40
0
 40
0
 40
0
 40
0
 40
1
 40
1
 40
1
 40
1
 10
97.894179
 20
-3.948766
 30
0.0
 10
98.322657
 20
-3.948766
 30
0.0
 10
98.632684
 20
-4.022473
 30
0.0
 10
98.826014
 20
-4.171430
 30
0.0
  0
SPLINE
  5
29e
100
AcDbEntity
  8
Layer_1
 62
3
100
AcDbSpline
 70
8
 71
3
 72
8
 73
4
 74
0
 40
0
 40
0
 40
0
 40
0
 40
1
 40
1
 40
1
 40
1
 10
98.826014
 20
-4.171430
 30
0.0
 10
99.017590
 20
-4.320414
 30
0.0
 10
99.113414
 20
-4.560338
 30
0.0
 10
99.113414
 20
-4.889664
 30
0.0
  0
LINE
  5
29f
100
AcDbEntity
  8
Layer_1
 62
3
100
AcDbLine
 10
99.113414
 20
-4.889664
 30
0.0
 11
99.113414
 21
-5.974822
 31
0.0
  0
SPLINE
  5
2a0
100
AcDbEntity
  8
Layer_1
 62
3
100
AcDbSpline
 70
8
 71
3
 72
8
 73
4
 74
0
 40
0
 40
0
 40
0
 40
0
 40
1
 40
1
 40
1
 40
1
 10
99.113414
 20
-5.974822
 30
0.0
 10
99.113414
 20
-6.302565
 30
0.0
 10
99.017590
 20
-6.540928
 30
0.0
 10
98.826014
 20
-6.689892
 30
0.0
  0
SPLINE
  5
2a1
100
AcDbEntity
  8
Layer_1
 62
3
100
AcDbSpline
 70
8
 71
3
 72
8
 73
4
 74
0
 40
0
 40
0
 40
0
 40
0
 40
1
 40
1
 40
1
 40
1
 10
98.826014
 20
-6.689892
 30
0.0
 10
98.632684
 20
-6.838869
 30
0.0
 10
98.322657
 20
-6.912577
 30
0.0
 10
97.894179
 20
-6.912577
 30
0.0
  0
LINE
  5
2a2
100
AcDbEntity
  8
Layer_1
 62
3
100
AcDbLine
 10
97.894179
 20
-6.912577
 30
0.0
 11
94.515235
 21
-6.912577
 31
0.0
  0
LINE
  5
2a3
100
AcDbEntity
  8
Layer_1
 62
3
100
AcDbLine
 10
94.515235
 20
-6.912577
 30
0.0
 11
94.515235
 21
-8.805342
 31
0.0
  0
LINE
  5
2a4
100
AcDbEntity
  8
Layer_1
 62
3
100
AcDbLine
 10
94.515235
 20
-8.805342
 30
0.0
 11
93.280355
 21
-8.805342
 31
0.0
  0
LINE
  5
2a5
100
AcDbEntity
  8
Layer_1
 62
3
100
AcDbLine
 10
106.150732
 20
-4.798695
 30
0.0
 11
102.620229
 21
-4.798695
 31
0.0
  0
LINE
  5
2a6
100
AcDbEntity
  8
Layer_1
 62
3
100
AcDbLine
 10
102.620229
 20
-4.798695
 30
0.0
 11
102.620229
 21
-5.841530
 31
0.0
  0
LINE
  5
2a7
100
AcDbEntity
  8
Layer_1
 62
3
100
AcDbLine
 10
102.620229
 20
-5.841530
 30
0.0
 11
105.981783
 21
-5.841530
 31
0.0
  0
SPLINE
  5
2a8
100
AcDbEntity
  8
Layer_1
 62
3
100
AcDbSpline
 70
8
 71
3
 72
8
 73
4
 74
0
 40
0
 40
0
 40
0
 40
0
 40
1
 40
1
 40
1
 40
1
 10
105.981783
 20
-5.841530
 30
0.0
 10
106.509536
 20
-5.841530
 30
0.0
 10
106.866562
 20
-5.923077
 30
0.0
 10
107.051204
 20
-6.084597
 30
0.0
  0
SPLINE
  5
2a9
100
AcDbEntity
  8
Layer_1
 62
3
100
AcDbSpline
 70
8
 71
3
 72
8
 73
4
 74
0
 40
0
 40
0
 40
0
 40
0
 40
1
 40
1
 40
1
 40
1
 10
107.051204
 20
-6.084597
 30
0.0
 10
107.237576
 20
-6.247677
 30
0.0
 10
107.329861
 20
-6.548760
 30
0.0
 10
107.329861
 20
-6.990974
 30
0.0
  0
LINE
  5
2aa
100
AcDbEntity
  8
Layer_1
 62
3
100
AcDbLine
 10
107.329861
 20
-6.990974
 30
0.0
 11
107.329861
 21
-7.657463
 31
0.0
  0
SPLINE
  5
2ab
100
AcDbEntity
  8
Layer_1
 62
3
100
AcDbSpline
 70
8
 71
3
 72
8
 73
4
 74
0
 40
0
 40
0
 40
0
 40
0
 40
1
 40
1
 40
1
 40
1
 10
107.329861
 20
-7.657463
 30
0.0
 10
107.329861
 20
-8.098104
 30
0.0
 10
107.237576
 20
-8.399196
 30
0.0
 10
107.051204
 20
-8.562264
 30
0.0
  0
SPLINE
  5
2ac
100
AcDbEntity
  8
Layer_1
 62
3
100
AcDbSpline
 70
8
 71
3
 72
8
 73
4
 74
0
 40
0
 40
0
 40
0
 40
0
 40
1
 40
1
 40
1
 40
1
 10
107.051204
 20
-8.562264
 30
0.0
 10
106.866562
 20
-8.723801
 30
0.0
 10
106.509536
 20
-8.805342
 30
0.0
 10
105.981783
 20
-8.805342
 30
0.0
  0
LINE
  5
2ad
100
AcDbEntity
  8
Layer_1
 62
3
100
AcDbLine
 10
105.981783
 20
-8.805342
 30
0.0
 11
102.651599
 21
-8.805342
 31
0.0
  0
SPLINE
  5
2ae
100
AcDbEntity
  8
Layer_1
 62
3
100
AcDbSpline
 70
8
 71
3
 72
8
 73
4
 74
0
 40
0
 40
0
 40
0
 40
0
 40
1
 40
1
 40
1
 40
1
 10
102.651599
 20
-8.805342
 30
0.0
 10
102.123854
 20
-8.805342
 30
0.0
 10
101.766788
 20
-8.723801
 30
0.0
 10
101.582186
 20
-8.562264
 30
0.0
  0
SPLINE
  5
2af
100
AcDbEntity
  8
Layer_1
 62
3
100
AcDbSpline
 70
8
 71
3
 72
8
 73
4
 74
0
 40
0
 40
0
 40
0
 40
0
 40
1
 40
1
 40
1
 40
1
 10
101.582186
 20
-8.562264
 30
0.0
 10
101.395806
 20
-8.399196
 30
0.0
 10
101.303489
 20
-8.098104
 30
0.0
 10
101.303489
 20
-7.657463
 30
0.0
  0
LINE
  5
2b0
100
AcDbEntity
  8
Layer_1
 62
3
100
AcDbLine
 10
101.303489
 20
-7.657463
 30
0.0
 11
101.303489
 21
-7.524164
 31
0.0
  0
LINE
  5
2b1
100
AcDbEntity
  8
Layer_1
 62
3
100
AcDbLine
 10
101.303489
 20
-7.524164
 30
0.0
 11
102.411215
 21
-7.317149
 31
0.0
  0
LINE
  5
2b2
100
AcDbEntity
  8
Layer_1
 62
3
100
AcDbLine
 10
102.411215
 20
-7.317149
 30
0.0
 11
102.411215
 21
-7.891117
 31
0.0
  0
LINE
  5
2b3
100
AcDbEntity
  8
Layer_1
 62
3
100
AcDbLine
 10
102.411215
 20
-7.891117
 30
0.0
 11
106.222128
 21
-7.891117
 31
0.0
  0
LINE
  5
2b4
100
AcDbEntity
  8
Layer_1
 62
3
100
AcDbLine
 10
106.222128
 20
-7.891117
 30
0.0
 11
106.222128
 21
-6.783996
 31
0.0
  0
LINE
  5
2b5
100
AcDbEntity
  8
Layer_1
 62
3
100
AcDbLine
 10
106.222128
 20
-6.783996
 30
0.0
 11
102.860614
 21
-6.783996
 31
0.0
  0
SPLINE
  5
2b6
100
AcDbEntity
  8
Layer_1
 62
3
100
AcDbSpline
 70
8
 71
3
 72
8
 73
4
 74
0
 40
0
 40
0
 40
0
 40
0
 40
1
 40
1
 40
1
 40
1
 10
102.860614
 20
-6.783996
 30
0.0
 10
102.336352
 20
-6.783996
 30
0.0
 10
101.982769
 20
-6.702449
 30
0.0
 10
101.798126
 20
-6.540928
 30
0.0
  0
SPLINE
  5
2b7
100
AcDbEntity
  8
Layer_1
 62
3
100
AcDbSpline
 70
8
 71
3
 72
8
 73
4
 74
0
 40
0
 40
0
 40
0
 40
0
 40
1
 40
1
 40
1
 40
1
 10
101.798126
 20
-6.540928
 30
0.0
 10
101.615277
 20
-6.377827
 30
0.0
 10
101.522944
 20
-6.076751
 30
0.0
 10
101.522944
 20
-5.634522
 30
0.0
  0
LINE
  5
2b8
100
AcDbEntity
  8
Layer_1
 62
3
100
AcDbLine
 10
101.522944
 20
-5.634522
 30
0.0
 11
101.522944
 21
-5.098210
 31
0.0
  0
SPLINE
  5
2b9
100
AcDbEntity
  8
Layer_1
 62
3
100
AcDbSpline
 70
8
 71
3
 72
8
 73
4
 74
0
 40
0
 40
0
 40
0
 40
0
 40
1
 40
1
 40
1
 40
1
 10
101.522944
 20
-5.098210
 30
0.0
 10
101.522944
 20
-4.655996
 30
0.0
 10
101.615277
 20
-4.354913
 30
0.0
 10
101.798126
 20
-4.191833
 30
0.0
  0
SPLINE
  5
2ba
100
AcDbEntity
  8
Layer_1
 62
3
100
AcDbSpline
 70
8
 71
3
 72
8
 73
4
 74
0
 40
0
 40
0
 40
0
 40
0
 40
1
 40
1
 40
1
 40
1
 10
101.798126
 20
-4.191833
 30
0.0
 10
101.982769
 20
-4.030313
 30
0.0
 10
102.336352
 20
-3.948766
 30
0.0
 10
102.860614
 20
-3.948766
 30
0.0
  0
LINE
  5
2bb
100
AcDbEntity
  8
Layer_1
 62
3
100
AcDbLine
 10
102.860614
 20
-3.948766
 30
0.0
 11
105.920804
 21
-3.948766
 31
0.0
  0
SPLINE
  5
2bc
100
AcDbEntity
  8
Layer_1
 62
3
100
AcDbSpline
 70
8
 71
3
 72
8
 73
4
 74
0
 40
0
 40
0
 40
0
 40
0
 40
1
 40
1
 40
1
 40
1
 10
105.920804
 20
-3.948766
 30
0.0
 10
106.427667
 20
-3.948766
 30
0.0
 10
106.777728
 20
-4.027167
 30
0.0
 10
106.969344
 20
-4.182419
 30
0.0
  0
SPLINE
  5
2bd
100
AcDbEntity
  8
Layer_1
 62
3
100
AcDbSpline
 70
8
 71
3
 72
8
 73
4
 74
0
 40
0
 40
0
 40
0
 40
0
 40
1
 40
1
 40
1
 40
1
 10
106.969344
 20
-4.182419
 30
0.0
 10
107.162666
 20
-4.339220
 30
0.0
 10
107.258458
 20
-4.616794
 30
0.0
 10
107.258458
 20
-5.015095
 30
0.0
  0
LINE
  5
2be
100
AcDbEntity
  8
Layer_1
 62
3
100
AcDbLine
 10
107.258458
 20
-5.015095
 30
0.0
 11
107.258458
 21
-5.115478
 31
0.0
  0
LINE
  5
2bf
100
AcDbEntity
  8
Layer_1
 62
3
100
AcDbLine
 10
107.258458
 20
-5.115478
 30
0.0
 11
106.150732
 21
-5.350677
 31
0.0
  0
LINE
  5
2c0
100
AcDbEntity
  8
Layer_1
 62
3
100
AcDbLine
 10
106.150732
 20
-5.350677
 30
0.0
 11
106.150732
 21
-4.798695
 31
0.0
  0
LINE
  5
2c1
100
AcDbEntity
  8
Layer_1
 62
3
100
AcDbLine
 10
38.974178
 20
-2.591428
 30
0.0
 11
109.923771
 21
-2.591428
 31
0.0
  0
SPLINE
  5
2c2
100
AcDbEntity
  8
Layer_1
 62
3
100
AcDbSpline
 70
8
 71
3
 72
8
 73
4
 74
0
 40
0
 40
0
 40
0
 40
0
 40
1
 40
1
 40
1
 40
1
 10
109.923771
 20
-2.591428
 30
0.0
 10
109.756280
 20
-2.741799
 30
0.0
 10
109.598752
 20
-2.901163
 30
0.0
 10
109.452079
 20
-3.068555
 30
0.0
  0
LINE
  5
2c3
100
AcDbEntity
  8
Layer_1
 62
3
100
AcDbLine
 10
109.452079
 20
-3.068555
 30
0.0
 11
38.974178
 21
-3.068555
 31
0.0
  0
SPLINE
  5
2c4
100
AcDbEntity
  8
Layer_1
 62
3
100
AcDbSpline
 70
8
 71
3
 72
8
 73
4
 74
0
 40
0
 40
0
 40
0
 40
0
 40
1
 40
1
 40
1
 40
1
 10
38.974178
 20
-3.068555
 30
0.0
 10
38.467607
 20
-3.068555
 30
0.0
 10
38.053147
 20
-3.501732
 30
0.0
 10
38.053147
 20
-4.031170
 30
0.0
  0
LINE
  5
2c5
100
AcDbEntity
  8
Layer_1
 62
3
100
AcDbLine
 10
38.053147
 20
-4.031170
 30
0.0
 11
38.053147
 21
-8.722924
 31
0.0
  0
SPLINE
  5
2c6
100
AcDbEntity
  8
Layer_1
 62
3
100
AcDbSpline
 70
8
 71
3
 72
8
 73
4
 74
0
 40
0
 40
0
 40
0
 40
0
 40
1
 40
1
 40
1
 40
1
 10
38.053147
 20
-8.722924
 30
0.0
 10
38.053147
 20
-9.252367
 30
0.0
 10
38.467607
 20
-9.685539
 30
0.0
 10
38.974178
 20
-9.685539
 30
0.0
  0
LINE
  5
2c7
100
AcDbEntity
  8
Layer_1
 62
3
100
AcDbLine
 10
38.974178
 20
-9.685539
 30
0.0
 11
109.452079
 21
-9.685539
 31
0.0
  0
SPLINE
  5
2c8
100
AcDbEntity
  8
Layer_1
 62
3
100
AcDbSpline
 70
8
 71
3
 72
8
 73
4
 74
0
 40
0
 40
0
 40
0
 40
0
 40
1
 40
1
 40
1
 40
1
 10
109.452079
 20
-9.685539
 30
0.0
 10
109.598752
 20
-9.852934
 30
0.0
 10
109.756280
 20
-10.012279
 30
0.0
 10
109.923731
 20
-10.162650
 30
0.0
  0
LINE
  5
2c9
100
AcDbEntity
  8
Layer_1
 62
3
100
AcDbLine
 10
109.923731
 20
-10.162650
 30
0.0
 11
38.974178
 21
-10.162650
 31
0.0
  0
SPLINE
  5
2ca
100
AcDbEntity
  8
Layer_1
 62
3
100
AcDbSpline
 70
8
 71
3
 72
8
 73
4
 74
0
 40
0
 40
0
 40
0
 40
0
 40
1
 40
1
 40
1
 40
1
 10
38.974178
 20
-10.162650
 30
0.0
 10
38.176167
 20
-10.162650
 30
0.0
 10
37.523235
 20
-9.514789
 30
0.0
 10
37.523235
 20
-8.722924
 30
0.0
  0
LINE
  5
2cb
100
AcDbEntity
  8
Layer_1
 62
3
100
AcDbLine
 10
37.523235
 20
-8.722924
 30
0.0
 11
37.523235
 21
-4.031162
 31
0.0
  0
SPLINE
  5
2cc
100
AcDbEntity
  8
Layer_1
 62
3
100
AcDbSpline
 70
8
 71
3
 72
8
 73
4
 74
0
 40
0
 40
0
 40
0
 40
0
 40
1
 40
1
 40
1
 40
1
 10
37.523235
 20
-4.031162
 30
0.0
 10
37.523235
 20
-3.239315
 30
0.0
 10
38.176167
 20
-2.591428
 30
0.0
 10
38.974178
 20
-2.591428
 30
0.0
  0
LINE
  5
2cd
100
AcDbEntity
  8
Layer_1
 62
3
100
AcDbLine
 10
38.974178
 20
-2.591428
 30
0.0
 11
38.974178
 21
-2.591428
 31
0.0
  0
LINE
  5
2ce
100
AcDbEntity
  8
Layer_1
 62
3
100
AcDbLine
 10
129.270467
 20
-2.590064
 30
0.0
 11
200.368946
 21
-2.590064
 31
0.0
  0
SPLINE
  5
2cf
100
AcDbEntity
  8
Layer_1
 62
3
100
AcDbSpline
 70
8
 71
3
 72
8
 73
4
 74
0
 40
0
 40
0
 40
0
 40
0
 40
1
 40
1
 40
1
 40
1
 10
200.368946
 20
-2.590064
 30
0.0
 10
201.087693
 20
-2.590064
 30
0.0
 10
201.675771
 20
-3.238184
 30
0.0
 10
201.675771
 20
-4.030317
 30
0.0
  0
LINE
  5
2d0
100
AcDbEntity
  8
Layer_1
 62
3
100
AcDbLine
 10
201.675771
 20
-4.030317
 30
0.0
 11
201.675771
 21
-8.723772
 31
0.0
  0
SPLINE
  5
2d1
100
AcDbEntity
  8
Layer_1
 62
3
100
AcDbSpline
 70
8
 71
3
 72
8
 73
4
 74
0
 40
0
 40
0
 40
0
 40
0
 40
1
 40
1
 40
1
 40
1
 10
201.675771
 20
-8.723772
 30
0.0
 10
201.675771
 20
-9.515923
 30
0.0
 10
201.087693
 20
-10.164016
 30
0.0
 10
200.368946
 20
-10.164016
 30
0.0
  0
LINE
  5
2d2
100
AcDbEntity
  8
Layer_1
 62
3
100
AcDbLine
 10
200.368946
 20
-10.164016
 30
0.0
 11
129.270483
 21
-10.164016
 31
0.0
  0
SPLINE
  5
2d3
100
AcDbEntity
  8
Layer_1
 62
3
100
AcDbSpline
 70
8
 71
3
 72
8
 73
4
 74
0
 40
0
 40
0
 40
0
 40
0
 40
1
 40
1
 40
1
 40
1
 10
129.270483
 20
-10.164016
 30
0.0
 10
129.421309
 20
-10.013589
 30
0.0
 10
129.563191
 20
-9.854188
 30
0.0
 10
129.695295
 20
-9.686737
 30
0.0
  0
LINE
  5
2d4
100
AcDbEntity
  8
Layer_1
 62
3
100
AcDbLine
 10
129.695295
 20
-9.686737
 30
0.0
 11
200.368930
 21
-9.686737
 31
0.0
  0
SPLINE
  5
2d5
100
AcDbEntity
  8
Layer_1
 62
3
100
AcDbSpline
 70
8
 71
3
 72
8
 73
4
 74
0
 40
0
 40
0
 40
0
 40
0
 40
1
 40
1
 40
1
 40
1
 10
200.368930
 20
-9.686737
 30
0.0
 10
200.825183
 20
-9.686737
 30
0.0
 10
201.198477
 20
-9.253405
 30
0.0
 10
201.198477
 20
-8.723772
 30
0.0
  0
LINE
  5
2d6
100
AcDbEntity
  8
Layer_1
 62
3
100
AcDbLine
 10
201.198477
 20
-8.723772
 30
0.0
 11
201.198477
 21
-4.030324
 31
0.0
  0
SPLINE
  5
2d7
100
AcDbEntity
  8
Layer_1
 62
3
100
AcDbSpline
 70
8
 71
3
 72
8
 73
4
 74
0
 40
0
 40
0
 40
0
 40
0
 40
1
 40
1
 40
1
 40
1
 10
201.198477
 20
-4.030324
 30
0.0
 10
201.198477
 20
-3.500696
 30
0.0
 10
200.825183
 20
-3.067363
 30
0.0
 10
200.368930
 20
-3.067363
 30
0.0
  0
LINE
  5
2d8
100
AcDbEntity
  8
Layer_1
 62
3
100
AcDbLine
 10
200.368930
 20
-3.067363
 30
0.0
 11
129.695295
 21
-3.067363
 31
0.0
  0
SPLINE
  5
2d9
100
AcDbEntity
  8
Layer_1
 62
3
100
AcDbSpline
 70
8
 71
3
 72
8
 73
4
 74
0
 40
0
 40
0
 40
0
 40
0
 40
1
 40
1
 40
1
 40
1
 10
129.695295
 20
-3.067363
 30
0.0
 10
129.563191
 20
-2.899910
 30
0.0
 10
129.421309
 20
-2.740489
 30
0.0
 10
129.270467
 20
-2.590064
 30
0.0
  0
LINE
  5
2da
100
AcDbEntity
  8
Layer_1
 62
3
100
AcDbLine
 10
129.270467
 20
-2.590064
 30
0.0
 11
129.270467
 21
-2.590064
 31
0.0
  0
SPLINE
  5
2db
100
AcDbEntity
  8
Layer_1
 62
7
100
AcDbSpline
 70
8
 71
3
 72
8
 73
4
 74
0
 40
0
 40
0
 40
0
 40
0
 40
1
 40
1
 40
1
 40
1
 10
204.052190
 20
3.960530
 30
0.0
 10
204.754550
 20
2.625790
 30
0.0
 10
204.803390
 20
-0.256520
 30
0.0
 10
204.803390
 20
-0.256520
 30
0.0
  0
LINE
  5
2dc
100
AcDbEntity
  8
Layer_1
 62
7
100
AcDbLine
 10
204.803390
 20
-0.256520
 30
0.0
 11
204.803390
 21
-23.190560
 31
0.0
  0
LINE
  5
2dd
100
AcDbEntity
  8
Layer_1
 62
7
100
AcDbLine
 10
204.803390
 20
-23.190560
 30
0.0
 11
212.007540
 21
-23.190560
 31
0.0
  0
LINE
  5
2de
100
AcDbEntity
  8
Layer_1
 62
7
100
AcDbLine
 10
212.007540
 20
-23.190560
 30
0.0
 11
212.007540
 21
-28.146180
 31
0.0
  0
LINE
  5
2df
100
AcDbEntity
  8
Layer_1
 62
7
100
AcDbLine
 10
212.007540
 20
-28.146180
 30
0.0
 11
27.191466
 21
-28.146180
 31
0.0
  0
LINE
  5
2e0
100
AcDbEntity
  8
Layer_1
 62
7
100
AcDbLine
 10
27.191466
 20
-28.146180
 30
0.0
 11
27.191466
 21
-23.190560
 31
0.0
  0
LINE
  5
2e1
100
AcDbEntity
  8
Layer_1
 62
7
100
AcDbLine
 10
27.191466
 20
-23.190560
 30
0.0
 11
34.401872
 21
-23.190560
 31
0.0
  0
LINE
  5
2e2
100
AcDbEntity
  8
Layer_1
 62
7
100
AcDbLine
 10
34.401872
 20
-23.190560
 30
0.0
 11
34.401872
 21
-0.523790
 31
0.0
  0
SPLINE
  5
2e3
100
AcDbEntity
  8
Layer_1
 62
7
100
AcDbSpline
 70
8
 71
3
 72
8
 73
4
 74
0
 40
0
 40
0
 40
0
 40
0
 40
1
 40
1
 40
1
 40
1
 10
34.401872
 20
-0.523790
 30
0.0
 10
34.401872
 20
-0.523790
 30
0.0
 10
34.304012
 20
3.229010
 30
0.0
 10
35.512177
 20
4.399870
 30
0.0
  0
SPLINE
  5
2e4
100
AcDbEntity
  8
Layer_1
 62
7
100
AcDbSpline
 70
8
 71
3
 72
8
 73
4
 74
0
 40
0
 40
0
 40
0
 40
0
 40
1
 40
1
 40
1
 40
1
 10
35.512177
 20
4.399870
 30
0.0
 10
36.497934
 20
5.355200
 30
0.0
 10
39.555889
 20
5.179420
 30
0.0
 10
39.555889
 20
5.179420
 30
0.0
  0
SPLINE
  5
2e5
100
AcDbEntity
  8
Layer_1
 62
7
100
AcDbSpline
 70
8
 71
3
 72
8
 73
4
 74
0
 40
0
 40
0
 40
0
 40
0
 40
1
 40
1
 40
1
 40
1
 10
39.555889
 20
5.179420
 30
0.0
 10
151.903090
 20
5.178760
 30
0.0
 10
187.869590
 20
5.179020
 30
0.0
 10
199.383090
 20
5.179240
 30
0.0
  0
SPLINE
  5
2e6
100
AcDbEntity
  8
Layer_1
 62
7
100
AcDbSpline
 70
8
 71
3
 72
8
 73
4
 74
0
 40
0
 40
0
 40
0
 40
0
 40
1
 40
1
 40
1
 40
1
 10
199.383090
 20
5.179240
 30
0.0
 10
204.867310
 20
5.179350
 30
0.0
 10
203.348900
 20
5.297030
 30
0.0
 10
204.052190
 20
3.960530
 30
0.0
  0
LINE
  5
2e7
100
AcDbEntity
  8
Layer_1
 62
7
100
AcDbLine
 10
204.052190
 20
3.960530
 30
0.0
 11
204.052190
 21
3.960530
 31
0.0
  0
ENDSEC
  0
SECTION
  2
OBJECTS
  0
DICTIONARY
  5
C
330
0
100
AcDbDictionary
  3
ACAD_GROUP
350
D
  3
ACAD_MLINESTYLE
350
17
  0
DICTIONARY
  5
D
330
C
100
AcDbDictionary
  0
DICTIONARY
  5
1A
330
C
100
AcDbDictionary
  0
DICTIONARY
  5
17
330
C
100
AcDbDictionary
  3
STANDARD
350
18
  0
DICTIONARY
  5
19
330
C
100
AcDbDictionary
  0
ENDSEC
  0
EOF
