  0
SECTION
  2
HEADER
  9
$ACADVER
  1
AC1014
  9
$HANDSEED
  5
FFFF
  9
$MEASUREMENT
 70
     1
  0
ENDSEC
  0
SECTION
  2
TABLES
  0
TABLE
  2
VPORT
  5
8
330
0
100
AcDbSymbolTable
 70
     4
  0
VPORT
  5
2E
330
8
100
AcDbSymbolTableRecord
100
AcDbViewportTableRecord
  2
*ACTIVE
 70
     0
 10
0.0
 20
0.0
 11
1.0
 21
1.0
 12
210.0
 22
148.5
 13
0.0
 23
0.0
 14
10.0
 24
10.0
 15
10.0
 25
10.0
 16
0.0
 26
0.0
 36
1.0
 17
0.0
 27
0.0
 37
0.0
 40
341.0
 41
1.24
 42
50.0
 43
0.0
 44
0.0
 50
0.0
 51
0.0
 71
     0
 72
   100
 73
     1
 74
     3
 75
     0
 76
     0
 77
     0
 78
     0
  0
ENDTAB
  0
TABLE
  2
LTYPE
  5
5
330
0
100
AcDbSymbolTable
 70
     1
  0
LTYPE
  5
14
330
5
100
AcDbSymbolTableRecord
100
AcDbLinetypeTableRecord
  2
BYBLOCK
 70
     0
  3

 72
    65
 73
     0
 40
0.0
  0
LTYPE
  5
15
330
5
100
AcDbSymbolTableRecord
100
AcDbLinetypeTableRecord
  2
BYLAYER
 70
     0
  3

 72
    65
 73
     0
 40
0.0
  0
LTYPE
  5
16
330
5
100
AcDbSymbolTableRecord
100
AcDbLinetypeTableRecord
  2
CONTINUOUS
 70
     0
  3
Solid line
 72
    65
 73
     0
 40
0.0
  0
ENDTAB
  0
TABLE
  2
LAYER
  5
2
100
AcDbSymbolTable
 70
1
  0
LAYER
  5
50
100
AcDbSymbolTableRecord
100
AcDbLayerTableRecord
  2
0
 70
0
  6
CONTINUOUS
  0
ENDTAB
  0
TABLE
  2
STYLE
  5
3
330
0
100
AcDbSymbolTable
 70
     1
  0
STYLE
  5
11
330
3
100
AcDbSymbolTableRecord
100
AcDbTextStyleTableRecord
  2
STANDARD
 70
     0
 40
0.0
 41
1.0
 50
0.0
 71
     0
 42
2.5
  3
txt
  4

  0
ENDTAB
  0
TABLE
  2
VIEW
  5
6
330
0
100
AcDbSymbolTable
 70
     0
  0
ENDTAB
  0
TABLE
  2
UCS
  5
7
330
0
100
AcDbSymbolTable
 70
     0
  0
ENDTAB
  0
TABLE
  2
APPID
  5
9
330
0
100
AcDbSymbolTable
 70
     2
  0
APPID
  5
12
330
9
100
AcDbSymbolTableRecord
100
AcDbRegAppTableRecord
  2
ACAD
 70
     0
  0
ENDTAB
  0
TABLE
  2
DIMSTYLE
  5
A
330
0
100
AcDbSymbolTable
 70
     1
  0
DIMSTYLE
105
27
330
A
100
AcDbSymbolTableRecord
100
AcDbDimStyleTableRecord
  2
ISO-25
 70
     0
  3

  4

  5

  6

  7

 40
1.0
 41
2.5
 42
0.625
 43
3.75
 44
1.25
 45
0.0
 46
0.0
 47
0.0
 48
0.0
140
2.5
141
2.5
142
0.0
143
0.03937007874016
144
1.0
145
0.0
146
1.0
147
0.625
 71
     0
 72
     0
 73
     0
 74
     0
 75
     0
 76
     0
 77
     1
 78
     8
170
     0
171
     3
172
     1
173
     0
174
     0
175
     0
176
     0
177
     0
178
     0
270
     2
271
     2
272
     2
273
     2
274
     3
340
11
275
     0
280
     0
281
     0
282
     0
283
     0
284
     8
285
     0
286
     0
287
     3
288
     0
  0
ENDTAB
  0
TABLE
  2
BLOCK_RECORD
  5
1
330
0
100
AcDbSymbolTable
 70
     1
  0
BLOCK_RECORD
  5
1F
330
1
100
AcDbSymbolTableRecord
100
AcDbBlockTableRecord
  2
*MODEL_SPACE
  0
BLOCK_RECORD
  5
1B
330
1
100
AcDbSymbolTableRecord
100
AcDbBlockTableRecord
  2
*PAPER_SPACE
  0
ENDTAB
  0
ENDSEC
  0
SECTION
  2
BLOCKS
  0
BLOCK
  5
20
330
1F
100
AcDbEntity
  8
0
100
AcDbBlockBegin
  2
*MODEL_SPACE
 70
     0
 10
0.0
 20
0.0
 30
0.0
  3
*MODEL_SPACE
  1

  0
ENDBLK
  5
21
330
1F
100
AcDbEntity
  8
0
100
AcDbBlockEnd
  0
BLOCK
  5
1C
330
1B
100
AcDbEntity
 67
     1
  8
0
100
AcDbBlockBegin
  2
*PAPER_SPACE
  1

  0
ENDBLK
  5
1D
330
1B
100
AcDbEntity
 67
     1
  8
0
100
AcDbBlockEnd
  0
ENDSEC
  0
SECTION
  2
ENTITIES
  0
SPLINE
  5
100
100
AcDbEntity
  8
0
 62
7
100
AcDbSpline
 70
8
 71
3
 72
8
 73
4
 74
0
 40
0
 40
0
 40
0
 40
0
 40
1
 40
1
 40
1
 40
1
 10
187.561303
 20
38.074043
 30
0.0
 10
187.577673
 20
34.721550
 30
0.0
 10
186.041130
 20
31.552520
 30
0.0
 10
183.947973
 20
29.006832
 30
0.0
  0
SPLINE
  5
101
100
AcDbEntity
  8
0
 62
7
100
AcDbSpline
 70
8
 71
3
 72
8
 73
4
 74
0
 40
0
 40
0
 40
0
 40
0
 40
1
 40
1
 40
1
 40
1
 10
183.947973
 20
29.006832
 30
0.0
 10
180.358718
 20
24.677332
 30
0.0
 10
175.486915
 20
21.645610
 30
0.0
 10
170.516214
 20
19.136602
 30
0.0
  0
SPLINE
  5
102
100
AcDbEntity
  8
0
 62
7
100
AcDbSpline
 70
8
 71
3
 72
8
 73
4
 74
0
 40
0
 40
0
 40
0
 40
0
 40
1
 40
1
 40
1
 40
1
 10
170.516214
 20
19.136602
 30
0.0
 10
164.813069
 20
16.383288
 30
0.0
 10
158.902999
 20
14.177643
 30
0.0
 10
152.786002
 20
12.519669
 30
0.0
  0
SPLINE
  5
103
100
AcDbEntity
  8
0
 62
7
100
AcDbSpline
 70
8
 71
3
 72
8
 73
4
 74
0
 40
0
 40
0
 40
0
 40
0
 40
1
 40
1
 40
1
 40
1
 10
152.786002
 20
12.519669
 30
0.0
 10
134.507839
 20
7.487702
 30
0.0
 10
115.477090
 20
5.634712
 30
0.0
 10
96.559928
 20
5.574043
 30
0.0
  0
SPLINE
  5
104
100
AcDbEntity
  8
0
 62
7
100
AcDbSpline
 70
8
 71
3
 72
8
 73
4
 74
0
 40
0
 40
0
 40
0
 40
0
 40
1
 40
1
 40
1
 40
1
 10
96.559928
 20
5.574043
 30
0.0
 10
77.797741
 20
5.632269
 30
0.0
 10
58.928099
 20
7.460652
 30
0.0
 10
40.784546
 20
12.394005
 30
0.0
  0
SPLINE
  5
105
100
AcDbEntity
  8
0
 62
7
100
AcDbSpline
 70
8
 71
3
 72
8
 73
4
 74
0
 40
0
 40
0
 40
0
 40
0
 40
1
 40
1
 40
1
 40
1
 10
40.784546
 20
12.394005
 30
0.0
 10
32.646283
 20
14.680977
 30
0.0
 10
24.579517
 20
17.575701
 30
0.0
 10
17.372012
 20
22.060404
 30
0.0
  0
SPLINE
  5
106
100
AcDbEntity
  8
0
 62
7
100
AcDbSpline
 70
8
 71
3
 72
8
 73
4
 74
0
 40
0
 40
0
 40
0
 40
0
 40
1
 40
1
 40
1
 40
1
 10
17.372012
 20
22.060404
 30
0.0
 10
12.454917
 20
25.213646
 30
0.0
 10
7.476048
 20
29.342300
 30
0.0
 10
5.910402
 20
35.218879
 30
0.0
  0
SPLINE
  5
107
100
AcDbEntity
  8
0
 62
7
100
AcDbSpline
 70
8
 71
3
 72
8
 73
4
 74
0
 40
0
 40
0
 40
0
 40
0
 40
1
 40
1
 40
1
 40
1
 10
5.910402
 20
35.218879
 30
0.0
 10
4.782997
 20
39.442398
 30
0.0
 10
6.435620
 20
43.903829
 30
0.0
 10
9.171884
 20
47.141254
 30
0.0
  0
SPLINE
  5
108
100
AcDbEntity
  8
0
 62
7
100
AcDbSpline
 70
8
 71
3
 72
8
 73
4
 74
0
 40
0
 40
0
 40
0
 40
0
 40
1
 40
1
 40
1
 40
1
 10
9.171884
 20
47.141254
 30
0.0
 10
10.801789
 20
49.085957
 30
0.0
 10
12.648767
 20
50.798974
 30
0.0
 10
14.712816
 20
52.280305
 30
0.0
  0
SPLINE
  5
109
100
AcDbEntity
  8
0
 62
7
100
AcDbSpline
 70
8
 71
3
 72
8
 73
4
 74
0
 40
0
 40
0
 40
0
 40
0
 40
1
 40
1
 40
1
 40
1
 10
14.712816
 20
52.280305
 30
0.0
 10
22.364630
 20
57.776972
 30
0.0
 10
31.345175
 20
61.047775
 30
0.0
 10
40.333856
 20
63.628417
 30
0.0
  0
SPLINE
  5
10a
100
AcDbEntity
  8
0
 62
7
100
AcDbSpline
 70
8
 71
3
 72
8
 73
4
 74
0
 40
0
 40
0
 40
0
 40
0
 40
1
 40
1
 40
1
 40
1
 10
40.333856
 20
63.628417
 30
0.0
 10
58.612019
 20
68.660384
 30
0.0
 10
77.642768
 20
70.513374
 30
0.0
 10
96.559930
 20
70.574043
 30
0.0
  0
SPLINE
  5
10b
100
AcDbEntity
  8
0
 62
7
100
AcDbSpline
 70
8
 71
3
 72
8
 73
4
 74
0
 40
0
 40
0
 40
0
 40
0
 40
1
 40
1
 40
1
 40
1
 10
96.559930
 20
70.574043
 30
0.0
 10
115.322117
 20
70.515817
 30
0.0
 10
134.191759
 20
68.687434
 30
0.0
 10
152.335312
 20
63.754081
 30
0.0
  0
SPLINE
  5
10c
100
AcDbEntity
  8
0
 62
7
100
AcDbSpline
 70
8
 71
3
 72
8
 73
4
 74
0
 40
0
 40
0
 40
0
 40
0
 40
1
 40
1
 40
1
 40
1
 10
152.335312
 20
63.754081
 30
0.0
 10
160.473575
 20
61.467109
 30
0.0
 10
168.540341
 20
58.572385
 30
0.0
 10
175.747846
 20
54.087682
 30
0.0
  0
SPLINE
  5
10d
100
AcDbEntity
  8
0
 62
7
100
AcDbSpline
 70
8
 71
3
 72
8
 73
4
 74
0
 40
0
 40
0
 40
0
 40
0
 40
1
 40
1
 40
1
 40
1
 10
175.747846
 20
54.087682
 30
0.0
 10
178.074133
 20
52.651083
 30
0.0
 10
180.218641
 20
50.982864
 30
0.0
 10
182.181371
 20
49.083025
 30
0.0
  0
SPLINE
  5
10e
100
AcDbEntity
  8
0
 62
7
100
AcDbSpline
 70
8
 71
3
 72
8
 73
4
 74
0
 40
0
 40
0
 40
0
 40
0
 40
1
 40
1
 40
1
 40
1
 10
182.181371
 20
49.083025
 30
0.0
 10
185.135799
 20
46.182845
 30
0.0
 10
187.575675
 20
42.343832
 30
0.0
 10
187.561303
 20
38.074043
 30
0.0
  0
SPLINE
  5
10f
100
AcDbEntity
  8
0
 62
7
100
AcDbSpline
 70
8
 71
3
 72
8
 73
4
 74
0
 40
0
 40
0
 40
0
 40
0
 40
1
 40
1
 40
1
 40
1
 10
183.409929
 20
38.074043
 30
0.0
 10
183.409929
 20
38.377719
 30
0.0
 10
183.247920
 20
38.658327
 30
0.0
 10
182.984929
 20
38.810165
 30
0.0
  0
SPLINE
  5
110
100
AcDbEntity
  8
0
 62
7
100
AcDbSpline
 70
8
 71
3
 72
8
 73
4
 74
0
 40
0
 40
0
 40
0
 40
0
 40
1
 40
1
 40
1
 40
1
 10
182.984929
 20
38.810165
 30
0.0
 10
182.721938
 20
38.962003
 30
0.0
 10
182.397920
 20
38.962003
 30
0.0
 10
182.134929
 20
38.810165
 30
0.0
  0
SPLINE
  5
111
100
AcDbEntity
  8
0
 62
7
100
AcDbSpline
 70
8
 71
3
 72
8
 73
4
 74
0
 40
0
 40
0
 40
0
 40
0
 40
1
 40
1
 40
1
 40
1
 10
182.134929
 20
38.810165
 30
0.0
 10
181.871938
 20
38.658327
 30
0.0
 10
181.709929
 20
38.377719
 30
0.0
 10
181.709929
 20
38.074043
 30
0.0
  0
SPLINE
  5
112
100
AcDbEntity
  8
0
 62
7
100
AcDbSpline
 70
8
 71
3
 72
8
 73
4
 74
0
 40
0
 40
0
 40
0
 40
0
 40
1
 40
1
 40
1
 40
1
 10
181.709929
 20
38.074043
 30
0.0
 10
181.709929
 20
37.770367
 30
0.0
 10
181.871938
 20
37.489759
 30
0.0
 10
182.134929
 20
37.337922
 30
0.0
  0
SPLINE
  5
113
100
AcDbEntity
  8
0
 62
7
100
AcDbSpline
 70
8
 71
3
 72
8
 73
4
 74
0
 40
0
 40
0
 40
0
 40
0
 40
1
 40
1
 40
1
 40
1
 10
182.134929
 20
37.337922
 30
0.0
 10
182.397920
 20
37.186084
 30
0.0
 10
182.721938
 20
37.186084
 30
0.0
 10
182.984929
 20
37.337922
 30
0.0
  0
SPLINE
  5
114
100
AcDbEntity
  8
0
 62
7
100
AcDbSpline
 70
8
 71
3
 72
8
 73
4
 74
0
 40
0
 40
0
 40
0
 40
0
 40
1
 40
1
 40
1
 40
1
 10
182.984929
 20
37.337922
 30
0.0
 10
183.247920
 20
37.489759
 30
0.0
 10
183.409929
 20
37.770367
 30
0.0
 10
183.409929
 20
38.074043
 30
0.0
  0
LINE
  5
115
100
AcDbEntity
  8
0
 62
7
100
AcDbLine
 10
183.409929
 20
38.074043
 30
0.0
 11
183.409929
 21
38.074043
 31
0.0
  0
SPLINE
  5
116
100
AcDbEntity
  8
0
 62
7
100
AcDbSpline
 70
8
 71
3
 72
8
 73
4
 74
0
 40
0
 40
0
 40
0
 40
0
 40
1
 40
1
 40
1
 40
1
 10
11.409929
 20
38.074043
 30
0.0
 10
11.409929
 20
38.377719
 30
0.0
 10
11.247920
 20
38.658327
 30
0.0
 10
10.984929
 20
38.810165
 30
0.0
  0
SPLINE
  5
117
100
AcDbEntity
  8
0
 62
7
100
AcDbSpline
 70
8
 71
3
 72
8
 73
4
 74
0
 40
0
 40
0
 40
0
 40
0
 40
1
 40
1
 40
1
 40
1
 10
10.984929
 20
38.810165
 30
0.0
 10
10.721938
 20
38.962003
 30
0.0
 10
10.397920
 20
38.962003
 30
0.0
 10
10.134929
 20
38.810165
 30
0.0
  0
SPLINE
  5
118
100
AcDbEntity
  8
0
 62
7
100
AcDbSpline
 70
8
 71
3
 72
8
 73
4
 74
0
 40
0
 40
0
 40
0
 40
0
 40
1
 40
1
 40
1
 40
1
 10
10.134929
 20
38.810165
 30
0.0
 10
9.871938
 20
38.658327
 30
0.0
 10
9.709929
 20
38.377719
 30
0.0
 10
9.709929
 20
38.074043
 30
0.0
  0
SPLINE
  5
119
100
AcDbEntity
  8
0
 62
7
100
AcDbSpline
 70
8
 71
3
 72
8
 73
4
 74
0
 40
0
 40
0
 40
0
 40
0
 40
1
 40
1
 40
1
 40
1
 10
9.709929
 20
38.074043
 30
0.0
 10
9.709929
 20
37.604601
 30
0.0
 10
10.090487
 20
37.224043
 30
0.0
 10
10.559929
 20
37.224043
 30
0.0
  0
SPLINE
  5
11a
100
AcDbEntity
  8
0
 62
7
100
AcDbSpline
 70
8
 71
3
 72
8
 73
4
 74
0
 40
0
 40
0
 40
0
 40
0
 40
1
 40
1
 40
1
 40
1
 10
10.559929
 20
37.224043
 30
0.0
 10
11.029371
 20
37.224043
 30
0.0
 10
11.409929
 20
37.604601
 30
0.0
 10
11.409929
 20
38.074043
 30
0.0
  0
LINE
  5
11b
100
AcDbEntity
  8
0
 62
7
100
AcDbLine
 10
11.409929
 20
38.074043
 30
0.0
 11
11.409929
 21
38.074043
 31
0.0
  0
LINE
  5
11c
100
AcDbEntity
  8
0
 62
7
100
AcDbLine
 10
283.115477
 20
72.858203
 30
0.0
 11
288.115477
 21
72.858203
 31
0.0
  0
LINE
  5
11d
100
AcDbEntity
  8
0
 62
7
100
AcDbLine
 10
288.115477
 20
72.858203
 30
0.0
 11
288.115477
 21
92.858203
 31
0.0
  0
LINE
  5
11e
100
AcDbEntity
  8
0
 62
7
100
AcDbLine
 10
288.115477
 20
92.858203
 30
0.0
 11
285.115477
 21
92.858203
 31
0.0
  0
LINE
  5
11f
100
AcDbEntity
  8
0
 62
7
100
AcDbLine
 10
285.115477
 20
92.858203
 30
0.0
 11
285.115477
 21
98.358203
 31
0.0
  0
LINE
  5
120
100
AcDbEntity
  8
0
 62
7
100
AcDbLine
 10
285.115477
 20
98.358203
 30
0.0
 11
362.615477
 21
98.358203
 31
0.0
  0
LINE
  5
121
100
AcDbEntity
  8
0
 62
7
100
AcDbLine
 10
362.615477
 20
98.358203
 30
0.0
 11
362.615477
 21
108.358203
 31
0.0
  0
LINE
  5
122
100
AcDbEntity
  8
0
 62
7
100
AcDbLine
 10
362.615477
 20
108.358203
 30
0.0
 11
285.115477
 21
108.358203
 31
0.0
  0
LINE
  5
123
100
AcDbEntity
  8
0
 62
7
100
AcDbLine
 10
285.115477
 20
108.358203
 30
0.0
 11
273.115477
 21
108.358203
 31
0.0
  0
LINE
  5
124
100
AcDbEntity
  8
0
 62
7
100
AcDbLine
 10
273.115477
 20
108.358203
 30
0.0
 11
195.615477
 21
108.358203
 31
0.0
  0
LINE
  5
125
100
AcDbEntity
  8
0
 62
7
100
AcDbLine
 10
195.615477
 20
108.358203
 30
0.0
 11
195.615477
 21
98.358203
 31
0.0
  0
LINE
  5
126
100
AcDbEntity
  8
0
 62
7
100
AcDbLine
 10
195.615477
 20
98.358203
 30
0.0
 11
273.115477
 21
98.358203
 31
0.0
  0
LINE
  5
127
100
AcDbEntity
  8
0
 62
7
100
AcDbLine
 10
273.115477
 20
98.358203
 30
0.0
 11
273.115477
 21
92.858203
 31
0.0
  0
LINE
  5
128
100
AcDbEntity
  8
0
 62
7
100
AcDbLine
 10
273.115477
 20
92.858203
 30
0.0
 11
270.115477
 21
92.858203
 31
0.0
  0
LINE
  5
129
100
AcDbEntity
  8
0
 62
7
100
AcDbLine
 10
270.115477
 20
92.858203
 30
0.0
 11
270.115477
 21
72.858203
 31
0.0
  0
LINE
  5
12a
100
AcDbEntity
  8
0
 62
7
100
AcDbLine
 10
270.115477
 20
72.858203
 30
0.0
 11
275.115477
 21
72.858203
 31
0.0
  0
LINE
  5
12b
100
AcDbEntity
  8
0
 62
7
100
AcDbLine
 10
275.115477
 20
72.858203
 30
0.0
 11
275.115477
 21
70.889614
 31
0.0
  0
SPLINE
  5
12c
100
AcDbEntity
  8
0
 62
7
100
AcDbSpline
 70
8
 71
3
 72
8
 73
4
 74
0
 40
0
 40
0
 40
0
 40
0
 40
1
 40
1
 40
1
 40
1
 10
275.115477
 20
70.889614
 30
0.0
 10
263.456047
 20
71.044721
 30
0.0
 10
251.873877
 20
72.065291
 30
0.0
 10
240.368977
 20
73.951324
 30
0.0
  0
SPLINE
  5
12d
100
AcDbEntity
  8
0
 62
7
100
AcDbSpline
 70
8
 71
3
 72
8
 73
4
 74
0
 40
0
 40
0
 40
0
 40
0
 40
1
 40
1
 40
1
 40
1
 10
240.368977
 20
73.951324
 30
0.0
 10
229.531967
 20
75.802170
 30
0.0
 10
218.750697
 20
78.426854
 30
0.0
 10
208.634627
 20
82.799673
 30
0.0
  0
SPLINE
  5
12e
100
AcDbEntity
  8
0
 62
7
100
AcDbSpline
 70
8
 71
3
 72
8
 73
4
 74
0
 40
0
 40
0
 40
0
 40
0
 40
1
 40
1
 40
1
 40
1
 10
208.634627
 20
82.799673
 30
0.0
 10
203.168987
 20
85.219597
 30
0.0
 10
197.800767
 20
88.142712
 30
0.0
 10
193.494027
 20
92.349221
 30
0.0
  0
SPLINE
  5
12f
100
AcDbEntity
  8
0
 62
7
100
AcDbSpline
 70
8
 71
3
 72
8
 73
4
 74
0
 40
0
 40
0
 40
0
 40
0
 40
1
 40
1
 40
1
 40
1
 10
193.494027
 20
92.349221
 30
0.0
 10
191.069320
 20
94.619359
 30
0.0
 10
189.393292
 20
97.337298
 30
0.0
 10
188.465947
 20
100.503039
 30
0.0
  0
SPLINE
  5
130
100
AcDbEntity
  8
0
 62
7
100
AcDbSpline
 70
8
 71
3
 72
8
 73
4
 74
0
 40
0
 40
0
 40
0
 40
0
 40
1
 40
1
 40
1
 40
1
 10
188.465947
 20
100.503039
 30
0.0
 10
187.338542
 20
104.726558
 30
0.0
 10
188.991165
 20
109.187989
 30
0.0
 10
191.727429
 20
112.425414
 30
0.0
  0
SPLINE
  5
131
100
AcDbEntity
  8
0
 62
7
100
AcDbSpline
 70
8
 71
3
 72
8
 73
4
 74
0
 40
0
 40
0
 40
0
 40
0
 40
1
 40
1
 40
1
 40
1
 10
191.727429
 20
112.425414
 30
0.0
 10
195.316687
 20
116.754914
 30
0.0
 10
200.188487
 20
119.786636
 30
0.0
 10
205.159187
 20
122.295644
 30
0.0
  0
SPLINE
  5
132
100
AcDbEntity
  8
0
 62
7
100
AcDbSpline
 70
8
 71
3
 72
8
 73
4
 74
0
 40
0
 40
0
 40
0
 40
0
 40
1
 40
1
 40
1
 40
1
 10
205.159187
 20
122.295644
 30
0.0
 10
210.862337
 20
125.048958
 30
0.0
 10
216.772407
 20
127.254603
 30
0.0
 10
222.889397
 20
128.912577
 30
0.0
  0
SPLINE
  5
133
100
AcDbEntity
  8
0
 62
7
100
AcDbSpline
 70
8
 71
3
 72
8
 73
4
 74
0
 40
0
 40
0
 40
0
 40
0
 40
1
 40
1
 40
1
 40
1
 10
222.889397
 20
128.912577
 30
0.0
 10
241.167567
 20
133.944544
 30
0.0
 10
260.198307
 20
135.797534
 30
0.0
 10
279.115477
 20
135.858203
 30
0.0
  0
SPLINE
  5
134
100
AcDbEntity
  8
0
 62
7
100
AcDbSpline
 70
8
 71
3
 72
8
 73
4
 74
0
 40
0
 40
0
 40
0
 40
0
 40
1
 40
1
 40
1
 40
1
 10
279.115477
 20
135.858203
 30
0.0
 10
292.117327
 20
135.890993
 30
0.0
 10
305.032827
 20
134.859956
 30
0.0
 10
317.861977
 20
132.765082
 30
0.0
  0
SPLINE
  5
135
100
AcDbEntity
  8
0
 62
7
100
AcDbSpline
 70
8
 71
3
 72
8
 73
4
 74
0
 40
0
 40
0
 40
0
 40
0
 40
1
 40
1
 40
1
 40
1
 10
317.861977
 20
132.765082
 30
0.0
 10
328.698977
 20
130.914236
 30
0.0
 10
339.480247
 20
128.289552
 30
0.0
 10
349.596317
 20
123.916733
 30
0.0
  0
SPLINE
  5
136
100
AcDbEntity
  8
0
 62
7
100
AcDbSpline
 70
8
 71
3
 72
8
 73
4
 74
0
 40
0
 40
0
 40
0
 40
0
 40
1
 40
1
 40
1
 40
1
 10
349.596317
 20
123.916733
 30
0.0
 10
355.061957
 20
121.496809
 30
0.0
 10
360.430177
 20
118.573694
 30
0.0
 10
364.736917
 20
114.367185
 30
0.0
  0
SPLINE
  5
137
100
AcDbEntity
  8
0
 62
7
100
AcDbSpline
 70
8
 71
3
 72
8
 73
4
 74
0
 40
0
 40
0
 40
0
 40
0
 40
1
 40
1
 40
1
 40
1
 10
364.736917
 20
114.367185
 30
0.0
 10
367.691347
 20
111.467005
 30
0.0
 10
370.131217
 20
107.627992
 30
0.0
 10
370.116847
 20
103.358203
 30
0.0
  0
SPLINE
  5
138
100
AcDbEntity
  8
0
 62
7
100
AcDbSpline
 70
8
 71
3
 72
8
 73
4
 74
0
 40
0
 40
0
 40
0
 40
0
 40
1
 40
1
 40
1
 40
1
 10
370.116847
 20
103.358203
 30
0.0
 10
370.133247
 20
100.005710
 30
0.0
 10
368.596677
 20
96.836680
 30
0.0
 10
366.503517
 20
94.290992
 30
0.0
  0
SPLINE
  5
139
100
AcDbEntity
  8
0
 62
7
100
AcDbSpline
 70
8
 71
3
 72
8
 73
4
 74
0
 40
0
 40
0
 40
0
 40
0
 40
1
 40
1
 40
1
 40
1
 10
366.503517
 20
94.290992
 30
0.0
 10
362.914257
 20
89.961492
 30
0.0
 10
358.042457
 20
86.929770
 30
0.0
 10
353.071757
 20
84.420762
 30
0.0
  0
SPLINE
  5
13a
100
AcDbEntity
  8
0
 62
7
100
AcDbSpline
 70
8
 71
3
 72
8
 73
4
 74
0
 40
0
 40
0
 40
0
 40
0
 40
1
 40
1
 40
1
 40
1
 10
353.071757
 20
84.420762
 30
0.0
 10
347.368617
 20
81.667448
 30
0.0
 10
341.458547
 20
79.461803
 30
0.0
 10
335.341547
 20
77.803829
 30
0.0
  0
SPLINE
  5
13b
100
AcDbEntity
  8
0
 62
7
100
AcDbSpline
 70
8
 71
3
 72
8
 73
4
 74
0
 40
0
 40
0
 40
0
 40
0
 40
1
 40
1
 40
1
 40
1
 10
335.341547
 20
77.803829
 30
0.0
 10
318.354967
 20
73.114329
 30
0.0
 10
300.700497
 20
71.214689
 30
0.0
 10
283.115477
 20
70.889614
 30
0.0
  0
LINE
  5
13c
100
AcDbEntity
  8
0
 62
7
100
AcDbLine
 10
283.115477
 20
70.889614
 30
0.0
 11
283.115477
 21
72.858203
 31
0.0
  0
SPLINE
  5
13d
100
AcDbEntity
  8
0
 62
7
100
AcDbSpline
 70
8
 71
3
 72
8
 73
4
 74
0
 40
0
 40
0
 40
0
 40
0
 40
1
 40
1
 40
1
 40
1
 10
365.965467
 20
103.358203
 30
0.0
 10
365.965467
 20
103.661879
 30
0.0
 10
365.803458
 20
103.942487
 30
0.0
 10
365.540467
 20
104.094325
 30
0.0
  0
SPLINE
  5
13e
100
AcDbEntity
  8
0
 62
7
100
AcDbSpline
 70
8
 71
3
 72
8
 73
4
 74
0
 40
0
 40
0
 40
0
 40
0
 40
1
 40
1
 40
1
 40
1
 10
365.540467
 20
104.094325
 30
0.0
 10
365.277476
 20
104.246163
 30
0.0
 10
364.953458
 20
104.246163
 30
0.0
 10
364.690467
 20
104.094325
 30
0.0
  0
SPLINE
  5
13f
100
AcDbEntity
  8
0
 62
7
100
AcDbSpline
 70
8
 71
3
 72
8
 73
4
 74
0
 40
0
 40
0
 40
0
 40
0
 40
1
 40
1
 40
1
 40
1
 10
364.690467
 20
104.094325
 30
0.0
 10
364.427476
 20
103.942487
 30
0.0
 10
364.265467
 20
103.661879
 30
0.0
 10
364.265467
 20
103.358203
 30
0.0
  0
SPLINE
  5
140
100
AcDbEntity
  8
0
 62
7
100
AcDbSpline
 70
8
 71
3
 72
8
 73
4
 74
0
 40
0
 40
0
 40
0
 40
0
 40
1
 40
1
 40
1
 40
1
 10
364.265467
 20
103.358203
 30
0.0
 10
364.265467
 20
103.054527
 30
0.0
 10
364.427476
 20
102.773919
 30
0.0
 10
364.690467
 20
102.622082
 30
0.0
  0
SPLINE
  5
141
100
AcDbEntity
  8
0
 62
7
100
AcDbSpline
 70
8
 71
3
 72
8
 73
4
 74
0
 40
0
 40
0
 40
0
 40
0
 40
1
 40
1
 40
1
 40
1
 10
364.690467
 20
102.622082
 30
0.0
 10
364.953458
 20
102.470244
 30
0.0
 10
365.277476
 20
102.470244
 30
0.0
 10
365.540467
 20
102.622082
 30
0.0
  0
SPLINE
  5
142
100
AcDbEntity
  8
0
 62
7
100
AcDbSpline
 70
8
 71
3
 72
8
 73
4
 74
0
 40
0
 40
0
 40
0
 40
0
 40
1
 40
1
 40
1
 40
1
 10
365.540467
 20
102.622082
 30
0.0
 10
365.803458
 20
102.773919
 30
0.0
 10
365.965467
 20
103.054527
 30
0.0
 10
365.965467
 20
103.358203
 30
0.0
  0
LINE
  5
143
100
AcDbEntity
  8
0
 62
7
100
AcDbLine
 10
365.965467
 20
103.358203
 30
0.0
 11
365.965467
 21
103.358203
 31
0.0
  0
SPLINE
  5
144
100
AcDbEntity
  8
0
 62
7
100
AcDbSpline
 70
8
 71
3
 72
8
 73
4
 74
0
 40
0
 40
0
 40
0
 40
0
 40
1
 40
1
 40
1
 40
1
 10
193.965467
 20
103.358203
 30
0.0
 10
193.965467
 20
103.661879
 30
0.0
 10
193.803458
 20
103.942487
 30
0.0
 10
193.540467
 20
104.094325
 30
0.0
  0
SPLINE
  5
145
100
AcDbEntity
  8
0
 62
7
100
AcDbSpline
 70
8
 71
3
 72
8
 73
4
 74
0
 40
0
 40
0
 40
0
 40
0
 40
1
 40
1
 40
1
 40
1
 10
193.540467
 20
104.094325
 30
0.0
 10
193.277476
 20
104.246163
 30
0.0
 10
192.953458
 20
104.246163
 30
0.0
 10
192.690467
 20
104.094325
 30
0.0
  0
SPLINE
  5
146
100
AcDbEntity
  8
0
 62
7
100
AcDbSpline
 70
8
 71
3
 72
8
 73
4
 74
0
 40
0
 40
0
 40
0
 40
0
 40
1
 40
1
 40
1
 40
1
 10
192.690467
 20
104.094325
 30
0.0
 10
192.427476
 20
103.942487
 30
0.0
 10
192.265467
 20
103.661879
 30
0.0
 10
192.265467
 20
103.358203
 30
0.0
  0
SPLINE
  5
147
100
AcDbEntity
  8
0
 62
7
100
AcDbSpline
 70
8
 71
3
 72
8
 73
4
 74
0
 40
0
 40
0
 40
0
 40
0
 40
1
 40
1
 40
1
 40
1
 10
192.265467
 20
103.358203
 30
0.0
 10
192.265467
 20
103.054527
 30
0.0
 10
192.427476
 20
102.773919
 30
0.0
 10
192.690467
 20
102.622082
 30
0.0
  0
SPLINE
  5
148
100
AcDbEntity
  8
0
 62
7
100
AcDbSpline
 70
8
 71
3
 72
8
 73
4
 74
0
 40
0
 40
0
 40
0
 40
0
 40
1
 40
1
 40
1
 40
1
 10
192.690467
 20
102.622082
 30
0.0
 10
192.953458
 20
102.470244
 30
0.0
 10
193.277476
 20
102.470244
 30
0.0
 10
193.540467
 20
102.622082
 30
0.0
  0
SPLINE
  5
149
100
AcDbEntity
  8
0
 62
7
100
AcDbSpline
 70
8
 71
3
 72
8
 73
4
 74
0
 40
0
 40
0
 40
0
 40
0
 40
1
 40
1
 40
1
 40
1
 10
193.540467
 20
102.622082
 30
0.0
 10
193.803458
 20
102.773919
 30
0.0
 10
193.965467
 20
103.054527
 30
0.0
 10
193.965467
 20
103.358203
 30
0.0
  0
LINE
  5
14a
100
AcDbEntity
  8
0
 62
7
100
AcDbLine
 10
193.965467
 20
103.358203
 30
0.0
 11
193.965467
 21
103.358203
 31
0.0
  0
SPLINE
  5
14b
100
AcDbEntity
  8
0
 62
7
100
AcDbSpline
 70
8
 71
3
 72
8
 73
4
 74
0
 40
0
 40
0
 40
0
 40
0
 40
1
 40
1
 40
1
 40
1
 10
187.561303
 20
103.293754
 30
0.0
 10
187.577671
 20
99.941261
 30
0.0
 10
186.041130
 20
96.772231
 30
0.0
 10
183.947973
 20
94.226543
 30
0.0
  0
SPLINE
  5
14c
100
AcDbEntity
  8
0
 62
7
100
AcDbSpline
 70
8
 71
3
 72
8
 73
4
 74
0
 40
0
 40
0
 40
0
 40
0
 40
1
 40
1
 40
1
 40
1
 10
183.947973
 20
94.226543
 30
0.0
 10
180.358718
 20
89.897043
 30
0.0
 10
175.486915
 20
86.865321
 30
0.0
 10
170.516214
 20
84.356313
 30
0.0
  0
SPLINE
  5
14d
100
AcDbEntity
  8
0
 62
7
100
AcDbSpline
 70
8
 71
3
 72
8
 73
4
 74
0
 40
0
 40
0
 40
0
 40
0
 40
1
 40
1
 40
1
 40
1
 10
170.516214
 20
84.356313
 30
0.0
 10
164.813069
 20
81.602999
 30
0.0
 10
158.902999
 20
79.397354
 30
0.0
 10
152.786002
 20
77.739380
 30
0.0
  0
SPLINE
  5
14e
100
AcDbEntity
  8
0
 62
7
100
AcDbSpline
 70
8
 71
3
 72
8
 73
4
 74
0
 40
0
 40
0
 40
0
 40
0
 40
1
 40
1
 40
1
 40
1
 10
152.786002
 20
77.739380
 30
0.0
 10
134.507839
 20
72.707413
 30
0.0
 10
115.477090
 20
70.854423
 30
0.0
 10
96.559928
 20
70.793754
 30
0.0
  0
SPLINE
  5
14f
100
AcDbEntity
  8
0
 62
7
100
AcDbSpline
 70
8
 71
3
 72
8
 73
4
 74
0
 40
0
 40
0
 40
0
 40
0
 40
1
 40
1
 40
1
 40
1
 10
96.559928
 20
70.793754
 30
0.0
 10
77.797741
 20
70.851980
 30
0.0
 10
58.928099
 20
72.680363
 30
0.0
 10
40.784546
 20
77.613716
 30
0.0
  0
SPLINE
  5
150
100
AcDbEntity
  8
0
 62
7
100
AcDbSpline
 70
8
 71
3
 72
8
 73
4
 74
0
 40
0
 40
0
 40
0
 40
0
 40
1
 40
1
 40
1
 40
1
 10
40.784546
 20
77.613716
 30
0.0
 10
32.646283
 20
79.900688
 30
0.0
 10
24.579517
 20
82.795412
 30
0.0
 10
17.372012
 20
87.280115
 30
0.0
  0
SPLINE
  5
151
100
AcDbEntity
  8
0
 62
7
100
AcDbSpline
 70
8
 71
3
 72
8
 73
4
 74
0
 40
0
 40
0
 40
0
 40
0
 40
1
 40
1
 40
1
 40
1
 10
17.372012
 20
87.280115
 30
0.0
 10
12.454917
 20
90.433357
 30
0.0
 10
7.476048
 20
94.562010
 30
0.0
 10
5.910402
 20
100.438590
 30
0.0
  0
SPLINE
  5
152
100
AcDbEntity
  8
0
 62
7
100
AcDbSpline
 70
8
 71
3
 72
8
 73
4
 74
0
 40
0
 40
0
 40
0
 40
0
 40
1
 40
1
 40
1
 40
1
 10
5.910402
 20
100.438590
 30
0.0
 10
4.782997
 20
104.662109
 30
0.0
 10
6.435620
 20
109.123539
 30
0.0
 10
9.171884
 20
112.360965
 30
0.0
  0
SPLINE
  5
153
100
AcDbEntity
  8
0
 62
7
100
AcDbSpline
 70
8
 71
3
 72
8
 73
4
 74
0
 40
0
 40
0
 40
0
 40
0
 40
1
 40
1
 40
1
 40
1
 10
9.171884
 20
112.360965
 30
0.0
 10
10.801789
 20
114.305668
 30
0.0
 10
12.648767
 20
116.018685
 30
0.0
 10
14.712816
 20
117.500016
 30
0.0
  0
SPLINE
  5
154
100
AcDbEntity
  8
0
 62
7
100
AcDbSpline
 70
8
 71
3
 72
8
 73
4
 74
0
 40
0
 40
0
 40
0
 40
0
 40
1
 40
1
 40
1
 40
1
 10
14.712816
 20
117.500016
 30
0.0
 10
22.364630
 20
122.996683
 30
0.0
 10
31.345175
 20
126.267485
 30
0.0
 10
40.333856
 20
128.848128
 30
0.0
  0
SPLINE
  5
155
100
AcDbEntity
  8
0
 62
7
100
AcDbSpline
 70
8
 71
3
 72
8
 73
4
 74
0
 40
0
 40
0
 40
0
 40
0
 40
1
 40
1
 40
1
 40
1
 10
40.333856
 20
128.848128
 30
0.0
 10
58.612019
 20
133.880093
 30
0.0
 10
77.642768
 20
135.733083
 30
0.0
 10
96.559930
 20
135.793753
 30
0.0
  0
SPLINE
  5
156
100
AcDbEntity
  8
0
 62
7
100
AcDbSpline
 70
8
 71
3
 72
8
 73
4
 74
0
 40
0
 40
0
 40
0
 40
0
 40
1
 40
1
 40
1
 40
1
 10
96.559930
 20
135.793753
 30
0.0
 10
115.322117
 20
135.735523
 30
0.0
 10
134.191759
 20
133.907143
 30
0.0
 10
152.335312
 20
128.973792
 30
0.0
  0
SPLINE
  5
157
100
AcDbEntity
  8
0
 62
7
100
AcDbSpline
 70
8
 71
3
 72
8
 73
4
 74
0
 40
0
 40
0
 40
0
 40
0
 40
1
 40
1
 40
1
 40
1
 10
152.335312
 20
128.973792
 30
0.0
 10
160.473575
 20
126.686820
 30
0.0
 10
168.540341
 20
123.792096
 30
0.0
 10
175.747846
 20
119.307393
 30
0.0
  0
SPLINE
  5
158
100
AcDbEntity
  8
0
 62
7
100
AcDbSpline
 70
8
 71
3
 72
8
 73
4
 74
0
 40
0
 40
0
 40
0
 40
0
 40
1
 40
1
 40
1
 40
1
 10
175.747846
 20
119.307393
 30
0.0
 10
178.074133
 20
117.870793
 30
0.0
 10
180.218641
 20
116.202575
 30
0.0
 10
182.181371
 20
114.302736
 30
0.0
  0
SPLINE
  5
159
100
AcDbEntity
  8
0
 62
7
100
AcDbSpline
 70
8
 71
3
 72
8
 73
4
 74
0
 40
0
 40
0
 40
0
 40
0
 40
1
 40
1
 40
1
 40
1
 10
182.181371
 20
114.302736
 30
0.0
 10
185.135799
 20
111.402556
 30
0.0
 10
187.575675
 20
107.563543
 30
0.0
 10
187.561303
 20
103.293754
 30
0.0
  0
SPLINE
  5
15a
100
AcDbEntity
  8
0
 62
7
100
AcDbSpline
 70
8
 71
3
 72
8
 73
4
 74
0
 40
0
 40
0
 40
0
 40
0
 40
1
 40
1
 40
1
 40
1
 10
11.409929
 20
103.293757
 30
0.0
 10
11.409929
 20
103.597433
 30
0.0
 10
11.247920
 20
103.878041
 30
0.0
 10
10.984929
 20
104.029879
 30
0.0
  0
SPLINE
  5
15b
100
AcDbEntity
  8
0
 62
7
100
AcDbSpline
 70
8
 71
3
 72
8
 73
4
 74
0
 40
0
 40
0
 40
0
 40
0
 40
1
 40
1
 40
1
 40
1
 10
10.984929
 20
104.029879
 30
0.0
 10
10.721938
 20
104.181717
 30
0.0
 10
10.397920
 20
104.181717
 30
0.0
 10
10.134929
 20
104.029879
 30
0.0
  0
SPLINE
  5
15c
100
AcDbEntity
  8
0
 62
7
100
AcDbSpline
 70
8
 71
3
 72
8
 73
4
 74
0
 40
0
 40
0
 40
0
 40
0
 40
1
 40
1
 40
1
 40
1
 10
10.134929
 20
104.029879
 30
0.0
 10
9.871938
 20
103.878041
 30
0.0
 10
9.709929
 20
103.597433
 30
0.0
 10
9.709929
 20
103.293757
 30
0.0
  0
SPLINE
  5
15d
100
AcDbEntity
  8
0
 62
7
100
AcDbSpline
 70
8
 71
3
 72
8
 73
4
 74
0
 40
0
 40
0
 40
0
 40
0
 40
1
 40
1
 40
1
 40
1
 10
9.709929
 20
103.293757
 30
0.0
 10
9.709929
 20
102.824315
 30
0.0
 10
10.090487
 20
102.443757
 30
0.0
 10
10.559929
 20
102.443757
 30
0.0
  0
SPLINE
  5
15e
100
AcDbEntity
  8
0
 62
7
100
AcDbSpline
 70
8
 71
3
 72
8
 73
4
 74
0
 40
0
 40
0
 40
0
 40
0
 40
1
 40
1
 40
1
 40
1
 10
10.559929
 20
102.443757
 30
0.0
 10
11.029371
 20
102.443757
 30
0.0
 10
11.409929
 20
102.824315
 30
0.0
 10
11.409929
 20
103.293757
 30
0.0
  0
LINE
  5
15f
100
AcDbEntity
  8
0
 62
7
100
AcDbLine
 10
11.409929
 20
103.293757
 30
0.0
 11
11.409929
 21
103.293757
 31
0.0
  0
SPLINE
  5
160
100
AcDbEntity
  8
0
 62
7
100
AcDbSpline
 70
8
 71
3
 72
8
 73
4
 74
0
 40
0
 40
0
 40
0
 40
0
 40
1
 40
1
 40
1
 40
1
 10
183.409929
 20
103.293757
 30
0.0
 10
183.409929
 20
103.597433
 30
0.0
 10
183.247920
 20
103.878041
 30
0.0
 10
182.984929
 20
104.029879
 30
0.0
  0
SPLINE
  5
161
100
AcDbEntity
  8
0
 62
7
100
AcDbSpline
 70
8
 71
3
 72
8
 73
4
 74
0
 40
0
 40
0
 40
0
 40
0
 40
1
 40
1
 40
1
 40
1
 10
182.984929
 20
104.029879
 30
0.0
 10
182.721938
 20
104.181717
 30
0.0
 10
182.397920
 20
104.181717
 30
0.0
 10
182.134929
 20
104.029879
 30
0.0
  0
SPLINE
  5
162
100
AcDbEntity
  8
0
 62
7
100
AcDbSpline
 70
8
 71
3
 72
8
 73
4
 74
0
 40
0
 40
0
 40
0
 40
0
 40
1
 40
1
 40
1
 40
1
 10
182.134929
 20
104.029879
 30
0.0
 10
181.871938
 20
103.878041
 30
0.0
 10
181.709929
 20
103.597433
 30
0.0
 10
181.709929
 20
103.293757
 30
0.0
  0
SPLINE
  5
163
100
AcDbEntity
  8
0
 62
7
100
AcDbSpline
 70
8
 71
3
 72
8
 73
4
 74
0
 40
0
 40
0
 40
0
 40
0
 40
1
 40
1
 40
1
 40
1
 10
181.709929
 20
103.293757
 30
0.0
 10
181.709929
 20
102.990081
 30
0.0
 10
181.871938
 20
102.709473
 30
0.0
 10
182.134929
 20
102.557636
 30
0.0
  0
SPLINE
  5
164
100
AcDbEntity
  8
0
 62
7
100
AcDbSpline
 70
8
 71
3
 72
8
 73
4
 74
0
 40
0
 40
0
 40
0
 40
0
 40
1
 40
1
 40
1
 40
1
 10
182.134929
 20
102.557636
 30
0.0
 10
182.397920
 20
102.405798
 30
0.0
 10
182.721938
 20
102.405798
 30
0.0
 10
182.984929
 20
102.557636
 30
0.0
  0
SPLINE
  5
165
100
AcDbEntity
  8
0
 62
7
100
AcDbSpline
 70
8
 71
3
 72
8
 73
4
 74
0
 40
0
 40
0
 40
0
 40
0
 40
1
 40
1
 40
1
 40
1
 10
182.984929
 20
102.557636
 30
0.0
 10
183.247920
 20
102.709473
 30
0.0
 10
183.409929
 20
102.990081
 30
0.0
 10
183.409929
 20
103.293757
 30
0.0
  0
LINE
  5
166
100
AcDbEntity
  8
0
 62
7
100
AcDbLine
 10
183.409929
 20
103.293757
 30
0.0
 11
183.409929
 21
103.293757
 31
0.0
  0
LINE
  5
167
100
AcDbEntity
  8
0
 62
7
100
AcDbLine
 10
20.484929
 20
101.043754
 30
0.0
 11
20.484929
 21
105.543754
 31
0.0
  0
LINE
  5
168
100
AcDbEntity
  8
0
 62
7
100
AcDbLine
 10
20.484929
 20
105.543754
 30
0.0
 11
172.634929
 21
105.543754
 31
0.0
  0
LINE
  5
169
100
AcDbEntity
  8
0
 62
7
100
AcDbLine
 10
172.634929
 20
105.543754
 30
0.0
 11
172.634929
 21
101.043754
 31
0.0
  0
LINE
  5
16a
100
AcDbEntity
  8
0
 62
7
100
AcDbLine
 10
172.634929
 20
101.043754
 30
0.0
 11
20.484929
 21
101.043754
 31
0.0
  0
LINE
  5
16b
100
AcDbEntity
  8
0
 62
1
100
AcDbLine
 10
102.461073
 20
18.194859
 30
0.0
 11
100.995223
 21
18.467448
 31
0.0
  0
SPLINE
  5
16c
100
AcDbEntity
  8
0
 62
1
100
AcDbSpline
 70
8
 71
3
 72
8
 73
4
 74
0
 40
0
 40
0
 40
0
 40
0
 40
1
 40
1
 40
1
 40
1
 10
100.995223
 20
18.467448
 30
0.0
 10
100.959556
 20
18.474136
 30
0.0
 10
100.920500
 20
18.507664
 30
0.0
 10
100.908462
 20
18.542083
 30
0.0
  0
LINE
  5
16d
100
AcDbEntity
  8
0
 62
1
100
AcDbLine
 10
100.908462
 20
18.542083
 30
0.0
 11
100.459139
 21
19.590354
 31
0.0
  0
SPLINE
  5
16e
100
AcDbEntity
  8
0
 62
1
100
AcDbSpline
 70
8
 71
3
 72
8
 73
4
 74
0
 40
0
 40
0
 40
0
 40
0
 40
1
 40
1
 40
1
 40
1
 10
100.459139
 20
19.590354
 30
0.0
 10
100.442376
 20
19.622722
 30
0.0
 10
100.445586
 20
19.673548
 30
0.0
 10
100.466273
 20
19.703687
 30
0.0
  0
LINE
  5
16f
100
AcDbEntity
  8
0
 62
1
100
AcDbLine
 10
100.466273
 20
19.703687
 30
0.0
 11
101.320334
 21
20.948487
 31
0.0
  0
SPLINE
  5
170
100
AcDbEntity
  8
0
 62
1
100
AcDbSpline
 70
8
 71
3
 72
8
 73
4
 74
0
 40
0
 40
0
 40
0
 40
0
 40
1
 40
1
 40
1
 40
1
 10
101.320334
 20
20.948487
 30
0.0
 10
101.340753
 20
20.978447
 30
0.0
 10
101.336741
 20
21.024013
 30
0.0
 10
101.310971
 20
21.049783
 30
0.0
  0
LINE
  5
171
100
AcDbEntity
  8
0
 62
1
100
AcDbLine
 10
101.310971
 20
21.049783
 30
0.0
 11
100.244242
 21
22.116511
 31
0.0
  0
SPLINE
  5
172
100
AcDbEntity
  8
0
 62
1
100
AcDbSpline
 70
8
 71
3
 72
8
 73
4
 74
0
 40
0
 40
0
 40
0
 40
0
 40
1
 40
1
 40
1
 40
1
 10
100.244242
 20
22.116511
 30
0.0
 10
100.218472
 20
22.142281
 30
0.0
 10
100.172996
 20
22.146472
 30
0.0
 10
100.143035
 20
22.125874
 30
0.0
  0
LINE
  5
173
100
AcDbEntity
  8
0
 62
1
100
AcDbLine
 10
100.143035
 20
22.125874
 30
0.0
 11
98.876390
 21
21.256655
 31
0.0
  0
SPLINE
  5
174
100
AcDbEntity
  8
0
 62
1
100
AcDbSpline
 70
8
 71
3
 72
8
 73
4
 74
0
 40
0
 40
0
 40
0
 40
0
 40
1
 40
1
 40
1
 40
1
 10
98.876390
 20
21.256655
 30
0.0
 10
98.846429
 20
21.236057
 30
0.0
 10
98.795068
 20
21.232401
 30
0.0
 10
98.762521
 20
21.248451
 30
0.0
  0
LINE
  5
175
100
AcDbEntity
  8
0
 62
1
100
AcDbLine
 10
98.762521
 20
21.248451
 30
0.0
 11
97.746351
 21
21.664424
 31
0.0
  0
SPLINE
  5
176
100
AcDbEntity
  8
0
 62
1
100
AcDbSpline
 70
8
 71
3
 72
8
 73
4
 74
0
 40
0
 40
0
 40
0
 40
0
 40
1
 40
1
 40
1
 40
1
 10
97.746351
 20
21.664424
 30
0.0
 10
97.711843
 20
21.675838
 30
0.0
 10
97.678226
 20
21.714448
 30
0.0
 10
97.671449
 20
21.750205
 30
0.0
  0
LINE
  5
177
100
AcDbEntity
  8
0
 62
1
100
AcDbLine
 10
97.671449
 20
21.750205
 30
0.0
 11
97.389229
 21
23.266346
 31
0.0
  0
SPLINE
  5
178
100
AcDbEntity
  8
0
 62
1
100
AcDbSpline
 70
8
 71
3
 72
8
 73
4
 74
0
 40
0
 40
0
 40
0
 40
0
 40
1
 40
1
 40
1
 40
1
 10
97.389229
 20
23.266346
 30
0.0
 10
97.382631
 20
23.302102
 30
0.0
 10
97.347409
 20
23.331350
 30
0.0
 10
97.311028
 20
23.331350
 30
0.0
  0
LINE
  5
179
100
AcDbEntity
  8
0
 62
1
100
AcDbLine
 10
97.311028
 20
23.331350
 30
0.0
 11
95.802288
 21
23.331350
 31
0.0
  0
SPLINE
  5
17a
100
AcDbEntity
  8
0
 62
1
100
AcDbSpline
 70
8
 71
3
 72
8
 73
4
 74
0
 40
0
 40
0
 40
0
 40
0
 40
1
 40
1
 40
1
 40
1
 10
95.802288
 20
23.331350
 30
0.0
 10
95.765997
 20
23.331350
 30
0.0
 10
95.730775
 20
23.302102
 30
0.0
 10
95.724176
 20
23.266346
 30
0.0
  0
LINE
  5
17b
100
AcDbEntity
  8
0
 62
1
100
AcDbLine
 10
95.724176
 20
23.266346
 30
0.0
 11
95.442046
 21
21.750205
 31
0.0
  0
SPLINE
  5
17c
100
AcDbEntity
  8
0
 62
1
100
AcDbSpline
 70
8
 71
3
 72
8
 73
4
 74
0
 40
0
 40
0
 40
0
 40
0
 40
1
 40
1
 40
1
 40
1
 10
95.442046
 20
21.750205
 30
0.0
 10
95.435269
 20
21.714448
 30
0.0
 10
95.401741
 20
21.675838
 30
0.0
 10
95.367144
 20
21.664424
 30
0.0
  0
LINE
  5
17d
100
AcDbEntity
  8
0
 62
1
100
AcDbLine
 10
95.367144
 20
21.664424
 30
0.0
 11
94.350885
 21
21.248451
 31
0.0
  0
SPLINE
  5
17e
100
AcDbEntity
  8
0
 62
1
100
AcDbSpline
 70
8
 71
3
 72
8
 73
4
 74
0
 40
0
 40
0
 40
0
 40
0
 40
1
 40
1
 40
1
 40
1
 10
94.350885
 20
21.248451
 30
0.0
 10
94.318249
 20
21.232401
 30
0.0
 10
94.266887
 20
21.236057
 30
0.0
 10
94.237016
 20
21.256655
 30
0.0
  0
LINE
  5
17f
100
AcDbEntity
  8
0
 62
1
100
AcDbLine
 10
94.237016
 20
21.256655
 30
0.0
 11
92.970459
 21
22.125874
 31
0.0
  0
SPLINE
  5
180
100
AcDbEntity
  8
0
 62
1
100
AcDbSpline
 70
8
 71
3
 72
8
 73
4
 74
0
 40
0
 40
0
 40
0
 40
0
 40
1
 40
1
 40
1
 40
1
 10
92.970459
 20
22.125874
 30
0.0
 10
92.940409
 20
22.146472
 30
0.0
 10
92.894844
 20
22.142281
 30
0.0
 10
92.869163
 20
22.116511
 30
0.0
  0
LINE
  5
181
100
AcDbEntity
  8
0
 62
1
100
AcDbLine
 10
92.869163
 20
22.116511
 30
0.0
 11
91.802345
 21
21.049783
 31
0.0
  0
SPLINE
  5
182
100
AcDbEntity
  8
0
 62
1
100
AcDbSpline
 70
8
 71
3
 72
8
 73
4
 74
0
 40
0
 40
0
 40
0
 40
0
 40
1
 40
1
 40
1
 40
1
 10
91.802345
 20
21.049783
 30
0.0
 10
91.776665
 20
21.024013
 30
0.0
 10
91.772385
 20
20.978447
 30
0.0
 10
91.792983
 20
20.948487
 30
0.0
  0
LINE
  5
183
100
AcDbEntity
  8
0
 62
1
100
AcDbLine
 10
91.792983
 20
20.948487
 30
0.0
 11
92.647132
 21
19.703687
 31
0.0
  0
SPLINE
  5
184
100
AcDbEntity
  8
0
 62
1
100
AcDbSpline
 70
8
 71
3
 72
8
 73
4
 74
0
 40
0
 40
0
 40
0
 40
0
 40
1
 40
1
 40
1
 40
1
 10
92.647132
 20
19.703687
 30
0.0
 10
92.667641
 20
19.673548
 30
0.0
 10
92.670851
 20
19.622722
 30
0.0
 10
92.654177
 20
19.590354
 30
0.0
  0
LINE
  5
185
100
AcDbEntity
  8
0
 62
1
100
AcDbLine
 10
92.654177
 20
19.590354
 30
0.0
 11
92.204765
 21
18.542083
 31
0.0
  0
SPLINE
  5
186
100
AcDbEntity
  8
0
 62
1
100
AcDbSpline
 70
8
 71
3
 72
8
 73
4
 74
0
 40
0
 40
0
 40
0
 40
0
 40
1
 40
1
 40
1
 40
1
 10
92.204765
 20
18.542083
 30
0.0
 10
92.192816
 20
18.507664
 30
0.0
 10
92.153850
 20
18.474136
 30
0.0
 10
92.118004
 20
18.467448
 30
0.0
  0
LINE
  5
187
100
AcDbEntity
  8
0
 62
1
100
AcDbLine
 10
92.118004
 20
18.467448
 30
0.0
 11
90.652243
 21
18.194859
 31
0.0
  0
SPLINE
  5
188
100
AcDbEntity
  8
0
 62
1
100
AcDbSpline
 70
8
 71
3
 72
8
 73
4
 74
0
 40
0
 40
0
 40
0
 40
0
 40
1
 40
1
 40
1
 40
1
 10
90.652243
 20
18.194859
 30
0.0
 10
90.616398
 20
18.188082
 30
0.0
 10
90.587239
 20
18.152949
 30
0.0
 10
90.587239
 20
18.116568
 30
0.0
  0
LINE
  5
189
100
AcDbEntity
  8
0
 62
1
100
AcDbLine
 10
90.587239
 20
18.116568
 30
0.0
 11
90.587328
 21
16.607918
 31
0.0
  0
SPLINE
  5
18a
100
AcDbEntity
  8
0
 62
1
100
AcDbSpline
 70
8
 71
3
 72
8
 73
4
 74
0
 40
0
 40
0
 40
0
 40
0
 40
1
 40
1
 40
1
 40
1
 10
90.587328
 20
16.607918
 30
0.0
 10
90.587328
 20
16.571537
 30
0.0
 10
90.616576
 20
16.536137
 30
0.0
 10
90.652333
 20
16.529628
 30
0.0
  0
LINE
  5
18b
100
AcDbEntity
  8
0
 62
1
100
AcDbLine
 10
90.652333
 20
16.529628
 30
0.0
 11
92.082158
 21
16.263547
 31
0.0
  0
SPLINE
  5
18c
100
AcDbEntity
  8
0
 62
1
100
AcDbSpline
 70
8
 71
3
 72
8
 73
4
 74
0
 40
0
 40
0
 40
0
 40
0
 40
1
 40
1
 40
1
 40
1
 10
92.082158
 20
16.263547
 30
0.0
 10
92.117914
 20
16.257038
 30
0.0
 10
92.156168
 20
16.223065
 30
0.0
 10
92.167047
 20
16.188378
 30
0.0
  0
LINE
  5
18d
100
AcDbEntity
  8
0
 62
1
100
AcDbLine
 10
92.167047
 20
16.188378
 30
0.0
 11
92.613427
 21
15.073320
 31
0.0
  0
SPLINE
  5
18e
100
AcDbEntity
  8
0
 62
1
100
AcDbSpline
 70
8
 71
3
 72
8
 73
4
 74
0
 40
0
 40
0
 40
0
 40
0
 40
1
 40
1
 40
1
 40
1
 10
92.613427
 20
15.073320
 30
0.0
 10
92.629388
 20
15.040594
 30
0.0
 10
92.625643
 20
14.989411
 30
0.0
 10
92.604956
 20
14.959451
 30
0.0
  0
LINE
  5
18f
100
AcDbEntity
  8
0
 62
1
100
AcDbLine
 10
92.604956
 20
14.959451
 30
0.0
 11
91.792804
 21
13.775911
 31
0.0
  0
SPLINE
  5
190
100
AcDbEntity
  8
0
 62
1
100
AcDbSpline
 70
8
 71
3
 72
8
 73
4
 74
0
 40
0
 40
0
 40
0
 40
0
 40
1
 40
1
 40
1
 40
1
 10
91.792804
 20
13.775911
 30
0.0
 10
91.772295
 20
13.745950
 30
0.0
 10
91.776486
 20
13.700296
 30
0.0
 10
91.802167
 20
13.674526
 30
0.0
  0
LINE
  5
191
100
AcDbEntity
  8
0
 62
1
100
AcDbLine
 10
91.802167
 20
13.674526
 30
0.0
 11
92.869074
 21
12.607797
 31
0.0
  0
SPLINE
  5
192
100
AcDbEntity
  8
0
 62
1
100
AcDbSpline
 70
8
 71
3
 72
8
 73
4
 74
0
 40
0
 40
0
 40
0
 40
0
 40
1
 40
1
 40
1
 40
1
 10
92.869074
 20
12.607797
 30
0.0
 10
92.894755
 20
12.582206
 30
0.0
 10
92.940320
 20
12.578015
 30
0.0
 10
92.970370
 20
12.598435
 30
0.0
  0
LINE
  5
193
100
AcDbEntity
  8
0
 62
1
100
AcDbLine
 10
92.970370
 20
12.598435
 30
0.0
 11
94.132956
 21
13.396408
 31
0.0
  0
SPLINE
  5
194
100
AcDbEntity
  8
0
 62
1
100
AcDbSpline
 70
8
 71
3
 72
8
 73
4
 74
0
 40
0
 40
0
 40
0
 40
0
 40
1
 40
1
 40
1
 40
1
 10
94.132956
 20
13.396408
 30
0.0
 10
94.162916
 20
13.416917
 30
0.0
 10
94.213118
 20
13.418522
 30
0.0
 10
94.244417
 20
13.400242
 30
0.0
  0
LINE
  5
195
100
AcDbEntity
  8
0
 62
1
100
AcDbLine
 10
94.244417
 20
13.400242
 30
0.0
 11
94.757139
 21
13.126493
 31
0.0
  0
SPLINE
  5
196
100
AcDbEntity
  8
0
 62
1
100
AcDbSpline
 70
8
 71
3
 72
8
 73
4
 74
0
 40
0
 40
0
 40
0
 40
0
 40
1
 40
1
 40
1
 40
1
 10
94.757139
 20
13.126493
 30
0.0
 10
94.789596
 20
13.109908
 30
0.0
 10
94.827493
 20
13.123908
 30
0.0
 10
94.841403
 20
13.157524
 30
0.0
  0
LINE
  5
197
100
AcDbEntity
  8
0
 62
1
100
AcDbLine
 10
94.841403
 20
13.157524
 30
0.0
 11
95.898591
 21
15.711948
 31
0.0
  0
SPLINE
  5
198
100
AcDbEntity
  8
0
 62
1
100
AcDbSpline
 70
8
 71
3
 72
8
 73
4
 74
0
 40
0
 40
0
 40
0
 40
0
 40
1
 40
1
 40
1
 40
1
 10
95.898591
 20
15.711948
 30
0.0
 10
95.912590
 20
15.745565
 30
0.0
 10
95.898591
 20
15.788455
 30
0.0
 10
95.867560
 20
15.807448
 30
0.0
  0
LINE
  5
199
100
AcDbEntity
  8
0
 62
1
100
AcDbLine
 10
95.867560
 20
15.807448
 30
0.0
 11
95.739246
 21
15.886006
 31
0.0
  0
SPLINE
  5
19a
100
AcDbEntity
  8
0
 62
1
100
AcDbSpline
 70
8
 71
3
 72
8
 73
4
 74
0
 40
0
 40
0
 40
0
 40
0
 40
1
 40
1
 40
1
 40
1
 10
95.739246
 20
15.886006
 30
0.0
 10
95.715527
 20
15.900451
 30
0.0
 10
95.683337
 20
15.925329
 30
0.0
 10
95.658102
 20
15.948157
 30
0.0
  0
SPLINE
  5
19b
100
AcDbEntity
  8
0
 62
1
100
AcDbSpline
 70
8
 71
3
 72
8
 73
4
 74
0
 40
0
 40
0
 40
0
 40
0
 40
1
 40
1
 40
1
 40
1
 10
95.658102
 20
15.948157
 30
0.0
 10
95.195226
 20
16.244554
 30
0.0
 10
94.888128
 20
16.763072
 30
0.0
 10
94.888128
 20
17.353549
 30
0.0
  0
SPLINE
  5
19c
100
AcDbEntity
  8
0
 62
1
100
AcDbSpline
 70
8
 71
3
 72
8
 73
4
 74
0
 40
0
 40
0
 40
0
 40
0
 40
1
 40
1
 40
1
 40
1
 10
94.888128
 20
17.353549
 30
0.0
 10
94.888128
 20
18.275022
 30
0.0
 10
95.635186
 20
19.021990
 30
0.0
 10
96.556569
 20
19.021990
 30
0.0
  0
SPLINE
  5
19d
100
AcDbEntity
  8
0
 62
1
100
AcDbSpline
 70
8
 71
3
 72
8
 73
4
 74
0
 40
0
 40
0
 40
0
 40
0
 40
1
 40
1
 40
1
 40
1
 10
96.556569
 20
19.021990
 30
0.0
 10
97.477952
 20
19.021990
 30
0.0
 10
98.224921
 20
18.275022
 30
0.0
 10
98.224921
 20
17.353549
 30
0.0
  0
SPLINE
  5
19e
100
AcDbEntity
  8
0
 62
1
100
AcDbSpline
 70
8
 71
3
 72
8
 73
4
 74
0
 40
0
 40
0
 40
0
 40
0
 40
1
 40
1
 40
1
 40
1
 10
98.224921
 20
17.353549
 30
0.0
 10
98.224921
 20
16.763072
 30
0.0
 10
97.917912
 20
16.244554
 30
0.0
 10
97.454947
 20
15.948157
 30
0.0
  0
SPLINE
  5
19f
100
AcDbEntity
  8
0
 62
1
100
AcDbSpline
 70
8
 71
3
 72
8
 73
4
 74
0
 40
0
 40
0
 40
0
 40
0
 40
1
 40
1
 40
1
 40
1
 10
97.454947
 20
15.948157
 30
0.0
 10
97.429890
 20
15.925329
 30
0.0
 10
97.397611
 20
15.900451
 30
0.0
 10
97.373981
 20
15.886006
 30
0.0
  0
LINE
  5
1a0
100
AcDbEntity
  8
0
 62
1
100
AcDbLine
 10
97.373981
 20
15.886006
 30
0.0
 11
97.245667
 21
15.807448
 31
0.0
  0
SPLINE
  5
1a1
100
AcDbEntity
  8
0
 62
1
100
AcDbSpline
 70
8
 71
3
 72
8
 73
4
 74
0
 40
0
 40
0
 40
0
 40
0
 40
1
 40
1
 40
1
 40
1
 10
97.245667
 20
15.807448
 30
0.0
 10
97.214815
 20
15.788455
 30
0.0
 10
97.200726
 20
15.745565
 30
0.0
 10
97.214636
 20
15.711948
 30
0.0
  0
LINE
  5
1a2
100
AcDbEntity
  8
0
 62
1
100
AcDbLine
 10
97.214636
 20
15.711948
 30
0.0
 11
98.271735
 21
13.157435
 31
0.0
  0
SPLINE
  5
1a3
100
AcDbEntity
  8
0
 62
1
100
AcDbSpline
 70
8
 71
3
 72
8
 73
4
 74
0
 40
0
 40
0
 40
0
 40
0
 40
1
 40
1
 40
1
 40
1
 10
98.271735
 20
13.157435
 30
0.0
 10
98.285645
 20
13.123818
 30
0.0
 10
98.323453
 20
13.109908
 30
0.0
 10
98.355999
 20
13.126404
 30
0.0
  0
LINE
  5
1a4
100
AcDbEntity
  8
0
 62
1
100
AcDbLine
 10
98.355999
 20
13.126404
 30
0.0
 11
98.868721
 21
13.400153
 31
0.0
  0
SPLINE
  5
1a5
100
AcDbEntity
  8
0
 62
1
100
AcDbSpline
 70
8
 71
3
 72
8
 73
4
 74
0
 40
0
 40
0
 40
0
 40
0
 40
1
 40
1
 40
1
 40
1
 10
98.868721
 20
13.400153
 30
0.0
 10
98.900109
 20
13.418433
 30
0.0
 10
98.950222
 20
13.416917
 30
0.0
 10
98.980182
 20
13.396319
 30
0.0
  0
LINE
  5
1a6
100
AcDbEntity
  8
0
 62
1
100
AcDbLine
 10
98.980182
 20
13.396319
 30
0.0
 11
100.142857
 21
12.598345
 31
0.0
  0
SPLINE
  5
1a7
100
AcDbEntity
  8
0
 62
1
100
AcDbSpline
 70
8
 71
3
 72
8
 73
4
 74
0
 40
0
 40
0
 40
0
 40
0
 40
1
 40
1
 40
1
 40
1
 10
100.142857
 20
12.598345
 30
0.0
 10
100.172818
 20
12.577926
 30
0.0
 10
100.218472
 20
12.582117
 30
0.0
 10
100.244064
 20
12.607708
 30
0.0
  0
LINE
  5
1a8
100
AcDbEntity
  8
0
 62
1
100
AcDbLine
 10
100.244064
 20
12.607708
 30
0.0
 11
101.310971
 21
13.674437
 31
0.0
  0
SPLINE
  5
1a9
100
AcDbEntity
  8
0
 62
1
100
AcDbSpline
 70
8
 71
3
 72
8
 73
4
 74
0
 40
0
 40
0
 40
0
 40
0
 40
1
 40
1
 40
1
 40
1
 10
101.310971
 20
13.674437
 30
0.0
 10
101.336741
 20
13.700207
 30
0.0
 10
101.340932
 20
13.745861
 30
0.0
 10
101.320334
 20
13.775822
 30
0.0
  0
LINE
  5
1aa
100
AcDbEntity
  8
0
 62
1
100
AcDbLine
 10
101.320334
 20
13.775822
 30
0.0
 11
100.508093
 21
14.959362
 31
0.0
  0
SPLINE
  5
1ab
100
AcDbEntity
  8
0
 62
1
100
AcDbSpline
 70
8
 71
3
 72
8
 73
4
 74
0
 40
0
 40
0
 40
0
 40
0
 40
1
 40
1
 40
1
 40
1
 10
100.508093
 20
14.959362
 30
0.0
 10
100.487584
 20
14.989322
 30
0.0
 10
100.483750
 20
15.040505
 30
0.0
 10
100.499711
 20
15.073230
 30
0.0
  0
LINE
  5
1ac
100
AcDbEntity
  8
0
 62
1
100
AcDbLine
 10
100.499711
 20
15.073230
 30
0.0
 11
100.946091
 21
16.188289
 31
0.0
  0
SPLINE
  5
1ad
100
AcDbEntity
  8
0
 62
1
100
AcDbSpline
 70
8
 71
3
 72
8
 73
4
 74
0
 40
0
 40
0
 40
0
 40
0
 40
1
 40
1
 40
1
 40
1
 10
100.946091
 20
16.188289
 30
0.0
 10
100.957059
 20
16.222975
 30
0.0
 10
100.995045
 20
16.256949
 30
0.0
 10
101.030891
 20
16.263458
 30
0.0
  0
LINE
  5
1ae
100
AcDbEntity
  8
0
 62
1
100
AcDbLine
 10
101.030891
 20
16.263458
 30
0.0
 11
102.460716
 21
16.529538
 31
0.0
  0
SPLINE
  5
1af
100
AcDbEntity
  8
0
 62
1
100
AcDbSpline
 70
8
 71
3
 72
8
 73
4
 74
0
 40
0
 40
0
 40
0
 40
0
 40
1
 40
1
 40
1
 40
1
 10
102.460716
 20
16.529538
 30
0.0
 10
102.496384
 20
16.536048
 30
0.0
 10
102.525720
 20
16.571448
 30
0.0
 10
102.525720
 20
16.607829
 30
0.0
  0
LINE
  5
1b0
100
AcDbEntity
  8
0
 62
1
100
AcDbLine
 10
102.525720
 20
16.607829
 30
0.0
 11
102.525898
 21
18.116479
 31
0.0
  0
SPLINE
  5
1b1
100
AcDbEntity
  8
0
 62
1
100
AcDbSpline
 70
8
 71
3
 72
8
 73
4
 74
0
 40
0
 40
0
 40
0
 40
0
 40
1
 40
1
 40
1
 40
1
 10
102.525898
 20
18.116479
 30
0.0
 10
102.525988
 20
18.152949
 30
0.0
 10
102.496740
 20
18.188082
 30
0.0
 10
102.461073
 20
18.194859
 30
0.0
  0
LINE
  5
1b2
100
AcDbEntity
  8
0
 62
1
100
AcDbLine
 10
24.552835
 20
36.665953
 30
0.0
 11
22.113949
 21
35.257863
 31
0.0
  0
LINE
  5
1b3
100
AcDbEntity
  8
0
 62
1
100
AcDbLine
 10
22.113949
 20
35.257863
 30
0.0
 11
19.675063
 21
36.665953
 31
0.0
  0
LINE
  5
1b4
100
AcDbEntity
  8
0
 62
1
100
AcDbLine
 10
19.675063
 20
36.665953
 30
0.0
 11
19.675063
 21
39.482133
 31
0.0
  0
LINE
  5
1b5
100
AcDbEntity
  8
0
 62
1
100
AcDbLine
 10
19.675063
 20
39.482133
 30
0.0
 11
22.113949
 21
40.890223
 31
0.0
  0
LINE
  5
1b6
100
AcDbEntity
  8
0
 62
1
100
AcDbLine
 10
22.113949
 20
40.890223
 30
0.0
 11
24.552835
 21
39.482133
 31
0.0
  0
LINE
  5
1b7
100
AcDbEntity
  8
0
 62
1
100
AcDbLine
 10
24.552835
 20
39.482133
 30
0.0
 11
24.552835
 21
36.665953
 31
0.0
  0
LINE
  5
1b8
100
AcDbEntity
  8
0
 62
1
100
AcDbLine
 10
41.095639
 20
36.665953
 30
0.0
 11
38.656754
 21
35.257863
 31
0.0
  0
LINE
  5
1b9
100
AcDbEntity
  8
0
 62
1
100
AcDbLine
 10
38.656754
 20
35.257863
 30
0.0
 11
36.217868
 21
36.665953
 31
0.0
  0
LINE
  5
1ba
100
AcDbEntity
  8
0
 62
1
100
AcDbLine
 10
36.217868
 20
36.665953
 30
0.0
 11
36.217868
 21
39.482133
 31
0.0
  0
LINE
  5
1bb
100
AcDbEntity
  8
0
 62
1
100
AcDbLine
 10
36.217868
 20
39.482133
 30
0.0
 11
38.656754
 21
40.890223
 31
0.0
  0
LINE
  5
1bc
100
AcDbEntity
  8
0
 62
1
100
AcDbLine
 10
38.656754
 20
40.890223
 30
0.0
 11
41.095639
 21
39.482133
 31
0.0
  0
LINE
  5
1bd
100
AcDbEntity
  8
0
 62
1
100
AcDbLine
 10
41.095639
 20
39.482133
 30
0.0
 11
41.095639
 21
36.665953
 31
0.0
  0
LINE
  5
1be
100
AcDbEntity
  8
0
 62
1
100
AcDbLine
 10
57.638444
 20
36.665953
 30
0.0
 11
55.199558
 21
35.257863
 31
0.0
  0
LINE
  5
1bf
100
AcDbEntity
  8
0
 62
1
100
AcDbLine
 10
55.199558
 20
35.257863
 30
0.0
 11
52.760673
 21
36.665953
 31
0.0
  0
LINE
  5
1c0
100
AcDbEntity
  8
0
 62
1
100
AcDbLine
 10
52.760673
 20
36.665953
 30
0.0
 11
52.760673
 21
39.482133
 31
0.0
  0
LINE
  5
1c1
100
AcDbEntity
  8
0
 62
1
100
AcDbLine
 10
52.760673
 20
39.482133
 30
0.0
 11
55.199558
 21
40.890223
 31
0.0
  0
LINE
  5
1c2
100
AcDbEntity
  8
0
 62
1
100
AcDbLine
 10
55.199558
 20
40.890223
 30
0.0
 11
57.638444
 21
39.482133
 31
0.0
  0
LINE
  5
1c3
100
AcDbEntity
  8
0
 62
1
100
AcDbLine
 10
57.638444
 20
39.482133
 30
0.0
 11
57.638444
 21
36.665953
 31
0.0
  0
LINE
  5
1c4
100
AcDbEntity
  8
0
 62
1
100
AcDbLine
 10
74.181249
 20
36.665953
 30
0.0
 11
71.742363
 21
35.257863
 31
0.0
  0
LINE
  5
1c5
100
AcDbEntity
  8
0
 62
1
100
AcDbLine
 10
71.742363
 20
35.257863
 30
0.0
 11
69.303477
 21
36.665953
 31
0.0
  0
LINE
  5
1c6
100
AcDbEntity
  8
0
 62
1
100
AcDbLine
 10
69.303477
 20
36.665953
 30
0.0
 11
69.303477
 21
39.482133
 31
0.0
  0
LINE
  5
1c7
100
AcDbEntity
  8
0
 62
1
100
AcDbLine
 10
69.303477
 20
39.482133
 30
0.0
 11
71.742363
 21
40.890223
 31
0.0
  0
LINE
  5
1c8
100
AcDbEntity
  8
0
 62
1
100
AcDbLine
 10
71.742363
 20
40.890223
 30
0.0
 11
74.181249
 21
39.482133
 31
0.0
  0
LINE
  5
1c9
100
AcDbEntity
  8
0
 62
1
100
AcDbLine
 10
74.181249
 20
39.482133
 30
0.0
 11
74.181249
 21
36.665953
 31
0.0
  0
LINE
  5
1ca
100
AcDbEntity
  8
0
 62
1
100
AcDbLine
 10
90.724057
 20
36.665953
 30
0.0
 11
88.285171
 21
35.257863
 31
0.0
  0
LINE
  5
1cb
100
AcDbEntity
  8
0
 62
1
100
AcDbLine
 10
88.285171
 20
35.257863
 30
0.0
 11
85.846286
 21
36.665953
 31
0.0
  0
LINE
  5
1cc
100
AcDbEntity
  8
0
 62
1
100
AcDbLine
 10
85.846286
 20
36.665953
 30
0.0
 11
85.846286
 21
39.482133
 31
0.0
  0
LINE
  5
1cd
100
AcDbEntity
  8
0
 62
1
100
AcDbLine
 10
85.846286
 20
39.482133
 30
0.0
 11
88.285172
 21
40.890223
 31
0.0
  0
LINE
  5
1ce
100
AcDbEntity
  8
0
 62
1
100
AcDbLine
 10
88.285172
 20
40.890223
 30
0.0
 11
90.724057
 21
39.482133
 31
0.0
  0
LINE
  5
1cf
100
AcDbEntity
  8
0
 62
1
100
AcDbLine
 10
90.724057
 20
39.482133
 30
0.0
 11
90.724057
 21
36.665953
 31
0.0
  0
LINE
  5
1d0
100
AcDbEntity
  8
0
 62
1
100
AcDbLine
 10
107.266860
 20
36.665953
 30
0.0
 11
104.827970
 21
35.257863
 31
0.0
  0
LINE
  5
1d1
100
AcDbEntity
  8
0
 62
1
100
AcDbLine
 10
104.827970
 20
35.257863
 30
0.0
 11
102.389090
 21
36.665953
 31
0.0
  0
LINE
  5
1d2
100
AcDbEntity
  8
0
 62
1
100
AcDbLine
 10
102.389090
 20
36.665953
 30
0.0
 11
102.389090
 21
39.482133
 31
0.0
  0
LINE
  5
1d3
100
AcDbEntity
  8
0
 62
1
100
AcDbLine
 10
102.389090
 20
39.482133
 30
0.0
 11
104.827970
 21
40.890223
 31
0.0
  0
LINE
  5
1d4
100
AcDbEntity
  8
0
 62
1
100
AcDbLine
 10
104.827970
 20
40.890223
 30
0.0
 11
107.266860
 21
39.482133
 31
0.0
  0
LINE
  5
1d5
100
AcDbEntity
  8
0
 62
1
100
AcDbLine
 10
107.266860
 20
39.482133
 30
0.0
 11
107.266860
 21
36.665953
 31
0.0
  0
LINE
  5
1d6
100
AcDbEntity
  8
0
 62
1
100
AcDbLine
 10
123.809660
 20
36.665953
 30
0.0
 11
121.370770
 21
35.257863
 31
0.0
  0
LINE
  5
1d7
100
AcDbEntity
  8
0
 62
1
100
AcDbLine
 10
121.370770
 20
35.257863
 30
0.0
 11
118.931890
 21
36.665953
 31
0.0
  0
LINE
  5
1d8
100
AcDbEntity
  8
0
 62
1
100
AcDbLine
 10
118.931890
 20
36.665953
 30
0.0
 11
118.931890
 21
39.482133
 31
0.0
  0
LINE
  5
1d9
100
AcDbEntity
  8
0
 62
1
100
AcDbLine
 10
118.931890
 20
39.482133
 30
0.0
 11
121.370770
 21
40.890223
 31
0.0
  0
LINE
  5
1da
100
AcDbEntity
  8
0
 62
1
100
AcDbLine
 10
121.370770
 20
40.890223
 30
0.0
 11
123.809660
 21
39.482133
 31
0.0
  0
LINE
  5
1db
100
AcDbEntity
  8
0
 62
1
100
AcDbLine
 10
123.809660
 20
39.482133
 30
0.0
 11
123.809660
 21
36.665953
 31
0.0
  0
LINE
  5
1dc
100
AcDbEntity
  8
0
 62
1
100
AcDbLine
 10
140.352480
 20
36.665953
 30
0.0
 11
137.913590
 21
35.257863
 31
0.0
  0
LINE
  5
1dd
100
AcDbEntity
  8
0
 62
1
100
AcDbLine
 10
137.913590
 20
35.257863
 30
0.0
 11
135.474700
 21
36.665953
 31
0.0
  0
LINE
  5
1de
100
AcDbEntity
  8
0
 62
1
100
AcDbLine
 10
135.474700
 20
36.665953
 30
0.0
 11
135.474700
 21
39.482133
 31
0.0
  0
LINE
  5
1df
100
AcDbEntity
  8
0
 62
1
100
AcDbLine
 10
135.474700
 20
39.482133
 30
0.0
 11
137.913590
 21
40.890223
 31
0.0
  0
LINE
  5
1e0
100
AcDbEntity
  8
0
 62
1
100
AcDbLine
 10
137.913590
 20
40.890223
 30
0.0
 11
140.352480
 21
39.482133
 31
0.0
  0
LINE
  5
1e1
100
AcDbEntity
  8
0
 62
1
100
AcDbLine
 10
140.352480
 20
39.482133
 30
0.0
 11
140.352480
 21
36.665953
 31
0.0
  0
LINE
  5
1e2
100
AcDbEntity
  8
0
 62
1
100
AcDbLine
 10
156.895280
 20
36.665953
 30
0.0
 11
154.456390
 21
35.257863
 31
0.0
  0
LINE
  5
1e3
100
AcDbEntity
  8
0
 62
1
100
AcDbLine
 10
154.456390
 20
35.257863
 30
0.0
 11
152.017500
 21
36.665953
 31
0.0
  0
LINE
  5
1e4
100
AcDbEntity
  8
0
 62
1
100
AcDbLine
 10
152.017500
 20
36.665953
 30
0.0
 11
152.017500
 21
39.482133
 31
0.0
  0
LINE
  5
1e5
100
AcDbEntity
  8
0
 62
1
100
AcDbLine
 10
152.017500
 20
39.482133
 30
0.0
 11
154.456390
 21
40.890223
 31
0.0
  0
LINE
  5
1e6
100
AcDbEntity
  8
0
 62
1
100
AcDbLine
 10
154.456390
 20
40.890223
 30
0.0
 11
156.895280
 21
39.482133
 31
0.0
  0
LINE
  5
1e7
100
AcDbEntity
  8
0
 62
1
100
AcDbLine
 10
156.895280
 20
39.482133
 30
0.0
 11
156.895280
 21
36.665953
 31
0.0
  0
LINE
  5
1e8
100
AcDbEntity
  8
0
 62
1
100
AcDbLine
 10
173.438080
 20
36.665953
 30
0.0
 11
170.999190
 21
35.257863
 31
0.0
  0
LINE
  5
1e9
100
AcDbEntity
  8
0
 62
1
100
AcDbLine
 10
170.999190
 20
35.257863
 30
0.0
 11
168.560310
 21
36.665953
 31
0.0
  0
LINE
  5
1ea
100
AcDbEntity
  8
0
 62
1
100
AcDbLine
 10
168.560310
 20
36.665953
 30
0.0
 11
168.560310
 21
39.482133
 31
0.0
  0
LINE
  5
1eb
100
AcDbEntity
  8
0
 62
1
100
AcDbLine
 10
168.560310
 20
39.482133
 30
0.0
 11
170.999190
 21
40.890223
 31
0.0
  0
LINE
  5
1ec
100
AcDbEntity
  8
0
 62
1
100
AcDbLine
 10
170.999190
 20
40.890223
 30
0.0
 11
173.438080
 21
39.482133
 31
0.0
  0
LINE
  5
1ed
100
AcDbEntity
  8
0
 62
1
100
AcDbLine
 10
173.438080
 20
39.482133
 30
0.0
 11
173.438080
 21
36.665953
 31
0.0
  0
SPLINE
  5
1ee
100
AcDbEntity
  8
0
 62
3
100
AcDbSpline
 70
8
 71
3
 72
8
 73
4
 74
0
 40
0
 40
0
 40
0
 40
0
 40
1
 40
1
 40
1
 40
1
 10
97.873112
 20
50.766112
 30
0.0
 10
97.910887
 20
50.638451
 30
0.0
 10
97.837950
 20
50.504349
 30
0.0
 10
97.710304
 20
50.466606
 30
0.0
  0
SPLINE
  5
1ef
100
AcDbEntity
  8
0
 62
3
100
AcDbSpline
 70
8
 71
3
 72
8
 73
4
 74
0
 40
0
 40
0
 40
0
 40
0
 40
1
 40
1
 40
1
 40
1
 10
97.710304
 20
50.466606
 30
0.0
 10
97.582658
 20
50.428877
 30
0.0
 10
97.448548
 20
50.501696
 30
0.0
 10
97.410805
 20
50.629407
 30
0.0
  0
SPLINE
  5
1f0
100
AcDbEntity
  8
0
 62
3
100
AcDbSpline
 70
8
 71
3
 72
8
 73
4
 74
0
 40
0
 40
0
 40
0
 40
0
 40
1
 40
1
 40
1
 40
1
 10
97.410805
 20
50.629407
 30
0.0
 10
97.373077
 20
50.757071
 30
0.0
 10
97.445895
 20
50.891177
 30
0.0
 10
97.573621
 20
50.928916
 30
0.0
  0
SPLINE
  5
1f1
100
AcDbEntity
  8
0
 62
3
100
AcDbSpline
 70
8
 71
3
 72
8
 73
4
 74
0
 40
0
 40
0
 40
0
 40
0
 40
1
 40
1
 40
1
 40
1
 10
97.573621
 20
50.928916
 30
0.0
 10
97.701270
 20
50.966645
 30
0.0
 10
97.835365
 20
50.893827
 30
0.0
 10
97.873112
 20
50.766112
 30
0.0
  0
LINE
  5
1f2
100
AcDbEntity
  8
0
 62
3
100
AcDbLine
 10
97.873112
 20
50.766112
 30
0.0
 11
97.873112
 21
50.766112
 31
0.0
  0
LINE
  5
1f3
100
AcDbEntity
  8
0
 62
3
100
AcDbLine
 10
97.794660
 20
50.742803
 30
0.0
 11
97.776064
 21
50.665378
 31
0.0
  0
LINE
  5
1f4
100
AcDbEntity
  8
0
 62
3
100
AcDbLine
 10
97.776064
 20
50.665378
 30
0.0
 11
97.757396
 21
50.587981
 31
0.0
  0
LINE
  5
1f5
100
AcDbEntity
  8
0
 62
3
100
AcDbLine
 10
97.757396
 20
50.587981
 30
0.0
 11
97.681046
 21
50.565434
 31
0.0
  0
LINE
  5
1f6
100
AcDbEntity
  8
0
 62
3
100
AcDbLine
 10
97.681046
 20
50.565434
 30
0.0
 11
97.604687
 21
50.542886
 31
0.0
  0
LINE
  5
1f7
100
AcDbEntity
  8
0
 62
3
100
AcDbLine
 10
97.604687
 20
50.542886
 30
0.0
 11
97.546963
 21
50.597714
 31
0.0
  0
LINE
  5
1f8
100
AcDbEntity
  8
0
 62
3
100
AcDbLine
 10
97.546963
 20
50.597714
 30
0.0
 11
97.489307
 21
50.652534
 31
0.0
  0
LINE
  5
1f9
100
AcDbEntity
  8
0
 62
3
100
AcDbLine
 10
97.489307
 20
50.652534
 30
0.0
 11
97.507976
 21
50.729953
 31
0.0
  0
LINE
  5
1fa
100
AcDbEntity
  8
0
 62
3
100
AcDbLine
 10
97.507976
 20
50.729953
 30
0.0
 11
97.526572
 21
50.807371
 31
0.0
  0
LINE
  5
1fb
100
AcDbEntity
  8
0
 62
3
100
AcDbLine
 10
97.526572
 20
50.807371
 30
0.0
 11
97.602928
 21
50.829918
 31
0.0
  0
LINE
  5
1fc
100
AcDbEntity
  8
0
 62
3
100
AcDbLine
 10
97.602928
 20
50.829918
 30
0.0
 11
97.679281
 21
50.852466
 31
0.0
  0
LINE
  5
1fd
100
AcDbEntity
  8
0
 62
3
100
AcDbLine
 10
97.679281
 20
50.852466
 30
0.0
 11
97.737001
 21
50.797645
 31
0.0
  0
LINE
  5
1fe
100
AcDbEntity
  8
0
 62
3
100
AcDbLine
 10
97.737001
 20
50.797645
 30
0.0
 11
97.794660
 21
50.742803
 31
0.0
  0
SPLINE
  5
1ff
100
AcDbEntity
  8
0
 62
3
100
AcDbSpline
 70
8
 71
3
 72
8
 73
4
 74
0
 40
0
 40
0
 40
0
 40
0
 40
1
 40
1
 40
1
 40
1
 10
95.704029
 20
58.101893
 30
0.0
 10
95.741849
 20
57.974240
 30
0.0
 10
95.668940
 20
57.840140
 30
0.0
 10
95.541232
 20
57.802394
 30
0.0
  0
SPLINE
  5
200
100
AcDbEntity
  8
0
 62
3
100
AcDbSpline
 70
8
 71
3
 72
8
 73
4
 74
0
 40
0
 40
0
 40
0
 40
0
 40
1
 40
1
 40
1
 40
1
 10
95.541232
 20
57.802394
 30
0.0
 10
95.413568
 20
57.764687
 30
0.0
 10
95.279473
 20
57.837513
 30
0.0
 10
95.241730
 20
57.965197
 30
0.0
  0
SPLINE
  5
201
100
AcDbEntity
  8
0
 62
3
100
AcDbSpline
 70
8
 71
3
 72
8
 73
4
 74
0
 40
0
 40
0
 40
0
 40
0
 40
1
 40
1
 40
1
 40
1
 10
95.241730
 20
57.965197
 30
0.0
 10
95.204001
 20
58.092859
 30
0.0
 10
95.276820
 20
58.226958
 30
0.0
 10
95.404531
 20
58.264705
 30
0.0
  0
SPLINE
  5
202
100
AcDbEntity
  8
0
 62
3
100
AcDbSpline
 70
8
 71
3
 72
8
 73
4
 74
0
 40
0
 40
0
 40
0
 40
0
 40
1
 40
1
 40
1
 40
1
 10
95.404531
 20
58.264705
 30
0.0
 10
95.532181
 20
58.302406
 30
0.0
 10
95.666290
 20
58.229582
 30
0.0
 10
95.704029
 20
58.101893
 30
0.0
  0
LINE
  5
203
100
AcDbEntity
  8
0
 62
3
100
AcDbLine
 10
95.704029
 20
58.101893
 30
0.0
 11
95.704029
 21
58.101893
 31
0.0
  0
LINE
  5
204
100
AcDbEntity
  8
0
 62
3
100
AcDbLine
 10
95.625581
 20
58.078632
 30
0.0
 11
95.606985
 21
58.001213
 31
0.0
  0
LINE
  5
205
100
AcDbEntity
  8
0
 62
3
100
AcDbLine
 10
95.606985
 20
58.001213
 30
0.0
 11
95.588281
 21
57.923800
 31
0.0
  0
LINE
  5
206
100
AcDbEntity
  8
0
 62
3
100
AcDbLine
 10
95.588281
 20
57.923800
 30
0.0
 11
95.511935
 21
57.901238
 31
0.0
  0
LINE
  5
207
100
AcDbEntity
  8
0
 62
3
100
AcDbLine
 10
95.511935
 20
57.901238
 30
0.0
 11
95.435575
 21
57.878676
 31
0.0
  0
LINE
  5
208
100
AcDbEntity
  8
0
 62
3
100
AcDbLine
 10
95.435575
 20
57.878676
 30
0.0
 11
95.377855
 21
57.933521
 31
0.0
  0
LINE
  5
209
100
AcDbEntity
  8
0
 62
3
100
AcDbLine
 10
95.377855
 20
57.933521
 30
0.0
 11
95.320131
 21
57.988366
 31
0.0
  0
LINE
  5
20a
100
AcDbEntity
  8
0
 62
3
100
AcDbLine
 10
95.320131
 20
57.988366
 30
0.0
 11
95.338799
 21
58.065791
 31
0.0
  0
LINE
  5
20b
100
AcDbEntity
  8
0
 62
3
100
AcDbLine
 10
95.338799
 20
58.065791
 30
0.0
 11
95.357468
 21
58.143198
 31
0.0
  0
LINE
  5
20c
100
AcDbEntity
  8
0
 62
3
100
AcDbLine
 10
95.357468
 20
58.143198
 30
0.0
 11
95.433824
 21
58.165821
 31
0.0
  0
LINE
  5
20d
100
AcDbEntity
  8
0
 62
3
100
AcDbLine
 10
95.433824
 20
58.165821
 30
0.0
 11
95.510170
 21
58.188383
 31
0.0
  0
LINE
  5
20e
100
AcDbEntity
  8
0
 62
3
100
AcDbLine
 10
95.510170
 20
58.188383
 30
0.0
 11
95.567894
 21
58.133538
 31
0.0
  0
LINE
  5
20f
100
AcDbEntity
  8
0
 62
3
100
AcDbLine
 10
95.567894
 20
58.133538
 30
0.0
 11
95.625581
 21
58.078632
 31
0.0
  0
SPLINE
  5
210
100
AcDbEntity
  8
0
 62
3
100
AcDbSpline
 70
8
 71
3
 72
8
 73
4
 74
0
 40
0
 40
0
 40
0
 40
0
 40
1
 40
1
 40
1
 40
1
 10
100.157018
 20
55.681232
 30
0.0
 10
100.284672
 20
55.718939
 30
0.0
 10
100.418777
 20
55.646110
 30
0.0
 10
100.456517
 20
55.518422
 30
0.0
  0
SPLINE
  5
211
100
AcDbEntity
  8
0
 62
3
100
AcDbSpline
 70
8
 71
3
 72
8
 73
4
 74
0
 40
0
 40
0
 40
0
 40
0
 40
1
 40
1
 40
1
 40
1
 10
100.456517
 20
55.518422
 30
0.0
 10
100.494249
 20
55.390767
 30
0.0
 10
100.421355
 20
55.256668
 30
0.0
 10
100.293716
 20
55.218922
 30
0.0
  0
SPLINE
  5
212
100
AcDbEntity
  8
0
 62
3
100
AcDbSpline
 70
8
 71
3
 72
8
 73
4
 74
0
 40
0
 40
0
 40
0
 40
0
 40
1
 40
1
 40
1
 40
1
 10
100.293716
 20
55.218922
 30
0.0
 10
100.166048
 20
55.181225
 30
0.0
 10
100.031957
 20
55.254044
 30
0.0
 10
99.994214
 20
55.381726
 30
0.0
  0
SPLINE
  5
213
100
AcDbEntity
  8
0
 62
3
100
AcDbSpline
 70
8
 71
3
 72
8
 73
4
 74
0
 40
0
 40
0
 40
0
 40
0
 40
1
 40
1
 40
1
 40
1
 10
99.994214
 20
55.381726
 30
0.0
 10
99.956489
 20
55.509374
 30
0.0
 10
100.029376
 20
55.643480
 30
0.0
 10
100.157018
 20
55.681232
 30
0.0
  0
LINE
  5
214
100
AcDbEntity
  8
0
 62
3
100
AcDbLine
 10
100.157018
 20
55.681232
 30
0.0
 11
100.157018
 21
55.681232
 31
0.0
  0
LINE
  5
215
100
AcDbEntity
  8
0
 62
3
100
AcDbLine
 10
100.180255
 20
55.602775
 30
0.0
 11
100.257677
 21
55.584150
 31
0.0
  0
LINE
  5
216
100
AcDbEntity
  8
0
 62
3
100
AcDbLine
 10
100.257677
 20
55.584150
 30
0.0
 11
100.335080
 21
55.565460
 31
0.0
  0
LINE
  5
217
100
AcDbEntity
  8
0
 62
3
100
AcDbLine
 10
100.335080
 20
55.565460
 30
0.0
 11
100.357628
 21
55.489105
 31
0.0
  0
LINE
  5
218
100
AcDbEntity
  8
0
 62
3
100
AcDbLine
 10
100.357628
 20
55.489105
 30
0.0
 11
100.380175
 21
55.412755
 31
0.0
  0
LINE
  5
219
100
AcDbEntity
  8
0
 62
3
100
AcDbLine
 10
100.380175
 20
55.412755
 30
0.0
 11
100.325351
 21
55.355010
 31
0.0
  0
LINE
  5
21a
100
AcDbEntity
  8
0
 62
3
100
AcDbLine
 10
100.325351
 20
55.355010
 30
0.0
 11
100.270527
 21
55.297265
 31
0.0
  0
LINE
  5
21b
100
AcDbEntity
  8
0
 62
3
100
AcDbLine
 10
100.270527
 20
55.297265
 30
0.0
 11
100.193101
 21
55.315956
 31
0.0
  0
LINE
  5
21c
100
AcDbEntity
  8
0
 62
3
100
AcDbLine
 10
100.193101
 20
55.315956
 30
0.0
 11
100.115701
 21
55.334646
 31
0.0
  0
LINE
  5
21d
100
AcDbEntity
  8
0
 62
3
100
AcDbLine
 10
100.115701
 20
55.334646
 30
0.0
 11
100.093045
 21
55.410995
 31
0.0
  0
LINE
  5
21e
100
AcDbEntity
  8
0
 62
3
100
AcDbLine
 10
100.093045
 20
55.410995
 30
0.0
 11
100.070498
 21
55.487352
 31
0.0
  0
LINE
  5
21f
100
AcDbEntity
  8
0
 62
3
100
AcDbLine
 10
100.070498
 20
55.487352
 30
0.0
 11
100.125318
 21
55.545096
 31
0.0
  0
LINE
  5
220
100
AcDbEntity
  8
0
 62
3
100
AcDbLine
 10
100.125318
 20
55.545096
 30
0.0
 11
100.180255
 21
55.602775
 31
0.0
  0
SPLINE
  5
221
100
AcDbEntity
  8
0
 62
3
100
AcDbSpline
 70
8
 71
3
 72
8
 73
4
 74
0
 40
0
 40
0
 40
0
 40
0
 40
1
 40
1
 40
1
 40
1
 10
92.821166
 20
53.512144
 30
0.0
 10
92.948823
 20
53.549851
 30
0.0
 10
93.082932
 20
53.477018
 30
0.0
 10
93.120668
 20
53.349339
 30
0.0
  0
SPLINE
  5
222
100
AcDbEntity
  8
0
 62
3
100
AcDbSpline
 70
8
 71
3
 72
8
 73
4
 74
0
 40
0
 40
0
 40
0
 40
0
 40
1
 40
1
 40
1
 40
1
 10
93.120668
 20
53.349339
 30
0.0
 10
93.158491
 20
53.221686
 30
0.0
 10
93.085578
 20
53.087584
 30
0.0
 10
92.957860
 20
53.049837
 30
0.0
  0
SPLINE
  5
223
100
AcDbEntity
  8
0
 62
3
100
AcDbSpline
 70
8
 71
3
 72
8
 73
4
 74
0
 40
0
 40
0
 40
0
 40
0
 40
1
 40
1
 40
1
 40
1
 10
92.957860
 20
53.049837
 30
0.0
 10
92.830203
 20
53.012109
 30
0.0
 10
92.696104
 20
53.084963
 30
0.0
 10
92.658358
 20
53.212645
 30
0.0
  0
SPLINE
  5
224
100
AcDbEntity
  8
0
 62
3
100
AcDbSpline
 70
8
 71
3
 72
8
 73
4
 74
0
 40
0
 40
0
 40
0
 40
0
 40
1
 40
1
 40
1
 40
1
 10
92.658358
 20
53.212645
 30
0.0
 10
92.620625
 20
53.340306
 30
0.0
 10
92.693520
 20
53.474397
 30
0.0
 10
92.821166
 20
53.512144
 30
0.0
  0
LINE
  5
225
100
AcDbEntity
  8
0
 62
3
100
AcDbLine
 10
92.821166
 20
53.512144
 30
0.0
 11
92.821166
 21
53.512144
 31
0.0
  0
LINE
  5
226
100
AcDbEntity
  8
0
 62
3
100
AcDbLine
 10
92.844402
 20
53.433700
 30
0.0
 11
92.921827
 21
53.415031
 31
0.0
  0
LINE
  5
227
100
AcDbEntity
  8
0
 62
3
100
AcDbLine
 10
92.921827
 20
53.415031
 30
0.0
 11
92.999239
 21
53.396326
 31
0.0
  0
LINE
  5
228
100
AcDbEntity
  8
0
 62
3
100
AcDbLine
 10
92.999239
 20
53.396326
 30
0.0
 11
93.021786
 21
53.319977
 31
0.0
  0
LINE
  5
229
100
AcDbEntity
  8
0
 62
3
100
AcDbLine
 10
93.021786
 20
53.319977
 30
0.0
 11
93.044333
 21
53.243624
 31
0.0
  0
LINE
  5
22a
100
AcDbEntity
  8
0
 62
3
100
AcDbLine
 10
93.044333
 20
53.243624
 30
0.0
 11
92.989513
 21
53.185879
 31
0.0
  0
LINE
  5
22b
100
AcDbEntity
  8
0
 62
3
100
AcDbLine
 10
92.989513
 20
53.185879
 30
0.0
 11
92.934689
 21
53.128129
 31
0.0
  0
LINE
  5
22c
100
AcDbEntity
  8
0
 62
3
100
AcDbLine
 10
92.934689
 20
53.128129
 30
0.0
 11
92.857267
 21
53.146798
 31
0.0
  0
LINE
  5
22d
100
AcDbEntity
  8
0
 62
3
100
AcDbLine
 10
92.857267
 20
53.146798
 30
0.0
 11
92.779863
 21
53.165503
 31
0.0
  0
LINE
  5
22e
100
AcDbEntity
  8
0
 62
3
100
AcDbLine
 10
92.779863
 20
53.165503
 30
0.0
 11
92.757316
 21
53.241863
 31
0.0
  0
LINE
  5
22f
100
AcDbEntity
  8
0
 62
3
100
AcDbLine
 10
92.757316
 20
53.241863
 30
0.0
 11
92.734659
 21
53.318215
 31
0.0
  0
LINE
  5
230
100
AcDbEntity
  8
0
 62
3
100
AcDbLine
 10
92.734659
 20
53.318215
 30
0.0
 11
92.789483
 21
53.375957
 31
0.0
  0
LINE
  5
231
100
AcDbEntity
  8
0
 62
3
100
AcDbLine
 10
92.789483
 20
53.375957
 30
0.0
 11
92.844402
 21
53.433700
 31
0.0
  0
SPLINE
  5
232
100
AcDbEntity
  8
0
 62
3
100
AcDbSpline
 70
8
 71
3
 72
8
 73
4
 74
0
 40
0
 40
0
 40
0
 40
0
 40
1
 40
1
 40
1
 40
1
 10
92.417348
 20
53.285663
 30
0.0
 10
91.832180
 20
55.460163
 30
0.0
 10
93.058329
 20
57.715730
 30
0.0
 10
95.201377
 20
58.407178
 30
0.0
  0
LINE
  5
233
100
AcDbEntity
  8
0
 62
3
100
AcDbLine
 10
95.201377
 20
58.407178
 30
0.0
 11
95.227477
 21
58.319009
 31
0.0
  0
SPLINE
  5
234
100
AcDbEntity
  8
0
 62
3
100
AcDbSpline
 70
8
 71
3
 72
8
 73
4
 74
0
 40
0
 40
0
 40
0
 40
0
 40
1
 40
1
 40
1
 40
1
 10
95.227477
 20
58.319009
 30
0.0
 10
95.154963
 20
58.256560
 30
0.0
 10
95.108563
 20
58.168231
 30
0.0
 10
95.098504
 20
58.072864
 30
0.0
  0
SPLINE
  5
235
100
AcDbEntity
  8
0
 62
3
100
AcDbSpline
 70
8
 71
3
 72
8
 73
4
 74
0
 40
0
 40
0
 40
0
 40
0
 40
1
 40
1
 40
1
 40
1
 10
95.098504
 20
58.072864
 30
0.0
 10
93.281203
 20
57.383852
 30
0.0
 10
92.234715
 20
55.462895
 30
0.0
 10
92.640080
 20
53.563017
 30
0.0
  0
SPLINE
  5
236
100
AcDbEntity
  8
0
 62
3
100
AcDbSpline
 70
8
 71
3
 72
8
 73
4
 74
0
 40
0
 40
0
 40
0
 40
0
 40
1
 40
1
 40
1
 40
1
 10
92.640080
 20
53.563017
 30
0.0
 10
92.568379
 20
53.499471
 30
0.0
 10
92.523059
 20
53.410282
 30
0.0
 10
92.514486
 20
53.314369
 30
0.0
  0
LINE
  5
237
100
AcDbEntity
  8
0
 62
3
100
AcDbLine
 10
92.514486
 20
53.314369
 30
0.0
 11
92.417348
 21
53.285663
 31
0.0
  0
SPLINE
  5
238
100
AcDbEntity
  8
0
 62
3
100
AcDbSpline
 70
8
 71
3
 72
8
 73
4
 74
0
 40
0
 40
0
 40
0
 40
0
 40
1
 40
1
 40
1
 40
1
 10
92.932492
 20
53.655152
 30
0.0
 10
92.576114
 20
55.393829
 30
0.0
 10
93.533551
 20
57.145305
 30
0.0
 10
95.192441
 20
57.782270
 30
0.0
  0
SPLINE
  5
239
100
AcDbEntity
  8
0
 62
3
100
AcDbSpline
 70
8
 71
3
 72
8
 73
4
 74
0
 40
0
 40
0
 40
0
 40
0
 40
1
 40
1
 40
1
 40
1
 10
95.192441
 20
57.782270
 30
0.0
 10
95.252011
 20
57.715860
 30
0.0
 10
95.333710
 20
57.672455
 30
0.0
 10
95.422214
 20
57.660332
 30
0.0
  0
LINE
  5
23a
100
AcDbEntity
  8
0
 62
3
100
AcDbLine
 10
95.422214
 20
57.660332
 30
0.0
 11
95.609342
 21
57.027459
 31
0.0
  0
SPLINE
  5
23b
100
AcDbEntity
  8
0
 62
3
100
AcDbSpline
 70
8
 71
3
 72
8
 73
4
 74
0
 40
0
 40
0
 40
0
 40
0
 40
1
 40
1
 40
1
 40
1
 10
95.609342
 20
57.027459
 30
0.0
 10
94.227526
 20
56.562119
 30
0.0
 10
93.436167
 20
55.106329
 30
0.0
 10
93.797090
 20
53.693613
 30
0.0
  0
LINE
  5
23c
100
AcDbEntity
  8
0
 62
3
100
AcDbLine
 10
93.797090
 20
53.693613
 30
0.0
 11
93.186251
 21
53.512992
 31
0.0
  0
SPLINE
  5
23d
100
AcDbEntity
  8
0
 62
3
100
AcDbSpline
 70
8
 71
3
 72
8
 73
4
 74
0
 40
0
 40
0
 40
0
 40
0
 40
1
 40
1
 40
1
 40
1
 10
93.186251
 20
53.512992
 30
0.0
 10
93.124209
 20
53.592317
 30
0.0
 10
93.032364
 20
53.643643
 30
0.0
 10
92.932510
 20
53.655152
 30
0.0
  0
LINE
  5
23e
100
AcDbEntity
  8
0
 62
3
100
AcDbLine
 10
92.932510
 20
53.655152
 30
0.0
 11
92.932492
 21
53.655152
 31
0.0
  0
SPLINE
  5
23f
100
AcDbEntity
  8
0
 62
3
100
AcDbSpline
 70
8
 71
3
 72
8
 73
4
 74
0
 40
0
 40
0
 40
0
 40
0
 40
1
 40
1
 40
1
 40
1
 10
100.605398
 20
55.706714
 30
0.0
 10
99.913997
 20
57.849797
 30
0.0
 10
97.658405
 20
59.075889
 30
0.0
 10
95.483921
 20
58.490726
 30
0.0
  0
LINE
  5
240
100
AcDbEntity
  8
0
 62
3
100
AcDbLine
 10
95.483921
 20
58.490726
 30
0.0
 11
95.508245
 21
58.408434
 31
0.0
  0
SPLINE
  5
241
100
AcDbEntity
  8
0
 62
3
100
AcDbSpline
 70
8
 71
3
 72
8
 73
4
 74
0
 40
0
 40
0
 40
0
 40
0
 40
1
 40
1
 40
1
 40
1
 10
95.508245
 20
58.408434
 30
0.0
 10
95.609476
 20
58.398900
 30
0.0
 10
95.703094
 20
58.348369
 30
0.0
 10
95.766720
 20
58.269148
 30
0.0
  0
SPLINE
  5
242
100
AcDbEntity
  8
0
 62
3
100
AcDbSpline
 70
8
 71
3
 72
8
 73
4
 74
0
 40
0
 40
0
 40
0
 40
0
 40
1
 40
1
 40
1
 40
1
 10
95.766720
 20
58.269148
 30
0.0
 10
97.659590
 20
58.670260
 30
0.0
 10
99.572065
 20
57.630886
 30
0.0
 10
100.265282
 20
55.824560
 30
0.0
  0
SPLINE
  5
243
100
AcDbEntity
  8
0
 62
3
100
AcDbSpline
 70
8
 71
3
 72
8
 73
4
 74
0
 40
0
 40
0
 40
0
 40
0
 40
1
 40
1
 40
1
 40
1
 10
100.265282
 20
55.824560
 30
0.0
 10
100.366299
 20
55.813798
 30
0.0
 10
100.459420
 20
55.762238
 30
0.0
 10
100.522140
 20
55.682083
 30
0.0
  0
LINE
  5
244
100
AcDbEntity
  8
0
 62
3
100
AcDbLine
 10
100.522140
 20
55.682083
 30
0.0
 11
100.605398
 21
55.706714
 31
0.0
  0
SPLINE
  5
245
100
AcDbEntity
  8
0
 62
3
100
AcDbSpline
 70
8
 71
3
 72
8
 73
4
 74
0
 40
0
 40
0
 40
0
 40
0
 40
1
 40
1
 40
1
 40
1
 10
99.974472
 20
55.730813
 30
0.0
 10
99.331599
 20
57.383043
 30
0.0
 10
97.580950
 20
58.334080
 30
0.0
 10
95.844805
 20
57.973885
 30
0.0
  0
SPLINE
  5
246
100
AcDbEntity
  8
0
 62
3
100
AcDbSpline
 70
8
 71
3
 72
8
 73
4
 74
0
 40
0
 40
0
 40
0
 40
0
 40
1
 40
1
 40
1
 40
1
 10
95.844805
 20
57.973885
 30
0.0
 10
95.829834
 20
57.881178
 30
0.0
 10
95.780505
 20
57.796555
 30
0.0
 10
95.706454
 20
57.737979
 30
0.0
  0
LINE
  5
247
100
AcDbEntity
  8
0
 62
3
100
AcDbLine
 10
95.706454
 20
57.737979
 30
0.0
 11
95.891853
 21
57.110996
 31
0.0
  0
SPLINE
  5
248
100
AcDbEntity
  8
0
 62
3
100
AcDbSpline
 70
8
 71
3
 72
8
 73
4
 74
0
 40
0
 40
0
 40
0
 40
0
 40
1
 40
1
 40
1
 40
1
 10
95.891853
 20
57.110996
 30
0.0
 10
97.304528
 20
57.471933
 30
0.0
 10
98.760311
 20
56.680574
 30
0.0
 10
99.225677
 20
55.298748
 30
0.0
  0
LINE
  5
249
100
AcDbEntity
  8
0
 62
3
100
AcDbLine
 10
99.225677
 20
55.298748
 30
0.0
 11
99.850321
 21
55.483444
 31
0.0
  0
SPLINE
  5
24a
100
AcDbEntity
  8
0
 62
3
100
AcDbSpline
 70
8
 71
3
 72
8
 73
4
 74
0
 40
0
 40
0
 40
0
 40
0
 40
1
 40
1
 40
1
 40
1
 10
99.850321
 20
55.483444
 30
0.0
 10
99.858767
 20
55.578701
 30
0.0
 10
99.903590
 20
55.667353
 30
0.0
 10
99.974472
 20
55.730813
 30
0.0
  0
LINE
  5
24b
100
AcDbEntity
  8
0
 62
3
100
AcDbLine
 10
99.974472
 20
55.730813
 30
0.0
 11
99.974472
 21
55.730813
 31
0.0
  0
SPLINE
  5
24c
100
AcDbEntity
  8
0
 62
3
100
AcDbSpline
 70
8
 71
3
 72
8
 73
4
 74
0
 40
0
 40
0
 40
0
 40
0
 40
1
 40
1
 40
1
 40
1
 10
92.498370
 20
53.011583
 30
0.0
 10
93.189814
 20
50.868510
 30
0.0
 10
95.445413
 20
49.642423
 30
0.0
 10
97.619901
 20
50.227576
 30
0.0
  0
LINE
  5
24d
100
AcDbEntity
  8
0
 62
3
100
AcDbLine
 10
97.619901
 20
50.227576
 30
0.0
 11
97.591227
 21
50.324420
 31
0.0
  0
SPLINE
  5
24e
100
AcDbEntity
  8
0
 62
3
100
AcDbSpline
 70
8
 71
3
 72
8
 73
4
 74
0
 40
0
 40
0
 40
0
 40
0
 40
1
 40
1
 40
1
 40
1
 10
97.591227
 20
50.324420
 30
0.0
 10
97.499784
 20
50.336963
 30
0.0
 10
97.415579
 20
50.382859
 30
0.0
 10
97.355615
 20
50.453081
 30
0.0
  0
SPLINE
  5
24f
100
AcDbEntity
  8
0
 62
3
100
AcDbSpline
 70
8
 71
3
 72
8
 73
4
 74
0
 40
0
 40
0
 40
0
 40
0
 40
1
 40
1
 40
1
 40
1
 10
97.355615
 20
50.453081
 30
0.0
 10
95.451467
 20
50.040049
 30
0.0
 10
93.523213
 20
51.087182
 30
0.0
 10
92.832639
 20
52.908717
 30
0.0
  0
SPLINE
  5
250
100
AcDbEntity
  8
0
 62
3
100
AcDbSpline
 70
8
 71
3
 72
8
 73
4
 74
0
 40
0
 40
0
 40
0
 40
0
 40
1
 40
1
 40
1
 40
1
 10
92.832639
 20
52.908717
 30
0.0
 10
92.741442
 20
52.922710
 30
0.0
 10
92.657912
 20
52.970005
 30
0.0
 10
92.598991
 20
53.041348
 30
0.0
  0
LINE
  5
251
100
AcDbEntity
  8
0
 62
3
100
AcDbLine
 10
92.598991
 20
53.041348
 30
0.0
 11
92.498370
 21
53.011583
 31
0.0
  0
SPLINE
  5
252
100
AcDbEntity
  8
0
 62
3
100
AcDbSpline
 70
8
 71
3
 72
8
 73
4
 74
0
 40
0
 40
0
 40
0
 40
0
 40
1
 40
1
 40
1
 40
1
 10
93.128389
 20
52.989797
 30
0.0
 10
93.771730
 20
51.333064
 30
0.0
 10
95.528519
 20
50.380455
 30
0.0
 10
97.268645
 20
50.746381
 30
0.0
  0
SPLINE
  5
253
100
AcDbEntity
  8
0
 62
3
100
AcDbSpline
 70
8
 71
3
 72
8
 73
4
 74
0
 40
0
 40
0
 40
0
 40
0
 40
1
 40
1
 40
1
 40
1
 10
97.268645
 20
50.746381
 30
0.0
 10
97.280680
 20
50.838176
 30
0.0
 10
97.326369
 20
50.922772
 30
0.0
 10
97.396505
 20
50.983128
 30
0.0
  0
LINE
  5
254
100
AcDbEntity
  8
0
 62
3
100
AcDbLine
 10
97.396505
 20
50.983128
 30
0.0
 11
97.211936
 21
51.607325
 31
0.0
  0
SPLINE
  5
255
100
AcDbEntity
  8
0
 62
3
100
AcDbSpline
 70
8
 71
3
 72
8
 73
4
 74
0
 40
0
 40
0
 40
0
 40
0
 40
1
 40
1
 40
1
 40
1
 10
97.211936
 20
51.607325
 30
0.0
 10
95.799257
 20
51.246376
 30
0.0
 10
94.343463
 20
52.037743
 30
0.0
 10
93.878101
 20
53.419569
 30
0.0
  0
LINE
  5
256
100
AcDbEntity
  8
0
 62
3
100
AcDbLine
 10
93.878101
 20
53.419569
 30
0.0
 11
93.263694
 21
53.237908
 31
0.0
  0
SPLINE
  5
257
100
AcDbEntity
  8
0
 62
3
100
AcDbSpline
 70
8
 71
3
 72
8
 73
4
 74
0
 40
0
 40
0
 40
0
 40
0
 40
1
 40
1
 40
1
 40
1
 10
93.263694
 20
53.237908
 30
0.0
 10
93.252457
 20
53.141038
 30
0.0
 10
93.203774
 20
53.051693
 30
0.0
 10
93.128389
 20
52.989797
 30
0.0
  0
LINE
  5
258
100
AcDbEntity
  8
0
 62
3
100
AcDbLine
 10
93.128389
 20
52.989797
 30
0.0
 11
93.128389
 21
52.989797
 31
0.0
  0
SPLINE
  5
259
100
AcDbEntity
  8
0
 62
3
100
AcDbSpline
 70
8
 71
3
 72
8
 73
4
 74
0
 40
0
 40
0
 40
0
 40
0
 40
1
 40
1
 40
1
 40
1
 10
100.686427
 20
55.432666
 30
0.0
 10
101.271631
 20
53.258161
 30
0.0
 10
100.045496
 20
51.002594
 30
0.0
 10
97.902438
 20
50.311146
 30
0.0
  0
LINE
  5
25a
100
AcDbEntity
  8
0
 62
3
100
AcDbLine
 10
97.902438
 20
50.311146
 30
0.0
 11
97.875468
 21
50.402111
 31
0.0
  0
SPLINE
  5
25b
100
AcDbEntity
  8
0
 62
3
100
AcDbSpline
 70
8
 71
3
 72
8
 73
4
 74
0
 40
0
 40
0
 40
0
 40
0
 40
1
 40
1
 40
1
 40
1
 10
97.875468
 20
50.402111
 30
0.0
 10
97.952538
 20
50.463094
 30
0.0
 10
98.002875
 20
50.552246
 30
0.0
 10
98.015468
 20
50.649410
 30
0.0
  0
SPLINE
  5
25c
100
AcDbEntity
  8
0
 62
3
100
AcDbSpline
 70
8
 71
3
 72
8
 73
4
 74
0
 40
0
 40
0
 40
0
 40
0
 40
1
 40
1
 40
1
 40
1
 10
98.015468
 20
50.649410
 30
0.0
 10
99.827371
 20
51.342079
 30
0.0
 10
100.869343
 20
53.260847
 30
0.0
 10
100.463143
 20
55.158010
 30
0.0
  0
SPLINE
  5
25d
100
AcDbEntity
  8
0
 62
3
100
AcDbSpline
 70
8
 71
3
 72
8
 73
4
 74
0
 40
0
 40
0
 40
0
 40
0
 40
1
 40
1
 40
1
 40
1
 10
100.463143
 20
55.158010
 30
0.0
 10
100.539155
 20
55.219942
 30
0.0
 10
100.588259
 20
55.309671
 30
0.0
 10
100.599533
 20
55.406991
 30
0.0
  0
LINE
  5
25e
100
AcDbEntity
  8
0
 62
3
100
AcDbLine
 10
100.599533
 20
55.406991
 30
0.0
 11
100.686427
 21
55.432666
 31
0.0
  0
SPLINE
  5
25f
100
AcDbEntity
  8
0
 62
3
100
AcDbSpline
 70
8
 71
3
 72
8
 73
4
 74
0
 40
0
 40
0
 40
0
 40
0
 40
1
 40
1
 40
1
 40
1
 10
100.168372
 20
55.077858
 30
0.0
 10
100.531989
 20
53.340204
 30
0.0
 10
99.581265
 20
51.586775
 30
0.0
 10
97.928008
 20
50.942640
 30
0.0
  0
SPLINE
  5
260
100
AcDbEntity
  8
0
 62
3
100
AcDbSpline
 70
8
 71
3
 72
8
 73
4
 74
0
 40
0
 40
0
 40
0
 40
0
 40
1
 40
1
 40
1
 40
1
 10
97.928008
 20
50.942640
 30
0.0
 10
97.864626
 20
51.016463
 30
0.0
 10
97.774476
 20
51.063388
 30
0.0
 10
97.677305
 20
51.072552
 30
0.0
  0
LINE
  5
261
100
AcDbEntity
  8
0
 62
3
100
AcDbLine
 10
97.677305
 20
51.072552
 30
0.0
 11
97.494469
 21
51.690870
 31
0.0
  0
SPLINE
  5
262
100
AcDbEntity
  8
0
 62
3
100
AcDbSpline
 70
8
 71
3
 72
8
 73
4
 74
0
 40
0
 40
0
 40
0
 40
0
 40
1
 40
1
 40
1
 40
1
 10
97.494469
 20
51.690870
 30
0.0
 10
98.876292
 20
52.156218
 30
0.0
 10
99.667641
 20
53.611983
 30
0.0
 10
99.306721
 20
55.024709
 30
0.0
  0
LINE
  5
263
100
AcDbEntity
  8
0
 62
3
100
AcDbLine
 10
99.306721
 20
55.024709
 30
0.0
 11
99.934913
 21
55.210450
 31
0.0
  0
SPLINE
  5
264
100
AcDbEntity
  8
0
 62
3
100
AcDbSpline
 70
8
 71
3
 72
8
 73
4
 74
0
 40
0
 40
0
 40
0
 40
0
 40
1
 40
1
 40
1
 40
1
 10
99.934913
 20
55.210450
 30
0.0
 10
99.993764
 20
55.139179
 30
0.0
 10
100.077262
 20
55.091900
 30
0.0
 10
100.168372
 20
55.077858
 30
0.0
  0
LINE
  5
265
100
AcDbEntity
  8
0
 62
3
100
AcDbLine
 10
100.168372
 20
55.077858
 30
0.0
 11
100.168372
 21
55.077858
 31
0.0
  0
SPLINE
  5
266
100
AcDbEntity
  8
0
 62
3
100
AcDbSpline
 70
8
 71
3
 72
8
 73
4
 74
0
 40
0
 40
0
 40
0
 40
0
 40
1
 40
1
 40
1
 40
1
 10
95.952630
 20
54.881265
 30
0.0
 10
95.876382
 20
54.739690
 30
0.0
 10
95.797938
 20
54.608162
 30
0.0
 10
95.727570
 20
54.462778
 30
0.0
  0
LINE
  5
267
100
AcDbEntity
  8
0
 62
3
100
AcDbLine
 10
95.727570
 20
54.462778
 30
0.0
 11
96.930207
 21
53.779391
 31
0.0
  0
LINE
  5
268
100
AcDbEntity
  8
0
 62
3
100
AcDbLine
 10
96.930207
 20
53.779391
 30
0.0
 11
96.933868
 21
53.765290
 31
0.0
  0
LINE
  5
269
100
AcDbEntity
  8
0
 62
3
100
AcDbLine
 10
96.933868
 20
53.765290
 30
0.0
 11
97.951976
 21
54.066324
 31
0.0
  0
LINE
  5
26a
100
AcDbEntity
  8
0
 62
3
100
AcDbLine
 10
97.951976
 20
54.066324
 30
0.0
 11
96.695487
 21
54.401824
 31
0.0
  0
LINE
  5
26b
100
AcDbEntity
  8
0
 62
3
100
AcDbLine
 10
96.695487
 20
54.401824
 30
0.0
 11
97.566791
 21
55.358725
 31
0.0
  0
LINE
  5
26c
100
AcDbEntity
  8
0
 62
3
100
AcDbLine
 10
97.566791
 20
55.358725
 30
0.0
 11
95.952630
 21
54.881265
 31
0.0
  0
SPLINE
  5
26d
100
AcDbEntity
  8
0
 62
3
100
AcDbSpline
 70
8
 71
3
 72
8
 73
4
 74
0
 40
0
 40
0
 40
0
 40
0
 40
1
 40
1
 40
1
 40
1
 10
94.799093
 20
52.664822
 30
0.0
 10
94.534285
 20
52.938203
 30
0.0
 10
94.329728
 20
53.277768
 30
0.0
 10
94.214327
 20
53.668017
 30
0.0
  0
SPLINE
  5
26e
100
AcDbEntity
  8
0
 62
3
100
AcDbSpline
 70
8
 71
3
 72
8
 73
4
 74
0
 40
0
 40
0
 40
0
 40
0
 40
1
 40
1
 40
1
 40
1
 10
94.214327
 20
53.668017
 30
0.0
 10
94.098963
 20
54.058244
 30
0.0
 10
94.085964
 20
54.454446
 30
0.0
 10
94.159572
 20
54.827878
 30
0.0
  0
LINE
  5
26f
100
AcDbEntity
  8
0
 62
3
100
AcDbLine
 10
94.159572
 20
54.827878
 30
0.0
 11
94.799093
 21
52.664822
 31
0.0
  0
SPLINE
  5
270
100
AcDbEntity
  8
0
 62
3
100
AcDbSpline
 70
8
 71
3
 72
8
 73
4
 74
0
 40
0
 40
0
 40
0
 40
0
 40
1
 40
1
 40
1
 40
1
 10
98.924131
 20
53.797250
 30
0.0
 10
98.728662
 20
52.975547
 30
0.0
 10
98.110982
 20
52.278245
 30
0.0
 10
97.243060
 20
52.021623
 30
0.0
  0
SPLINE
  5
271
100
AcDbEntity
  8
0
 62
3
100
AcDbSpline
 70
8
 71
3
 72
8
 73
4
 74
0
 40
0
 40
0
 40
0
 40
0
 40
1
 40
1
 40
1
 40
1
 10
97.243060
 20
52.021623
 30
0.0
 10
96.663409
 20
51.850231
 30
0.0
 10
96.070586
 20
51.904634
 30
0.0
 10
95.558733
 20
52.133283
 30
0.0
  0
LINE
  5
272
100
AcDbEntity
  8
0
 62
3
100
AcDbLine
 10
95.558733
 20
52.133283
 30
0.0
 11
95.183789
 21
53.401361
 31
0.0
  0
LINE
  5
273
100
AcDbEntity
  8
0
 62
3
100
AcDbLine
 10
95.183789
 20
53.401361
 30
0.0
 11
95.445917
 21
53.918383
 31
0.0
  0
LINE
  5
274
100
AcDbEntity
  8
0
 62
3
100
AcDbLine
 10
95.445917
 20
53.918383
 30
0.0
 11
96.817097
 21
53.174243
 31
0.0
  0
LINE
  5
275
100
AcDbEntity
  8
0
 62
3
100
AcDbLine
 10
96.817097
 20
53.174243
 30
0.0
 11
96.884438
 21
53.194144
 31
0.0
  0
LINE
  5
276
100
AcDbEntity
  8
0
 62
3
100
AcDbLine
 10
96.884438
 20
53.194144
 30
0.0
 11
96.972050
 21
53.219990
 31
0.0
  0
LINE
  5
277
100
AcDbEntity
  8
0
 62
3
100
AcDbLine
 10
96.972050
 20
53.219990
 30
0.0
 11
97.085653
 21
53.253557
 31
0.0
  0
LINE
  5
278
100
AcDbEntity
  8
0
 62
3
100
AcDbLine
 10
97.085653
 20
53.253557
 30
0.0
 11
98.924131
 21
53.797250
 31
0.0
  0
SPLINE
  5
279
100
AcDbEntity
  8
0
 62
3
100
AcDbSpline
 70
8
 71
3
 72
8
 73
4
 74
0
 40
0
 40
0
 40
0
 40
0
 40
1
 40
1
 40
1
 40
1
 10
98.559191
 20
55.742916
 30
0.0
 10
98.701612
 20
55.536296
 30
0.0
 10
98.814425
 20
55.304038
 30
0.0
 10
98.889444
 20
55.050340
 30
0.0
  0
SPLINE
  5
27a
100
AcDbEntity
  8
0
 62
3
100
AcDbSpline
 70
8
 71
3
 72
8
 73
4
 74
0
 40
0
 40
0
 40
0
 40
0
 40
1
 40
1
 40
1
 40
1
 10
98.889444
 20
55.050340
 30
0.0
 10
98.964459
 20
54.796628
 30
0.0
 10
98.996065
 20
54.540384
 30
0.0
 10
98.988942
 20
54.289521
 30
0.0
  0
LINE
  5
27b
100
AcDbEntity
  8
0
 62
3
100
AcDbLine
 10
98.988942
 20
54.289521
 30
0.0
 11
98.981801
 21
54.313819
 31
0.0
  0
LINE
  5
27c
100
AcDbEntity
  8
0
 62
3
100
AcDbLine
 10
98.981801
 20
54.313819
 30
0.0
 11
98.940610
 21
54.323161
 31
0.0
  0
LINE
  5
27d
100
AcDbEntity
  8
0
 62
3
100
AcDbLine
 10
98.940610
 20
54.323161
 30
0.0
 11
97.670657
 21
54.688492
 31
0.0
  0
LINE
  5
27e
100
AcDbEntity
  8
0
 62
3
100
AcDbLine
 10
97.670657
 20
54.688492
 30
0.0
 11
98.539823
 21
55.678609
 31
0.0
  0
LINE
  5
27f
100
AcDbEntity
  8
0
 62
3
100
AcDbLine
 10
98.539823
 20
55.678609
 30
0.0
 11
98.569258
 21
55.708834
 31
0.0
  0
LINE
  5
280
100
AcDbEntity
  8
0
 62
3
100
AcDbLine
 10
98.569258
 20
55.708834
 30
0.0
 11
98.559191
 21
55.742916
 31
0.0
  0
SPLINE
  5
281
100
AcDbEntity
  8
0
 62
3
100
AcDbSpline
 70
8
 71
3
 72
8
 73
4
 74
0
 40
0
 40
0
 40
0
 40
0
 40
1
 40
1
 40
1
 40
1
 10
95.860697
 20
56.696717
 30
0.0
 10
96.728641
 20
56.953354
 30
0.0
 10
97.626197
 20
56.704130
 30
0.0
 10
98.237131
 20
56.120763
 30
0.0
  0
SPLINE
  5
282
100
AcDbEntity
  8
0
 62
3
100
AcDbSpline
 70
8
 71
3
 72
8
 73
4
 74
0
 40
0
 40
0
 40
0
 40
0
 40
1
 40
1
 40
1
 40
1
 10
98.237131
 20
56.120763
 30
0.0
 10
97.321236
 20
55.848633
 30
0.0
 10
96.409234
 20
55.563472
 30
0.0
 10
95.492958
 20
55.292547
 30
0.0
  0
LINE
  5
283
100
AcDbEntity
  8
0
 62
3
100
AcDbLine
 10
95.492958
 20
55.292547
 30
0.0
 11
94.944740
 21
54.209802
 31
0.0
  0
LINE
  5
284
100
AcDbEntity
  8
0
 62
3
100
AcDbLine
 10
94.944740
 20
54.209802
 30
0.0
 11
94.507950
 21
55.687028
 31
0.0
  0
SPLINE
  5
285
100
AcDbEntity
  8
0
 62
3
100
AcDbSpline
 70
8
 71
3
 72
8
 73
4
 74
0
 40
0
 40
0
 40
0
 40
0
 40
1
 40
1
 40
1
 40
1
 10
94.507950
 20
55.687028
 30
0.0
 10
94.813110
 20
56.157297
 30
0.0
 10
95.281054
 20
56.525310
 30
0.0
 10
95.860697
 20
56.696717
 30
0.0
  0
LINE
  5
286
100
AcDbEntity
  8
0
 62
3
100
AcDbLine
 10
95.860697
 20
56.696717
 30
0.0
 11
95.860697
 21
56.696717
 31
0.0
  0
LINE
  5
287
100
AcDbEntity
  8
0
 62
3
100
AcDbLine
 10
102.167958
 20
53.254416
 30
0.0
 11
102.167958
 21
55.464099
 31
0.0
  0
LINE
  5
288
100
AcDbEntity
  8
0
 62
3
100
AcDbLine
 10
102.167958
 20
55.464099
 30
0.0
 11
102.583916
 21
55.464099
 31
0.0
  0
LINE
  5
289
100
AcDbEntity
  8
0
 62
3
100
AcDbLine
 10
102.583916
 20
55.464099
 30
0.0
 11
103.624905
 21
54.128442
 31
0.0
  0
LINE
  5
28a
100
AcDbEntity
  8
0
 62
3
100
AcDbLine
 10
103.624905
 20
54.128442
 30
0.0
 11
104.643060
 21
55.464099
 31
0.0
  0
LINE
  5
28b
100
AcDbEntity
  8
0
 62
3
100
AcDbLine
 10
104.643060
 20
55.464099
 30
0.0
 11
105.054747
 21
55.464099
 31
0.0
  0
LINE
  5
28c
100
AcDbEntity
  8
0
 62
3
100
AcDbLine
 10
105.054747
 20
55.464099
 30
0.0
 11
105.054747
 21
53.254416
 31
0.0
  0
LINE
  5
28d
100
AcDbEntity
  8
0
 62
3
100
AcDbLine
 10
105.054747
 20
53.254416
 30
0.0
 11
104.578137
 21
53.254416
 31
0.0
  0
LINE
  5
28e
100
AcDbEntity
  8
0
 62
3
100
AcDbLine
 10
104.578137
 20
53.254416
 30
0.0
 11
104.578137
 21
54.619328
 31
0.0
  0
SPLINE
  5
28f
100
AcDbEntity
  8
0
 62
3
100
AcDbSpline
 70
8
 71
3
 72
8
 73
4
 74
0
 40
0
 40
0
 40
0
 40
0
 40
1
 40
1
 40
1
 40
1
 10
104.578137
 20
54.619328
 30
0.0
 10
104.578137
 20
54.645714
 30
0.0
 10
104.579587
 20
54.679264
 30
0.0
 10
104.583139
 20
54.719934
 30
0.0
  0
SPLINE
  5
290
100
AcDbEntity
  8
0
 62
3
100
AcDbSpline
 70
8
 71
3
 72
8
 73
4
 74
0
 40
0
 40
0
 40
0
 40
0
 40
1
 40
1
 40
1
 40
1
 10
104.583139
 20
54.719934
 30
0.0
 10
104.586764
 20
54.760594
 30
0.0
 10
104.591694
 20
54.805553
 30
0.0
 10
104.596697
 20
54.855496
 30
0.0
  0
SPLINE
  5
291
100
AcDbEntity
  8
0
 62
3
100
AcDbSpline
 70
8
 71
3
 72
8
 73
4
 74
0
 40
0
 40
0
 40
0
 40
0
 40
1
 40
1
 40
1
 40
1
 10
104.596697
 20
54.855496
 30
0.0
 10
104.568857
 20
54.798414
 30
0.0
 10
104.544613
 20
54.751321
 30
0.0
 10
104.523915
 20
54.714931
 30
0.0
  0
SPLINE
  5
292
100
AcDbEntity
  8
0
 62
3
100
AcDbSpline
 70
8
 71
3
 72
8
 73
4
 74
0
 40
0
 40
0
 40
0
 40
0
 40
1
 40
1
 40
1
 40
1
 10
104.523915
 20
54.714931
 30
0.0
 10
104.503252
 20
54.677831
 30
0.0
 10
104.483964
 20
54.647151
 30
0.0
 10
104.467557
 20
54.623612
 30
0.0
  0
LINE
  5
293
100
AcDbEntity
  8
0
 62
3
100
AcDbLine
 10
104.467557
 20
54.623612
 30
0.0
 11
103.637755
 21
53.519840
 31
0.0
  0
LINE
  5
294
100
AcDbEntity
  8
0
 62
3
100
AcDbLine
 10
103.637755
 20
53.519840
 30
0.0
 11
103.535013
 21
53.519840
 31
0.0
  0
LINE
  5
295
100
AcDbEntity
  8
0
 62
3
100
AcDbLine
 10
103.535013
 20
53.519840
 30
0.0
 11
102.703086
 21
54.627885
 31
0.0
  0
SPLINE
  5
296
100
AcDbEntity
  8
0
 62
3
100
AcDbSpline
 70
8
 71
3
 72
8
 73
4
 74
0
 40
0
 40
0
 40
0
 40
0
 40
1
 40
1
 40
1
 40
1
 10
102.703086
 20
54.627885
 30
0.0
 10
102.672419
 20
54.669988
 30
0.0
 10
102.646011
 20
54.709228
 30
0.0
 10
102.624599
 20
54.746331
 30
0.0
  0
SPLINE
  5
297
100
AcDbEntity
  8
0
 62
3
100
AcDbSpline
 70
8
 71
3
 72
8
 73
4
 74
0
 40
0
 40
0
 40
0
 40
0
 40
1
 40
1
 40
1
 40
1
 10
102.624599
 20
54.746331
 30
0.0
 10
102.603211
 20
54.782717
 30
0.0
 10
102.585362
 20
54.819107
 30
0.0
 10
102.571091
 20
54.853350
 30
0.0
  0
SPLINE
  5
298
100
AcDbEntity
  8
0
 62
3
100
AcDbSpline
 70
8
 71
3
 72
8
 73
4
 74
0
 40
0
 40
0
 40
0
 40
0
 40
1
 40
1
 40
1
 40
1
 10
102.571091
 20
54.853350
 30
0.0
 10
102.575368
 20
54.807687
 30
0.0
 10
102.578920
 20
54.765594
 30
0.0
 10
102.581095
 20
54.728491
 30
0.0
  0
SPLINE
  5
299
100
AcDbEntity
  8
0
 62
3
100
AcDbSpline
 70
8
 71
3
 72
8
 73
4
 74
0
 40
0
 40
0
 40
0
 40
0
 40
1
 40
1
 40
1
 40
1
 10
102.581095
 20
54.728491
 30
0.0
 10
102.582908
 20
54.690681
 30
0.0
 10
102.583995
 20
54.654294
 30
0.0
 10
102.583995
 20
54.619328
 30
0.0
  0
LINE
  5
29a
100
AcDbEntity
  8
0
 62
3
100
AcDbLine
 10
102.583995
 20
54.619328
 30
0.0
 11
102.583995
 21
53.254416
 31
0.0
  0
LINE
  5
29b
100
AcDbEntity
  8
0
 62
3
100
AcDbLine
 10
102.583995
 20
53.254416
 30
0.0
 11
102.167958
 21
53.254416
 31
0.0
  0
LINE
  5
29c
100
AcDbEntity
  8
0
 62
3
100
AcDbLine
 10
106.528703
 20
54.136292
 30
0.0
 11
107.496199
 21
54.136292
 31
0.0
  0
LINE
  5
29d
100
AcDbEntity
  8
0
 62
3
100
AcDbLine
 10
107.496199
 20
54.136292
 30
0.0
 11
107.019585
 21
55.035298
 31
0.0
  0
LINE
  5
29e
100
AcDbEntity
  8
0
 62
3
100
AcDbLine
 10
107.019585
 20
55.035298
 30
0.0
 11
106.528703
 21
54.136292
 31
0.0
  0
LINE
  5
29f
100
AcDbEntity
  8
0
 62
3
100
AcDbLine
 10
105.539797
 20
53.254416
 30
0.0
 11
106.789834
 21
55.464099
 31
0.0
  0
LINE
  5
2a0
100
AcDbEntity
  8
0
 62
3
100
AcDbLine
 10
106.789834
 20
55.464099
 30
0.0
 11
107.284994
 21
55.464099
 31
0.0
  0
LINE
  5
2a1
100
AcDbEntity
  8
0
 62
3
100
AcDbLine
 10
107.284994
 20
55.464099
 30
0.0
 11
108.552163
 21
53.254416
 31
0.0
  0
LINE
  5
2a2
100
AcDbEntity
  8
0
 62
3
100
AcDbLine
 10
108.552163
 20
53.254416
 30
0.0
 11
107.974948
 21
53.254416
 31
0.0
  0
LINE
  5
2a3
100
AcDbEntity
  8
0
 62
3
100
AcDbLine
 10
107.974948
 20
53.254416
 30
0.0
 11
107.709525
 21
53.736736
 31
0.0
  0
LINE
  5
2a4
100
AcDbEntity
  8
0
 62
3
100
AcDbLine
 10
107.709525
 20
53.736736
 30
0.0
 11
106.308943
 21
53.736736
 31
0.0
  0
LINE
  5
2a5
100
AcDbEntity
  8
0
 62
3
100
AcDbLine
 10
106.308943
 20
53.736736
 30
0.0
 11
106.052096
 21
53.254416
 31
0.0
  0
LINE
  5
2a6
100
AcDbEntity
  8
0
 62
3
100
AcDbLine
 10
106.052096
 20
53.254416
 30
0.0
 11
105.539797
 21
53.254416
 31
0.0
  0
LINE
  5
2a7
100
AcDbEntity
  8
0
 62
3
100
AcDbLine
 10
109.089307
 20
53.254416
 30
0.0
 11
109.089307
 21
55.464099
 31
0.0
  0
LINE
  5
2a8
100
AcDbEntity
  8
0
 62
3
100
AcDbLine
 10
109.089307
 20
55.464099
 30
0.0
 11
109.608010
 21
55.464099
 31
0.0
  0
LINE
  5
2a9
100
AcDbEntity
  8
0
 62
3
100
AcDbLine
 10
109.608010
 20
55.464099
 30
0.0
 11
109.608010
 21
54.542269
 31
0.0
  0
LINE
  5
2aa
100
AcDbEntity
  8
0
 62
3
100
AcDbLine
 10
109.608010
 20
54.542269
 30
0.0
 11
110.833072
 21
55.464099
 31
0.0
  0
LINE
  5
2ab
100
AcDbEntity
  8
0
 62
3
100
AcDbLine
 10
110.833072
 20
55.464099
 30
0.0
 11
111.577252
 21
55.464099
 31
0.0
  0
LINE
  5
2ac
100
AcDbEntity
  8
0
 62
3
100
AcDbLine
 10
111.577252
 20
55.464099
 30
0.0
 11
110.113867
 21
54.423113
 31
0.0
  0
LINE
  5
2ad
100
AcDbEntity
  8
0
 62
3
100
AcDbLine
 10
110.113867
 20
54.423113
 30
0.0
 11
111.757054
 21
53.254416
 31
0.0
  0
LINE
  5
2ae
100
AcDbEntity
  8
0
 62
3
100
AcDbLine
 10
111.757054
 20
53.254416
 30
0.0
 11
110.931544
 21
53.254416
 31
0.0
  0
LINE
  5
2af
100
AcDbEntity
  8
0
 62
3
100
AcDbLine
 10
110.931544
 20
53.254416
 30
0.0
 11
109.608010
 21
54.226195
 31
0.0
  0
LINE
  5
2b0
100
AcDbEntity
  8
0
 62
3
100
AcDbLine
 10
109.608010
 20
54.226195
 30
0.0
 11
109.608010
 21
53.254416
 31
0.0
  0
LINE
  5
2b1
100
AcDbEntity
  8
0
 62
3
100
AcDbLine
 10
109.608010
 20
53.254416
 30
0.0
 11
109.089307
 21
53.254416
 31
0.0
  0
LINE
  5
2b2
100
AcDbEntity
  8
0
 62
3
100
AcDbLine
 10
112.314878
 20
53.254416
 30
0.0
 11
112.314878
 21
55.464099
 31
0.0
  0
LINE
  5
2b3
100
AcDbEntity
  8
0
 62
3
100
AcDbLine
 10
112.314878
 20
55.464099
 30
0.0
 11
114.577358
 21
55.464099
 31
0.0
  0
LINE
  5
2b4
100
AcDbEntity
  8
0
 62
3
100
AcDbLine
 10
114.577358
 20
55.464099
 30
0.0
 11
114.577358
 21
55.088098
 31
0.0
  0
LINE
  5
2b5
100
AcDbEntity
  8
0
 62
3
100
AcDbLine
 10
114.577358
 20
55.088098
 30
0.0
 11
112.829301
 21
55.088098
 31
0.0
  0
LINE
  5
2b6
100
AcDbEntity
  8
0
 62
3
100
AcDbLine
 10
112.829301
 20
55.088098
 30
0.0
 11
112.829301
 21
54.594362
 31
0.0
  0
LINE
  5
2b7
100
AcDbEntity
  8
0
 62
3
100
AcDbLine
 10
112.829301
 20
54.594362
 30
0.0
 11
113.849591
 21
54.594362
 31
0.0
  0
LINE
  5
2b8
100
AcDbEntity
  8
0
 62
3
100
AcDbLine
 10
113.849591
 20
54.594362
 30
0.0
 11
113.849591
 21
54.218341
 31
0.0
  0
LINE
  5
2b9
100
AcDbEntity
  8
0
 62
3
100
AcDbLine
 10
113.849591
 20
54.218341
 30
0.0
 11
112.829301
 21
54.218341
 31
0.0
  0
LINE
  5
2ba
100
AcDbEntity
  8
0
 62
3
100
AcDbLine
 10
112.829301
 20
54.218341
 30
0.0
 11
112.829301
 21
53.670377
 31
0.0
  0
LINE
  5
2bb
100
AcDbEntity
  8
0
 62
3
100
AcDbLine
 10
112.829301
 20
53.670377
 30
0.0
 11
114.598053
 21
53.670377
 31
0.0
  0
LINE
  5
2bc
100
AcDbEntity
  8
0
 62
3
100
AcDbLine
 10
114.598053
 20
53.670377
 30
0.0
 11
114.598053
 21
53.254416
 31
0.0
  0
LINE
  5
2bd
100
AcDbEntity
  8
0
 62
3
100
AcDbLine
 10
114.598053
 20
53.254416
 30
0.0
 11
112.314878
 21
53.254416
 31
0.0
  0
LINE
  5
2be
100
AcDbEntity
  8
0
 62
3
100
AcDbLine
 10
117.035223
 20
55.081675
 30
0.0
 11
115.878649
 21
55.081675
 31
0.0
  0
LINE
  5
2bf
100
AcDbEntity
  8
0
 62
3
100
AcDbLine
 10
115.878649
 20
55.081675
 30
0.0
 11
115.878649
 21
54.466636
 31
0.0
  0
LINE
  5
2c0
100
AcDbEntity
  8
0
 62
3
100
AcDbLine
 10
115.878649
 20
54.466636
 30
0.0
 11
117.035223
 21
54.466636
 31
0.0
  0
SPLINE
  5
2c1
100
AcDbEntity
  8
0
 62
3
100
AcDbSpline
 70
8
 71
3
 72
8
 73
4
 74
0
 40
0
 40
0
 40
0
 40
0
 40
1
 40
1
 40
1
 40
1
 10
117.035223
 20
54.466636
 30
0.0
 10
117.124408
 20
54.466636
 30
0.0
 10
117.185054
 20
54.479483
 30
0.0
 10
117.217874
 20
54.505176
 30
0.0
  0
SPLINE
  5
2c2
100
AcDbEntity
  8
0
 62
3
100
AcDbSpline
 70
8
 71
3
 72
8
 73
4
 74
0
 40
0
 40
0
 40
0
 40
0
 40
1
 40
1
 40
1
 40
1
 10
117.217874
 20
54.505176
 30
0.0
 10
117.250717
 20
54.530837
 30
0.0
 10
117.267109
 20
54.576519
 30
0.0
 10
117.267109
 20
54.642158
 30
0.0
  0
LINE
  5
2c3
100
AcDbEntity
  8
0
 62
3
100
AcDbLine
 10
117.267109
 20
54.642158
 30
0.0
 11
117.267109
 21
54.908296
 31
0.0
  0
SPLINE
  5
2c4
100
AcDbEntity
  8
0
 62
3
100
AcDbSpline
 70
8
 71
3
 72
8
 73
4
 74
0
 40
0
 40
0
 40
0
 40
0
 40
1
 40
1
 40
1
 40
1
 10
117.267109
 20
54.908296
 30
0.0
 10
117.267109
 20
54.972502
 30
0.0
 10
117.250688
 20
55.017458
 30
0.0
 10
117.217874
 20
55.043142
 30
0.0
  0
SPLINE
  5
2c5
100
AcDbEntity
  8
0
 62
3
100
AcDbSpline
 70
8
 71
3
 72
8
 73
4
 74
0
 40
0
 40
0
 40
0
 40
0
 40
1
 40
1
 40
1
 40
1
 10
117.217874
 20
55.043142
 30
0.0
 10
117.185032
 20
55.068835
 30
0.0
 10
117.124408
 20
55.081675
 30
0.0
 10
117.035223
 20
55.081675
 30
0.0
  0
LINE
  5
2c6
100
AcDbEntity
  8
0
 62
3
100
AcDbLine
 10
117.035223
 20
55.081675
 30
0.0
 11
117.035223
 21
55.081675
 31
0.0
  0
LINE
  5
2c7
100
AcDbEntity
  8
0
 62
3
100
AcDbLine
 10
115.372784
 20
53.254416
 30
0.0
 11
115.372784
 21
55.464099
 31
0.0
  0
LINE
  5
2c8
100
AcDbEntity
  8
0
 62
3
100
AcDbLine
 10
115.372784
 20
55.464099
 30
0.0
 11
117.262824
 21
55.464099
 31
0.0
  0
SPLINE
  5
2c9
100
AcDbEntity
  8
0
 62
3
100
AcDbSpline
 70
8
 71
3
 72
8
 73
4
 74
0
 40
0
 40
0
 40
0
 40
0
 40
1
 40
1
 40
1
 40
1
 10
117.262824
 20
55.464099
 30
0.0
 10
117.438338
 20
55.464099
 30
0.0
 10
117.565346
 20
55.430564
 30
0.0
 10
117.644540
 20
55.362789
 30
0.0
  0
SPLINE
  5
2ca
100
AcDbEntity
  8
0
 62
3
100
AcDbSpline
 70
8
 71
3
 72
8
 73
4
 74
0
 40
0
 40
0
 40
0
 40
0
 40
1
 40
1
 40
1
 40
1
 10
117.644540
 20
55.362789
 30
0.0
 10
117.723021
 20
55.295003
 30
0.0
 10
117.762272
 20
55.185841
 30
0.0
 10
117.762272
 20
55.036002
 30
0.0
  0
LINE
  5
2cb
100
AcDbEntity
  8
0
 62
3
100
AcDbLine
 10
117.762272
 20
55.036002
 30
0.0
 11
117.762272
 21
54.516582
 31
0.0
  0
SPLINE
  5
2cc
100
AcDbEntity
  8
0
 62
3
100
AcDbSpline
 70
8
 71
3
 72
8
 73
4
 74
0
 40
0
 40
0
 40
0
 40
0
 40
1
 40
1
 40
1
 40
1
 10
117.762272
 20
54.516582
 30
0.0
 10
117.762272
 20
54.367463
 30
0.0
 10
117.723021
 20
54.259014
 30
0.0
 10
117.644540
 20
54.191228
 30
0.0
  0
SPLINE
  5
2cd
100
AcDbEntity
  8
0
 62
3
100
AcDbSpline
 70
8
 71
3
 72
8
 73
4
 74
0
 40
0
 40
0
 40
0
 40
0
 40
1
 40
1
 40
1
 40
1
 10
117.644540
 20
54.191228
 30
0.0
 10
117.565346
 20
54.122739
 30
0.0
 10
117.438338
 20
54.088486
 30
0.0
 10
117.262824
 20
54.088486
 30
0.0
  0
LINE
  5
2ce
100
AcDbEntity
  8
0
 62
3
100
AcDbLine
 10
117.262824
 20
54.088486
 30
0.0
 11
116.974567
 21
54.088486
 31
0.0
  0
LINE
  5
2cf
100
AcDbEntity
  8
0
 62
3
100
AcDbLine
 10
116.974567
 20
54.088486
 30
0.0
 11
117.994154
 21
53.254416
 31
0.0
  0
LINE
  5
2d0
100
AcDbEntity
  8
0
 62
3
100
AcDbLine
 10
117.994154
 20
53.254416
 30
0.0
 11
117.256401
 21
53.254416
 31
0.0
  0
LINE
  5
2d1
100
AcDbEntity
  8
0
 62
3
100
AcDbLine
 10
117.256401
 20
53.254416
 30
0.0
 11
116.365967
 21
54.088486
 31
0.0
  0
LINE
  5
2d2
100
AcDbEntity
  8
0
 62
3
100
AcDbLine
 10
116.365967
 20
54.088486
 30
0.0
 11
115.878649
 21
54.088486
 31
0.0
  0
LINE
  5
2d3
100
AcDbEntity
  8
0
 62
3
100
AcDbLine
 10
115.878649
 20
54.088486
 30
0.0
 11
115.878649
 21
53.254416
 31
0.0
  0
LINE
  5
2d4
100
AcDbEntity
  8
0
 62
3
100
AcDbLine
 10
115.878649
 20
53.254416
 30
0.0
 11
115.372784
 21
53.254416
 31
0.0
  0
LINE
  5
2d5
100
AcDbEntity
  8
0
 62
3
100
AcDbLine
 10
120.546192
 20
55.077391
 30
0.0
 11
119.099943
 21
55.077391
 31
0.0
  0
LINE
  5
2d6
100
AcDbEntity
  8
0
 62
3
100
AcDbLine
 10
119.099943
 20
55.077391
 30
0.0
 11
119.099943
 21
54.602915
 31
0.0
  0
LINE
  5
2d7
100
AcDbEntity
  8
0
 62
3
100
AcDbLine
 10
119.099943
 20
54.602915
 30
0.0
 11
120.476984
 21
54.602915
 31
0.0
  0
SPLINE
  5
2d8
100
AcDbEntity
  8
0
 62
3
100
AcDbSpline
 70
8
 71
3
 72
8
 73
4
 74
0
 40
0
 40
0
 40
0
 40
0
 40
1
 40
1
 40
1
 40
1
 10
120.476984
 20
54.602915
 30
0.0
 10
120.693177
 20
54.602915
 30
0.0
 10
120.839430
 20
54.565812
 30
0.0
 10
120.915072
 20
54.492323
 30
0.0
  0
SPLINE
  5
2d9
100
AcDbEntity
  8
0
 62
3
100
AcDbSpline
 70
8
 71
3
 72
8
 73
4
 74
0
 40
0
 40
0
 40
0
 40
0
 40
1
 40
1
 40
1
 40
1
 10
120.915072
 20
54.492323
 30
0.0
 10
120.991418
 20
54.418123
 30
0.0
 10
121.029226
 20
54.281134
 30
0.0
 10
121.029226
 20
54.079932
 30
0.0
  0
LINE
  5
2da
100
AcDbEntity
  8
0
 62
3
100
AcDbLine
 10
121.029226
 20
54.079932
 30
0.0
 11
121.029226
 21
53.776687
 31
0.0
  0
SPLINE
  5
2db
100
AcDbEntity
  8
0
 62
3
100
AcDbSpline
 70
8
 71
3
 72
8
 73
4
 74
0
 40
0
 40
0
 40
0
 40
0
 40
1
 40
1
 40
1
 40
1
 10
121.029226
 20
53.776687
 30
0.0
 10
121.029226
 20
53.576201
 30
0.0
 10
120.991418
 20
53.439209
 30
0.0
 10
120.915072
 20
53.365014
 30
0.0
  0
SPLINE
  5
2dc
100
AcDbEntity
  8
0
 62
3
100
AcDbSpline
 70
8
 71
3
 72
8
 73
4
 74
0
 40
0
 40
0
 40
0
 40
0
 40
1
 40
1
 40
1
 40
1
 10
120.915072
 20
53.365014
 30
0.0
 10
120.839430
 20
53.291517
 30
0.0
 10
120.693177
 20
53.254416
 30
0.0
 10
120.476984
 20
53.254416
 30
0.0
  0
LINE
  5
2dd
100
AcDbEntity
  8
0
 62
3
100
AcDbLine
 10
120.476984
 20
53.254416
 30
0.0
 11
119.112790
 21
53.254416
 31
0.0
  0
SPLINE
  5
2de
100
AcDbEntity
  8
0
 62
3
100
AcDbSpline
 70
8
 71
3
 72
8
 73
4
 74
0
 40
0
 40
0
 40
0
 40
0
 40
1
 40
1
 40
1
 40
1
 10
119.112790
 20
53.254416
 30
0.0
 10
118.896604
 20
53.254416
 30
0.0
 10
118.750336
 20
53.291517
 30
0.0
 10
118.674705
 20
53.365014
 30
0.0
  0
SPLINE
  5
2df
100
AcDbEntity
  8
0
 62
3
100
AcDbSpline
 70
8
 71
3
 72
8
 73
4
 74
0
 40
0
 40
0
 40
0
 40
0
 40
1
 40
1
 40
1
 40
1
 10
118.674705
 20
53.365014
 30
0.0
 10
118.598360
 20
53.439209
 30
0.0
 10
118.560540
 20
53.576201
 30
0.0
 10
118.560540
 20
53.776687
 30
0.0
  0
LINE
  5
2e0
100
AcDbEntity
  8
0
 62
3
100
AcDbLine
 10
118.560540
 20
53.776687
 30
0.0
 11
118.560540
 21
53.837337
 31
0.0
  0
LINE
  5
2e1
100
AcDbEntity
  8
0
 62
3
100
AcDbLine
 10
118.560540
 20
53.837337
 30
0.0
 11
119.014321
 21
53.931527
 31
0.0
  0
LINE
  5
2e2
100
AcDbEntity
  8
0
 62
3
100
AcDbLine
 10
119.014321
 20
53.931527
 30
0.0
 11
119.014321
 21
53.670377
 31
0.0
  0
LINE
  5
2e3
100
AcDbEntity
  8
0
 62
3
100
AcDbLine
 10
119.014321
 20
53.670377
 30
0.0
 11
120.575442
 21
53.670377
 31
0.0
  0
LINE
  5
2e4
100
AcDbEntity
  8
0
 62
3
100
AcDbLine
 10
120.575442
 20
53.670377
 30
0.0
 11
120.575442
 21
54.174105
 31
0.0
  0
LINE
  5
2e5
100
AcDbEntity
  8
0
 62
3
100
AcDbLine
 10
120.575442
 20
54.174105
 30
0.0
 11
119.198411
 21
54.174105
 31
0.0
  0
SPLINE
  5
2e6
100
AcDbEntity
  8
0
 62
3
100
AcDbSpline
 70
8
 71
3
 72
8
 73
4
 74
0
 40
0
 40
0
 40
0
 40
0
 40
1
 40
1
 40
1
 40
1
 10
119.198411
 20
54.174105
 30
0.0
 10
118.983650
 20
54.174105
 30
0.0
 10
118.838804
 20
54.211208
 30
0.0
 10
118.763176
 20
54.284697
 30
0.0
  0
SPLINE
  5
2e7
100
AcDbEntity
  8
0
 62
3
100
AcDbSpline
 70
8
 71
3
 72
8
 73
4
 74
0
 40
0
 40
0
 40
0
 40
0
 40
1
 40
1
 40
1
 40
1
 10
118.763176
 20
54.284697
 30
0.0
 10
118.688263
 20
54.358907
 30
0.0
 10
118.650443
 20
54.495892
 30
0.0
 10
118.650443
 20
54.697101
 30
0.0
  0
LINE
  5
2e8
100
AcDbEntity
  8
0
 62
3
100
AcDbLine
 10
118.650443
 20
54.697101
 30
0.0
 11
118.650443
 21
54.941116
 31
0.0
  0
SPLINE
  5
2e9
100
AcDbEntity
  8
0
 62
3
100
AcDbSpline
 70
8
 71
3
 72
8
 73
4
 74
0
 40
0
 40
0
 40
0
 40
0
 40
1
 40
1
 40
1
 40
1
 10
118.650443
 20
54.941116
 30
0.0
 10
118.650443
 20
55.142318
 30
0.0
 10
118.688263
 20
55.279306
 30
0.0
 10
118.763176
 20
55.353506
 30
0.0
  0
SPLINE
  5
2ea
100
AcDbEntity
  8
0
 62
3
100
AcDbSpline
 70
8
 71
3
 72
8
 73
4
 74
0
 40
0
 40
0
 40
0
 40
0
 40
1
 40
1
 40
1
 40
1
 10
118.763176
 20
55.353506
 30
0.0
 10
118.838804
 20
55.426996
 30
0.0
 10
118.983650
 20
55.464099
 30
0.0
 10
119.198411
 20
55.464099
 30
0.0
  0
LINE
  5
2eb
100
AcDbEntity
  8
0
 62
3
100
AcDbLine
 10
119.198411
 20
55.464099
 30
0.0
 11
120.452008
 21
55.464099
 31
0.0
  0
SPLINE
  5
2ec
100
AcDbEntity
  8
0
 62
3
100
AcDbSpline
 70
8
 71
3
 72
8
 73
4
 74
0
 40
0
 40
0
 40
0
 40
0
 40
1
 40
1
 40
1
 40
1
 10
120.452008
 20
55.464099
 30
0.0
 10
120.659639
 20
55.464099
 30
0.0
 10
120.803046
 20
55.428425
 30
0.0
 10
120.881538
 20
55.357789
 30
0.0
  0
SPLINE
  5
2ed
100
AcDbEntity
  8
0
 62
3
100
AcDbSpline
 70
8
 71
3
 72
8
 73
4
 74
0
 40
0
 40
0
 40
0
 40
0
 40
1
 40
1
 40
1
 40
1
 10
120.881538
 20
55.357789
 30
0.0
 10
120.960733
 20
55.286447
 30
0.0
 10
120.999976
 20
55.160154
 30
0.0
 10
120.999976
 20
54.978932
 30
0.0
  0
LINE
  5
2ee
100
AcDbEntity
  8
0
 62
3
100
AcDbLine
 10
120.999976
 20
54.978932
 30
0.0
 11
120.999976
 21
54.933259
 31
0.0
  0
LINE
  5
2ef
100
AcDbEntity
  8
0
 62
3
100
AcDbLine
 10
120.999976
 20
54.933259
 30
0.0
 11
120.546192
 21
54.826247
 31
0.0
  0
LINE
  5
2f0
100
AcDbEntity
  8
0
 62
3
100
AcDbLine
 10
120.546192
 20
54.826247
 30
0.0
 11
120.546192
 21
55.077391
 31
0.0
  0
LINE
  5
2f1
100
AcDbEntity
  8
0
 62
3
100
AcDbLine
 10
123.584121
 20
55.081683
 30
0.0
 11
122.427550
 21
55.081683
 31
0.0
  0
LINE
  5
2f2
100
AcDbEntity
  8
0
 62
3
100
AcDbLine
 10
122.427550
 20
55.081683
 30
0.0
 11
122.427550
 21
54.495901
 31
0.0
  0
LINE
  5
2f3
100
AcDbEntity
  8
0
 62
3
100
AcDbLine
 10
122.427550
 20
54.495901
 30
0.0
 11
123.584121
 21
54.495901
 31
0.0
  0
SPLINE
  5
2f4
100
AcDbEntity
  8
0
 62
3
100
AcDbSpline
 70
8
 71
3
 72
8
 73
4
 74
0
 40
0
 40
0
 40
0
 40
0
 40
1
 40
1
 40
1
 40
1
 10
123.584121
 20
54.495901
 30
0.0
 10
123.673306
 20
54.495901
 30
0.0
 10
123.733955
 20
54.508716
 30
0.0
 10
123.766780
 20
54.534434
 30
0.0
  0
SPLINE
  5
2f5
100
AcDbEntity
  8
0
 62
3
100
AcDbSpline
 70
8
 71
3
 72
8
 73
4
 74
0
 40
0
 40
0
 40
0
 40
0
 40
1
 40
1
 40
1
 40
1
 10
123.766780
 20
54.534434
 30
0.0
 10
123.799622
 20
54.560128
 30
0.0
 10
123.816007
 20
54.605777
 30
0.0
 10
123.816007
 20
54.671417
 30
0.0
  0
LINE
  5
2f6
100
AcDbEntity
  8
0
 62
3
100
AcDbLine
 10
123.816007
 20
54.671417
 30
0.0
 11
123.816007
 21
54.908305
 31
0.0
  0
SPLINE
  5
2f7
100
AcDbEntity
  8
0
 62
3
100
AcDbSpline
 70
8
 71
3
 72
8
 73
4
 74
0
 40
0
 40
0
 40
0
 40
0
 40
1
 40
1
 40
1
 40
1
 10
123.816007
 20
54.908305
 30
0.0
 10
123.816007
 20
54.972511
 30
0.0
 10
123.799585
 20
55.017464
 30
0.0
 10
123.766780
 20
55.043150
 30
0.0
  0
SPLINE
  5
2f8
100
AcDbEntity
  8
0
 62
3
100
AcDbSpline
 70
8
 71
3
 72
8
 73
4
 74
0
 40
0
 40
0
 40
0
 40
0
 40
1
 40
1
 40
1
 40
1
 10
123.766780
 20
55.043150
 30
0.0
 10
123.733974
 20
55.068844
 30
0.0
 10
123.673306
 20
55.081683
 30
0.0
 10
123.584121
 20
55.081683
 30
0.0
  0
LINE
  5
2f9
100
AcDbEntity
  8
0
 62
3
100
AcDbLine
 10
123.584121
 20
55.081683
 30
0.0
 11
123.584121
 21
55.081683
 31
0.0
  0
LINE
  5
2fa
100
AcDbEntity
  8
0
 62
3
100
AcDbLine
 10
121.921689
 20
53.254427
 30
0.0
 11
121.921689
 21
55.464107
 31
0.0
  0
LINE
  5
2fb
100
AcDbEntity
  8
0
 62
3
100
AcDbLine
 10
121.921689
 20
55.464107
 30
0.0
 11
123.811722
 21
55.464107
 31
0.0
  0
SPLINE
  5
2fc
100
AcDbEntity
  8
0
 62
3
100
AcDbSpline
 70
8
 71
3
 72
8
 73
4
 74
0
 40
0
 40
0
 40
0
 40
0
 40
1
 40
1
 40
1
 40
1
 10
123.811722
 20
55.464107
 30
0.0
 10
123.987243
 20
55.464107
 30
0.0
 10
124.114243
 20
55.430576
 30
0.0
 10
124.193442
 20
55.362798
 30
0.0
  0
SPLINE
  5
2fd
100
AcDbEntity
  8
0
 62
3
100
AcDbSpline
 70
8
 71
3
 72
8
 73
4
 74
0
 40
0
 40
0
 40
0
 40
0
 40
1
 40
1
 40
1
 40
1
 10
124.193442
 20
55.362798
 30
0.0
 10
124.271926
 20
55.295012
 30
0.0
 10
124.311173
 20
55.185849
 30
0.0
 10
124.311173
 20
55.036014
 30
0.0
  0
LINE
  5
2fe
100
AcDbEntity
  8
0
 62
3
100
AcDbLine
 10
124.311173
 20
55.036014
 30
0.0
 11
124.311173
 21
54.542277
 31
0.0
  0
SPLINE
  5
2ff
100
AcDbEntity
  8
0
 62
3
100
AcDbSpline
 70
8
 71
3
 72
8
 73
4
 74
0
 40
0
 40
0
 40
0
 40
0
 40
1
 40
1
 40
1
 40
1
 10
124.311173
 20
54.542277
 30
0.0
 10
124.311173
 20
54.393155
 30
0.0
 10
124.271926
 20
54.284706
 30
0.0
 10
124.193442
 20
54.216933
 30
0.0
  0
SPLINE
  5
300
100
AcDbEntity
  8
0
 62
3
100
AcDbSpline
 70
8
 71
3
 72
8
 73
4
 74
0
 40
0
 40
0
 40
0
 40
0
 40
1
 40
1
 40
1
 40
1
 10
124.193442
 20
54.216933
 30
0.0
 10
124.114243
 20
54.149147
 30
0.0
 10
123.987243
 20
54.115614
 30
0.0
 10
123.811722
 20
54.115614
 30
0.0
  0
LINE
  5
301
100
AcDbEntity
  8
0
 62
3
100
AcDbLine
 10
123.811722
 20
54.115614
 30
0.0
 11
122.427550
 21
54.115614
 31
0.0
  0
LINE
  5
302
100
AcDbEntity
  8
0
 62
3
100
AcDbLine
 10
122.427550
 20
54.115614
 30
0.0
 11
122.427550
 21
53.254427
 31
0.0
  0
LINE
  5
303
100
AcDbEntity
  8
0
 62
3
100
AcDbLine
 10
122.427550
 20
53.254427
 30
0.0
 11
121.921689
 21
53.254427
 31
0.0
  0
LINE
  5
304
100
AcDbEntity
  8
0
 62
3
100
AcDbLine
 10
125.262144
 20
54.136304
 30
0.0
 11
126.229640
 21
54.136304
 31
0.0
  0
LINE
  5
305
100
AcDbEntity
  8
0
 62
3
100
AcDbLine
 10
126.229640
 20
54.136304
 30
0.0
 11
125.753029
 21
55.035307
 31
0.0
  0
LINE
  5
306
100
AcDbEntity
  8
0
 62
3
100
AcDbLine
 10
125.753029
 20
55.035307
 30
0.0
 11
125.262144
 21
54.136304
 31
0.0
  0
LINE
  5
307
100
AcDbEntity
  8
0
 62
3
100
AcDbLine
 10
124.273238
 20
53.254427
 30
0.0
 11
125.523279
 21
55.464107
 31
0.0
  0
LINE
  5
308
100
AcDbEntity
  8
0
 62
3
100
AcDbLine
 10
125.523279
 20
55.464107
 30
0.0
 11
126.018439
 21
55.464107
 31
0.0
  0
LINE
  5
309
100
AcDbEntity
  8
0
 62
3
100
AcDbLine
 10
126.018439
 20
55.464107
 30
0.0
 11
127.285600
 21
53.254427
 31
0.0
  0
LINE
  5
30a
100
AcDbEntity
  8
0
 62
3
100
AcDbLine
 10
127.285600
 20
53.254427
 30
0.0
 11
126.708386
 21
53.254427
 31
0.0
  0
LINE
  5
30b
100
AcDbEntity
  8
0
 62
3
100
AcDbLine
 10
126.708386
 20
53.254427
 30
0.0
 11
126.442966
 21
53.736747
 31
0.0
  0
LINE
  5
30c
100
AcDbEntity
  8
0
 62
3
100
AcDbLine
 10
126.442966
 20
53.736747
 30
0.0
 11
125.042384
 21
53.736747
 31
0.0
  0
LINE
  5
30d
100
AcDbEntity
  8
0
 62
3
100
AcDbLine
 10
125.042384
 20
53.736747
 30
0.0
 11
124.785526
 21
53.254427
 31
0.0
  0
LINE
  5
30e
100
AcDbEntity
  8
0
 62
3
100
AcDbLine
 10
124.785526
 20
53.254427
 30
0.0
 11
124.273238
 21
53.254427
 31
0.0
  0
LINE
  5
30f
100
AcDbEntity
  8
0
 62
3
100
AcDbLine
 10
129.602197
 20
55.068834
 30
0.0
 11
128.216593
 21
55.068834
 31
0.0
  0
LINE
  5
310
100
AcDbEntity
  8
0
 62
3
100
AcDbLine
 10
128.216593
 20
55.068834
 30
0.0
 11
128.216593
 21
53.670392
 31
0.0
  0
LINE
  5
311
100
AcDbEntity
  8
0
 62
3
100
AcDbLine
 10
128.216593
 20
53.670392
 30
0.0
 11
129.602197
 21
53.670392
 31
0.0
  0
LINE
  5
312
100
AcDbEntity
  8
0
 62
3
100
AcDbLine
 10
129.602197
 20
53.670392
 30
0.0
 11
129.602197
 21
54.144861
 31
0.0
  0
LINE
  5
313
100
AcDbEntity
  8
0
 62
3
100
AcDbLine
 10
129.602197
 20
54.144861
 30
0.0
 11
130.116623
 21
54.038548
 31
0.0
  0
LINE
  5
314
100
AcDbEntity
  8
0
 62
3
100
AcDbLine
 10
130.116623
 20
54.038548
 30
0.0
 11
130.116623
 21
53.776698
 31
0.0
  0
SPLINE
  5
315
100
AcDbEntity
  8
0
 62
3
100
AcDbSpline
 70
8
 71
3
 72
8
 73
4
 74
0
 40
0
 40
0
 40
0
 40
0
 40
1
 40
1
 40
1
 40
1
 10
130.116623
 20
53.776698
 30
0.0
 10
130.116623
 20
53.574783
 30
0.0
 10
130.078804
 20
53.437082
 30
0.0
 10
130.002466
 20
53.364307
 30
0.0
  0
SPLINE
  5
316
100
AcDbEntity
  8
0
 62
3
100
AcDbSpline
 70
8
 71
3
 72
8
 73
4
 74
0
 40
0
 40
0
 40
0
 40
0
 40
1
 40
1
 40
1
 40
1
 10
130.002466
 20
53.364307
 30
0.0
 10
129.926834
 20
53.290814
 30
0.0
 10
129.781999
 20
53.254427
 30
0.0
 10
129.568659
 20
53.254427
 30
0.0
  0
LINE
  5
317
100
AcDbEntity
  8
0
 62
3
100
AcDbLine
 10
129.568659
 20
53.254427
 30
0.0
 11
128.250128
 21
53.254427
 31
0.0
  0
SPLINE
  5
318
100
AcDbEntity
  8
0
 62
3
100
AcDbSpline
 70
8
 71
3
 72
8
 73
4
 74
0
 40
0
 40
0
 40
0
 40
0
 40
1
 40
1
 40
1
 40
1
 10
128.250128
 20
53.254427
 30
0.0
 10
128.035370
 20
53.254427
 30
0.0
 10
127.890531
 20
53.290814
 30
0.0
 10
127.814896
 20
53.364307
 30
0.0
  0
SPLINE
  5
319
100
AcDbEntity
  8
0
 62
3
100
AcDbSpline
 70
8
 71
3
 72
8
 73
4
 74
0
 40
0
 40
0
 40
0
 40
0
 40
1
 40
1
 40
1
 40
1
 10
127.814896
 20
53.364307
 30
0.0
 10
127.739982
 20
53.437082
 30
0.0
 10
127.702163
 20
53.574783
 30
0.0
 10
127.702163
 20
53.776698
 30
0.0
  0
LINE
  5
31a
100
AcDbEntity
  8
0
 62
3
100
AcDbLine
 10
127.702163
 20
53.776698
 30
0.0
 11
127.702163
 21
54.941125
 31
0.0
  0
SPLINE
  5
31b
100
AcDbEntity
  8
0
 62
3
100
AcDbSpline
 70
8
 71
3
 72
8
 73
4
 74
0
 40
0
 40
0
 40
0
 40
0
 40
1
 40
1
 40
1
 40
1
 10
127.702163
 20
54.941125
 30
0.0
 10
127.702163
 20
55.142327
 30
0.0
 10
127.739982
 20
55.279319
 30
0.0
 10
127.814896
 20
55.353518
 30
0.0
  0
SPLINE
  5
31c
100
AcDbEntity
  8
0
 62
3
100
AcDbSpline
 70
8
 71
3
 72
8
 73
4
 74
0
 40
0
 40
0
 40
0
 40
0
 40
1
 40
1
 40
1
 40
1
 10
127.814896
 20
55.353518
 30
0.0
 10
127.890531
 20
55.427004
 30
0.0
 10
128.035370
 20
55.464107
 30
0.0
 10
128.250128
 20
55.464107
 30
0.0
  0
LINE
  5
31d
100
AcDbEntity
  8
0
 62
3
100
AcDbLine
 10
128.250128
 20
55.464107
 30
0.0
 11
129.568659
 21
55.464107
 31
0.0
  0
SPLINE
  5
31e
100
AcDbEntity
  8
0
 62
3
100
AcDbSpline
 70
8
 71
3
 72
8
 73
4
 74
0
 40
0
 40
0
 40
0
 40
0
 40
1
 40
1
 40
1
 40
1
 10
129.568659
 20
55.464107
 30
0.0
 10
129.781999
 20
55.464107
 30
0.0
 10
129.926834
 20
55.427004
 30
0.0
 10
130.002466
 20
55.353518
 30
0.0
  0
SPLINE
  5
31f
100
AcDbEntity
  8
0
 62
3
100
AcDbSpline
 70
8
 71
3
 72
8
 73
4
 74
0
 40
0
 40
0
 40
0
 40
0
 40
1
 40
1
 40
1
 40
1
 10
130.002466
 20
55.353518
 30
0.0
 10
130.078804
 20
55.279319
 30
0.0
 10
130.116623
 20
55.142327
 30
0.0
 10
130.116623
 20
54.941125
 30
0.0
  0
LINE
  5
320
100
AcDbEntity
  8
0
 62
3
100
AcDbLine
 10
130.116623
 20
54.941125
 30
0.0
 11
130.116623
 21
54.732066
 31
0.0
  0
LINE
  5
321
100
AcDbEntity
  8
0
 62
3
100
AcDbLine
 10
130.116623
 20
54.732066
 30
0.0
 11
129.602197
 21
54.650737
 31
0.0
  0
LINE
  5
322
100
AcDbEntity
  8
0
 62
3
100
AcDbLine
 10
129.602197
 20
54.650737
 30
0.0
 11
129.602197
 21
55.068834
 31
0.0
  0
LINE
  5
323
100
AcDbEntity
  8
0
 62
3
100
AcDbLine
 10
131.002659
 20
53.254427
 30
0.0
 11
131.002659
 21
55.464107
 31
0.0
  0
LINE
  5
324
100
AcDbEntity
  8
0
 62
3
100
AcDbLine
 10
131.002659
 20
55.464107
 30
0.0
 11
133.265143
 21
55.464107
 31
0.0
  0
LINE
  5
325
100
AcDbEntity
  8
0
 62
3
100
AcDbLine
 10
133.265143
 20
55.464107
 30
0.0
 11
133.265143
 21
55.088110
 31
0.0
  0
LINE
  5
326
100
AcDbEntity
  8
0
 62
3
100
AcDbLine
 10
133.265143
 20
55.088110
 30
0.0
 11
131.517078
 21
55.088110
 31
0.0
  0
LINE
  5
327
100
AcDbEntity
  8
0
 62
3
100
AcDbLine
 10
131.517078
 20
55.088110
 30
0.0
 11
131.517078
 21
54.594370
 31
0.0
  0
LINE
  5
328
100
AcDbEntity
  8
0
 62
3
100
AcDbLine
 10
131.517078
 20
54.594370
 30
0.0
 11
132.537372
 21
54.594370
 31
0.0
  0
LINE
  5
329
100
AcDbEntity
  8
0
 62
3
100
AcDbLine
 10
132.537372
 20
54.594370
 30
0.0
 11
132.537372
 21
54.218350
 31
0.0
  0
LINE
  5
32a
100
AcDbEntity
  8
0
 62
3
100
AcDbLine
 10
132.537372
 20
54.218350
 30
0.0
 11
131.517078
 21
54.218350
 31
0.0
  0
LINE
  5
32b
100
AcDbEntity
  8
0
 62
3
100
AcDbLine
 10
131.517078
 20
54.218350
 30
0.0
 11
131.517078
 21
53.670392
 31
0.0
  0
LINE
  5
32c
100
AcDbEntity
  8
0
 62
3
100
AcDbLine
 10
131.517078
 20
53.670392
 30
0.0
 11
133.285830
 21
53.670392
 31
0.0
  0
LINE
  5
32d
100
AcDbEntity
  8
0
 62
3
100
AcDbLine
 10
133.285830
 20
53.670392
 30
0.0
 11
133.285830
 21
53.254427
 31
0.0
  0
LINE
  5
32e
100
AcDbEntity
  8
0
 62
3
100
AcDbLine
 10
133.285830
 20
53.254427
 30
0.0
 11
131.002659
 21
53.254427
 31
0.0
  0
LINE
  5
32f
100
AcDbEntity
  8
0
 62
3
100
AcDbLine
 10
60.230046
 20
53.254816
 30
0.0
 11
60.230046
 21
55.463701
 31
0.0
  0
LINE
  5
330
100
AcDbEntity
  8
0
 62
3
100
AcDbLine
 10
60.230046
 20
55.463701
 30
0.0
 11
60.805957
 21
55.463701
 31
0.0
  0
LINE
  5
331
100
AcDbEntity
  8
0
 62
3
100
AcDbLine
 10
60.805957
 20
55.463701
 30
0.0
 11
60.805957
 21
54.542203
 31
0.0
  0
LINE
  5
332
100
AcDbEntity
  8
0
 62
3
100
AcDbLine
 10
60.805957
 20
54.542203
 30
0.0
 11
62.166124
 21
55.463701
 31
0.0
  0
LINE
  5
333
100
AcDbEntity
  8
0
 62
3
100
AcDbLine
 10
62.166124
 20
55.463701
 30
0.0
 11
62.992375
 21
55.463701
 31
0.0
  0
LINE
  5
334
100
AcDbEntity
  8
0
 62
3
100
AcDbLine
 10
62.992375
 20
55.463701
 30
0.0
 11
61.367604
 21
54.423091
 31
0.0
  0
LINE
  5
335
100
AcDbEntity
  8
0
 62
3
100
AcDbLine
 10
61.367604
 20
54.423091
 30
0.0
 11
63.192007
 21
53.254816
 31
0.0
  0
LINE
  5
336
100
AcDbEntity
  8
0
 62
3
100
AcDbLine
 10
63.192007
 20
53.254816
 30
0.0
 11
62.275455
 21
53.254816
 31
0.0
  0
LINE
  5
337
100
AcDbEntity
  8
0
 62
3
100
AcDbLine
 10
62.275455
 20
53.254816
 30
0.0
 11
60.805957
 21
54.226242
 31
0.0
  0
LINE
  5
338
100
AcDbEntity
  8
0
 62
3
100
AcDbLine
 10
60.805957
 20
54.226242
 30
0.0
 11
60.805957
 21
53.254816
 31
0.0
  0
LINE
  5
339
100
AcDbEntity
  8
0
 62
3
100
AcDbLine
 10
60.805957
 20
53.254816
 30
0.0
 11
60.230046
 21
53.254816
 31
0.0
  0
LINE
  5
33a
100
AcDbEntity
  8
0
 62
3
100
AcDbLine
 10
64.659450
 20
54.136372
 30
0.0
 11
65.733647
 21
54.136372
 31
0.0
  0
LINE
  5
33b
100
AcDbEntity
  8
0
 62
3
100
AcDbLine
 10
65.733647
 20
54.136372
 30
0.0
 11
65.204473
 21
55.035055
 31
0.0
  0
LINE
  5
33c
100
AcDbEntity
  8
0
 62
3
100
AcDbLine
 10
65.204473
 20
55.035055
 30
0.0
 11
64.659450
 21
54.136372
 31
0.0
  0
LINE
  5
33d
100
AcDbEntity
  8
0
 62
3
100
AcDbLine
 10
63.561484
 20
53.254816
 30
0.0
 11
64.949388
 21
55.463701
 31
0.0
  0
LINE
  5
33e
100
AcDbEntity
  8
0
 62
3
100
AcDbLine
 10
64.949388
 20
55.463701
 30
0.0
 11
65.499154
 21
55.463701
 31
0.0
  0
LINE
  5
33f
100
AcDbEntity
  8
0
 62
3
100
AcDbLine
 10
65.499154
 20
55.463701
 30
0.0
 11
66.906067
 21
53.254816
 31
0.0
  0
LINE
  5
340
100
AcDbEntity
  8
0
 62
3
100
AcDbLine
 10
66.906067
 20
53.254816
 30
0.0
 11
66.265192
 21
53.254816
 31
0.0
  0
LINE
  5
341
100
AcDbEntity
  8
0
 62
3
100
AcDbLine
 10
66.265192
 20
53.254816
 30
0.0
 11
65.970500
 21
53.736959
 31
0.0
  0
LINE
  5
342
100
AcDbEntity
  8
0
 62
3
100
AcDbLine
 10
65.970500
 20
53.736959
 30
0.0
 11
64.415457
 21
53.736959
 31
0.0
  0
LINE
  5
343
100
AcDbEntity
  8
0
 62
3
100
AcDbLine
 10
64.415457
 20
53.736959
 30
0.0
 11
64.130277
 21
53.254816
 31
0.0
  0
LINE
  5
344
100
AcDbEntity
  8
0
 62
3
100
AcDbLine
 10
64.130277
 20
53.254816
 30
0.0
 11
63.561484
 21
53.254816
 31
0.0
  0
LINE
  5
345
100
AcDbEntity
  8
0
 62
3
100
AcDbLine
 10
67.886329
 20
53.254816
 30
0.0
 11
67.886329
 21
55.463701
 31
0.0
  0
LINE
  5
346
100
AcDbEntity
  8
0
 62
3
100
AcDbLine
 10
67.886329
 20
55.463701
 30
0.0
 11
68.348164
 21
55.463701
 31
0.0
  0
LINE
  5
347
100
AcDbEntity
  8
0
 62
3
100
AcDbLine
 10
68.348164
 20
55.463701
 30
0.0
 11
69.503956
 21
54.128525
 31
0.0
  0
LINE
  5
348
100
AcDbEntity
  8
0
 62
3
100
AcDbLine
 10
69.503956
 20
54.128525
 30
0.0
 11
70.634397
 21
55.463701
 31
0.0
  0
LINE
  5
349
100
AcDbEntity
  8
0
 62
3
100
AcDbLine
 10
70.634397
 20
55.463701
 30
0.0
 11
71.091487
 21
55.463701
 31
0.0
  0
LINE
  5
34a
100
AcDbEntity
  8
0
 62
3
100
AcDbLine
 10
71.091487
 20
55.463701
 30
0.0
 11
71.091487
 21
53.254816
 31
0.0
  0
LINE
  5
34b
100
AcDbEntity
  8
0
 62
3
100
AcDbLine
 10
71.091487
 20
53.254816
 30
0.0
 11
70.562314
 21
53.254816
 31
0.0
  0
LINE
  5
34c
100
AcDbEntity
  8
0
 62
3
100
AcDbLine
 10
70.562314
 20
53.254816
 30
0.0
 11
70.562314
 21
54.619235
 31
0.0
  0
SPLINE
  5
34d
100
AcDbEntity
  8
0
 62
3
100
AcDbSpline
 70
8
 71
3
 72
8
 73
4
 74
0
 40
0
 40
0
 40
0
 40
0
 40
1
 40
1
 40
1
 40
1
 10
70.562314
 20
54.619235
 30
0.0
 10
70.562314
 20
54.645610
 30
0.0
 10
70.563873
 20
54.679149
 30
0.0
 10
70.567857
 20
54.719805
 30
0.0
  0
SPLINE
  5
34e
100
AcDbEntity
  8
0
 62
3
100
AcDbSpline
 70
8
 71
3
 72
8
 73
4
 74
0
 40
0
 40
0
 40
0
 40
0
 40
1
 40
1
 40
1
 40
1
 10
70.567857
 20
54.719805
 30
0.0
 10
70.571801
 20
54.760450
 30
0.0
 10
70.577358
 20
54.805393
 30
0.0
 10
70.582908
 20
54.855318
 30
0.0
  0
SPLINE
  5
34f
100
AcDbEntity
  8
0
 62
3
100
AcDbSpline
 70
8
 71
3
 72
8
 73
4
 74
0
 40
0
 40
0
 40
0
 40
0
 40
1
 40
1
 40
1
 40
1
 10
70.582908
 20
54.855318
 30
0.0
 10
70.552008
 20
54.798256
 30
0.0
 10
70.525081
 20
54.751179
 30
0.0
 10
70.502108
 20
54.714803
 30
0.0
  0
SPLINE
  5
350
100
AcDbEntity
  8
0
 62
3
100
AcDbSpline
 70
8
 71
3
 72
8
 73
4
 74
0
 40
0
 40
0
 40
0
 40
0
 40
1
 40
1
 40
1
 40
1
 10
70.502108
 20
54.714803
 30
0.0
 10
70.479129
 20
54.677717
 30
0.0
 10
70.457743
 20
54.647048
 30
0.0
 10
70.439524
 20
54.623516
 30
0.0
  0
LINE
  5
351
100
AcDbEntity
  8
0
 62
3
100
AcDbLine
 10
70.439524
 20
54.623516
 30
0.0
 11
69.518213
 21
53.520142
 31
0.0
  0
LINE
  5
352
100
AcDbEntity
  8
0
 62
3
100
AcDbLine
 10
69.518213
 20
53.520142
 30
0.0
 11
69.404137
 21
53.520142
 31
0.0
  0
LINE
  5
353
100
AcDbEntity
  8
0
 62
3
100
AcDbLine
 10
69.404137
 20
53.520142
 30
0.0
 11
68.480458
 21
54.627788
 31
0.0
  0
SPLINE
  5
354
100
AcDbEntity
  8
0
 62
3
100
AcDbSpline
 70
8
 71
3
 72
8
 73
4
 74
0
 40
0
 40
0
 40
0
 40
0
 40
1
 40
1
 40
1
 40
1
 10
68.480458
 20
54.627788
 30
0.0
 10
68.446397
 20
54.669876
 30
0.0
 10
68.417091
 20
54.709102
 30
0.0
 10
68.393318
 20
54.746191
 30
0.0
  0
SPLINE
  5
355
100
AcDbEntity
  8
0
 62
3
100
AcDbSpline
 70
8
 71
3
 72
8
 73
4
 74
0
 40
0
 40
0
 40
0
 40
0
 40
1
 40
1
 40
1
 40
1
 10
68.393318
 20
54.746191
 30
0.0
 10
68.369564
 20
54.782564
 30
0.0
 10
68.349753
 20
54.818941
 30
0.0
 10
68.333907
 20
54.853172
 30
0.0
  0
SPLINE
  5
356
100
AcDbEntity
  8
0
 62
3
100
AcDbSpline
 70
8
 71
3
 72
8
 73
4
 74
0
 40
0
 40
0
 40
0
 40
0
 40
1
 40
1
 40
1
 40
1
 10
68.333907
 20
54.853172
 30
0.0
 10
68.338663
 20
54.807525
 30
0.0
 10
68.342621
 20
54.765448
 30
0.0
 10
68.344995
 20
54.728358
 30
0.0
  0
SPLINE
  5
357
100
AcDbEntity
  8
0
 62
3
100
AcDbSpline
 70
8
 71
3
 72
8
 73
4
 74
0
 40
0
 40
0
 40
0
 40
0
 40
1
 40
1
 40
1
 40
1
 10
68.344995
 20
54.728358
 30
0.0
 10
68.347388
 20
54.690562
 30
0.0
 10
68.348149
 20
54.654188
 30
0.0
 10
68.348149
 20
54.619235
 30
0.0
  0
LINE
  5
358
100
AcDbEntity
  8
0
 62
3
100
AcDbLine
 10
68.348149
 20
54.619235
 30
0.0
 11
68.348149
 21
53.254816
 31
0.0
  0
LINE
  5
359
100
AcDbEntity
  8
0
 62
3
100
AcDbLine
 10
68.348149
 20
53.254816
 30
0.0
 11
67.886329
 21
53.254816
 31
0.0
  0
LINE
  5
35a
100
AcDbEntity
  8
0
 62
3
100
AcDbLine
 10
72.487646
 20
53.254816
 30
0.0
 11
72.487646
 21
55.463701
 31
0.0
  0
LINE
  5
35b
100
AcDbEntity
  8
0
 62
3
100
AcDbLine
 10
72.487646
 20
55.463701
 30
0.0
 11
73.058799
 21
55.463701
 31
0.0
  0
LINE
  5
35c
100
AcDbEntity
  8
0
 62
3
100
AcDbLine
 10
73.058799
 20
55.463701
 30
0.0
 11
73.058799
 21
53.670627
 31
0.0
  0
LINE
  5
35d
100
AcDbEntity
  8
0
 62
3
100
AcDbLine
 10
73.058799
 20
53.670627
 30
0.0
 11
74.899035
 21
53.670627
 31
0.0
  0
LINE
  5
35e
100
AcDbEntity
  8
0
 62
3
100
AcDbLine
 10
74.899035
 20
53.670627
 30
0.0
 11
74.899035
 21
53.254816
 31
0.0
  0
LINE
  5
35f
100
AcDbEntity
  8
0
 62
3
100
AcDbLine
 10
74.899035
 20
53.254816
 30
0.0
 11
72.487646
 21
53.254816
 31
0.0
  0
SPLINE
  5
360
100
AcDbEntity
  8
0
 62
3
100
AcDbSpline
 70
8
 71
3
 72
8
 73
4
 74
0
 40
0
 40
0
 40
0
 40
0
 40
1
 40
1
 40
1
 40
1
 10
75.796904
 20
54.940907
 30
0.0
 10
75.796904
 20
55.142036
 30
0.0
 10
75.838896
 20
55.278975
 30
0.0
 10
75.922067
 20
55.353148
 30
0.0
  0
SPLINE
  5
361
100
AcDbEntity
  8
0
 62
3
100
AcDbSpline
 70
8
 71
3
 72
8
 73
4
 74
0
 40
0
 40
0
 40
0
 40
0
 40
1
 40
1
 40
1
 40
1
 10
75.922067
 20
55.353148
 30
0.0
 10
76.006047
 20
55.426611
 30
0.0
 10
76.166859
 20
55.463701
 30
0.0
 10
76.405303
 20
55.463701
 30
0.0
  0
LINE
  5
362
100
AcDbEntity
  8
0
 62
3
100
AcDbLine
 10
76.405303
 20
55.463701
 30
0.0
 11
78.209892
 21
55.463701
 31
0.0
  0
SPLINE
  5
363
100
AcDbEntity
  8
0
 62
3
100
AcDbSpline
 70
8
 71
3
 72
8
 73
4
 74
0
 40
0
 40
0
 40
0
 40
0
 40
1
 40
1
 40
1
 40
1
 10
78.209892
 20
55.463701
 30
0.0
 10
78.448338
 20
55.463701
 30
0.0
 10
78.609144
 20
55.426611
 30
0.0
 10
78.693109
 20
55.353148
 30
0.0
  0
SPLINE
  5
364
100
AcDbEntity
  8
0
 62
3
100
AcDbSpline
 70
8
 71
3
 72
8
 73
4
 74
0
 40
0
 40
0
 40
0
 40
0
 40
1
 40
1
 40
1
 40
1
 10
78.693109
 20
55.353148
 30
0.0
 10
78.776297
 20
55.278975
 30
0.0
 10
78.818274
 20
55.142036
 30
0.0
 10
78.818274
 20
54.940907
 30
0.0
  0
LINE
  5
365
100
AcDbEntity
  8
0
 62
3
100
AcDbLine
 10
78.818274
 20
54.940907
 30
0.0
 11
78.818274
 21
53.776898
 31
0.0
  0
SPLINE
  5
366
100
AcDbEntity
  8
0
 62
3
100
AcDbSpline
 70
8
 71
3
 72
8
 73
4
 74
0
 40
0
 40
0
 40
0
 40
0
 40
1
 40
1
 40
1
 40
1
 10
78.818274
 20
53.776898
 30
0.0
 10
78.818274
 20
53.575056
 30
0.0
 10
78.776297
 20
53.437409
 30
0.0
 10
78.693109
 20
53.364656
 30
0.0
  0
SPLINE
  5
367
100
AcDbEntity
  8
0
 62
3
100
AcDbSpline
 70
8
 71
3
 72
8
 73
4
 74
0
 40
0
 40
0
 40
0
 40
0
 40
1
 40
1
 40
1
 40
1
 10
78.693109
 20
53.364656
 30
0.0
 10
78.609144
 20
53.291185
 30
0.0
 10
78.448338
 20
53.254816
 30
0.0
 10
78.209892
 20
53.254816
 30
0.0
  0
LINE
  5
368
100
AcDbEntity
  8
0
 62
3
100
AcDbLine
 10
78.209892
 20
53.254816
 30
0.0
 11
76.405303
 21
53.254816
 31
0.0
  0
SPLINE
  5
369
100
AcDbEntity
  8
0
 62
3
100
AcDbSpline
 70
8
 71
3
 72
8
 73
4
 74
0
 40
0
 40
0
 40
0
 40
0
 40
1
 40
1
 40
1
 40
1
 10
76.405303
 20
53.254816
 30
0.0
 10
76.166859
 20
53.254816
 30
0.0
 10
76.006047
 20
53.291185
 30
0.0
 10
75.922067
 20
53.364656
 30
0.0
  0
SPLINE
  5
36a
100
AcDbEntity
  8
0
 62
3
100
AcDbSpline
 70
8
 71
3
 72
8
 73
4
 74
0
 40
0
 40
0
 40
0
 40
0
 40
1
 40
1
 40
1
 40
1
 10
75.922067
 20
53.364656
 30
0.0
 10
75.838896
 20
53.437409
 30
0.0
 10
75.796904
 20
53.575056
 30
0.0
 10
75.796904
 20
53.776898
 30
0.0
  0
LINE
  5
36b
100
AcDbEntity
  8
0
 62
3
100
AcDbLine
 10
75.796904
 20
53.776898
 30
0.0
 11
75.796904
 21
54.940907
 31
0.0
  0
LINE
  5
36c
100
AcDbEntity
  8
0
 62
3
100
AcDbLine
 10
76.368068
 20
53.670627
 30
0.0
 11
78.249498
 21
53.670627
 31
0.0
  0
LINE
  5
36d
100
AcDbEntity
  8
0
 62
3
100
AcDbLine
 10
78.249498
 20
53.670627
 30
0.0
 11
78.249498
 21
55.068566
 31
0.0
  0
LINE
  5
36e
100
AcDbEntity
  8
0
 62
3
100
AcDbLine
 10
78.249498
 20
55.068566
 30
0.0
 11
76.368068
 21
55.068566
 31
0.0
  0
LINE
  5
36f
100
AcDbEntity
  8
0
 62
3
100
AcDbLine
 10
76.368068
 20
55.068566
 30
0.0
 11
76.368068
 21
53.670627
 31
0.0
  0
SPLINE
  5
370
100
AcDbEntity
  8
0
 62
3
100
AcDbSpline
 70
8
 71
3
 72
8
 73
4
 74
0
 40
0
 40
0
 40
0
 40
0
 40
1
 40
1
 40
1
 40
1
 10
80.166098
 20
54.940907
 30
0.0
 10
80.166098
 20
55.142036
 30
0.0
 10
80.208090
 20
55.278975
 30
0.0
 10
80.291263
 20
55.353148
 30
0.0
  0
SPLINE
  5
371
100
AcDbEntity
  8
0
 62
3
100
AcDbSpline
 70
8
 71
3
 72
8
 73
4
 74
0
 40
0
 40
0
 40
0
 40
0
 40
1
 40
1
 40
1
 40
1
 10
80.291263
 20
55.353148
 30
0.0
 10
80.375243
 20
55.426611
 30
0.0
 10
80.536049
 20
55.463701
 30
0.0
 10
80.774491
 20
55.463701
 30
0.0
  0
LINE
  5
372
100
AcDbEntity
  8
0
 62
3
100
AcDbLine
 10
80.774491
 20
55.463701
 30
0.0
 11
82.579080
 21
55.463701
 31
0.0
  0
SPLINE
  5
373
100
AcDbEntity
  8
0
 62
3
100
AcDbSpline
 70
8
 71
3
 72
8
 73
4
 74
0
 40
0
 40
0
 40
0
 40
0
 40
1
 40
1
 40
1
 40
1
 10
82.579080
 20
55.463701
 30
0.0
 10
82.817523
 20
55.463701
 30
0.0
 10
82.978330
 20
55.426611
 30
0.0
 10
83.062299
 20
55.353148
 30
0.0
  0
SPLINE
  5
374
100
AcDbEntity
  8
0
 62
3
100
AcDbSpline
 70
8
 71
3
 72
8
 73
4
 74
0
 40
0
 40
0
 40
0
 40
0
 40
1
 40
1
 40
1
 40
1
 10
83.062299
 20
55.353148
 30
0.0
 10
83.145488
 20
55.278975
 30
0.0
 10
83.187462
 20
55.142036
 30
0.0
 10
83.187462
 20
54.940907
 30
0.0
  0
LINE
  5
375
100
AcDbEntity
  8
0
 62
3
100
AcDbLine
 10
83.187462
 20
54.940907
 30
0.0
 11
83.187462
 21
53.776898
 31
0.0
  0
SPLINE
  5
376
100
AcDbEntity
  8
0
 62
3
100
AcDbSpline
 70
8
 71
3
 72
8
 73
4
 74
0
 40
0
 40
0
 40
0
 40
0
 40
1
 40
1
 40
1
 40
1
 10
83.187462
 20
53.776898
 30
0.0
 10
83.187462
 20
53.575056
 30
0.0
 10
83.145488
 20
53.437409
 30
0.0
 10
83.062299
 20
53.364656
 30
0.0
  0
SPLINE
  5
377
100
AcDbEntity
  8
0
 62
3
100
AcDbSpline
 70
8
 71
3
 72
8
 73
4
 74
0
 40
0
 40
0
 40
0
 40
0
 40
1
 40
1
 40
1
 40
1
 10
83.062299
 20
53.364656
 30
0.0
 10
82.978330
 20
53.291185
 30
0.0
 10
82.817523
 20
53.254816
 30
0.0
 10
82.579080
 20
53.254816
 30
0.0
  0
LINE
  5
378
100
AcDbEntity
  8
0
 62
3
100
AcDbLine
 10
82.579080
 20
53.254816
 30
0.0
 11
80.774491
 21
53.254816
 31
0.0
  0
SPLINE
  5
379
100
AcDbEntity
  8
0
 62
3
100
AcDbSpline
 70
8
 71
3
 72
8
 73
4
 74
0
 40
0
 40
0
 40
0
 40
0
 40
1
 40
1
 40
1
 40
1
 10
80.774491
 20
53.254816
 30
0.0
 10
80.536049
 20
53.254816
 30
0.0
 10
80.375243
 20
53.291185
 30
0.0
 10
80.291263
 20
53.364656
 30
0.0
  0
SPLINE
  5
37a
100
AcDbEntity
  8
0
 62
3
100
AcDbSpline
 70
8
 71
3
 72
8
 73
4
 74
0
 40
0
 40
0
 40
0
 40
0
 40
1
 40
1
 40
1
 40
1
 10
80.291263
 20
53.364656
 30
0.0
 10
80.208090
 20
53.437409
 30
0.0
 10
80.166098
 20
53.575056
 30
0.0
 10
80.166098
 20
53.776898
 30
0.0
  0
LINE
  5
37b
100
AcDbEntity
  8
0
 62
3
100
AcDbLine
 10
80.166098
 20
53.776898
 30
0.0
 11
80.166098
 21
54.940907
 31
0.0
  0
LINE
  5
37c
100
AcDbEntity
  8
0
 62
3
100
AcDbLine
 10
80.737259
 20
53.670627
 30
0.0
 11
82.618687
 21
53.670627
 31
0.0
  0
LINE
  5
37d
100
AcDbEntity
  8
0
 62
3
100
AcDbLine
 10
82.618687
 20
53.670627
 30
0.0
 11
82.618687
 21
55.068566
 31
0.0
  0
LINE
  5
37e
100
AcDbEntity
  8
0
 62
3
100
AcDbLine
 10
82.618687
 20
55.068566
 30
0.0
 11
80.737259
 21
55.068566
 31
0.0
  0
LINE
  5
37f
100
AcDbEntity
  8
0
 62
3
100
AcDbLine
 10
80.737259
 20
55.068566
 30
0.0
 11
80.737259
 21
53.670627
 31
0.0
  0
LINE
  5
380
100
AcDbEntity
  8
0
 62
3
100
AcDbLine
 10
86.431778
 20
55.081415
 30
0.0
 11
85.147656
 21
55.081415
 31
0.0
  0
LINE
  5
381
100
AcDbEntity
  8
0
 62
3
100
AcDbLine
 10
85.147656
 20
55.081415
 30
0.0
 11
85.147656
 21
54.495843
 31
0.0
  0
LINE
  5
382
100
AcDbEntity
  8
0
 62
3
100
AcDbLine
 10
85.147656
 20
54.495843
 30
0.0
 11
86.431778
 21
54.495843
 31
0.0
  0
SPLINE
  5
383
100
AcDbEntity
  8
0
 62
3
100
AcDbSpline
 70
8
 71
3
 72
8
 73
4
 74
0
 40
0
 40
0
 40
0
 40
0
 40
1
 40
1
 40
1
 40
1
 10
86.431778
 20
54.495843
 30
0.0
 10
86.530802
 20
54.495843
 30
0.0
 10
86.598135
 20
54.508654
 30
0.0
 10
86.634573
 20
54.534359
 30
0.0
  0
SPLINE
  5
384
100
AcDbEntity
  8
0
 62
3
100
AcDbSpline
 70
8
 71
3
 72
8
 73
4
 74
0
 40
0
 40
0
 40
0
 40
0
 40
1
 40
1
 40
1
 40
1
 10
86.634573
 20
54.534359
 30
0.0
 10
86.671041
 20
54.560042
 30
0.0
 10
86.689234
 20
54.605683
 30
0.0
 10
86.689234
 20
54.671296
 30
0.0
  0
LINE
  5
385
100
AcDbEntity
  8
0
 62
3
100
AcDbLine
 10
86.689234
 20
54.671296
 30
0.0
 11
86.689234
 21
54.908098
 31
0.0
  0
SPLINE
  5
386
100
AcDbEntity
  8
0
 62
3
100
AcDbSpline
 70
8
 71
3
 72
8
 73
4
 74
0
 40
0
 40
0
 40
0
 40
0
 40
1
 40
1
 40
1
 40
1
 10
86.689234
 20
54.908098
 30
0.0
 10
86.689234
 20
54.972282
 30
0.0
 10
86.671001
 20
55.017222
 30
0.0
 10
86.634573
 20
55.042895
 30
0.0
  0
SPLINE
  5
387
100
AcDbEntity
  8
0
 62
3
100
AcDbSpline
 70
8
 71
3
 72
8
 73
4
 74
0
 40
0
 40
0
 40
0
 40
0
 40
1
 40
1
 40
1
 40
1
 10
86.634573
 20
55.042895
 30
0.0
 10
86.598110
 20
55.068578
 30
0.0
 10
86.530802
 20
55.081415
 30
0.0
 10
86.431778
 20
55.081415
 30
0.0
  0
LINE
  5
388
100
AcDbEntity
  8
0
 62
3
100
AcDbLine
 10
86.431778
 20
55.081415
 30
0.0
 11
86.431778
 21
55.081415
 31
0.0
  0
LINE
  5
389
100
AcDbEntity
  8
0
 62
3
100
AcDbLine
 10
84.586003
 20
53.254816
 30
0.0
 11
84.586003
 21
55.463701
 31
0.0
  0
LINE
  5
38a
100
AcDbEntity
  8
0
 62
3
100
AcDbLine
 10
84.586003
 20
55.463701
 30
0.0
 11
86.684478
 21
55.463701
 31
0.0
  0
SPLINE
  5
38b
100
AcDbEntity
  8
0
 62
3
100
AcDbSpline
 70
8
 71
3
 72
8
 73
4
 74
0
 40
0
 40
0
 40
0
 40
0
 40
1
 40
1
 40
1
 40
1
 10
86.684478
 20
55.463701
 30
0.0
 10
86.879360
 20
55.463701
 30
0.0
 10
87.020368
 20
55.430177
 30
0.0
 10
87.108299
 20
55.362428
 30
0.0
  0
SPLINE
  5
38c
100
AcDbEntity
  8
0
 62
3
100
AcDbSpline
 70
8
 71
3
 72
8
 73
4
 74
0
 40
0
 40
0
 40
0
 40
0
 40
1
 40
1
 40
1
 40
1
 10
87.108299
 20
55.362428
 30
0.0
 10
87.195432
 20
55.294666
 30
0.0
 10
87.239015
 20
55.185543
 30
0.0
 10
87.239015
 20
55.035758
 30
0.0
  0
LINE
  5
38d
100
AcDbEntity
  8
0
 62
3
100
AcDbLine
 10
87.239015
 20
55.035758
 30
0.0
 11
87.239015
 21
54.542203
 31
0.0
  0
SPLINE
  5
38e
100
AcDbEntity
  8
0
 62
3
100
AcDbSpline
 70
8
 71
3
 72
8
 73
4
 74
0
 40
0
 40
0
 40
0
 40
0
 40
1
 40
1
 40
1
 40
1
 10
87.239015
 20
54.542203
 30
0.0
 10
87.239015
 20
54.393138
 30
0.0
 10
87.195432
 20
54.284724
 30
0.0
 10
87.108299
 20
54.216972
 30
0.0
  0
SPLINE
  5
38f
100
AcDbEntity
  8
0
 62
3
100
AcDbSpline
 70
8
 71
3
 72
8
 73
4
 74
0
 40
0
 40
0
 40
0
 40
0
 40
1
 40
1
 40
1
 40
1
 10
87.108299
 20
54.216972
 30
0.0
 10
87.020368
 20
54.149214
 30
0.0
 10
86.879360
 20
54.115690
 30
0.0
 10
86.684478
 20
54.115690
 30
0.0
  0
LINE
  5
390
100
AcDbEntity
  8
0
 62
3
100
AcDbLine
 10
86.684478
 20
54.115690
 30
0.0
 11
85.147656
 21
54.115690
 31
0.0
  0
LINE
  5
391
100
AcDbEntity
  8
0
 62
3
100
AcDbLine
 10
85.147656
 20
54.115690
 30
0.0
 11
85.147656
 21
53.254816
 31
0.0
  0
LINE
  5
392
100
AcDbEntity
  8
0
 62
3
100
AcDbLine
 10
85.147656
 20
53.254816
 30
0.0
 11
84.586003
 21
53.254816
 31
0.0
  0
LINE
  5
393
100
AcDbEntity
  8
0
 62
3
100
AcDbLine
 10
90.439752
 20
55.077133
 30
0.0
 11
88.833997
 21
55.077133
 31
0.0
  0
LINE
  5
394
100
AcDbEntity
  8
0
 62
3
100
AcDbLine
 10
88.833997
 20
55.077133
 30
0.0
 11
88.833997
 21
54.602827
 31
0.0
  0
LINE
  5
395
100
AcDbEntity
  8
0
 62
3
100
AcDbLine
 10
88.833997
 20
54.602827
 30
0.0
 11
90.362910
 21
54.602827
 31
0.0
  0
SPLINE
  5
396
100
AcDbEntity
  8
0
 62
3
100
AcDbSpline
 70
8
 71
3
 72
8
 73
4
 74
0
 40
0
 40
0
 40
0
 40
0
 40
1
 40
1
 40
1
 40
1
 10
90.362910
 20
54.602827
 30
0.0
 10
90.602944
 20
54.602827
 30
0.0
 10
90.765328
 20
54.565738
 30
0.0
 10
90.849308
 20
54.492275
 30
0.0
  0
SPLINE
  5
397
100
AcDbEntity
  8
0
 62
3
100
AcDbSpline
 70
8
 71
3
 72
8
 73
4
 74
0
 40
0
 40
0
 40
0
 40
0
 40
1
 40
1
 40
1
 40
1
 10
90.849308
 20
54.492275
 30
0.0
 10
90.934074
 20
54.418102
 30
0.0
 10
90.976048
 20
54.281163
 30
0.0
 10
90.976048
 20
54.080033
 30
0.0
  0
LINE
  5
398
100
AcDbEntity
  8
0
 62
3
100
AcDbLine
 10
90.976048
 20
54.080033
 30
0.0
 11
90.976048
 21
53.776898
 31
0.0
  0
SPLINE
  5
399
100
AcDbEntity
  8
0
 62
3
100
AcDbSpline
 70
8
 71
3
 72
8
 73
4
 74
0
 40
0
 40
0
 40
0
 40
0
 40
1
 40
1
 40
1
 40
1
 10
90.976048
 20
53.776898
 30
0.0
 10
90.976048
 20
53.576485
 30
0.0
 10
90.934074
 20
53.439541
 30
0.0
 10
90.849308
 20
53.365374
 30
0.0
  0
SPLINE
  5
39a
100
AcDbEntity
  8
0
 62
3
100
AcDbSpline
 70
8
 71
3
 72
8
 73
4
 74
0
 40
0
 40
0
 40
0
 40
0
 40
1
 40
1
 40
1
 40
1
 10
90.849308
 20
53.365374
 30
0.0
 10
90.765328
 20
53.291903
 30
0.0
 10
90.602944
 20
53.254816
 30
0.0
 10
90.362910
 20
53.254816
 30
0.0
  0
LINE
  5
39b
100
AcDbEntity
  8
0
 62
3
100
AcDbLine
 10
90.362910
 20
53.254816
 30
0.0
 11
88.848265
 21
53.254816
 31
0.0
  0
SPLINE
  5
39c
100
AcDbEntity
  8
0
 62
3
100
AcDbSpline
 70
8
 71
3
 72
8
 73
4
 74
0
 40
0
 40
0
 40
0
 40
0
 40
1
 40
1
 40
1
 40
1
 10
88.848265
 20
53.254816
 30
0.0
 10
88.608234
 20
53.254816
 30
0.0
 10
88.445832
 20
53.291903
 30
0.0
 10
88.361870
 20
53.365374
 30
0.0
  0
SPLINE
  5
39d
100
AcDbEntity
  8
0
 62
3
100
AcDbSpline
 70
8
 71
3
 72
8
 73
4
 74
0
 40
0
 40
0
 40
0
 40
0
 40
1
 40
1
 40
1
 40
1
 10
88.361870
 20
53.365374
 30
0.0
 10
88.277100
 20
53.439541
 30
0.0
 10
88.235112
 20
53.576485
 30
0.0
 10
88.235112
 20
53.776898
 30
0.0
  0
LINE
  5
39e
100
AcDbEntity
  8
0
 62
3
100
AcDbLine
 10
88.235112
 20
53.776898
 30
0.0
 11
88.235112
 21
53.837526
 31
0.0
  0
LINE
  5
39f
100
AcDbEntity
  8
0
 62
3
100
AcDbLine
 10
88.235112
 20
53.837526
 30
0.0
 11
88.738932
 21
53.931681
 31
0.0
  0
LINE
  5
3a0
100
AcDbEntity
  8
0
 62
3
100
AcDbLine
 10
88.738932
 20
53.931681
 30
0.0
 11
88.738932
 21
53.670627
 31
0.0
  0
LINE
  5
3a1
100
AcDbEntity
  8
0
 62
3
100
AcDbLine
 10
88.738932
 20
53.670627
 30
0.0
 11
90.472224
 21
53.670627
 31
0.0
  0
LINE
  5
3a2
100
AcDbEntity
  8
0
 62
3
100
AcDbLine
 10
90.472224
 20
53.670627
 30
0.0
 11
90.472224
 21
54.174172
 31
0.0
  0
LINE
  5
3a3
100
AcDbEntity
  8
0
 62
3
100
AcDbLine
 10
90.472224
 20
54.174172
 30
0.0
 11
88.943329
 21
54.174172
 31
0.0
  0
SPLINE
  5
3a4
100
AcDbEntity
  8
0
 62
3
100
AcDbSpline
 70
8
 71
3
 72
8
 73
4
 74
0
 40
0
 40
0
 40
0
 40
0
 40
1
 40
1
 40
1
 40
1
 10
88.943329
 20
54.174172
 30
0.0
 10
88.704883
 20
54.174172
 30
0.0
 10
88.544065
 20
54.211261
 30
0.0
 10
88.460085
 20
54.284724
 30
0.0
  0
SPLINE
  5
3a5
100
AcDbEntity
  8
0
 62
3
100
AcDbSpline
 70
8
 71
3
 72
8
 73
4
 74
0
 40
0
 40
0
 40
0
 40
0
 40
1
 40
1
 40
1
 40
1
 10
88.460085
 20
54.284724
 30
0.0
 10
88.376921
 20
54.358907
 30
0.0
 10
88.334926
 20
54.495843
 30
0.0
 10
88.334926
 20
54.696979
 30
0.0
  0
LINE
  5
3a6
100
AcDbEntity
  8
0
 62
3
100
AcDbLine
 10
88.334926
 20
54.696979
 30
0.0
 11
88.334926
 21
54.940907
 31
0.0
  0
SPLINE
  5
3a7
100
AcDbEntity
  8
0
 62
3
100
AcDbSpline
 70
8
 71
3
 72
8
 73
4
 74
0
 40
0
 40
0
 40
0
 40
0
 40
1
 40
1
 40
1
 40
1
 10
88.334926
 20
54.940907
 30
0.0
 10
88.334926
 20
55.142036
 30
0.0
 10
88.376921
 20
55.278975
 30
0.0
 10
88.460085
 20
55.353148
 30
0.0
  0
SPLINE
  5
3a8
100
AcDbEntity
  8
0
 62
3
100
AcDbSpline
 70
8
 71
3
 72
8
 73
4
 74
0
 40
0
 40
0
 40
0
 40
0
 40
1
 40
1
 40
1
 40
1
 10
88.460085
 20
55.353148
 30
0.0
 10
88.544065
 20
55.426611
 30
0.0
 10
88.704883
 20
55.463701
 30
0.0
 10
88.943329
 20
55.463701
 30
0.0
  0
LINE
  5
3a9
100
AcDbEntity
  8
0
 62
3
100
AcDbLine
 10
88.943329
 20
55.463701
 30
0.0
 11
90.335175
 21
55.463701
 31
0.0
  0
SPLINE
  5
3aa
100
AcDbEntity
  8
0
 62
3
100
AcDbSpline
 70
8
 71
3
 72
8
 73
4
 74
0
 40
0
 40
0
 40
0
 40
0
 40
1
 40
1
 40
1
 40
1
 10
90.335175
 20
55.463701
 30
0.0
 10
90.565709
 20
55.463701
 30
0.0
 10
90.724925
 20
55.428042
 30
0.0
 10
90.812076
 20
55.357430
 30
0.0
  0
SPLINE
  5
3ab
100
AcDbEntity
  8
0
 62
3
100
AcDbSpline
 70
8
 71
3
 72
8
 73
4
 74
0
 40
0
 40
0
 40
0
 40
0
 40
1
 40
1
 40
1
 40
1
 10
90.812076
 20
55.357430
 30
0.0
 10
90.900003
 20
55.286113
 30
0.0
 10
90.943572
 20
55.159866
 30
0.0
 10
90.943572
 20
54.978709
 30
0.0
  0
LINE
  5
3ac
100
AcDbEntity
  8
0
 62
3
100
AcDbLine
 10
90.943572
 20
54.978709
 30
0.0
 11
90.943572
 21
54.933053
 31
0.0
  0
LINE
  5
3ad
100
AcDbEntity
  8
0
 62
3
100
AcDbLine
 10
90.943572
 20
54.933053
 30
0.0
 11
90.439752
 21
54.826078
 31
0.0
  0
LINE
  5
3ae
100
AcDbEntity
  8
0
 62
3
100
AcDbLine
 10
90.439752
 20
54.826078
 30
0.0
 11
90.439752
 21
55.077133
 31
0.0
  0
LINE
  5
3af
100
AcDbEntity
  8
0
 62
3
100
AcDbLine
 10
59.886282
 20
56.081050
 30
0.0
 11
92.155819
 21
56.081050
 31
0.0
  0
SPLINE
  5
3b0
100
AcDbEntity
  8
0
 62
3
100
AcDbSpline
 70
8
 71
3
 72
8
 73
4
 74
0
 40
0
 40
0
 40
0
 40
0
 40
1
 40
1
 40
1
 40
1
 10
92.155819
 20
56.081050
 30
0.0
 10
92.079640
 20
56.012657
 30
0.0
 10
92.007992
 20
55.940175
 30
0.0
 10
91.941282
 20
55.864041
 30
0.0
  0
LINE
  5
3b1
100
AcDbEntity
  8
0
 62
3
100
AcDbLine
 10
91.941282
 20
55.864041
 30
0.0
 11
59.886282
 21
55.864041
 31
0.0
  0
SPLINE
  5
3b2
100
AcDbEntity
  8
0
 62
3
100
AcDbSpline
 70
8
 71
3
 72
8
 73
4
 74
0
 40
0
 40
0
 40
0
 40
0
 40
1
 40
1
 40
1
 40
1
 10
59.886282
 20
55.864041
 30
0.0
 10
59.655882
 20
55.864041
 30
0.0
 10
59.467375
 20
55.667022
 30
0.0
 10
59.467375
 20
55.426221
 30
0.0
  0
LINE
  5
3b3
100
AcDbEntity
  8
0
 62
3
100
AcDbLine
 10
59.467375
 20
55.426221
 30
0.0
 11
59.467375
 21
53.292302
 31
0.0
  0
SPLINE
  5
3b4
100
AcDbEntity
  8
0
 62
3
100
AcDbSpline
 70
8
 71
3
 72
8
 73
4
 74
0
 40
0
 40
0
 40
0
 40
0
 40
1
 40
1
 40
1
 40
1
 10
59.467375
 20
53.292302
 30
0.0
 10
59.467375
 20
53.051499
 30
0.0
 10
59.655882
 20
52.854482
 30
0.0
 10
59.886282
 20
52.854482
 30
0.0
  0
LINE
  5
3b5
100
AcDbEntity
  8
0
 62
3
100
AcDbLine
 10
59.886282
 20
52.854482
 30
0.0
 11
91.941282
 21
52.854482
 31
0.0
  0
SPLINE
  5
3b6
100
AcDbEntity
  8
0
 62
3
100
AcDbSpline
 70
8
 71
3
 72
8
 73
4
 74
0
 40
0
 40
0
 40
0
 40
0
 40
1
 40
1
 40
1
 40
1
 10
91.941282
 20
52.854482
 30
0.0
 10
92.007992
 20
52.778347
 30
0.0
 10
92.079640
 20
52.705873
 30
0.0
 10
92.155800
 20
52.637480
 30
0.0
  0
LINE
  5
3b7
100
AcDbEntity
  8
0
 62
3
100
AcDbLine
 10
92.155800
 20
52.637480
 30
0.0
 11
59.886282
 21
52.637480
 31
0.0
  0
SPLINE
  5
3b8
100
AcDbEntity
  8
0
 62
3
100
AcDbSpline
 70
8
 71
3
 72
8
 73
4
 74
0
 40
0
 40
0
 40
0
 40
0
 40
1
 40
1
 40
1
 40
1
 10
59.886282
 20
52.637480
 30
0.0
 10
59.523328
 20
52.637480
 30
0.0
 10
59.226359
 20
52.932143
 30
0.0
 10
59.226359
 20
53.292302
 30
0.0
  0
LINE
  5
3b9
100
AcDbEntity
  8
0
 62
3
100
AcDbLine
 10
59.226359
 20
53.292302
 30
0.0
 11
59.226359
 21
55.426225
 31
0.0
  0
SPLINE
  5
3ba
100
AcDbEntity
  8
0
 62
3
100
AcDbSpline
 70
8
 71
3
 72
8
 73
4
 74
0
 40
0
 40
0
 40
0
 40
0
 40
1
 40
1
 40
1
 40
1
 10
59.226359
 20
55.426225
 30
0.0
 10
59.226359
 20
55.786376
 30
0.0
 10
59.523328
 20
56.081050
 30
0.0
 10
59.886282
 20
56.081050
 30
0.0
  0
LINE
  5
3bb
100
AcDbEntity
  8
0
 62
3
100
AcDbLine
 10
59.886282
 20
56.081050
 30
0.0
 11
59.886282
 21
56.081050
 31
0.0
  0
LINE
  5
3bc
100
AcDbEntity
  8
0
 62
3
100
AcDbLine
 10
100.955149
 20
56.081670
 30
0.0
 11
133.292402
 21
56.081670
 31
0.0
  0
SPLINE
  5
3bd
100
AcDbEntity
  8
0
 62
3
100
AcDbSpline
 70
8
 71
3
 72
8
 73
4
 74
0
 40
0
 40
0
 40
0
 40
0
 40
1
 40
1
 40
1
 40
1
 10
133.292402
 20
56.081670
 30
0.0
 10
133.619305
 20
56.081670
 30
0.0
 10
133.886777
 20
55.786890
 30
0.0
 10
133.886777
 20
55.426609
 30
0.0
  0
LINE
  5
3be
100
AcDbEntity
  8
0
 62
3
100
AcDbLine
 10
133.886777
 20
55.426609
 30
0.0
 11
133.886777
 21
53.291916
 31
0.0
  0
SPLINE
  5
3bf
100
AcDbEntity
  8
0
 62
3
100
AcDbSpline
 70
8
 71
3
 72
8
 73
4
 74
0
 40
0
 40
0
 40
0
 40
0
 40
1
 40
1
 40
1
 40
1
 10
133.886777
 20
53.291916
 30
0.0
 10
133.886777
 20
52.931627
 30
0.0
 10
133.619305
 20
52.636859
 30
0.0
 10
133.292402
 20
52.636859
 30
0.0
  0
LINE
  5
3c0
100
AcDbEntity
  8
0
 62
3
100
AcDbLine
 10
133.292402
 20
52.636859
 30
0.0
 11
100.955156
 21
52.636859
 31
0.0
  0
SPLINE
  5
3c1
100
AcDbEntity
  8
0
 62
3
100
AcDbSpline
 70
8
 71
3
 72
8
 73
4
 74
0
 40
0
 40
0
 40
0
 40
0
 40
1
 40
1
 40
1
 40
1
 10
100.955156
 20
52.636859
 30
0.0
 10
101.023755
 20
52.705277
 30
0.0
 10
101.088287
 20
52.777776
 30
0.0
 10
101.148371
 20
52.853937
 30
0.0
  0
LINE
  5
3c2
100
AcDbEntity
  8
0
 62
3
100
AcDbLine
 10
101.148371
 20
52.853937
 30
0.0
 11
133.292395
 21
52.853937
 31
0.0
  0
SPLINE
  5
3c3
100
AcDbEntity
  8
0
 62
3
100
AcDbSpline
 70
8
 71
3
 72
8
 73
4
 74
0
 40
0
 40
0
 40
0
 40
0
 40
1
 40
1
 40
1
 40
1
 10
133.292395
 20
52.853937
 30
0.0
 10
133.499910
 20
52.853937
 30
0.0
 10
133.669692
 20
53.051026
 30
0.0
 10
133.669692
 20
53.291916
 30
0.0
  0
LINE
  5
3c4
100
AcDbEntity
  8
0
 62
3
100
AcDbLine
 10
133.669692
 20
53.291916
 30
0.0
 11
133.669692
 21
55.426606
 31
0.0
  0
SPLINE
  5
3c5
100
AcDbEntity
  8
0
 62
3
100
AcDbSpline
 70
8
 71
3
 72
8
 73
4
 74
0
 40
0
 40
0
 40
0
 40
0
 40
1
 40
1
 40
1
 40
1
 10
133.669692
 20
55.426606
 30
0.0
 10
133.669692
 20
55.667493
 30
0.0
 10
133.499910
 20
55.864583
 30
0.0
 10
133.292395
 20
55.864583
 30
0.0
  0
LINE
  5
3c6
100
AcDbEntity
  8
0
 62
3
100
AcDbLine
 10
133.292395
 20
55.864583
 30
0.0
 11
101.148371
 21
55.864583
 31
0.0
  0
SPLINE
  5
3c7
100
AcDbEntity
  8
0
 62
3
100
AcDbSpline
 70
8
 71
3
 72
8
 73
4
 74
0
 40
0
 40
0
 40
0
 40
0
 40
1
 40
1
 40
1
 40
1
 10
101.148371
 20
55.864583
 30
0.0
 10
101.088287
 20
55.940745
 30
0.0
 10
101.023755
 20
56.013253
 30
0.0
 10
100.955149
 20
56.081670
 30
0.0
  0
LINE
  5
3c8
100
AcDbEntity
  8
0
 62
3
100
AcDbLine
 10
100.955149
 20
56.081670
 30
0.0
 11
100.955149
 21
56.081670
 31
0.0
  0
SPLINE
  5
3c9
100
AcDbEntity
  8
0
 62
7
100
AcDbSpline
 70
8
 71
3
 72
8
 73
4
 74
0
 40
0
 40
0
 40
0
 40
0
 40
1
 40
1
 40
1
 40
1
 10
370.234179
 20
38.080307
 30
0.0
 10
370.250579
 20
34.727814
 30
0.0
 10
368.713999
 20
31.558784
 30
0.0
 10
366.620849
 20
29.013096
 30
0.0
  0
SPLINE
  5
3ca
100
AcDbEntity
  8
0
 62
7
100
AcDbSpline
 70
8
 71
3
 72
8
 73
4
 74
0
 40
0
 40
0
 40
0
 40
0
 40
1
 40
1
 40
1
 40
1
 10
366.620849
 20
29.013096
 30
0.0
 10
363.031589
 20
24.683596
 30
0.0
 10
358.159789
 20
21.651874
 30
0.0
 10
353.189089
 20
19.142866
 30
0.0
  0
SPLINE
  5
3cb
100
AcDbEntity
  8
0
 62
7
100
AcDbSpline
 70
8
 71
3
 72
8
 73
4
 74
0
 40
0
 40
0
 40
0
 40
0
 40
1
 40
1
 40
1
 40
1
 10
353.189089
 20
19.142866
 30
0.0
 10
347.485939
 20
16.389552
 30
0.0
 10
341.575869
 20
14.183907
 30
0.0
 10
335.458879
 20
12.525933
 30
0.0
  0
SPLINE
  5
3cc
100
AcDbEntity
  8
0
 62
7
100
AcDbSpline
 70
8
 71
3
 72
8
 73
4
 74
0
 40
0
 40
0
 40
0
 40
0
 40
1
 40
1
 40
1
 40
1
 10
335.458879
 20
12.525933
 30
0.0
 10
317.180709
 20
7.493966
 30
0.0
 10
298.149959
 20
5.640976
 30
0.0
 10
279.232799
 20
5.580307
 30
0.0
  0
SPLINE
  5
3cd
100
AcDbEntity
  8
0
 62
7
100
AcDbSpline
 70
8
 71
3
 72
8
 73
4
 74
0
 40
0
 40
0
 40
0
 40
0
 40
1
 40
1
 40
1
 40
1
 10
279.232799
 20
5.580307
 30
0.0
 10
260.470609
 20
5.638537
 30
0.0
 10
241.600969
 20
7.466916
 30
0.0
 10
223.457419
 20
12.400269
 30
0.0
  0
SPLINE
  5
3ce
100
AcDbEntity
  8
0
 62
7
100
AcDbSpline
 70
8
 71
3
 72
8
 73
4
 74
0
 40
0
 40
0
 40
0
 40
0
 40
1
 40
1
 40
1
 40
1
 10
223.457419
 20
12.400269
 30
0.0
 10
215.319159
 20
14.687241
 30
0.0
 10
207.252389
 20
17.581965
 30
0.0
 10
200.044889
 20
22.066668
 30
0.0
  0
SPLINE
  5
3cf
100
AcDbEntity
  8
0
 62
7
100
AcDbSpline
 70
8
 71
3
 72
8
 73
4
 74
0
 40
0
 40
0
 40
0
 40
0
 40
1
 40
1
 40
1
 40
1
 10
200.044889
 20
22.066668
 30
0.0
 10
195.127789
 20
25.219910
 30
0.0
 10
190.148919
 20
29.348564
 30
0.0
 10
188.583279
 20
35.225143
 30
0.0
  0
SPLINE
  5
3d0
100
AcDbEntity
  8
0
 62
7
100
AcDbSpline
 70
8
 71
3
 72
8
 73
4
 74
0
 40
0
 40
0
 40
0
 40
0
 40
1
 40
1
 40
1
 40
1
 10
188.583279
 20
35.225143
 30
0.0
 10
187.455869
 20
39.448662
 30
0.0
 10
189.108489
 20
43.910093
 30
0.0
 10
191.844759
 20
47.147518
 30
0.0
  0
SPLINE
  5
3d1
100
AcDbEntity
  8
0
 62
7
100
AcDbSpline
 70
8
 71
3
 72
8
 73
4
 74
0
 40
0
 40
0
 40
0
 40
0
 40
1
 40
1
 40
1
 40
1
 10
191.844759
 20
47.147518
 30
0.0
 10
193.474659
 20
49.092221
 30
0.0
 10
195.321639
 20
50.805238
 30
0.0
 10
197.385689
 20
52.286569
 30
0.0
  0
SPLINE
  5
3d2
100
AcDbEntity
  8
0
 62
7
100
AcDbSpline
 70
8
 71
3
 72
8
 73
4
 74
0
 40
0
 40
0
 40
0
 40
0
 40
1
 40
1
 40
1
 40
1
 10
197.385689
 20
52.286569
 30
0.0
 10
205.037499
 20
57.783236
 30
0.0
 10
214.018049
 20
61.054039
 30
0.0
 10
223.006729
 20
63.634681
 30
0.0
  0
SPLINE
  5
3d3
100
AcDbEntity
  8
0
 62
7
100
AcDbSpline
 70
8
 71
3
 72
8
 73
4
 74
0
 40
0
 40
0
 40
0
 40
0
 40
1
 40
1
 40
1
 40
1
 10
223.006729
 20
63.634681
 30
0.0
 10
241.284889
 20
68.666648
 30
0.0
 10
260.315639
 20
70.519638
 30
0.0
 10
279.232799
 20
70.580307
 30
0.0
  0
SPLINE
  5
3d4
100
AcDbEntity
  8
0
 62
7
100
AcDbSpline
 70
8
 71
3
 72
8
 73
4
 74
0
 40
0
 40
0
 40
0
 40
0
 40
1
 40
1
 40
1
 40
1
 10
279.232799
 20
70.580307
 30
0.0
 10
297.994989
 20
70.522077
 30
0.0
 10
316.864629
 20
68.693698
 30
0.0
 10
335.008189
 20
63.760345
 30
0.0
  0
SPLINE
  5
3d5
100
AcDbEntity
  8
0
 62
7
100
AcDbSpline
 70
8
 71
3
 72
8
 73
4
 74
0
 40
0
 40
0
 40
0
 40
0
 40
1
 40
1
 40
1
 40
1
 10
335.008189
 20
63.760345
 30
0.0
 10
343.146449
 20
61.473373
 30
0.0
 10
351.213209
 20
58.578649
 30
0.0
 10
358.420719
 20
54.093946
 30
0.0
  0
SPLINE
  5
3d6
100
AcDbEntity
  8
0
 62
7
100
AcDbSpline
 70
8
 71
3
 72
8
 73
4
 74
0
 40
0
 40
0
 40
0
 40
0
 40
1
 40
1
 40
1
 40
1
 10
358.420719
 20
54.093946
 30
0.0
 10
360.747009
 20
52.657347
 30
0.0
 10
362.891509
 20
50.989128
 30
0.0
 10
364.854239
 20
49.089289
 30
0.0
  0
SPLINE
  5
3d7
100
AcDbEntity
  8
0
 62
7
100
AcDbSpline
 70
8
 71
3
 72
8
 73
4
 74
0
 40
0
 40
0
 40
0
 40
0
 40
1
 40
1
 40
1
 40
1
 10
364.854239
 20
49.089289
 30
0.0
 10
367.808669
 20
46.189109
 30
0.0
 10
370.248549
 20
42.350096
 30
0.0
 10
370.234179
 20
38.080307
 30
0.0
  0
SPLINE
  5
3d8
100
AcDbEntity
  8
0
 62
7
100
AcDbSpline
 70
8
 71
3
 72
8
 73
4
 74
0
 40
0
 40
0
 40
0
 40
0
 40
1
 40
1
 40
1
 40
1
 10
194.082809
 20
38.080307
 30
0.0
 10
194.082809
 20
38.383983
 30
0.0
 10
193.920800
 20
38.664591
 30
0.0
 10
193.657809
 20
38.816429
 30
0.0
  0
SPLINE
  5
3d9
100
AcDbEntity
  8
0
 62
7
100
AcDbSpline
 70
8
 71
3
 72
8
 73
4
 74
0
 40
0
 40
0
 40
0
 40
0
 40
1
 40
1
 40
1
 40
1
 10
193.657809
 20
38.816429
 30
0.0
 10
193.394818
 20
38.968267
 30
0.0
 10
193.070800
 20
38.968267
 30
0.0
 10
192.807809
 20
38.816429
 30
0.0
  0
SPLINE
  5
3da
100
AcDbEntity
  8
0
 62
7
100
AcDbSpline
 70
8
 71
3
 72
8
 73
4
 74
0
 40
0
 40
0
 40
0
 40
0
 40
1
 40
1
 40
1
 40
1
 10
192.807809
 20
38.816429
 30
0.0
 10
192.544818
 20
38.664591
 30
0.0
 10
192.382809
 20
38.383983
 30
0.0
 10
192.382809
 20
38.080307
 30
0.0
  0
SPLINE
  5
3db
100
AcDbEntity
  8
0
 62
7
100
AcDbSpline
 70
8
 71
3
 72
8
 73
4
 74
0
 40
0
 40
0
 40
0
 40
0
 40
1
 40
1
 40
1
 40
1
 10
192.382809
 20
38.080307
 30
0.0
 10
192.382809
 20
37.776631
 30
0.0
 10
192.544818
 20
37.496023
 30
0.0
 10
192.807809
 20
37.344186
 30
0.0
  0
SPLINE
  5
3dc
100
AcDbEntity
  8
0
 62
7
100
AcDbSpline
 70
8
 71
3
 72
8
 73
4
 74
0
 40
0
 40
0
 40
0
 40
0
 40
1
 40
1
 40
1
 40
1
 10
192.807809
 20
37.344186
 30
0.0
 10
193.070800
 20
37.192348
 30
0.0
 10
193.394818
 20
37.192348
 30
0.0
 10
193.657809
 20
37.344186
 30
0.0
  0
SPLINE
  5
3dd
100
AcDbEntity
  8
0
 62
7
100
AcDbSpline
 70
8
 71
3
 72
8
 73
4
 74
0
 40
0
 40
0
 40
0
 40
0
 40
1
 40
1
 40
1
 40
1
 10
193.657809
 20
37.344186
 30
0.0
 10
193.920800
 20
37.496023
 30
0.0
 10
194.082809
 20
37.776631
 30
0.0
 10
194.082809
 20
38.080307
 30
0.0
  0
LINE
  5
3de
100
AcDbEntity
  8
0
 62
7
100
AcDbLine
 10
194.082809
 20
38.080307
 30
0.0
 11
194.082809
 21
38.080307
 31
0.0
  0
SPLINE
  5
3df
100
AcDbEntity
  8
0
 62
7
100
AcDbSpline
 70
8
 71
3
 72
8
 73
4
 74
0
 40
0
 40
0
 40
0
 40
0
 40
1
 40
1
 40
1
 40
1
 10
366.082809
 20
38.080307
 30
0.0
 10
366.082809
 20
38.383983
 30
0.0
 10
365.920800
 20
38.664591
 30
0.0
 10
365.657809
 20
38.816429
 30
0.0
  0
SPLINE
  5
3e0
100
AcDbEntity
  8
0
 62
7
100
AcDbSpline
 70
8
 71
3
 72
8
 73
4
 74
0
 40
0
 40
0
 40
0
 40
0
 40
1
 40
1
 40
1
 40
1
 10
365.657809
 20
38.816429
 30
0.0
 10
365.394818
 20
38.968267
 30
0.0
 10
365.070800
 20
38.968267
 30
0.0
 10
364.807809
 20
38.816429
 30
0.0
  0
SPLINE
  5
3e1
100
AcDbEntity
  8
0
 62
7
100
AcDbSpline
 70
8
 71
3
 72
8
 73
4
 74
0
 40
0
 40
0
 40
0
 40
0
 40
1
 40
1
 40
1
 40
1
 10
364.807809
 20
38.816429
 30
0.0
 10
364.544818
 20
38.664591
 30
0.0
 10
364.382809
 20
38.383983
 30
0.0
 10
364.382809
 20
38.080307
 30
0.0
  0
SPLINE
  5
3e2
100
AcDbEntity
  8
0
 62
7
100
AcDbSpline
 70
8
 71
3
 72
8
 73
4
 74
0
 40
0
 40
0
 40
0
 40
0
 40
1
 40
1
 40
1
 40
1
 10
364.382809
 20
38.080307
 30
0.0
 10
364.382809
 20
37.776631
 30
0.0
 10
364.544818
 20
37.496023
 30
0.0
 10
364.807809
 20
37.344186
 30
0.0
  0
SPLINE
  5
3e3
100
AcDbEntity
  8
0
 62
7
100
AcDbSpline
 70
8
 71
3
 72
8
 73
4
 74
0
 40
0
 40
0
 40
0
 40
0
 40
1
 40
1
 40
1
 40
1
 10
364.807809
 20
37.344186
 30
0.0
 10
365.070800
 20
37.192348
 30
0.0
 10
365.394818
 20
37.192348
 30
0.0
 10
365.657809
 20
37.344186
 30
0.0
  0
SPLINE
  5
3e4
100
AcDbEntity
  8
0
 62
7
100
AcDbSpline
 70
8
 71
3
 72
8
 73
4
 74
0
 40
0
 40
0
 40
0
 40
0
 40
1
 40
1
 40
1
 40
1
 10
365.657809
 20
37.344186
 30
0.0
 10
365.920800
 20
37.496023
 30
0.0
 10
366.082809
 20
37.776631
 30
0.0
 10
366.082809
 20
38.080307
 30
0.0
  0
LINE
  5
3e5
100
AcDbEntity
  8
0
 62
7
100
AcDbLine
 10
366.082809
 20
38.080307
 30
0.0
 11
366.082809
 21
38.080307
 31
0.0
  0
LINE
  5
3e6
100
AcDbEntity
  8
0
 62
7
100
AcDbLine
 10
361.307799
 20
35.860307
 30
0.0
 11
361.307799
 21
40.300307
 31
0.0
  0
LINE
  5
3e7
100
AcDbEntity
  8
0
 62
7
100
AcDbLine
 10
361.307799
 20
40.300307
 30
0.0
 11
197.157799
 21
40.300307
 31
0.0
  0
LINE
  5
3e8
100
AcDbEntity
  8
0
 62
7
100
AcDbLine
 10
197.157799
 20
40.300307
 30
0.0
 11
197.157799
 21
35.860307
 31
0.0
  0
LINE
  5
3e9
100
AcDbEntity
  8
0
 62
7
100
AcDbLine
 10
197.157799
 20
35.860307
 30
0.0
 11
361.307799
 21
35.860307
 31
0.0
  0
LINE
  5
3ea
100
AcDbEntity
  8
0
 62
5
100
AcDbLine
 10
270.232820
 20
28.699791
 30
0.0
 11
288.232820
 21
28.699791
 31
0.0
  0
LINE
  5
3eb
100
AcDbEntity
  8
0
 62
5
100
AcDbLine
 10
288.232820
 20
28.699791
 30
0.0
 11
288.232820
 21
7.564686
 31
0.0
  0
LINE
  5
3ec
100
AcDbEntity
  8
0
 62
5
100
AcDbLine
 10
288.232820
 20
7.564686
 30
0.0
 11
270.232820
 21
7.564686
 31
0.0
  0
LINE
  5
3ed
100
AcDbEntity
  8
0
 62
5
100
AcDbLine
 10
270.232820
 20
7.564686
 30
0.0
 11
270.232820
 21
28.699791
 31
0.0
  0
LINE
  5
3ee
100
AcDbEntity
  8
0
 62
5
100
AcDbLine
 10
275.232790
 20
7.564690
 30
0.0
 11
283.232790
 21
7.564690
 31
0.0
  0
LINE
  5
3ef
100
AcDbEntity
  8
0
 62
5
100
AcDbLine
 10
283.232790
 20
7.564690
 30
0.0
 11
283.232790
 21
5.596101
 31
0.0
  0
LINE
  5
3f0
100
AcDbEntity
  8
0
 62
5
100
AcDbLine
 10
283.232790
 20
5.596101
 30
0.0
 11
275.232790
 21
5.596101
 31
0.0
  0
LINE
  5
3f1
100
AcDbEntity
  8
0
 62
5
100
AcDbLine
 10
275.232790
 20
5.596101
 30
0.0
 11
275.232790
 21
7.564690
 31
0.0
  0
ENDSEC
  0
SECTION
  2
OBJECTS
  0
DICTIONARY
  5
C
330
0
100
AcDbDictionary
  3
ACAD_GROUP
350
D
  3
ACAD_MLINESTYLE
350
17
  0
DICTIONARY
  5
D
330
C
100
AcDbDictionary
  0
DICTIONARY
  5
1A
330
C
100
AcDbDictionary
  0
DICTIONARY
  5
17
330
C
100
AcDbDictionary
  3
STANDARD
350
18
  0
DICTIONARY
  5
19
330
C
100
AcDbDictionary
  0
ENDSEC
  0
EOF
