999
dxfrw 0.6.3
  0
SECTION
  2
HEADER
  9
$ACADVER
  1
AC1021
  9
$DWGCODEPAGE
  3
ANSI_1252
  9
$INSBASE
 10
0
 20
0
 30
0
  9
$EXTMIN
 10
10000000000
 20
10000000000
 30
0
  9
$EXTMAX
 10
-10000000000
 20
-10000000000
 30
0
  9
$LIMMIN
 10
0
 20
0
  9
$LIMMAX
 10
420
 20
297
  9
$ORTHOMODE
 70
    0
  9
$REGENMODE
 70
    1
  9
$FILLMODE
 70
    1
  9
$QTEXTMODE
 70
    0
  9
$MIRRTEXT
 70
    0
  9
$LTSCALE
 40
1
  9
$ATTMODE
 70
    0
  9
$TEXTSIZE
 40
2.5
  9
$TRACEWID
 40
15.68
  9
$TEXTSTYLE
  7
STANDARD
  9
$CLAYER
  8
0
  9
$CELTYPE
  6
BYLAYER
  9
$CECOLOR
 62
  256
  9
$CELTSCALE
 40
1
  9
$DISPSILH
 70
    0
  9
$DIMSCALE
 40
2.5
  9
$DIMASZ
 40
2.5
  9
$DIMEXO
 40
0.625
  9
$DIMDLI
 40
3.75
  9
$DIMRND
 40
0
  9
$DIMDLE
 40
0
  9
$DIMEXE
 40
1.25
  9
$DIMTP
 40
0
  9
$DIMTM
 40
0
  9
$DIMTXT
 40
2.5
  9
$DIMCEN
 40
2.5
  9
$DIMTSZ
 40
0
  9
$DIMTOL
 70
    0
  9
$DIMLIM
 70
    0
  9
$DIMTIH
 70
    0
  9
$DIMTOH
 70
    0
  9
$DIMSE1
 70
    0
  9
$DIMSE2
 70
    0
  9
$DIMTAD
 70
    1
  9
$DIMZIN
 70
    8
  9
$DIMBLK
  1

  9
$DIMASO
 70
    1
  9
$DIMSHO
 70
    1
  9
$DIMPOST
  1

  9
$DIMAPOST
  1

  9
$DIMALT
 70
    0
  9
$DIMALTD
 70
    3
  9
$DIMALTF
 40
0.03937
  9
$DIMLFAC
 40
1
  9
$DIMTOFL
 70
    1
  9
$DIMTVP
 40
0
  9
$DIMTIX
 70
    0
  9
$DIMSOXD
 70
    0
  9
$DIMSAH
 70
    0
  9
$DIMBLK1
  1

  9
$DIMBLK2
  1

  9
$DIMSTYLE
  2
Standard
  9
$DIMCLRD
 70
    0
  9
$DIMCLRE
 70
    0
  9
$DIMCLRT
 70
    0
  9
$DIMTFAC
 40
1
  9
$DIMGAP
 40
0.625
  9
$DIMJUST
 70
    0
  9
$DIMSD1
 70
    0
  9
$DIMSD2
 70
    0
  9
$DIMTOLJ
 70
    0
  9
$DIMTZIN
 70
    8
  9
$DIMALTZ
 70
    0
  9
$DIMALTTZ
 70
    0
  9
$DIMUPT
 70
    0
  9
$DIMDEC
 70
    2
  9
$DIMTDEC
 70
    2
  9
$DIMALTU
 70
    2
  9
$DIMALTTD
 70
    3
  9
$DIMTXSTY
  7
STANDARD
  9
$DIMAUNIT
 70
    0
  9
$DIMADEC
 70
    0
  9
$DIMALTRND
 40
0
  9
$DIMAZIN
 70
    0
  9
$DIMDSEP
 70
   44
  9
$DIMATFIT
 70
    3
  9
$DIMFRAC
 70
    0
  9
$DIMLDRBLK
  1
STANDARD
  9
$DIMLUNIT
 70
    2
  9
$DIMLWD
 70
   -2
  9
$DIMLWE
 70
   -2
  9
$DIMTMOVE
 70
    0
  9
$DIMFXL
 40
1
  9
$DIMFXLON
 70
    0
  9
$DIMJOGANG
 40
0.7854
  9
$DIMTFILL
 70
    0
  9
$DIMTFILLCLR
 70
    0
  9
$DIMARCSYM
 70
    0
  9
$DIMLTYPE
  6

  9
$DIMLTEX1
  6

  9
$DIMLTEX2
  6

  9
$LUNITS
 70
    2
  9
$LUPREC
 70
    4
  9
$SKETCHINC
 40
1
  9
$FILLETRAD
 40
0
  9
$AUNITS
 70
    0
  9
$AUPREC
 70
    2
  9
$MENU
  1
.
  9
$ELEVATION
 40
0
  9
$PELEVATION
 40
0
  9
$THICKNESS
 40
0
  9
$LIMCHECK
 70
    0
  9
$CHAMFERA
 40
0
  9
$CHAMFERB
 40
0
  9
$CHAMFERC
 40
0
  9
$CHAMFERD
 40
0
  9
$SKPOLY
 70
    0
  9
$USRTIMER
 70
    1
  9
$ANGBASE
 50
0
  9
$ANGDIR
 70
    0
  9
$PDMODE
 70
   34
  9
$PDSIZE
 40
0
  9
$PLINEWID
 40
0
  9
$SPLFRAME
 70
    0
  9
$SPLINETYPE
 70
    2
  9
$SPLINESEGS
 70
    8
  9
$HANDSEED
  5
20000
  9
$SURFTAB1
 70
    6
  9
$SURFTAB2
 70
    6
  9
$SURFTYPE
 70
    6
  9
$SURFU
 70
    6
  9
$SURFV
 70
    6
  9
$UCSBASE
  2

  9
$UCSNAME
  2

  9
$UCSORG
 10
0
 20
0
 30
0
  9
$UCSXDIR
 10
1
 20
0
 30
0
  9
$UCSYDIR
 10
0
 20
1
 30
0
  9
$UCSORTHOREF
  2

  9
$UCSORTHOVIEW
 70
    0
  9
$UCSORGTOP
 10
0
 20
0
 30
0
  9
$UCSORGBOTTOM
 10
0
 20
0
 30
0
  9
$UCSORGLEFT
 10
0
 20
0
 30
0
  9
$UCSORGRIGHT
 10
0
 20
0
 30
0
  9
$UCSORGFRONT
 10
0
 20
0
 30
0
  9
$UCSORGBACK
 10
0
 20
0
 30
0
  9
$PUCSBASE
  2

  9
$PUCSNAME
  2

  9
$PUCSORG
 10
0
 20
0
 30
0
  9
$PUCSXDIR
 10
1
 20
0
 30
0
  9
$PUCSYDIR
 10
0
 20
1
 30
0
  9
$PUCSORTHOREF
  2

  9
$PUCSORTHOVIEW
 70
    0
  9
$PUCSORGTOP
 10
0
 20
0
 30
0
  9
$PUCSORGBOTTOM
 10
0
 20
0
 30
0
  9
$PUCSORGLEFT
 10
0
 20
0
 30
0
  9
$PUCSORGRIGHT
 10
0
 20
0
 30
0
  9
$PUCSORGFRONT
 10
0
 20
0
 30
0
  9
$PUCSORGBACK
 10
0
 20
0
 30
0
  9
$USERI1
 70
    0
  9
$USERI2
 70
    0
  9
$USERI3
 70
    0
  9
$USERI4
 70
    0
  9
$USERI5
 70
    0
  9
$USERR1
 40
0
  9
$USERR2
 40
0
  9
$USERR3
 40
0
  9
$USERR4
 40
0
  9
$USERR5
 40
0
  9
$WORLDVIEW
 70
    1
  9
$SHADEDGE
 70
    3
  9
$SHADEDIF
 70
   70
  9
$TILEMODE
 70
    1
  9
$MAXACTVP
 70
   64
  9
$PINSBASE
 10
0
 20
0
 30
0
  9
$PLIMCHECK
 70
    0
  9
$PEXTMIN
 10
0
 20
0
 30
0
  9
$PEXTMAX
 10
0
 20
0
 30
0
  9
$SNAPSTYLE
 70
    0
  9
$PLIMMIN
 10
0
 20
0
  9
$PLIMMAX
 10
210
 20
297
  9
$UNITMODE
 70
    0
  9
$VISRETAIN
 70
    1
  9
$PLINEGEN
 70
    0
  9
$PSLTSCALE
 70
    1
  9
$TREEDEPTH
 70
 3020
  9
$CMLSTYLE
  2
Standard
  9
$CMLJUST
 70
    0
  9
$CMLSCALE
 40
20
  9
$PROXYGRAPHICS
 70
    1
  9
$MEASUREMENT
 70
    1
  9
$CELWEIGHT
370
   -1
  9
$ENDCAPS
280
    0
  9
$JOINSTYLE
280
    0
  9
$LWDISPLAY
290
    0
  9
$INSUNITS
 70
    4
  9
$HYPERLINKBASE
  1

  9
$STYLESHEET
  1

  9
$XEDIT
290
    1
  9
$CEPSNTYPE
380
    0
  9
$PSTYLEMODE
290
    1
  9
$EXTNAMES
290
    1
  9
$PSVPSCALE
 40
1
  9
$OLESTARTUP
290
    0
  9
$SORTENTS
280
  127
  9
$INDEXCTL
280
    0
  9
$HIDETEXT
280
    1
  9
$XCLIPFRAME
290
    0
  9
$HALOGAP
280
    0
  9
$OBSCOLOR
 70
  257
  9
$OBSLTYPE
280
    0
  9
$INTERSECTIONDISPLAY
280
    0
  9
$INTERSECTIONCOLOR
 70
  257
  9
$DIMASSOC
280
    1
  9
$PROJECTNAME
  1

  9
$CAMERADISPLAY
290
    0
  9
$LENSLENGTH
 40
50
  9
$CAMERAHEIGHT
 40
0
  9
$STEPSPERSEC
 40
2
  9
$STEPSIZE
 40
50
  9
$3DDWFPREC
 40
2
  9
$PSOLWIDTH
 40
5
  9
$PSOLHEIGHT
 40
80
  9
$LOFTANG1
 40
1.570796326794897
  9
$LOFTANG2
 40
1.570796326794897
  9
$LOFTMAG1
 40
0
  9
$LOFTMAG2
 40
0
  9
$LOFTPARAM
 70
    7
  9
$LOFTNORMALS
280
    1
  9
$LATITUDE
 40
1
  9
$LONGITUDE
 40
1
  9
$NORTHDIRECTION
 40
0
  9
$TIMEZONE
 70
-8000
  9
$LIGHTGLYPHDISPLAY
280
    1
  9
$TILEMODELIGHTSYNCH
280
    1
  9
$SOLIDHIST
280
    1
  9
$SHOWHIST
280
    1
  9
$DWFFRAME
280
    2
  9
$DGNFRAME
280
    0
  9
$REALWORLDSCALE
290
    1
  9
$INTERFERECOLOR
 62
    1
  9
$CSHADOW
280
    0
  9
$SHADOWPLANELOCATION
 40
0
  0
ENDSEC
  0
SECTION
  2
CLASSES
  0
ENDSEC
  0
SECTION
  2
TABLES
  0
TABLE
  2
VPORT
  5
8
330
0
100
AcDbSymbolTable
 70
    1
  0
VPORT
  5
31
330
2
100
AcDbSymbolTableRecord
100
AcDbViewportTableRecord
  2
*ACTIVE
 70
    0
 10
0
 20
0
 11
1
 21
1
 12
88.25000000000009
 22
49.25000000000004
 13
0
 23
0
 14
10
 24
10
 15
10
 25
10
 16
0
 26
0
 36
1
 17
0
 27
0
 37
0
 40
201.7500000000002
 41
1.432465923172243
 42
50
 43
0
 44
0
 50
0
 51
0
 71
    0
 72
  100
 73
    1
 74
    3
 75
    0
 76
    1
 77
    0
 78
    0
281
    0
 65
    1
110
0
120
0
130
0
111
1
121
0
131
0
112
0
122
1
132
0
 79
    0
146
0
348
10020
 60
    7
 61
    5
292
1
282
    1
141
0
142
0
 63
  250
421
3358443
  0
ENDTAB
  0
TABLE
  2
LTYPE
  5
5
330
0
100
AcDbSymbolTable
 70
    4
  0
LTYPE
  5
14
330
5
100
AcDbSymbolTableRecord
100
AcDbLinetypeTableRecord
  2
ByBlock
 70
    0
  3

 72
   65
 73
    0
 40
0
  0
LTYPE
  5
15
330
5
100
AcDbSymbolTableRecord
100
AcDbLinetypeTableRecord
  2
ByLayer
 70
    0
  3

 72
   65
 73
    0
 40
0
  0
LTYPE
  5
16
330
5
100
AcDbSymbolTableRecord
100
AcDbLinetypeTableRecord
  2
Continuous
 70
    0
  3
Solid line
 72
   65
 73
    0
 40
0
  0
LTYPE
  5
32
330
5
100
AcDbSymbolTableRecord
100
AcDbLinetypeTableRecord
  2
DOT
 70
    0
  3
Dot . . . . . . . . . . . . . . . . . . . . . .
 72
   65
 73
    2
 40
6.35
 49
0
 74
    0
 49
-6.35
 74
    0
  0
LTYPE
  5
33
330
5
100
AcDbSymbolTableRecord
100
AcDbLinetypeTableRecord
  2
DOTTINY
 70
    0
  3
Dot (.15x) .....................................
 72
   65
 73
    2
 40
0.9525
 49
0
 74
    0
 49
-0.9525
 74
    0
  0
LTYPE
  5
34
330
5
100
AcDbSymbolTableRecord
100
AcDbLinetypeTableRecord
  2
DOT2
 70
    0
  3
Dot (.5x) .....................................
 72
   65
 73
    2
 40
3.175
 49
0
 74
    0
 49
-3.175
 74
    0
  0
LTYPE
  5
35
330
5
100
AcDbSymbolTableRecord
100
AcDbLinetypeTableRecord
  2
DOTX2
 70
    0
  3
Dot (2x) .  .  .  .  .  .  .  .  .  .  .  .  .
 72
   65
 73
    2
 40
12.7
 49
0
 74
    0
 49
-12.7
 74
    0
  0
LTYPE
  5
36
330
5
100
AcDbSymbolTableRecord
100
AcDbLinetypeTableRecord
  2
DASHED
 70
    0
  3
Dashed _ _ _ _ _ _ _ _ _ _ _ _ _ _ _ _ _
 72
   65
 73
    2
 40
19.05
 49
12.7
 74
    0
 49
-6.35
 74
    0
  0
LTYPE
  5
37
330
5
100
AcDbSymbolTableRecord
100
AcDbLinetypeTableRecord
  2
DASHEDTINY
 70
    0
  3
Dashed (.15x) _ _ _ _ _ _ _ _ _ _ _ _ _ _ _ _ _
 72
   65
 73
    2
 40
2.8575
 49
1.905
 74
    0
 49
-0.9525
 74
    0
  0
LTYPE
  5
38
330
5
100
AcDbSymbolTableRecord
100
AcDbLinetypeTableRecord
  2
DASHED2
 70
    0
  3
Dashed (.5x) _ _ _ _ _ _ _ _ _ _ _ _ _ _ _ _ _
 72
   65
 73
    2
 40
9.524999999999999
 49
6.35
 74
    0
 49
-3.175
 74
    0
  0
LTYPE
  5
39
330
5
100
AcDbSymbolTableRecord
100
AcDbLinetypeTableRecord
  2
DASHEDX2
 70
    0
  3
Dashed (2x) ____  ____  ____  ____  ____  ___
 72
   65
 73
    2
 40
38.09999999999999
 49
25.4
 74
    0
 49
-12.7
 74
    0
  0
LTYPE
  5
3A
330
5
100
AcDbSymbolTableRecord
100
AcDbLinetypeTableRecord
  2
DASHDOT
 70
    0
  3
Dash dot __ . __ . __ . __ . __ . __ . __ . __
 72
   65
 73
    4
 40
25.4
 49
12.7
 74
    0
 49
-6.35
 74
    0
 49
0
 74
    0
 49
-6.35
 74
    0
  0
LTYPE
  5
3B
330
5
100
AcDbSymbolTableRecord
100
AcDbLinetypeTableRecord
  2
DASHDOTTINY
 70
    0
  3
Dash dot (.15x) _._._._._._._._._._._._._._._.
 72
   65
 73
    4
 40
3.81
 49
1.905
 74
    0
 49
-0.9525
 74
    0
 49
0
 74
    0
 49
-0.9525
 74
    0
  0
LTYPE
  5
3C
330
5
100
AcDbSymbolTableRecord
100
AcDbLinetypeTableRecord
  2
DASHDOT2
 70
    0
  3
Dash dot (.5x) _._._._._._._._._._._._._._._.
 72
   65
 73
    4
 40
12.7
 49
6.35
 74
    0
 49
-3.175
 74
    0
 49
0
 74
    0
 49
-3.175
 74
    0
  0
LTYPE
  5
3D
330
5
100
AcDbSymbolTableRecord
100
AcDbLinetypeTableRecord
  2
DASHDOTX2
 70
    0
  3
Dash dot (2x) ____  .  ____  .  ____  .  ___
 72
   65
 73
    4
 40
50.8
 49
25.4
 74
    0
 49
-12.7
 74
    0
 49
0
 74
    0
 49
-12.7
 74
    0
  0
LTYPE
  5
3E
330
5
100
AcDbSymbolTableRecord
100
AcDbLinetypeTableRecord
  2
DIVIDE
 70
    0
  3
Divide ____ . . ____ . . ____ . . ____ . . ____
 72
   65
 73
    6
 40
31.75
 49
12.7
 74
    0
 49
-6.35
 74
    0
 49
0
 74
    0
 49
-6.35
 74
    0
 49
0
 74
    0
 49
-6.35
 74
    0
  0
LTYPE
  5
3F
330
5
100
AcDbSymbolTableRecord
100
AcDbLinetypeTableRecord
  2
DIVIDETINY
 70
    0
  3
Divide (.15x) __..__..__..__..__..__..__..__.._
 72
   65
 73
    6
 40
4.7625
 49
1.905
 74
    0
 49
-0.9525
 74
    0
 49
0
 74
    0
 49
-0.9525
 74
    0
 49
0
 74
    0
 49
-0.9525
 74
    0
  0
LTYPE
  5
40
330
5
100
AcDbSymbolTableRecord
100
AcDbLinetypeTableRecord
  2
DIVIDE2
 70
    0
  3
Divide (.5x) __..__..__..__..__..__..__..__.._
 72
   65
 73
    6
 40
15.875
 49
6.35
 74
    0
 49
-3.175
 74
    0
 49
0
 74
    0
 49
-3.175
 74
    0
 49
0
 74
    0
 49
-3.175
 74
    0
  0
LTYPE
  5
41
330
5
100
AcDbSymbolTableRecord
100
AcDbLinetypeTableRecord
  2
DIVIDEX2
 70
    0
  3
Divide (2x) ________  .  .  ________  .  .  _
 72
   65
 73
    6
 40
63.5
 49
25.4
 74
    0
 49
-12.7
 74
    0
 49
0
 74
    0
 49
-12.7
 74
    0
 49
0
 74
    0
 49
-12.7
 74
    0
  0
LTYPE
  5
42
330
5
100
AcDbSymbolTableRecord
100
AcDbLinetypeTableRecord
  2
BORDER
 70
    0
  3
Border __ __ . __ __ . __ __ . __ __ . __ __ .
 72
   65
 73
    6
 40
44.45
 49
12.7
 74
    0
 49
-6.35
 74
    0
 49
12.7
 74
    0
 49
-6.35
 74
    0
 49
0
 74
    0
 49
-6.35
 74
    0
  0
LTYPE
  5
43
330
5
100
AcDbSymbolTableRecord
100
AcDbLinetypeTableRecord
  2
BORDERTINY
 70
    0
  3
Border (.15x) __.__.__.__.__.__.__.__.__.__.__.
 72
   65
 73
    6
 40
6.6675
 49
1.905
 74
    0
 49
-0.9525
 74
    0
 49
1.905
 74
    0
 49
-0.9525
 74
    0
 49
0
 74
    0
 49
-0.9525
 74
    0
  0
LTYPE
  5
44
330
5
100
AcDbSymbolTableRecord
100
AcDbLinetypeTableRecord
  2
BORDER2
 70
    0
  3
Border (.5x) __.__.__.__.__.__.__.__.__.__.__.
 72
   65
 73
    6
 40
22.225
 49
6.35
 74
    0
 49
-3.175
 74
    0
 49
6.35
 74
    0
 49
-3.175
 74
    0
 49
0
 74
    0
 49
-3.175
 74
    0
  0
LTYPE
  5
45
330
5
100
AcDbSymbolTableRecord
100
AcDbLinetypeTableRecord
  2
BORDERX2
 70
    0
  3
Border (2x) ____  ____  .  ____  ____  .  ___
 72
   65
 73
    6
 40
88.89999999999999
 49
25.4
 74
    0
 49
-12.7
 74
    0
 49
25.4
 74
    0
 49
-12.7
 74
    0
 49
0
 74
    0
 49
-12.7
 74
    0
  0
LTYPE
  5
46
330
5
100
AcDbSymbolTableRecord
100
AcDbLinetypeTableRecord
  2
CENTER
 70
    0
  3
Center ____ _ ____ _ ____ _ ____ _ ____ _ ____
 72
   65
 73
    4
 40
50.8
 49
31.75
 74
    0
 49
-6.35
 74
    0
 49
6.35
 74
    0
 49
-6.35
 74
    0
  0
LTYPE
  5
47
330
5
100
AcDbSymbolTableRecord
100
AcDbLinetypeTableRecord
  2
CENTERTINY
 70
    0
  3
Center (.15x) ___ _ ___ _ ___ _ ___ _ ___ _ ___
 72
   65
 73
    4
 40
7.619999999999999
 49
4.7625
 74
    0
 49
-0.9525
 74
    0
 49
0.9525
 74
    0
 49
-0.9525
 74
    0
  0
LTYPE
  5
48
330
5
100
AcDbSymbolTableRecord
100
AcDbLinetypeTableRecord
  2
CENTER2
 70
    0
  3
Center (.5x) ___ _ ___ _ ___ _ ___ _ ___ _ ___
 72
   65
 73
    4
 40
28.575
 49
19.05
 74
    0
 49
-3.175
 74
    0
 49
3.175
 74
    0
 49
-3.175
 74
    0
  0
LTYPE
  5
49
330
5
100
AcDbSymbolTableRecord
100
AcDbLinetypeTableRecord
  2
CENTERX2
 70
    0
  3
Center (2x) ________  __  ________  __  _____
 72
   65
 73
    4
 40
101.6
 49
63.5
 74
    0
 49
-12.7
 74
    0
 49
12.7
 74
    0
 49
-12.7
 74
    0
  0
ENDTAB
  0
TABLE
  2
LAYER
  5
2
330
0
100
AcDbSymbolTable
 70
    1
  0
LAYER
  5
10
330
2
100
AcDbSymbolTableRecord
100
AcDbLayerTableRecord
  2
0
 70
    0
 62
    7
  6
CONTINUOUS
370
   -3
390
F
  0
LAYER
  5
4A
330
2
100
AcDbSymbolTableRecord
100
AcDbLayerTableRecord
  2
Body_Slices
 70
    0
 62
    7
  6
CONTINUOUS
370
   -3
390
F
  0
ENDTAB
  0
TABLE
  2
STYLE
  5
3
330
0
100
AcDbSymbolTable
 70
    3
  0
STYLE
  5
4B
330
2
100
AcDbSymbolTableRecord
100
AcDbTextStyleTableRecord
  2
Standard
 70
    0
 40
0
 41
1
 50
0
 71
    0
 42
1
  3
txt
  4

  0
ENDTAB
  0
TABLE
  2
VIEW
  5
6
330
0
100
AcDbSymbolTable
 70
    0
  0
ENDTAB
  0
TABLE
  2
UCS
  5
7
330
0
100
AcDbSymbolTable
 70
    0
  0
ENDTAB
  0
TABLE
  2
APPID
  5
9
330
0
100
AcDbSymbolTable
 70
    1
  0
APPID
  5
12
330
9
100
AcDbSymbolTableRecord
100
AcDbRegAppTableRecord
  2
ACAD
 70
    0
  0
APPID
  5
4C
330
9
100
AcDbSymbolTableRecord
100
AcDbRegAppTableRecord
  2
LibreCad
 70
    0
  0
ENDTAB
  0
TABLE
  2
DIMSTYLE
  5
A
330
0
100
AcDbSymbolTable
 70
    1
100
AcDbDimStyleTable
 71
    1
  0
DIMSTYLE
105
4D
330
A
100
AcDbSymbolTableRecord
100
AcDbDimStyleTableRecord
  2
Standard
 70
    0
 40
1
 41
2.5
 42
0.625
 43
0.38
 44
1.25
 45
0
 46
0
 47
0
 48
0
 49
1
140
2.5
141
0.09
142
2.5
143
25.4
144
1
145
0
146
1
147
0.625
148
0
 71
    0
 72
    0
 73
    0
 74
    1
 75
    0
 76
    0
 77
    0
 78
    1
 79
    0
170
    0
171
    2
172
    0
173
    0
174
    0
175
    0
176
    0
177
    0
178
    0
179
    0
271
    2
272
    4
273
    2
274
    2
275
    0
276
    0
277
    2
278
    0
279
    0
280
    0
281
    0
282
    0
283
    1
284
    0
285
    0
286
    0
288
    0
289
    3
340
standard
341

371
   -2
372
   -2
  0
ENDTAB
  0
TABLE
  2
BLOCK_RECORD
  5
1
330
0
100
AcDbSymbolTable
 70
    2
  0
BLOCK_RECORD
  5
1F
330
1
100
AcDbSymbolTableRecord
100
AcDbBlockTableRecord
  2
*Model_Space
 70
    0
280
    1
281
    0
  0
BLOCK_RECORD
  5
1E
330
1
100
AcDbSymbolTableRecord
100
AcDbBlockTableRecord
  2
*Paper_Space
 70
    0
280
    1
281
    0
  0
BLOCK_RECORD
  5
4E
330
1
100
AcDbSymbolTableRecord
100
AcDbBlockTableRecord
  2
MYLAYER
 70
    0
280
    1
281
    0
  0
BLOCK_RECORD
  5
51
330
1
100
AcDbSymbolTableRecord
100
AcDbBlockTableRecord
  2
MYLAYER002
 70
    0
280
    1
281
    0
  0
BLOCK_RECORD
  5
54
330
1
100
AcDbSymbolTableRecord
100
AcDbBlockTableRecord
  2
MYLAYER001
 70
    0
280
    1
281
    0
  0
BLOCK_RECORD
  5
57
330
1
100
AcDbSymbolTableRecord
100
AcDbBlockTableRecord
  2
MYLAYER003
 70
    0
280
    1
281
    0
  0
ENDTAB
  0
ENDSEC
  0
SECTION
  2
BLOCKS
  0
BLOCK
  5
20
330
1F
100
AcDbEntity
  8
0
100
AcDbBlockBegin
  2
*Model_Space
 70
    0
 10
0
 20
0
 30
0
  3
*Model_Space
  1

  0
ENDBLK
  5
21
330
1F
100
AcDbEntity
  8
0
100
AcDbBlockEnd
  0
BLOCK
  5
1C
330
1B
100
AcDbEntity
  8
0
100
AcDbBlockBegin
  2
*Paper_Space
 70
    0
 10
0
 20
0
 30
0
  3
*Paper_Space
  1

  0
ENDBLK
  5
1D
330
1F
100
AcDbEntity
  8
0
100
AcDbBlockEnd
  0
BLOCK
  5
4F
330
4E
100
AcDbEntity
  8
0
100
AcDbBlockBegin
  2
MYLAYER
 70
    0
 10
0
 20
0
  3
MYLAYER
  1

  0
LWPOLYLINE
  5
5A
100
AcDbEntity
  8
Body_Slices
  6
ByLayer
 62
    0
370
   -1
100
AcDbPolyline
 90
   83
 70
    1
 43
0
 10
91.001373616
 20
-7.1054273576e-15
 10
90.00135887970001
 20
-4.80486488311
 10
87.4364755189
 20
-9.007462375579999
 10
83.97540222000001
 20
-12.5221472519
 10
80.02034961299999
 20
-15.4768463936
 10
75.7734370693
 20
-17.9978724643
 10
71.3405579561
 20
-20.1767648517
 10
66.78134113980001
 20
-22.0776317952
 10
62.1315845809
 20
-23.7460596539
 10
57.4150283191
 20
-25.2149282465
 10
52.6469254172
 20
-26.5090110916
 10
47.8390748237
 20
-27.6468528047
 10
42.9997502491
 20
-28.6429401824
 10
38.1354054219
 20
-29.5085916595
 10
33.2509371809
 20
-30.2527794285
 10
28.3503748454
 20
-30.8825963219
 10
23.4370780106
 20
-31.4036425844
 10
18.5137707867
 20
-31.8203075101
 10
13.5829286257
 20
-32.1359310344
 10
8.64678998842
 20
-32.3529547702
 10
3.70736391757
 20
-32.473018339
 10
-1.2335411932
 20
-32.4970139771
 10
-6.17382145439
 20
-32.4251199112
 10
-11.1116862211
 20
-32.2568102247
 10
-16.0453125048
 20
-31.9908224132
 10
-20.9726013493
 20
-31.6251225578
 10
-25.8911709941
 20
-31.1568356282
 10
-30.7983460687
 20
-30.5821295687
 10
-35.6911414111
 20
-29.8960378429
 10
-40.566172613
 20
-29.0922077572
 10
-45.4188170541
 20
-28.1626864344
 10
-50.2434462111
 20
-27.0974062695
 10
-55.0327689365
 20
-25.8835836679
 10
-59.7770369434
 20
-24.5048248879
 10
-64.462987394
 20
-22.9397188785
 10
-69.0713862324
 20
-21.1598857891
 10
-73.5734471726
 20
-19.1266965397
 10
-77.9230964807
 20
-16.7863766396
 10
-82.0416941483
 20
-14.0623775112
 10
-85.78468573550001
 20
-10.8456811911
 10
-88.8662083915
 20
-6.99886484329
 10
-90.7412997239
 20
-2.45534279242
 10
-90.74212534599999
 20
2.45144862744
 10
-88.8680281451
 20
6.99591708266
 10
-85.7870897647
 20
10.8432559226
 10
-82.0444559674
 20
14.0603220913
 10
-77.92580760680001
 20
16.7847713602
 10
-73.57620011589999
 20
19.1253456331
 10
-69.0745896122
 20
21.1585520351
 10
-64.4664068201
 20
22.9384932062
 10
-59.7808411528
 20
24.5036412229
 10
-55.0367661348
 20
25.8824998898
 10
-50.2475283241
 20
27.0964408344
 10
-45.4229515765
 20
28.161835889
 10
-40.5703307002
 20
29.0914680366
 10
-35.6953232511
 20
29.8954007569
 10
-30.8022323856
 20
30.5816301445
 10
-25.8948645151
 20
31.1564440699
 10
-20.9761559782
 20
31.6248218427
 10
-16.0487049147
 20
31.9906053945
 10
-11.1148671996
 20
32.2566704138
 10
-6.17676593748
 20
32.4250484108
 10
-1.23629736587
 20
32.4970005686
 10
3.70464844739
 20
32.4730578499
 10
8.6440129266
 20
32.3530494374
 10
13.5800841949
 20
32.1360843637
 10
18.5109017735
 20
31.8205203847
 10
23.4342262161
 20
31.4039140813
 10
28.3475304142
 20
30.8829294172
 10
33.2479863248
 20
30.2531934791
 10
38.1324453319
 20
29.509079797
 10
42.9970107628
 20
28.6434647133
 10
47.8365115296
 20
27.6474185046
 10
52.6445899026
 20
26.5096026423
 10
57.4128876302
 20
25.2155498165
 10
62.1299757559
 20
23.7465965454
 10
66.7801114712
 20
22.0781061695
 10
71.3398291243
 20
20.1770934966
 10
75.77296984980001
 20
17.9981233763
 10
80.019940799
 20
15.4771159656
 10
83.9750485845
 20
12.5224497069
 10
87.4362538088
 20
9.00773696501
 10
90.0012579452
 20
4.80510605204
  0
CIRCLE
  5
5B
100
AcDbEntity
  8
Body_Slices
  6
ByLayer
 62
    0
370
   -1
100
AcDbCircle
 10
86
 20
0
 40
0.85
  0
CIRCLE
  5
5C
100
AcDbEntity
  8
Body_Slices
  6
ByLayer
 62
    0
370
   -1
100
AcDbCircle
 10
-86
 20
0
 40
0.85
  0
ENDBLK
  5
50
330
4E
100
AcDbEntity
  8
0
100
AcDbBlockEnd
  0
BLOCK
  5
52
330
51
100
AcDbEntity
  8
0
100
AcDbBlockBegin
  2
MYLAYER002
 70
    0
 10
0
 20
0
  3
MYLAYER002
  1

  0
LWPOLYLINE
  5
5D
100
AcDbEntity
  8
Body_Slices
  6
ByLayer
 62
    0
370
   -1
100
AcDbPolyline
 90
   83
 70
    1
 43
0
 10
465.003165888
 20
-7.1054273576e-15
 10
464.003151151
 20
-4.80486488291
 10
461.438267791
 20
-9.007462375219999
 10
457.977194492
 20
-12.5221472515
 10
454.022141885
 20
-15.4768463931
 10
449.775229342
 20
-17.9978724638
 10
445.342350229
 20
-20.1767648512
 10
440.783133413
 20
-22.0776317947
 10
436.133376854
 20
-23.7460596534
 10
431.416820592
 20
-25.214928246
 10
426.648717691
 20
-26.5090110911
 10
421.840867097
 20
-27.6468528043
 10
417.001542523
 20
-28.6429401819
 10
412.137197696
 20
-29.5085916591
 10
407.252729455
 20
-30.2527794282
 10
402.35216712
 20
-30.8825963215
 10
397.438870285
 20
-31.4036425841
 10
392.515563062
 20
-31.8203075099
 10
387.584720901
 20
-32.1359310342
 10
382.648582264
 20
-32.3529547701
 10
377.709156193
 20
-32.473018339
 10
372.768251083
 20
-32.4970139772
 10
367.827970822
 20
-32.4251199113
 10
362.890106055
 20
-32.2568102249
 10
357.956479771
 20
-31.9908224135
 10
353.029190927
 20
-31.6251225581
 10
348.110621282
 20
-31.1568356287
 10
343.203446207
 20
-30.5821295693
 10
338.310650865
 20
-29.8960378436
 10
333.435619663
 20
-29.0922077581
 10
328.582975222
 20
-28.1626864353
 10
323.758346065
 20
-27.0974062706
 10
318.969023339
 20
-25.883583669
 10
314.224755332
 20
-24.5048248892
 10
309.538804881
 20
-22.9397188799
 10
304.930406043
 20
-21.1598857906
 10
300.428345103
 20
-19.1266965415
 10
296.078695794
 20
-16.7863766416
 10
291.960098126
 20
-14.0623775136
 10
288.217106539
 20
-10.845681194
 10
285.135583882
 20
-6.9988648467
 10
283.260492548
 20
-2.45534279625
 10
283.259666925
 20
2.45144862372
 10
285.133764124
 20
6.99591707952
 10
288.214702504
 20
10.84325592
 10
291.957336301
 20
14.0603220893
 10
296.075984662
 20
16.7847713585
 10
300.425592153
 20
19.1253456317
 10
304.927202656
 20
21.1585520339
 10
309.535385449
 20
22.9384932052
 10
314.220951116
 20
24.5036412221
 10
318.965026134
 20
25.8824998891
 10
323.754263945
 20
27.0964408338
 10
328.578840693
 20
28.1618358886
 10
333.431461569
 20
29.0914680362
 10
338.306469019
 20
29.8954007566
 10
343.199559884
 20
30.5816301442
 10
348.106927755
 20
31.1564440697
 10
353.025636292
 20
31.6248218426
 10
357.953087356
 20
31.9906053945
 10
362.886925071
 20
32.2566704137
 10
367.825026333
 20
32.4250484107
 10
372.765494905
 20
32.4970005686
 10
377.706440718
 20
32.47305785
 10
382.645805197
 20
32.3530494374
 10
387.581876466
 20
32.1360843637
 10
392.512694045
 20
31.8205203848
 10
397.436018487
 20
31.4039140813
 10
402.349322685
 20
30.8829294172
 10
407.249778596
 20
30.2531934792
 10
412.134237603
 20
29.5090797971
 10
416.998803034
 20
28.6434647133
 10
421.838303801
 20
27.6474185046
 10
426.646382174
 20
26.5096026423
 10
431.414679902
 20
25.2155498165
 10
436.131768028
 20
23.7465965454
 10
440.781903743
 20
22.0781061695
 10
445.341621396
 20
20.1770934965
 10
449.774762121
 20
17.9981233763
 10
454.021733071
 20
15.4771159656
 10
457.976840856
 20
12.5224497069
 10
461.43804608
 20
9.007736964979999
 10
464.003050217
 20
4.80510605202
  0
CIRCLE
  5
5E
100
AcDbEntity
  8
Body_Slices
  6
ByLayer
 62
    0
370
   -1
100
AcDbCircle
 10
288.001792272
 20
0
 40
0.85
  0
CIRCLE
  5
5F
100
AcDbEntity
  8
Body_Slices
  6
ByLayer
 62
    0
370
   -1
100
AcDbCircle
 10
460.001792272
 20
0
 40
0.85
  0
LWPOLYLINE
  5
60
100
AcDbEntity
  8
Body_Slices
  6
ByLayer
 62
    0
370
   -1
100
AcDbPolyline
 90
    4
 70
    1
 43
0
 10
456.076792272
 20
-2.22
 10
456.076792272
 20
2.22
 10
291.926792272
 20
2.22
 10
291.926792272
 20
-2.22
  0
ENDBLK
  5
53
330
51
100
AcDbEntity
  8
0
100
AcDbBlockEnd
  0
BLOCK
  5
55
330
54
100
AcDbEntity
  8
0
100
AcDbBlockBegin
  2
MYLAYER001
 70
    0
 10
0
 20
0
  3
MYLAYER001
  1

  0
LWPOLYLINE
  5
61
100
AcDbEntity
  8
Body_Slices
  6
ByLayer
 62
    0
370
   -1
100
AcDbPolyline
 90
   98
 70
    1
 43
0
 10
191.000896136
 20
-30.5
 10
196.000896136
 20
-30.5
 10
196.000896136
 20
-10.5
 10
193.000896136
 20
-10.5
 10
193.000896136
 20
-5
 10
270.500896136
 20
-5
 10
270.500896136
 20
5
 10
193.000896136
 20
5
 10
181.000896136
 20
5
 10
103.500896136
 20
5
 10
103.500896136
 20
-5
 10
181.000896136
 20
-5
 10
181.000896136
 20
-10.5
 10
178.000896136
 20
-10.5
 10
178.000896136
 20
-30.5
 10
183.000896136
 20
-30.5
 10
183.000896136
 20
-32.4685885502
 10
178.026138679
 20
-32.3415607366
 10
173.054846834
 20
-32.1160872216
 10
168.089043633
 20
-31.790434302
 10
163.131039733
 20
-31.3620382642
 10
158.18344275
 20
-30.8274068344
 10
153.249171504
 20
-30.181964124
 10
148.331477105
 20
-29.4198176963
 10
143.43450264
 20
-28.5335165003
 10
138.563625146
 20
-27.5136830339
 10
133.725561883
 20
-26.3483929013
 10
128.929186321
 20
-25.0223835843
 10
124.186649446
 20
-23.5158693972
 10
119.514970954
 20
-21.802649701
 10
114.939615672
 20
-19.8474045156
 10
110.500396546
 20
-17.6012023942
 10
106.263956234
 20
-14.9946560016
 10
102.350307835
 20
-11.9282196901
 10
98.9931599948
 20
-8.26746920387
 10
96.656324375
 20
-3.89768305127
 10
96.0431443147
 20
1.00617675933
 10
97.4364896778
 20
5.7527640298
 10
100.262358731
 20
9.83053641984
 10
103.884470922
 20
13.232942478
 10
107.948731648
 20
16.0989603252
 10
112.277965961
 20
18.5496171397
 10
116.778208409
 20
20.6708997136
 10
121.396102894
 20
22.5230636783
 10
126.09872161
 20
24.1488715934
 10
130.864474645
 20
25.5795011688
 10
135.678955298
 20
26.83837182
 10
140.531192364
 20
27.9431634936
 10
145.413336161
 20
28.9076799663
 10
150.319263966
 20
29.742728582
 10
155.244360834
 20
30.4568798474
 10
160.184626382
 20
31.0568713162
 10
165.136919956
 20
31.5480297983
 10
170.098539802
 20
31.9344812857
 10
175.067035744
 20
32.2193282105
 10
180.040198575
 20
32.4047862524
 10
185.016053377
 20
32.4922684571
 10
189.992714012
 20
32.482431028
 10
194.968034588
 20
32.375205098
 10
199.940264816
 20
32.1697859259
 10
204.907439047
 20
31.8645999393
 10
209.867305396
 20
31.4572578455
 10
214.817317236
 20
30.9444657261
 10
219.754620084
 20
30.3218828495
 10
224.676032085
 20
29.5839066561
 10
229.577698433
 20
28.7234141241
 10
234.454421164
 20
27.7314723534
 10
239.299844277
 20
26.5967203731
 10
244.105609422
 20
25.3046491191
 10
248.860273697
 20
23.8365312062
 10
253.548115108
 20
22.1676167163
 10
258.14565778
 20
20.2647516955
 10
262.616739901
 20
18.0822129852
 10
266.901712028
 20
15.5554158222
 10
270.894588046
 20
12.5918104076
 10
274.392276786
 20
9.06310881299
 10
276.988348702
 20
4.83797219815
 10
278.002269752
 20
-7.1054273576e-15
 10
277.007898048
 20
-4.79136358757
 10
274.455742553
 20
-8.984685906699999
 10
271.00963279
 20
-12.4935964205
 10
267.070084232
 20
-15.4445959126
 10
262.838767667
 20
-17.9632237044
 10
258.421457617
 20
-20.1406324017
 10
253.877776512
 20
-22.0407145705
 10
249.243495114
 20
-23.7089490234
 10
244.542370241
 20
-25.178137552
 10
239.789653937
 20
-26.4730108584
 10
234.997137736
 20
-27.612086812
 10
230.173097711
 20
-28.6098341818
 10
225.323985536
 20
-29.4775622384
 10
220.454708401
 20
-30.2242386413
 10
215.569269149
 20
-30.8569623696
 10
210.671044568
 20
-31.3813382239
 10
205.762746294
 20
-31.80176884
 10
200.846839578
 20
-32.1216113057
 10
195.925555004
 20
-32.3433289208
 10
191.000896136
 20
-32.4685885939
  0
CIRCLE
  5
62
100
AcDbEntity
  8
Body_Slices
  6
ByLayer
 62
    0
370
   -1
100
AcDbCircle
 10
273.000896136
 20
0
 40
0.85
  0
CIRCLE
  5
63
100
AcDbEntity
  8
Body_Slices
  6
ByLayer
 62
    0
370
   -1
100
AcDbCircle
 10
101.000896136
 20
0
 40
0.85
  0
ENDBLK
  5
56
330
54
100
AcDbEntity
  8
0
100
AcDbBlockEnd
  0
BLOCK
  5
58
330
57
100
AcDbEntity
  8
0
100
AcDbBlockBegin
  2
MYLAYER003
 70
    0
 10
0
 20
0
  3
MYLAYER003
  1

  0
LWPOLYLINE
  5
64
100
AcDbEntity
  8
Body_Slices
  6
ByLayer
 62
    0
370
   -1
100
AcDbPolyline
 90
   83
 70
    1
 43
0
 10
91.001373616
 20
69.9978609461
 10
90.0013588795
 20
65.1929960624
 10
87.4364755182
 20
60.9903985696
 10
83.9754022188
 20
57.475713693
 10
80.0203496112
 20
54.5210145513
 10
75.7734370667
 20
51.9999884804
 10
71.340557953
 20
49.8210960929
 10
66.7813411365
 20
47.9202291496
 10
62.1315845772
 20
46.2518012909
 10
57.4150283151
 20
44.7829326984
 10
52.6469254132
 20
43.4888498535
 10
47.8390748197
 20
42.3510081404
 10
42.9997502451
 20
41.3549207629
 10
38.1354054179
 20
40.4892692859
 10
33.250937177
 20
39.745081517
 10
28.3503748415
 20
39.1152646237
 10
23.4370780067
 20
38.5942183613
 10
18.5137707829
 20
38.1775534356
 10
13.582928622
 20
37.8619299115
 10
8.64678998476
 20
37.6449061757
 10
3.70736391397
 20
37.524842607
 10
-1.23354119673
 20
37.5008469689
 10
-6.17382145785
 20
37.572741035
 10
-11.1116862245
 20
37.7410507215
 10
-16.0453125081
 20
38.007038533
 10
-20.9726013526
 20
38.3727383886
 10
-25.8911709972
 20
38.8410253182
 10
-30.7983460718
 20
39.4157313778
 10
-35.6911414141
 20
40.1018231037
 10
-40.5661726159
 20
40.9056531893
 10
-45.4188170569
 20
41.8351745123
 10
-50.2434462138
 20
42.9004546772
 10
-55.0327689391
 20
44.1142772789
 10
-59.7770369459
 20
45.4930360589
 10
-64.46298739629999
 20
47.0581420684
 10
-69.0713862346
 20
48.8379751579
 10
-73.57344717460001
 20
50.8711644073
 10
-77.9230964826
 20
53.2114843076
 10
-82.0416941499
 20
55.9354834361
 10
-85.7846857367
 20
59.1521797562
 10
-88.8662083924
 20
62.9989961042
 10
-90.7412997242
 20
67.5425181552
 10
-90.7421253456
 20
72.4493095751
 10
-88.8680281443
 20
76.9937780301
 10
-85.78708976359999
 20
80.8411168697
 10
-82.0444559662
 20
84.0581830383
 10
-77.9258076056
 20
86.782632307
 10
-73.5762001146
 20
89.1232065798
 10
-69.07458961090001
 20
91.1564129817
 10
-64.46640681869999
 20
92.93635415270001
 10
-59.7808411515
 20
94.5015021694
 10
-55.0367661335
 20
95.8803608362
 10
-50.2475283227
 20
97.09430178069999
 10
-45.4229515751
 20
98.1596968354
 10
-40.5703306987
 20
99.0893289829
 10
-35.6953232495
 20
99.8932617032
 10
-30.802232384
 20
100.579491091
 10
-25.8948645135
 20
101.154305016
 10
-20.9761559765
 20
101.622682789
 10
-16.048704913
 20
101.988466341
 10
-11.1148671979
 20
102.25453136
 10
-6.17676593577
 20
102.422909357
 10
-1.23629736416
 20
102.494861515
 10
3.70464844909
 20
102.470918796
 10
8.64401292829
 20
102.350910383
 10
13.5800841965
 20
102.13394531
 10
18.5109017751
 20
101.818381331
 10
23.4342262177
 20
101.401775027
 10
28.3475304158
 20
100.880790363
 10
33.2479863262
 20
100.251054425
 10
38.1324453333
 20
99.5069407429
 10
42.9970107642
 20
98.6413256591
 10
47.8365115308
 20
97.6452794504
 10
52.6445899037
 20
96.50746358799999
 10
57.4128876311
 20
95.2134107623
 10
62.1299757568
 20
93.74445749109999
 10
66.7801114719
 20
92.0759671153
 10
71.33982912490001
 20
90.17495444230001
 10
75.7729698503
 20
87.9959843221
 10
80.0199407993
 20
85.47497691140001
 10
83.97504858480001
 20
82.52031065280001
 10
87.43625380890001
 20
79.00559791089999
 10
90.0012579453
 20
74.802966998
  0
CIRCLE
  5
65
100
AcDbEntity
  8
Body_Slices
  6
ByLayer
 62
    0
370
   -1
100
AcDbCircle
 10
-86
 20
69.9978609461
 40
0.85
  0
CIRCLE
  5
66
100
AcDbEntity
  8
Body_Slices
  6
ByLayer
 62
    0
370
   -1
100
AcDbCircle
 10
86
 20
69.9978609461
 40
0.85
  0
LWPOLYLINE
  5
67
100
AcDbEntity
  8
Body_Slices
  6
ByLayer
 62
    0
370
   -1
100
AcDbPolyline
 90
    4
 70
    1
 43
0
 10
-76.075
 20
67.7478609461
 10
-76.075
 20
72.2478609461
 10
76.075
 20
72.2478609461
 10
76.075
 20
67.7478609461
  0
ENDBLK
  5
59
330
57
100
AcDbEntity
  8
0
100
AcDbBlockEnd
  0
ENDSEC
  0
SECTION
  2
ENTITIES
  0
INSERT
  5
68
100
AcDbEntity
  8
Body_Slices
  6
ByLayer
 62
    0
370
   -1
100
AcDbBlockReference
  2
MYLAYER
 10
0
 20
0
 30
0
 41
1
 42
1
 43
0
 50
0
 70
    1
 71
    1
 44
0
 45
0
  0
INSERT
  5
69
100
AcDbEntity
  8
Body_Slices
  6
ByLayer
 62
    0
370
   -1
100
AcDbBlockReference
  2
MYLAYER002
 10
0
 20
0
 30
0
 41
1
 42
1
 43
0
 50
0
 70
    1
 71
    1
 44
0
 45
0
  0
INSERT
  5
6A
100
AcDbEntity
  8
Body_Slices
  6
ByLayer
 62
    0
370
   -1
100
AcDbBlockReference
  2
MYLAYER001
 10
0
 20
0
 30
0
 41
1
 42
1
 43
0
 50
0
 70
    1
 71
    1
 44
0
 45
0
  0
INSERT
  5
6B
100
AcDbEntity
  8
Body_Slices
  6
ByLayer
 62
    0
370
   -1
100
AcDbBlockReference
  2
MYLAYER003
 10
0
 20
0
 30
0
 41
1
 42
1
 43
0
 50
0
 70
    1
 71
    1
 44
0
 45
0
  0
ENDSEC
  0
SECTION
  2
OBJECTS
  0
DICTIONARY
  5
C
330
0
100
AcDbDictionary
281
    1
  3
ACAD_GROUP
350
D
  0
DICTIONARY
  5
D
330
C
100
AcDbDictionary
281
    1
  0
ENDSEC
  0
EOF
