<?xml version="1.0" encoding="UTF-8" standalone="no"?>
<svg
   xmlns:dc="http://purl.org/dc/elements/1.1/"
   xmlns:cc="http://creativecommons.org/ns#"
   xmlns:rdf="http://www.w3.org/1999/02/22-rdf-syntax-ns#"
   xmlns:svg="http://www.w3.org/2000/svg"
   xmlns="http://www.w3.org/2000/svg"
   xmlns:sodipodi="http://sodipodi.sourceforge.net/DTD/sodipodi-0.dtd"
   xmlns:inkscape="http://www.inkscape.org/namespaces/inkscape"
   width="617.059627363mm"
   height="217.09920838mm"
   viewBox="0 0 617.059627363 217.09920838"
   version="1.1"
   id="svg53"
   sodipodi:docname="Acry-Base-12-Mid-Res-WiFi-FreeCAD-ReCreate-From-Top-GoodBack.svg"
   inkscape:version="0.92.3 (2405546, 2018-03-11)">
  <metadata
     id="metadata59">
    <rdf:RDF>
      <cc:Work
         rdf:about="">
        <dc:format>image/svg+xml</dc:format>
        <dc:type
           rdf:resource="http://purl.org/dc/dcmitype/StillImage" />
        <dc:title></dc:title>
      </cc:Work>
    </rdf:RDF>
  </metadata>
  <defs
     id="defs57" />
  <sodipodi:namedview
     pagecolor="#ffffff"
     bordercolor="#666666"
     borderopacity="1"
     objecttolerance="10"
     gridtolerance="10"
     guidetolerance="10"
     inkscape:pageopacity="0"
     inkscape:pageshadow="2"
     inkscape:window-width="1680"
     inkscape:window-height="999"
     id="namedview55"
     showgrid="false"
     inkscape:zoom="0.39415197"
     inkscape:cx="1084.0302"
     inkscape:cy="339.91075"
     inkscape:window-x="0"
     inkscape:window-y="25"
     inkscape:window-maximized="1"
     inkscape:current-layer="svg53" />
  <g
     id="MyLayer"
     transform="translate(156.036648,161.049604) scale(1,-1)">
    <path
       id="MyLayer_w0000"
       d="M 100.0 50.0 A 50 50 0 0 0 100 -50L -100.0 -50.0 A 50 50 0 1 0 -100 50L 100.0 50.0 "
       stroke="#191919"
       stroke-width="0.35 px"
       style="stroke-width:0.35;stroke-miterlimit:4;stroke-dasharray:none;fill:none;fill-rule: evenodd " />
    <circle
       cx="100.0"
       cy="35.0"
       r="0.8"
       stroke="#191919"
       stroke-width="0.35 px"
       style="stroke-width:0.35;stroke-miterlimit:4;stroke-dasharray:none;fill:none"
       id="circle3" />
    <circle
       cx="100.0"
       cy="-35.0"
       r="0.8"
       stroke="#191919"
       stroke-width="0.35 px"
       style="stroke-width:0.35;stroke-miterlimit:4;stroke-dasharray:none;fill:none"
       id="circle5" />
    <circle
       cx="-100.0"
       cy="-35.0"
       r="0.8"
       stroke="#191919"
       stroke-width="0.35 px"
       style="stroke-width:0.35;stroke-miterlimit:4;stroke-dasharray:none;fill:none"
       id="circle7" />
    <circle
       cx="-100.0"
       cy="35.0"
       r="0.8"
       stroke="#191919"
       stroke-width="0.35 px"
       style="stroke-width:0.35;stroke-miterlimit:4;stroke-dasharray:none;fill:none"
       id="circle9" />
    <title
       id="title11">MyLayer</title>
  </g>
  <g
     id="MyLayer001"
     transform="translate(156.036648,161.049604) scale(1,-1)">
    <path
       id="MyLayer001_w0000"
       d="M 404.986330499 50.0 A 50 50 0 0 0 404.986 -50L 204.986330499 -50.0 A 50 50 0 1 0 204.986 50L 404.986330499 50.0 "
       stroke="#191919"
       stroke-width="0.35 px"
       style="stroke-width:0.35;stroke-miterlimit:4;stroke-dasharray:none;fill:none;fill-rule: evenodd " />
    <circle
       cx="204.986330499"
       cy="-35.0"
       r="0.8"
       stroke="#191919"
       stroke-width="0.35 px"
       style="stroke-width:0.35;stroke-miterlimit:4;stroke-dasharray:none;fill:none"
       id="circle15" />
    <path
       id="MyLayer001_w0002"
       d="M 311.986330499 -5.0 L 404.986330499 -5.0 A 5 5 0 0 1 404.986 5L 204.986330499 5.0 A 5 5 0 0 1 204.986 -5L 297.986330499 -5.0 L 297.986330499 -7.8 L 297.986330499 -12.8 L 295.986330499 -12.8 L 295.986330499 -37.8 L 313.986330499 -37.8 L 313.986330499 -12.8 L 311.986330499 -12.8 L 311.986330499 -7.8 L 311.986330499 -5.0 "
       stroke="#191919"
       stroke-width="0.35 px"
       style="stroke-width:0.35;stroke-miterlimit:4;stroke-dasharray:none;fill:none;fill-rule: evenodd " />
    <circle
       cx="404.986330499"
       cy="-35.0"
       r="0.8"
       stroke="#191919"
       stroke-width="0.35 px"
       style="stroke-width:0.35;stroke-miterlimit:4;stroke-dasharray:none;fill:none"
       id="circle18" />
    <circle
       cx="204.986330499"
       cy="35.0"
       r="0.8"
       stroke="#191919"
       stroke-width="0.35 px"
       style="stroke-width:0.35;stroke-miterlimit:4;stroke-dasharray:none;fill:none"
       id="circle20" />
    <circle
       cx="404.986330499"
       cy="35.0"
       r="0.8"
       stroke="#191919"
       stroke-width="0.35 px"
       style="stroke-width:0.35;stroke-miterlimit:4;stroke-dasharray:none;fill:none"
       id="circle22" />
    <title
       id="title24">MyLayer001</title>
  </g>
  <g
     id="MyLayer003"
     transform="translate(156.036648,161.049604) scale(1,-1)">
    <path
       id="MyLayer003_w0000"
       d="M 404.986330499 155.0 A 50 50 0 0 0 404.986 55L 204.986330499 55.0 A 50 50 0 0 0 204.986 155L 404.986330499 155.0 "
       stroke="#191919"
       stroke-width="0.35 px"
       style="stroke-width:0.35;stroke-miterlimit:4;stroke-dasharray:none;fill:none;fill-rule: evenodd " />
    <path
       id="MyLayer003_w0001"
       d="M 204.986330499 107.2 L 404.986330499 107.2 L 404.986330499 102.8 L 204.986330499 102.8 L 204.986330499 107.2 "
       stroke="#191919"
       stroke-width="0.35 px"
       style="stroke-width:0.35;stroke-miterlimit:4;stroke-dasharray:none;fill:none;fill-rule: evenodd " />
    <circle
       cx="404.986330499"
       cy="140.0"
       r="0.8"
       stroke="#191919"
       stroke-width="0.35 px"
       style="stroke-width:0.35;stroke-miterlimit:4;stroke-dasharray:none;fill:none"
       id="circle29" />
    <circle
       cx="404.986330499"
       cy="70.0"
       r="0.8"
       stroke="#191919"
       stroke-width="0.35 px"
       style="stroke-width:0.35;stroke-miterlimit:4;stroke-dasharray:none;fill:none"
       id="circle31" />
    <circle
       cx="204.986330499"
       cy="70.0"
       r="0.8"
       stroke="#191919"
       stroke-width="0.35 px"
       style="stroke-width:0.35;stroke-miterlimit:4;stroke-dasharray:none;fill:none"
       id="circle33" />
    <circle
       cx="204.986330499"
       cy="140.0"
       r="0.8"
       stroke="#191919"
       stroke-width="0.35 px"
       style="stroke-width:0.35;stroke-miterlimit:4;stroke-dasharray:none;fill:none"
       id="circle35" />
    <title
       id="title37">MyLayer003</title>
  </g>
  <g
     id="MyLayer002"
     transform="translate(156.036648,161.049604) scale(1,-1)">
    <path
       id="MyLayer002_w0000"
       d="M 100.0 155.0 A 50 50 0 0 0 100 55L 4.0 55.0 L 4.0 58.0 L 13.15 58.0 L 13.15 92.2 L 7.0 92.2 L 7.0 97.2 L -7.0 97.2 L -7.0 92.2 L -13.15 92.2 L -13.15 58.0 L -4.0 58.0 L -4.0 55.0 L -100.0 55.0 A 50 50 0 0 0 -100 155L 100.0 155.0 "
       stroke="#191919"
       stroke-width="0.35 px"
       style="stroke-width:0.35;stroke-miterlimit:4;stroke-dasharray:none;fill:none;fill-rule: evenodd " />
    <circle
       cx="100.0"
       cy="70.0"
       r="0.8"
       stroke="#191919"
       stroke-width="0.35 px"
       style="stroke-width:0.35;stroke-miterlimit:4;stroke-dasharray:none;fill:none"
       id="circle41" />
    <circle
       cx="100.0"
       cy="140.0"
       r="0.8"
       stroke="#191919"
       stroke-width="0.35 px"
       style="stroke-width:0.35;stroke-miterlimit:4;stroke-dasharray:none;fill:none"
       id="circle43" />
    <circle
       cx="-100.0"
       cy="70.0"
       r="0.8"
       stroke="#191919"
       stroke-width="0.35 px"
       style="stroke-width:0.35;stroke-miterlimit:4;stroke-dasharray:none;fill:none"
       id="circle45" />
    <path
       id="MyLayer002_w0004"
       d="M -104.542235133 107.09 L 104.542235133 107.09 L 104.542235133 102.91 L -104.542235133 102.91 L -104.542235133 107.09 "
       stroke="#191919"
       stroke-width="0.35 px"
       style="stroke-width:0.35;stroke-miterlimit:4;stroke-dasharray:none;fill:none;fill-rule: evenodd " />
    <circle
       cx="-100.0"
       cy="140.0"
       r="0.8"
       stroke="#191919"
       stroke-width="0.35 px"
       style="stroke-width:0.35;stroke-miterlimit:4;stroke-dasharray:none;fill:none"
       id="circle48" />
    <title
       id="title50">MyLayer002</title>
  </g>
</svg>
