<?xml version="1.0"?>
<!DOCTYPE svg PUBLIC "-//W3C//DTD SVG 1.1//EN" "http://www.w3.org/Graphics/SVG/1.1/DTD/svg11.dtd">
<svg width="617.059627363mm" height="217.09920838mm" viewBox="0 0 617.059627363 217.09920838" xmlns="http://www.w3.org/2000/svg" version="1.1">
<g id="MyLayer" transform="translate(156.036648,161.049604) scale(1,-1)">
<path id="MyLayer_w0000"  d="M 100.0 50.0 A 50 50 0 0 0 100 -50L -100.0 -50.0 A 50 50 0 1 0 -100 50L 100.0 50.0 " stroke="#191919" stroke-width="0.35 px" style="stroke-width:0.35;stroke-miterlimit:4;stroke-dasharray:none;fill:none;fill-rule: evenodd "/>
<path d="M -94.2 -35.0 L -94.2 -35.0 " stroke="#191919" stroke-width="0.35 px" style="stroke-width:0.35;stroke-miterlimit:4;stroke-dasharray:none;fill:none"/>
<path d="M -94.2 35.0 L -94.2 35.0 " stroke="#191919" stroke-width="0.35 px" style="stroke-width:0.35;stroke-miterlimit:4;stroke-dasharray:none;fill:none"/>
<path d="M 94.2 35.0 L 94.2 35.0 " stroke="#191919" stroke-width="0.35 px" style="stroke-width:0.35;stroke-miterlimit:4;stroke-dasharray:none;fill:none"/>
<path d="M 94.2 -35.0 L 94.2 -35.0 " stroke="#191919" stroke-width="0.35 px" style="stroke-width:0.35;stroke-miterlimit:4;stroke-dasharray:none;fill:none"/>
<title>MyLayer</title>
</g>
<g id="MyLayer003" transform="translate(156.036648,161.049604) scale(1,-1)">
<path id="MyLayer003_w0000"  d="M 404.986330499 155.0 A 50 50 0 0 0 404.986 55L 204.986330499 55.0 A 50 50 0 0 0 204.986 155L 404.986330499 155.0 " stroke="#191919" stroke-width="0.35 px" style="stroke-width:0.35;stroke-miterlimit:4;stroke-dasharray:none;fill:none;fill-rule: evenodd "/>
<path id="MyLayer003_w0001"  d="M 204.986330499 107.2 L 404.986330499 107.2 L 404.986330499 102.8 L 204.986330499 102.8 L 204.986330499 107.2 " stroke="#191919" stroke-width="0.35 px" style="stroke-width:0.35;stroke-miterlimit:4;stroke-dasharray:none;fill:none;fill-rule: evenodd "/>
<path d="M 210.786330499 70.0 L 210.786330499 70.0 " stroke="#191919" stroke-width="0.35 px" style="stroke-width:0.35;stroke-miterlimit:4;stroke-dasharray:none;fill:none"/>
<path d="M 210.786330499 140.0 L 210.786330499 140.0 " stroke="#191919" stroke-width="0.35 px" style="stroke-width:0.35;stroke-miterlimit:4;stroke-dasharray:none;fill:none"/>
<path d="M 399.186330499 140.0 L 399.186330499 140.0 " stroke="#191919" stroke-width="0.35 px" style="stroke-width:0.35;stroke-miterlimit:4;stroke-dasharray:none;fill:none"/>
<path d="M 399.186330499 70.0 L 399.186330499 70.0 " stroke="#191919" stroke-width="0.35 px" style="stroke-width:0.35;stroke-miterlimit:4;stroke-dasharray:none;fill:none"/>
<title>MyLayer003</title>
</g>
<g id="MyLayer001" transform="translate(156.036648,161.049604) scale(1,-1)">
<path id="MyLayer001_w0000"  d="M 404.986330499 50.0 A 50 50 0 0 0 404.986 -50L 204.986330499 -50.0 A 50 50 0 1 0 204.986 50L 404.986330499 50.0 " stroke="#191919" stroke-width="0.35 px" style="stroke-width:0.35;stroke-miterlimit:4;stroke-dasharray:none;fill:none;fill-rule: evenodd "/>
<path d="M 210.786330499 -35.0 L 210.786330499 -35.0 " stroke="#191919" stroke-width="0.35 px" style="stroke-width:0.35;stroke-miterlimit:4;stroke-dasharray:none;fill:none"/>
<path d="M 210.786330499 35.0 L 210.786330499 35.0 " stroke="#191919" stroke-width="0.35 px" style="stroke-width:0.35;stroke-miterlimit:4;stroke-dasharray:none;fill:none"/>
<path id="MyLayer001_w0003"  d="M 311.986330499 -7.8 L 311.986330499 -5.0 L 404.986330499 -5.0 A 5 5 0 0 1 404.986 5L 204.986330499 5.0 A 5 5 0 0 1 204.986 -5L 297.986330499 -5.0 L 297.986330499 -7.8 L 297.986330499 -12.8 L 295.986330499 -12.8 L 295.986330499 -37.8 L 313.986330499 -37.8 L 313.986330499 -12.8 L 311.986330499 -12.8 L 311.986330499 -7.8 " stroke="#191919" stroke-width="0.35 px" style="stroke-width:0.35;stroke-miterlimit:4;stroke-dasharray:none;fill:none;fill-rule: evenodd "/>
<path d="M 399.186330499 -35.0 L 399.186330499 -35.0 " stroke="#191919" stroke-width="0.35 px" style="stroke-width:0.35;stroke-miterlimit:4;stroke-dasharray:none;fill:none"/>
<path d="M 399.186330499 35.0 L 399.186330499 35.0 " stroke="#191919" stroke-width="0.35 px" style="stroke-width:0.35;stroke-miterlimit:4;stroke-dasharray:none;fill:none"/>
<title>MyLayer001</title>
</g>
<g id="MyLayer002" transform="translate(156.036648,161.049604) scale(1,-1)">
<path id="MyLayer002_w0000"  d="M 100.0 155.0 A 50 50 0 0 0 100 55L 4.0 55.0 L 4.0 58.0 L 13.15 58.0 L 13.15 92.2 L 7.0 92.2 L 7.0 97.2 L -7.0 97.2 L -7.0 92.2 L -13.15 92.2 L -13.15 58.0 L -4.0 58.0 L -4.0 55.0 L -100.0 55.0 A 50 50 0 0 0 -100 155L 100.0 155.0 " stroke="#191919" stroke-width="0.35 px" style="stroke-width:0.35;stroke-miterlimit:4;stroke-dasharray:none;fill:none;fill-rule: evenodd "/>
<path d="M -94.2 140.0 L -94.2 140.0 " stroke="#191919" stroke-width="0.35 px" style="stroke-width:0.35;stroke-miterlimit:4;stroke-dasharray:none;fill:none"/>
<path d="M -94.2 70.0 L -94.2 70.0 " stroke="#191919" stroke-width="0.35 px" style="stroke-width:0.35;stroke-miterlimit:4;stroke-dasharray:none;fill:none"/>
<path d="M 94.2 140.0 L 94.2 140.0 " stroke="#191919" stroke-width="0.35 px" style="stroke-width:0.35;stroke-miterlimit:4;stroke-dasharray:none;fill:none"/>
<path id="MyLayer002_w0004"  d="M -104.542235133 107.09 L 104.542235133 107.09 L 104.542235133 102.91 L -104.542235133 102.91 L -104.542235133 107.09 " stroke="#191919" stroke-width="0.35 px" style="stroke-width:0.35;stroke-miterlimit:4;stroke-dasharray:none;fill:none;fill-rule: evenodd "/>
<path d="M 94.2 70.0 L 94.2 70.0 " stroke="#191919" stroke-width="0.35 px" style="stroke-width:0.35;stroke-miterlimit:4;stroke-dasharray:none;fill:none"/>
<title>MyLayer002</title>
</g>
</svg>