  0
SECTION
  2
HEADER
  9
$ACADVER
  1
AC1009
  9
$INSBASE
 10
0.0
 20
0.0
 30
0.0
  9
$EXTMIN
 10
0.0
 20
0.0
 30
0.0
  9
$EXTMAX
 10
0.0
 20
0.0
 30
0.0
  0
ENDSEC
  0
SECTION
  2
TABLES
  0
TABLE
  2
VPORT
 70
0
  0
ENDTAB
  0
TABLE
  2
LTYPE
 70
1
  0
LTYPE
  2
CONTINUOUS
 70
0
  3
Solid line
 72
65
 73
0
 40
0.0
  0
ENDTAB
  0
TABLE
  2
LAYER
 70
1
  0
LAYER
  2
0
 70
64
 62
7
  6
continuous
  0
ENDTAB
  0
TABLE
  2
STYLE
 70
1
  0
STYLE
  2
STANDARD
 70
0
 40
0
 41
1.0
 50
0.0
 71
0
 42
1
 3
ARIAL.TTF
 4

  0
ENDTAB
  0
TABLE
  2
VIEW
 70
0
  0
ENDTAB
  0
ENDSEC
  0
SECTION
  2
BLOCKS
  0
BLOCK
  8
Body_Slices
  2
MYLAYER
 70
0
 10
0.0
 20
0.0
 30
0.0
  3
MYLAYER
  0
POLYLINE
  8
Body_Slices
 62
0
 70
1
 66
1
 10
0.0
 20
0.0
 30
0.0
  0
VERTEX
  8
Body_Slices
 10
75.0
 20
7.5
 30
0.0
  0
VERTEX
  8
Body_Slices
 10
75.0
 20
-7.5
 30
4.4408920985e-16
 42
-0.414213562373
  0
VERTEX
  8
Body_Slices
 10
70.0
 20
-12.5
 30
0.0
  0
VERTEX
  8
Body_Slices
 10
-70.0
 20
-12.5
 30
4.4408920985e-16
 42
-0.414213562373
  0
VERTEX
  8
Body_Slices
 10
-75.0
 20
-7.5
 30
0.0
  0
VERTEX
  8
Body_Slices
 10
-75.0
 20
7.5
 30
4.4408920985e-16
 42
-0.414213562373
  0
VERTEX
  8
Body_Slices
 10
-70.0
 20
12.5
 30
0.0
  0
VERTEX
  8
Body_Slices
 10
70.0
 20
12.5
 30
4.4408920985e-16
 42
-0.414213562373
  0
SEQEND
  8
Body_Slices
  0
CIRCLE
  8
Body_Slices
 62
0
 10
70.0
 20
-7.5
 30
8.881784197e-16
 40
0.85
  0
CIRCLE
  8
Body_Slices
 62
0
 10
70.0
 20
7.49999999998
 30
8.881784197e-16
 40
0.85
  0
CIRCLE
  8
Body_Slices
 62
0
 10
-70.0
 20
7.5
 30
8.881784197e-16
 40
0.85
  0
CIRCLE
  8
Body_Slices
 62
0
 10
-70.0
 20
-7.5
 30
8.881784197e-16
 40
0.85
  0
ENDBLK
  0
BLOCK
  8
Body_Slices
  2
MYLAYER001
 70
0
 10
0.0
 20
0.0
 30
0.0
  3
MYLAYER001
  0
POLYLINE
  8
Body_Slices
 62
0
 70
1
 66
1
 10
0.0
 20
0.0
 30
0.0
  0
VERTEX
  8
Body_Slices
 10
230.0
 20
7.5
 30
1.88e-13
  0
VERTEX
  8
Body_Slices
 10
230.0
 20
4.0
 30
1.88e-13
  0
VERTEX
  8
Body_Slices
 10
205.0
 20
4.0
 30
1.88e-13
  0
VERTEX
  8
Body_Slices
 10
205.0
 20
5.0
 30
1.88e-13
  0
VERTEX
  8
Body_Slices
 10
105.0
 20
5.0
 30
1.88e-13
  0
VERTEX
  8
Body_Slices
 10
105.0
 20
4.0
 30
1.88e-13
  0
VERTEX
  8
Body_Slices
 10
102.75
 20
4.0
 30
1.88e-13
  0
VERTEX
  8
Body_Slices
 10
102.75
 20
9.2
 30
1.88e-13
  0
VERTEX
  8
Body_Slices
 10
82.75
 20
9.2
 30
1.88e-13
  0
VERTEX
  8
Body_Slices
 10
82.75
 20
4.5
 30
1.88e-13
  0
VERTEX
  8
Body_Slices
 10
80.0
 20
4.5
 30
1.88e-13
  0
VERTEX
  8
Body_Slices
 10
80.0
 20
7.5
 30
1.88293824976e-13
 42
-0.414213562373
  0
VERTEX
  8
Body_Slices
 10
85.0
 20
12.5
 30
1.88e-13
  0
VERTEX
  8
Body_Slices
 10
225.0
 20
12.5
 30
1.88293824976e-13
 42
-0.414213562373
  0
SEQEND
  8
Body_Slices
  0
CIRCLE
  8
Body_Slices
 62
0
 10
225.0
 20
7.49999999999
 30
1.88293824976e-13
 40
0.85
  0
POLYLINE
  8
Body_Slices
 62
0
 70
1
 66
1
 10
0.0
 20
0.0
 30
0.0
  0
VERTEX
  8
Body_Slices
 10
82.75
 20
-9.2
 30
1.88e-13
  0
VERTEX
  8
Body_Slices
 10
102.75
 20
-9.2
 30
1.88e-13
  0
VERTEX
  8
Body_Slices
 10
102.75
 20
-4.0
 30
1.88293824976e-13
  0
VERTEX
  8
Body_Slices
 10
105.0
 20
-4.0
 30
1.88e-13
  0
VERTEX
  8
Body_Slices
 10
105.0
 20
-5.0
 30
1.88e-13
  0
VERTEX
  8
Body_Slices
 10
205.0
 20
-5.0
 30
1.88e-13
  0
VERTEX
  8
Body_Slices
 10
205.0
 20
-4.0
 30
1.88e-13
  0
VERTEX
  8
Body_Slices
 10
230.0
 20
-4.0
 30
1.88293824976e-13
  0
VERTEX
  8
Body_Slices
 10
230.0
 20
-7.5
 30
1.88293824976e-13
 42
-0.414213562373
  0
VERTEX
  8
Body_Slices
 10
225.0
 20
-12.5
 30
1.88293824976e-13
  0
VERTEX
  8
Body_Slices
 10
85.0
 20
-12.5
 30
1.88293824976e-13
 42
-0.414213562373
  0
VERTEX
  8
Body_Slices
 10
80.0
 20
-7.5
 30
1.88293824976e-13
  0
VERTEX
  8
Body_Slices
 10
80.0
 20
-4.5
 30
1.88e-13
  0
VERTEX
  8
Body_Slices
 10
82.75
 20
-4.5
 30
1.88e-13
  0
SEQEND
  8
Body_Slices
  0
CIRCLE
  8
Body_Slices
 62
0
 10
225.0
 20
-7.5
 30
1.88293824976e-13
 40
0.85
  0
ENDBLK
  0
BLOCK
  8
Body_Slices
  2
MYLAYER002
 70
0
 10
0.0
 20
0.0
 30
0.0
  3
MYLAYER002
  0
POLYLINE
  8
Body_Slices
 62
0
 70
1
 66
1
 10
0.0
 20
0.0
 30
0.0
  0
VERTEX
  8
Body_Slices
 10
385.0
 20
7.5
 30
0.0
  0
VERTEX
  8
Body_Slices
 10
385.0
 20
-7.5
 30
0.0
 42
-0.414213562373
  0
VERTEX
  8
Body_Slices
 10
380.0
 20
-12.5
 30
0.0
  0
VERTEX
  8
Body_Slices
 10
240.0
 20
-12.5
 30
0.0
 42
-0.414213562373
  0
VERTEX
  8
Body_Slices
 10
235.0
 20
-7.5
 30
0.0
  0
VERTEX
  8
Body_Slices
 10
235.0
 20
7.5
 30
0.0
 42
-0.414213562373
  0
VERTEX
  8
Body_Slices
 10
240.0
 20
12.5
 30
0.0
  0
VERTEX
  8
Body_Slices
 10
380.0
 20
12.5
 30
0.0
 42
-0.414213562373
  0
SEQEND
  8
Body_Slices
  0
CIRCLE
  8
Body_Slices
 62
0
 10
240.0
 20
7.5
 30
0.0
 40
0.85
  0
CIRCLE
  8
Body_Slices
 62
0
 10
380.0
 20
7.49999999999
 30
0.0
 40
0.85
  0
POLYLINE
  8
Body_Slices
 62
0
 70
1
 66
1
 10
0.0
 20
0.0
 30
0.0
  0
VERTEX
  8
Body_Slices
 10
358.0
 20
-1.375
 30
0.0
  0
VERTEX
  8
Body_Slices
 10
262.0
 20
-1.375
 30
0.0
  0
VERTEX
  8
Body_Slices
 10
262.0
 20
1.375
 30
0.0
  0
VERTEX
  8
Body_Slices
 10
358.0
 20
1.375
 30
0.0
  0
SEQEND
  8
Body_Slices
  0
CIRCLE
  8
Body_Slices
 62
0
 10
240.0
 20
-7.5
 30
0.0
 40
0.85
  0
CIRCLE
  8
Body_Slices
 62
0
 10
380.0
 20
-7.5
 30
0.0
 40
0.85
  0
ENDBLK
  0
ENDSEC
  0
SECTION
  2
ENTITIES
  0
INSERT
  2
MYLAYER
  8
Body_Slices
 62
0
 10
0.0
 20
0.0
 30
0.0
  0
INSERT
  2
MYLAYER001
  8
Body_Slices
 62
0
 10
0.0
 20
0.0
 30
0.0
  0
INSERT
  2
MYLAYER002
  8
Body_Slices
 62
0
 10
0.0
 20
0.0
 30
0.0
  0
ENDSEC
  0
EOF
