<?xml version="1.0" encoding="UTF-8" standalone="no"?>
<svg
   xmlns:dc="http://purl.org/dc/elements/1.1/"
   xmlns:cc="http://creativecommons.org/ns#"
   xmlns:rdf="http://www.w3.org/1999/02/22-rdf-syntax-ns#"
   xmlns:svg="http://www.w3.org/2000/svg"
   xmlns="http://www.w3.org/2000/svg"
   xmlns:sodipodi="http://sodipodi.sourceforge.net/DTD/sodipodi-0.dtd"
   xmlns:inkscape="http://www.inkscape.org/namespaces/inkscape"
   width="545.688085388mm"
   height="165.69976638mm"
   viewBox="0 0 545.688085388 165.69976638"
   version="1.1"
   id="svg85"
   sodipodi:docname="Acry-Base-Tiny-25-Inks.svg"
   inkscape:version="0.92.3 (2405546, 2018-03-11)">
  <metadata
     id="metadata91">
    <rdf:RDF>
      <cc:Work
         rdf:about="">
        <dc:format>image/svg+xml</dc:format>
        <dc:type
           rdf:resource="http://purl.org/dc/dcmitype/StillImage" />
        <dc:title></dc:title>
      </cc:Work>
    </rdf:RDF>
  </metadata>
  <defs
     id="defs89" />
  <sodipodi:namedview
     pagecolor="#ffffff"
     bordercolor="#666666"
     borderopacity="1"
     objecttolerance="10"
     gridtolerance="10"
     guidetolerance="10"
     inkscape:pageopacity="0"
     inkscape:pageshadow="2"
     inkscape:window-width="1680"
     inkscape:window-height="999"
     id="namedview87"
     showgrid="false"
     inkscape:zoom="3.5656305"
     inkscape:cx="506.68979"
     inkscape:cy="-168.59853"
     inkscape:window-x="0"
     inkscape:window-y="25"
     inkscape:window-maximized="1"
     inkscape:current-layer="svg85" />
  <g
     id="MyLayer"
     transform="translate(137.849883,122.849883) scale(1,-1)"
     style="stroke-width:0.1;stroke-miterlimit:4;stroke-dasharray:none;stroke:#000012;stroke-opacity:1">
    <path
       id="MyLayer_w0000"
       d="M 95.0 37.5 A 37.5 37.5 0 1 0 95 -37.5L -95.0 -37.5 A 37.5 37.5 0 1 0 -95 37.5L 95.0 37.5 "
       stroke="#191919"
       stroke-width="0.35 px"
       style="stroke-width:0.1;stroke-miterlimit:4;stroke-dasharray:none;fill:none;fill-rule:evenodd;stroke:#000012;stroke-opacity:1" />
    <circle
       cx="-76.0"
       cy="-8.0"
       r="0.8"
       stroke="#191919"
       stroke-width="0.35 px"
       style="stroke-width:0.1;stroke-miterlimit:4;stroke-dasharray:none;fill:none;stroke:#000012;stroke-opacity:1"
       id="circle3" />
    <circle
       cx="-90.0"
       cy="-8.0"
       r="0.8"
       stroke="#191919"
       stroke-width="0.35 px"
       style="stroke-width:0.1;stroke-miterlimit:4;stroke-dasharray:none;fill:none;stroke:#000012;stroke-opacity:1"
       id="circle5" />
    <circle
       cx="76.0"
       cy="-8.0"
       r="0.8"
       stroke="#191919"
       stroke-width="0.35 px"
       style="stroke-width:0.1;stroke-miterlimit:4;stroke-dasharray:none;fill:none;stroke:#000012;stroke-opacity:1"
       id="circle7" />
    <circle
       cx="-90.0"
       cy="8.0"
       r="0.8"
       stroke="#191919"
       stroke-width="0.35 px"
       style="stroke-width:0.1;stroke-miterlimit:4;stroke-dasharray:none;fill:none;stroke:#000012;stroke-opacity:1"
       id="circle9" />
    <circle
       cx="-76.0"
       cy="8.0"
       r="0.8"
       stroke="#191919"
       stroke-width="0.35 px"
       style="stroke-width:0.1;stroke-miterlimit:4;stroke-dasharray:none;fill:none;stroke:#000012;stroke-opacity:1"
       id="circle11" />
    <circle
       cx="76.0"
       cy="8.0"
       r="0.8"
       stroke="#191919"
       stroke-width="0.35 px"
       style="stroke-width:0.1;stroke-miterlimit:4;stroke-dasharray:none;fill:none;stroke:#000012;stroke-opacity:1"
       id="circle13" />
    <circle
       cx="90.0"
       cy="-8.0"
       r="0.8"
       stroke="#191919"
       stroke-width="0.35 px"
       style="stroke-width:0.1;stroke-miterlimit:4;stroke-dasharray:none;fill:none;stroke:#000012;stroke-opacity:1"
       id="circle15" />
    <circle
       cx="90.0"
       cy="8.0"
       r="0.8"
       stroke="#191919"
       stroke-width="0.35 px"
       style="stroke-width:0.1;stroke-miterlimit:4;stroke-dasharray:none;fill:none;stroke:#000012;stroke-opacity:1"
       id="circle17" />
    <title
       id="title19">MyLayer</title>
  </g>
  <g
     id="MyLayer001"
     transform="translate(137.849883,122.849883) scale(1,-1)"
     style="stroke-width:0.1;stroke-miterlimit:4;stroke-dasharray:none;stroke:#000012;stroke-opacity:1">
    <path
       id="MyLayer001_w0000"
       d="M 364.988319008 37.5 A 37.5 37.5 0 1 0 364.988 -37.5L 273.988319008 -37.5 L 273.988319008 -35.85 L 279.188319008 -35.85 L 279.188319008 -15.0 L 260.788319008 -15.0 L 260.788319008 -35.85 L 265.988319008 -35.85 L 265.988319008 -37.5 L 174.988319008 -37.5 A 37.5 37.5 0 1 0 174.988 37.5L 364.988319008 37.5 "
       stroke="#191919"
       stroke-width="0.35 px"
       style="stroke-width:0.1;stroke-miterlimit:4;stroke-dasharray:none;fill:none;fill-rule:evenodd;stroke:#000012;stroke-opacity:1" />
    <circle
       cx="193.988319008"
       cy="-8.0"
       r="0.8"
       stroke="#191919"
       stroke-width="0.35 px"
       style="stroke-width:0.1;stroke-miterlimit:4;stroke-dasharray:none;fill:none;stroke:#000012;stroke-opacity:1"
       id="circle23" />
    <circle
       cx="179.988319008"
       cy="-8.0"
       r="0.8"
       stroke="#191919"
       stroke-width="0.35 px"
       style="stroke-width:0.1;stroke-miterlimit:4;stroke-dasharray:none;fill:none;stroke:#000012;stroke-opacity:1"
       id="circle25" />
    <circle
       cx="359.988319008"
       cy="-8.0"
       r="0.8"
       stroke="#191919"
       stroke-width="0.35 px"
       style="stroke-width:0.1;stroke-miterlimit:4;stroke-dasharray:none;fill:none;stroke:#000012;stroke-opacity:1"
       id="circle27" />
    <circle
       cx="345.988319008"
       cy="-8.0"
       r="0.8"
       stroke="#191919"
       stroke-width="0.35 px"
       style="stroke-width:0.1;stroke-miterlimit:4;stroke-dasharray:none;fill:none;stroke:#000012;stroke-opacity:1"
       id="circle29" />
    <path
       id="MyLayer001_w0005"
       d="M 357.288319008 -6.0 A 6 6 0 1 1 357.288 6L 182.688319008 6.0 A 6 6 0 1 1 182.688 -6L 357.288319008 -6.0 "
       stroke="#191919"
       stroke-width="0.35 px"
       style="stroke-width:0.1;stroke-miterlimit:4;stroke-dasharray:none;fill:none;fill-rule:evenodd;stroke:#000012;stroke-opacity:1" />
    <circle
       cx="193.988319008"
       cy="8.0"
       r="0.8"
       stroke="#191919"
       stroke-width="0.35 px"
       style="stroke-width:0.1;stroke-miterlimit:4;stroke-dasharray:none;fill:none;stroke:#000012;stroke-opacity:1"
       id="circle32" />
    <circle
       cx="359.988319008"
       cy="8.0"
       r="0.8"
       stroke="#191919"
       stroke-width="0.35 px"
       style="stroke-width:0.1;stroke-miterlimit:4;stroke-dasharray:none;fill:none;stroke:#000012;stroke-opacity:1"
       id="circle34" />
    <circle
       cx="345.988319008"
       cy="8.0"
       r="0.8"
       stroke="#191919"
       stroke-width="0.35 px"
       style="stroke-width:0.1;stroke-miterlimit:4;stroke-dasharray:none;fill:none;stroke:#000012;stroke-opacity:1"
       id="circle36" />
    <circle
       cx="179.988319008"
       cy="8.0"
       r="0.8"
       stroke="#191919"
       stroke-width="0.35 px"
       style="stroke-width:0.1;stroke-miterlimit:4;stroke-dasharray:none;fill:none;stroke:#000012;stroke-opacity:1"
       id="circle38" />
    <title
       id="title40">MyLayer001</title>
  </g>
  <path
     inkscape:connector-curvature="0"
     style="fill:none;fill-rule:evenodd;stroke:#000012;stroke-width:0.1;stroke-miterlimit:4;stroke-dasharray:none;stroke-opacity:1"
     d="m 502.8382,5.34988 a 37.5,37.5 0 0 1 -3.2e-4,75 H 312.8382 a 37.5,37.5 0 1 1 -3.2e-4,-75 H 502.8382"
     id="MyLayer003_w0000" />
  <circle
     id="circle44"
     style="fill:none;stroke:#000012;stroke-width:0.1;stroke-miterlimit:4;stroke-dasharray:none;stroke-opacity:1"
     r="0.80000001"
     cy="-50.84988"
     cx="331.8382"
     transform="scale(1,-1)" />
  <circle
     id="circle46"
     style="fill:none;stroke:#000012;stroke-width:0.1;stroke-miterlimit:4;stroke-dasharray:none;stroke-opacity:1"
     r="0.80000001"
     cy="-50.84988"
     cx="317.8382"
     transform="scale(1,-1)" />
  <path
     inkscape:connector-curvature="0"
     style="fill:none;fill-rule:evenodd;stroke:#000012;stroke-width:0.1;stroke-miterlimit:4;stroke-dasharray:none;stroke-opacity:1"
     d="m 322.5882,45.82488 v -5.95 h 170.5 v 5.95 h -170.5"
     id="MyLayer003_w0003" />
  <circle
     id="circle49"
     style="fill:none;stroke:#000012;stroke-width:0.1;stroke-miterlimit:4;stroke-dasharray:none;stroke-opacity:1"
     r="0.80000001"
     cy="-34.84988"
     cx="331.8382"
     transform="scale(1,-1)" />
  <circle
     id="circle51"
     style="fill:none;stroke:#000012;stroke-width:0.1;stroke-miterlimit:4;stroke-dasharray:none;stroke-opacity:1"
     r="0.80000001"
     cy="-34.84988"
     cx="497.8382"
     transform="scale(1,-1)" />
  <circle
     id="circle53"
     style="fill:none;stroke:#000012;stroke-width:0.1;stroke-miterlimit:4;stroke-dasharray:none;stroke-opacity:1"
     r="0.80000001"
     cy="-34.84988"
     cx="483.8382"
     transform="scale(1,-1)" />
  <circle
     id="circle55"
     style="fill:none;stroke:#000012;stroke-width:0.1;stroke-miterlimit:4;stroke-dasharray:none;stroke-opacity:1"
     r="0.80000001"
     cy="-50.84988"
     cx="483.8382"
     transform="scale(1,-1)" />
  <circle
     id="circle57"
     style="fill:none;stroke:#000012;stroke-width:0.1;stroke-miterlimit:4;stroke-dasharray:none;stroke-opacity:1"
     r="0.80000001"
     cy="-50.84988"
     cx="497.8382"
     transform="scale(1,-1)" />
  <circle
     id="circle59"
     style="fill:none;stroke:#000012;stroke-width:0.1;stroke-miterlimit:4;stroke-dasharray:none;stroke-opacity:1"
     r="0.80000001"
     cy="-34.84988"
     cx="317.8382"
     transform="scale(1,-1)" />
  <path
     inkscape:connector-curvature="0"
     style="fill:none;fill-rule:evenodd;stroke:#000012;stroke-width:0.09999999;stroke-miterlimit:4;stroke-dasharray:none;stroke-opacity:1"
     d="m 232.66025,5.4247317 a 37.425146,37.425146 0 1 1 0,74.8502923 H 43.03951 a 37.425146,37.425146 0 1 1 0,-74.8502923 h 189.62074"
     id="MyLayer002_w0000" />
  <circle
     id="circle65"
     style="fill:none;stroke:#000012;stroke-width:0.09999999;stroke-miterlimit:4;stroke-dasharray:none;stroke-opacity:1"
     r="0.79840314"
     cy="-50.833908"
     cx="62.001583"
     transform="scale(1,-1)" />
  <circle
     id="circle67"
     style="fill:none;stroke:#000012;stroke-width:0.09999999;stroke-miterlimit:4;stroke-dasharray:none;stroke-opacity:1"
     r="0.79840314"
     cy="-50.833908"
     cx="48.02953"
     transform="scale(1,-1)" />
  <path
     inkscape:connector-curvature="0"
     style="fill:none;fill-rule:evenodd;stroke:#000012;stroke-width:0.0992474;stroke-miterlimit:4;stroke-dasharray:none;stroke-opacity:1"
     d="M 230.20428,45.725254 H 45.495481 V 39.974502 H 230.20428 v 5.750752"
     id="MyLayer002_w0003" />
  <circle
     id="circle70"
     style="fill:none;stroke:#000012;stroke-width:0.09999999;stroke-miterlimit:4;stroke-dasharray:none;stroke-opacity:1"
     r="0.79840314"
     cy="-34.865849"
     cx="62.001583"
     transform="scale(1,-1)" />
  <circle
     id="circle72"
     style="fill:none;stroke:#000012;stroke-width:0.09999999;stroke-miterlimit:4;stroke-dasharray:none;stroke-opacity:1"
     r="0.79840314"
     cy="-34.865849"
     cx="227.67023"
     transform="scale(1,-1)" />
  <circle
     id="circle74"
     style="fill:none;stroke:#000012;stroke-width:0.09999999;stroke-miterlimit:4;stroke-dasharray:none;stroke-opacity:1"
     r="0.79840314"
     cy="-34.865849"
     cx="213.69818"
     transform="scale(1,-1)" />
  <circle
     id="circle76"
     style="fill:none;stroke:#000012;stroke-width:0.09999999;stroke-miterlimit:4;stroke-dasharray:none;stroke-opacity:1"
     r="0.79840314"
     cy="-50.833908"
     cx="213.69818"
     transform="scale(1,-1)" />
  <circle
     id="circle78"
     style="fill:none;stroke:#000012;stroke-width:0.09999999;stroke-miterlimit:4;stroke-dasharray:none;stroke-opacity:1"
     r="0.79840314"
     cy="-50.833908"
     cx="227.67023"
     transform="scale(1,-1)" />
  <circle
     id="circle80"
     style="fill:none;stroke:#000012;stroke-width:0.09999999;stroke-miterlimit:4;stroke-dasharray:none;stroke-opacity:1"
     r="0.79840314"
     cy="-34.865849"
     cx="48.02953"
     transform="scale(1,-1)" />
  <g
     id="g4650"
     style="stroke-width:0.1;stroke-miterlimit:4;stroke-dasharray:none"
     transform="translate(5.5840242)">
    <rect
       y="57.850739"
       x="123.06586"
       height="20.849998"
       width="18.399998"
       id="rect906"
       style="opacity:1;fill:none;fill-opacity:1;stroke:#fb00ff;stroke-width:0.1;stroke-linejoin:round;stroke-miterlimit:4;stroke-dasharray:none;stroke-opacity:1" />
    <rect
       y="78.700096"
       x="127.99086"
       height="1.6499999"
       width="8.5499992"
       id="rect908"
       style="opacity:1;fill:none;fill-opacity:1;stroke:#fb00ff;stroke-width:0.1;stroke-linejoin:round;stroke-miterlimit:4;stroke-dasharray:none;stroke-opacity:1" />
  </g>
  <g
     id="layer1"
     inkscape:label="Livello 1"
     transform="matrix(0.0178338,0,0,0.0178338,131.16108,140.95153)"
     style="fill:none;stroke:#ff0000;stroke-width:3.43951106;stroke-miterlimit:4;stroke-dasharray:none;stroke-opacity:1">
    <path
       inkscape:export-filename="C:\Users\tore\Dropbox\OSHW\logo\LOGO.png"
       inkscape:export-ydpi="90"
       inkscape:export-xdpi="90"
       style="fill:none;stroke:#ff0000;stroke-width:3.43951106;stroke-miterlimit:4;stroke-dasharray:none;stroke-opacity:1"
       inkscape:connector-curvature="0"
       d="m 706.14808,504.68686 -82.195,-15.285 c -2,-0.375 -4.19,-2.255 -4.865,-4.185 l -25.195,-58.78 c -0.94,-1.815 -0.76,-4.665 0.4,-6.355 l 47.89,-69.8 c 1.145,-1.68 0.92,-4.235 -0.525,-5.68 l -59.815,-59.815 c -1.445,-1.445 -3.995,-1.68 -5.675,-0.525 l -71.025,48.74 c -1.68,1.155 -4.56,1.36 -6.385,0.46 l -56.98,-23.325 c -1.935,-0.64 -3.82,-2.805 -4.2,-4.81 l -15.825,-85.015 c -0.37,-2.005 -2.345,-3.645 -4.385,-3.645 h -84.6 c -2.035,0 -4.01,1.64 -4.38,3.645 l -15.82,85.015 c -0.38,2.005 -2.26,4.17 -4.2,4.81 l -56.985,23.325 c -1.83,0.9 -4.71,0.695 -6.385,-0.46 l -71.02,-48.74 c -1.685,-1.155 -4.24,-0.92 -5.68,0.525 l -59.82,59.815 c -1.44,1.445 -1.68,4 -0.525,5.68 l 47.895,69.8 c 1.15,1.69 1.33,4.54 0.395,6.355 l -25.2,58.78 c -0.67,1.93 -2.855,3.81 -4.865,4.185 l -82.190007,15.285 c -2.01,0.38 -3.645,2.35 -3.645,4.39 l 0.005,84.595 c 0,2.04 1.64,4.025 3.645,4.39 l 80.175007,14.92 c 2.005,0.365 4.15,2.27 4.76,4.215 l 25.03,62.525 c 0.895,1.835 0.685,4.705 -0.475,6.385 l -45.54,66.36496 c -1.15,1.68 -0.915,4.24 0.525,5.685 l 59.825,59.815 c 1.44,1.435 3.995,1.67 5.68,0.525 l 65.19,-44.745 c 1.68,-1.15 4.495,-1.24 6.25,-0.215 l 28.75,15.35 c 1.82,0.93 3.945,0.145 4.725,-1.74 l 59.28,-143.23496 c 0.785,-1.885 0,-4.29 -1.74,-5.355 l -7.195,-4.405 c -1.33,-0.81 -3.135,-2.205 -4.55,-3.485 -25.955,-16.62 -43.175,-45.695 -43.175,-78.805 0,-51.67 41.89,-93.555 93.555,-93.555 51.665,0 93.55,41.885 93.55,93.555 0,33.11 -17.215,62.185 -43.175,78.805 -1.405,1.28 -3.215,2.675 -4.54,3.485 l -7.195,4.405 c -1.73,1.065 -2.52,3.47 -1.74,5.355 l 59.275,143.23996 c 0.78,1.885 2.9,2.665 4.725,1.74 l 28.75,-15.35 c 1.76,-1.025 4.57,-0.94 6.25,0.215 l 65.195,44.745 c 1.68,1.145 4.24,0.91 5.675,-0.525 l 59.825,-59.815 c 1.445,-1.445 1.68,-4.005 0.525,-5.685 l -45.545,-66.36496 c -1.15,-1.68 -1.365,-4.55 -0.47,-6.385 l 25.03,-62.525 c 0.615,-1.945 2.745,-3.85 4.755,-4.215 l 80.175,-14.92 c 2,-0.365 3.645,-2.35 3.645,-4.39 l 0.01,-84.595 c 0.005,-2.045 -1.635,-4.015 -3.635,-4.395"
       id="path4045-5" />
  </g>
  <path
     inkscape:transform-center-x="1.8936673e-06"
     inkscape:tile-y0="-122.59662"
     inkscape:tile-x0="64.939071"
     inkscape:transform-center-y="5.4430753e-06"
     d="m 126.26811,225.45451 -2.43889,1.40809 -2.43888,-1.40809 0,-2.81618 2.43888,-1.4081 2.43889,1.4081 z"
     inkscape:randomized="0"
     inkscape:rounded="0"
     inkscape:flatsided="true"
     sodipodi:arg2="1.0471976"
     sodipodi:arg1="0.52359878"
     sodipodi:r2="2.4388855"
     sodipodi:r1="2.8161826"
     sodipodi:cy="224.04641"
     sodipodi:cx="123.82922"
     sodipodi:sides="6"
     id="use4122"
     style="opacity:1;fill:none;fill-opacity:1;stroke:#ff0000;stroke-width:0.12222863;stroke-linejoin:round;stroke-miterlimit:4;stroke-dasharray:none;stroke-opacity:1"
     sodipodi:type="star" />
</svg>
