<?xml version="1.0" encoding="UTF-8" standalone="no"?>
<svg
   xmlns:lc="http://www.librecad.org"
   xmlns:dc="http://purl.org/dc/elements/1.1/"
   xmlns:cc="http://creativecommons.org/ns#"
   xmlns:rdf="http://www.w3.org/1999/02/22-rdf-syntax-ns#"
   xmlns:svg="http://www.w3.org/2000/svg"
   xmlns="http://www.w3.org/2000/svg"
   xmlns:sodipodi="http://sodipodi.sourceforge.net/DTD/sodipodi-0.dtd"
   xmlns:inkscape="http://www.inkscape.org/namespaces/inkscape"
   width="471mm"
   height="36mm"
   viewBox="0 0 471 36"
   version="1.1"
   id="svg58"
   sodipodi:docname="Acry-Base-6-DigiSpark-v0177-MakerCam-slot-Text-Green-Colours-InkScape-275mmslot-stroke-colors-Bigger-CounterSink-dialed.svg"
   inkscape:version="0.92.3 (2405546, 2018-03-11)">
  <metadata
     id="metadata64">
    <rdf:RDF>
      <cc:Work
         rdf:about="">
        <dc:format>image/svg+xml</dc:format>
        <dc:type
           rdf:resource="http://purl.org/dc/dcmitype/StillImage" />
        <dc:title></dc:title>
      </cc:Work>
    </rdf:RDF>
  </metadata>
  <defs
     id="defs62" />
  <sodipodi:namedview
     pagecolor="#ffffff"
     bordercolor="#666666"
     borderopacity="1"
     objecttolerance="10"
     gridtolerance="10"
     guidetolerance="10"
     inkscape:pageopacity="0"
     inkscape:pageshadow="2"
     inkscape:window-width="1680"
     inkscape:window-height="999"
     id="namedview60"
     showgrid="false"
     fit-margin-top="5"
     fit-margin-left="5"
     fit-margin-right="5"
     fit-margin-bottom="5"
     inkscape:zoom="0.52872885"
     inkscape:cx="870.83664"
     inkscape:cy="-316.16019"
     inkscape:window-x="0"
     inkscape:window-y="25"
     inkscape:window-maximized="1"
     inkscape:current-layer="svg58"
     inkscape:document-units="mm" />
  <g
     lc:layername="0"
     lc:is_locked="false"
     lc:is_construction="false"
     id="g2"
     style="fill:none;stroke:#000000;stroke-width:1"
     transform="translate(-69.5,18)" />
  <g
     style="fill:none;stroke:#000000;stroke-width:1"
     id="g54"
     lc:blockname="MYLAYER001"
     transform="translate(-70.200001,18)">
    <g
       style="fill:none;stroke:#000000;stroke-width:1"
       id="g38"
       lc:is_construction="false"
       lc:is_locked="false"
       lc:layername="0" />
    <g
       style="fill:none;stroke:#000000;stroke-width:1"
       id="g52"
       lc:is_construction="false"
       lc:is_locked="false"
       lc:layername="Body_Slices">
      <path
         inkscape:connector-curvature="0"
         id="path40"
         d="M 380,-7.5 V -4 H 355 V -5 H 255 v 1 h -2.25 v -5.2 h -20 v 4.7 H 230 v -3 a 5,5 0 0 1 5,-5 h 140 a 5,5 0 0 1 5,5 z" />
      <circle
         id="circle42"
         r="0.85000002"
         cy="-7.5"
         cx="255" />
      <circle
         id="circle44"
         r="0.85000002"
         cy="-7.5"
         cx="355" />
      <path
         inkscape:connector-curvature="0"
         id="path46"
         d="m 232.75,9.2 h 20 V 4 H 255 V 5 H 355 V 4 h 25 v 3.5 a 5,5 0 0 1 -5,5 H 235 a 5,5 0 0 1 -5,-5 v -3 h 2.75 z" />
      <circle
         id="circle48"
         r="0.85000002"
         cy="7.5"
         cx="355" />
      <circle
         id="circle50"
         r="0.85000002"
         cy="7.5"
         cx="255" />
    </g>
  </g>
  <g
     lc:layername="0"
     lc:is_locked="false"
     lc:is_construction="false"
     id="g20"
     style="fill:none;stroke:#000000;stroke-width:1"
     transform="translate(-68.799998,17.646154)" />
  <g
     id="g1395"
     transform="translate(-4.7625002)">
    <path
       d="m 466.2,10.146154 v 15 a 5,5 0 0 1 -5,5 h -140 a 5,5 0 0 1 -5,-5 v -15 a 5,5 0 0 1 5,-5 h 140 a 5,5 0 0 1 5,5 z"
       id="path22"
       inkscape:connector-curvature="0"
       style="fill:none;stroke:#000000;stroke-width:1" />
    <circle
       cx="441.20001"
       cy="10.146154"
       r="0.85000002"
       id="circle24"
       style="fill:none;stroke:#000000;stroke-width:1" />
    <circle
       cx="341.20001"
       cy="10.146154"
       r="0.85000002"
       id="circle26"
       style="fill:none;stroke:#000000;stroke-width:1" />
    <circle
       cx="441.20001"
       cy="25.146154"
       r="0.85000002"
       id="circle28"
       style="fill:none;stroke:#000000;stroke-width:1" />
    <path
       d="m 439.21109,19.032241 h -96.02218 v -2.772175 h 96.02218 z"
       id="path30"
       inkscape:connector-curvature="0"
       style="fill:none;stroke:#000000;stroke-width:0.9778257;stroke-miterlimit:4;stroke-dasharray:none" />
    <circle
       cx="341.20001"
       cy="25.146154"
       r="0.85000002"
       id="circle32"
       style="fill:none;stroke:#000000;stroke-width:1" />
    <rect
       y="8.4461536"
       x="326.46365"
       height="18.4"
       width="12.486351"
       id="rect92"
       style="fill:#0000ff;fill-opacity:1;stroke:#0000ff;stroke-width:0.79013765;stroke-linejoin:round;stroke-miterlimit:4;stroke-dasharray:none;stroke-opacity:1" />
    <rect
       y="13.393701"
       x="316.44757"
       height="8.5049086"
       width="6.5049086"
       id="rect94"
       style="fill:#0000ff;fill-opacity:1;stroke:#0000ff;stroke-width:1.49509168;stroke-linejoin:round;stroke-miterlimit:4;stroke-dasharray:none;stroke-opacity:1" />
  </g>
  <flowRoot
     xml:space="preserve"
     id="flowRoot904"
     style="fill:black;fill-opacity:1;stroke:none;font-family:sans-serif;font-style:normal;font-weight:normal;font-size:26.66666667px;line-height:1.25;letter-spacing:0px;word-spacing:0px;text-anchor:middle;text-align:center;opacity:0.99;"><flowRegion
       id="flowRegion906"
       style=""><rect
         id="rect908"
         width="335.71082"
         height="41.60923"
         x="132.39301"
         y="42.442223"
         style="" /></flowRegion><flowPara
       id="flowPara910" /></flowRoot>  <text
     xml:space="preserve"
     style="font-style:normal;font-weight:normal;font-size:7.05555534px;line-height:1.25;font-family:sans-serif;text-align:center;letter-spacing:0px;word-spacing:0px;text-anchor:middle;fill:#000000;fill-opacity:1;stroke:none;stroke-width:0.26458335"
     x="39.807693"
     y="14.415383"
     id="text933"><tspan
       sodipodi:role="line"
       id="tspan931"
       x="39.807693"
       y="20.657896"
       style="stroke-width:0.26458335" /></text>
  <flowRoot
     xml:space="preserve"
     id="flowRoot939"
     style="font-style:normal;font-weight:normal;font-size:26.66666603px;line-height:1.25;font-family:sans-serif;text-align:center;letter-spacing:0px;word-spacing:0px;text-anchor:middle;fill:#000000;fill-opacity:1;stroke:none"
     transform="scale(0.26458334)"><flowRegion
       id="flowRegion941"><rect
         id="rect943"
         width="222.00363"
         height="26.747425"
         x="213.31071"
         y="65.182312" /></flowRegion><flowPara
       id="flowPara945">Version</flowPara></flowRoot>  <g
     style="fill:none;stroke:#000000;stroke-width:1"
     id="g18"
     lc:blockname="MYLAYER"
     transform="translate(-66.325,18)">
    <g
       style="fill:none;stroke:#000000;stroke-width:1"
       id="g4"
       lc:is_construction="false"
       lc:is_locked="false"
       lc:layername="0" />
    <g
       style="fill:none;stroke:#000000;stroke-width:1"
       id="g16"
       lc:is_construction="false"
       lc:is_locked="false"
       lc:layername="Body_Slices">
      <path
         inkscape:connector-curvature="0"
         id="path6"
         d="m 225,-7.5 v 15 a 5,5 0 0 1 -5,5 H 80 a 5,5 0 0 1 -5,-5 v -15 a 5,5 0 0 1 5,-5 h 140 a 5,5 0 0 1 5,5 z" />
      <circle
         id="circle8"
         r="0.85000002"
         cy="7.5"
         cx="200" />
      <circle
         id="circle10"
         r="0.85000002"
         cy="-7.5"
         cx="200" />
      <circle
         id="circle12"
         r="0.85000002"
         cy="-7.5"
         cx="100" />
      <circle
         id="circle14"
         r="0.85000002"
         cy="7.5"
         cx="100" />
    </g>
  </g>
  <g
     aria-label="Acry-Base"
     style="font-style:normal;font-weight:normal;font-size:7.05555534px;line-height:1.25;font-family:sans-serif;text-align:center;letter-spacing:0px;word-spacing:0px;text-anchor:middle;fill:none;fill-opacity:1;stroke:#00ff00;stroke-width:0.26458335;stroke-opacity:1"
     id="text937"
     transform="translate(3.1750001)">
    <path
       d="M 65.556896,7.3035841 64.61294,9.86329 h 1.891357 z m -0.392741,-0.685574 h 0.788927 l 1.960259,5.1435279 h -0.72347 l -0.468533,-1.319472 h -2.318549 l -0.468533,1.319472 h -0.733805 z"
       style="fill:none;fill-opacity:1;stroke:#00ff00;stroke-width:0.26458335;stroke-opacity:1"
       id="path1626"
       inkscape:connector-curvature="0" />
    <path
       d="M 71.28609,8.0511698 V 8.6437262 Q 71.017372,8.4955871 70.74521,8.4232401 70.476492,8.347448 70.200885,8.347448 q -0.616672,0 -0.957737,0.3927409 -0.341064,0.3892958 -0.341064,1.0955403 0,0.7062448 0.341064,1.0989858 0.341065,0.389295 0.957737,0.389295 0.275607,0 0.544325,-0.07235 0.272162,-0.07579 0.54088,-0.223931 v 0.585666 q -0.265273,0.124024 -0.551215,0.186036 -0.282498,0.06201 -0.602892,0.06201 -0.871609,0 -1.384929,-0.54777 -0.513319,-0.54777 -0.513319,-1.4779458 0,-0.9439561 0.516765,-1.4848361 0.520209,-0.54088 1.422824,-0.54088 0.292833,0 0.571886,0.062012 0.279053,0.058567 0.54088,0.1791449 z"
       style="fill:none;fill-opacity:1;stroke:#00ff00;stroke-width:0.26458335;stroke-opacity:1"
       id="path1628"
       inkscape:connector-curvature="0" />
    <path
       d="m 74.631277,8.4955871 q -0.106798,-0.062012 -0.234266,-0.089572 -0.124024,-0.031006 -0.275608,-0.031006 -0.537435,0 -0.826823,0.3513997 -0.285943,0.3479547 -0.285943,1.0025228 V 11.761538 H 72.371295 V 7.9030307 h 0.637342 v 0.5994466 q 0.199816,-0.3513997 0.52021,-0.5202094 0.320394,-0.1722548 0.778591,-0.1722548 0.06546,0 0.144694,0.010335 0.07924,0.00689 0.1757,0.024116 z"
       style="fill:none;fill-opacity:1;stroke:#00ff00;stroke-width:0.26458335;stroke-opacity:1"
       id="path1630"
       inkscape:connector-curvature="0" />
    <path
       d="m 76.908485,12.119827 q -0.268717,0.68902 -0.523654,0.89917 -0.254937,0.210151 -0.682129,0.210151 h -0.506429 v -0.530545 h 0.37207 q 0.261827,0 0.406521,-0.124023 0.144694,-0.124023 0.320394,-0.585666 l 0.113688,-0.289388 -1.560628,-3.7964953 h 0.671794 l 1.205783,3.0179033 1.205784,-3.0179033 h 0.671793 z"
       style="fill:none;fill-opacity:1;stroke:#00ff00;stroke-width:0.26458335;stroke-opacity:1"
       id="path1632"
       inkscape:connector-curvature="0" />
    <path
       d="m 79.03411,9.5463412 h 1.856906 V 10.111337 H 79.03411 Z"
       style="fill:none;fill-opacity:1;stroke:#00ff00;stroke-width:0.26458335;stroke-opacity:1"
       id="path1634"
       inkscape:connector-curvature="0" />
    <path
       d="m 82.379297,9.3051845 v 1.8844675 h 1.116211 q 0.561551,0 0.830268,-0.230822 0.272163,-0.234266 0.272163,-0.713134 0,-0.4823138 -0.272163,-0.7096901 -0.268717,-0.2308214 -0.830268,-0.2308214 z m 0,-2.1152885 v 1.5502929 h 1.030084 q 0.509874,0 0.757921,-0.1894802 0.251492,-0.1929254 0.251492,-0.5856663 0,-0.3892957 -0.251492,-0.5822211 Q 83.919255,7.189896 83.409381,7.189896 Z M 81.683388,6.6180101 h 1.777669 q 0.795817,0 1.226454,0.3307292 0.430637,0.3307292 0.430637,0.940511 0,0.4719781 -0.220486,0.7510308 -0.220486,0.2790528 -0.647678,0.3479547 0.513319,0.110243 0.795817,0.4616428 0.285943,0.3479546 0.285943,0.8716094 0,0.689019 -0.468533,1.064534 -0.468533,0.375516 -1.333252,0.375516 h -1.846571 z"
       style="fill:none;fill-opacity:1;stroke:#00ff00;stroke-width:0.26458335;stroke-opacity:1"
       id="path1636"
       inkscape:connector-curvature="0" />
    <path
       d="m 88.246295,9.8219489 q -0.768256,0 -1.064535,0.1756998 -0.296278,0.1757003 -0.296278,0.5994463 0,0.33762 0.220486,0.537435 0.223932,0.196371 0.606337,0.196371 0.5271,0 0.844048,-0.372071 0.320394,-0.375515 0.320394,-0.9956322 V 9.8219489 Z m 1.26435,-0.2618273 v 2.2014164 h -0.633898 v -0.585667 q -0.217041,0.3514 -0.54088,0.52021 -0.323839,0.165364 -0.792372,0.165364 -0.592556,0 -0.943956,-0.330729 -0.347954,-0.334174 -0.347954,-0.89228 0,-0.6511226 0.434082,-0.9818517 0.437527,-0.3307292 1.302246,-0.3307292 h 0.888834 v -0.062012 q 0,-0.4375271 -0.289388,-0.6752387 -0.285943,-0.2411567 -0.806152,-0.2411567 -0.330729,0 -0.644233,0.079237 -0.313503,0.079237 -0.602892,0.2377116 V 8.0787306 q 0.347955,-0.1343587 0.675239,-0.1998155 0.327284,-0.068902 0.637343,-0.068902 0.837158,0 1.250569,0.4340821 0.413412,0.434082 0.413412,1.3160264 z"
       style="fill:none;fill-opacity:1;stroke:#00ff00;stroke-width:0.26458335;stroke-opacity:1"
       id="path1638"
       inkscape:connector-curvature="0" />
    <path
       d="m 93.279579,8.0167189 v 0.5994466 q -0.268717,-0.1378038 -0.558105,-0.2067058 -0.289388,-0.068902 -0.599447,-0.068902 -0.471978,0 -0.70969,0.144694 -0.234266,0.144694 -0.234266,0.4340821 0,0.2204861 0.16881,0.3479546 Q 91.51569,9.3913118 92.025564,9.505 l 0.217041,0.048231 q 0.675239,0.144694 0.957737,0.4099664 0.285943,0.2618276 0.285943,0.7338056 0,0.537435 -0.427192,0.850939 -0.423747,0.313503 -1.167887,0.313503 -0.310059,0 -0.647678,-0.06201 -0.334174,-0.05857 -0.706245,-0.179145 v -0.654568 q 0.3514,0.18259 0.692464,0.275607 0.341065,0.08957 0.675239,0.08957 0.447863,0 0.689019,-0.151585 0.241157,-0.155029 0.241157,-0.434082 0,-0.258382 -0.1757,-0.396186 -0.172255,-0.137803 -0.761366,-0.265272 L 91.67761,10.0321 Q 91.088499,9.9080762 90.826671,9.6531392 90.564844,9.394757 90.564844,8.9468946 q 0,-0.544325 0.385851,-0.8406032 0.38585,-0.2962783 1.09554,-0.2962783 0.3514,0 0.661458,0.051677 0.310059,0.051676 0.571886,0.1550288 z"
       style="fill:none;fill-opacity:1;stroke:#00ff00;stroke-width:0.26458335;stroke-opacity:1"
       id="path1640"
       inkscape:connector-curvature="0" />
    <path
       d="m 97.799544,9.6738098 v 0.3100585 h -2.914551 q 0.04134,0.6545677 0.392741,0.9990777 0.354845,0.341064 0.985297,0.341064 0.36518,0 0.706245,-0.08957 0.344509,-0.08957 0.682129,-0.268717 v 0.599446 q -0.341065,0.144694 -0.699355,0.220486 -0.35829,0.07579 -0.726915,0.07579 -0.923285,0 -1.464165,-0.537435 -0.537435,-0.537434 -0.537435,-1.4538298 0,-0.9474012 0.509874,-1.5020616 0.513319,-0.5581055 1.381483,-0.5581055 0.778592,0 1.229899,0.502984 0.454753,0.4995388 0.454753,1.3608127 z M 97.165646,9.4877746 Q 97.158756,8.9675652 96.872813,8.6575066 96.590315,8.347448 96.121782,8.347448 q -0.530544,0 -0.850938,0.2997233 -0.316949,0.2997233 -0.36518,0.8440484 z"
       style="fill:none;fill-opacity:1;stroke:#00ff00;stroke-width:0.26458335;stroke-opacity:1"
       id="path1642"
       inkscape:connector-curvature="0" />
  </g>
  <ellipse
     ry="2.4642859"
     rx="2.4642856"
     cy="25.442028"
     cx="133.744"
     id="path1232"
     style="font-style:normal;font-weight:normal;font-size:medium;line-height:1.25;font-family:sans-serif;text-align:center;letter-spacing:0px;word-spacing:0px;text-anchor:middle;opacity:0.98999999;fill:none;fill-opacity:1;stroke:#ff00ff;stroke-width:1.07142866;stroke-linejoin:round;stroke-miterlimit:4;stroke-dasharray:none;stroke-opacity:1" />
  <ellipse
     ry="2.4642859"
     rx="2.4642856"
     cy="10.430491"
     cx="133.68582"
     id="path1232-3"
     style="font-style:normal;font-weight:normal;font-size:2.97551513px;line-height:1.25;font-family:sans-serif;text-align:center;letter-spacing:0px;word-spacing:0px;text-anchor:middle;opacity:0.98999999;fill:none;fill-opacity:1;stroke:#ff00ff;stroke-width:1.07142866;stroke-linejoin:round;stroke-miterlimit:4;stroke-dasharray:none;stroke-opacity:1" />
  <ellipse
     ry="2.4642856"
     rx="2.4642854"
     cy="10.571155"
     cx="33.646152"
     id="path1232-0"
     style="font-style:normal;font-weight:normal;font-size:2.97551513px;line-height:1.25;font-family:sans-serif;text-align:center;letter-spacing:0px;word-spacing:0px;text-anchor:middle;opacity:0.98999999;fill:none;fill-opacity:1;stroke:#ff00ff;stroke-width:1.07142854;stroke-linejoin:round;stroke-miterlimit:4;stroke-dasharray:none;stroke-opacity:1" />
  <ellipse
     ry="2.4642856"
     rx="2.4642854"
     cy="25.424723"
     cx="33.692989"
     id="path1232-2"
     style="font-style:normal;font-weight:normal;font-size:2.97551513px;line-height:1.25;font-family:sans-serif;text-align:center;letter-spacing:0px;word-spacing:0px;text-anchor:middle;opacity:0.98999999;fill:none;fill-opacity:1;stroke:#ff00ff;stroke-width:1.07142854;stroke-linejoin:round;stroke-miterlimit:4;stroke-dasharray:none;stroke-opacity:1" />
  <g
     aria-label="(6 Pixel DigiSpark)"
     style="font-style:normal;font-weight:normal;font-size:3.3992641px;line-height:1.25;font-family:sans-serif;text-align:center;letter-spacing:0px;word-spacing:0px;text-anchor:middle;fill:none;fill-opacity:1;stroke:#00ff00;stroke-width:0.12747242;stroke-opacity:1"
     id="text953"
     transform="translate(3.1750001)">
    <path
       d="m 65.916196,14.042334 q -0.222413,0.381753 -0.3303,0.755208 -0.107886,0.373454 -0.107886,0.756867 0,0.383413 0.107886,0.760187 0.109547,0.375114 0.3303,0.755207 h -0.265567 q -0.24897,-0.390052 -0.373455,-0.766826 -0.122825,-0.376774 -0.122825,-0.748568 0,-0.370135 0.122825,-0.745249 0.122825,-0.375114 0.373455,-0.766826 z"
       style="fill:none;fill-opacity:1;stroke:#00ff00;stroke-width:0.12747242;stroke-opacity:1"
       id="path1591"
       inkscape:connector-curvature="0" />
    <path
       d="m 67.312085,15.249006 q -0.225732,0 -0.358516,0.154361 -0.131124,0.154361 -0.131124,0.423249 0,0.267227 0.131124,0.423248 0.132784,0.154361 0.358516,0.154361 0.225733,0 0.356857,-0.154361 0.132783,-0.156021 0.132783,-0.423248 0,-0.268888 -0.132783,-0.423249 -0.131124,-0.154361 -0.356857,-0.154361 z m 0.665579,-1.050651 v 0.305402 q -0.126145,-0.05975 -0.255609,-0.09129 -0.127804,-0.03154 -0.253949,-0.03154 -0.331959,0 -0.507898,0.224073 -0.174278,0.224073 -0.199175,0.677197 0.09793,-0.144402 0.24565,-0.220753 0.147722,-0.07801 0.32532,-0.07801 0.373454,0 0.589228,0.227392 0.217433,0.225732 0.217433,0.615785 0,0.381753 -0.225732,0.612465 -0.225733,0.230711 -0.600847,0.230711 -0.429887,0 -0.657279,-0.328639 -0.227392,-0.3303 -0.227392,-0.956043 0,-0.587568 0.278845,-0.936126 0.278846,-0.350217 0.748569,-0.350217 0.126144,0 0.253949,0.0249 0.129464,0.0249 0.268887,0.07469 z"
       style="fill:none;fill-opacity:1;stroke:#00ff00;stroke-width:0.12747242;stroke-opacity:1"
       id="path1593"
       inkscape:connector-curvature="0" />
    <path
       d="m 70.105524,14.419108 v 0.931146 h 0.421588 q 0.234031,0 0.361836,-0.121165 0.127804,-0.121165 0.127804,-0.345238 0,-0.222413 -0.127804,-0.343578 -0.127805,-0.121165 -0.361836,-0.121165 z m -0.335279,-0.275526 h 0.756867 q 0.416609,0 0.629063,0.189216 0.214114,0.187557 0.214114,0.551053 0,0.366815 -0.214114,0.554372 -0.212454,0.187557 -0.629063,0.187557 h -0.421588 v 0.995878 h -0.335279 z"
       style="fill:none;fill-opacity:1;stroke:#00ff00;stroke-width:0.12747242;stroke-opacity:1"
       id="path1595"
       inkscape:connector-curvature="0" />
    <path
       d="m 71.735444,14.762686 h 0.305403 v 1.858972 h -0.305403 z m 0,-0.723672 h 0.305403 v 0.386733 h -0.305403 z"
       style="fill:none;fill-opacity:1;stroke:#00ff00;stroke-width:0.12747242;stroke-opacity:1"
       id="path1597"
       inkscape:connector-curvature="0" />
    <path
       d="m 74.22348,14.762686 -0.672218,0.904589 0.707074,0.954383 H 73.89816 l -0.541094,-0.73031 -0.541094,0.73031 h -0.360176 l 0.722012,-0.972641 -0.660599,-0.886331 h 0.360176 l 0.492959,0.662259 0.49296,-0.662259 z"
       style="fill:none;fill-opacity:1;stroke:#00ff00;stroke-width:0.12747242;stroke-opacity:1"
       id="path1599"
       inkscape:connector-curvature="0" />
    <path
       d="m 76.173741,15.615821 v 0.149382 h -1.404188 q 0.01992,0.315362 0.189217,0.481341 0.170959,0.16432 0.474701,0.16432 0.175939,0 0.340259,-0.04315 0.16598,-0.04315 0.32864,-0.129464 v 0.288805 q -0.16432,0.06971 -0.336939,0.106227 -0.172619,0.03652 -0.350217,0.03652 -0.444826,0 -0.705414,-0.258928 -0.258928,-0.258928 -0.258928,-0.700434 0,-0.456444 0.24565,-0.723672 0.247309,-0.268887 0.665578,-0.268887 0.375114,0 0.592548,0.242331 0.219093,0.24067 0.219093,0.655619 z m -0.305403,-0.08963 q -0.0033,-0.250628 -0.141082,-0.40001 Q 75.591152,14.9768 75.36542,14.9768 q -0.255609,0 -0.40997,0.144402 -0.152701,0.144402 -0.175938,0.40665 z"
       style="fill:none;fill-opacity:1;stroke:#00ff00;stroke-width:0.12747242;stroke-opacity:1"
       id="path1601"
       inkscape:connector-curvature="0" />
    <path
       d="m 76.675,14.039014 h 0.305403 v 2.582644 H 76.675 Z"
       style="fill:none;fill-opacity:1;stroke:#00ff00;stroke-width:0.12747242;stroke-opacity:1"
       id="path1603"
       inkscape:connector-curvature="0" />
    <path
       d="m 79.04851,14.419108 v 1.927024 h 0.40499 q 0.512877,0 0.750228,-0.232372 0.239011,-0.232371 0.239011,-0.73363 0,-0.497939 -0.239011,-0.728651 -0.237351,-0.232371 -0.750228,-0.232371 z m -0.335279,-0.275526 h 0.688815 q 0.720352,0 1.057291,0.300423 0.336939,0.298763 0.336939,0.936125 0,0.640682 -0.338599,0.941105 -0.338598,0.300423 -1.055631,0.300423 h -0.688815 z"
       style="fill:none;fill-opacity:1;stroke:#00ff00;stroke-width:0.12747242;stroke-opacity:1"
       id="path1605"
       inkscape:connector-curvature="0" />
    <path
       d="m 81.315792,14.762686 h 0.305403 v 1.858972 h -0.305403 z m 0,-0.723672 h 0.305403 v 0.386733 h -0.305403 z"
       style="fill:none;fill-opacity:1;stroke:#00ff00;stroke-width:0.12747242;stroke-opacity:1"
       id="path1607"
       inkscape:connector-curvature="0" />
    <path
       d="m 83.481827,15.670595 q 0,-0.33196 -0.137763,-0.514537 -0.136104,-0.182578 -0.383413,-0.182578 -0.24565,0 -0.383414,0.182578 -0.136103,0.182577 -0.136103,0.514537 0,0.330299 0.136103,0.512877 0.137764,0.182578 0.383414,0.182578 0.247309,0 0.383413,-0.182578 0.137763,-0.182578 0.137763,-0.512877 z m 0.305402,0.720352 q 0,0.474701 -0.210794,0.705413 -0.210794,0.232372 -0.645661,0.232372 -0.161,0 -0.303743,-0.0249 -0.142742,-0.02324 -0.277186,-0.07303 V 16.9337 q 0.134444,0.07303 0.265568,0.107887 0.131124,0.03486 0.267227,0.03486 0.300423,0 0.449805,-0.157681 0.149382,-0.156021 0.149382,-0.473042 v -0.151042 q -0.09461,0.16432 -0.242331,0.24565 -0.147721,0.08133 -0.353536,0.08133 -0.341918,0 -0.551053,-0.260588 -0.209134,-0.260588 -0.209134,-0.690475 0,-0.431548 0.209134,-0.692136 0.209135,-0.260588 0.551053,-0.260588 0.205815,0 0.353536,0.08133 0.147722,0.08133 0.242331,0.24565 V 14.76269 h 0.305402 z"
       style="fill:none;fill-opacity:1;stroke:#00ff00;stroke-width:0.12747242;stroke-opacity:1"
       id="path1609"
       inkscape:connector-curvature="0" />
    <path
       d="m 84.416292,14.762686 h 0.305403 v 1.858972 h -0.305403 z m 0,-0.723672 h 0.305403 v 0.386733 h -0.305403 z"
       style="fill:none;fill-opacity:1;stroke:#00ff00;stroke-width:0.12747242;stroke-opacity:1"
       id="path1611"
       inkscape:connector-curvature="0" />
    <path
       d="m 86.857853,14.224912 v 0.32698 q -0.190876,-0.09129 -0.360176,-0.136104 -0.169299,-0.04481 -0.32698,-0.04481 -0.273866,0 -0.423248,0.106227 -0.147722,0.106227 -0.147722,0.302083 0,0.16432 0.09793,0.248969 0.09959,0.08299 0.375114,0.134444 l 0.202495,0.0415 q 0.375115,0.07137 0.552713,0.252289 0.179258,0.179258 0.179258,0.481341 0,0.360176 -0.24233,0.546073 -0.240671,0.185897 -0.707074,0.185897 -0.175938,0 -0.375114,-0.03984 -0.197516,-0.03984 -0.40997,-0.117845 v -0.345238 q 0.204155,0.114526 0.400011,0.172619 0.195856,0.05809 0.385073,0.05809 0.287145,0 0.443166,-0.112866 0.156021,-0.112867 0.156021,-0.322001 0,-0.182578 -0.112866,-0.285485 -0.111207,-0.102908 -0.366816,-0.154361 l -0.204155,-0.03984 q -0.375114,-0.07469 -0.542753,-0.234032 -0.16764,-0.15934 -0.16764,-0.443166 0,-0.328639 0.230712,-0.517856 0.232372,-0.189217 0.639022,-0.189217 0.174279,0 0.355196,0.03154 0.180918,0.03154 0.370135,0.09461 z"
       style="fill:none;fill-opacity:1;stroke:#00ff00;stroke-width:0.12747242;stroke-opacity:1"
       id="path1613"
       inkscape:connector-curvature="0" />
    <path
       d="m 87.812238,16.342812 v 0.98592 h -0.307062 v -2.566046 h 0.307062 v 0.282165 q 0.09627,-0.165979 0.242331,-0.24565 0.147721,-0.08133 0.351876,-0.08133 0.338599,0 0.549393,0.268887 0.212454,0.268887 0.212454,0.707074 0,0.438186 -0.212454,0.707073 -0.210794,0.268887 -0.549393,0.268887 -0.204155,0 -0.351876,-0.07967 -0.146063,-0.08133 -0.242331,-0.24731 z m 1.039033,-0.64898 q 0,-0.336939 -0.139423,-0.527816 -0.137763,-0.192536 -0.380093,-0.192536 -0.242331,0 -0.381754,0.192536 -0.137763,0.190877 -0.137763,0.527816 0,0.336939 0.137763,0.529475 0.139423,0.190877 0.381754,0.190877 0.24233,0 0.380093,-0.190877 0.139423,-0.192536 0.139423,-0.529475 z"
       style="fill:none;fill-opacity:1;stroke:#00ff00;stroke-width:0.12747242;stroke-opacity:1"
       id="path1615"
       inkscape:connector-curvature="0" />
    <path
       d="m 90.519367,15.687193 q -0.370135,0 -0.512877,0.08465 -0.142743,0.08465 -0.142743,0.288805 0,0.16266 0.106227,0.258928 0.107887,0.09461 0.292124,0.09461 0.253949,0 0.406651,-0.179258 0.154361,-0.180918 0.154361,-0.479682 v -0.06805 z m 0.609145,-0.126145 v 1.06061 H 90.82311 v -0.282165 q -0.104568,0.169299 -0.260588,0.250629 -0.156021,0.07967 -0.381754,0.07967 -0.285485,0 -0.454784,-0.15934 -0.16764,-0.161 -0.16764,-0.429887 0,-0.313702 0.209135,-0.473043 0.210794,-0.15934 0.627403,-0.15934 h 0.428228 v -0.02988 q 0,-0.210795 -0.139423,-0.325321 -0.137763,-0.116185 -0.388393,-0.116185 -0.15934,0 -0.310382,0.03817 -0.151041,0.03818 -0.290464,0.114526 v -0.282166 q 0.167639,-0.06473 0.32532,-0.09627 0.157681,-0.0332 0.307062,-0.0332 0.403331,0 0.602507,0.209135 0.199175,0.209134 0.199175,0.634042 z"
       style="fill:none;fill-opacity:1;stroke:#00ff00;stroke-width:0.12747242;stroke-opacity:1"
       id="path1617"
       inkscape:connector-curvature="0" />
    <path
       d="m 92.836442,15.048171 q -0.05145,-0.02988 -0.112866,-0.04316 -0.05975,-0.01494 -0.132784,-0.01494 -0.258928,0 -0.398351,0.169299 -0.137764,0.16764 -0.137764,0.483001 v 0.97928 h -0.307062 v -1.858972 h 0.307062 v 0.288804 q 0.09627,-0.169299 0.25063,-0.250629 0.154361,-0.08299 0.375114,-0.08299 0.03154,0 0.06971,0.005 0.03818,0.0033 0.08465,0.01162 z"
       style="fill:none;fill-opacity:1;stroke:#00ff00;stroke-width:0.12747242;stroke-opacity:1"
       id="path1619"
       inkscape:connector-curvature="0" />
    <path
       d="m 93.148484,14.039014 h 0.307063 v 1.525354 l 0.911228,-0.801682 h 0.390053 l -0.98592,0.869733 1.027415,0.989239 h -0.398352 l -0.944424,-0.907909 v 0.907909 h -0.307063 z"
       style="fill:none;fill-opacity:1;stroke:#00ff00;stroke-width:0.12747242;stroke-opacity:1"
       id="path1621"
       inkscape:connector-curvature="0" />
    <path
       d="m 95.083807,14.042334 h 0.265567 q 0.24897,0.391712 0.371795,0.766826 0.124485,0.375114 0.124485,0.745249 0,0.371794 -0.124485,0.748568 -0.122825,0.376774 -0.371795,0.766826 h -0.265567 q 0.220753,-0.380093 0.32864,-0.755207 0.109546,-0.376774 0.109546,-0.760187 0,-0.383413 -0.109546,-0.756867 -0.107887,-0.373455 -0.32864,-0.755208 z"
       style="fill:none;fill-opacity:1;stroke:#00ff00;stroke-width:0.12747242;stroke-opacity:1"
       id="path1623"
       inkscape:connector-curvature="0" />
  </g>
  <g
     aria-label="OpentoSource.net"
     style="font-style:normal;font-weight:normal;font-size:2.9637804px;line-height:1.25;font-family:sans-serif;text-align:center;letter-spacing:0px;word-spacing:0px;text-anchor:middle;fill:none;fill-opacity:1;stroke:#00ff00;stroke-width:0.11114178;stroke-opacity:1"
     id="text957"
     transform="translate(3.1750001)">
    <path
       d="m 68.173826,23.051821 q -0.318375,0 -0.506506,0.237334 -0.186683,0.237334 -0.186683,0.64688 0,0.408098 0.186683,0.645432 0.188131,0.237334 0.506506,0.237334 0.318375,0 0.503611,-0.237334 0.186683,-0.237334 0.186683,-0.645432 0,-0.409546 -0.186683,-0.64688 -0.185236,-0.237334 -0.503611,-0.237334 z m 0,-0.237334 q 0.454407,0 0.726473,0.30535 0.272066,0.303904 0.272066,0.816198 0,0.510847 -0.272066,0.816197 -0.272066,0.303903 -0.726473,0.303903 -0.455855,0 -0.729368,-0.303903 -0.272066,-0.303903 -0.272066,-0.816197 0,-0.512294 0.272066,-0.816198 0.273513,-0.30535 0.729368,-0.30535 z"
       style="fill:none;fill-opacity:1;stroke:#00ff00;stroke-width:0.11114178;stroke-opacity:1"
       id="path1447"
       inkscape:connector-curvature="0" />
    <path
       d="m 69.875684,24.771045 v 0.859612 H 69.60796 V 23.39335 h 0.267724 v 0.246017 q 0.08393,-0.144716 0.211285,-0.214179 0.128797,-0.07091 0.306798,-0.07091 0.29522,0 0.479009,0.23444 0.185236,0.234439 0.185236,0.616489 0,0.38205 -0.185236,0.61649 -0.183789,0.234439 -0.479009,0.234439 -0.178001,0 -0.306798,-0.06946 -0.12735,-0.07091 -0.211285,-0.215627 z m 0.905921,-0.565839 q 0,-0.293773 -0.121561,-0.460196 -0.120114,-0.167871 -0.3314,-0.167871 -0.211285,0 -0.332846,0.167871 -0.120114,0.166423 -0.120114,0.460196 0,0.293773 0.120114,0.461644 0.121561,0.166423 0.332846,0.166423 0.211286,0 0.3314,-0.166423 0.121561,-0.167871 0.121561,-0.461644 z"
       style="fill:none;fill-opacity:1;stroke:#00ff00;stroke-width:0.11114178;stroke-opacity:1"
       id="path1449"
       inkscape:connector-curvature="0" />
    <path
       d="m 72.885773,24.13719 v 0.130244 h -1.224296 q 0.01737,0.27496 0.164976,0.419676 0.149058,0.143269 0.413888,0.143269 0.153399,0 0.296667,-0.03763 0.144716,-0.03763 0.286538,-0.112879 v 0.251806 q -0.143269,0.06078 -0.293774,0.09262 -0.150504,0.03184 -0.30535,0.03184 -0.387838,0 -0.615042,-0.225756 -0.225757,-0.225757 -0.225757,-0.610701 0,-0.397969 0.214179,-0.630961 0.215627,-0.23444 0.580311,-0.23444 0.327058,0 0.516635,0.211285 0.191025,0.209838 0.191025,0.571628 z m -0.266277,-0.07815 q -0.0029,-0.218521 -0.123008,-0.348765 -0.118667,-0.130244 -0.315481,-0.130244 -0.222862,0 -0.357448,0.125903 -0.133138,0.125902 -0.153399,0.354553 z"
       style="fill:none;fill-opacity:1;stroke:#00ff00;stroke-width:0.11114178;stroke-opacity:1"
       id="path1451"
       inkscape:connector-curvature="0" />
    <path
       d="m 74.67012,24.035889 v 0.978279 h -0.266277 v -0.969596 q 0,-0.230099 -0.08972,-0.344424 -0.08972,-0.114326 -0.269172,-0.114326 -0.215626,0 -0.340082,0.13748 -0.124456,0.137481 -0.124456,0.374815 v 0.916051 H 73.312685 V 23.39335 h 0.267724 v 0.251806 q 0.09551,-0.146163 0.22431,-0.218521 0.130244,-0.07236 0.299562,-0.07236 0.279301,0 0.42257,0.173659 0.143269,0.172212 0.143269,0.507953 z"
       style="fill:none;fill-opacity:1;stroke:#00ff00;stroke-width:0.11114178;stroke-opacity:1"
       id="path1453"
       inkscape:connector-curvature="0" />
    <path
       d="m 75.467504,22.933154 v 0.460196 h 0.548473 v 0.206944 h -0.548473 v 0.879872 q 0,0.198261 0.05354,0.2547 0.05499,0.05644 0.221415,0.05644 h 0.273513 v 0.222863 h -0.273513 q -0.308244,0 -0.425464,-0.114326 -0.11722,-0.115772 -0.11722,-0.419676 V 23.600294 H 75.004414 V 23.39335 h 0.195366 v -0.460196 z"
       style="fill:none;fill-opacity:1;stroke:#00ff00;stroke-width:0.11114178;stroke-opacity:1"
       id="path1455"
       inkscape:connector-curvature="0" />
    <path
       d="m 76.995703,23.580034 q -0.214179,0 -0.338635,0.16787 -0.124455,0.166423 -0.124455,0.457302 0,0.290879 0.123008,0.458749 0.124456,0.166424 0.340082,0.166424 0.212733,0 0.337188,-0.167871 0.124456,-0.16787 0.124456,-0.457302 0,-0.287984 -0.124456,-0.455855 -0.124455,-0.169317 -0.337188,-0.169317 z m 0,-0.225757 q 0.347318,0 0.545579,0.225757 0.198261,0.225757 0.198261,0.625172 0,0.397969 -0.198261,0.625173 -0.198261,0.225756 -0.545579,0.225756 -0.348765,0 -0.547026,-0.225756 -0.196813,-0.227204 -0.196813,-0.625173 0,-0.399415 0.196813,-0.625172 0.198261,-0.225757 0.547026,-0.225757 z"
       style="fill:none;fill-opacity:1;stroke:#00ff00;stroke-width:0.11114178;stroke-opacity:1"
       id="path1457"
       inkscape:connector-curvature="0" />
    <path
       d="m 79.486262,22.924471 v 0.28509 q -0.166423,-0.07959 -0.314033,-0.118667 -0.14761,-0.03907 -0.28509,-0.03907 -0.238781,0 -0.369025,0.09262 -0.128798,0.09262 -0.128798,0.263383 0,0.143269 0.08538,0.217074 0.08683,0.07236 0.327058,0.11722 l 0.176553,0.03618 q 0.327058,0.06223 0.481904,0.219968 0.156293,0.156293 0.156293,0.419676 0,0.314033 -0.211285,0.476115 -0.209838,0.162081 -0.61649,0.162081 -0.153399,0 -0.327058,-0.03473 -0.172212,-0.03473 -0.357448,-0.102749 v -0.301009 q 0.178001,0.09985 0.348765,0.150505 0.170765,0.05065 0.335741,0.05065 0.250359,0 0.386391,-0.09841 0.136033,-0.09841 0.136033,-0.280749 0,-0.159188 -0.09841,-0.248911 -0.09696,-0.08972 -0.319822,-0.134586 l -0.178001,-0.03473 q -0.327058,-0.06512 -0.473221,-0.204049 -0.146163,-0.138927 -0.146163,-0.386392 0,-0.286537 0.201155,-0.451513 0.202602,-0.164976 0.557156,-0.164976 0.151952,0 0.309692,0.0275 0.15774,0.0275 0.322716,0.08249 z"
       style="fill:none;fill-opacity:1;stroke:#00ff00;stroke-width:0.11114178;stroke-opacity:1"
       id="path1459"
       inkscape:connector-curvature="0" />
    <path
       d="m 80.688852,23.580034 q -0.21418,0 -0.338635,0.16787 -0.124456,0.166423 -0.124456,0.457302 0,0.290879 0.123009,0.458749 0.124455,0.166424 0.340082,0.166424 0.212732,0 0.337188,-0.167871 0.124455,-0.16787 0.124455,-0.457302 0,-0.287984 -0.124455,-0.455855 -0.124456,-0.169317 -0.337188,-0.169317 z m 0,-0.225757 q 0.347318,0 0.545579,0.225757 0.19826,0.225757 0.19826,0.625172 0,0.397969 -0.19826,0.625173 -0.198261,0.225756 -0.545579,0.225756 -0.348765,0 -0.547026,-0.225756 -0.196814,-0.227204 -0.196814,-0.625173 0,-0.399415 0.196814,-0.625172 0.198261,-0.225757 0.547026,-0.225757 z"
       style="fill:none;fill-opacity:1;stroke:#00ff00;stroke-width:0.11114178;stroke-opacity:1"
       id="path1461"
       inkscape:connector-curvature="0" />
    <path
       d="M 81.845131,24.374524 V 23.39335 h 0.266277 v 0.971044 q 0,0.230098 0.08972,0.345871 0.08972,0.114325 0.269171,0.114325 0.215627,0 0.340083,-0.13748 0.125902,-0.13748 0.125902,-0.374814 V 23.39335 h 0.266278 v 1.620818 h -0.266278 v -0.248911 q -0.09696,0.14761 -0.225756,0.219968 -0.12735,0.07091 -0.296668,0.07091 -0.279301,0 -0.424017,-0.173659 -0.144716,-0.173659 -0.144716,-0.507952 z m 0.670034,-1.020247 z"
       style="fill:none;fill-opacity:1;stroke:#00ff00;stroke-width:0.11114178;stroke-opacity:1"
       id="path1463"
       inkscape:connector-curvature="0" />
    <path
       d="m 84.693139,23.642262 q -0.04486,-0.02605 -0.09841,-0.03763 -0.0521,-0.01302 -0.115773,-0.01302 -0.225757,0 -0.347318,0.14761 -0.120114,0.146163 -0.120114,0.421123 v 0.853824 H 83.743803 V 23.39335 h 0.267724 v 0.251806 q 0.08393,-0.14761 0.218521,-0.218521 0.134586,-0.07236 0.327058,-0.07236 0.0275,0 0.06078,0.0043 0.03329,0.0029 0.07381,0.01013 z"
       style="fill:none;fill-opacity:1;stroke:#00ff00;stroke-width:0.11114178;stroke-opacity:1"
       id="path1465"
       inkscape:connector-curvature="0" />
    <path
       d="m 86.078069,23.455578 v 0.248911 q -0.112879,-0.06223 -0.227204,-0.09262 -0.112879,-0.03184 -0.228651,-0.03184 -0.259042,0 -0.40231,0.164976 -0.143269,0.163529 -0.143269,0.460196 0,0.296668 0.143269,0.461644 0.143268,0.163529 0.40231,0.163529 0.115772,0 0.228651,-0.03039 0.114325,-0.03184 0.227204,-0.09407 v 0.246017 q -0.111431,0.0521 -0.231546,0.07815 -0.118667,0.02605 -0.253252,0.02605 -0.366131,0 -0.581758,-0.230098 -0.215627,-0.230098 -0.215627,-0.620831 0,-0.396521 0.217074,-0.623725 0.218521,-0.227204 0.597677,-0.227204 0.123008,0 0.240228,0.02605 0.11722,0.0246 0.227204,0.07525 z"
       style="fill:none;fill-opacity:1;stroke:#00ff00;stroke-width:0.11114178;stroke-opacity:1"
       id="path1467"
       inkscape:connector-curvature="0" />
    <path
       d="m 87.930432,24.13719 v 0.130244 h -1.224296 q 0.01736,0.27496 0.164976,0.419676 0.149057,0.143269 0.413887,0.143269 0.153399,0 0.296667,-0.03763 0.144716,-0.03763 0.286538,-0.112879 v 0.251806 q -0.143269,0.06078 -0.293773,0.09262 -0.150505,0.03184 -0.305351,0.03184 -0.387838,0 -0.615042,-0.225756 -0.225757,-0.225757 -0.225757,-0.610701 0,-0.397969 0.21418,-0.630961 0.215626,-0.23444 0.58031,-0.23444 0.327058,0 0.516636,0.211285 0.191025,0.209838 0.191025,0.571628 z m -0.266278,-0.07815 q -0.0029,-0.218521 -0.123008,-0.348765 -0.118667,-0.130244 -0.315481,-0.130244 -0.222862,0 -0.357448,0.125903 -0.133138,0.125902 -0.153398,0.354553 z"
       style="fill:none;fill-opacity:1;stroke:#00ff00;stroke-width:0.11114178;stroke-opacity:1"
       id="path1469"
       inkscape:connector-curvature="0" />
    <path
       d="m 88.4051,24.64659 h 0.30535 v 0.367578 H 88.4051 Z"
       style="fill:none;fill-opacity:1;stroke:#00ff00;stroke-width:0.11114178;stroke-opacity:1"
       id="path1471"
       inkscape:connector-curvature="0" />
    <path
       d="m 90.658326,24.035889 v 0.978279 h -0.266277 v -0.969596 q 0,-0.230099 -0.08972,-0.344424 -0.08972,-0.114326 -0.269171,-0.114326 -0.215627,0 -0.340083,0.13748 -0.124455,0.137481 -0.124455,0.374815 v 0.916051 H 89.300892 V 23.39335 h 0.267724 v 0.251806 q 0.09551,-0.146163 0.224309,-0.218521 0.130245,-0.07236 0.299562,-0.07236 0.279302,0 0.42257,0.173659 0.143269,0.172212 0.143269,0.507953 z"
       style="fill:none;fill-opacity:1;stroke:#00ff00;stroke-width:0.11114178;stroke-opacity:1"
       id="path1473"
       inkscape:connector-curvature="0" />
    <path
       d="m 92.578705,24.13719 v 0.130244 h -1.224296 q 0.01737,0.27496 0.164976,0.419676 0.149057,0.143269 0.413887,0.143269 0.153399,0 0.296668,-0.03763 0.144716,-0.03763 0.286537,-0.112879 v 0.251806 q -0.143268,0.06078 -0.293773,0.09262 -0.150504,0.03184 -0.30535,0.03184 -0.387839,0 -0.615043,-0.225756 -0.225756,-0.225757 -0.225756,-0.610701 0,-0.397969 0.214179,-0.630961 0.215627,-0.23444 0.580311,-0.23444 0.327057,0 0.516635,0.211285 0.191025,0.209838 0.191025,0.571628 z m -0.266277,-0.07815 q -0.0029,-0.218521 -0.123009,-0.348765 -0.118667,-0.130244 -0.31548,-0.130244 -0.222862,0 -0.357448,0.125903 -0.133139,0.125902 -0.153399,0.354553 z"
       style="fill:none;fill-opacity:1;stroke:#00ff00;stroke-width:0.11114178;stroke-opacity:1"
       id="path1475"
       inkscape:connector-curvature="0" />
    <path
       d="m 93.27913,22.933154 v 0.460196 h 0.548473 v 0.206944 H 93.27913 v 0.879872 q 0,0.198261 0.05354,0.2547 0.05499,0.05644 0.221415,0.05644 h 0.273513 v 0.222863 H 93.55409 q -0.308245,0 -0.425465,-0.114326 -0.11722,-0.115772 -0.11722,-0.419676 V 23.600294 H 92.816039 V 23.39335 h 0.195366 v -0.460196 z"
       style="fill:none;fill-opacity:1;stroke:#00ff00;stroke-width:0.11114178;stroke-opacity:1"
       id="path1477"
       inkscape:connector-curvature="0" />
  </g>
  <g
     aria-label="Designed and Created By Open to Source at the Kamloops Makerspace"
     style="font-style:normal;font-weight:normal;font-size:4.05294847px;line-height:1.25;font-family:sans-serif;text-align:center;letter-spacing:0px;word-spacing:0px;text-anchor:middle;fill:none;fill-opacity:1;stroke:#00ff00;stroke-width:0.15198559;stroke-opacity:1"
     id="text961"
     transform="translate(3.1750001)">
    <path
       d="m 8.989602,18.791969 v 2.297594 h 0.4828709 q 0.6115041,0 0.8944981,-0.277057 0.284973,-0.277057 0.284973,-0.874708 0,-0.593694 -0.284973,-0.868772 -0.282994,-0.277057 -0.8944981,-0.277057 z M 8.5898483,18.463458 h 0.8212762 q 0.8588765,0 1.2606095,0.358196 0.401733,0.356216 0.401733,1.116144 0,0.763885 -0.403712,1.122081 -0.403712,0.358195 -1.2586305,0.358195 H 8.5898483 Z"
       style="fill:none;fill-opacity:1;stroke:#00ff00;stroke-width:0.15198559;stroke-opacity:1"
       id="path1480"
       inkscape:connector-curvature="0" />
    <path
       d="m 13.588749,20.218813 v 0.178108 h -1.674216 q 0.02375,0.376006 0.225603,0.573903 0.203835,0.195919 0.565988,0.195919 0.209772,0 0.405691,-0.05145 0.197898,-0.05145 0.391838,-0.15436 v 0.344342 q -0.195919,0.08312 -0.401733,0.126655 -0.205814,0.04354 -0.417565,0.04354 -0.530366,0 -0.841066,-0.308721 -0.30872,-0.30872 -0.30872,-0.835129 0,-0.544219 0.292889,-0.862834 0.294867,-0.320595 0.79357,-0.320595 0.447249,0 0.706495,0.288931 0.261226,0.286952 0.261226,0.781697 z m -0.364132,-0.106865 q -0.004,-0.298826 -0.168214,-0.476934 -0.162276,-0.178108 -0.431417,-0.178108 -0.304763,0 -0.488808,0.172171 -0.182066,0.172171 -0.209772,0.48485 z"
       style="fill:none;fill-opacity:1;stroke:#00ff00;stroke-width:0.15198559;stroke-opacity:1"
       id="path1482"
       inkscape:connector-curvature="0" />
    <path
       d="m 15.599391,19.266924 v 0.344342 q -0.15436,-0.07916 -0.320594,-0.118739 -0.166235,-0.03958 -0.344343,-0.03958 -0.27112,0 -0.407669,0.08312 -0.134571,0.08312 -0.134571,0.249351 0,0.126655 0.09697,0.199877 0.09697,0.07124 0.389859,0.13655 l 0.124676,0.02771 q 0.387879,0.08312 0.550156,0.235499 0.164255,0.150402 0.164255,0.421522 0,0.308721 -0.245393,0.488808 -0.243415,0.180087 -0.670874,0.180087 -0.178108,0 -0.372048,-0.03562 -0.191961,-0.03364 -0.405691,-0.102906 V 20.96093 q 0.201856,0.104885 0.397775,0.158318 0.195919,0.05145 0.38788,0.05145 0.257267,0 0.395795,-0.08708 0.138529,-0.08905 0.138529,-0.249351 0,-0.148423 -0.100928,-0.227583 -0.09895,-0.07916 -0.437354,-0.152381 l -0.126655,-0.02969 q -0.338405,-0.07124 -0.488808,-0.217687 -0.150402,-0.148424 -0.150402,-0.405691 0,-0.312679 0.221646,-0.482871 0.221645,-0.170192 0.629315,-0.170192 0.201856,0 0.379964,0.02968 0.178108,0.02968 0.32851,0.08905 z"
       style="fill:none;fill-opacity:1;stroke:#00ff00;stroke-width:0.15198559;stroke-opacity:1"
       id="path1484"
       inkscape:connector-curvature="0" />
    <path
       d="m 16.29995,19.201617 h 0.364132 v 2.216457 H 16.29995 Z m 0,-0.862834 h 0.364132 v 0.461102 H 16.29995 Z"
       style="fill:none;fill-opacity:1;stroke:#00ff00;stroke-width:0.15198559;stroke-opacity:1"
       id="path1486"
       inkscape:connector-curvature="0" />
    <path
       d="m 18.882517,20.284119 q 0,-0.395796 -0.164256,-0.613484 -0.162276,-0.217687 -0.457144,-0.217687 -0.292889,0 -0.457144,0.217687 -0.162276,0.217688 -0.162276,0.613484 0,0.393817 0.162276,0.611504 0.164255,0.217688 0.457144,0.217688 0.294868,0 0.457144,-0.217688 0.164256,-0.217687 0.164256,-0.611504 z m 0.364132,0.858877 q 0,0.565988 -0.251331,0.841066 -0.25133,0.277057 -0.769822,0.277057 -0.191961,0 -0.362153,-0.02969 -0.170193,-0.02771 -0.33049,-0.08707 v -0.354237 q 0.160297,0.08707 0.316637,0.128633 0.156339,0.04156 0.318615,0.04156 0.358195,0 0.536304,-0.188003 0.178108,-0.186024 0.178108,-0.564009 v -0.180087 q -0.112802,0.195919 -0.288931,0.292889 -0.176129,0.09697 -0.421523,0.09697 -0.407669,0 -0.657021,-0.3107 -0.249351,-0.3107 -0.249351,-0.823255 0,-0.514535 0.249351,-0.825234 0.249352,-0.3107 0.657021,-0.3107 0.245394,0 0.421523,0.09697 0.176129,0.09697 0.288931,0.292889 v -0.336427 h 0.364132 z"
       style="fill:none;fill-opacity:1;stroke:#00ff00;stroke-width:0.15198559;stroke-opacity:1"
       id="path1488"
       inkscape:connector-curvature="0" />
    <path
       d="m 21.83911,20.080284 v 1.33779 h -0.364132 v -1.325916 q 0,-0.314658 -0.122696,-0.470997 -0.122697,-0.156339 -0.36809,-0.156339 -0.294868,0 -0.46506,0.188003 -0.170193,0.188003 -0.170193,0.512555 v 1.252694 h -0.366111 v -2.216457 h 0.366111 v 0.344343 q 0.130613,-0.199877 0.306742,-0.298826 0.178108,-0.09895 0.409649,-0.09895 0.381943,0 0.577861,0.237477 0.195919,0.235499 0.195919,0.694622 z"
       style="fill:none;fill-opacity:1;stroke:#00ff00;stroke-width:0.15198559;stroke-opacity:1"
       id="path1490"
       inkscape:connector-curvature="0" />
    <path
       d="m 24.465216,20.218813 v 0.178108 H 22.791 q 0.02375,0.376006 0.225603,0.573903 0.203835,0.195919 0.565988,0.195919 0.209772,0 0.405691,-0.05145 0.197898,-0.05145 0.391838,-0.15436 v 0.344342 q -0.195919,0.08312 -0.401733,0.126655 -0.205814,0.04354 -0.417565,0.04354 -0.530366,0 -0.841066,-0.308721 -0.30872,-0.30872 -0.30872,-0.835129 0,-0.544219 0.292889,-0.862834 0.294867,-0.320595 0.79357,-0.320595 0.447249,0 0.706495,0.288931 0.261226,0.286952 0.261226,0.781697 z m -0.364132,-0.106865 q -0.004,-0.298826 -0.168214,-0.476934 -0.162276,-0.178108 -0.431417,-0.178108 -0.304763,0 -0.488808,0.172171 -0.182066,0.172171 -0.209772,0.48485 z"
       style="fill:none;fill-opacity:1;stroke:#00ff00;stroke-width:0.15198559;stroke-opacity:1"
       id="path1492"
       inkscape:connector-curvature="0" />
    <path
       d="m 26.521373,19.538044 v -1.199261 h 0.364133 v 3.079291 h -0.364133 v -0.332469 q -0.11478,0.197898 -0.290909,0.294868 -0.174151,0.09499 -0.419544,0.09499 -0.401733,0 -0.655042,-0.320595 -0.25133,-0.320594 -0.25133,-0.843044 0,-0.522451 0.25133,-0.843045 0.253309,-0.320595 0.655042,-0.320595 0.245393,0 0.419544,0.09697 0.176129,0.09499 0.290909,0.292889 z m -1.240819,0.773781 q 0,0.401732 0.164255,0.631294 0.166234,0.227582 0.455165,0.227582 0.288931,0 0.455165,-0.227582 0.166234,-0.229562 0.166234,-0.631294 0,-0.401733 -0.166234,-0.629316 -0.166234,-0.229561 -0.455165,-0.229561 -0.288931,0 -0.455165,0.229561 -0.164255,0.227583 -0.164255,0.629316 z"
       style="fill:none;fill-opacity:1;stroke:#00ff00;stroke-width:0.15198559;stroke-opacity:1"
       id="path1494"
       inkscape:connector-curvature="0" />
    <path
       d="m 29.933135,20.303909 q -0.441312,0 -0.611505,0.100928 -0.170192,0.100927 -0.170192,0.344342 0,0.19394 0.126655,0.308721 0.128633,0.112801 0.3483,0.112801 0.302784,0 0.48485,-0.213729 0.184045,-0.215709 0.184045,-0.571925 v -0.08114 z m 0.726285,-0.150403 v 1.264568 h -0.364132 v -0.336427 q -0.124676,0.201856 -0.3107,0.298826 -0.186024,0.09499 -0.455165,0.09499 -0.340384,0 -0.54224,-0.189982 -0.199877,-0.191961 -0.199877,-0.512555 0,-0.374027 0.249351,-0.564009 0.251331,-0.189982 0.748054,-0.189982 h 0.510577 v -0.03562 q 0,-0.25133 -0.166234,-0.38788 -0.164256,-0.138528 -0.463081,-0.138528 -0.189982,0 -0.370069,0.04552 -0.180087,0.04552 -0.346322,0.13655 V 19.30255 q 0.199877,-0.07718 0.38788,-0.11478 0.188003,-0.03958 0.366111,-0.03958 0.480892,0 0.71837,0.249351 0.237477,0.249352 0.237477,0.75597 z"
       style="fill:none;fill-opacity:1;stroke:#00ff00;stroke-width:0.15198559;stroke-opacity:1"
       id="path1496"
       inkscape:connector-curvature="0" />
    <path
       d="m 33.25386,20.080284 v 1.33779 h -0.364133 v -1.325916 q 0,-0.314658 -0.122696,-0.470997 -0.122697,-0.156339 -0.36809,-0.156339 -0.294868,0 -0.46506,0.188003 -0.170192,0.188003 -0.170192,0.512555 v 1.252694 h -0.366112 v -2.216457 h 0.366112 v 0.344343 q 0.130612,-0.199877 0.306741,-0.298826 0.178108,-0.09895 0.409649,-0.09895 0.381943,0 0.577862,0.237477 0.195919,0.235499 0.195919,0.694622 z"
       style="fill:none;fill-opacity:1;stroke:#00ff00;stroke-width:0.15198559;stroke-opacity:1"
       id="path1498"
       inkscape:connector-curvature="0" />
    <path
       d="m 35.442611,19.538044 v -1.199261 h 0.364133 v 3.079291 h -0.364133 v -0.332469 q -0.11478,0.197898 -0.290909,0.294868 -0.174151,0.09499 -0.419544,0.09499 -0.401733,0 -0.655042,-0.320595 -0.25133,-0.320594 -0.25133,-0.843044 0,-0.522451 0.25133,-0.843045 0.253309,-0.320595 0.655042,-0.320595 0.245393,0 0.419544,0.09697 0.176129,0.09499 0.290909,0.292889 z m -1.240819,0.773781 q 0,0.401732 0.164255,0.631294 0.166234,0.227582 0.455165,0.227582 0.288931,0 0.455165,-0.227582 0.166234,-0.229562 0.166234,-0.631294 0,-0.401733 -0.166234,-0.629316 -0.166234,-0.229561 -0.455165,-0.229561 -0.288931,0 -0.455165,0.229561 -0.164255,0.227583 -0.164255,0.629316 z"
       style="fill:none;fill-opacity:1;stroke:#00ff00;stroke-width:0.15198559;stroke-opacity:1"
       id="path1500"
       inkscape:connector-curvature="0" />
    <path
       d="m 40.075401,18.691041 v 0.421522 q -0.201856,-0.188003 -0.431418,-0.281015 -0.227582,-0.09301 -0.484849,-0.09301 -0.506619,0 -0.77576,0.3107 -0.269141,0.308721 -0.269141,0.894498 0,0.583799 0.269141,0.894499 0.269141,0.308721 0.77576,0.308721 0.257267,0 0.484849,-0.09301 0.229562,-0.09301 0.431418,-0.281015 v 0.417564 q -0.209772,0.142487 -0.445271,0.21373 -0.233519,0.07124 -0.494744,0.07124 -0.670874,0 -1.056775,-0.409649 -0.385901,-0.411627 -0.385901,-1.122081 0,-0.712432 0.385901,-1.12208 0.385901,-0.411628 1.056775,-0.411628 0.265183,0 0.498702,0.07124 0.235499,0.06926 0.441313,0.209772 z"
       style="fill:none;fill-opacity:1;stroke:#00ff00;stroke-width:0.15198559;stroke-opacity:1"
       id="path1502"
       inkscape:connector-curvature="0" />
    <path
       d="m 41.965326,19.542002 q -0.06135,-0.03562 -0.13457,-0.05145 -0.07124,-0.01781 -0.158318,-0.01781 -0.308721,0 -0.474955,0.201855 -0.164256,0.199877 -0.164256,0.575883 v 1.167598 h -0.366111 v -2.216457 h 0.366111 v 0.344343 q 0.114781,-0.201856 0.298826,-0.298826 0.184045,-0.09895 0.447249,-0.09895 0.0376,0 0.08312,0.0059 0.04552,0.004 0.100928,0.01385 z"
       style="fill:none;fill-opacity:1;stroke:#00ff00;stroke-width:0.15198559;stroke-opacity:1"
       id="path1504"
       inkscape:connector-curvature="0" />
    <path
       d="m 44.16001,20.218813 v 0.178108 h -1.674216 q 0.02375,0.376006 0.225604,0.573903 0.203835,0.195919 0.565988,0.195919 0.209772,0 0.40569,-0.05145 0.197898,-0.05145 0.391838,-0.15436 v 0.344342 q -0.195919,0.08312 -0.401732,0.126655 -0.205814,0.04354 -0.417565,0.04354 -0.530366,0 -0.841066,-0.308721 -0.308721,-0.30872 -0.308721,-0.835129 0,-0.544219 0.292889,-0.862834 0.294868,-0.320595 0.793571,-0.320595 0.447249,0 0.706495,0.288931 0.261225,0.286952 0.261225,0.781697 z m -0.364132,-0.106865 q -0.004,-0.298826 -0.168213,-0.476934 -0.162276,-0.178108 -0.431417,-0.178108 -0.304763,0 -0.488808,0.172171 -0.182066,0.172171 -0.209772,0.48485 z"
       style="fill:none;fill-opacity:1;stroke:#00ff00;stroke-width:0.15198559;stroke-opacity:1"
       id="path1506"
       inkscape:connector-curvature="0" />
    <path
       d="m 45.764964,20.303909 q -0.441312,0 -0.611505,0.100928 -0.170192,0.100927 -0.170192,0.344342 0,0.19394 0.126655,0.308721 0.128634,0.112801 0.3483,0.112801 0.302784,0 0.48485,-0.213729 0.184045,-0.215709 0.184045,-0.571925 v -0.08114 z m 0.726285,-0.150403 v 1.264568 h -0.364132 v -0.336427 q -0.124676,0.201856 -0.3107,0.298826 -0.186024,0.09499 -0.455165,0.09499 -0.340384,0 -0.54224,-0.189982 -0.199877,-0.191961 -0.199877,-0.512555 0,-0.374027 0.249351,-0.564009 0.251331,-0.189982 0.748054,-0.189982 h 0.510577 v -0.03562 q 0,-0.25133 -0.166234,-0.38788 -0.164255,-0.138528 -0.463081,-0.138528 -0.189982,0 -0.370069,0.04552 -0.180087,0.04552 -0.346322,0.13655 V 19.30255 q 0.199877,-0.07718 0.38788,-0.11478 0.188003,-0.03958 0.366111,-0.03958 0.480892,0 0.71837,0.249351 0.237477,0.249352 0.237477,0.75597 z"
       style="fill:none;fill-opacity:1;stroke:#00ff00;stroke-width:0.15198559;stroke-opacity:1"
       id="path1508"
       inkscape:connector-curvature="0" />
    <path
       d="m 47.603433,18.572302 v 0.629315 h 0.750033 v 0.282994 h -0.750033 v 1.203219 q 0,0.271121 0.07322,0.348301 0.0752,0.07718 0.302783,0.07718 h 0.374027 v 0.304763 h -0.374027 q -0.421522,0 -0.581819,-0.15634 -0.160298,-0.158318 -0.160298,-0.573904 V 19.484611 H 46.97016 v -0.282994 h 0.267162 v -0.629315 z"
       style="fill:none;fill-opacity:1;stroke:#00ff00;stroke-width:0.15198559;stroke-opacity:1"
       id="path1510"
       inkscape:connector-curvature="0" />
    <path
       d="m 50.73022,20.218813 v 0.178108 h -1.674216 q 0.02375,0.376006 0.225603,0.573903 0.203835,0.195919 0.565988,0.195919 0.209772,0 0.405691,-0.05145 0.197898,-0.05145 0.391838,-0.15436 v 0.344342 q -0.195919,0.08312 -0.401733,0.126655 -0.205814,0.04354 -0.417564,0.04354 -0.530367,0 -0.841066,-0.308721 -0.308721,-0.30872 -0.308721,-0.835129 0,-0.544219 0.292889,-0.862834 0.294868,-0.320595 0.79357,-0.320595 0.447249,0 0.706496,0.288931 0.261225,0.286952 0.261225,0.781697 z m -0.364132,-0.106865 q -0.004,-0.298826 -0.168213,-0.476934 -0.162277,-0.178108 -0.431418,-0.178108 -0.304763,0 -0.488808,0.172171 -0.182066,0.172171 -0.209771,0.48485 z"
       style="fill:none;fill-opacity:1;stroke:#00ff00;stroke-width:0.15198559;stroke-opacity:1"
       id="path1512"
       inkscape:connector-curvature="0" />
    <path
       d="m 52.786381,19.538044 v -1.199261 h 0.364132 v 3.079291 h -0.364132 v -0.332469 q -0.114781,0.197898 -0.29091,0.294868 -0.174151,0.09499 -0.419544,0.09499 -0.401733,0 -0.655042,-0.320595 -0.25133,-0.320594 -0.25133,-0.843044 0,-0.522451 0.25133,-0.843045 0.253309,-0.320595 0.655042,-0.320595 0.245393,0 0.419544,0.09697 0.176129,0.09499 0.29091,0.292889 z m -1.24082,0.773781 q 0,0.401732 0.164255,0.631294 0.166234,0.227582 0.455165,0.227582 0.288931,0 0.455165,-0.227582 0.166235,-0.229562 0.166235,-0.631294 0,-0.401733 -0.166235,-0.629316 -0.166234,-0.229561 -0.455165,-0.229561 -0.288931,0 -0.455165,0.229561 -0.164255,0.227583 -0.164255,0.629316 z"
       style="fill:none;fill-opacity:1;stroke:#00ff00;stroke-width:0.15198559;stroke-opacity:1"
       id="path1514"
       inkscape:connector-curvature="0" />
    <path
       d="m 55.606423,20.007062 v 1.082501 h 0.641189 q 0.322574,0 0.476934,-0.132591 0.15634,-0.134571 0.15634,-0.409649 0,-0.277057 -0.15634,-0.40767 -0.15436,-0.132591 -0.476934,-0.132591 z m 0,-1.215093 v 0.89054 h 0.591715 q 0.292889,0 0.435375,-0.108844 0.144466,-0.110822 0.144466,-0.336426 0,-0.223625 -0.144466,-0.334447 -0.142486,-0.110823 -0.435375,-0.110823 z M 55.20667,18.463458 h 1.021153 q 0.457144,0 0.704516,0.189982 0.247372,0.189982 0.247372,0.540262 0,0.27112 -0.126654,0.431417 -0.126655,0.160297 -0.372048,0.199877 0.294868,0.06333 0.457144,0.265183 0.164255,0.199877 0.164255,0.500682 0,0.395795 -0.269141,0.611504 -0.269141,0.215709 -0.765865,0.215709 H 55.20667 Z"
       style="fill:none;fill-opacity:1;stroke:#00ff00;stroke-width:0.15198559;stroke-opacity:1"
       id="path1516"
       inkscape:connector-curvature="0" />
    <path
       d="m 58.89153,21.623887 q -0.15436,0.395796 -0.300805,0.516514 -0.146444,0.120718 -0.391838,0.120718 h -0.290909 v -0.304763 h 0.213729 q 0.150403,0 0.23352,-0.07124 0.08312,-0.07124 0.184045,-0.336427 l 0.06531,-0.166234 -0.896477,-2.180835 h 0.385901 l 0.692642,1.733586 0.692643,-1.733586 h 0.385901 z"
       style="fill:none;fill-opacity:1;stroke:#00ff00;stroke-width:0.15198559;stroke-opacity:1"
       id="path1518"
       inkscape:connector-curvature="0" />
    <path
       d="m 62.873235,18.734578 q -0.435375,0 -0.692643,0.324553 -0.255288,0.324553 -0.255288,0.884603 0,0.558072 0.255288,0.882625 0.257268,0.324553 0.692643,0.324553 0.435375,0 0.688685,-0.324553 0.255288,-0.324553 0.255288,-0.882625 0,-0.56005 -0.255288,-0.884603 -0.25331,-0.324553 -0.688685,-0.324553 z m 0,-0.324552 q 0.621399,0 0.993447,0.417564 0.372048,0.415586 0.372048,1.116144 0,0.69858 -0.372048,1.116145 -0.372048,0.415585 -0.993447,0.415585 -0.623378,0 -0.997405,-0.415585 -0.372048,-0.415586 -0.372048,-1.116145 0,-0.700558 0.372048,-1.116144 0.374027,-0.417564 0.997405,-0.417564 z"
       style="fill:none;fill-opacity:1;stroke:#00ff00;stroke-width:0.15198559;stroke-opacity:1"
       id="path1520"
       inkscape:connector-curvature="0" />
    <path
       d="m 65.200513,21.085605 v 1.175514 h -0.366111 v -3.059502 h 0.366111 v 0.336427 q 0.114781,-0.197898 0.288931,-0.292889 0.176129,-0.09697 0.419544,-0.09697 0.403711,0 0.655042,0.320595 0.253309,0.320594 0.253309,0.843045 0,0.52245 -0.253309,0.843044 -0.251331,0.320595 -0.655042,0.320595 -0.243415,0 -0.419544,-0.09499 -0.17415,-0.09697 -0.288931,-0.294868 z m 1.238841,-0.77378 q 0,-0.401733 -0.166234,-0.629316 -0.164255,-0.229561 -0.453186,-0.229561 -0.288931,0 -0.455165,0.229561 -0.164256,0.227583 -0.164256,0.629316 0,0.401732 0.164256,0.631294 0.166234,0.227582 0.455165,0.227582 0.288931,0 0.453186,-0.227582 0.166234,-0.229562 0.166234,-0.631294 z"
       style="fill:none;fill-opacity:1;stroke:#00ff00;stroke-width:0.15198559;stroke-opacity:1"
       id="path1522"
       inkscape:connector-curvature="0" />
    <path
       d="m 69.316791,20.218813 v 0.178108 h -1.674216 q 0.02375,0.376006 0.225603,0.573903 0.203835,0.195919 0.565988,0.195919 0.209772,0 0.405691,-0.05145 0.197898,-0.05145 0.391837,-0.15436 v 0.344342 q -0.195918,0.08312 -0.401732,0.126655 -0.205814,0.04354 -0.417565,0.04354 -0.530366,0 -0.841066,-0.308721 -0.30872,-0.30872 -0.30872,-0.835129 0,-0.544219 0.292888,-0.862834 0.294868,-0.320595 0.793571,-0.320595 0.447249,0 0.706495,0.288931 0.261226,0.286952 0.261226,0.781697 z m -0.364133,-0.106865 q -0.004,-0.298826 -0.168213,-0.476934 -0.162276,-0.178108 -0.431417,-0.178108 -0.304763,0 -0.488808,0.172171 -0.182066,0.172171 -0.209772,0.48485 z"
       style="fill:none;fill-opacity:1;stroke:#00ff00;stroke-width:0.15198559;stroke-opacity:1"
       id="path1524"
       inkscape:connector-curvature="0" />
    <path
       d="m 71.756869,20.080284 v 1.33779 h -0.364132 v -1.325916 q 0,-0.314658 -0.122696,-0.470997 -0.122697,-0.156339 -0.368091,-0.156339 -0.294867,0 -0.46506,0.188003 -0.170192,0.188003 -0.170192,0.512555 v 1.252694 h -0.366111 v -2.216457 h 0.366111 v 0.344343 q 0.130613,-0.199877 0.306742,-0.298826 0.178108,-0.09895 0.409649,-0.09895 0.381943,0 0.577861,0.237477 0.195919,0.235499 0.195919,0.694622 z"
       style="fill:none;fill-opacity:1;stroke:#00ff00;stroke-width:0.15198559;stroke-opacity:1"
       id="path1526"
       inkscape:connector-curvature="0" />
    <path
       d="m 74.137583,18.572302 v 0.629315 h 0.750033 v 0.282994 h -0.750033 v 1.203219 q 0,0.271121 0.07322,0.348301 0.0752,0.07718 0.302784,0.07718 h 0.374027 v 0.304763 h -0.374027 q -0.421523,0 -0.58182,-0.15634 Q 73.77147,21.103416 73.77147,20.68783 v -1.203219 h -0.267163 v -0.282994 h 0.267163 v -0.629315 z"
       style="fill:none;fill-opacity:1;stroke:#00ff00;stroke-width:0.15198559;stroke-opacity:1"
       id="path1528"
       inkscape:connector-curvature="0" />
    <path
       d="m 76.22738,19.456906 q -0.292889,0 -0.463081,0.229561 -0.170192,0.227583 -0.170192,0.625358 0,0.397774 0.168213,0.627336 0.170192,0.227582 0.46506,0.227582 0.29091,0 0.461102,-0.229561 0.170193,-0.229562 0.170193,-0.625357 0,-0.393817 -0.170193,-0.623379 -0.170192,-0.23154 -0.461102,-0.23154 z m 0,-0.308721 q 0.474955,0 0.746075,0.308721 0.27112,0.30872 0.27112,0.854919 0,0.544219 -0.27112,0.854918 -0.27112,0.308721 -0.746075,0.308721 -0.476934,0 -0.748054,-0.308721 -0.269141,-0.310699 -0.269141,-0.854918 0,-0.546199 0.269141,-0.854919 0.27112,-0.308721 0.748054,-0.308721 z"
       style="fill:none;fill-opacity:1;stroke:#00ff00;stroke-width:0.15198559;stroke-opacity:1"
       id="path1530"
       inkscape:connector-curvature="0" />
    <path
       d="m 80.923504,18.560428 v 0.389859 q -0.227583,-0.108844 -0.429439,-0.162276 -0.201855,-0.05343 -0.389858,-0.05343 -0.326532,0 -0.50464,0.126655 -0.176129,0.126655 -0.176129,0.360174 0,0.195919 0.11676,0.296847 0.118738,0.09895 0.447249,0.160297 l 0.241435,0.04948 q 0.447249,0.0851 0.659,0.300805 0.21373,0.213729 0.21373,0.573903 0,0.429439 -0.288931,0.651084 -0.286952,0.221646 -0.843045,0.221646 -0.209772,0 -0.447249,-0.04749 -0.235499,-0.0475 -0.488808,-0.140508 v -0.411628 q 0.243414,0.13655 0.476934,0.205814 0.233519,0.06927 0.459123,0.06927 0.342363,0 0.528387,-0.134571 0.186024,-0.134571 0.186024,-0.383922 0,-0.217688 -0.13457,-0.340384 -0.132592,-0.122697 -0.437354,-0.184045 l -0.243415,-0.0475 q -0.447249,-0.08905 -0.647126,-0.279036 -0.199877,-0.189982 -0.199877,-0.528387 0,-0.391838 0.275078,-0.617441 0.277057,-0.225604 0.761907,-0.225604 0.207793,0 0.423502,0.0376 0.215708,0.0376 0.441312,0.112801 z"
       style="fill:none;fill-opacity:1;stroke:#00ff00;stroke-width:0.15198559;stroke-opacity:1"
       id="path1532"
       inkscape:connector-curvature="0" />
    <path
       d="m 82.568033,19.456906 q -0.292889,0 -0.463081,0.229561 -0.170192,0.227583 -0.170192,0.625358 0,0.397774 0.168213,0.627336 0.170192,0.227582 0.46506,0.227582 0.29091,0 0.461102,-0.229561 0.170192,-0.229562 0.170192,-0.625357 0,-0.393817 -0.170192,-0.623379 -0.170192,-0.23154 -0.461102,-0.23154 z m 0,-0.308721 q 0.474955,0 0.746075,0.308721 0.27112,0.30872 0.27112,0.854919 0,0.544219 -0.27112,0.854918 -0.27112,0.308721 -0.746075,0.308721 -0.476934,0 -0.748054,-0.308721 -0.269141,-0.310699 -0.269141,-0.854918 0,-0.546199 0.269141,-0.854919 0.27112,-0.308721 0.748054,-0.308721 z"
       style="fill:none;fill-opacity:1;stroke:#00ff00;stroke-width:0.15198559;stroke-opacity:1"
       id="path1534"
       inkscape:connector-curvature="0" />
    <path
       d="m 84.149239,20.543365 v -1.341748 h 0.364132 v 1.327895 q 0,0.314658 0.122697,0.472976 0.122697,0.156339 0.36809,0.156339 0.294868,0 0.46506,-0.188003 0.172171,-0.188003 0.172171,-0.512555 v -1.256652 h 0.364132 v 2.216457 h -0.364132 v -0.340385 q -0.132591,0.201856 -0.30872,0.300805 -0.17415,0.09697 -0.405691,0.09697 -0.381943,0 -0.579841,-0.237477 -0.197898,-0.237478 -0.197898,-0.694622 z m 0.916268,-1.39518 z"
       style="fill:none;fill-opacity:1;stroke:#00ff00;stroke-width:0.15198559;stroke-opacity:1"
       id="path1536"
       inkscape:connector-curvature="0" />
    <path
       d="m 88.043867,19.542002 q -0.06135,-0.03562 -0.13457,-0.05145 -0.07124,-0.01781 -0.158319,-0.01781 -0.30872,0 -0.474955,0.201855 -0.164255,0.199877 -0.164255,0.575883 v 1.167598 h -0.366111 v -2.216457 h 0.366111 v 0.344343 q 0.114781,-0.201856 0.298826,-0.298826 0.184045,-0.09895 0.447249,-0.09895 0.0376,0 0.08312,0.0059 0.04552,0.004 0.100928,0.01385 z"
       style="fill:none;fill-opacity:1;stroke:#00ff00;stroke-width:0.15198559;stroke-opacity:1"
       id="path1538"
       inkscape:connector-curvature="0" />
    <path
       d="m 89.93775,19.286714 v 0.340384 q -0.15436,-0.0851 -0.3107,-0.126655 -0.15436,-0.04354 -0.312678,-0.04354 -0.354237,0 -0.550156,0.225603 -0.195919,0.223625 -0.195919,0.629316 0,0.40569 0.195919,0.631294 0.195919,0.223624 0.550156,0.223624 0.158318,0 0.312678,-0.04156 0.15634,-0.04354 0.3107,-0.128634 v 0.336427 q -0.152381,0.07124 -0.316636,0.106864 -0.162277,0.03562 -0.346322,0.03562 -0.500681,0 -0.795549,-0.314658 -0.294868,-0.314657 -0.294868,-0.848981 0,-0.542241 0.296847,-0.85294 0.298826,-0.3107 0.817318,-0.3107 0.168213,0 0.32851,0.03562 0.160298,0.03364 0.3107,0.102907 z"
       style="fill:none;fill-opacity:1;stroke:#00ff00;stroke-width:0.15198559;stroke-opacity:1"
       id="path1540"
       inkscape:connector-curvature="0" />
    <path
       d="m 92.470839,20.218813 v 0.178108 h -1.674216 q 0.02375,0.376006 0.225604,0.573903 0.203835,0.195919 0.565988,0.195919 0.209772,0 0.405691,-0.05145 0.197897,-0.05145 0.391837,-0.15436 v 0.344342 q -0.195919,0.08312 -0.401732,0.126655 -0.205814,0.04354 -0.417565,0.04354 -0.530366,0 -0.841066,-0.308721 -0.30872,-0.30872 -0.30872,-0.835129 0,-0.544219 0.292888,-0.862834 0.294868,-0.320595 0.793571,-0.320595 0.447249,0 0.706495,0.288931 0.261225,0.286952 0.261225,0.781697 z m -0.364132,-0.106865 q -0.004,-0.298826 -0.168213,-0.476934 -0.162276,-0.178108 -0.431417,-0.178108 -0.304763,0 -0.488808,0.172171 -0.182066,0.172171 -0.209772,0.48485 z"
       style="fill:none;fill-opacity:1;stroke:#00ff00;stroke-width:0.15198559;stroke-opacity:1"
       id="path1542"
       inkscape:connector-curvature="0" />
    <path
       d="m 95.366084,20.303909 q -0.441312,0 -0.611505,0.100928 -0.170192,0.100927 -0.170192,0.344342 0,0.19394 0.126655,0.308721 0.128633,0.112801 0.3483,0.112801 0.302784,0 0.48485,-0.213729 0.184045,-0.215709 0.184045,-0.571925 v -0.08114 z m 0.726285,-0.150403 v 1.264568 h -0.364132 v -0.336427 q -0.124676,0.201856 -0.3107,0.298826 -0.186024,0.09499 -0.455165,0.09499 -0.340384,0 -0.54224,-0.189982 -0.199877,-0.191961 -0.199877,-0.512555 0,-0.374027 0.249351,-0.564009 0.251331,-0.189982 0.748054,-0.189982 h 0.510577 v -0.03562 q 0,-0.25133 -0.166234,-0.38788 -0.164255,-0.138528 -0.463081,-0.138528 -0.189982,0 -0.370069,0.04552 -0.180087,0.04552 -0.346322,0.13655 V 19.30255 q 0.199877,-0.07718 0.38788,-0.11478 0.188003,-0.03958 0.366111,-0.03958 0.480892,0 0.71837,0.249351 0.237477,0.249352 0.237477,0.75597 z"
       style="fill:none;fill-opacity:1;stroke:#00ff00;stroke-width:0.15198559;stroke-opacity:1"
       id="path1544"
       inkscape:connector-curvature="0" />
    <path
       d="m 97.204561,18.572302 v 0.629315 h 0.750033 v 0.282994 h -0.750033 v 1.203219 q 0,0.271121 0.07322,0.348301 0.0752,0.07718 0.302784,0.07718 h 0.374027 v 0.304763 h -0.374027 q -0.421522,0 -0.58182,-0.15634 Q 96.83845,21.103416 96.83845,20.68783 v -1.203219 h -0.267162 v -0.282994 h 0.267162 v -0.629315 z"
       style="fill:none;fill-opacity:1;stroke:#00ff00;stroke-width:0.15198559;stroke-opacity:1"
       id="path1546"
       inkscape:connector-curvature="0" />
    <path
       d="m 100.08595,18.572302 v 0.629315 h 0.75004 v 0.282994 h -0.75004 v 1.203219 q 0,0.271121 0.0732,0.348301 0.0752,0.07718 0.30278,0.07718 h 0.37403 v 0.304763 h -0.37403 q -0.42152,0 -0.581819,-0.15634 -0.160298,-0.158318 -0.160298,-0.573904 v -1.203219 h -0.267162 v -0.282994 h 0.267162 v -0.629315 z"
       style="fill:none;fill-opacity:1;stroke:#00ff00;stroke-width:0.15198559;stroke-opacity:1"
       id="path1548"
       inkscape:connector-curvature="0" />
    <path
       d="m 103.1593,20.080284 v 1.33779 h -0.36413 v -1.325916 q 0,-0.314658 -0.12269,-0.470997 -0.1227,-0.156339 -0.36809,-0.156339 -0.29487,0 -0.46506,0.188003 -0.1702,0.188003 -0.1702,0.512555 v 1.252694 h -0.36611 v -3.079291 h 0.36611 v 1.207177 q 0.13062,-0.199877 0.30675,-0.298826 0.1781,-0.09895 0.40964,-0.09895 0.38195,0 0.57787,0.237477 0.19591,0.235499 0.19591,0.694622 z"
       style="fill:none;fill-opacity:1;stroke:#00ff00;stroke-width:0.15198559;stroke-opacity:1"
       id="path1550"
       inkscape:connector-curvature="0" />
    <path
       d="m 105.78541,20.218813 v 0.178108 h -1.67422 q 0.0238,0.376006 0.2256,0.573903 0.20384,0.195919 0.56599,0.195919 0.20977,0 0.40569,-0.05145 0.1979,-0.05145 0.39184,-0.15436 v 0.344342 q -0.19592,0.08312 -0.40173,0.126655 -0.20582,0.04354 -0.41757,0.04354 -0.53036,0 -0.84106,-0.308721 -0.30872,-0.30872 -0.30872,-0.835129 0,-0.544219 0.29289,-0.862834 0.29486,-0.320595 0.79357,-0.320595 0.44725,0 0.70649,0.288931 0.26123,0.286952 0.26123,0.781697 z m -0.36414,-0.106865 q -0.004,-0.298826 -0.16821,-0.476934 -0.16227,-0.178108 -0.43142,-0.178108 -0.30476,0 -0.4888,0.172171 -0.18207,0.172171 -0.20978,0.48485 z"
       style="fill:none;fill-opacity:1;stroke:#00ff00;stroke-width:0.15198559;stroke-opacity:1"
       id="path1552"
       inkscape:connector-curvature="0" />
    <path
       d="m 107.68919,18.463458 h 0.39975 v 1.248736 l 1.32592,-1.248736 h 0.51453 l -1.46642,1.37737 1.57131,1.577246 h -0.52641 l -1.41893,-1.422886 v 1.422886 h -0.39975 z"
       style="fill:none;fill-opacity:1;stroke:#00ff00;stroke-width:0.15198559;stroke-opacity:1"
       id="path1554"
       inkscape:connector-curvature="0" />
    <path
       d="m 111.26916,20.303909 q -0.44131,0 -0.6115,0.100928 -0.1702,0.100927 -0.1702,0.344342 0,0.19394 0.12666,0.308721 0.12863,0.112801 0.3483,0.112801 0.30278,0 0.48485,-0.213729 0.18404,-0.215709 0.18404,-0.571925 v -0.08114 z m 0.72629,-0.150403 v 1.264568 h -0.36414 v -0.336427 q -0.12467,0.201856 -0.3107,0.298826 -0.18602,0.09499 -0.45516,0.09499 -0.34039,0 -0.54224,-0.189982 -0.19988,-0.191961 -0.19988,-0.512555 0,-0.374027 0.24935,-0.564009 0.25133,-0.189982 0.74806,-0.189982 h 0.51057 v -0.03562 q 0,-0.25133 -0.16623,-0.38788 -0.16426,-0.138528 -0.46308,-0.138528 -0.18998,0 -0.37007,0.04552 -0.18009,0.04552 -0.34632,0.13655 V 19.30255 q 0.19987,-0.07718 0.38788,-0.11478 0.188,-0.03958 0.36611,-0.03958 0.48089,0 0.71837,0.249351 0.23748,0.249352 0.23748,0.75597 z"
       style="fill:none;fill-opacity:1;stroke:#00ff00;stroke-width:0.15198559;stroke-opacity:1"
       id="path1556"
       inkscape:connector-curvature="0" />
    <path
       d="m 114.47313,19.627098 q 0.13654,-0.245393 0.32653,-0.362153 0.18998,-0.11676 0.44725,-0.11676 0.34632,0 0.53432,0.243414 0.188,0.241436 0.188,0.688685 v 1.33779 h -0.36611 v -1.325916 q 0,-0.318616 -0.1128,-0.472976 -0.1128,-0.15436 -0.34434,-0.15436 -0.283,0 -0.44725,0.188003 -0.16426,0.188003 -0.16426,0.512555 v 1.252694 h -0.36611 v -1.325916 q 0,-0.320595 -0.1128,-0.472976 -0.1128,-0.15436 -0.3483,-0.15436 -0.27904,0 -0.44329,0.189982 -0.16426,0.188003 -0.16426,0.510576 v 1.252694 h -0.36611 v -2.216457 h 0.36611 v 0.344343 q 0.12468,-0.203835 0.29883,-0.300805 0.17415,-0.09697 0.41361,-0.09697 0.24143,0 0.40964,0.122697 0.1702,0.122696 0.25134,0.356216 z"
       style="fill:none;fill-opacity:1;stroke:#00ff00;stroke-width:0.15198559;stroke-opacity:1"
       id="path1558"
       inkscape:connector-curvature="0" />
    <path
       d="m 116.6975,18.338783 h 0.36413 v 3.079291 h -0.36413 z"
       style="fill:none;fill-opacity:1;stroke:#00ff00;stroke-width:0.15198559;stroke-opacity:1"
       id="path1560"
       inkscape:connector-curvature="0" />
    <path
       d="m 118.68044,19.456906 q -0.29289,0 -0.46308,0.229561 -0.1702,0.227583 -0.1702,0.625358 0,0.397774 0.16822,0.627336 0.17019,0.227582 0.46506,0.227582 0.29091,0 0.4611,-0.229561 0.17019,-0.229562 0.17019,-0.625357 0,-0.393817 -0.17019,-0.623379 -0.17019,-0.23154 -0.4611,-0.23154 z m 0,-0.308721 q 0.47495,0 0.74607,0.308721 0.27112,0.30872 0.27112,0.854919 0,0.544219 -0.27112,0.854918 -0.27112,0.308721 -0.74607,0.308721 -0.47694,0 -0.74806,-0.308721 -0.26914,-0.310699 -0.26914,-0.854918 0,-0.546199 0.26914,-0.854919 0.27112,-0.308721 0.74806,-0.308721 z"
       style="fill:none;fill-opacity:1;stroke:#00ff00;stroke-width:0.15198559;stroke-opacity:1"
       id="path1562"
       inkscape:connector-curvature="0" />
    <path
       d="m 121.15812,19.456906 q -0.29289,0 -0.46308,0.229561 -0.17019,0.227583 -0.17019,0.625358 0,0.397774 0.16821,0.627336 0.17019,0.227582 0.46506,0.227582 0.29091,0 0.4611,-0.229561 0.17019,-0.229562 0.17019,-0.625357 0,-0.393817 -0.17019,-0.623379 -0.17019,-0.23154 -0.4611,-0.23154 z m 0,-0.308721 q 0.47496,0 0.74608,0.308721 0.27112,0.30872 0.27112,0.854919 0,0.544219 -0.27112,0.854918 -0.27112,0.308721 -0.74608,0.308721 -0.47693,0 -0.74805,-0.308721 -0.26914,-0.310699 -0.26914,-0.854918 0,-0.546199 0.26914,-0.854919 0.27112,-0.308721 0.74805,-0.308721 z"
       style="fill:none;fill-opacity:1;stroke:#00ff00;stroke-width:0.15198559;stroke-opacity:1"
       id="path1564"
       inkscape:connector-curvature="0" />
    <path
       d="m 123.12918,21.085605 v 1.175514 h -0.36611 v -3.059502 h 0.36611 v 0.336427 q 0.11478,-0.197898 0.28893,-0.292889 0.17613,-0.09697 0.41954,-0.09697 0.40371,0 0.65504,0.320595 0.25331,0.320594 0.25331,0.843045 0,0.52245 -0.25331,0.843044 -0.25133,0.320595 -0.65504,0.320595 -0.24341,0 -0.41954,-0.09499 -0.17415,-0.09697 -0.28893,-0.294868 z m 1.23884,-0.77378 q 0,-0.401733 -0.16624,-0.629316 -0.16425,-0.229561 -0.45318,-0.229561 -0.28893,0 -0.45517,0.229561 -0.16425,0.227583 -0.16425,0.629316 0,0.401732 0.16425,0.631294 0.16624,0.227582 0.45517,0.227582 0.28893,0 0.45318,-0.227582 0.16624,-0.229562 0.16624,-0.631294 z"
       style="fill:none;fill-opacity:1;stroke:#00ff00;stroke-width:0.15198559;stroke-opacity:1"
       id="path1566"
       inkscape:connector-curvature="0" />
    <path
       d="m 126.76259,19.266924 v 0.344342 q -0.15436,-0.07916 -0.3206,-0.118739 -0.16623,-0.03958 -0.34434,-0.03958 -0.27112,0 -0.40767,0.08312 -0.13457,0.08312 -0.13457,0.249351 0,0.126655 0.097,0.199877 0.097,0.07124 0.38986,0.13655 l 0.12468,0.02771 q 0.38788,0.08312 0.55015,0.235499 0.16426,0.150402 0.16426,0.421522 0,0.308721 -0.2454,0.488808 -0.24341,0.180087 -0.67087,0.180087 -0.17811,0 -0.37205,-0.03562 -0.19196,-0.03364 -0.40569,-0.102906 V 20.96093 q 0.20186,0.104885 0.39778,0.158318 0.19592,0.05145 0.38788,0.05145 0.25726,0 0.39579,-0.08708 0.13853,-0.08905 0.13853,-0.249351 0,-0.148423 -0.10093,-0.227583 -0.099,-0.07916 -0.43735,-0.152381 l -0.12666,-0.02969 q -0.3384,-0.07124 -0.4888,-0.217687 -0.15041,-0.148424 -0.15041,-0.405691 0,-0.312679 0.22165,-0.482871 0.22164,-0.170192 0.62931,-0.170192 0.20186,0 0.37997,0.02968 0.17811,0.02968 0.32851,0.08905 z"
       style="fill:none;fill-opacity:1;stroke:#00ff00;stroke-width:0.15198559;stroke-opacity:1"
       id="path1568"
       inkscape:connector-curvature="0" />
    <path
       d="m 128.76927,18.463458 h 0.59567 l 0.75399,2.010643 0.75795,-2.010643 h 0.59567 v 2.954616 h -0.38986 v -2.594441 l -0.7619,2.026474 h -0.40173 l -0.76191,-2.026474 v 2.594441 h -0.38788 z"
       style="fill:none;fill-opacity:1;stroke:#00ff00;stroke-width:0.15198559;stroke-opacity:1"
       id="path1570"
       inkscape:connector-curvature="0" />
    <path
       d="m 133.25957,20.303909 q -0.44131,0 -0.6115,0.100928 -0.1702,0.100927 -0.1702,0.344342 0,0.19394 0.12666,0.308721 0.12863,0.112801 0.3483,0.112801 0.30278,0 0.48485,-0.213729 0.18404,-0.215709 0.18404,-0.571925 v -0.08114 z m 0.72629,-0.150403 v 1.264568 h -0.36414 v -0.336427 q -0.12467,0.201856 -0.3107,0.298826 -0.18602,0.09499 -0.45516,0.09499 -0.34039,0 -0.54224,-0.189982 -0.19988,-0.191961 -0.19988,-0.512555 0,-0.374027 0.24935,-0.564009 0.25133,-0.189982 0.74806,-0.189982 h 0.51057 v -0.03562 q 0,-0.25133 -0.16623,-0.38788 -0.16426,-0.138528 -0.46308,-0.138528 -0.18998,0 -0.37007,0.04552 -0.18009,0.04552 -0.34632,0.13655 V 19.30255 q 0.19987,-0.07718 0.38788,-0.11478 0.188,-0.03958 0.36611,-0.03958 0.48089,0 0.71837,0.249351 0.23748,0.249352 0.23748,0.75597 z"
       style="fill:none;fill-opacity:1;stroke:#00ff00;stroke-width:0.15198559;stroke-opacity:1"
       id="path1572"
       inkscape:connector-curvature="0" />
    <path
       d="m 134.72402,18.338783 h 0.36611 v 1.818681 l 1.08646,-0.955847 h 0.46506 l -1.17551,1.036985 1.22499,1.179472 h -0.47496 l -1.12604,-1.082502 v 1.082502 h -0.36611 z"
       style="fill:none;fill-opacity:1;stroke:#00ff00;stroke-width:0.15198559;stroke-opacity:1"
       id="path1574"
       inkscape:connector-curvature="0" />
    <path
       d="m 138.84227,20.218813 v 0.178108 h -1.67422 q 0.0238,0.376006 0.22561,0.573903 0.20383,0.195919 0.56598,0.195919 0.20978,0 0.4057,-0.05145 0.19789,-0.05145 0.39183,-0.15436 v 0.344342 q -0.19592,0.08312 -0.40173,0.126655 -0.20581,0.04354 -0.41756,0.04354 -0.53037,0 -0.84107,-0.308721 -0.30872,-0.30872 -0.30872,-0.835129 0,-0.544219 0.29289,-0.862834 0.29487,-0.320595 0.79357,-0.320595 0.44725,0 0.70649,0.288931 0.26123,0.286952 0.26123,0.781697 z m -0.36413,-0.106865 q -0.004,-0.298826 -0.16822,-0.476934 -0.16227,-0.178108 -0.43141,-0.178108 -0.30477,0 -0.48881,0.172171 -0.18207,0.172171 -0.20977,0.48485 z"
       style="fill:none;fill-opacity:1;stroke:#00ff00;stroke-width:0.15198559;stroke-opacity:1"
       id="path1576"
       inkscape:connector-curvature="0" />
    <path
       d="m 140.72428,19.542002 q -0.0614,-0.03562 -0.13457,-0.05145 -0.0712,-0.01781 -0.15832,-0.01781 -0.30872,0 -0.47495,0.201855 -0.16426,0.199877 -0.16426,0.575883 v 1.167598 h -0.36611 v -2.216457 h 0.36611 v 0.344343 q 0.11478,-0.201856 0.29883,-0.298826 0.18404,-0.09895 0.44725,-0.09895 0.0376,0 0.0831,0.0059 0.0455,0.004 0.10093,0.01385 z"
       style="fill:none;fill-opacity:1;stroke:#00ff00;stroke-width:0.15198559;stroke-opacity:1"
       id="path1578"
       inkscape:connector-curvature="0" />
    <path
       d="m 142.52317,19.266924 v 0.344342 q -0.15436,-0.07916 -0.32059,-0.118739 -0.16624,-0.03958 -0.34435,-0.03958 -0.27112,0 -0.40767,0.08312 -0.13457,0.08312 -0.13457,0.249351 0,0.126655 0.097,0.199877 0.097,0.07124 0.38986,0.13655 l 0.12468,0.02771 q 0.38788,0.08312 0.55015,0.235499 0.16426,0.150402 0.16426,0.421522 0,0.308721 -0.24539,0.488808 -0.24342,0.180087 -0.67088,0.180087 -0.17811,0 -0.37205,-0.03562 -0.19196,-0.03364 -0.40569,-0.102906 V 20.96093 q 0.20186,0.104885 0.39778,0.158318 0.19592,0.05145 0.38788,0.05145 0.25727,0 0.39579,-0.08708 0.13853,-0.08905 0.13853,-0.249351 0,-0.148423 -0.10093,-0.227583 -0.0989,-0.07916 -0.43735,-0.152381 l -0.12665,-0.02969 q -0.33841,-0.07124 -0.48881,-0.217687 -0.1504,-0.148424 -0.1504,-0.405691 0,-0.312679 0.22164,-0.482871 0.22165,-0.170192 0.62932,-0.170192 0.20185,0 0.37996,0.02968 0.17811,0.02968 0.32851,0.08905 z"
       style="fill:none;fill-opacity:1;stroke:#00ff00;stroke-width:0.15198559;stroke-opacity:1"
       id="path1580"
       inkscape:connector-curvature="0" />
    <path
       d="m 143.57599,21.085605 v 1.175514 h -0.36611 v -3.059502 h 0.36611 v 0.336427 q 0.11478,-0.197898 0.28893,-0.292889 0.17613,-0.09697 0.41955,-0.09697 0.40371,0 0.65504,0.320595 0.25331,0.320594 0.25331,0.843045 0,0.52245 -0.25331,0.843044 -0.25133,0.320595 -0.65504,0.320595 -0.24342,0 -0.41955,-0.09499 -0.17415,-0.09697 -0.28893,-0.294868 z m 1.23884,-0.77378 q 0,-0.401733 -0.16623,-0.629316 -0.16425,-0.229561 -0.45319,-0.229561 -0.28893,0 -0.45516,0.229561 -0.16426,0.227583 -0.16426,0.629316 0,0.401732 0.16426,0.631294 0.16623,0.227582 0.45516,0.227582 0.28894,0 0.45319,-0.227582 0.16623,-0.229562 0.16623,-0.631294 z"
       style="fill:none;fill-opacity:1;stroke:#00ff00;stroke-width:0.15198559;stroke-opacity:1"
       id="path1582"
       inkscape:connector-curvature="0" />
    <path
       d="m 146.8037,20.303909 q -0.44131,0 -0.61151,0.100928 -0.17019,0.100927 -0.17019,0.344342 0,0.19394 0.12666,0.308721 0.12863,0.112801 0.3483,0.112801 0.30278,0 0.48485,-0.213729 0.18404,-0.215709 0.18404,-0.571925 v -0.08114 z m 0.72628,-0.150403 v 1.264568 h -0.36413 v -0.336427 q -0.12467,0.201856 -0.3107,0.298826 -0.18602,0.09499 -0.45516,0.09499 -0.34039,0 -0.54224,-0.189982 -0.19988,-0.191961 -0.19988,-0.512555 0,-0.374027 0.24935,-0.564009 0.25133,-0.189982 0.74805,-0.189982 h 0.51058 v -0.03562 q 0,-0.25133 -0.16623,-0.38788 -0.16426,-0.138528 -0.46308,-0.138528 -0.18999,0 -0.37007,0.04552 -0.18009,0.04552 -0.34632,0.13655 V 19.30255 q 0.19987,-0.07718 0.38788,-0.11478 0.188,-0.03958 0.36611,-0.03958 0.48089,0 0.71837,0.249351 0.23747,0.249352 0.23747,0.75597 z"
       style="fill:none;fill-opacity:1;stroke:#00ff00;stroke-width:0.15198559;stroke-opacity:1"
       id="path1584"
       inkscape:connector-curvature="0" />
    <path
       d="m 149.87705,19.286714 v 0.340384 q -0.15436,-0.0851 -0.3107,-0.126655 -0.15436,-0.04354 -0.31268,-0.04354 -0.35423,0 -0.55015,0.225603 -0.19592,0.223625 -0.19592,0.629316 0,0.40569 0.19592,0.631294 0.19592,0.223624 0.55015,0.223624 0.15832,0 0.31268,-0.04156 0.15634,-0.04354 0.3107,-0.128634 v 0.336427 q -0.15238,0.07124 -0.31664,0.106864 -0.16227,0.03562 -0.34632,0.03562 -0.50068,0 -0.79555,-0.314658 -0.29486,-0.314657 -0.29486,-0.848981 0,-0.542241 0.29684,-0.85294 0.29883,-0.3107 0.81732,-0.3107 0.16821,0 0.32851,0.03562 0.1603,0.03364 0.3107,0.102907 z"
       style="fill:none;fill-opacity:1;stroke:#00ff00;stroke-width:0.15198559;stroke-opacity:1"
       id="path1586"
       inkscape:connector-curvature="0" />
    <path
       d="m 152.41016,20.218813 v 0.178108 h -1.67422 q 0.0238,0.376006 0.2256,0.573903 0.20384,0.195919 0.56599,0.195919 0.20977,0 0.40569,-0.05145 0.1979,-0.05145 0.39184,-0.15436 v 0.344342 q -0.19592,0.08312 -0.40173,0.126655 -0.20582,0.04354 -0.41757,0.04354 -0.53036,0 -0.84106,-0.308721 -0.30872,-0.30872 -0.30872,-0.835129 0,-0.544219 0.29288,-0.862834 0.29487,-0.320595 0.79357,-0.320595 0.44725,0 0.7065,0.288931 0.26123,0.286952 0.26123,0.781697 z m -0.36414,-0.106865 q -0.004,-0.298826 -0.16821,-0.476934 -0.16228,-0.178108 -0.43142,-0.178108 -0.30476,0 -0.48881,0.172171 -0.18206,0.172171 -0.20977,0.48485 z"
       style="fill:none;fill-opacity:1;stroke:#00ff00;stroke-width:0.15198559;stroke-opacity:1"
       id="path1588"
       inkscape:connector-curvature="0" />
  </g>
  <path
     style="fill:none;stroke:#ff0000;stroke-width:0.07471444;stroke-opacity:1"
     inkscape:connector-curvature="0"
     d="m 55.216096,11.643236 -1.228229,-0.228401 c -0.02987,-0.0056 -0.06257,-0.0337 -0.07268,-0.06254 l -0.376491,-0.878343 c -0.014,-0.02712 -0.01138,-0.06971 0.006,-0.09496 l 0.71561,-1.0430123 c 0.01714,-0.0251 0.01377,-0.06328 -0.0079,-0.08488 l -0.89381,-0.893809 c -0.02156,-0.02159 -0.05965,-0.0251 -0.0848,-0.0078 l -1.061315,0.728316 c -0.02507,0.01726 -0.06811,0.02032 -0.09541,0.0069 l -0.851446,-0.348543 c -0.02889,-0.0096 -0.05711,-0.04191 -0.06272,-0.07188 l -0.236479,-1.27037 c -0.0052,-0.02996 -0.03503,-0.05447 -0.06549,-0.05447 h -1.264164 c -0.03039,0 -0.05995,0.0245 -0.06549,0.05447 l -0.236388,1.27037 c -0.006,0.02996 -0.03376,0.06231 -0.06272,0.07188 l -0.851502,0.348491 c -0.02739,0.01345 -0.07036,0.01038 -0.09541,-0.0069 l -1.061248,-0.728316 c -0.02515,-0.01726 -0.06332,-0.01375 -0.08487,0.0078 l -0.89393,0.893809 c -0.02148,0.02159 -0.02508,0.05978 -0.0079,0.08488 l 0.715684,1.0430123 c 0.01722,0.02525 0.01991,0.06784 0.006,0.09496 l -0.376566,0.878343 c -0.01,0.02884 -0.04266,0.05693 -0.07268,0.06254 l -1.228154,0.228401 c -0.03001,0.0057 -0.05449,0.03512 -0.05449,0.0656 l 7.4e-5,1.264093 c 0,0.03049 0.02455,0.06014 0.05449,0.0656 l 1.19805,0.222948 c 0.02994,0.0055 0.06197,0.03392 0.07111,0.06299 l 0.374021,0.934304 c 0.01332,0.02742 0.01026,0.07031 -0.0067,0.09541 l -0.680498,0.991684 c -0.01722,0.0251 -0.0137,0.06336 0.0079,0.08495 l 0.89396,0.893808 c 0.02148,0.02144 0.05973,0.02495 0.08487,0.0078 l 0.974123,-0.668619 c 0.02508,-0.01718 0.06714,-0.01853 0.0934,-0.0032 l 0.429612,0.229374 c 0.02717,0.01389 0.05891,0.0022 0.07058,-0.026 l 0.885817,-2.140344 c 0.01175,-0.02817 0,-0.06411 -0.02605,-0.08002 l -0.107514,-0.06582 c -0.01991,-0.0121 -0.04685,-0.03295 -0.06796,-0.05207 -0.387845,-0.248351 -0.645162,-0.682816 -0.645162,-1.177574 0,-0.7721 0.625956,-1.397983 1.39798,-1.397983 0.772024,0 1.397905,0.625883 1.397905,1.397983 0,0.494758 -0.257242,0.929223 -0.645155,1.177574 -0.02096,0.01912 -0.04805,0.03997 -0.06781,0.05207 l -0.107514,0.06582 c -0.02582,0.01591 -0.03765,0.05185 -0.02605,0.08002 l 0.885742,2.140419 c 0.01168,0.02817 0.04334,0.03982 0.07058,0.026 l 0.429604,-0.229373 c 0.02627,-0.01531 0.06826,-0.01404 0.0934,0.0032 l 0.974207,0.66862 c 0.02507,0.01711 0.06332,0.0136 0.0848,-0.0078 l 0.893953,-0.893809 c 0.02156,-0.02159 0.02507,-0.05985 0.0079,-0.08495 l -0.680588,-0.991685 c -0.01722,-0.0251 -0.02043,-0.06799 -0.0067,-0.09541 l 0.374021,-0.934304 c 0.0092,-0.02906 0.04102,-0.05753 0.07103,-0.06299 l 1.198042,-0.222948 c 0.02987,-0.0055 0.05449,-0.03512 0.05449,-0.0656 l 1.5e-4,-1.264094 c 7.5e-5,-0.03056 -0.0244,-0.06 -0.05434,-0.06567"
     id="path1315" />
  <path
     style="fill:none;stroke:#ff0000;stroke-width:0.07471444;stroke-opacity:1"
     inkscape:connector-curvature="0"
     d="m 123.29886,11.643235 -1.22823,-0.2284 c -0.0299,-0.0056 -0.0626,-0.0337 -0.0727,-0.06254 l -0.37649,-0.878344 c -0.014,-0.02712 -0.0114,-0.06971 0.006,-0.09496 l 0.71561,-1.0430116 c 0.0171,-0.0251 0.0138,-0.06328 -0.008,-0.08488 l -0.89381,-0.893809 c -0.0216,-0.02159 -0.0597,-0.0251 -0.0848,-0.0078 l -1.06132,0.728316 c -0.0251,0.01726 -0.0681,0.02032 -0.0954,0.0069 l -0.85144,-0.348543 c -0.0289,-0.0096 -0.0571,-0.04191 -0.0627,-0.07188 l -0.23648,-1.27037 c -0.005,-0.02996 -0.035,-0.05447 -0.0655,-0.05447 h -1.26417 c -0.0304,0 -0.06,0.0245 -0.0655,0.05447 l -0.23638,1.27037 c -0.006,0.02996 -0.0338,0.06231 -0.0627,0.07188 l -0.85151,0.348491 c -0.0274,0.01345 -0.0704,0.01038 -0.0954,-0.0069 l -1.06124,-0.728316 c -0.0251,-0.01726 -0.0633,-0.01375 -0.0849,0.0078 l -0.89393,0.893809 c -0.0215,0.02159 -0.0251,0.05978 -0.008,0.08488 l 0.71568,1.0430116 c 0.0172,0.02525 0.0199,0.06784 0.006,0.09496 l -0.37657,0.878343 c -0.01,0.02884 -0.0427,0.05693 -0.0727,0.06254 l -1.22815,0.228401 c -0.03,0.0057 -0.0545,0.03512 -0.0545,0.0656 l 7e-5,1.264093 c 0,0.03049 0.0245,0.06014 0.0545,0.0656 l 1.19805,0.222948 c 0.0299,0.0055 0.062,0.03392 0.0711,0.06299 l 0.37402,0.934304 c 0.0133,0.02742 0.0103,0.07031 -0.007,0.09541 l -0.68049,0.991684 c -0.0172,0.0251 -0.0137,0.06336 0.008,0.08495 l 0.89396,0.893808 c 0.0215,0.02144 0.0597,0.02495 0.0849,0.0078 l 0.97412,-0.668619 c 0.0251,-0.01718 0.0671,-0.01853 0.0934,-0.0032 l 0.42961,0.229374 c 0.0272,0.01389 0.0589,0.0022 0.0706,-0.026 l 0.88582,-2.140342 c 0.0117,-0.02817 0,-0.06411 -0.026,-0.08002 l -0.10752,-0.06582 c -0.0199,-0.0121 -0.0468,-0.03295 -0.068,-0.05207 -0.38784,-0.248351 -0.64516,-0.682816 -0.64516,-1.177574 0,-0.7721 0.62596,-1.397983 1.39798,-1.397983 0.77203,0 1.39791,0.625883 1.39791,1.397983 0,0.494758 -0.25725,0.929223 -0.64516,1.177574 -0.021,0.01912 -0.0481,0.03997 -0.0678,0.05207 l -0.10751,0.06582 c -0.0258,0.01591 -0.0376,0.05185 -0.026,0.08002 l 0.88574,2.140419 c 0.0117,0.02817 0.0433,0.03982 0.0706,0.026 l 0.4296,-0.229373 c 0.0263,-0.01531 0.0683,-0.01404 0.0934,0.0032 l 0.97421,0.668619 c 0.0251,0.01711 0.0633,0.0136 0.0848,-0.0078 l 0.89395,-0.893809 c 0.0216,-0.02159 0.0251,-0.05985 0.008,-0.08495 l -0.68058,-0.991686 c -0.0172,-0.0251 -0.0204,-0.06799 -0.007,-0.09541 l 0.37402,-0.934304 c 0.009,-0.02906 0.041,-0.05753 0.071,-0.06299 l 1.19804,-0.222948 c 0.0299,-0.0055 0.0545,-0.03512 0.0545,-0.0656 l 1.5e-4,-1.264094 c 7e-5,-0.03056 -0.0244,-0.06 -0.0543,-0.06567"
     id="path1315-6" />
  <text
     xml:space="preserve"
     style="font-style:normal;font-weight:normal;font-size:6.68924141px;line-height:1.25;font-family:sans-serif;text-align:center;letter-spacing:0px;word-spacing:0px;text-anchor:middle;fill:none;fill-opacity:1;stroke:#00ff00;stroke-width:0.09480815;stroke-miterlimit:4;stroke-dasharray:none;stroke-opacity:1"
     x="82.837006"
     y="28.79748"
     id="text1705"><tspan
       sodipodi:role="line"
       id="tspan1703"
       x="82.837006"
       y="28.79748"
       style="font-size:3.3446207px;fill:none;stroke:#00ff00;stroke-width:0.09480815;stroke-miterlimit:4;stroke-dasharray:none;stroke-opacity:1">Ver: 0.177</tspan></text>
</svg>
