<?xml version="1.0" encoding="UTF-8" standalone="no"?>
<svg
   xmlns:lc="http://www.librecad.org"
   xmlns:dc="http://purl.org/dc/elements/1.1/"
   xmlns:cc="http://creativecommons.org/ns#"
   xmlns:rdf="http://www.w3.org/1999/02/22-rdf-syntax-ns#"
   xmlns:svg="http://www.w3.org/2000/svg"
   xmlns="http://www.w3.org/2000/svg"
   xmlns:sodipodi="http://sodipodi.sourceforge.net/DTD/sodipodi-0.dtd"
   xmlns:inkscape="http://www.inkscape.org/namespaces/inkscape"
   width="460mm"
   height="25mm"
   viewBox="0 0 460 25"
   version="1.1"
   id="svg54"
   sodipodi:docname="Acry-Base-6-DigiSpark-MakerCam">
  <metadata
     id="metadata60">
    <rdf:RDF>
      <cc:Work
         rdf:about="">
        <dc:format>image/svg+xml</dc:format>
        <dc:type
           rdf:resource="http://purl.org/dc/dcmitype/StillImage" />
        <dc:title></dc:title>
      </cc:Work>
    </rdf:RDF>
  </metadata>
  <defs
     id="defs58" />
  <sodipodi:namedview
     pagecolor="#ffffff"
     bordercolor="#666666"
     borderopacity="1"
     objecttolerance="10"
     gridtolerance="10"
     guidetolerance="10"
     inkscape:pageopacity="0"
     inkscape:pageshadow="2"
     inkscape:window-width="640"
     inkscape:window-height="480"
     id="namedview56"
     showgrid="false" />
  <g
     lc:layername="0"
     lc:is_locked="false"
     lc:is_construction="false"
     fill="none"
     stroke="black"
     stroke-width="1"
     id="g2" />
  <g
     lc:layername="Body_Slices"
     lc:is_locked="false"
     lc:is_construction="false"
     id="g52"
     style="fill:none;stroke:#000000;stroke-width:1"
     transform="translate(25.020702,-234.19377)">
    <g
       lc:blockname="MYLAYER"
       id="g18">
      <g
         lc:layername="0"
         lc:is_locked="false"
         lc:is_construction="false"
         id="g4"
         style="fill:none;stroke:#000000;stroke-width:1" />
      <g
         lc:layername="Body_Slices"
         lc:is_locked="false"
         lc:is_construction="false"
         id="g16"
         style="fill:none;stroke:#000000;stroke-width:1">
        <path
           d="m 225,-7.5 v 15 a 5,5 0 0 1 -5,5 H 80 a 5,5 0 0 1 -5,-5 v -15 a 5,5 0 0 1 5,-5 h 140 a 5,5 0 0 1 5,5 z"
           id="path6"
           inkscape:connector-curvature="0" />
        <circle
           cx="220"
           cy="7.5"
           r="0.85000002"
           id="circle8" />
        <circle
           cx="220"
           cy="-7.5"
           r="0.85000002"
           id="circle10" />
        <circle
           cx="80"
           cy="-7.5"
           r="0.85000002"
           id="circle12" />
        <circle
           cx="80"
           cy="7.5"
           r="0.85000002"
           id="circle14" />
      </g>
    </g>
    <g
       lc:blockname="MYLAYER002"
       id="g36">
      <g
         lc:layername="0"
         lc:is_locked="false"
         lc:is_construction="false"
         id="g20"
         style="fill:none;stroke:#000000;stroke-width:1" />
      <g
         lc:layername="Body_Slices"
         lc:is_locked="false"
         lc:is_construction="false"
         id="g34"
         style="fill:none;stroke:#000000;stroke-width:1">
        <path
           d="m 535,-7.5 v 15 a 5,5 0 0 1 -5,5 H 390 a 5,5 0 0 1 -5,-5 v -15 a 5,5 0 0 1 5,-5 h 140 a 5,5 0 0 1 5,5 z"
           id="path22"
           inkscape:connector-curvature="0" />
        <circle
           cx="390"
           cy="-7.5"
           r="0.85000002"
           id="circle24" />
        <circle
           cx="530"
           cy="-7.5"
           r="0.85000002"
           id="circle26" />
        <path
           d="m 508,1.45 h -96 v -2.9 h 96 z"
           id="path28"
           inkscape:connector-curvature="0" />
        <circle
           cx="390"
           cy="7.5"
           r="0.85000002"
           id="circle30" />
        <circle
           cx="530"
           cy="7.5"
           r="0.85000002"
           id="circle32" />
      </g>
    </g>
    <g
       lc:blockname="MYLAYER001"
       id="g50">
      <g
         lc:layername="0"
         lc:is_locked="false"
         lc:is_construction="false"
         id="g38"
         style="fill:none;stroke:#000000;stroke-width:1" />
      <g
         lc:layername="Body_Slices"
         lc:is_locked="false"
         lc:is_construction="false"
         id="g48"
         style="fill:none;stroke:#000000;stroke-width:1">
        <path
           d="M 380,-7.5 V -4 H 355 V -5 H 255 v 1 h -2.25 v -5.2 h -20 v 4.7 H 230 v -3 a 5,5 0 0 1 5,-5 h 140 a 5,5 0 0 1 5,5 z"
           id="path40"
           inkscape:connector-curvature="0" />
        <circle
           cx="375"
           cy="-7.5"
           r="0.85000002"
           id="circle42" />
        <path
           d="m 232.75,9.2 h 20 V 4 H 255 V 5 H 355 V 4 h 25 v 3.5 a 5,5 0 0 1 -5,5 H 235 a 5,5 0 0 1 -5,-5 v -3 h 2.75 z"
           id="path44"
           inkscape:connector-curvature="0" />
        <circle
           cx="375"
           cy="7.5"
           r="0.85000002"
           id="circle46" />
      </g>
    </g>
  </g>
</svg>
