<?xml version="1.0" encoding="UTF-8" standalone="no"?>
<svg
   xmlns:lc="http://www.librecad.org"
   xmlns:dc="http://purl.org/dc/elements/1.1/"
   xmlns:cc="http://creativecommons.org/ns#"
   xmlns:rdf="http://www.w3.org/1999/02/22-rdf-syntax-ns#"
   xmlns:svg="http://www.w3.org/2000/svg"
   xmlns="http://www.w3.org/2000/svg"
   xmlns:sodipodi="http://sodipodi.sourceforge.net/DTD/sodipodi-0.dtd"
   xmlns:inkscape="http://www.inkscape.org/namespaces/inkscape"
   width="471mm"
   height="36mm"
   viewBox="0 0 471 36"
   version="1.1"
   id="svg58"
   sodipodi:docname="Acry-Base-6-DigiSpark-v014-MakerCam-slot.svg"
   inkscape:version="0.92.3 (2405546, 2018-03-11)">
  <metadata
     id="metadata64">
    <rdf:RDF>
      <cc:Work
         rdf:about="">
        <dc:format>image/svg+xml</dc:format>
        <dc:type
           rdf:resource="http://purl.org/dc/dcmitype/StillImage" />
        <dc:title></dc:title>
      </cc:Work>
    </rdf:RDF>
  </metadata>
  <defs
     id="defs62" />
  <sodipodi:namedview
     pagecolor="#ffffff"
     bordercolor="#666666"
     borderopacity="1"
     objecttolerance="10"
     gridtolerance="10"
     guidetolerance="10"
     inkscape:pageopacity="0"
     inkscape:pageshadow="2"
     inkscape:window-width="1680"
     inkscape:window-height="999"
     id="namedview60"
     showgrid="false"
     fit-margin-top="5"
     fit-margin-left="5"
     fit-margin-right="5"
     fit-margin-bottom="5"
     inkscape:zoom="1.0574577"
     inkscape:cx="414.9862"
     inkscape:cy="102.39174"
     inkscape:window-x="0"
     inkscape:window-y="25"
     inkscape:window-maximized="1"
     inkscape:current-layer="svg58" />
  <g
     lc:layername="0"
     lc:is_locked="false"
     lc:is_construction="false"
     id="g2"
     style="fill:none;stroke:#000000;stroke-width:1"
     transform="translate(-69.5,18)" />
  <g
     style="fill:none;stroke:#000000;stroke-width:1"
     id="g18"
     lc:blockname="MYLAYER"
     transform="translate(-69.5,18)">
    <g
       style="fill:none;stroke:#000000;stroke-width:1"
       id="g4"
       lc:is_construction="false"
       lc:is_locked="false"
       lc:layername="0" />
    <g
       style="fill:none;stroke:#000000;stroke-width:1"
       id="g16"
       lc:is_construction="false"
       lc:is_locked="false"
       lc:layername="Body_Slices">
      <path
         inkscape:connector-curvature="0"
         id="path6"
         d="m 225,-7.5 v 15 a 5,5 0 0 1 -5,5 H 80 a 5,5 0 0 1 -5,-5 v -15 a 5,5 0 0 1 5,-5 h 140 a 5,5 0 0 1 5,5 z" />
      <circle
         id="circle8"
         r="0.85000002"
         cy="7.5"
         cx="200" />
      <circle
         id="circle10"
         r="0.85000002"
         cy="-7.5"
         cx="200" />
      <circle
         id="circle12"
         r="0.85000002"
         cy="-7.5"
         cx="100" />
      <circle
         id="circle14"
         r="0.85000002"
         cy="7.5"
         cx="100" />
    </g>
  </g>
  <g
     style="fill:none;stroke:#000000;stroke-width:1"
     id="g36"
     lc:blockname="MYLAYER002"
     transform="translate(-65.615383,-2.169231)">
    <g
       style="fill:none;stroke:#000000;stroke-width:1"
       id="g20"
       lc:is_construction="false"
       lc:is_locked="false"
       lc:layername="0" />
    <g
       style="fill:none;stroke:#000000;stroke-width:1"
       id="g34"
       lc:is_construction="false"
       lc:is_locked="false"
       lc:layername="Body_Slices">
      <path
         inkscape:connector-curvature="0"
         id="path22"
         d="m 535,-7.5 v 15 a 5,5 0 0 1 -5,5 H 390 a 5,5 0 0 1 -5,-5 v -15 a 5,5 0 0 1 5,-5 h 140 a 5,5 0 0 1 5,5 z" />
      <circle
         id="circle24"
         r="0.85000002"
         cy="-7.5"
         cx="510" />
      <circle
         id="circle26"
         r="0.85000002"
         cy="-7.5"
         cx="410" />
      <circle
         id="circle28"
         r="0.85000002"
         cy="7.5"
         cx="510" />
      <path
         inkscape:connector-curvature="0"
         id="path30"
         d="m 508,1.45 h -96 v -2.9 h 96 z" />
      <circle
         id="circle32"
         r="0.85000002"
         cy="7.5"
         cx="410" />
    </g>
  </g>
  <g
     style="fill:none;stroke:#000000;stroke-width:1"
     id="g54"
     lc:blockname="MYLAYER001"
     transform="translate(-70.200001,18)">
    <g
       style="fill:none;stroke:#000000;stroke-width:1"
       id="g38"
       lc:is_construction="false"
       lc:is_locked="false"
       lc:layername="0" />
    <g
       style="fill:none;stroke:#000000;stroke-width:1"
       id="g52"
       lc:is_construction="false"
       lc:is_locked="false"
       lc:layername="Body_Slices">
      <path
         inkscape:connector-curvature="0"
         id="path40"
         d="M 380,-7.5 V -4 H 355 V -5 H 255 v 1 h -2.25 v -5.2 h -20 v 4.7 H 230 v -3 a 5,5 0 0 1 5,-5 h 140 a 5,5 0 0 1 5,5 z" />
      <circle
         id="circle42"
         r="0.85000002"
         cy="-7.5"
         cx="255" />
      <circle
         id="circle44"
         r="0.85000002"
         cy="-7.5"
         cx="355" />
      <path
         inkscape:connector-curvature="0"
         id="path46"
         d="m 232.75,9.2 h 20 V 4 H 255 V 5 H 355 V 4 h 25 v 3.5 a 5,5 0 0 1 -5,5 H 235 a 5,5 0 0 1 -5,-5 v -3 h 2.75 z" />
      <circle
         id="circle48"
         r="0.85000002"
         cy="7.5"
         cx="355" />
      <circle
         id="circle50"
         r="0.85000002"
         cy="7.5"
         cx="255" />
    </g>
  </g>
  <rect
     style="fill:#00ff00;fill-opacity:1;stroke:#00ff00;stroke-width:1;stroke-linejoin:round;stroke-miterlimit:4;stroke-dasharray:none;stroke-opacity:1"
     id="rect92"
     width="20.000002"
     height="18.4"
     x="322.13461"
     y="-11.369231" />
  <rect
     style="fill:#00ff00;fill-opacity:1;stroke:#00ff00;stroke-width:1;stroke-linejoin:round;stroke-miterlimit:4;stroke-dasharray:none;stroke-opacity:1"
     id="rect94"
     width="2.75"
     height="9"
     x="319.38461"
     y="-6.6692309" />
  <flowRoot
     xml:space="preserve"
     id="flowRoot904"
     style="fill:black;fill-opacity:1;stroke:none;font-family:sans-serif;font-style:normal;font-weight:normal;font-size:26.66666667px;line-height:1.25;letter-spacing:0px;word-spacing:0px;text-anchor:middle;text-align:center;opacity:0.99;"><flowRegion
       id="flowRegion906"
       style=""><rect
         id="rect908"
         width="335.71082"
         height="41.60923"
         x="132.39301"
         y="42.442223"
         style="" /></flowRegion><flowPara
       id="flowPara910"></flowPara></flowRoot></svg>
