  0
SECTION
  2
HEADER
  9
$ACADVER
  1
AC1014
  9
$HANDSEED
  5
FFFF
  9
$MEASUREMENT
 70
     1
  0
ENDSEC
  0
SECTION
  2
TABLES
  0
TABLE
  2
VPORT
  5
8
330
0
100
AcDbSymbolTable
 70
     4
  0
VPORT
  5
2E
330
8
100
AcDbSymbolTableRecord
100
AcDbViewportTableRecord
  2
*ACTIVE
 70
     0
 10
0.0
 20
0.0
 11
1.0
 21
1.0
 12
210.0
 22
148.5
 13
0.0
 23
0.0
 14
10.0
 24
10.0
 15
10.0
 25
10.0
 16
0.0
 26
0.0
 36
1.0
 17
0.0
 27
0.0
 37
0.0
 40
341.0
 41
1.24
 42
50.0
 43
0.0
 44
0.0
 50
0.0
 51
0.0
 71
     0
 72
   100
 73
     1
 74
     3
 75
     0
 76
     0
 77
     0
 78
     0
  0
ENDTAB
  0
TABLE
  2
LTYPE
  5
5
330
0
100
AcDbSymbolTable
 70
     1
  0
LTYPE
  5
14
330
5
100
AcDbSymbolTableRecord
100
AcDbLinetypeTableRecord
  2
BYBLOCK
 70
     0
  3

 72
    65
 73
     0
 40
0.0
  0
LTYPE
  5
15
330
5
100
AcDbSymbolTableRecord
100
AcDbLinetypeTableRecord
  2
BYLAYER
 70
     0
  3

 72
    65
 73
     0
 40
0.0
  0
LTYPE
  5
16
330
5
100
AcDbSymbolTableRecord
100
AcDbLinetypeTableRecord
  2
CONTINUOUS
 70
     0
  3
Solid line
 72
    65
 73
     0
 40
0.0
  0
ENDTAB
  0
TABLE
  2
LAYER
  5
2
100
AcDbSymbolTable
 70
1
  0
LAYER
  5
50
100
AcDbSymbolTableRecord
100
AcDbLayerTableRecord
  2
0
 70
0
  6
CONTINUOUS
  0
ENDTAB
  0
TABLE
  2
STYLE
  5
3
330
0
100
AcDbSymbolTable
 70
     1
  0
STYLE
  5
11
330
3
100
AcDbSymbolTableRecord
100
AcDbTextStyleTableRecord
  2
STANDARD
 70
     0
 40
0.0
 41
1.0
 50
0.0
 71
     0
 42
2.5
  3
txt
  4

  0
ENDTAB
  0
TABLE
  2
VIEW
  5
6
330
0
100
AcDbSymbolTable
 70
     0
  0
ENDTAB
  0
TABLE
  2
UCS
  5
7
330
0
100
AcDbSymbolTable
 70
     0
  0
ENDTAB
  0
TABLE
  2
APPID
  5
9
330
0
100
AcDbSymbolTable
 70
     2
  0
APPID
  5
12
330
9
100
AcDbSymbolTableRecord
100
AcDbRegAppTableRecord
  2
ACAD
 70
     0
  0
ENDTAB
  0
TABLE
  2
DIMSTYLE
  5
A
330
0
100
AcDbSymbolTable
 70
     1
  0
DIMSTYLE
105
27
330
A
100
AcDbSymbolTableRecord
100
AcDbDimStyleTableRecord
  2
ISO-25
 70
     0
  3

  4

  5

  6

  7

 40
1.0
 41
2.5
 42
0.625
 43
3.75
 44
1.25
 45
0.0
 46
0.0
 47
0.0
 48
0.0
140
2.5
141
2.5
142
0.0
143
0.03937007874016
144
1.0
145
0.0
146
1.0
147
0.625
 71
     0
 72
     0
 73
     0
 74
     0
 75
     0
 76
     0
 77
     1
 78
     8
170
     0
171
     3
172
     1
173
     0
174
     0
175
     0
176
     0
177
     0
178
     0
270
     2
271
     2
272
     2
273
     2
274
     3
340
11
275
     0
280
     0
281
     0
282
     0
283
     0
284
     8
285
     0
286
     0
287
     3
288
     0
  0
ENDTAB
  0
TABLE
  2
BLOCK_RECORD
  5
1
330
0
100
AcDbSymbolTable
 70
     1
  0
BLOCK_RECORD
  5
1F
330
1
100
AcDbSymbolTableRecord
100
AcDbBlockTableRecord
  2
*MODEL_SPACE
  0
BLOCK_RECORD
  5
1B
330
1
100
AcDbSymbolTableRecord
100
AcDbBlockTableRecord
  2
*PAPER_SPACE
  0
ENDTAB
  0
ENDSEC
  0
SECTION
  2
BLOCKS
  0
BLOCK
  5
20
330
1F
100
AcDbEntity
  8
0
100
AcDbBlockBegin
  2
*MODEL_SPACE
 70
     0
 10
0.0
 20
0.0
 30
0.0
  3
*MODEL_SPACE
  1

  0
ENDBLK
  5
21
330
1F
100
AcDbEntity
  8
0
100
AcDbBlockEnd
  0
BLOCK
  5
1C
330
1B
100
AcDbEntity
 67
     1
  8
0
100
AcDbBlockBegin
  2
*PAPER_SPACE
  1

  0
ENDBLK
  5
1D
330
1B
100
AcDbEntity
 67
     1
  8
0
100
AcDbBlockEnd
  0
ENDSEC
  0
SECTION
  2
ENTITIES
  0
LINE
  5
100
100
AcDbEntity
  8
0
 62
7
100
AcDbLine
 10
155.500000
 20
25.500000
 30
0.0
 11
155.500000
 21
10.500000
 31
0.0
  0
SPLINE
  5
101
100
AcDbEntity
  8
0
 62
7
100
AcDbSpline
 70
8
 71
3
 72
8
 73
4
 74
0
 40
0
 40
0
 40
0
 40
0
 40
1
 40
1
 40
1
 40
1
 10
155.500000
 20
10.500000
 30
0.0
 10
155.500000
 20
9.173918
 30
0.0
 10
154.973216
 20
7.902148
 30
0.0
 10
154.035534
 20
6.964466
 30
0.0
  0
SPLINE
  5
102
100
AcDbEntity
  8
0
 62
7
100
AcDbSpline
 70
8
 71
3
 72
8
 73
4
 74
0
 40
0
 40
0
 40
0
 40
0
 40
1
 40
1
 40
1
 40
1
 10
154.035534
 20
6.964466
 30
0.0
 10
153.097852
 20
6.026784
 30
0.0
 10
151.826082
 20
5.500000
 30
0.0
 10
150.500000
 20
5.500000
 30
0.0
  0
LINE
  5
103
100
AcDbEntity
  8
0
 62
7
100
AcDbLine
 10
150.500000
 20
5.500000
 30
0.0
 11
10.500000
 21
5.500000
 31
0.0
  0
SPLINE
  5
104
100
AcDbEntity
  8
0
 62
7
100
AcDbSpline
 70
8
 71
3
 72
8
 73
4
 74
0
 40
0
 40
0
 40
0
 40
0
 40
1
 40
1
 40
1
 40
1
 10
10.500000
 20
5.500000
 30
0.0
 10
9.173918
 20
5.500000
 30
0.0
 10
7.902148
 20
6.026784
 30
0.0
 10
6.964466
 20
6.964466
 30
0.0
  0
SPLINE
  5
105
100
AcDbEntity
  8
0
 62
7
100
AcDbSpline
 70
8
 71
3
 72
8
 73
4
 74
0
 40
0
 40
0
 40
0
 40
0
 40
1
 40
1
 40
1
 40
1
 10
6.964466
 20
6.964466
 30
0.0
 10
6.026784
 20
7.902148
 30
0.0
 10
5.500000
 20
9.173918
 30
0.0
 10
5.500000
 20
10.500000
 30
0.0
  0
LINE
  5
106
100
AcDbEntity
  8
0
 62
7
100
AcDbLine
 10
5.500000
 20
10.500000
 30
0.0
 11
5.500000
 21
25.500000
 31
0.0
  0
SPLINE
  5
107
100
AcDbEntity
  8
0
 62
7
100
AcDbSpline
 70
8
 71
3
 72
8
 73
4
 74
0
 40
0
 40
0
 40
0
 40
0
 40
1
 40
1
 40
1
 40
1
 10
5.500000
 20
25.500000
 30
0.0
 10
5.500000
 20
26.826082
 30
0.0
 10
6.026784
 20
28.097852
 30
0.0
 10
6.964466
 20
29.035534
 30
0.0
  0
SPLINE
  5
108
100
AcDbEntity
  8
0
 62
7
100
AcDbSpline
 70
8
 71
3
 72
8
 73
4
 74
0
 40
0
 40
0
 40
0
 40
0
 40
1
 40
1
 40
1
 40
1
 10
6.964466
 20
29.035534
 30
0.0
 10
7.902148
 20
29.973216
 30
0.0
 10
9.173918
 20
30.500000
 30
0.0
 10
10.500000
 20
30.500000
 30
0.0
  0
LINE
  5
109
100
AcDbEntity
  8
0
 62
7
100
AcDbLine
 10
10.500000
 20
30.500000
 30
0.0
 11
150.500000
 21
30.500000
 31
0.0
  0
SPLINE
  5
10a
100
AcDbEntity
  8
0
 62
7
100
AcDbSpline
 70
8
 71
3
 72
8
 73
4
 74
0
 40
0
 40
0
 40
0
 40
0
 40
1
 40
1
 40
1
 40
1
 10
150.500000
 20
30.500000
 30
0.0
 10
151.826082
 20
30.500000
 30
0.0
 10
153.097852
 20
29.973216
 30
0.0
 10
154.035534
 20
29.035534
 30
0.0
  0
SPLINE
  5
10b
100
AcDbEntity
  8
0
 62
7
100
AcDbSpline
 70
8
 71
3
 72
8
 73
4
 74
0
 40
0
 40
0
 40
0
 40
0
 40
1
 40
1
 40
1
 40
1
 10
154.035534
 20
29.035534
 30
0.0
 10
154.973216
 20
28.097852
 30
0.0
 10
155.500000
 20
26.826082
 30
0.0
 10
155.500000
 20
25.500000
 30
0.0
  0
LINE
  5
10c
100
AcDbEntity
  8
0
 62
7
100
AcDbLine
 10
155.500000
 20
25.500000
 30
0.0
 11
155.500000
 21
25.500000
 31
0.0
  0
SPLINE
  5
10d
100
AcDbEntity
  8
0
 62
7
100
AcDbSpline
 70
8
 71
3
 72
8
 73
4
 74
0
 40
0
 40
0
 40
0
 40
0
 40
1
 40
1
 40
1
 40
1
 10
131.350000
 20
10.500000
 30
0.0
 10
131.350000
 20
10.196324
 30
0.0
 10
131.187991
 20
9.915716
 30
0.0
 10
130.925000
 20
9.763878
 30
0.0
  0
SPLINE
  5
10e
100
AcDbEntity
  8
0
 62
7
100
AcDbSpline
 70
8
 71
3
 72
8
 73
4
 74
0
 40
0
 40
0
 40
0
 40
0
 40
1
 40
1
 40
1
 40
1
 10
130.925000
 20
9.763878
 30
0.0
 10
130.662009
 20
9.612041
 30
0.0
 10
130.337991
 20
9.612041
 30
0.0
 10
130.075000
 20
9.763878
 30
0.0
  0
SPLINE
  5
10f
100
AcDbEntity
  8
0
 62
7
100
AcDbSpline
 70
8
 71
3
 72
8
 73
4
 74
0
 40
0
 40
0
 40
0
 40
0
 40
1
 40
1
 40
1
 40
1
 10
130.075000
 20
9.763878
 30
0.0
 10
129.812009
 20
9.915716
 30
0.0
 10
129.650000
 20
10.196324
 30
0.0
 10
129.650000
 20
10.500000
 30
0.0
  0
SPLINE
  5
110
100
AcDbEntity
  8
0
 62
7
100
AcDbSpline
 70
8
 71
3
 72
8
 73
4
 74
0
 40
0
 40
0
 40
0
 40
0
 40
1
 40
1
 40
1
 40
1
 10
129.650000
 20
10.500000
 30
0.0
 10
129.650000
 20
10.803676
 30
0.0
 10
129.812009
 20
11.084284
 30
0.0
 10
130.075000
 20
11.236122
 30
0.0
  0
SPLINE
  5
111
100
AcDbEntity
  8
0
 62
7
100
AcDbSpline
 70
8
 71
3
 72
8
 73
4
 74
0
 40
0
 40
0
 40
0
 40
0
 40
1
 40
1
 40
1
 40
1
 10
130.075000
 20
11.236122
 30
0.0
 10
130.337991
 20
11.387959
 30
0.0
 10
130.662009
 20
11.387959
 30
0.0
 10
130.925000
 20
11.236122
 30
0.0
  0
SPLINE
  5
112
100
AcDbEntity
  8
0
 62
7
100
AcDbSpline
 70
8
 71
3
 72
8
 73
4
 74
0
 40
0
 40
0
 40
0
 40
0
 40
1
 40
1
 40
1
 40
1
 10
130.925000
 20
11.236122
 30
0.0
 10
131.187991
 20
11.084284
 30
0.0
 10
131.350000
 20
10.803676
 30
0.0
 10
131.350000
 20
10.500000
 30
0.0
  0
LINE
  5
113
100
AcDbEntity
  8
0
 62
7
100
AcDbLine
 10
131.350000
 20
10.500000
 30
0.0
 11
131.350000
 21
10.500000
 31
0.0
  0
SPLINE
  5
114
100
AcDbEntity
  8
0
 62
7
100
AcDbSpline
 70
8
 71
3
 72
8
 73
4
 74
0
 40
0
 40
0
 40
0
 40
0
 40
1
 40
1
 40
1
 40
1
 10
131.350000
 20
25.500000
 30
0.0
 10
131.350000
 20
25.196324
 30
0.0
 10
131.187991
 20
24.915716
 30
0.0
 10
130.925000
 20
24.763878
 30
0.0
  0
SPLINE
  5
115
100
AcDbEntity
  8
0
 62
7
100
AcDbSpline
 70
8
 71
3
 72
8
 73
4
 74
0
 40
0
 40
0
 40
0
 40
0
 40
1
 40
1
 40
1
 40
1
 10
130.925000
 20
24.763878
 30
0.0
 10
130.662009
 20
24.612041
 30
0.0
 10
130.337991
 20
24.612041
 30
0.0
 10
130.075000
 20
24.763878
 30
0.0
  0
SPLINE
  5
116
100
AcDbEntity
  8
0
 62
7
100
AcDbSpline
 70
8
 71
3
 72
8
 73
4
 74
0
 40
0
 40
0
 40
0
 40
0
 40
1
 40
1
 40
1
 40
1
 10
130.075000
 20
24.763878
 30
0.0
 10
129.812009
 20
24.915716
 30
0.0
 10
129.650000
 20
25.196324
 30
0.0
 10
129.650000
 20
25.500000
 30
0.0
  0
SPLINE
  5
117
100
AcDbEntity
  8
0
 62
7
100
AcDbSpline
 70
8
 71
3
 72
8
 73
4
 74
0
 40
0
 40
0
 40
0
 40
0
 40
1
 40
1
 40
1
 40
1
 10
129.650000
 20
25.500000
 30
0.0
 10
129.650000
 20
25.803676
 30
0.0
 10
129.812009
 20
26.084284
 30
0.0
 10
130.075000
 20
26.236122
 30
0.0
  0
SPLINE
  5
118
100
AcDbEntity
  8
0
 62
7
100
AcDbSpline
 70
8
 71
3
 72
8
 73
4
 74
0
 40
0
 40
0
 40
0
 40
0
 40
1
 40
1
 40
1
 40
1
 10
130.075000
 20
26.236122
 30
0.0
 10
130.337991
 20
26.387959
 30
0.0
 10
130.662009
 20
26.387959
 30
0.0
 10
130.925000
 20
26.236122
 30
0.0
  0
SPLINE
  5
119
100
AcDbEntity
  8
0
 62
7
100
AcDbSpline
 70
8
 71
3
 72
8
 73
4
 74
0
 40
0
 40
0
 40
0
 40
0
 40
1
 40
1
 40
1
 40
1
 10
130.925000
 20
26.236122
 30
0.0
 10
131.187991
 20
26.084284
 30
0.0
 10
131.350000
 20
25.803676
 30
0.0
 10
131.350000
 20
25.500000
 30
0.0
  0
LINE
  5
11a
100
AcDbEntity
  8
0
 62
7
100
AcDbLine
 10
131.350000
 20
25.500000
 30
0.0
 11
131.350000
 21
25.500000
 31
0.0
  0
SPLINE
  5
11b
100
AcDbEntity
  8
0
 62
7
100
AcDbSpline
 70
8
 71
3
 72
8
 73
4
 74
0
 40
0
 40
0
 40
0
 40
0
 40
1
 40
1
 40
1
 40
1
 10
31.350000
 20
25.500000
 30
0.0
 10
31.350000
 20
25.196324
 30
0.0
 10
31.187991
 20
24.915716
 30
0.0
 10
30.925000
 20
24.763878
 30
0.0
  0
SPLINE
  5
11c
100
AcDbEntity
  8
0
 62
7
100
AcDbSpline
 70
8
 71
3
 72
8
 73
4
 74
0
 40
0
 40
0
 40
0
 40
0
 40
1
 40
1
 40
1
 40
1
 10
30.925000
 20
24.763878
 30
0.0
 10
30.662009
 20
24.612041
 30
0.0
 10
30.337991
 20
24.612041
 30
0.0
 10
30.075000
 20
24.763878
 30
0.0
  0
SPLINE
  5
11d
100
AcDbEntity
  8
0
 62
7
100
AcDbSpline
 70
8
 71
3
 72
8
 73
4
 74
0
 40
0
 40
0
 40
0
 40
0
 40
1
 40
1
 40
1
 40
1
 10
30.075000
 20
24.763878
 30
0.0
 10
29.812009
 20
24.915716
 30
0.0
 10
29.650000
 20
25.196324
 30
0.0
 10
29.650000
 20
25.500000
 30
0.0
  0
SPLINE
  5
11e
100
AcDbEntity
  8
0
 62
7
100
AcDbSpline
 70
8
 71
3
 72
8
 73
4
 74
0
 40
0
 40
0
 40
0
 40
0
 40
1
 40
1
 40
1
 40
1
 10
29.650000
 20
25.500000
 30
0.0
 10
29.650000
 20
25.803676
 30
0.0
 10
29.812009
 20
26.084284
 30
0.0
 10
30.075000
 20
26.236122
 30
0.0
  0
SPLINE
  5
11f
100
AcDbEntity
  8
0
 62
7
100
AcDbSpline
 70
8
 71
3
 72
8
 73
4
 74
0
 40
0
 40
0
 40
0
 40
0
 40
1
 40
1
 40
1
 40
1
 10
30.075000
 20
26.236122
 30
0.0
 10
30.337991
 20
26.387959
 30
0.0
 10
30.662009
 20
26.387959
 30
0.0
 10
30.925000
 20
26.236122
 30
0.0
  0
SPLINE
  5
120
100
AcDbEntity
  8
0
 62
7
100
AcDbSpline
 70
8
 71
3
 72
8
 73
4
 74
0
 40
0
 40
0
 40
0
 40
0
 40
1
 40
1
 40
1
 40
1
 10
30.925000
 20
26.236122
 30
0.0
 10
31.187991
 20
26.084284
 30
0.0
 10
31.350000
 20
25.803676
 30
0.0
 10
31.350000
 20
25.500000
 30
0.0
  0
LINE
  5
121
100
AcDbEntity
  8
0
 62
7
100
AcDbLine
 10
31.350000
 20
25.500000
 30
0.0
 11
31.350000
 21
25.500000
 31
0.0
  0
SPLINE
  5
122
100
AcDbEntity
  8
0
 62
7
100
AcDbSpline
 70
8
 71
3
 72
8
 73
4
 74
0
 40
0
 40
0
 40
0
 40
0
 40
1
 40
1
 40
1
 40
1
 10
31.350000
 20
10.500000
 30
0.0
 10
31.350000
 20
10.196324
 30
0.0
 10
31.187991
 20
9.915716
 30
0.0
 10
30.925000
 20
9.763878
 30
0.0
  0
SPLINE
  5
123
100
AcDbEntity
  8
0
 62
7
100
AcDbSpline
 70
8
 71
3
 72
8
 73
4
 74
0
 40
0
 40
0
 40
0
 40
0
 40
1
 40
1
 40
1
 40
1
 10
30.925000
 20
9.763878
 30
0.0
 10
30.662009
 20
9.612041
 30
0.0
 10
30.337991
 20
9.612041
 30
0.0
 10
30.075000
 20
9.763878
 30
0.0
  0
SPLINE
  5
124
100
AcDbEntity
  8
0
 62
7
100
AcDbSpline
 70
8
 71
3
 72
8
 73
4
 74
0
 40
0
 40
0
 40
0
 40
0
 40
1
 40
1
 40
1
 40
1
 10
30.075000
 20
9.763878
 30
0.0
 10
29.812009
 20
9.915716
 30
0.0
 10
29.650000
 20
10.196324
 30
0.0
 10
29.650000
 20
10.500000
 30
0.0
  0
SPLINE
  5
125
100
AcDbEntity
  8
0
 62
7
100
AcDbSpline
 70
8
 71
3
 72
8
 73
4
 74
0
 40
0
 40
0
 40
0
 40
0
 40
1
 40
1
 40
1
 40
1
 10
29.650000
 20
10.500000
 30
0.0
 10
29.650000
 20
10.803676
 30
0.0
 10
29.812009
 20
11.084284
 30
0.0
 10
30.075000
 20
11.236122
 30
0.0
  0
SPLINE
  5
126
100
AcDbEntity
  8
0
 62
7
100
AcDbSpline
 70
8
 71
3
 72
8
 73
4
 74
0
 40
0
 40
0
 40
0
 40
0
 40
1
 40
1
 40
1
 40
1
 10
30.075000
 20
11.236122
 30
0.0
 10
30.337991
 20
11.387959
 30
0.0
 10
30.662009
 20
11.387959
 30
0.0
 10
30.925000
 20
11.236122
 30
0.0
  0
SPLINE
  5
127
100
AcDbEntity
  8
0
 62
7
100
AcDbSpline
 70
8
 71
3
 72
8
 73
4
 74
0
 40
0
 40
0
 40
0
 40
0
 40
1
 40
1
 40
1
 40
1
 10
30.925000
 20
11.236122
 30
0.0
 10
31.187991
 20
11.084284
 30
0.0
 10
31.350000
 20
10.803676
 30
0.0
 10
31.350000
 20
10.500000
 30
0.0
  0
LINE
  5
128
100
AcDbEntity
  8
0
 62
7
100
AcDbLine
 10
31.350000
 20
10.500000
 30
0.0
 11
31.350000
 21
10.500000
 31
0.0
  0
LINE
  5
129
100
AcDbEntity
  8
0
 62
7
100
AcDbLine
 10
309.799999
 20
25.500000
 30
0.0
 11
309.799999
 21
22.000000
 31
0.0
  0
LINE
  5
12a
100
AcDbEntity
  8
0
 62
7
100
AcDbLine
 10
309.799999
 20
22.000000
 30
0.0
 11
284.799999
 21
22.000000
 31
0.0
  0
LINE
  5
12b
100
AcDbEntity
  8
0
 62
7
100
AcDbLine
 10
284.799999
 20
22.000000
 30
0.0
 11
284.799999
 21
23.000000
 31
0.0
  0
LINE
  5
12c
100
AcDbEntity
  8
0
 62
7
100
AcDbLine
 10
284.799999
 20
23.000000
 30
0.0
 11
184.799999
 21
23.000000
 31
0.0
  0
LINE
  5
12d
100
AcDbEntity
  8
0
 62
7
100
AcDbLine
 10
184.799999
 20
23.000000
 30
0.0
 11
184.799999
 21
22.000000
 31
0.0
  0
LINE
  5
12e
100
AcDbEntity
  8
0
 62
7
100
AcDbLine
 10
184.799999
 20
22.000000
 30
0.0
 11
182.549999
 21
22.000000
 31
0.0
  0
LINE
  5
12f
100
AcDbEntity
  8
0
 62
7
100
AcDbLine
 10
182.549999
 20
22.000000
 30
0.0
 11
182.549999
 21
27.200000
 31
0.0
  0
LINE
  5
130
100
AcDbEntity
  8
0
 62
7
100
AcDbLine
 10
182.549999
 20
27.200000
 30
0.0
 11
162.549999
 21
27.200000
 31
0.0
  0
LINE
  5
131
100
AcDbEntity
  8
0
 62
7
100
AcDbLine
 10
162.549999
 20
27.200000
 30
0.0
 11
162.549999
 21
22.500000
 31
0.0
  0
LINE
  5
132
100
AcDbEntity
  8
0
 62
7
100
AcDbLine
 10
162.549999
 20
22.500000
 30
0.0
 11
159.799999
 21
22.500000
 31
0.0
  0
LINE
  5
133
100
AcDbEntity
  8
0
 62
7
100
AcDbLine
 10
159.799999
 20
22.500000
 30
0.0
 11
159.799999
 21
25.500000
 31
0.0
  0
SPLINE
  5
134
100
AcDbEntity
  8
0
 62
7
100
AcDbSpline
 70
8
 71
3
 72
8
 73
4
 74
0
 40
0
 40
0
 40
0
 40
0
 40
1
 40
1
 40
1
 40
1
 10
159.799999
 20
25.500000
 30
0.0
 10
159.799999
 20
26.826082
 30
0.0
 10
160.326783
 20
28.097852
 30
0.0
 10
161.264465
 20
29.035534
 30
0.0
  0
SPLINE
  5
135
100
AcDbEntity
  8
0
 62
7
100
AcDbSpline
 70
8
 71
3
 72
8
 73
4
 74
0
 40
0
 40
0
 40
0
 40
0
 40
1
 40
1
 40
1
 40
1
 10
161.264465
 20
29.035534
 30
0.0
 10
162.202147
 20
29.973216
 30
0.0
 10
163.473917
 20
30.500000
 30
0.0
 10
164.799999
 20
30.500000
 30
0.0
  0
LINE
  5
136
100
AcDbEntity
  8
0
 62
7
100
AcDbLine
 10
164.799999
 20
30.500000
 30
0.0
 11
304.799999
 21
30.500000
 31
0.0
  0
SPLINE
  5
137
100
AcDbEntity
  8
0
 62
7
100
AcDbSpline
 70
8
 71
3
 72
8
 73
4
 74
0
 40
0
 40
0
 40
0
 40
0
 40
1
 40
1
 40
1
 40
1
 10
304.799999
 20
30.500000
 30
0.0
 10
306.126081
 20
30.500000
 30
0.0
 10
307.397851
 20
29.973216
 30
0.0
 10
308.335533
 20
29.035534
 30
0.0
  0
SPLINE
  5
138
100
AcDbEntity
  8
0
 62
7
100
AcDbSpline
 70
8
 71
3
 72
8
 73
4
 74
0
 40
0
 40
0
 40
0
 40
0
 40
1
 40
1
 40
1
 40
1
 10
308.335533
 20
29.035534
 30
0.0
 10
309.273215
 20
28.097852
 30
0.0
 10
309.799999
 20
26.826082
 30
0.0
 10
309.799999
 20
25.500000
 30
0.0
  0
LINE
  5
139
100
AcDbEntity
  8
0
 62
7
100
AcDbLine
 10
309.799999
 20
25.500000
 30
0.0
 11
309.799999
 21
25.500000
 31
0.0
  0
SPLINE
  5
13a
100
AcDbEntity
  8
0
 62
7
100
AcDbSpline
 70
8
 71
3
 72
8
 73
4
 74
0
 40
0
 40
0
 40
0
 40
0
 40
1
 40
1
 40
1
 40
1
 10
185.649999
 20
25.500000
 30
0.0
 10
185.649999
 20
25.196324
 30
0.0
 10
185.487990
 20
24.915716
 30
0.0
 10
185.224999
 20
24.763878
 30
0.0
  0
SPLINE
  5
13b
100
AcDbEntity
  8
0
 62
7
100
AcDbSpline
 70
8
 71
3
 72
8
 73
4
 74
0
 40
0
 40
0
 40
0
 40
0
 40
1
 40
1
 40
1
 40
1
 10
185.224999
 20
24.763878
 30
0.0
 10
184.962008
 20
24.612041
 30
0.0
 10
184.637990
 20
24.612041
 30
0.0
 10
184.374999
 20
24.763878
 30
0.0
  0
SPLINE
  5
13c
100
AcDbEntity
  8
0
 62
7
100
AcDbSpline
 70
8
 71
3
 72
8
 73
4
 74
0
 40
0
 40
0
 40
0
 40
0
 40
1
 40
1
 40
1
 40
1
 10
184.374999
 20
24.763878
 30
0.0
 10
184.112008
 20
24.915716
 30
0.0
 10
183.949999
 20
25.196324
 30
0.0
 10
183.949999
 20
25.500000
 30
0.0
  0
SPLINE
  5
13d
100
AcDbEntity
  8
0
 62
7
100
AcDbSpline
 70
8
 71
3
 72
8
 73
4
 74
0
 40
0
 40
0
 40
0
 40
0
 40
1
 40
1
 40
1
 40
1
 10
183.949999
 20
25.500000
 30
0.0
 10
183.949999
 20
25.803676
 30
0.0
 10
184.112008
 20
26.084284
 30
0.0
 10
184.374999
 20
26.236122
 30
0.0
  0
SPLINE
  5
13e
100
AcDbEntity
  8
0
 62
7
100
AcDbSpline
 70
8
 71
3
 72
8
 73
4
 74
0
 40
0
 40
0
 40
0
 40
0
 40
1
 40
1
 40
1
 40
1
 10
184.374999
 20
26.236122
 30
0.0
 10
184.637990
 20
26.387959
 30
0.0
 10
184.962008
 20
26.387959
 30
0.0
 10
185.224999
 20
26.236122
 30
0.0
  0
SPLINE
  5
13f
100
AcDbEntity
  8
0
 62
7
100
AcDbSpline
 70
8
 71
3
 72
8
 73
4
 74
0
 40
0
 40
0
 40
0
 40
0
 40
1
 40
1
 40
1
 40
1
 10
185.224999
 20
26.236122
 30
0.0
 10
185.487990
 20
26.084284
 30
0.0
 10
185.649999
 20
25.803676
 30
0.0
 10
185.649999
 20
25.500000
 30
0.0
  0
LINE
  5
140
100
AcDbEntity
  8
0
 62
7
100
AcDbLine
 10
185.649999
 20
25.500000
 30
0.0
 11
185.649999
 21
25.500000
 31
0.0
  0
SPLINE
  5
141
100
AcDbEntity
  8
0
 62
7
100
AcDbSpline
 70
8
 71
3
 72
8
 73
4
 74
0
 40
0
 40
0
 40
0
 40
0
 40
1
 40
1
 40
1
 40
1
 10
285.649999
 20
25.500000
 30
0.0
 10
285.649999
 20
25.196324
 30
0.0
 10
285.487990
 20
24.915716
 30
0.0
 10
285.224999
 20
24.763878
 30
0.0
  0
SPLINE
  5
142
100
AcDbEntity
  8
0
 62
7
100
AcDbSpline
 70
8
 71
3
 72
8
 73
4
 74
0
 40
0
 40
0
 40
0
 40
0
 40
1
 40
1
 40
1
 40
1
 10
285.224999
 20
24.763878
 30
0.0
 10
284.962008
 20
24.612041
 30
0.0
 10
284.637990
 20
24.612041
 30
0.0
 10
284.374999
 20
24.763878
 30
0.0
  0
SPLINE
  5
143
100
AcDbEntity
  8
0
 62
7
100
AcDbSpline
 70
8
 71
3
 72
8
 73
4
 74
0
 40
0
 40
0
 40
0
 40
0
 40
1
 40
1
 40
1
 40
1
 10
284.374999
 20
24.763878
 30
0.0
 10
284.112008
 20
24.915716
 30
0.0
 10
283.949999
 20
25.196324
 30
0.0
 10
283.949999
 20
25.500000
 30
0.0
  0
SPLINE
  5
144
100
AcDbEntity
  8
0
 62
7
100
AcDbSpline
 70
8
 71
3
 72
8
 73
4
 74
0
 40
0
 40
0
 40
0
 40
0
 40
1
 40
1
 40
1
 40
1
 10
283.949999
 20
25.500000
 30
0.0
 10
283.949999
 20
25.803676
 30
0.0
 10
284.112008
 20
26.084284
 30
0.0
 10
284.374999
 20
26.236122
 30
0.0
  0
SPLINE
  5
145
100
AcDbEntity
  8
0
 62
7
100
AcDbSpline
 70
8
 71
3
 72
8
 73
4
 74
0
 40
0
 40
0
 40
0
 40
0
 40
1
 40
1
 40
1
 40
1
 10
284.374999
 20
26.236122
 30
0.0
 10
284.637990
 20
26.387959
 30
0.0
 10
284.962008
 20
26.387959
 30
0.0
 10
285.224999
 20
26.236122
 30
0.0
  0
SPLINE
  5
146
100
AcDbEntity
  8
0
 62
7
100
AcDbSpline
 70
8
 71
3
 72
8
 73
4
 74
0
 40
0
 40
0
 40
0
 40
0
 40
1
 40
1
 40
1
 40
1
 10
285.224999
 20
26.236122
 30
0.0
 10
285.487990
 20
26.084284
 30
0.0
 10
285.649999
 20
25.803676
 30
0.0
 10
285.649999
 20
25.500000
 30
0.0
  0
LINE
  5
147
100
AcDbEntity
  8
0
 62
7
100
AcDbLine
 10
285.649999
 20
25.500000
 30
0.0
 11
285.649999
 21
25.500000
 31
0.0
  0
LINE
  5
148
100
AcDbEntity
  8
0
 62
7
100
AcDbLine
 10
162.549999
 20
8.800000
 30
0.0
 11
182.549999
 21
8.800000
 31
0.0
  0
LINE
  5
149
100
AcDbEntity
  8
0
 62
7
100
AcDbLine
 10
182.549999
 20
8.800000
 30
0.0
 11
182.549999
 21
14.000000
 31
0.0
  0
LINE
  5
14a
100
AcDbEntity
  8
0
 62
7
100
AcDbLine
 10
182.549999
 20
14.000000
 30
0.0
 11
184.799999
 21
14.000000
 31
0.0
  0
LINE
  5
14b
100
AcDbEntity
  8
0
 62
7
100
AcDbLine
 10
184.799999
 20
14.000000
 30
0.0
 11
184.799999
 21
13.000000
 31
0.0
  0
LINE
  5
14c
100
AcDbEntity
  8
0
 62
7
100
AcDbLine
 10
184.799999
 20
13.000000
 30
0.0
 11
284.799999
 21
13.000000
 31
0.0
  0
LINE
  5
14d
100
AcDbEntity
  8
0
 62
7
100
AcDbLine
 10
284.799999
 20
13.000000
 30
0.0
 11
284.799999
 21
14.000000
 31
0.0
  0
LINE
  5
14e
100
AcDbEntity
  8
0
 62
7
100
AcDbLine
 10
284.799999
 20
14.000000
 30
0.0
 11
309.799999
 21
14.000000
 31
0.0
  0
LINE
  5
14f
100
AcDbEntity
  8
0
 62
7
100
AcDbLine
 10
309.799999
 20
14.000000
 30
0.0
 11
309.799999
 21
10.500000
 31
0.0
  0
SPLINE
  5
150
100
AcDbEntity
  8
0
 62
7
100
AcDbSpline
 70
8
 71
3
 72
8
 73
4
 74
0
 40
0
 40
0
 40
0
 40
0
 40
1
 40
1
 40
1
 40
1
 10
309.799999
 20
10.500000
 30
0.0
 10
309.799999
 20
9.173918
 30
0.0
 10
309.273215
 20
7.902148
 30
0.0
 10
308.335533
 20
6.964466
 30
0.0
  0
SPLINE
  5
151
100
AcDbEntity
  8
0
 62
7
100
AcDbSpline
 70
8
 71
3
 72
8
 73
4
 74
0
 40
0
 40
0
 40
0
 40
0
 40
1
 40
1
 40
1
 40
1
 10
308.335533
 20
6.964466
 30
0.0
 10
307.397851
 20
6.026784
 30
0.0
 10
306.126081
 20
5.500000
 30
0.0
 10
304.799999
 20
5.500000
 30
0.0
  0
LINE
  5
152
100
AcDbEntity
  8
0
 62
7
100
AcDbLine
 10
304.799999
 20
5.500000
 30
0.0
 11
164.799999
 21
5.500000
 31
0.0
  0
SPLINE
  5
153
100
AcDbEntity
  8
0
 62
7
100
AcDbSpline
 70
8
 71
3
 72
8
 73
4
 74
0
 40
0
 40
0
 40
0
 40
0
 40
1
 40
1
 40
1
 40
1
 10
164.799999
 20
5.500000
 30
0.0
 10
163.473917
 20
5.500000
 30
0.0
 10
162.202147
 20
6.026784
 30
0.0
 10
161.264465
 20
6.964466
 30
0.0
  0
SPLINE
  5
154
100
AcDbEntity
  8
0
 62
7
100
AcDbSpline
 70
8
 71
3
 72
8
 73
4
 74
0
 40
0
 40
0
 40
0
 40
0
 40
1
 40
1
 40
1
 40
1
 10
161.264465
 20
6.964466
 30
0.0
 10
160.326783
 20
7.902148
 30
0.0
 10
159.799999
 20
9.173918
 30
0.0
 10
159.799999
 20
10.500000
 30
0.0
  0
LINE
  5
155
100
AcDbEntity
  8
0
 62
7
100
AcDbLine
 10
159.799999
 20
10.500000
 30
0.0
 11
159.799999
 21
13.500000
 31
0.0
  0
LINE
  5
156
100
AcDbEntity
  8
0
 62
7
100
AcDbLine
 10
159.799999
 20
13.500000
 30
0.0
 11
162.549999
 21
13.500000
 31
0.0
  0
LINE
  5
157
100
AcDbEntity
  8
0
 62
7
100
AcDbLine
 10
162.549999
 20
13.500000
 30
0.0
 11
162.549999
 21
8.800000
 31
0.0
  0
SPLINE
  5
158
100
AcDbEntity
  8
0
 62
7
100
AcDbSpline
 70
8
 71
3
 72
8
 73
4
 74
0
 40
0
 40
0
 40
0
 40
0
 40
1
 40
1
 40
1
 40
1
 10
285.649999
 20
10.500000
 30
0.0
 10
285.649999
 20
10.196324
 30
0.0
 10
285.487990
 20
9.915716
 30
0.0
 10
285.224999
 20
9.763878
 30
0.0
  0
SPLINE
  5
159
100
AcDbEntity
  8
0
 62
7
100
AcDbSpline
 70
8
 71
3
 72
8
 73
4
 74
0
 40
0
 40
0
 40
0
 40
0
 40
1
 40
1
 40
1
 40
1
 10
285.224999
 20
9.763878
 30
0.0
 10
284.962008
 20
9.612041
 30
0.0
 10
284.637990
 20
9.612041
 30
0.0
 10
284.374999
 20
9.763878
 30
0.0
  0
SPLINE
  5
15a
100
AcDbEntity
  8
0
 62
7
100
AcDbSpline
 70
8
 71
3
 72
8
 73
4
 74
0
 40
0
 40
0
 40
0
 40
0
 40
1
 40
1
 40
1
 40
1
 10
284.374999
 20
9.763878
 30
0.0
 10
284.112008
 20
9.915716
 30
0.0
 10
283.949999
 20
10.196324
 30
0.0
 10
283.949999
 20
10.500000
 30
0.0
  0
SPLINE
  5
15b
100
AcDbEntity
  8
0
 62
7
100
AcDbSpline
 70
8
 71
3
 72
8
 73
4
 74
0
 40
0
 40
0
 40
0
 40
0
 40
1
 40
1
 40
1
 40
1
 10
283.949999
 20
10.500000
 30
0.0
 10
283.949999
 20
10.803676
 30
0.0
 10
284.112008
 20
11.084284
 30
0.0
 10
284.374999
 20
11.236122
 30
0.0
  0
SPLINE
  5
15c
100
AcDbEntity
  8
0
 62
7
100
AcDbSpline
 70
8
 71
3
 72
8
 73
4
 74
0
 40
0
 40
0
 40
0
 40
0
 40
1
 40
1
 40
1
 40
1
 10
284.374999
 20
11.236122
 30
0.0
 10
284.637990
 20
11.387959
 30
0.0
 10
284.962008
 20
11.387959
 30
0.0
 10
285.224999
 20
11.236122
 30
0.0
  0
SPLINE
  5
15d
100
AcDbEntity
  8
0
 62
7
100
AcDbSpline
 70
8
 71
3
 72
8
 73
4
 74
0
 40
0
 40
0
 40
0
 40
0
 40
1
 40
1
 40
1
 40
1
 10
285.224999
 20
11.236122
 30
0.0
 10
285.487990
 20
11.084284
 30
0.0
 10
285.649999
 20
10.803676
 30
0.0
 10
285.649999
 20
10.500000
 30
0.0
  0
LINE
  5
15e
100
AcDbEntity
  8
0
 62
7
100
AcDbLine
 10
285.649999
 20
10.500000
 30
0.0
 11
285.649999
 21
10.500000
 31
0.0
  0
SPLINE
  5
15f
100
AcDbEntity
  8
0
 62
7
100
AcDbSpline
 70
8
 71
3
 72
8
 73
4
 74
0
 40
0
 40
0
 40
0
 40
0
 40
1
 40
1
 40
1
 40
1
 10
185.649999
 20
10.500000
 30
0.0
 10
185.649999
 20
10.196324
 30
0.0
 10
185.487990
 20
9.915716
 30
0.0
 10
185.224999
 20
9.763878
 30
0.0
  0
SPLINE
  5
160
100
AcDbEntity
  8
0
 62
7
100
AcDbSpline
 70
8
 71
3
 72
8
 73
4
 74
0
 40
0
 40
0
 40
0
 40
0
 40
1
 40
1
 40
1
 40
1
 10
185.224999
 20
9.763878
 30
0.0
 10
184.962008
 20
9.612041
 30
0.0
 10
184.637990
 20
9.612041
 30
0.0
 10
184.374999
 20
9.763878
 30
0.0
  0
SPLINE
  5
161
100
AcDbEntity
  8
0
 62
7
100
AcDbSpline
 70
8
 71
3
 72
8
 73
4
 74
0
 40
0
 40
0
 40
0
 40
0
 40
1
 40
1
 40
1
 40
1
 10
184.374999
 20
9.763878
 30
0.0
 10
184.112008
 20
9.915716
 30
0.0
 10
183.949999
 20
10.196324
 30
0.0
 10
183.949999
 20
10.500000
 30
0.0
  0
SPLINE
  5
162
100
AcDbEntity
  8
0
 62
7
100
AcDbSpline
 70
8
 71
3
 72
8
 73
4
 74
0
 40
0
 40
0
 40
0
 40
0
 40
1
 40
1
 40
1
 40
1
 10
183.949999
 20
10.500000
 30
0.0
 10
183.949999
 20
10.803676
 30
0.0
 10
184.112008
 20
11.084284
 30
0.0
 10
184.374999
 20
11.236122
 30
0.0
  0
SPLINE
  5
163
100
AcDbEntity
  8
0
 62
7
100
AcDbSpline
 70
8
 71
3
 72
8
 73
4
 74
0
 40
0
 40
0
 40
0
 40
0
 40
1
 40
1
 40
1
 40
1
 10
184.374999
 20
11.236122
 30
0.0
 10
184.637990
 20
11.387959
 30
0.0
 10
184.962008
 20
11.387959
 30
0.0
 10
185.224999
 20
11.236122
 30
0.0
  0
SPLINE
  5
164
100
AcDbEntity
  8
0
 62
7
100
AcDbSpline
 70
8
 71
3
 72
8
 73
4
 74
0
 40
0
 40
0
 40
0
 40
0
 40
1
 40
1
 40
1
 40
1
 10
185.224999
 20
11.236122
 30
0.0
 10
185.487990
 20
11.084284
 30
0.0
 10
185.649999
 20
10.803676
 30
0.0
 10
185.649999
 20
10.500000
 30
0.0
  0
LINE
  5
165
100
AcDbEntity
  8
0
 62
7
100
AcDbLine
 10
185.649999
 20
10.500000
 30
0.0
 11
185.649999
 21
10.500000
 31
0.0
  0
LINE
  5
166
100
AcDbEntity
  8
0
 62
7
100
AcDbLine
 10
466.200002
 20
25.853846
 30
0.0
 11
466.200002
 21
10.853846
 31
0.0
  0
SPLINE
  5
167
100
AcDbEntity
  8
0
 62
7
100
AcDbSpline
 70
8
 71
3
 72
8
 73
4
 74
0
 40
0
 40
0
 40
0
 40
0
 40
1
 40
1
 40
1
 40
1
 10
466.200002
 20
10.853846
 30
0.0
 10
466.200002
 20
9.527764
 30
0.0
 10
465.673218
 20
8.255994
 30
0.0
 10
464.735536
 20
7.318312
 30
0.0
  0
SPLINE
  5
168
100
AcDbEntity
  8
0
 62
7
100
AcDbSpline
 70
8
 71
3
 72
8
 73
4
 74
0
 40
0
 40
0
 40
0
 40
0
 40
1
 40
1
 40
1
 40
1
 10
464.735536
 20
7.318312
 30
0.0
 10
463.797854
 20
6.380630
 30
0.0
 10
462.526084
 20
5.853846
 30
0.0
 10
461.200002
 20
5.853846
 30
0.0
  0
LINE
  5
169
100
AcDbEntity
  8
0
 62
7
100
AcDbLine
 10
461.200002
 20
5.853846
 30
0.0
 11
321.200002
 21
5.853846
 31
0.0
  0
SPLINE
  5
16a
100
AcDbEntity
  8
0
 62
7
100
AcDbSpline
 70
8
 71
3
 72
8
 73
4
 74
0
 40
0
 40
0
 40
0
 40
0
 40
1
 40
1
 40
1
 40
1
 10
321.200002
 20
5.853846
 30
0.0
 10
319.873920
 20
5.853846
 30
0.0
 10
318.602150
 20
6.380630
 30
0.0
 10
317.664468
 20
7.318312
 30
0.0
  0
SPLINE
  5
16b
100
AcDbEntity
  8
0
 62
7
100
AcDbSpline
 70
8
 71
3
 72
8
 73
4
 74
0
 40
0
 40
0
 40
0
 40
0
 40
1
 40
1
 40
1
 40
1
 10
317.664468
 20
7.318312
 30
0.0
 10
316.726786
 20
8.255994
 30
0.0
 10
316.200002
 20
9.527764
 30
0.0
 10
316.200002
 20
10.853846
 30
0.0
  0
LINE
  5
16c
100
AcDbEntity
  8
0
 62
7
100
AcDbLine
 10
316.200002
 20
10.853846
 30
0.0
 11
316.200002
 21
25.853846
 31
0.0
  0
SPLINE
  5
16d
100
AcDbEntity
  8
0
 62
7
100
AcDbSpline
 70
8
 71
3
 72
8
 73
4
 74
0
 40
0
 40
0
 40
0
 40
0
 40
1
 40
1
 40
1
 40
1
 10
316.200002
 20
25.853846
 30
0.0
 10
316.200002
 20
27.179928
 30
0.0
 10
316.726786
 20
28.451698
 30
0.0
 10
317.664468
 20
29.389380
 30
0.0
  0
SPLINE
  5
16e
100
AcDbEntity
  8
0
 62
7
100
AcDbSpline
 70
8
 71
3
 72
8
 73
4
 74
0
 40
0
 40
0
 40
0
 40
0
 40
1
 40
1
 40
1
 40
1
 10
317.664468
 20
29.389380
 30
0.0
 10
318.602150
 20
30.327062
 30
0.0
 10
319.873920
 20
30.853846
 30
0.0
 10
321.200002
 20
30.853846
 30
0.0
  0
LINE
  5
16f
100
AcDbEntity
  8
0
 62
7
100
AcDbLine
 10
321.200002
 20
30.853846
 30
0.0
 11
461.200002
 21
30.853846
 31
0.0
  0
SPLINE
  5
170
100
AcDbEntity
  8
0
 62
7
100
AcDbSpline
 70
8
 71
3
 72
8
 73
4
 74
0
 40
0
 40
0
 40
0
 40
0
 40
1
 40
1
 40
1
 40
1
 10
461.200002
 20
30.853846
 30
0.0
 10
462.526084
 20
30.853846
 30
0.0
 10
463.797854
 20
30.327062
 30
0.0
 10
464.735536
 20
29.389380
 30
0.0
  0
SPLINE
  5
171
100
AcDbEntity
  8
0
 62
7
100
AcDbSpline
 70
8
 71
3
 72
8
 73
4
 74
0
 40
0
 40
0
 40
0
 40
0
 40
1
 40
1
 40
1
 40
1
 10
464.735536
 20
29.389380
 30
0.0
 10
465.673218
 20
28.451698
 30
0.0
 10
466.200002
 20
27.179928
 30
0.0
 10
466.200002
 20
25.853846
 30
0.0
  0
LINE
  5
172
100
AcDbEntity
  8
0
 62
7
100
AcDbLine
 10
466.200002
 20
25.853846
 30
0.0
 11
466.200002
 21
25.853846
 31
0.0
  0
SPLINE
  5
173
100
AcDbEntity
  8
0
 62
7
100
AcDbSpline
 70
8
 71
3
 72
8
 73
4
 74
0
 40
0
 40
0
 40
0
 40
0
 40
1
 40
1
 40
1
 40
1
 10
442.050002
 20
25.853846
 30
0.0
 10
442.050002
 20
25.550170
 30
0.0
 10
441.887993
 20
25.269562
 30
0.0
 10
441.625002
 20
25.117724
 30
0.0
  0
SPLINE
  5
174
100
AcDbEntity
  8
0
 62
7
100
AcDbSpline
 70
8
 71
3
 72
8
 73
4
 74
0
 40
0
 40
0
 40
0
 40
0
 40
1
 40
1
 40
1
 40
1
 10
441.625002
 20
25.117724
 30
0.0
 10
441.362011
 20
24.965887
 30
0.0
 10
441.037993
 20
24.965887
 30
0.0
 10
440.775002
 20
25.117724
 30
0.0
  0
SPLINE
  5
175
100
AcDbEntity
  8
0
 62
7
100
AcDbSpline
 70
8
 71
3
 72
8
 73
4
 74
0
 40
0
 40
0
 40
0
 40
0
 40
1
 40
1
 40
1
 40
1
 10
440.775002
 20
25.117724
 30
0.0
 10
440.512011
 20
25.269562
 30
0.0
 10
440.350002
 20
25.550170
 30
0.0
 10
440.350002
 20
25.853846
 30
0.0
  0
SPLINE
  5
176
100
AcDbEntity
  8
0
 62
7
100
AcDbSpline
 70
8
 71
3
 72
8
 73
4
 74
0
 40
0
 40
0
 40
0
 40
0
 40
1
 40
1
 40
1
 40
1
 10
440.350002
 20
25.853846
 30
0.0
 10
440.350002
 20
26.157522
 30
0.0
 10
440.512011
 20
26.438130
 30
0.0
 10
440.775002
 20
26.589968
 30
0.0
  0
SPLINE
  5
177
100
AcDbEntity
  8
0
 62
7
100
AcDbSpline
 70
8
 71
3
 72
8
 73
4
 74
0
 40
0
 40
0
 40
0
 40
0
 40
1
 40
1
 40
1
 40
1
 10
440.775002
 20
26.589968
 30
0.0
 10
441.037993
 20
26.741805
 30
0.0
 10
441.362011
 20
26.741805
 30
0.0
 10
441.625002
 20
26.589968
 30
0.0
  0
SPLINE
  5
178
100
AcDbEntity
  8
0
 62
7
100
AcDbSpline
 70
8
 71
3
 72
8
 73
4
 74
0
 40
0
 40
0
 40
0
 40
0
 40
1
 40
1
 40
1
 40
1
 10
441.625002
 20
26.589968
 30
0.0
 10
441.887993
 20
26.438130
 30
0.0
 10
442.050002
 20
26.157522
 30
0.0
 10
442.050002
 20
25.853846
 30
0.0
  0
LINE
  5
179
100
AcDbEntity
  8
0
 62
7
100
AcDbLine
 10
442.050002
 20
25.853846
 30
0.0
 11
442.050002
 21
25.853846
 31
0.0
  0
SPLINE
  5
17a
100
AcDbEntity
  8
0
 62
7
100
AcDbSpline
 70
8
 71
3
 72
8
 73
4
 74
0
 40
0
 40
0
 40
0
 40
0
 40
1
 40
1
 40
1
 40
1
 10
342.050002
 20
25.853846
 30
0.0
 10
342.050002
 20
25.550170
 30
0.0
 10
341.887993
 20
25.269562
 30
0.0
 10
341.625002
 20
25.117724
 30
0.0
  0
SPLINE
  5
17b
100
AcDbEntity
  8
0
 62
7
100
AcDbSpline
 70
8
 71
3
 72
8
 73
4
 74
0
 40
0
 40
0
 40
0
 40
0
 40
1
 40
1
 40
1
 40
1
 10
341.625002
 20
25.117724
 30
0.0
 10
341.362011
 20
24.965887
 30
0.0
 10
341.037993
 20
24.965887
 30
0.0
 10
340.775002
 20
25.117724
 30
0.0
  0
SPLINE
  5
17c
100
AcDbEntity
  8
0
 62
7
100
AcDbSpline
 70
8
 71
3
 72
8
 73
4
 74
0
 40
0
 40
0
 40
0
 40
0
 40
1
 40
1
 40
1
 40
1
 10
340.775002
 20
25.117724
 30
0.0
 10
340.512011
 20
25.269562
 30
0.0
 10
340.350002
 20
25.550170
 30
0.0
 10
340.350002
 20
25.853846
 30
0.0
  0
SPLINE
  5
17d
100
AcDbEntity
  8
0
 62
7
100
AcDbSpline
 70
8
 71
3
 72
8
 73
4
 74
0
 40
0
 40
0
 40
0
 40
0
 40
1
 40
1
 40
1
 40
1
 10
340.350002
 20
25.853846
 30
0.0
 10
340.350002
 20
26.157522
 30
0.0
 10
340.512011
 20
26.438130
 30
0.0
 10
340.775002
 20
26.589968
 30
0.0
  0
SPLINE
  5
17e
100
AcDbEntity
  8
0
 62
7
100
AcDbSpline
 70
8
 71
3
 72
8
 73
4
 74
0
 40
0
 40
0
 40
0
 40
0
 40
1
 40
1
 40
1
 40
1
 10
340.775002
 20
26.589968
 30
0.0
 10
341.037993
 20
26.741805
 30
0.0
 10
341.362011
 20
26.741805
 30
0.0
 10
341.625002
 20
26.589968
 30
0.0
  0
SPLINE
  5
17f
100
AcDbEntity
  8
0
 62
7
100
AcDbSpline
 70
8
 71
3
 72
8
 73
4
 74
0
 40
0
 40
0
 40
0
 40
0
 40
1
 40
1
 40
1
 40
1
 10
341.625002
 20
26.589968
 30
0.0
 10
341.887993
 20
26.438130
 30
0.0
 10
342.050002
 20
26.157522
 30
0.0
 10
342.050002
 20
25.853846
 30
0.0
  0
LINE
  5
180
100
AcDbEntity
  8
0
 62
7
100
AcDbLine
 10
342.050002
 20
25.853846
 30
0.0
 11
342.050002
 21
25.853846
 31
0.0
  0
SPLINE
  5
181
100
AcDbEntity
  8
0
 62
7
100
AcDbSpline
 70
8
 71
3
 72
8
 73
4
 74
0
 40
0
 40
0
 40
0
 40
0
 40
1
 40
1
 40
1
 40
1
 10
442.050002
 20
10.853846
 30
0.0
 10
442.050002
 20
10.550170
 30
0.0
 10
441.887993
 20
10.269562
 30
0.0
 10
441.625002
 20
10.117724
 30
0.0
  0
SPLINE
  5
182
100
AcDbEntity
  8
0
 62
7
100
AcDbSpline
 70
8
 71
3
 72
8
 73
4
 74
0
 40
0
 40
0
 40
0
 40
0
 40
1
 40
1
 40
1
 40
1
 10
441.625002
 20
10.117724
 30
0.0
 10
441.362011
 20
9.965887
 30
0.0
 10
441.037993
 20
9.965887
 30
0.0
 10
440.775002
 20
10.117724
 30
0.0
  0
SPLINE
  5
183
100
AcDbEntity
  8
0
 62
7
100
AcDbSpline
 70
8
 71
3
 72
8
 73
4
 74
0
 40
0
 40
0
 40
0
 40
0
 40
1
 40
1
 40
1
 40
1
 10
440.775002
 20
10.117724
 30
0.0
 10
440.512011
 20
10.269562
 30
0.0
 10
440.350002
 20
10.550170
 30
0.0
 10
440.350002
 20
10.853846
 30
0.0
  0
SPLINE
  5
184
100
AcDbEntity
  8
0
 62
7
100
AcDbSpline
 70
8
 71
3
 72
8
 73
4
 74
0
 40
0
 40
0
 40
0
 40
0
 40
1
 40
1
 40
1
 40
1
 10
440.350002
 20
10.853846
 30
0.0
 10
440.350002
 20
11.157522
 30
0.0
 10
440.512011
 20
11.438130
 30
0.0
 10
440.775002
 20
11.589968
 30
0.0
  0
SPLINE
  5
185
100
AcDbEntity
  8
0
 62
7
100
AcDbSpline
 70
8
 71
3
 72
8
 73
4
 74
0
 40
0
 40
0
 40
0
 40
0
 40
1
 40
1
 40
1
 40
1
 10
440.775002
 20
11.589968
 30
0.0
 10
441.037993
 20
11.741805
 30
0.0
 10
441.362011
 20
11.741805
 30
0.0
 10
441.625002
 20
11.589968
 30
0.0
  0
SPLINE
  5
186
100
AcDbEntity
  8
0
 62
7
100
AcDbSpline
 70
8
 71
3
 72
8
 73
4
 74
0
 40
0
 40
0
 40
0
 40
0
 40
1
 40
1
 40
1
 40
1
 10
441.625002
 20
11.589968
 30
0.0
 10
441.887993
 20
11.438130
 30
0.0
 10
442.050002
 20
11.157522
 30
0.0
 10
442.050002
 20
10.853846
 30
0.0
  0
LINE
  5
187
100
AcDbEntity
  8
0
 62
7
100
AcDbLine
 10
442.050002
 20
10.853846
 30
0.0
 11
442.050002
 21
10.853846
 31
0.0
  0
LINE
  5
188
100
AcDbEntity
  8
0
 62
7
100
AcDbLine
 10
439.200002
 20
16.903846
 30
0.0
 11
343.200002
 21
16.903846
 31
0.0
  0
LINE
  5
189
100
AcDbEntity
  8
0
 62
7
100
AcDbLine
 10
343.200002
 20
16.903846
 30
0.0
 11
343.200002
 21
19.803846
 31
0.0
  0
LINE
  5
18a
100
AcDbEntity
  8
0
 62
7
100
AcDbLine
 10
343.200002
 20
19.803846
 30
0.0
 11
439.200002
 21
19.803846
 31
0.0
  0
LINE
  5
18b
100
AcDbEntity
  8
0
 62
7
100
AcDbLine
 10
439.200002
 20
19.803846
 30
0.0
 11
439.200002
 21
16.903846
 31
0.0
  0
SPLINE
  5
18c
100
AcDbEntity
  8
0
 62
7
100
AcDbSpline
 70
8
 71
3
 72
8
 73
4
 74
0
 40
0
 40
0
 40
0
 40
0
 40
1
 40
1
 40
1
 40
1
 10
342.050002
 20
10.853846
 30
0.0
 10
342.050002
 20
10.550170
 30
0.0
 10
341.887993
 20
10.269562
 30
0.0
 10
341.625002
 20
10.117724
 30
0.0
  0
SPLINE
  5
18d
100
AcDbEntity
  8
0
 62
7
100
AcDbSpline
 70
8
 71
3
 72
8
 73
4
 74
0
 40
0
 40
0
 40
0
 40
0
 40
1
 40
1
 40
1
 40
1
 10
341.625002
 20
10.117724
 30
0.0
 10
341.362011
 20
9.965887
 30
0.0
 10
341.037993
 20
9.965887
 30
0.0
 10
340.775002
 20
10.117724
 30
0.0
  0
SPLINE
  5
18e
100
AcDbEntity
  8
0
 62
7
100
AcDbSpline
 70
8
 71
3
 72
8
 73
4
 74
0
 40
0
 40
0
 40
0
 40
0
 40
1
 40
1
 40
1
 40
1
 10
340.775002
 20
10.117724
 30
0.0
 10
340.512011
 20
10.269562
 30
0.0
 10
340.350002
 20
10.550170
 30
0.0
 10
340.350002
 20
10.853846
 30
0.0
  0
SPLINE
  5
18f
100
AcDbEntity
  8
0
 62
7
100
AcDbSpline
 70
8
 71
3
 72
8
 73
4
 74
0
 40
0
 40
0
 40
0
 40
0
 40
1
 40
1
 40
1
 40
1
 10
340.350002
 20
10.853846
 30
0.0
 10
340.350002
 20
11.157522
 30
0.0
 10
340.512011
 20
11.438130
 30
0.0
 10
340.775002
 20
11.589968
 30
0.0
  0
SPLINE
  5
190
100
AcDbEntity
  8
0
 62
7
100
AcDbSpline
 70
8
 71
3
 72
8
 73
4
 74
0
 40
0
 40
0
 40
0
 40
0
 40
1
 40
1
 40
1
 40
1
 10
340.775002
 20
11.589968
 30
0.0
 10
341.037993
 20
11.741805
 30
0.0
 10
341.362011
 20
11.741805
 30
0.0
 10
341.625002
 20
11.589968
 30
0.0
  0
SPLINE
  5
191
100
AcDbEntity
  8
0
 62
7
100
AcDbSpline
 70
8
 71
3
 72
8
 73
4
 74
0
 40
0
 40
0
 40
0
 40
0
 40
1
 40
1
 40
1
 40
1
 10
341.625002
 20
11.589968
 30
0.0
 10
341.887993
 20
11.438130
 30
0.0
 10
342.050002
 20
11.157522
 30
0.0
 10
342.050002
 20
10.853846
 30
0.0
  0
LINE
  5
192
100
AcDbEntity
  8
0
 62
7
100
AcDbLine
 10
342.050002
 20
10.853846
 30
0.0
 11
342.050002
 21
10.853846
 31
0.0
  0
LINE
  5
193
100
AcDbEntity
  8
0
 62
3
100
AcDbLine
 10
318.950010
 20
27.553846
 30
0.0
 11
338.950012
 21
27.553846
 31
0.0
  0
LINE
  5
194
100
AcDbEntity
  8
0
 62
3
100
AcDbLine
 10
338.950012
 20
27.553846
 30
0.0
 11
338.950012
 21
9.153846
 31
0.0
  0
LINE
  5
195
100
AcDbEntity
  8
0
 62
3
100
AcDbLine
 10
338.950012
 20
9.153846
 30
0.0
 11
318.950010
 21
9.153846
 31
0.0
  0
LINE
  5
196
100
AcDbEntity
  8
0
 62
3
100
AcDbLine
 10
318.950010
 20
9.153846
 30
0.0
 11
318.950010
 21
27.553846
 31
0.0
  0
LINE
  5
197
100
AcDbEntity
  8
0
 62
3
100
AcDbLine
 10
316.200010
 20
22.853846
 30
0.0
 11
318.950010
 21
22.853846
 31
0.0
  0
LINE
  5
198
100
AcDbEntity
  8
0
 62
3
100
AcDbLine
 10
318.950010
 20
22.853846
 30
0.0
 11
318.950010
 21
13.853846
 31
0.0
  0
LINE
  5
199
100
AcDbEntity
  8
0
 62
3
100
AcDbLine
 10
318.950010
 20
13.853846
 30
0.0
 11
316.200010
 21
13.853846
 31
0.0
  0
LINE
  5
19a
100
AcDbEntity
  8
0
 62
3
100
AcDbLine
 10
316.200010
 20
13.853846
 30
0.0
 11
316.200010
 21
22.853846
 31
0.0
  0
LINE
  5
19b
100
AcDbEntity
  8
0
 62
7
100
AcDbLine
 10
52.041096
 20
24.356764
 30
0.0
 11
50.812867
 21
24.585165
 31
0.0
  0
SPLINE
  5
19c
100
AcDbEntity
  8
0
 62
7
100
AcDbSpline
 70
8
 71
3
 72
8
 73
4
 74
0
 40
0
 40
0
 40
0
 40
0
 40
1
 40
1
 40
1
 40
1
 10
50.812867
 20
24.585165
 30
0.0
 10
50.782997
 20
24.590765
 30
0.0
 10
50.750297
 20
24.618865
 30
0.0
 10
50.740187
 20
24.647705
 30
0.0
  0
LINE
  5
19d
100
AcDbEntity
  8
0
 62
7
100
AcDbLine
 10
50.740187
 20
24.647705
 30
0.0
 11
50.363696
 21
25.526048
 31
0.0
  0
SPLINE
  5
19e
100
AcDbEntity
  8
0
 62
7
100
AcDbSpline
 70
8
 71
3
 72
8
 73
4
 74
0
 40
0
 40
0
 40
0
 40
0
 40
1
 40
1
 40
1
 40
1
 10
50.363696
 20
25.526048
 30
0.0
 10
50.349696
 20
25.553168
 30
0.0
 10
50.352316
 20
25.595758
 30
0.0
 10
50.369696
 20
25.621008
 30
0.0
  0
LINE
  5
19f
100
AcDbEntity
  8
0
 62
7
100
AcDbLine
 10
50.369696
 20
25.621008
 30
0.0
 11
51.085306
 21
26.664020
 31
0.0
  0
SPLINE
  5
1a0
100
AcDbEntity
  8
0
 62
7
100
AcDbSpline
 70
8
 71
3
 72
8
 73
4
 74
0
 40
0
 40
0
 40
0
 40
0
 40
1
 40
1
 40
1
 40
1
 10
51.085306
 20
26.664020
 30
0.0
 10
51.102446
 20
26.689120
 30
0.0
 10
51.099076
 20
26.727300
 30
0.0
 10
51.077406
 20
26.748900
 30
0.0
  0
LINE
  5
1a1
100
AcDbEntity
  8
0
 62
7
100
AcDbLine
 10
51.077406
 20
26.748900
 30
0.0
 11
50.183596
 21
27.642709
 31
0.0
  0
SPLINE
  5
1a2
100
AcDbEntity
  8
0
 62
7
100
AcDbSpline
 70
8
 71
3
 72
8
 73
4
 74
0
 40
0
 40
0
 40
0
 40
0
 40
1
 40
1
 40
1
 40
1
 10
50.183596
 20
27.642709
 30
0.0
 10
50.162036
 20
27.664299
 30
0.0
 10
50.123946
 20
27.667809
 30
0.0
 10
50.098796
 20
27.650509
 30
0.0
  0
LINE
  5
1a3
100
AcDbEntity
  8
0
 62
7
100
AcDbLine
 10
50.098796
 20
27.650509
 30
0.0
 11
49.037481
 21
26.922193
 31
0.0
  0
SPLINE
  5
1a4
100
AcDbEntity
  8
0
 62
7
100
AcDbSpline
 70
8
 71
3
 72
8
 73
4
 74
0
 40
0
 40
0
 40
0
 40
0
 40
1
 40
1
 40
1
 40
1
 10
49.037481
 20
26.922193
 30
0.0
 10
49.012411
 20
26.904933
 30
0.0
 10
48.969371
 20
26.901873
 30
0.0
 10
48.942071
 20
26.915293
 30
0.0
  0
LINE
  5
1a5
100
AcDbEntity
  8
0
 62
7
100
AcDbLine
 10
48.942071
 20
26.915293
 30
0.0
 11
48.090625
 21
27.263836
 31
0.0
  0
SPLINE
  5
1a6
100
AcDbEntity
  8
0
 62
7
100
AcDbSpline
 70
8
 71
3
 72
8
 73
4
 74
0
 40
0
 40
0
 40
0
 40
0
 40
1
 40
1
 40
1
 40
1
 10
48.090625
 20
27.263836
 30
0.0
 10
48.061735
 20
27.273436
 30
0.0
 10
48.033515
 20
27.305746
 30
0.0
 10
48.027905
 20
27.335716
 30
0.0
  0
LINE
  5
1a7
100
AcDbEntity
  8
0
 62
7
100
AcDbLine
 10
48.027905
 20
27.335716
 30
0.0
 11
47.791426
 21
28.606086
 31
0.0
  0
SPLINE
  5
1a8
100
AcDbEntity
  8
0
 62
7
100
AcDbSpline
 70
8
 71
3
 72
8
 73
4
 74
0
 40
0
 40
0
 40
0
 40
0
 40
1
 40
1
 40
1
 40
1
 10
47.791426
 20
28.606086
 30
0.0
 10
47.786226
 20
28.636046
 30
0.0
 10
47.756396
 20
28.660556
 30
0.0
 10
47.725936
 20
28.660556
 30
0.0
  0
LINE
  5
1a9
100
AcDbEntity
  8
0
 62
7
100
AcDbLine
 10
47.725936
 20
28.660556
 30
0.0
 11
46.461772
 21
28.660556
 31
0.0
  0
SPLINE
  5
1aa
100
AcDbEntity
  8
0
 62
7
100
AcDbSpline
 70
8
 71
3
 72
8
 73
4
 74
0
 40
0
 40
0
 40
0
 40
0
 40
1
 40
1
 40
1
 40
1
 10
46.461772
 20
28.660556
 30
0.0
 10
46.431382
 20
28.660556
 30
0.0
 10
46.401822
 20
28.636056
 30
0.0
 10
46.396282
 20
28.606086
 30
0.0
  0
LINE
  5
1ab
100
AcDbEntity
  8
0
 62
7
100
AcDbLine
 10
46.396282
 20
28.606086
 30
0.0
 11
46.159894
 21
27.335716
 31
0.0
  0
SPLINE
  5
1ac
100
AcDbEntity
  8
0
 62
7
100
AcDbSpline
 70
8
 71
3
 72
8
 73
4
 74
0
 40
0
 40
0
 40
0
 40
0
 40
1
 40
1
 40
1
 40
1
 10
46.159894
 20
27.335716
 30
0.0
 10
46.153894
 20
27.305756
 30
0.0
 10
46.126134
 20
27.273406
 30
0.0
 10
46.097174
 20
27.263836
 30
0.0
  0
LINE
  5
1ad
100
AcDbEntity
  8
0
 62
7
100
AcDbLine
 10
46.097174
 20
27.263836
 30
0.0
 11
45.245672
 21
26.915345
 31
0.0
  0
SPLINE
  5
1ae
100
AcDbEntity
  8
0
 62
7
100
AcDbSpline
 70
8
 71
3
 72
8
 73
4
 74
0
 40
0
 40
0
 40
0
 40
0
 40
1
 40
1
 40
1
 40
1
 10
45.245672
 20
26.915345
 30
0.0
 10
45.218282
 20
26.901895
 30
0.0
 10
45.175312
 20
26.904965
 30
0.0
 10
45.150262
 20
26.922245
 30
0.0
  0
LINE
  5
1af
100
AcDbEntity
  8
0
 62
7
100
AcDbLine
 10
45.150262
 20
26.922245
 30
0.0
 11
44.089014
 21
27.650561
 31
0.0
  0
SPLINE
  5
1b0
100
AcDbEntity
  8
0
 62
7
100
AcDbSpline
 70
8
 71
3
 72
8
 73
4
 74
0
 40
0
 40
0
 40
0
 40
0
 40
1
 40
1
 40
1
 40
1
 10
44.089014
 20
27.650561
 30
0.0
 10
44.063864
 20
27.667821
 30
0.0
 10
44.025694
 20
27.664311
 30
0.0
 10
44.004144
 20
27.642761
 30
0.0
  0
LINE
  5
1b1
100
AcDbEntity
  8
0
 62
7
100
AcDbLine
 10
44.004144
 20
27.642761
 30
0.0
 11
43.110214
 21
26.748952
 31
0.0
  0
SPLINE
  5
1b2
100
AcDbEntity
  8
0
 62
7
100
AcDbSpline
 70
8
 71
3
 72
8
 73
4
 74
0
 40
0
 40
0
 40
0
 40
0
 40
1
 40
1
 40
1
 40
1
 10
43.110214
 20
26.748952
 30
0.0
 10
43.088734
 20
26.727362
 30
0.0
 10
43.085134
 20
26.689172
 30
0.0
 10
43.102314
 20
26.664072
 30
0.0
  0
LINE
  5
1b3
100
AcDbEntity
  8
0
 62
7
100
AcDbLine
 10
43.102314
 20
26.664072
 30
0.0
 11
43.817998
 21
25.621060
 31
0.0
  0
SPLINE
  5
1b4
100
AcDbEntity
  8
0
 62
7
100
AcDbSpline
 70
8
 71
3
 72
8
 73
4
 74
0
 40
0
 40
0
 40
0
 40
0
 40
1
 40
1
 40
1
 40
1
 10
43.817998
 20
25.621060
 30
0.0
 10
43.835218
 20
25.595810
 30
0.0
 10
43.837908
 20
25.553220
 30
0.0
 10
43.823998
 20
25.526100
 30
0.0
  0
LINE
  5
1b5
100
AcDbEntity
  8
0
 62
7
100
AcDbLine
 10
43.823998
 20
25.526100
 30
0.0
 11
43.447432
 21
24.647757
 31
0.0
  0
SPLINE
  5
1b6
100
AcDbEntity
  8
0
 62
7
100
AcDbSpline
 70
8
 71
3
 72
8
 73
4
 74
0
 40
0
 40
0
 40
0
 40
0
 40
1
 40
1
 40
1
 40
1
 10
43.447432
 20
24.647757
 30
0.0
 10
43.437432
 20
24.618917
 30
0.0
 10
43.404772
 20
24.590827
 30
0.0
 10
43.374752
 20
24.585217
 30
0.0
  0
LINE
  5
1b7
100
AcDbEntity
  8
0
 62
7
100
AcDbLine
 10
43.374752
 20
24.585217
 30
0.0
 11
42.146598
 21
24.356816
 31
0.0
  0
SPLINE
  5
1b8
100
AcDbEntity
  8
0
 62
7
100
AcDbSpline
 70
8
 71
3
 72
8
 73
4
 74
0
 40
0
 40
0
 40
0
 40
0
 40
1
 40
1
 40
1
 40
1
 10
42.146598
 20
24.356816
 30
0.0
 10
42.116588
 20
24.351116
 30
0.0
 10
42.092108
 20
24.321696
 30
0.0
 10
42.092108
 20
24.291216
 30
0.0
  0
LINE
  5
1b9
100
AcDbEntity
  8
0
 62
7
100
AcDbLine
 10
42.092108
 20
24.291216
 30
0.0
 11
42.092182
 21
23.027123
 31
0.0
  0
SPLINE
  5
1ba
100
AcDbEntity
  8
0
 62
7
100
AcDbSpline
 70
8
 71
3
 72
8
 73
4
 74
0
 40
0
 40
0
 40
0
 40
0
 40
1
 40
1
 40
1
 40
1
 10
42.092182
 20
23.027123
 30
0.0
 10
42.092182
 20
22.996633
 30
0.0
 10
42.116732
 20
22.966983
 30
0.0
 10
42.146672
 20
22.961523
 30
0.0
  0
LINE
  5
1bb
100
AcDbEntity
  8
0
 62
7
100
AcDbLine
 10
42.146672
 20
22.961523
 30
0.0
 11
43.344722
 21
22.738575
 31
0.0
  0
SPLINE
  5
1bc
100
AcDbEntity
  8
0
 62
7
100
AcDbSpline
 70
8
 71
3
 72
8
 73
4
 74
0
 40
0
 40
0
 40
0
 40
0
 40
1
 40
1
 40
1
 40
1
 10
43.344722
 20
22.738575
 30
0.0
 10
43.374662
 20
22.733075
 30
0.0
 10
43.406692
 20
22.704655
 30
0.0
 10
43.415832
 20
22.675585
 30
0.0
  0
LINE
  5
1bd
100
AcDbEntity
  8
0
 62
7
100
AcDbLine
 10
43.415832
 20
22.675585
 30
0.0
 11
43.789853
 21
21.741281
 31
0.0
  0
SPLINE
  5
1be
100
AcDbEntity
  8
0
 62
7
100
AcDbSpline
 70
8
 71
3
 72
8
 73
4
 74
0
 40
0
 40
0
 40
0
 40
0
 40
1
 40
1
 40
1
 40
1
 10
43.789853
 20
21.741281
 30
0.0
 10
43.803173
 20
21.713861
 30
0.0
 10
43.800113
 20
21.670971
 30
0.0
 10
43.783153
 20
21.645871
 30
0.0
  0
LINE
  5
1bf
100
AcDbEntity
  8
0
 62
7
100
AcDbLine
 10
43.783153
 20
21.645871
 30
0.0
 11
43.102655
 21
20.654187
 31
0.0
  0
SPLINE
  5
1c0
100
AcDbEntity
  8
0
 62
7
100
AcDbSpline
 70
8
 71
3
 72
8
 73
4
 74
0
 40
0
 40
0
 40
0
 40
0
 40
1
 40
1
 40
1
 40
1
 10
43.102655
 20
20.654187
 30
0.0
 10
43.085435
 20
20.629087
 30
0.0
 10
43.088955
 20
20.590827
 30
0.0
 10
43.110555
 20
20.569237
 30
0.0
  0
LINE
  5
1c1
100
AcDbEntity
  8
0
 62
7
100
AcDbLine
 10
43.110555
 20
20.569237
 30
0.0
 11
44.004515
 21
19.675429
 31
0.0
  0
SPLINE
  5
1c2
100
AcDbEntity
  8
0
 62
7
100
AcDbSpline
 70
8
 71
3
 72
8
 73
4
 74
0
 40
0
 40
0
 40
0
 40
0
 40
1
 40
1
 40
1
 40
1
 10
44.004515
 20
19.675429
 30
0.0
 10
44.025995
 20
19.653989
 30
0.0
 10
44.064245
 20
19.650479
 30
0.0
 10
44.089385
 20
19.667629
 30
0.0
  0
LINE
  5
1c3
100
AcDbEntity
  8
0
 62
7
100
AcDbLine
 10
44.089385
 20
19.667629
 30
0.0
 11
45.063508
 21
20.336248
 31
0.0
  0
SPLINE
  5
1c4
100
AcDbEntity
  8
0
 62
7
100
AcDbSpline
 70
8
 71
3
 72
8
 73
4
 74
0
 40
0
 40
0
 40
0
 40
0
 40
1
 40
1
 40
1
 40
1
 10
45.063508
 20
20.336248
 30
0.0
 10
45.088588
 20
20.353428
 30
0.0
 10
45.130648
 20
20.354778
 30
0.0
 10
45.156908
 20
20.339448
 30
0.0
  0
LINE
  5
1c5
100
AcDbEntity
  8
0
 62
7
100
AcDbLine
 10
45.156908
 20
20.339448
 30
0.0
 11
45.586520
 21
20.110074
 31
0.0
  0
SPLINE
  5
1c6
100
AcDbEntity
  8
0
 62
7
100
AcDbSpline
 70
8
 71
3
 72
8
 73
4
 74
0
 40
0
 40
0
 40
0
 40
0
 40
1
 40
1
 40
1
 40
1
 10
45.586520
 20
20.110074
 30
0.0
 10
45.613690
 20
20.096184
 30
0.0
 10
45.645430
 20
20.107874
 30
0.0
 10
45.657100
 20
20.136074
 30
0.0
  0
LINE
  5
1c7
100
AcDbEntity
  8
0
 62
7
100
AcDbLine
 10
45.657100
 20
20.136074
 30
0.0
 11
46.542917
 21
22.276418
 31
0.0
  0
SPLINE
  5
1c8
100
AcDbEntity
  8
0
 62
7
100
AcDbSpline
 70
8
 71
3
 72
8
 73
4
 74
0
 40
0
 40
0
 40
0
 40
0
 40
1
 40
1
 40
1
 40
1
 10
46.542917
 20
22.276418
 30
0.0
 10
46.554667
 20
22.304588
 30
0.0
 10
46.542917
 20
22.340528
 30
0.0
 10
46.516867
 20
22.356438
 30
0.0
  0
LINE
  5
1c9
100
AcDbEntity
  8
0
 62
7
100
AcDbLine
 10
46.516867
 20
22.356438
 30
0.0
 11
46.409353
 21
22.422258
 31
0.0
  0
SPLINE
  5
1ca
100
AcDbEntity
  8
0
 62
7
100
AcDbSpline
 70
8
 71
3
 72
8
 73
4
 74
0
 40
0
 40
0
 40
0
 40
0
 40
1
 40
1
 40
1
 40
1
 10
46.409353
 20
22.422258
 30
0.0
 10
46.389443
 20
22.434358
 30
0.0
 10
46.362503
 20
22.455208
 30
0.0
 10
46.341393
 20
22.474328
 30
0.0
  0
SPLINE
  5
1cb
100
AcDbEntity
  8
0
 62
7
100
AcDbSpline
 70
8
 71
3
 72
8
 73
4
 74
0
 40
0
 40
0
 40
0
 40
0
 40
1
 40
1
 40
1
 40
1
 10
46.341393
 20
22.474328
 30
0.0
 10
45.953548
 20
22.722679
 30
0.0
 10
45.696231
 20
23.157144
 30
0.0
 10
45.696231
 20
23.651902
 30
0.0
  0
SPLINE
  5
1cc
100
AcDbEntity
  8
0
 62
7
100
AcDbSpline
 70
8
 71
3
 72
8
 73
4
 74
0
 40
0
 40
0
 40
0
 40
0
 40
1
 40
1
 40
1
 40
1
 10
45.696231
 20
23.651902
 30
0.0
 10
45.696231
 20
24.424002
 30
0.0
 10
46.322187
 20
25.049885
 30
0.0
 10
47.094211
 20
25.049885
 30
0.0
  0
SPLINE
  5
1cd
100
AcDbEntity
  8
0
 62
7
100
AcDbSpline
 70
8
 71
3
 72
8
 73
4
 74
0
 40
0
 40
0
 40
0
 40
0
 40
1
 40
1
 40
1
 40
1
 10
47.094211
 20
25.049885
 30
0.0
 10
47.866235
 20
25.049885
 30
0.0
 10
48.492116
 20
24.424002
 30
0.0
 10
48.492116
 20
23.651902
 30
0.0
  0
SPLINE
  5
1ce
100
AcDbEntity
  8
0
 62
7
100
AcDbSpline
 70
8
 71
3
 72
8
 73
4
 74
0
 40
0
 40
0
 40
0
 40
0
 40
1
 40
1
 40
1
 40
1
 10
48.492116
 20
23.651902
 30
0.0
 10
48.492116
 20
23.157144
 30
0.0
 10
48.234874
 20
22.722679
 30
0.0
 10
47.846961
 20
22.474328
 30
0.0
  0
SPLINE
  5
1cf
100
AcDbEntity
  8
0
 62
7
100
AcDbSpline
 70
8
 71
3
 72
8
 73
4
 74
0
 40
0
 40
0
 40
0
 40
0
 40
1
 40
1
 40
1
 40
1
 10
47.846961
 20
22.474328
 30
0.0
 10
47.826001
 20
22.455208
 30
0.0
 10
47.798911
 20
22.434358
 30
0.0
 10
47.779151
 20
22.422258
 30
0.0
  0
LINE
  5
1d0
100
AcDbEntity
  8
0
 62
7
100
AcDbLine
 10
47.779151
 20
22.422258
 30
0.0
 11
47.671637
 21
22.356438
 31
0.0
  0
SPLINE
  5
1d1
100
AcDbEntity
  8
0
 62
7
100
AcDbSpline
 70
8
 71
3
 72
8
 73
4
 74
0
 40
0
 40
0
 40
0
 40
0
 40
1
 40
1
 40
1
 40
1
 10
47.671637
 20
22.356438
 30
0.0
 10
47.645817
 20
22.340528
 30
0.0
 10
47.633987
 20
22.304588
 30
0.0
 10
47.645587
 20
22.276418
 30
0.0
  0
LINE
  5
1d2
100
AcDbEntity
  8
0
 62
7
100
AcDbLine
 10
47.645587
 20
22.276418
 30
0.0
 11
48.531329
 21
20.135999
 31
0.0
  0
SPLINE
  5
1d3
100
AcDbEntity
  8
0
 62
7
100
AcDbSpline
 70
8
 71
3
 72
8
 73
4
 74
0
 40
0
 40
0
 40
0
 40
0
 40
1
 40
1
 40
1
 40
1
 10
48.531329
 20
20.135999
 30
0.0
 10
48.543009
 20
20.107829
 30
0.0
 10
48.574669
 20
20.096179
 30
0.0
 10
48.601909
 20
20.109999
 30
0.0
  0
LINE
  5
1d4
100
AcDbEntity
  8
0
 62
7
100
AcDbLine
 10
48.601909
 20
20.109999
 30
0.0
 11
49.031513
 21
20.339372
 31
0.0
  0
SPLINE
  5
1d5
100
AcDbEntity
  8
0
 62
7
100
AcDbSpline
 70
8
 71
3
 72
8
 73
4
 74
0
 40
0
 40
0
 40
0
 40
0
 40
1
 40
1
 40
1
 40
1
 10
49.031513
 20
20.339372
 30
0.0
 10
49.057783
 20
20.354682
 30
0.0
 10
49.099773
 20
20.353412
 30
0.0
 10
49.124913
 20
20.336172
 30
0.0
  0
LINE
  5
1d6
100
AcDbEntity
  8
0
 62
7
100
AcDbLine
 10
49.124913
 20
20.336172
 30
0.0
 11
50.099120
 21
19.667552
 31
0.0
  0
SPLINE
  5
1d7
100
AcDbEntity
  8
0
 62
7
100
AcDbSpline
 70
8
 71
3
 72
8
 73
4
 74
0
 40
0
 40
0
 40
0
 40
0
 40
1
 40
1
 40
1
 40
1
 10
50.099120
 20
19.667552
 30
0.0
 10
50.124190
 20
19.650442
 30
0.0
 10
50.162440
 20
19.653952
 30
0.0
 10
50.183920
 20
19.675352
 30
0.0
  0
LINE
  5
1d8
100
AcDbEntity
  8
0
 62
7
100
AcDbLine
 10
50.183920
 20
19.675352
 30
0.0
 11
51.077873
 21
20.569161
 31
0.0
  0
SPLINE
  5
1d9
100
AcDbEntity
  8
0
 62
7
100
AcDbSpline
 70
8
 71
3
 72
8
 73
4
 74
0
 40
0
 40
0
 40
0
 40
0
 40
1
 40
1
 40
1
 40
1
 10
51.077873
 20
20.569161
 30
0.0
 10
51.099433
 20
20.590751
 30
0.0
 10
51.102943
 20
20.629011
 30
0.0
 10
51.085773
 20
20.654111
 30
0.0
  0
LINE
  5
1da
100
AcDbEntity
  8
0
 62
7
100
AcDbLine
 10
51.085773
 20
20.654111
 30
0.0
 11
50.405185
 21
21.645796
 31
0.0
  0
SPLINE
  5
1db
100
AcDbEntity
  8
0
 62
7
100
AcDbSpline
 70
8
 71
3
 72
8
 73
4
 74
0
 40
0
 40
0
 40
0
 40
0
 40
1
 40
1
 40
1
 40
1
 10
50.405185
 20
21.645796
 30
0.0
 10
50.387965
 20
21.670896
 30
0.0
 10
50.384755
 20
21.713786
 30
0.0
 10
50.398485
 20
21.741206
 30
0.0
  0
LINE
  5
1dc
100
AcDbEntity
  8
0
 62
7
100
AcDbLine
 10
50.398485
 20
21.741206
 30
0.0
 11
50.772506
 21
22.675510
 31
0.0
  0
SPLINE
  5
1dd
100
AcDbEntity
  8
0
 62
7
100
AcDbSpline
 70
8
 71
3
 72
8
 73
4
 74
0
 40
0
 40
0
 40
0
 40
0
 40
1
 40
1
 40
1
 40
1
 10
50.772506
 20
22.675510
 30
0.0
 10
50.781706
 20
22.704570
 30
0.0
 10
50.813526
 20
22.733040
 30
0.0
 10
50.843536
 20
22.738500
 30
0.0
  0
LINE
  5
1de
100
AcDbEntity
  8
0
 62
7
100
AcDbLine
 10
50.843536
 20
22.738500
 30
0.0
 11
52.041578
 21
22.961448
 31
0.0
  0
SPLINE
  5
1df
100
AcDbEntity
  8
0
 62
7
100
AcDbSpline
 70
8
 71
3
 72
8
 73
4
 74
0
 40
0
 40
0
 40
0
 40
0
 40
1
 40
1
 40
1
 40
1
 10
52.041578
 20
22.961448
 30
0.0
 10
52.071448
 20
22.966948
 30
0.0
 10
52.096068
 20
22.996568
 30
0.0
 10
52.096068
 20
23.027048
 30
0.0
  0
LINE
  5
1e0
100
AcDbEntity
  8
0
 62
7
100
AcDbLine
 10
52.096068
 20
23.027048
 30
0.0
 11
52.096218
 21
24.291142
 31
0.0
  0
SPLINE
  5
1e1
100
AcDbEntity
  8
0
 62
7
100
AcDbSpline
 70
8
 71
3
 72
8
 73
4
 74
0
 40
0
 40
0
 40
0
 40
0
 40
1
 40
1
 40
1
 40
1
 10
52.096218
 20
24.291142
 30
0.0
 10
52.096293
 20
24.321702
 30
0.0
 10
52.071818
 20
24.351142
 30
0.0
 10
52.041878
 20
24.356812
 30
0.0
  0
LINE
  5
1e2
100
AcDbEntity
  8
0
 62
7
100
AcDbLine
 10
120.123860
 20
24.356765
 30
0.0
 11
118.895630
 21
24.585165
 31
0.0
  0
SPLINE
  5
1e3
100
AcDbEntity
  8
0
 62
7
100
AcDbSpline
 70
8
 71
3
 72
8
 73
4
 74
0
 40
0
 40
0
 40
0
 40
0
 40
1
 40
1
 40
1
 40
1
 10
118.895630
 20
24.585165
 30
0.0
 10
118.865730
 20
24.590765
 30
0.0
 10
118.833030
 20
24.618865
 30
0.0
 10
118.822930
 20
24.647705
 30
0.0
  0
LINE
  5
1e4
100
AcDbEntity
  8
0
 62
7
100
AcDbLine
 10
118.822930
 20
24.647705
 30
0.0
 11
118.446440
 21
25.526049
 31
0.0
  0
SPLINE
  5
1e5
100
AcDbEntity
  8
0
 62
7
100
AcDbSpline
 70
8
 71
3
 72
8
 73
4
 74
0
 40
0
 40
0
 40
0
 40
0
 40
1
 40
1
 40
1
 40
1
 10
118.446440
 20
25.526049
 30
0.0
 10
118.432440
 20
25.553169
 30
0.0
 10
118.435040
 20
25.595759
 30
0.0
 10
118.452440
 20
25.621009
 30
0.0
  0
LINE
  5
1e6
100
AcDbEntity
  8
0
 62
7
100
AcDbLine
 10
118.452440
 20
25.621009
 30
0.0
 11
119.168050
 21
26.664021
 31
0.0
  0
SPLINE
  5
1e7
100
AcDbEntity
  8
0
 62
7
100
AcDbSpline
 70
8
 71
3
 72
8
 73
4
 74
0
 40
0
 40
0
 40
0
 40
0
 40
1
 40
1
 40
1
 40
1
 10
119.168050
 20
26.664021
 30
0.0
 10
119.185150
 20
26.689121
 30
0.0
 10
119.181850
 20
26.727301
 30
0.0
 10
119.160050
 20
26.748901
 30
0.0
  0
LINE
  5
1e8
100
AcDbEntity
  8
0
 62
7
100
AcDbLine
 10
119.160050
 20
26.748901
 30
0.0
 11
118.266240
 21
27.642710
 31
0.0
  0
SPLINE
  5
1e9
100
AcDbEntity
  8
0
 62
7
100
AcDbSpline
 70
8
 71
3
 72
8
 73
4
 74
0
 40
0
 40
0
 40
0
 40
0
 40
1
 40
1
 40
1
 40
1
 10
118.266240
 20
27.642710
 30
0.0
 10
118.244640
 20
27.664300
 30
0.0
 10
118.206540
 20
27.667810
 30
0.0
 10
118.181440
 20
27.650510
 30
0.0
  0
LINE
  5
1ea
100
AcDbEntity
  8
0
 62
7
100
AcDbLine
 10
118.181440
 20
27.650510
 30
0.0
 11
117.120120
 21
26.922194
 31
0.0
  0
SPLINE
  5
1eb
100
AcDbEntity
  8
0
 62
7
100
AcDbSpline
 70
8
 71
3
 72
8
 73
4
 74
0
 40
0
 40
0
 40
0
 40
0
 40
1
 40
1
 40
1
 40
1
 10
117.120120
 20
26.922194
 30
0.0
 10
117.095020
 20
26.904934
 30
0.0
 10
117.052020
 20
26.901874
 30
0.0
 10
117.024720
 20
26.915294
 30
0.0
  0
LINE
  5
1ec
100
AcDbEntity
  8
0
 62
7
100
AcDbLine
 10
117.024720
 20
26.915294
 30
0.0
 11
116.173280
 21
27.263837
 31
0.0
  0
SPLINE
  5
1ed
100
AcDbEntity
  8
0
 62
7
100
AcDbSpline
 70
8
 71
3
 72
8
 73
4
 74
0
 40
0
 40
0
 40
0
 40
0
 40
1
 40
1
 40
1
 40
1
 10
116.173280
 20
27.263837
 30
0.0
 10
116.144380
 20
27.273437
 30
0.0
 10
116.116180
 20
27.305747
 30
0.0
 10
116.110580
 20
27.335717
 30
0.0
  0
LINE
  5
1ee
100
AcDbEntity
  8
0
 62
7
100
AcDbLine
 10
116.110580
 20
27.335717
 30
0.0
 11
115.874100
 21
28.606087
 31
0.0
  0
SPLINE
  5
1ef
100
AcDbEntity
  8
0
 62
7
100
AcDbSpline
 70
8
 71
3
 72
8
 73
4
 74
0
 40
0
 40
0
 40
0
 40
0
 40
1
 40
1
 40
1
 40
1
 10
115.874100
 20
28.606087
 30
0.0
 10
115.869100
 20
28.636047
 30
0.0
 10
115.839100
 20
28.660557
 30
0.0
 10
115.808600
 20
28.660557
 30
0.0
  0
LINE
  5
1f0
100
AcDbEntity
  8
0
 62
7
100
AcDbLine
 10
115.808600
 20
28.660557
 30
0.0
 11
114.544430
 21
28.660557
 31
0.0
  0
SPLINE
  5
1f1
100
AcDbEntity
  8
0
 62
7
100
AcDbSpline
 70
8
 71
3
 72
8
 73
4
 74
0
 40
0
 40
0
 40
0
 40
0
 40
1
 40
1
 40
1
 40
1
 10
114.544430
 20
28.660557
 30
0.0
 10
114.514030
 20
28.660557
 30
0.0
 10
114.484430
 20
28.636057
 30
0.0
 10
114.478930
 20
28.606087
 30
0.0
  0
LINE
  5
1f2
100
AcDbEntity
  8
0
 62
7
100
AcDbLine
 10
114.478930
 20
28.606087
 30
0.0
 11
114.242550
 21
27.335717
 31
0.0
  0
SPLINE
  5
1f3
100
AcDbEntity
  8
0
 62
7
100
AcDbSpline
 70
8
 71
3
 72
8
 73
4
 74
0
 40
0
 40
0
 40
0
 40
0
 40
1
 40
1
 40
1
 40
1
 10
114.242550
 20
27.335717
 30
0.0
 10
114.236550
 20
27.305757
 30
0.0
 10
114.208750
 20
27.273407
 30
0.0
 10
114.179850
 20
27.263837
 30
0.0
  0
LINE
  5
1f4
100
AcDbEntity
  8
0
 62
7
100
AcDbLine
 10
114.179850
 20
27.263837
 30
0.0
 11
113.328340
 21
26.915346
 31
0.0
  0
SPLINE
  5
1f5
100
AcDbEntity
  8
0
 62
7
100
AcDbSpline
 70
8
 71
3
 72
8
 73
4
 74
0
 40
0
 40
0
 40
0
 40
0
 40
1
 40
1
 40
1
 40
1
 10
113.328340
 20
26.915346
 30
0.0
 10
113.300940
 20
26.901896
 30
0.0
 10
113.257940
 20
26.904966
 30
0.0
 10
113.232940
 20
26.922246
 30
0.0
  0
LINE
  5
1f6
100
AcDbEntity
  8
0
 62
7
100
AcDbLine
 10
113.232940
 20
26.922246
 30
0.0
 11
112.171700
 21
27.650562
 31
0.0
  0
SPLINE
  5
1f7
100
AcDbEntity
  8
0
 62
7
100
AcDbSpline
 70
8
 71
3
 72
8
 73
4
 74
0
 40
0
 40
0
 40
0
 40
0
 40
1
 40
1
 40
1
 40
1
 10
112.171700
 20
27.650562
 30
0.0
 10
112.146600
 20
27.667822
 30
0.0
 10
112.108400
 20
27.664312
 30
0.0
 10
112.086800
 20
27.642762
 30
0.0
  0
LINE
  5
1f8
100
AcDbEntity
  8
0
 62
7
100
AcDbLine
 10
112.086800
 20
27.642762
 30
0.0
 11
111.192870
 21
26.748953
 31
0.0
  0
SPLINE
  5
1f9
100
AcDbEntity
  8
0
 62
7
100
AcDbSpline
 70
8
 71
3
 72
8
 73
4
 74
0
 40
0
 40
0
 40
0
 40
0
 40
1
 40
1
 40
1
 40
1
 10
111.192870
 20
26.748953
 30
0.0
 10
111.171370
 20
26.727363
 30
0.0
 10
111.167770
 20
26.689173
 30
0.0
 10
111.184870
 20
26.664073
 30
0.0
  0
LINE
  5
1fa
100
AcDbEntity
  8
0
 62
7
100
AcDbLine
 10
111.184870
 20
26.664073
 30
0.0
 11
111.900550
 21
25.621061
 31
0.0
  0
SPLINE
  5
1fb
100
AcDbEntity
  8
0
 62
7
100
AcDbSpline
 70
8
 71
3
 72
8
 73
4
 74
0
 40
0
 40
0
 40
0
 40
0
 40
1
 40
1
 40
1
 40
1
 10
111.900550
 20
25.621061
 30
0.0
 10
111.917750
 20
25.595811
 30
0.0
 10
111.920450
 20
25.553221
 30
0.0
 10
111.906550
 20
25.526101
 30
0.0
  0
LINE
  5
1fc
100
AcDbEntity
  8
0
 62
7
100
AcDbLine
 10
111.906550
 20
25.526101
 30
0.0
 11
111.529980
 21
24.647758
 31
0.0
  0
SPLINE
  5
1fd
100
AcDbEntity
  8
0
 62
7
100
AcDbSpline
 70
8
 71
3
 72
8
 73
4
 74
0
 40
0
 40
0
 40
0
 40
0
 40
1
 40
1
 40
1
 40
1
 10
111.529980
 20
24.647758
 30
0.0
 10
111.519980
 20
24.618918
 30
0.0
 10
111.487280
 20
24.590828
 30
0.0
 10
111.457280
 20
24.585218
 30
0.0
  0
LINE
  5
1fe
100
AcDbEntity
  8
0
 62
7
100
AcDbLine
 10
111.457280
 20
24.585218
 30
0.0
 11
110.229130
 21
24.356817
 31
0.0
  0
SPLINE
  5
1ff
100
AcDbEntity
  8
0
 62
7
100
AcDbSpline
 70
8
 71
3
 72
8
 73
4
 74
0
 40
0
 40
0
 40
0
 40
0
 40
1
 40
1
 40
1
 40
1
 10
110.229130
 20
24.356817
 30
0.0
 10
110.199130
 20
24.351117
 30
0.0
 10
110.174630
 20
24.321697
 30
0.0
 10
110.174630
 20
24.291217
 30
0.0
  0
LINE
  5
200
100
AcDbEntity
  8
0
 62
7
100
AcDbLine
 10
110.174630
 20
24.291217
 30
0.0
 11
110.174700
 21
23.027124
 31
0.0
  0
SPLINE
  5
201
100
AcDbEntity
  8
0
 62
7
100
AcDbSpline
 70
8
 71
3
 72
8
 73
4
 74
0
 40
0
 40
0
 40
0
 40
0
 40
1
 40
1
 40
1
 40
1
 10
110.174700
 20
23.027124
 30
0.0
 10
110.174700
 20
22.996634
 30
0.0
 10
110.199200
 20
22.966984
 30
0.0
 10
110.229200
 20
22.961524
 30
0.0
  0
LINE
  5
202
100
AcDbEntity
  8
0
 62
7
100
AcDbLine
 10
110.229200
 20
22.961524
 30
0.0
 11
111.427250
 21
22.738576
 31
0.0
  0
SPLINE
  5
203
100
AcDbEntity
  8
0
 62
7
100
AcDbSpline
 70
8
 71
3
 72
8
 73
4
 74
0
 40
0
 40
0
 40
0
 40
0
 40
1
 40
1
 40
1
 40
1
 10
111.427250
 20
22.738576
 30
0.0
 10
111.457150
 20
22.733076
 30
0.0
 10
111.489250
 20
22.704656
 30
0.0
 10
111.498350
 20
22.675586
 30
0.0
  0
LINE
  5
204
100
AcDbEntity
  8
0
 62
7
100
AcDbLine
 10
111.498350
 20
22.675586
 30
0.0
 11
111.872370
 21
21.741282
 31
0.0
  0
SPLINE
  5
205
100
AcDbEntity
  8
0
 62
7
100
AcDbSpline
 70
8
 71
3
 72
8
 73
4
 74
0
 40
0
 40
0
 40
0
 40
0
 40
1
 40
1
 40
1
 40
1
 10
111.872370
 20
21.741282
 30
0.0
 10
111.885670
 20
21.713862
 30
0.0
 10
111.882670
 20
21.670972
 30
0.0
 10
111.865370
 20
21.645872
 30
0.0
  0
LINE
  5
206
100
AcDbEntity
  8
0
 62
7
100
AcDbLine
 10
111.865370
 20
21.645872
 30
0.0
 11
111.184880
 21
20.654188
 31
0.0
  0
SPLINE
  5
207
100
AcDbEntity
  8
0
 62
7
100
AcDbSpline
 70
8
 71
3
 72
8
 73
4
 74
0
 40
0
 40
0
 40
0
 40
0
 40
1
 40
1
 40
1
 40
1
 10
111.184880
 20
20.654188
 30
0.0
 10
111.167680
 20
20.629088
 30
0.0
 10
111.171180
 20
20.590828
 30
0.0
 10
111.192880
 20
20.569238
 30
0.0
  0
LINE
  5
208
100
AcDbEntity
  8
0
 62
7
100
AcDbLine
 10
111.192880
 20
20.569238
 30
0.0
 11
112.086840
 21
19.675430
 31
0.0
  0
SPLINE
  5
209
100
AcDbEntity
  8
0
 62
7
100
AcDbSpline
 70
8
 71
3
 72
8
 73
4
 74
0
 40
0
 40
0
 40
0
 40
0
 40
1
 40
1
 40
1
 40
1
 10
112.086840
 20
19.675430
 30
0.0
 10
112.108340
 20
19.653990
 30
0.0
 10
112.146540
 20
19.650480
 30
0.0
 10
112.171740
 20
19.667630
 30
0.0
  0
LINE
  5
20a
100
AcDbEntity
  8
0
 62
7
100
AcDbLine
 10
112.171740
 20
19.667630
 30
0.0
 11
113.145860
 21
20.336249
 31
0.0
  0
SPLINE
  5
20b
100
AcDbEntity
  8
0
 62
7
100
AcDbSpline
 70
8
 71
3
 72
8
 73
4
 74
0
 40
0
 40
0
 40
0
 40
0
 40
1
 40
1
 40
1
 40
1
 10
113.145860
 20
20.336249
 30
0.0
 10
113.170960
 20
20.353429
 30
0.0
 10
113.212960
 20
20.354779
 30
0.0
 10
113.239260
 20
20.339449
 30
0.0
  0
LINE
  5
20c
100
AcDbEntity
  8
0
 62
7
100
AcDbLine
 10
113.239260
 20
20.339449
 30
0.0
 11
113.668870
 21
20.110075
 31
0.0
  0
SPLINE
  5
20d
100
AcDbEntity
  8
0
 62
7
100
AcDbSpline
 70
8
 71
3
 72
8
 73
4
 74
0
 40
0
 40
0
 40
0
 40
0
 40
1
 40
1
 40
1
 40
1
 10
113.668870
 20
20.110075
 30
0.0
 10
113.696070
 20
20.096185
 30
0.0
 10
113.727770
 20
20.107875
 30
0.0
 10
113.739470
 20
20.136075
 30
0.0
  0
LINE
  5
20e
100
AcDbEntity
  8
0
 62
7
100
AcDbLine
 10
113.739470
 20
20.136075
 30
0.0
 11
114.625290
 21
22.276417
 31
0.0
  0
SPLINE
  5
20f
100
AcDbEntity
  8
0
 62
7
100
AcDbSpline
 70
8
 71
3
 72
8
 73
4
 74
0
 40
0
 40
0
 40
0
 40
0
 40
1
 40
1
 40
1
 40
1
 10
114.625290
 20
22.276417
 30
0.0
 10
114.636990
 20
22.304587
 30
0.0
 10
114.625290
 20
22.340527
 30
0.0
 10
114.599290
 20
22.356437
 30
0.0
  0
LINE
  5
210
100
AcDbEntity
  8
0
 62
7
100
AcDbLine
 10
114.599290
 20
22.356437
 30
0.0
 11
114.491770
 21
22.422257
 31
0.0
  0
SPLINE
  5
211
100
AcDbEntity
  8
0
 62
7
100
AcDbSpline
 70
8
 71
3
 72
8
 73
4
 74
0
 40
0
 40
0
 40
0
 40
0
 40
1
 40
1
 40
1
 40
1
 10
114.491770
 20
22.422257
 30
0.0
 10
114.471870
 20
22.434357
 30
0.0
 10
114.444970
 20
22.455207
 30
0.0
 10
114.423770
 20
22.474327
 30
0.0
  0
SPLINE
  5
212
100
AcDbEntity
  8
0
 62
7
100
AcDbSpline
 70
8
 71
3
 72
8
 73
4
 74
0
 40
0
 40
0
 40
0
 40
0
 40
1
 40
1
 40
1
 40
1
 10
114.423770
 20
22.474327
 30
0.0
 10
114.035930
 20
22.722678
 30
0.0
 10
113.778610
 20
23.157143
 30
0.0
 10
113.778610
 20
23.651901
 30
0.0
  0
SPLINE
  5
213
100
AcDbEntity
  8
0
 62
7
100
AcDbSpline
 70
8
 71
3
 72
8
 73
4
 74
0
 40
0
 40
0
 40
0
 40
0
 40
1
 40
1
 40
1
 40
1
 10
113.778610
 20
23.651901
 30
0.0
 10
113.778610
 20
24.424001
 30
0.0
 10
114.404570
 20
25.049884
 30
0.0
 10
115.176590
 20
25.049884
 30
0.0
  0
SPLINE
  5
214
100
AcDbEntity
  8
0
 62
7
100
AcDbSpline
 70
8
 71
3
 72
8
 73
4
 74
0
 40
0
 40
0
 40
0
 40
0
 40
1
 40
1
 40
1
 40
1
 10
115.176590
 20
25.049884
 30
0.0
 10
115.948620
 20
25.049884
 30
0.0
 10
116.574500
 20
24.424001
 30
0.0
 10
116.574500
 20
23.651901
 30
0.0
  0
SPLINE
  5
215
100
AcDbEntity
  8
0
 62
7
100
AcDbSpline
 70
8
 71
3
 72
8
 73
4
 74
0
 40
0
 40
0
 40
0
 40
0
 40
1
 40
1
 40
1
 40
1
 10
116.574500
 20
23.651901
 30
0.0
 10
116.574500
 20
23.157143
 30
0.0
 10
116.317250
 20
22.722678
 30
0.0
 10
115.929340
 20
22.474327
 30
0.0
  0
SPLINE
  5
216
100
AcDbEntity
  8
0
 62
7
100
AcDbSpline
 70
8
 71
3
 72
8
 73
4
 74
0
 40
0
 40
0
 40
0
 40
0
 40
1
 40
1
 40
1
 40
1
 10
115.929340
 20
22.474327
 30
0.0
 10
115.908340
 20
22.455207
 30
0.0
 10
115.881240
 20
22.434357
 30
0.0
 10
115.861540
 20
22.422257
 30
0.0
  0
LINE
  5
217
100
AcDbEntity
  8
0
 62
7
100
AcDbLine
 10
115.861540
 20
22.422257
 30
0.0
 11
115.754030
 21
22.356437
 31
0.0
  0
SPLINE
  5
218
100
AcDbEntity
  8
0
 62
7
100
AcDbSpline
 70
8
 71
3
 72
8
 73
4
 74
0
 40
0
 40
0
 40
0
 40
0
 40
1
 40
1
 40
1
 40
1
 10
115.754030
 20
22.356437
 30
0.0
 10
115.728230
 20
22.340527
 30
0.0
 10
115.716430
 20
22.304587
 30
0.0
 10
115.728030
 20
22.276417
 30
0.0
  0
LINE
  5
219
100
AcDbEntity
  8
0
 62
7
100
AcDbLine
 10
115.728030
 20
22.276417
 30
0.0
 11
116.613770
 21
20.135998
 31
0.0
  0
SPLINE
  5
21a
100
AcDbEntity
  8
0
 62
7
100
AcDbSpline
 70
8
 71
3
 72
8
 73
4
 74
0
 40
0
 40
0
 40
0
 40
0
 40
1
 40
1
 40
1
 40
1
 10
116.613770
 20
20.135998
 30
0.0
 10
116.625470
 20
20.107828
 30
0.0
 10
116.657070
 20
20.096178
 30
0.0
 10
116.684370
 20
20.109998
 30
0.0
  0
LINE
  5
21b
100
AcDbEntity
  8
0
 62
7
100
AcDbLine
 10
116.684370
 20
20.109998
 30
0.0
 11
117.113970
 21
20.339371
 31
0.0
  0
SPLINE
  5
21c
100
AcDbEntity
  8
0
 62
7
100
AcDbSpline
 70
8
 71
3
 72
8
 73
4
 74
0
 40
0
 40
0
 40
0
 40
0
 40
1
 40
1
 40
1
 40
1
 10
117.113970
 20
20.339371
 30
0.0
 10
117.140270
 20
20.354681
 30
0.0
 10
117.182270
 20
20.353411
 30
0.0
 10
117.207370
 20
20.336171
 30
0.0
  0
LINE
  5
21d
100
AcDbEntity
  8
0
 62
7
100
AcDbLine
 10
117.207370
 20
20.336171
 30
0.0
 11
118.181580
 21
19.667552
 31
0.0
  0
SPLINE
  5
21e
100
AcDbEntity
  8
0
 62
7
100
AcDbSpline
 70
8
 71
3
 72
8
 73
4
 74
0
 40
0
 40
0
 40
0
 40
0
 40
1
 40
1
 40
1
 40
1
 10
118.181580
 20
19.667552
 30
0.0
 10
118.206680
 20
19.650442
 30
0.0
 10
118.244880
 20
19.653952
 30
0.0
 10
118.266380
 20
19.675352
 30
0.0
  0
LINE
  5
21f
100
AcDbEntity
  8
0
 62
7
100
AcDbLine
 10
118.266380
 20
19.675352
 30
0.0
 11
119.160330
 21
20.569161
 31
0.0
  0
SPLINE
  5
220
100
AcDbEntity
  8
0
 62
7
100
AcDbSpline
 70
8
 71
3
 72
8
 73
4
 74
0
 40
0
 40
0
 40
0
 40
0
 40
1
 40
1
 40
1
 40
1
 10
119.160330
 20
20.569161
 30
0.0
 10
119.181930
 20
20.590751
 30
0.0
 10
119.185430
 20
20.629011
 30
0.0
 10
119.168330
 20
20.654111
 30
0.0
  0
LINE
  5
221
100
AcDbEntity
  8
0
 62
7
100
AcDbLine
 10
119.168330
 20
20.654111
 30
0.0
 11
118.487750
 21
21.645797
 31
0.0
  0
SPLINE
  5
222
100
AcDbEntity
  8
0
 62
7
100
AcDbSpline
 70
8
 71
3
 72
8
 73
4
 74
0
 40
0
 40
0
 40
0
 40
0
 40
1
 40
1
 40
1
 40
1
 10
118.487750
 20
21.645797
 30
0.0
 10
118.470550
 20
21.670897
 30
0.0
 10
118.467350
 20
21.713787
 30
0.0
 10
118.480750
 20
21.741207
 30
0.0
  0
LINE
  5
223
100
AcDbEntity
  8
0
 62
7
100
AcDbLine
 10
118.480750
 20
21.741207
 30
0.0
 11
118.854770
 21
22.675511
 31
0.0
  0
SPLINE
  5
224
100
AcDbEntity
  8
0
 62
7
100
AcDbSpline
 70
8
 71
3
 72
8
 73
4
 74
0
 40
0
 40
0
 40
0
 40
0
 40
1
 40
1
 40
1
 40
1
 10
118.854770
 20
22.675511
 30
0.0
 10
118.863770
 20
22.704571
 30
0.0
 10
118.895770
 20
22.733041
 30
0.0
 10
118.925770
 20
22.738501
 30
0.0
  0
LINE
  5
225
100
AcDbEntity
  8
0
 62
7
100
AcDbLine
 10
118.925770
 20
22.738501
 30
0.0
 11
120.123810
 21
22.961449
 31
0.0
  0
SPLINE
  5
226
100
AcDbEntity
  8
0
 62
7
100
AcDbSpline
 70
8
 71
3
 72
8
 73
4
 74
0
 40
0
 40
0
 40
0
 40
0
 40
1
 40
1
 40
1
 40
1
 10
120.123810
 20
22.961449
 30
0.0
 10
120.153710
 20
22.966949
 30
0.0
 10
120.178310
 20
22.996569
 30
0.0
 10
120.178310
 20
23.027049
 30
0.0
  0
LINE
  5
227
100
AcDbEntity
  8
0
 62
7
100
AcDbLine
 10
120.178310
 20
23.027049
 30
0.0
 11
120.178460
 21
24.291143
 31
0.0
  0
SPLINE
  5
228
100
AcDbEntity
  8
0
 62
7
100
AcDbSpline
 70
8
 71
3
 72
8
 73
4
 74
0
 40
0
 40
0
 40
0
 40
0
 40
1
 40
1
 40
1
 40
1
 10
120.178460
 20
24.291143
 30
0.0
 10
120.178530
 20
24.321703
 30
0.0
 10
120.154060
 20
24.351143
 30
0.0
 10
120.124160
 20
24.356813
 30
0.0
  0
ENDSEC
  0
SECTION
  2
OBJECTS
  0
DICTIONARY
  5
C
330
0
100
AcDbDictionary
  3
ACAD_GROUP
350
D
  3
ACAD_MLINESTYLE
350
17
  0
DICTIONARY
  5
D
330
C
100
AcDbDictionary
  0
DICTIONARY
  5
1A
330
C
100
AcDbDictionary
  0
DICTIONARY
  5
17
330
C
100
AcDbDictionary
  3
STANDARD
350
18
  0
DICTIONARY
  5
19
330
C
100
AcDbDictionary
  0
ENDSEC
  0
EOF
