  0
SECTION
  2
HEADER
  9
$ACADVER
  1
AC1014
  9
$HANDSEED
  5
FFFF
  9
$MEASUREMENT
 70
     1
  0
ENDSEC
  0
SECTION
  2
TABLES
  0
TABLE
  2
VPORT
  5
8
330
0
100
AcDbSymbolTable
 70
     4
  0
VPORT
  5
2E
330
8
100
AcDbSymbolTableRecord
100
AcDbViewportTableRecord
  2
*ACTIVE
 70
     0
 10
0.0
 20
0.0
 11
1.0
 21
1.0
 12
210.0
 22
148.5
 13
0.0
 23
0.0
 14
10.0
 24
10.0
 15
10.0
 25
10.0
 16
0.0
 26
0.0
 36
1.0
 17
0.0
 27
0.0
 37
0.0
 40
341.0
 41
1.24
 42
50.0
 43
0.0
 44
0.0
 50
0.0
 51
0.0
 71
     0
 72
   100
 73
     1
 74
     3
 75
     0
 76
     0
 77
     0
 78
     0
  0
ENDTAB
  0
TABLE
  2
LTYPE
  5
5
330
0
100
AcDbSymbolTable
 70
     1
  0
LTYPE
  5
14
330
5
100
AcDbSymbolTableRecord
100
AcDbLinetypeTableRecord
  2
BYBLOCK
 70
     0
  3

 72
    65
 73
     0
 40
0.0
  0
LTYPE
  5
15
330
5
100
AcDbSymbolTableRecord
100
AcDbLinetypeTableRecord
  2
BYLAYER
 70
     0
  3

 72
    65
 73
     0
 40
0.0
  0
LTYPE
  5
16
330
5
100
AcDbSymbolTableRecord
100
AcDbLinetypeTableRecord
  2
CONTINUOUS
 70
     0
  3
Solid line
 72
    65
 73
     0
 40
0.0
  0
ENDTAB
  0
TABLE
  2
LAYER
  5
2
100
AcDbSymbolTable
 70
2
  0
LAYER
  5
50
100
AcDbSymbolTableRecord
100
AcDbLayerTableRecord
  2
0
 70
0
  6
CONTINUOUS
  0
LAYER
  5
51
100
AcDbSymbolTableRecord
100
AcDbLayerTableRecord
  2
Layer_1
 70
0
  6
CONTINUOUS
  0
ENDTAB
  0
TABLE
  2
STYLE
  5
3
330
0
100
AcDbSymbolTable
 70
     1
  0
STYLE
  5
11
330
3
100
AcDbSymbolTableRecord
100
AcDbTextStyleTableRecord
  2
STANDARD
 70
     0
 40
0.0
 41
1.0
 50
0.0
 71
     0
 42
2.5
  3
txt
  4

  0
ENDTAB
  0
TABLE
  2
VIEW
  5
6
330
0
100
AcDbSymbolTable
 70
     0
  0
ENDTAB
  0
TABLE
  2
UCS
  5
7
330
0
100
AcDbSymbolTable
 70
     0
  0
ENDTAB
  0
TABLE
  2
APPID
  5
9
330
0
100
AcDbSymbolTable
 70
     2
  0
APPID
  5
12
330
9
100
AcDbSymbolTableRecord
100
AcDbRegAppTableRecord
  2
ACAD
 70
     0
  0
ENDTAB
  0
TABLE
  2
DIMSTYLE
  5
A
330
0
100
AcDbSymbolTable
 70
     1
  0
DIMSTYLE
105
27
330
A
100
AcDbSymbolTableRecord
100
AcDbDimStyleTableRecord
  2
ISO-25
 70
     0
  3

  4

  5

  6

  7

 40
1.0
 41
2.5
 42
0.625
 43
3.75
 44
1.25
 45
0.0
 46
0.0
 47
0.0
 48
0.0
140
2.5
141
2.5
142
0.0
143
0.03937007874016
144
1.0
145
0.0
146
1.0
147
0.625
 71
     0
 72
     0
 73
     0
 74
     0
 75
     0
 76
     0
 77
     1
 78
     8
170
     0
171
     3
172
     1
173
     0
174
     0
175
     0
176
     0
177
     0
178
     0
270
     2
271
     2
272
     2
273
     2
274
     3
340
11
275
     0
280
     0
281
     0
282
     0
283
     0
284
     8
285
     0
286
     0
287
     3
288
     0
  0
ENDTAB
  0
TABLE
  2
BLOCK_RECORD
  5
1
330
0
100
AcDbSymbolTable
 70
     1
  0
BLOCK_RECORD
  5
1F
330
1
100
AcDbSymbolTableRecord
100
AcDbBlockTableRecord
  2
*MODEL_SPACE
  0
BLOCK_RECORD
  5
1B
330
1
100
AcDbSymbolTableRecord
100
AcDbBlockTableRecord
  2
*PAPER_SPACE
  0
ENDTAB
  0
ENDSEC
  0
SECTION
  2
BLOCKS
  0
BLOCK
  5
20
330
1F
100
AcDbEntity
  8
0
100
AcDbBlockBegin
  2
*MODEL_SPACE
 70
     0
 10
0.0
 20
0.0
 30
0.0
  3
*MODEL_SPACE
  1

  0
ENDBLK
  5
21
330
1F
100
AcDbEntity
  8
0
100
AcDbBlockEnd
  0
BLOCK
  5
1C
330
1B
100
AcDbEntity
 67
     1
  8
0
100
AcDbBlockBegin
  2
*PAPER_SPACE
  1

  0
ENDBLK
  5
1D
330
1B
100
AcDbEntity
 67
     1
  8
0
100
AcDbBlockEnd
  0
ENDSEC
  0
SECTION
  2
ENTITIES
  0
LINE
  5
100
100
AcDbEntity
  8
Layer_1
 62
7
100
AcDbLine
 10
-46.418354
 20
78.389061
 30
0.0
 11
-47.050748
 21
92.751080
 31
0.0
  0
LINE
  5
101
100
AcDbEntity
  8
Layer_1
 62
7
100
AcDbLine
 10
-47.050748
 20
92.751080
 30
0.0
 11
-47.146098
 21
119.037180
 31
0.0
  0
SPLINE
  5
102
100
AcDbEntity
  8
Layer_1
 62
7
100
AcDbSpline
 70
8
 71
3
 72
8
 73
4
 74
0
 40
0
 40
0
 40
0
 40
0
 40
1
 40
1
 40
1
 40
1
 10
-47.146098
 20
119.037180
 30
0.0
 10
-47.146098
 20
119.037180
 30
0.0
 10
-47.033415
 20
122.155099
 30
0.0
 10
-50.094152
 20
125.100150
 30
0.0
  0
SPLINE
  5
103
100
AcDbEntity
  8
Layer_1
 62
7
100
AcDbSpline
 70
8
 71
3
 72
8
 73
4
 74
0
 40
0
 40
0
 40
0
 40
0
 40
1
 40
1
 40
1
 40
1
 10
-50.094152
 20
125.100150
 30
0.0
 10
-53.694401
 20
128.564321
 30
0.0
 10
-59.518372
 20
129.136829
 30
0.0
 10
-59.518372
 20
129.136829
 30
0.0
  0
LINE
  5
104
100
AcDbEntity
  8
Layer_1
 62
7
100
AcDbLine
 10
-59.518372
 20
129.136829
 30
0.0
 11
-109.281591
 21
135.926870
 31
0.0
  0
LINE
  5
105
100
AcDbEntity
  8
Layer_1
 62
7
100
AcDbLine
 10
-109.281591
 20
135.926870
 30
0.0
 11
-161.337279
 21
128.862681
 31
0.0
  0
SPLINE
  5
106
100
AcDbEntity
  8
Layer_1
 62
7
100
AcDbSpline
 70
8
 71
3
 72
8
 73
4
 74
0
 40
0
 40
0
 40
0
 40
0
 40
1
 40
1
 40
1
 40
1
 10
-161.337279
 20
128.862681
 30
0.0
 10
-161.337279
 20
128.862681
 30
0.0
 10
-165.581701
 20
128.224831
 30
0.0
 10
-168.631910
 20
125.286879
 30
0.0
  0
SPLINE
  5
107
100
AcDbEntity
  8
Layer_1
 62
7
100
AcDbSpline
 70
8
 71
3
 72
8
 73
4
 74
0
 40
0
 40
0
 40
0
 40
0
 40
1
 40
1
 40
1
 40
1
 10
-168.631910
 20
125.286879
 30
0.0
 10
-172.416719
 20
121.641389
 30
0.0
 10
-171.977270
 20
118.357781
 30
0.0
 10
-171.977270
 20
118.357781
 30
0.0
  0
LINE
  5
108
100
AcDbEntity
  8
Layer_1
 62
7
100
AcDbLine
 10
-171.977270
 20
118.357781
 30
0.0
 11
-171.977270
 21
92.623940
 31
0.0
  0
LINE
  5
109
100
AcDbEntity
  8
Layer_1
 62
7
100
AcDbLine
 10
-171.977270
 20
92.623940
 30
0.0
 11
-172.637519
 21
78.389061
 31
0.0
  0
LINE
  5
10a
100
AcDbEntity
  8
Layer_1
 62
7
100
AcDbLine
 10
-172.637522
 20
78.389058
 30
0.0
 11
-172.637522
 21
75.396991
 31
0.0
  0
LINE
  5
10b
100
AcDbEntity
  8
Layer_1
 62
7
100
AcDbLine
 10
-172.637522
 20
75.396991
 30
0.0
 11
-176.664149
 21
75.396991
 31
0.0
  0
LINE
  5
10c
100
AcDbEntity
  8
Layer_1
 62
7
100
AcDbLine
 10
-176.664149
 20
75.396991
 30
0.0
 11
-176.664149
 21
70.850500
 31
0.0
  0
LINE
  5
10d
100
AcDbEntity
  8
Layer_1
 62
7
100
AcDbLine
 10
-176.664149
 20
70.850500
 30
0.0
 11
-42.391726
 21
70.850500
 31
0.0
  0
LINE
  5
10e
100
AcDbEntity
  8
Layer_1
 62
7
100
AcDbLine
 10
-42.391726
 20
70.850500
 30
0.0
 11
-42.391726
 21
75.396991
 31
0.0
  0
LINE
  5
10f
100
AcDbEntity
  8
Layer_1
 62
7
100
AcDbLine
 10
-42.391726
 20
75.396991
 30
0.0
 11
-46.418354
 21
75.396991
 31
0.0
  0
LINE
  5
110
100
AcDbEntity
  8
Layer_1
 62
7
100
AcDbLine
 10
-46.418354
 20
75.396991
 30
0.0
 11
-46.418354
 21
78.389058
 31
0.0
  0
SPLINE
  5
111
100
AcDbEntity
  8
Layer_1
 62
7
100
AcDbSpline
 70
8
 71
3
 72
8
 73
4
 74
0
 40
0
 40
0
 40
0
 40
0
 40
1
 40
1
 40
1
 40
1
 10
-166.542060
 20
132.243800
 30
0.0
 10
-166.589960
 20
132.226300
 30
0.0
 10
-166.633260
 20
132.206100
 30
0.0
 10
-166.681120
 20
132.188200
 30
0.0
  0
SPLINE
  5
112
100
AcDbEntity
  8
Layer_1
 62
7
100
AcDbSpline
 70
8
 71
3
 72
8
 73
4
 74
0
 40
0
 40
0
 40
0
 40
0
 40
1
 40
1
 40
1
 40
1
 10
-166.681120
 20
132.188200
 30
0.0
 10
-166.656320
 20
132.171000
 30
0.0
 10
-166.632120
 20
132.156400
 30
0.0
 10
-166.597720
 20
132.148500
 30
0.0
  0
SPLINE
  5
113
100
AcDbEntity
  8
Layer_1
 62
7
100
AcDbSpline
 70
8
 71
3
 72
8
 73
4
 74
0
 40
0
 40
0
 40
0
 40
0
 40
1
 40
1
 40
1
 40
1
 10
-166.597720
 20
132.148500
 30
0.0
 10
-166.569820
 20
132.171200
 30
0.0
 10
-166.554820
 20
132.206700
 30
0.0
 10
-166.542120
 20
132.243900
 30
0.0
  0
LINE
  5
114
100
AcDbEntity
  8
Layer_1
 62
7
100
AcDbLine
 10
-166.542120
 20
132.243900
 30
0.0
 11
-166.542060
 21
132.243800
 31
0.0
  0
LINE
  5
115
100
AcDbEntity
  8
Layer_1
 62
1
100
AcDbLine
 10
-87.731435
 20
125.656380
 30
0.0
 11
-86.400440
 21
123.018240
 31
0.0
  0
LINE
  5
116
100
AcDbEntity
  8
Layer_1
 62
1
100
AcDbLine
 10
-86.400440
 20
123.018240
 30
0.0
 11
-83.627213
 21
122.565300
 31
0.0
  0
LINE
  5
117
100
AcDbEntity
  8
Layer_1
 62
1
100
AcDbLine
 10
-83.627213
 20
122.565300
 30
0.0
 11
-85.546223
 21
120.463530
 31
0.0
  0
LINE
  5
118
100
AcDbEntity
  8
Layer_1
 62
1
100
AcDbLine
 10
-85.546223
 20
120.463530
 30
0.0
 11
-85.156859
 21
117.662480
 31
0.0
  0
LINE
  5
119
100
AcDbEntity
  8
Layer_1
 62
1
100
AcDbLine
 10
-85.156859
 20
117.662480
 30
0.0
 11
-87.691702
 21
118.902090
 31
0.0
  0
LINE
  5
11a
100
AcDbEntity
  8
Layer_1
 62
1
100
AcDbLine
 10
-87.691702
 20
118.902090
 30
0.0
 11
-90.313956
 21
117.658510
 31
0.0
  0
LINE
  5
11b
100
AcDbEntity
  8
Layer_1
 62
1
100
AcDbLine
 10
-90.313956
 20
117.658510
 30
0.0
 11
-89.841156
 21
120.467500
 31
0.0
  0
LINE
  5
11c
100
AcDbEntity
  8
Layer_1
 62
1
100
AcDbLine
 10
-89.841156
 20
120.467500
 30
0.0
 11
-91.851550
 21
122.529540
 31
0.0
  0
LINE
  5
11d
100
AcDbEntity
  8
Layer_1
 62
1
100
AcDbLine
 10
-91.851550
 20
122.529540
 30
0.0
 11
-88.955151
 21
122.986450
 31
0.0
  0
LINE
  5
11e
100
AcDbEntity
  8
Layer_1
 62
1
100
AcDbLine
 10
-88.955151
 20
122.986450
 30
0.0
 11
-87.731435
 21
125.656380
 31
0.0
  0
LINE
  5
11f
100
AcDbEntity
  8
Layer_1
 62
1
100
AcDbLine
 10
-130.343050
 20
125.644470
 30
0.0
 11
-128.956430
 21
122.994410
 31
0.0
  0
LINE
  5
120
100
AcDbEntity
  8
Layer_1
 62
1
100
AcDbLine
 10
-128.956430
 20
122.994410
 30
0.0
 11
-126.203060
 21
122.553390
 31
0.0
  0
LINE
  5
121
100
AcDbEntity
  8
Layer_1
 62
1
100
AcDbLine
 10
-126.203060
 20
122.553390
 30
0.0
 11
-128.201540
 21
120.407920
 31
0.0
  0
LINE
  5
122
100
AcDbEntity
  8
Layer_1
 62
1
100
AcDbLine
 10
-128.201540
 20
120.407920
 30
0.0
 11
-127.768470
 21
117.714140
 31
0.0
  0
LINE
  5
123
100
AcDbEntity
  8
Layer_1
 62
1
100
AcDbLine
 10
-127.768470
 20
117.714140
 30
0.0
 11
-130.347020
 21
118.854420
 31
0.0
  0
LINE
  5
124
100
AcDbEntity
  8
Layer_1
 62
1
100
AcDbLine
 10
-130.347020
 20
118.854420
 30
0.0
 11
-132.985160
 21
117.535360
 31
0.0
  0
LINE
  5
125
100
AcDbEntity
  8
Layer_1
 62
1
100
AcDbLine
 10
-132.985160
 20
117.535360
 30
0.0
 11
-133.068560
 21
117.618760
 31
0.0
  0
LINE
  5
126
100
AcDbEntity
  8
Layer_1
 62
1
100
AcDbLine
 10
-133.068560
 20
117.618760
 30
0.0
 11
-133.028860
 21
117.737960
 31
0.0
  0
LINE
  5
127
100
AcDbEntity
  8
Layer_1
 62
1
100
AcDbLine
 10
-133.028860
 20
117.737960
 30
0.0
 11
-132.492490
 21
120.443640
 31
0.0
  0
LINE
  5
128
100
AcDbEntity
  8
Layer_1
 62
1
100
AcDbLine
 10
-132.492490
 20
120.443640
 30
0.0
 11
-134.463150
 21
122.537470
 31
0.0
  0
LINE
  5
129
100
AcDbEntity
  8
Layer_1
 62
1
100
AcDbLine
 10
-134.463150
 20
122.537470
 30
0.0
 11
-131.840900
 21
122.966580
 31
0.0
  0
LINE
  5
12a
100
AcDbEntity
  8
Layer_1
 62
1
100
AcDbLine
 10
-131.840900
 20
122.966580
 30
0.0
 11
-130.343050
 21
125.644470
 31
0.0
  0
LINE
  5
12b
100
AcDbEntity
  8
Layer_1
 62
3
100
AcDbLine
 10
-143.013300
 20
123.284450
 30
0.0
 11
-141.980290
 21
121.496550
 31
0.0
  0
LINE
  5
12c
100
AcDbEntity
  8
Layer_1
 62
3
100
AcDbLine
 10
-141.980290
 20
121.496550
 30
0.0
 11
-140.005650
 21
121.146910
 31
0.0
  0
LINE
  5
12d
100
AcDbEntity
  8
Layer_1
 62
3
100
AcDbLine
 10
-140.005650
 20
121.146910
 30
0.0
 11
-141.451860
 21
119.617270
 31
0.0
  0
LINE
  5
12e
100
AcDbEntity
  8
Layer_1
 62
3
100
AcDbLine
 10
-141.451860
 20
119.617270
 30
0.0
 11
-141.106200
 21
117.515500
 31
0.0
  0
LINE
  5
12f
100
AcDbEntity
  8
Layer_1
 62
3
100
AcDbLine
 10
-141.106200
 20
117.515500
 30
0.0
 11
-143.009320
 21
118.524660
 31
0.0
  0
LINE
  5
130
100
AcDbEntity
  8
Layer_1
 62
3
100
AcDbLine
 10
-143.009320
 20
118.524660
 30
0.0
 11
-144.932310
 21
117.503580
 31
0.0
  0
LINE
  5
131
100
AcDbEntity
  8
Layer_1
 62
3
100
AcDbLine
 10
-144.932310
 20
117.503580
 30
0.0
 11
-144.586650
 21
119.684810
 31
0.0
  0
LINE
  5
132
100
AcDbEntity
  8
Layer_1
 62
3
100
AcDbLine
 10
-144.586650
 20
119.684810
 30
0.0
 11
-146.036830
 21
121.111160
 31
0.0
  0
LINE
  5
133
100
AcDbEntity
  8
Layer_1
 62
3
100
AcDbLine
 10
-146.036830
 20
121.111160
 30
0.0
 11
-144.010550
 21
121.444900
 31
0.0
  0
LINE
  5
134
100
AcDbEntity
  8
Layer_1
 62
3
100
AcDbLine
 10
-144.010550
 20
121.444900
 30
0.0
 11
-143.013300
 21
123.284450
 31
0.0
  0
LINE
  5
135
100
AcDbEntity
  8
Layer_1
 62
3
100
AcDbLine
 10
-75.037346
 20
123.284450
 30
0.0
 11
-74.004336
 21
121.496550
 31
0.0
  0
LINE
  5
136
100
AcDbEntity
  8
Layer_1
 62
3
100
AcDbLine
 10
-74.004336
 20
121.496550
 30
0.0
 11
-72.029700
 21
121.146910
 31
0.0
  0
LINE
  5
137
100
AcDbEntity
  8
Layer_1
 62
3
100
AcDbLine
 10
-72.029700
 20
121.146910
 30
0.0
 11
-73.467967
 21
119.621250
 31
0.0
  0
LINE
  5
138
100
AcDbEntity
  8
Layer_1
 62
3
100
AcDbLine
 10
-73.467967
 20
119.621250
 30
0.0
 11
-73.154092
 21
117.630710
 31
0.0
  0
LINE
  5
139
100
AcDbEntity
  8
Layer_1
 62
3
100
AcDbLine
 10
-73.154092
 20
117.630710
 30
0.0
 11
-75.033374
 21
118.524660
 31
0.0
  0
LINE
  5
13a
100
AcDbEntity
  8
Layer_1
 62
3
100
AcDbLine
 10
-75.033374
 20
118.524660
 30
0.0
 11
-76.924574
 21
117.646600
 31
0.0
  0
LINE
  5
13b
100
AcDbEntity
  8
Layer_1
 62
3
100
AcDbLine
 10
-76.924574
 20
117.646600
 30
0.0
 11
-76.566992
 21
119.653020
 31
0.0
  0
LINE
  5
13c
100
AcDbEntity
  8
Layer_1
 62
3
100
AcDbLine
 10
-76.566992
 20
119.653020
 30
0.0
 11
-78.056911
 21
121.138970
 31
0.0
  0
LINE
  5
13d
100
AcDbEntity
  8
Layer_1
 62
3
100
AcDbLine
 10
-78.056911
 20
121.138970
 30
0.0
 11
-76.030626
 21
121.444900
 31
0.0
  0
LINE
  5
13e
100
AcDbEntity
  8
Layer_1
 62
3
100
AcDbLine
 10
-76.030626
 20
121.444900
 30
0.0
 11
-75.037346
 21
123.284450
 31
0.0
  0
LINE
  5
13f
100
AcDbEntity
  8
Layer_1
 62
5
100
AcDbLine
 10
-64.746991
 20
121.540260
 30
0.0
 11
-64.071560
 21
120.189400
 31
0.0
  0
LINE
  5
140
100
AcDbEntity
  8
Layer_1
 62
5
100
AcDbLine
 10
-64.071560
 20
120.189400
 30
0.0
 11
-62.816059
 21
119.990740
 31
0.0
  0
LINE
  5
141
100
AcDbEntity
  8
Layer_1
 62
5
100
AcDbLine
 10
-62.816059
 20
119.990740
 30
0.0
 11
-63.658355
 21
118.961710
 31
0.0
  0
LINE
  5
142
100
AcDbEntity
  8
Layer_1
 62
5
100
AcDbLine
 10
-63.658355
 20
118.961710
 30
0.0
 11
-63.419968
 21
117.650580
 31
0.0
  0
LINE
  5
143
100
AcDbEntity
  8
Layer_1
 62
5
100
AcDbLine
 10
-63.419968
 20
117.650580
 30
0.0
 11
-64.778773
 21
118.202850
 31
0.0
  0
LINE
  5
144
100
AcDbEntity
  8
Layer_1
 62
5
100
AcDbLine
 10
-64.778773
 20
118.202850
 30
0.0
 11
-65.990572
 21
117.702240
 31
0.0
  0
LINE
  5
145
100
AcDbEntity
  8
Layer_1
 62
5
100
AcDbLine
 10
-65.990572
 20
117.702240
 30
0.0
 11
-65.772053
 21
118.961710
 31
0.0
  0
LINE
  5
146
100
AcDbEntity
  8
Layer_1
 62
5
100
AcDbLine
 10
-65.772053
 20
118.961710
 30
0.0
 11
-66.650107
 21
119.939090
 31
0.0
  0
LINE
  5
147
100
AcDbEntity
  8
Layer_1
 62
5
100
AcDbLine
 10
-66.650107
 20
119.939090
 30
0.0
 11
-65.350900
 21
120.193380
 31
0.0
  0
LINE
  5
148
100
AcDbEntity
  8
Layer_1
 62
5
100
AcDbLine
 10
-65.350900
 20
120.193380
 30
0.0
 11
-64.746991
 21
121.540260
 31
0.0
  0
LINE
  5
149
100
AcDbEntity
  8
Layer_1
 62
5
100
AcDbLine
 10
-153.295710
 20
121.397220
 30
0.0
 11
-152.648090
 21
120.193380
 31
0.0
  0
LINE
  5
14a
100
AcDbEntity
  8
Layer_1
 62
5
100
AcDbLine
 10
-152.648090
 20
120.193380
 30
0.0
 11
-151.416420
 21
119.958950
 31
0.0
  0
LINE
  5
14b
100
AcDbEntity
  8
Layer_1
 62
5
100
AcDbLine
 10
-151.416420
 20
119.958950
 30
0.0
 11
-152.274620
 21
118.973620
 31
0.0
  0
LINE
  5
14c
100
AcDbEntity
  8
Layer_1
 62
5
100
AcDbLine
 10
-152.274620
 20
118.973620
 30
0.0
 11
-152.036230
 21
117.535370
 31
0.0
  0
LINE
  5
14d
100
AcDbEntity
  8
Layer_1
 62
5
100
AcDbLine
 10
-152.036230
 20
117.535370
 30
0.0
 11
-153.279810
 21
118.202850
 31
0.0
  0
LINE
  5
14e
100
AcDbEntity
  8
Layer_1
 62
5
100
AcDbLine
 10
-153.279810
 20
118.202850
 30
0.0
 11
-154.614780
 21
117.555230
 31
0.0
  0
LINE
  5
14f
100
AcDbEntity
  8
Layer_1
 62
5
100
AcDbLine
 10
-154.614780
 20
117.555230
 30
0.0
 11
-154.356530
 21
118.929920
 31
0.0
  0
LINE
  5
150
100
AcDbEntity
  8
Layer_1
 62
5
100
AcDbLine
 10
-154.356530
 20
118.929920
 30
0.0
 11
-155.246500
 21
119.954990
 31
0.0
  0
LINE
  5
151
100
AcDbEntity
  8
Layer_1
 62
5
100
AcDbLine
 10
-155.246500
 20
119.954990
 30
0.0
 11
-153.943320
 21
120.193380
 31
0.0
  0
LINE
  5
152
100
AcDbEntity
  8
Layer_1
 62
5
100
AcDbLine
 10
-153.943320
 20
120.193380
 30
0.0
 11
-153.295710
 21
121.397220
 31
0.0
  0
SPLINE
  5
153
100
AcDbEntity
  8
Layer_1
 62
3
100
AcDbSpline
 70
8
 71
3
 72
8
 73
4
 74
0
 40
0
 40
0
 40
0
 40
0
 40
1
 40
1
 40
1
 40
1
 10
-119.583860
 20
136.618190
 30
0.0
 10
-119.628060
 20
136.609190
 30
0.0
 10
-119.619260
 20
136.543390
 30
0.0
 10
-119.615660
 20
136.487080
 30
0.0
  0
LINE
  5
154
100
AcDbEntity
  8
Layer_1
 62
3
100
AcDbLine
 10
-119.615660
 20
136.487080
 30
0.0
 11
-119.512360
 21
136.502980
 31
0.0
  0
SPLINE
  5
155
100
AcDbEntity
  8
Layer_1
 62
3
100
AcDbSpline
 70
8
 71
3
 72
8
 73
4
 74
0
 40
0
 40
0
 40
0
 40
0
 40
1
 40
1
 40
1
 40
1
 10
-119.512360
 20
136.502980
 30
0.0
 10
-119.523760
 20
136.547080
 30
0.0
 10
-119.538860
 20
136.588880
 30
0.0
 10
-119.563960
 20
136.618190
 30
0.0
  0
SPLINE
  5
156
100
AcDbEntity
  8
Layer_1
 62
3
100
AcDbSpline
 70
8
 71
3
 72
8
 73
4
 74
0
 40
0
 40
0
 40
0
 40
0
 40
1
 40
1
 40
1
 40
1
 10
-119.563960
 20
136.618190
 30
0.0
 10
-119.572960
 20
136.619190
 30
0.0
 10
-119.577460
 20
136.619190
 30
0.0
 10
-119.583860
 20
136.618190
 30
0.0
  0
LINE
  5
157
100
AcDbEntity
  8
Layer_1
 62
3
100
AcDbLine
 10
-119.583860
 20
136.618190
 30
0.0
 11
-119.583860
 21
136.618190
 31
0.0
  0
SPLINE
  5
158
100
AcDbEntity
  8
Layer_1
 62
3
100
AcDbSpline
 70
8
 71
3
 72
8
 73
4
 74
0
 40
0
 40
0
 40
0
 40
0
 40
1
 40
1
 40
1
 40
1
 10
-109.527920
 20
133.988000
 30
0.0
 10
-102.612050
 20
133.988000
 30
0.0
 10
-97.004673
 20
128.380620
 30
0.0
 10
-97.004673
 20
121.464750
 30
0.0
  0
SPLINE
  5
159
100
AcDbEntity
  8
Layer_1
 62
3
100
AcDbSpline
 70
8
 71
3
 72
8
 73
4
 74
0
 40
0
 40
0
 40
0
 40
0
 40
1
 40
1
 40
1
 40
1
 10
-97.004673
 20
121.464750
 30
0.0
 10
-97.004673
 20
118.968990
 30
0.0
 10
-97.736738
 20
116.643510
 30
0.0
 10
-98.995202
 20
114.690600
 30
0.0
  0
LINE
  5
15a
100
AcDbEntity
  8
Layer_1
 62
3
100
AcDbLine
 10
-98.995202
 20
114.690600
 30
0.0
 11
-99.158098
 21
114.793900
 31
0.0
  0
SPLINE
  5
15b
100
AcDbEntity
  8
Layer_1
 62
3
100
AcDbSpline
 70
8
 71
3
 72
8
 73
4
 74
0
 40
0
 40
0
 40
0
 40
0
 40
1
 40
1
 40
1
 40
1
 10
-99.158098
 20
114.793900
 30
0.0
 10
-97.910498
 20
116.722930
 30
0.0
 10
-97.187439
 20
119.020520
 30
0.0
 10
-97.187439
 20
121.488590
 30
0.0
  0
SPLINE
  5
15c
100
AcDbEntity
  8
Layer_1
 62
3
100
AcDbSpline
 70
8
 71
3
 72
8
 73
4
 74
0
 40
0
 40
0
 40
0
 40
0
 40
1
 40
1
 40
1
 40
1
 10
-97.187439
 20
121.488590
 30
0.0
 10
-97.187439
 20
128.304850
 30
0.0
 10
-102.711650
 20
133.829070
 30
0.0
 10
-109.527920
 20
133.829070
 30
0.0
  0
SPLINE
  5
15d
100
AcDbEntity
  8
Layer_1
 62
3
100
AcDbSpline
 70
8
 71
3
 72
8
 73
4
 74
0
 40
0
 40
0
 40
0
 40
0
 40
1
 40
1
 40
1
 40
1
 10
-109.527920
 20
133.829070
 30
0.0
 10
-113.477660
 20
133.829070
 30
0.0
 10
-116.995460
 20
131.975470
 30
0.0
 10
-119.254090
 20
129.089150
 30
0.0
  0
LINE
  5
15e
100
AcDbEntity
  8
Layer_1
 62
3
100
AcDbLine
 10
-119.254090
 20
129.089150
 30
0.0
 11
-119.393150
 21
129.180550
 31
0.0
  0
SPLINE
  5
15f
100
AcDbEntity
  8
Layer_1
 62
3
100
AcDbSpline
 70
8
 71
3
 72
8
 73
4
 74
0
 40
0
 40
0
 40
0
 40
0
 40
1
 40
1
 40
1
 40
1
 10
-119.393150
 20
129.180550
 30
0.0
 10
-117.100690
 20
132.107140
 30
0.0
 10
-113.533300
 20
133.988020
 30
0.0
 10
-109.527920
 20
133.988020
 30
0.0
  0
LINE
  5
160
100
AcDbEntity
  8
Layer_1
 62
3
100
AcDbLine
 10
-109.527920
 20
133.988020
 30
0.0
 11
-109.527920
 21
133.988000
 31
0.0
  0
SPLINE
  5
161
100
AcDbEntity
  8
Layer_1
 62
3
100
AcDbSpline
 70
8
 71
3
 72
8
 73
4
 74
0
 40
0
 40
0
 40
0
 40
0
 40
1
 40
1
 40
1
 40
1
 10
-109.798090
 20
131.882250
 30
0.0
 10
-109.708890
 20
131.884250
 30
0.0
 10
-109.617640
 20
131.882250
 30
0.0
 10
-109.527920
 20
131.882250
 30
0.0
  0
SPLINE
  5
162
100
AcDbEntity
  8
Layer_1
 62
3
100
AcDbSpline
 70
8
 71
3
 72
8
 73
4
 74
0
 40
0
 40
0
 40
0
 40
0
 40
1
 40
1
 40
1
 40
1
 10
-109.527920
 20
131.882250
 30
0.0
 10
-107.165830
 20
131.882250
 30
0.0
 10
-104.988440
 20
131.091140
 30
0.0
 10
-103.242460
 20
129.764580
 30
0.0
  0
LINE
  5
163
100
AcDbEntity
  8
Layer_1
 62
3
100
AcDbLine
 10
-103.242460
 20
129.764580
 30
0.0
 11
-103.405360
 21
129.573870
 31
0.0
  0
SPLINE
  5
164
100
AcDbEntity
  8
Layer_1
 62
3
100
AcDbSpline
 70
8
 71
3
 72
8
 73
4
 74
0
 40
0
 40
0
 40
0
 40
0
 40
1
 40
1
 40
1
 40
1
 10
-103.405360
 20
129.573870
 30
0.0
 10
-105.102740
 20
130.874400
 30
0.0
 10
-107.223590
 20
131.647830
 30
0.0
 10
-109.527920
 20
131.647830
 30
0.0
  0
SPLINE
  5
165
100
AcDbEntity
  8
Layer_1
 62
3
100
AcDbSpline
 70
8
 71
3
 72
8
 73
4
 74
0
 40
0
 40
0
 40
0
 40
0
 40
1
 40
1
 40
1
 40
1
 10
-109.527920
 20
131.647830
 30
0.0
 10
-115.093080
 20
131.647830
 30
0.0
 10
-119.603730
 20
127.141160
 30
0.0
 10
-119.603730
 20
121.576000
 30
0.0
  0
SPLINE
  5
166
100
AcDbEntity
  8
Layer_1
 62
3
100
AcDbSpline
 70
8
 71
3
 72
8
 73
4
 74
0
 40
0
 40
0
 40
0
 40
0
 40
1
 40
1
 40
1
 40
1
 10
-119.603730
 20
121.576000
 30
0.0
 10
-119.603730
 20
118.397890
 30
0.0
 10
-118.131630
 20
115.560960
 30
0.0
 10
-115.833250
 20
113.713210
 30
0.0
  0
LINE
  5
167
100
AcDbEntity
  8
Layer_1
 62
3
100
AcDbLine
 10
-115.833250
 20
113.713210
 30
0.0
 11
-116.079580
 21
113.419200
 31
0.0
  0
SPLINE
  5
168
100
AcDbEntity
  8
Layer_1
 62
3
100
AcDbSpline
 70
8
 71
3
 72
8
 73
4
 74
0
 40
0
 40
0
 40
0
 40
0
 40
1
 40
1
 40
1
 40
1
 10
-116.079580
 20
113.419200
 30
0.0
 10
-118.425700
 20
115.325740
 30
0.0
 10
-119.925550
 20
118.230360
 30
0.0
 10
-119.925550
 20
121.488590
 30
0.0
  0
SPLINE
  5
169
100
AcDbEntity
  8
Layer_1
 62
3
100
AcDbSpline
 70
8
 71
3
 72
8
 73
4
 74
0
 40
0
 40
0
 40
0
 40
0
 40
1
 40
1
 40
1
 40
1
 10
-119.925550
 20
121.488590
 30
0.0
 10
-119.925550
 20
127.140670
 30
0.0
 10
-115.415820
 20
131.739970
 30
0.0
 10
-109.798090
 20
131.882250
 30
0.0
  0
LINE
  5
16a
100
AcDbEntity
  8
Layer_1
 62
3
100
AcDbLine
 10
-109.798090
 20
131.882250
 30
0.0
 11
-109.798090
 21
131.882250
 31
0.0
  0
SPLINE
  5
16b
100
AcDbEntity
  8
Layer_1
 62
3
100
AcDbSpline
 70
8
 71
3
 72
8
 73
4
 74
0
 40
0
 40
0
 40
0
 40
0
 40
1
 40
1
 40
1
 40
1
 10
-109.527920
 20
130.062560
 30
0.0
 10
-104.930580
 20
130.062560
 30
0.0
 10
-101.192180
 20
126.408750
 30
0.0
 10
-101.049300
 20
121.846170
 30
0.0
  0
LINE
  5
16c
100
AcDbEntity
  8
Layer_1
 62
3
100
AcDbLine
 10
-101.049300
 20
121.846170
 30
0.0
 11
-101.347280
 21
121.854170
 31
0.0
  0
SPLINE
  5
16d
100
AcDbEntity
  8
Layer_1
 62
3
100
AcDbSpline
 70
8
 71
3
 72
8
 73
4
 74
0
 40
0
 40
0
 40
0
 40
0
 40
1
 40
1
 40
1
 40
1
 10
-101.347280
 20
121.854170
 30
0.0
 10
-101.496420
 20
126.251650
 30
0.0
 10
-105.102070
 20
129.772590
 30
0.0
 10
-109.535870
 20
129.772590
 30
0.0
  0
SPLINE
  5
16e
100
AcDbEntity
  8
Layer_1
 62
3
100
AcDbSpline
 70
8
 71
3
 72
8
 73
4
 74
0
 40
0
 40
0
 40
0
 40
0
 40
1
 40
1
 40
1
 40
1
 10
-109.535870
 20
129.772590
 30
0.0
 10
-109.606670
 20
129.772590
 30
0.0
 10
-109.680080
 20
129.774590
 30
0.0
 10
-109.750410
 20
129.772590
 30
0.0
  0
SPLINE
  5
16f
100
AcDbEntity
  8
Layer_1
 62
3
100
AcDbSpline
 70
8
 71
3
 72
8
 73
4
 74
0
 40
0
 40
0
 40
0
 40
0
 40
1
 40
1
 40
1
 40
1
 10
-109.750410
 20
129.772590
 30
0.0
 10
-110.581180
 20
129.751590
 30
0.0
 10
-111.378570
 20
129.605960
 30
0.0
 10
-112.130310
 20
129.355410
 30
0.0
  0
SPLINE
  5
170
100
AcDbEntity
  8
Layer_1
 62
3
100
AcDbSpline
 70
8
 71
3
 72
8
 73
4
 74
0
 40
0
 40
0
 40
0
 40
0
 40
1
 40
1
 40
1
 40
1
 10
-112.130310
 20
129.355410
 30
0.0
 10
-112.236620
 20
129.320010
 30
0.0
 10
-112.343830
 20
129.279810
 30
0.0
 10
-112.448160
 20
129.240190
 30
0.0
  0
SPLINE
  5
171
100
AcDbEntity
  8
Layer_1
 62
3
100
AcDbSpline
 70
8
 71
3
 72
8
 73
4
 74
0
 40
0
 40
0
 40
0
 40
0
 40
1
 40
1
 40
1
 40
1
 10
-112.448160
 20
129.240190
 30
0.0
 10
-112.490260
 20
129.224190
 30
0.0
 10
-112.533560
 20
129.209190
 30
0.0
 10
-112.575300
 20
129.192490
 30
0.0
  0
SPLINE
  5
172
100
AcDbEntity
  8
Layer_1
 62
3
100
AcDbSpline
 70
8
 71
3
 72
8
 73
4
 74
0
 40
0
 40
0
 40
0
 40
0
 40
1
 40
1
 40
1
 40
1
 10
-112.575300
 20
129.192490
 30
0.0
 10
-112.651600
 20
129.161990
 30
0.0
 10
-112.726570
 20
129.129790
 30
0.0
 10
-112.801760
 20
129.097190
 30
0.0
  0
SPLINE
  5
173
100
AcDbEntity
  8
Layer_1
 62
3
100
AcDbSpline
 70
8
 71
3
 72
8
 73
4
 74
0
 40
0
 40
0
 40
0
 40
0
 40
1
 40
1
 40
1
 40
1
 10
-112.801760
 20
129.097190
 30
0.0
 10
-112.851560
 20
129.075590
 30
0.0
 10
-112.899460
 20
129.052190
 30
0.0
 10
-112.948770
 20
129.029690
 30
0.0
  0
SPLINE
  5
174
100
AcDbEntity
  8
Layer_1
 62
3
100
AcDbSpline
 70
8
 71
3
 72
8
 73
4
 74
0
 40
0
 40
0
 40
0
 40
0
 40
1
 40
1
 40
1
 40
1
 10
-112.948770
 20
129.029690
 30
0.0
 10
-113.006270
 20
129.003290
 30
0.0
 10
-113.062830
 20
128.977890
 30
0.0
 10
-113.119610
 20
128.950190
 30
0.0
  0
SPLINE
  5
175
100
AcDbEntity
  8
Layer_1
 62
3
100
AcDbSpline
 70
8
 71
3
 72
8
 73
4
 74
0
 40
0
 40
0
 40
0
 40
0
 40
1
 40
1
 40
1
 40
1
 10
-113.119610
 20
128.950190
 30
0.0
 10
-113.218510
 20
128.901490
 30
0.0
 10
-113.316990
 20
128.847730
 30
0.0
 10
-113.413620
 20
128.795240
 30
0.0
  0
SPLINE
  5
176
100
AcDbEntity
  8
Layer_1
 62
3
100
AcDbSpline
 70
8
 71
3
 72
8
 73
4
 74
0
 40
0
 40
0
 40
0
 40
0
 40
1
 40
1
 40
1
 40
1
 10
-113.413620
 20
128.795240
 30
0.0
 10
-113.530070
 20
128.731940
 30
0.0
 10
-113.642340
 20
128.669200
 30
0.0
 10
-113.755310
 20
128.600560
 30
0.0
  0
SPLINE
  5
177
100
AcDbEntity
  8
Layer_1
 62
3
100
AcDbSpline
 70
8
 71
3
 72
8
 73
4
 74
0
 40
0
 40
0
 40
0
 40
0
 40
1
 40
1
 40
1
 40
1
 10
-113.755310
 20
128.600560
 30
0.0
 10
-113.868270
 20
128.531960
 30
0.0
 10
-113.983720
 20
128.459860
 30
0.0
 10
-114.093020
 20
128.386010
 30
0.0
  0
SPLINE
  5
178
100
AcDbEntity
  8
Layer_1
 62
3
100
AcDbSpline
 70
8
 71
3
 72
8
 73
4
 74
0
 40
0
 40
0
 40
0
 40
0
 40
1
 40
1
 40
1
 40
1
 10
-114.093020
 20
128.386010
 30
0.0
 10
-116.174590
 20
126.979730
 30
0.0
 10
-117.575160
 20
124.646370
 30
0.0
 10
-117.704580
 20
121.977380
 30
0.0
  0
LINE
  5
179
100
AcDbEntity
  8
Layer_1
 62
3
100
AcDbLine
 10
-117.704580
 20
121.977380
 30
0.0
 11
-118.002560
 21
121.985380
 31
0.0
  0
SPLINE
  5
17a
100
AcDbEntity
  8
Layer_1
 62
3
100
AcDbSpline
 70
8
 71
3
 72
8
 73
4
 74
0
 40
0
 40
0
 40
0
 40
0
 40
1
 40
1
 40
1
 40
1
 10
-118.002560
 20
121.985380
 30
0.0
 10
-117.789170
 20
126.483170
 30
0.0
 10
-114.078650
 20
130.062710
 30
0.0
 10
-109.527920
 20
130.062710
 30
0.0
  0
LINE
  5
17b
100
AcDbEntity
  8
Layer_1
 62
3
100
AcDbLine
 10
-109.527920
 20
130.062710
 30
0.0
 11
-109.527920
 21
130.062560
 31
0.0
  0
SPLINE
  5
17c
100
AcDbEntity
  8
Layer_1
 62
3
100
AcDbSpline
 70
8
 71
3
 72
8
 73
4
 74
0
 40
0
 40
0
 40
0
 40
0
 40
1
 40
1
 40
1
 40
1
 10
-102.721980
 20
129.347400
 30
0.0
 10
-100.521650
 20
127.441880
 30
0.0
 10
-99.130288
 20
124.628090
 30
0.0
 10
-99.130288
 20
121.488590
 30
0.0
  0
SPLINE
  5
17d
100
AcDbEntity
  8
Layer_1
 62
3
100
AcDbSpline
 70
8
 71
3
 72
8
 73
4
 74
0
 40
0
 40
0
 40
0
 40
0
 40
1
 40
1
 40
1
 40
1
 10
-99.130288
 20
121.488590
 30
0.0
 10
-99.130288
 20
115.746790
 30
0.0
 10
-103.786120
 20
111.090960
 30
0.0
 10
-109.527920
 20
111.090960
 30
0.0
  0
SPLINE
  5
17e
100
AcDbEntity
  8
Layer_1
 62
3
100
AcDbSpline
 70
8
 71
3
 72
8
 73
4
 74
0
 40
0
 40
0
 40
0
 40
0
 40
1
 40
1
 40
1
 40
1
 10
-109.527920
 20
111.090960
 30
0.0
 10
-111.771800
 20
111.090960
 30
0.0
 10
-113.848070
 20
111.804900
 30
0.0
 10
-115.547180
 20
113.013940
 30
0.0
  0
LINE
  5
17f
100
AcDbEntity
  8
Layer_1
 62
3
100
AcDbLine
 10
-115.547180
 20
113.013940
 30
0.0
 11
-115.296880
 21
113.311930
 31
0.0
  0
SPLINE
  5
180
100
AcDbEntity
  8
Layer_1
 62
3
100
AcDbSpline
 70
8
 71
3
 72
8
 73
4
 74
0
 40
0
 40
0
 40
0
 40
0
 40
1
 40
1
 40
1
 40
1
 10
-115.296880
 20
113.311930
 30
0.0
 10
-113.662510
 20
112.167600
 30
0.0
 10
-111.674260
 20
111.496220
 30
0.0
 10
-109.527920
 20
111.496220
 30
0.0
  0
SPLINE
  5
181
100
AcDbEntity
  8
Layer_1
 62
3
100
AcDbSpline
 70
8
 71
3
 72
8
 73
4
 74
0
 40
0
 40
0
 40
0
 40
0
 40
1
 40
1
 40
1
 40
1
 10
-109.527920
 20
111.496220
 30
0.0
 10
-103.962760
 20
111.496220
 30
0.0
 10
-99.452111
 20
116.010830
 30
0.0
 10
-99.452111
 20
121.576000
 30
0.0
  0
SPLINE
  5
182
100
AcDbEntity
  8
Layer_1
 62
3
100
AcDbSpline
 70
8
 71
3
 72
8
 73
4
 74
0
 40
0
 40
0
 40
0
 40
0
 40
1
 40
1
 40
1
 40
1
 10
-99.452111
 20
121.576000
 30
0.0
 10
-99.452111
 20
124.596580
 30
0.0
 10
-100.783840
 20
127.303170
 30
0.0
 10
-102.888850
 20
129.148750
 30
0.0
  0
LINE
  5
183
100
AcDbEntity
  8
Layer_1
 62
3
100
AcDbLine
 10
-102.888850
 20
129.148750
 30
0.0
 11
-102.721980
 21
129.347400
 31
0.0
  0
LINE
  5
184
100
AcDbEntity
  8
Layer_1
 62
3
100
AcDbLine
 10
-119.794440
 20
128.636210
 30
0.0
 11
-119.651410
 21
128.548810
 31
0.0
  0
SPLINE
  5
185
100
AcDbEntity
  8
Layer_1
 62
3
100
AcDbSpline
 70
8
 71
3
 72
8
 73
4
 74
0
 40
0
 40
0
 40
0
 40
0
 40
1
 40
1
 40
1
 40
1
 10
-119.651410
 20
128.548810
 30
0.0
 10
-121.049020
 20
126.548430
 30
0.0
 10
-121.868400
 20
124.114360
 30
0.0
 10
-121.868400
 20
121.488590
 30
0.0
  0
SPLINE
  5
186
100
AcDbEntity
  8
Layer_1
 62
3
100
AcDbSpline
 70
8
 71
3
 72
8
 73
4
 74
0
 40
0
 40
0
 40
0
 40
0
 40
1
 40
1
 40
1
 40
1
 10
-121.868400
 20
121.488590
 30
0.0
 10
-121.868400
 20
114.672330
 30
0.0
 10
-116.344180
 20
109.144140
 30
0.0
 10
-109.527920
 20
109.144140
 30
0.0
  0
SPLINE
  5
187
100
AcDbEntity
  8
Layer_1
 62
3
100
AcDbSpline
 70
8
 71
3
 72
8
 73
4
 74
0
 40
0
 40
0
 40
0
 40
0
 40
1
 40
1
 40
1
 40
1
 10
-109.527920
 20
109.144140
 30
0.0
 10
-105.419850
 20
109.144140
 30
0.0
 10
-101.782480
 20
111.153850
 30
0.0
 10
-99.539519
 20
114.241640
 30
0.0
  0
LINE
  5
188
100
AcDbEntity
  8
Layer_1
 62
3
100
AcDbLine
 10
-99.539519
 20
114.241640
 30
0.0
 11
-99.372646
 21
114.138340
 31
0.0
  0
SPLINE
  5
189
100
AcDbEntity
  8
Layer_1
 62
3
100
AcDbSpline
 70
8
 71
3
 72
8
 73
4
 74
0
 40
0
 40
0
 40
0
 40
0
 40
1
 40
1
 40
1
 40
1
 10
-99.372646
 20
114.138340
 30
0.0
 10
-101.647410
 20
110.990090
 30
0.0
 10
-105.347470
 20
108.941510
 30
0.0
 10
-109.527920
 20
108.941510
 30
0.0
  0
SPLINE
  5
18a
100
AcDbEntity
  8
Layer_1
 62
3
100
AcDbSpline
 70
8
 71
3
 72
8
 73
4
 74
0
 40
0
 40
0
 40
0
 40
0
 40
1
 40
1
 40
1
 40
1
 10
-109.527920
 20
108.941510
 30
0.0
 10
-116.443790
 20
108.941510
 30
0.0
 10
-122.051160
 20
114.548880
 30
0.0
 10
-122.051160
 20
121.464750
 30
0.0
  0
SPLINE
  5
18b
100
AcDbEntity
  8
Layer_1
 62
3
100
AcDbSpline
 70
8
 71
3
 72
8
 73
4
 74
0
 40
0
 40
0
 40
0
 40
0
 40
1
 40
1
 40
1
 40
1
 10
-122.051160
 20
121.464750
 30
0.0
 10
-122.051160
 20
124.131930
 30
0.0
 10
-121.215870
 20
126.604860
 30
0.0
 10
-119.794440
 20
128.636210
 30
0.0
  0
LINE
  5
18c
100
AcDbEntity
  8
Layer_1
 62
3
100
AcDbLine
 10
-119.794440
 20
128.636210
 30
0.0
 11
-119.794440
 21
128.636210
 31
0.0
  0
LINE
  5
18d
100
AcDbEntity
  8
Layer_1
 62
3
100
AcDbLine
 10
-109.027310
 20
124.945200
 30
0.0
 11
-102.721980
 21
124.945200
 31
0.0
  0
LINE
  5
18e
100
AcDbEntity
  8
Layer_1
 62
3
100
AcDbLine
 10
-102.721980
 20
124.945200
 30
0.0
 11
-102.519350
 21
124.945200
 31
0.0
  0
LINE
  5
18f
100
AcDbEntity
  8
Layer_1
 62
3
100
AcDbLine
 10
-102.519350
 20
124.945200
 30
0.0
 11
-102.519350
 21
124.754500
 31
0.0
  0
LINE
  5
190
100
AcDbEntity
  8
Layer_1
 62
3
100
AcDbLine
 10
-102.519350
 20
124.754500
 30
0.0
 11
-102.519350
 21
123.737370
 31
0.0
  0
LINE
  5
191
100
AcDbEntity
  8
Layer_1
 62
3
100
AcDbLine
 10
-102.519350
 20
123.737370
 30
0.0
 11
-102.519350
 21
123.626130
 31
0.0
  0
LINE
  5
192
100
AcDbEntity
  8
Layer_1
 62
3
100
AcDbLine
 10
-102.519350
 20
123.626130
 30
0.0
 11
-102.618650
 21
123.570530
 31
0.0
  0
LINE
  5
193
100
AcDbEntity
  8
Layer_1
 62
3
100
AcDbLine
 10
-102.618650
 20
123.570530
 30
0.0
 11
-105.622320
 21
121.675350
 31
0.0
  0
LINE
  5
194
100
AcDbEntity
  8
Layer_1
 62
3
100
AcDbLine
 10
-105.622320
 20
121.675350
 30
0.0
 11
-102.618650
 21
119.760310
 31
0.0
  0
LINE
  5
195
100
AcDbEntity
  8
Layer_1
 62
3
100
AcDbLine
 10
-102.618650
 20
119.760310
 30
0.0
 11
-102.519350
 21
119.704710
 31
0.0
  0
LINE
  5
196
100
AcDbEntity
  8
Layer_1
 62
3
100
AcDbLine
 10
-102.519350
 20
119.704710
 30
0.0
 11
-102.519350
 21
118.413450
 31
0.0
  0
LINE
  5
197
100
AcDbEntity
  8
Layer_1
 62
3
100
AcDbLine
 10
-102.519350
 20
118.413450
 30
0.0
 11
-102.721980
 21
118.413450
 31
0.0
  0
LINE
  5
198
100
AcDbEntity
  8
Layer_1
 62
3
100
AcDbLine
 10
-102.721980
 20
118.413450
 30
0.0
 11
-108.550530
 21
118.413450
 31
0.0
  0
LINE
  5
199
100
AcDbEntity
  8
Layer_1
 62
3
100
AcDbLine
 10
-108.550530
 20
118.413450
 30
0.0
 11
-109.043200
 21
118.413450
 31
0.0
  0
LINE
  5
19a
100
AcDbEntity
  8
Layer_1
 62
3
100
AcDbLine
 10
-109.043200
 20
118.413450
 30
0.0
 11
-109.043200
 21
119.851720
 31
0.0
  0
LINE
  5
19b
100
AcDbEntity
  8
Layer_1
 62
3
100
AcDbLine
 10
-109.043200
 20
119.851720
 30
0.0
 11
-108.824680
 21
119.851720
 31
0.0
  0
LINE
  5
19c
100
AcDbEntity
  8
Layer_1
 62
3
100
AcDbLine
 10
-108.824680
 20
119.851720
 30
0.0
 11
-105.940200
 21
119.851720
 31
0.0
  0
LINE
  5
19d
100
AcDbEntity
  8
Layer_1
 62
3
100
AcDbLine
 10
-105.940200
 20
119.851720
 30
0.0
 11
-108.931950
 21
121.679360
 31
0.0
  0
LINE
  5
19e
100
AcDbEntity
  8
Layer_1
 62
3
100
AcDbLine
 10
-108.931950
 20
121.679360
 30
0.0
 11
-105.948150
 21
123.487130
 31
0.0
  0
LINE
  5
19f
100
AcDbEntity
  8
Layer_1
 62
3
100
AcDbLine
 10
-105.948150
 20
123.487130
 30
0.0
 11
-109.027310
 21
123.487130
 31
0.0
  0
LINE
  5
1a0
100
AcDbEntity
  8
Layer_1
 62
3
100
AcDbLine
 10
-109.027310
 20
123.487130
 30
0.0
 11
-109.027310
 21
124.945200
 31
0.0
  0
LINE
  5
1a1
100
AcDbEntity
  8
Layer_1
 62
3
100
AcDbLine
 10
-116.333860
 20
124.901510
 30
0.0
 11
-114.776400
 21
124.901510
 31
0.0
  0
LINE
  5
1a2
100
AcDbEntity
  8
Layer_1
 62
3
100
AcDbLine
 10
-114.776400
 20
124.901510
 30
0.0
 11
-114.776400
 21
122.521620
 31
0.0
  0
LINE
  5
1a3
100
AcDbEntity
  8
Layer_1
 62
3
100
AcDbLine
 10
-114.776400
 20
122.521620
 30
0.0
 11
-112.591190
 21
124.833970
 31
0.0
  0
LINE
  5
1a4
100
AcDbEntity
  8
Layer_1
 62
3
100
AcDbLine
 10
-112.591190
 20
124.833970
 30
0.0
 11
-112.531590
 21
124.901470
 31
0.0
  0
LINE
  5
1a5
100
AcDbEntity
  8
Layer_1
 62
3
100
AcDbLine
 10
-112.531590
 20
124.901470
 30
0.0
 11
-112.444190
 21
124.901470
 31
0.0
  0
LINE
  5
1a6
100
AcDbEntity
  8
Layer_1
 62
3
100
AcDbLine
 10
-112.444190
 20
124.901470
 30
0.0
 11
-112.030990
 21
124.901470
 31
0.0
  0
LINE
  5
1a7
100
AcDbEntity
  8
Layer_1
 62
3
100
AcDbLine
 10
-112.030990
 20
124.901470
 30
0.0
 11
-110.894680
 21
124.901470
 31
0.0
  0
LINE
  5
1a8
100
AcDbEntity
  8
Layer_1
 62
3
100
AcDbLine
 10
-110.894680
 20
124.901470
 30
0.0
 11
-110.437770
 21
124.901470
 31
0.0
  0
LINE
  5
1a9
100
AcDbEntity
  8
Layer_1
 62
3
100
AcDbLine
 10
-110.437770
 20
124.901470
 30
0.0
 11
-110.747680
 21
124.559800
 31
0.0
  0
SPLINE
  5
1aa
100
AcDbEntity
  8
Layer_1
 62
3
100
AcDbSpline
 70
8
 71
3
 72
8
 73
4
 74
0
 40
0
 40
0
 40
0
 40
0
 40
1
 40
1
 40
1
 40
1
 10
-110.747680
 20
124.559800
 30
0.0
 10
-111.347200
 20
123.696210
 30
0.0
 10
-111.974220
 20
123.220450
 30
0.0
 10
-112.559410
 20
122.577200
 30
0.0
  0
LINE
  5
1ab
100
AcDbEntity
  8
Layer_1
 62
3
100
AcDbLine
 10
-112.559410
 20
122.577200
 30
0.0
 11
-109.972920
 21
119.891380
 31
0.0
  0
LINE
  5
1ac
100
AcDbEntity
  8
Layer_1
 62
3
100
AcDbLine
 10
-109.972920
 20
119.891380
 30
0.0
 11
-109.972920
 21
118.413380
 31
0.0
  0
LINE
  5
1ad
100
AcDbEntity
  8
Layer_1
 62
3
100
AcDbLine
 10
-109.972920
 20
118.413380
 30
0.0
 11
-110.727810
 21
118.413380
 31
0.0
  0
LINE
  5
1ae
100
AcDbEntity
  8
Layer_1
 62
3
100
AcDbLine
 10
-110.727810
 20
118.413380
 30
0.0
 11
-113.703670
 21
121.385270
 31
0.0
  0
LINE
  5
1af
100
AcDbEntity
  8
Layer_1
 62
3
100
AcDbLine
 10
-113.703670
 20
121.385270
 30
0.0
 11
-114.776410
 21
120.248960
 31
0.0
  0
LINE
  5
1b0
100
AcDbEntity
  8
Layer_1
 62
3
100
AcDbLine
 10
-114.776410
 20
120.248960
 30
0.0
 11
-114.776410
 21
118.627940
 31
0.0
  0
LINE
  5
1b1
100
AcDbEntity
  8
Layer_1
 62
3
100
AcDbLine
 10
-114.776410
 20
118.627940
 30
0.0
 11
-114.776410
 21
118.425300
 31
0.0
  0
LINE
  5
1b2
100
AcDbEntity
  8
Layer_1
 62
3
100
AcDbLine
 10
-114.776410
 20
118.425300
 30
0.0
 11
-114.979040
 21
118.425300
 31
0.0
  0
LINE
  5
1b3
100
AcDbEntity
  8
Layer_1
 62
3
100
AcDbLine
 10
-114.979040
 20
118.425300
 30
0.0
 11
-116.131240
 21
118.425300
 31
0.0
  0
LINE
  5
1b4
100
AcDbEntity
  8
Layer_1
 62
3
100
AcDbLine
 10
-116.131240
 20
118.425300
 30
0.0
 11
-116.333870
 21
118.425300
 31
0.0
  0
LINE
  5
1b5
100
AcDbEntity
  8
Layer_1
 62
3
100
AcDbLine
 10
-116.333870
 20
118.425300
 30
0.0
 11
-116.333870
 21
118.627940
 31
0.0
  0
LINE
  5
1b6
100
AcDbEntity
  8
Layer_1
 62
3
100
AcDbLine
 10
-116.333870
 20
118.627940
 30
0.0
 11
-116.333860
 21
124.901510
 31
0.0
  0
LINE
  5
1b7
100
AcDbEntity
  8
Layer_1
 62
3
100
AcDbLine
 10
-118.006540
 20
121.317720
 30
0.0
 11
-117.712530
 21
121.309720
 31
0.0
  0
SPLINE
  5
1b8
100
AcDbEntity
  8
Layer_1
 62
3
100
AcDbSpline
 70
8
 71
3
 72
8
 73
4
 74
0
 40
0
 40
0
 40
0
 40
0
 40
1
 40
1
 40
1
 40
1
 10
-117.712530
 20
121.309720
 30
0.0
 10
-117.622330
 20
118.440660
 30
0.0
 10
-116.057670
 20
115.942470
 30
0.0
 10
-113.755310
 20
114.543520
 30
0.0
  0
SPLINE
  5
1b9
100
AcDbEntity
  8
Layer_1
 62
3
100
AcDbSpline
 70
8
 71
3
 72
8
 73
4
 74
0
 40
0
 40
0
 40
0
 40
0
 40
1
 40
1
 40
1
 40
1
 10
-113.755310
 20
114.543520
 30
0.0
 10
-113.652400
 20
114.481620
 30
0.0
 10
-113.551200
 20
114.418240
 30
0.0
 10
-113.445410
 20
114.360760
 30
0.0
  0
SPLINE
  5
1ba
100
AcDbEntity
  8
Layer_1
 62
3
100
AcDbSpline
 70
8
 71
3
 72
8
 73
4
 74
0
 40
0
 40
0
 40
0
 40
0
 40
1
 40
1
 40
1
 40
1
 10
-113.445410
 20
114.360760
 30
0.0
 10
-113.435010
 20
114.354760
 30
0.0
 10
-113.424110
 20
114.350560
 30
0.0
 10
-113.413610
 20
114.344860
 30
0.0
  0
SPLINE
  5
1bb
100
AcDbEntity
  8
Layer_1
 62
3
100
AcDbSpline
 70
8
 71
3
 72
8
 73
4
 74
0
 40
0
 40
0
 40
0
 40
0
 40
1
 40
1
 40
1
 40
1
 10
-113.413610
 20
114.344860
 30
0.0
 10
-113.304530
 20
114.286160
 30
0.0
 10
-113.195810
 20
114.227810
 30
0.0
 10
-113.083840
 20
114.174010
 30
0.0
  0
SPLINE
  5
1bc
100
AcDbEntity
  8
Layer_1
 62
3
100
AcDbSpline
 70
8
 71
3
 72
8
 73
4
 74
0
 40
0
 40
0
 40
0
 40
0
 40
1
 40
1
 40
1
 40
1
 10
-113.083840
 20
114.174010
 30
0.0
 10
-113.075840
 20
114.170010
 30
0.0
 10
-113.067640
 20
114.166010
 30
0.0
 10
-113.060040
 20
114.162110
 30
0.0
  0
SPLINE
  5
1bd
100
AcDbEntity
  8
Layer_1
 62
3
100
AcDbSpline
 70
8
 71
3
 72
8
 73
4
 74
0
 40
0
 40
0
 40
0
 40
0
 40
1
 40
1
 40
1
 40
1
 10
-113.060040
 20
114.162110
 30
0.0
 10
-112.950850
 20
114.110010
 30
0.0
 10
-112.842060
 20
114.062410
 30
0.0
 10
-112.730270
 20
114.015100
 30
0.0
  0
SPLINE
  5
1be
100
AcDbEntity
  8
Layer_1
 62
3
100
AcDbSpline
 70
8
 71
3
 72
8
 73
4
 74
0
 40
0
 40
0
 40
0
 40
0
 40
1
 40
1
 40
1
 40
1
 10
-112.730270
 20
114.015100
 30
0.0
 10
-111.749120
 20
113.600020
 30
0.0
 10
-110.668040
 20
113.371450
 30
0.0
 10
-109.535890
 20
113.371450
 30
0.0
  0
SPLINE
  5
1bf
100
AcDbEntity
  8
Layer_1
 62
3
100
AcDbSpline
 70
8
 71
3
 72
8
 73
4
 74
0
 40
0
 40
0
 40
0
 40
0
 40
1
 40
1
 40
1
 40
1
 10
-109.535890
 20
113.371450
 30
0.0
 10
-105.138150
 20
113.371450
 30
0.0
 10
-101.554840
 20
116.835200
 30
0.0
 10
-101.351290
 20
121.182590
 30
0.0
  0
LINE
  5
1c0
100
AcDbEntity
  8
Layer_1
 62
3
100
AcDbLine
 10
-101.351290
 20
121.182590
 30
0.0
 11
-101.053300
 21
121.174590
 31
0.0
  0
SPLINE
  5
1c1
100
AcDbEntity
  8
Layer_1
 62
3
100
AcDbSpline
 70
8
 71
3
 72
8
 73
4
 74
0
 40
0
 40
0
 40
0
 40
0
 40
1
 40
1
 40
1
 40
1
 10
-101.053300
 20
121.174590
 30
0.0
 10
-101.262720
 20
116.672870
 30
0.0
 10
-104.974560
 20
113.085340
 30
0.0
 10
-109.527940
 20
113.085340
 30
0.0
  0
SPLINE
  5
1c2
100
AcDbEntity
  8
Layer_1
 62
3
100
AcDbSpline
 70
8
 71
3
 72
8
 73
4
 74
0
 40
0
 40
0
 40
0
 40
0
 40
1
 40
1
 40
1
 40
1
 10
-109.527940
 20
113.085340
 30
0.0
 10
-114.129280
 20
113.085340
 30
0.0
 10
-117.869820
 20
116.749360
 30
0.0
 10
-118.006560
 20
121.317610
 30
0.0
  0
LINE
  5
1c3
100
AcDbEntity
  8
Layer_1
 62
3
100
AcDbLine
 10
-118.006560
 20
121.317610
 30
0.0
 11
-118.006540
 21
121.317720
 31
0.0
  0
LINE
  5
1c4
100
AcDbEntity
  8
Layer_1
 62
3
100
AcDbLine
 10
-167.209540
 20
113.458900
 30
0.0
 11
-162.604700
 21
112.664290
 31
0.0
  0
LINE
  5
1c5
100
AcDbEntity
  8
Layer_1
 62
3
100
AcDbLine
 10
-162.604700
 20
112.664290
 30
0.0
 11
-162.298770
 21
104.114150
 31
0.0
  0
LINE
  5
1c6
100
AcDbEntity
  8
Layer_1
 62
3
100
AcDbLine
 10
-162.298770
 20
104.114150
 30
0.0
 11
-159.144120
 21
111.524010
 31
0.0
  0
LINE
  5
1c7
100
AcDbEntity
  8
Layer_1
 62
3
100
AcDbLine
 10
-159.144120
 20
111.524010
 30
0.0
 11
-154.189660
 21
110.820760
 31
0.0
  0
LINE
  5
1c8
100
AcDbEntity
  8
Layer_1
 62
3
100
AcDbLine
 10
-154.189660
 20
110.820760
 30
0.0
 11
-157.503230
 21
102.965930
 31
0.0
  0
LINE
  5
1c9
100
AcDbEntity
  8
Layer_1
 62
3
100
AcDbLine
 10
-157.503230
 20
102.965930
 30
0.0
 11
-153.673150
 21
93.533760
 31
0.0
  0
LINE
  5
1ca
100
AcDbEntity
  8
Layer_1
 62
3
100
AcDbLine
 10
-153.673150
 20
93.533760
 30
0.0
 11
-159.024930
 21
93.533760
 31
0.0
  0
LINE
  5
1cb
100
AcDbEntity
  8
Layer_1
 62
3
100
AcDbLine
 10
-159.024930
 20
93.533760
 30
0.0
 11
-162.259040
 21
101.507790
 31
0.0
  0
LINE
  5
1cc
100
AcDbEntity
  8
Layer_1
 62
3
100
AcDbLine
 10
-162.259040
 20
101.507790
 30
0.0
 11
-162.267040
 21
101.507790
 31
0.0
  0
LINE
  5
1cd
100
AcDbEntity
  8
Layer_1
 62
3
100
AcDbLine
 10
-162.267040
 20
101.507790
 30
0.0
 11
-162.278940
 21
101.464090
 31
0.0
  0
LINE
  5
1ce
100
AcDbEntity
  8
Layer_1
 62
3
100
AcDbLine
 10
-162.278940
 20
101.464090
 30
0.0
 11
-162.338540
 21
101.619040
 31
0.0
  0
LINE
  5
1cf
100
AcDbEntity
  8
Layer_1
 62
3
100
AcDbLine
 10
-162.338540
 20
101.619040
 30
0.0
 11
-162.354440
 21
93.478130
 31
0.0
  0
LINE
  5
1d0
100
AcDbEntity
  8
Layer_1
 62
3
100
AcDbLine
 10
-162.354440
 20
93.478130
 30
0.0
 11
-164.587330
 21
93.470130
 31
0.0
  0
LINE
  5
1d1
100
AcDbEntity
  8
Layer_1
 62
3
100
AcDbLine
 10
-164.587330
 20
93.470130
 30
0.0
 11
-167.249310
 21
93.493930
 31
0.0
  0
LINE
  5
1d2
100
AcDbEntity
  8
Layer_1
 62
3
100
AcDbLine
 10
-167.249310
 20
93.493930
 30
0.0
 11
-167.209610
 21
113.458810
 31
0.0
  0
LINE
  5
1d3
100
AcDbEntity
  8
Layer_1
 62
3
100
AcDbLine
 10
-167.209610
 20
113.458810
 30
0.0
 11
-167.209540
 21
113.458900
 31
0.0
  0
SPLINE
  5
1d4
100
AcDbEntity
  8
Layer_1
 62
3
100
AcDbSpline
 70
8
 71
3
 72
8
 73
4
 74
0
 40
0
 40
0
 40
0
 40
0
 40
1
 40
1
 40
1
 40
1
 10
-53.081935
 20
113.232440
 30
0.0
 10
-51.455827
 20
113.242540
 30
0.0
 10
-50.431871
 20
112.835120
 30
0.0
 10
-50.431871
 20
112.835120
 30
0.0
  0
SPLINE
  5
1d5
100
AcDbEntity
  8
Layer_1
 62
3
100
AcDbSpline
 70
8
 71
3
 72
8
 73
4
 74
0
 40
0
 40
0
 40
0
 40
0
 40
1
 40
1
 40
1
 40
1
 10
-50.431871
 20
112.835120
 30
0.0
 10
-50.431871
 20
112.835120
 30
0.0
 10
-50.855311
 20
108.514370
 30
0.0
 10
-50.900697
 20
108.460730
 30
0.0
  0
SPLINE
  5
1d6
100
AcDbEntity
  8
Layer_1
 62
3
100
AcDbSpline
 70
8
 71
3
 72
8
 73
4
 74
0
 40
0
 40
0
 40
0
 40
0
 40
1
 40
1
 40
1
 40
1
 10
-50.900697
 20
108.460730
 30
0.0
 10
-52.831819
 20
108.817370
 30
0.0
 10
-56.218253
 20
109.519540
 30
0.0
 10
-56.522648
 20
107.201250
 30
0.0
  0
SPLINE
  5
1d7
100
AcDbEntity
  8
Layer_1
 62
3
100
AcDbSpline
 70
8
 71
3
 72
8
 73
4
 74
0
 40
0
 40
0
 40
0
 40
0
 40
1
 40
1
 40
1
 40
1
 10
-56.522648
 20
107.201250
 30
0.0
 10
-56.910771
 20
104.245320
 30
0.0
 10
-53.066518
 20
104.847210
 30
0.0
 10
-51.234440
 20
103.244050
 30
0.0
  0
SPLINE
  5
1d8
100
AcDbEntity
  8
Layer_1
 62
3
100
AcDbSpline
 70
8
 71
3
 72
8
 73
4
 74
0
 40
0
 40
0
 40
0
 40
0
 40
1
 40
1
 40
1
 40
1
 10
-51.234440
 20
103.244050
 30
0.0
 10
-50.010091
 20
102.172670
 30
0.0
 10
-49.590398
 20
100.402490
 30
0.0
 10
-49.768360
 20
99.008700
 30
0.0
  0
SPLINE
  5
1d9
100
AcDbEntity
  8
Layer_1
 62
3
100
AcDbSpline
 70
8
 71
3
 72
8
 73
4
 74
0
 40
0
 40
0
 40
0
 40
0
 40
1
 40
1
 40
1
 40
1
 10
-49.768360
 20
99.008700
 30
0.0
 10
-50.130159
 20
96.175150
 30
0.0
 10
-50.635950
 20
94.503200
 30
0.0
 10
-53.733527
 20
93.589380
 30
0.0
  0
SPLINE
  5
1da
100
AcDbEntity
  8
Layer_1
 62
3
100
AcDbSpline
 70
8
 71
3
 72
8
 73
4
 74
0
 40
0
 40
0
 40
0
 40
0
 40
1
 40
1
 40
1
 40
1
 10
-53.733527
 20
93.589380
 30
0.0
 10
-56.492496
 20
93.118620
 30
0.0
 10
-61.183109
 20
94.268790
 30
0.0
 10
-61.183109
 20
94.268790
 30
0.0
  0
LINE
  5
1db
100
AcDbEntity
  8
Layer_1
 62
3
100
AcDbLine
 10
-61.183109
 20
94.268790
 30
0.0
 11
-60.674551
 21
98.134620
 31
0.0
  0
SPLINE
  5
1dc
100
AcDbEntity
  8
Layer_1
 62
3
100
AcDbSpline
 70
8
 71
3
 72
8
 73
4
 74
0
 40
0
 40
0
 40
0
 40
0
 40
1
 40
1
 40
1
 40
1
 10
-60.674551
 20
98.134620
 30
0.0
 10
-60.674551
 20
98.134620
 30
0.0
 10
-58.216815
 20
97.532390
 30
0.0
 10
-57.126562
 20
97.351910
 30
0.0
  0
SPLINE
  5
1dd
100
AcDbEntity
  8
Layer_1
 62
3
100
AcDbSpline
 70
8
 71
3
 72
8
 73
4
 74
0
 40
0
 40
0
 40
0
 40
0
 40
1
 40
1
 40
1
 40
1
 10
-57.126562
 20
97.351910
 30
0.0
 10
-55.267843
 20
97.064240
 30
0.0
 10
-54.311888
 20
97.530650
 30
0.0
 10
-54.222218
 20
98.770310
 30
0.0
  0
SPLINE
  5
1de
100
AcDbEntity
  8
Layer_1
 62
3
100
AcDbSpline
 70
8
 71
3
 72
8
 73
4
 74
0
 40
0
 40
0
 40
0
 40
0
 40
1
 40
1
 40
1
 40
1
 10
-54.222218
 20
98.770310
 30
0.0
 10
-54.156608
 20
99.677310
 30
0.0
 10
-54.496575
 20
99.992950
 30
0.0
 10
-56.137259
 20
100.562190
 30
0.0
  0
SPLINE
  5
1df
100
AcDbEntity
  8
Layer_1
 62
3
100
AcDbSpline
 70
8
 71
3
 72
8
 73
4
 74
0
 40
0
 40
0
 40
0
 40
0
 40
1
 40
1
 40
1
 40
1
 10
-56.137259
 20
100.562190
 30
0.0
 10
-59.681969
 20
101.792060
 30
0.0
 10
-60.845406
 20
103.181190
 30
0.0
 10
-60.833475
 20
106.172230
 30
0.0
  0
SPLINE
  5
1e0
100
AcDbEntity
  8
Layer_1
 62
3
100
AcDbSpline
 70
8
 71
3
 72
8
 73
4
 74
0
 40
0
 40
0
 40
0
 40
0
 40
1
 40
1
 40
1
 40
1
 10
-60.833475
 20
106.172230
 30
0.0
 10
-60.819745
 20
109.612010
 30
0.0
 10
-59.291391
 20
111.903700
 30
0.0
 10
-55.632672
 20
112.882810
 30
0.0
  0
SPLINE
  5
1e1
100
AcDbEntity
  8
Layer_1
 62
3
100
AcDbSpline
 70
8
 71
3
 72
8
 73
4
 74
0
 40
0
 40
0
 40
0
 40
0
 40
1
 40
1
 40
1
 40
1
 10
-55.632672
 20
112.882810
 30
0.0
 10
-54.683993
 20
113.136680
 30
0.0
 10
-53.821075
 20
113.227860
 30
0.0
 10
-53.081935
 20
113.232440
 30
0.0
  0
LINE
  5
1e2
100
AcDbEntity
  8
Layer_1
 62
3
100
AcDbLine
 10
-53.081935
 20
113.232440
 30
0.0
 11
-53.081935
 21
113.232440
 31
0.0
  0
SPLINE
  5
1e3
100
AcDbEntity
  8
Layer_1
 62
3
100
AcDbSpline
 70
8
 71
3
 72
8
 73
4
 74
0
 40
0
 40
0
 40
0
 40
0
 40
1
 40
1
 40
1
 40
1
 10
-69.606101
 20
110.737330
 30
0.0
 10
-68.842418
 20
110.739330
 30
0.0
 10
-68.002559
 20
110.691930
 30
0.0
 10
-67.067284
 20
110.578400
 30
0.0
  0
SPLINE
  5
1e4
100
AcDbEntity
  8
Layer_1
 62
3
100
AcDbSpline
 70
8
 71
3
 72
8
 73
4
 74
0
 40
0
 40
0
 40
0
 40
0
 40
1
 40
1
 40
1
 40
1
 10
-67.067284
 20
110.578400
 30
0.0
 10
-63.471199
 20
110.141800
 30
0.0
 10
-62.591010
 20
107.451250
 30
0.0
 10
-62.502181
 20
105.234560
 30
0.0
  0
LINE
  5
1e5
100
AcDbEntity
  8
Layer_1
 62
3
100
AcDbLine
 10
-62.502181
 20
105.234560
 30
0.0
 11
-66.431588
 21
105.234560
 31
0.0
  0
SPLINE
  5
1e6
100
AcDbEntity
  8
Layer_1
 62
3
100
AcDbSpline
 70
8
 71
3
 72
8
 73
4
 74
0
 40
0
 40
0
 40
0
 40
0
 40
1
 40
1
 40
1
 40
1
 10
-66.431588
 20
105.234560
 30
0.0
 10
-66.697584
 20
106.132260
 30
0.0
 10
-67.522875
 20
106.851920
 30
0.0
 10
-68.954512
 20
106.867510
 30
0.0
  0
SPLINE
  5
1e7
100
AcDbEntity
  8
Layer_1
 62
3
100
AcDbSpline
 70
8
 71
3
 72
8
 73
4
 74
0
 40
0
 40
0
 40
0
 40
0
 40
1
 40
1
 40
1
 40
1
 10
-68.954512
 20
106.867510
 30
0.0
 10
-69.380366
 20
106.872510
 30
0.0
 10
-69.858249
 20
106.814410
 30
0.0
 10
-70.392781
 20
106.680780
 30
0.0
  0
LINE
  5
1e8
100
AcDbEntity
  8
Layer_1
 62
3
100
AcDbLine
 10
-70.392781
 20
106.680780
 30
0.0
 11
-70.392781
 21
106.660880
 31
0.0
  0
SPLINE
  5
1e9
100
AcDbEntity
  8
Layer_1
 62
3
100
AcDbSpline
 70
8
 71
3
 72
8
 73
4
 74
0
 40
0
 40
0
 40
0
 40
0
 40
1
 40
1
 40
1
 40
1
 10
-70.392781
 20
106.660880
 30
0.0
 10
-70.400781
 20
106.660080
 30
0.0
 10
-70.408651
 20
106.657880
 30
0.0
 10
-70.416621
 20
106.656880
 30
0.0
  0
SPLINE
  5
1ea
100
AcDbEntity
  8
Layer_1
 62
3
100
AcDbSpline
 70
8
 71
3
 72
8
 73
4
 74
0
 40
0
 40
0
 40
0
 40
0
 40
1
 40
1
 40
1
 40
1
 10
-70.416621
 20
106.656880
 30
0.0
 10
-70.431621
 20
106.186820
 30
0.0
 10
-70.443031
 20
105.711020
 30
0.0
 10
-70.456351
 20
105.234500
 30
0.0
  0
LINE
  5
1eb
100
AcDbEntity
  8
Layer_1
 62
3
100
AcDbLine
 10
-70.456351
 20
105.234500
 30
0.0
 11
-74.938017
 21
105.234500
 31
0.0
  0
LINE
  5
1ec
100
AcDbEntity
  8
Layer_1
 62
3
100
AcDbLine
 10
-74.938017
 20
105.234500
 30
0.0
 11
-74.898287
 21
109.851260
 31
0.0
  0
SPLINE
  5
1ed
100
AcDbEntity
  8
Layer_1
 62
3
100
AcDbSpline
 70
8
 71
3
 72
8
 73
4
 74
0
 40
0
 40
0
 40
0
 40
0
 40
1
 40
1
 40
1
 40
1
 10
-74.898287
 20
109.851260
 30
0.0
 10
-73.498234
 20
110.279200
 30
0.0
 10
-71.897150
 20
110.730380
 30
0.0
 10
-69.606105
 20
110.737260
 30
0.0
  0
LINE
  5
1ee
100
AcDbEntity
  8
Layer_1
 62
3
100
AcDbLine
 10
-69.606105
 20
110.737260
 30
0.0
 11
-69.606101
 21
110.737330
 31
0.0
  0
LINE
  5
1ef
100
AcDbEntity
  8
Layer_1
 62
3
100
AcDbLine
 10
-147.924060
 20
110.419470
 30
0.0
 11
-142.242510
 21
109.807610
 31
0.0
  0
LINE
  5
1f0
100
AcDbEntity
  8
Layer_1
 62
3
100
AcDbLine
 10
-142.242510
 20
109.807610
 30
0.0
 11
-139.183220
 21
100.117200
 31
0.0
  0
LINE
  5
1f1
100
AcDbEntity
  8
Layer_1
 62
3
100
AcDbLine
 10
-139.183220
 20
100.117200
 30
0.0
 11
-143.792030
 21
100.208600
 31
0.0
  0
SPLINE
  5
1f2
100
AcDbEntity
  8
Layer_1
 62
3
100
AcDbSpline
 70
8
 71
3
 72
8
 73
4
 74
0
 40
0
 40
0
 40
0
 40
0
 40
1
 40
1
 40
1
 40
1
 10
-143.792030
 20
100.208600
 30
0.0
 10
-144.155400
 20
101.866770
 30
0.0
 10
-144.596350
 20
103.523500
 30
0.0
 10
-144.995880
 20
105.171000
 30
0.0
  0
LINE
  5
1f3
100
AcDbEntity
  8
Layer_1
 62
3
100
AcDbLine
 10
-144.995880
 20
105.171000
 30
0.0
 11
-145.003880
 21
105.210700
 31
0.0
  0
LINE
  5
1f4
100
AcDbEntity
  8
Layer_1
 62
3
100
AcDbLine
 10
-145.003880
 20
105.210700
 30
0.0
 11
-145.011880
 21
105.178900
 31
0.0
  0
LINE
  5
1f5
100
AcDbEntity
  8
Layer_1
 62
3
100
AcDbLine
 10
-145.011880
 20
105.178900
 30
0.0
 11
-145.766770
 21
102.636120
 31
0.0
  0
SPLINE
  5
1f6
100
AcDbEntity
  8
Layer_1
 62
3
100
AcDbSpline
 70
8
 71
3
 72
8
 73
4
 74
0
 40
0
 40
0
 40
0
 40
0
 40
1
 40
1
 40
1
 40
1
 10
-145.766770
 20
102.636120
 30
0.0
 10
-145.955170
 20
101.841240
 30
0.0
 10
-146.176720
 20
101.055070
 30
0.0
 10
-146.382600
 20
100.264170
 30
0.0
  0
LINE
  5
1f7
100
AcDbEntity
  8
Layer_1
 62
3
100
AcDbLine
 10
-146.382600
 20
100.264170
 30
0.0
 11
-150.776860
 21
100.351570
 31
0.0
  0
LINE
  5
1f8
100
AcDbEntity
  8
Layer_1
 62
3
100
AcDbLine
 10
-150.776860
 20
100.351570
 30
0.0
 11
-147.999660
 21
110.407500
 31
0.0
  0
LINE
  5
1f9
100
AcDbEntity
  8
Layer_1
 62
3
100
AcDbLine
 10
-147.999660
 20
110.407500
 30
0.0
 11
-147.924160
 21
110.419400
 31
0.0
  0
LINE
  5
1fa
100
AcDbEntity
  8
Layer_1
 62
3
100
AcDbLine
 10
-147.924160
 20
110.419400
 30
0.0
 11
-147.924060
 21
110.419470
 31
0.0
  0
SPLINE
  5
1fb
100
AcDbEntity
  8
Layer_1
 62
3
100
AcDbSpline
 70
8
 71
3
 72
8
 73
4
 74
0
 40
0
 40
0
 40
0
 40
0
 40
1
 40
1
 40
1
 40
1
 10
-82.494873
 20
109.326870
 30
0.0
 10
-80.731192
 20
109.296470
 30
0.0
 10
-78.937116
 20
108.871240
 30
0.0
 10
-77.894010
 20
107.860790
 30
0.0
  0
SPLINE
  5
1fc
100
AcDbEntity
  8
Layer_1
 62
3
100
AcDbSpline
 70
8
 71
3
 72
8
 73
4
 74
0
 40
0
 40
0
 40
0
 40
0
 40
1
 40
1
 40
1
 40
1
 10
-77.894010
 20
107.860790
 30
0.0
 10
-76.918570
 20
106.888070
 30
0.0
 10
-76.369510
 20
105.468240
 30
0.0
 10
-76.173654
 20
103.402960
 30
0.0
  0
SPLINE
  5
1fd
100
AcDbEntity
  8
Layer_1
 62
3
100
AcDbSpline
 70
8
 71
3
 72
8
 73
4
 74
0
 40
0
 40
0
 40
0
 40
0
 40
1
 40
1
 40
1
 40
1
 10
-76.173654
 20
103.402960
 30
0.0
 10
-76.123244
 20
102.871410
 30
0.0
 10
-76.094184
 20
102.348440
 30
0.0
 10
-76.086244
 20
101.837550
 30
0.0
  0
LINE
  5
1fe
100
AcDbEntity
  8
Layer_1
 62
3
100
AcDbLine
 10
-76.086244
 20
101.837550
 30
0.0
 11
-80.790409
 21
101.837550
 31
0.0
  0
SPLINE
  5
1ff
100
AcDbEntity
  8
Layer_1
 62
3
100
AcDbSpline
 70
8
 71
3
 72
8
 73
4
 74
0
 40
0
 40
0
 40
0
 40
0
 40
1
 40
1
 40
1
 40
1
 10
-80.790409
 20
101.837550
 30
0.0
 10
-80.807479
 20
102.992390
 30
0.0
 10
-80.932895
 20
104.061360
 30
0.0
 10
-81.167853
 20
104.519410
 30
0.0
  0
SPLINE
  5
200
100
AcDbEntity
  8
Layer_1
 62
3
100
AcDbSpline
 70
8
 71
3
 72
8
 73
4
 74
0
 40
0
 40
0
 40
0
 40
0
 40
1
 40
1
 40
1
 40
1
 10
-81.167853
 20
104.519410
 30
0.0
 10
-81.525892
 20
105.217410
 30
0.0
 10
-82.143012
 20
105.560360
 30
0.0
 10
-83.039190
 20
105.560360
 30
0.0
  0
SPLINE
  5
201
100
AcDbEntity
  8
Layer_1
 62
3
100
AcDbSpline
 70
8
 71
3
 72
8
 73
4
 74
0
 40
0
 40
0
 40
0
 40
0
 40
1
 40
1
 40
1
 40
1
 10
-83.039190
 20
105.560360
 30
0.0
 10
-84.139372
 20
105.560360
 30
0.0
 10
-84.793025
 20
105.177630
 30
0.0
 10
-85.240293
 20
104.269100
 30
0.0
  0
SPLINE
  5
202
100
AcDbEntity
  8
Layer_1
 62
3
100
AcDbSpline
 70
8
 71
3
 72
8
 73
4
 74
0
 40
0
 40
0
 40
0
 40
0
 40
1
 40
1
 40
1
 40
1
 10
-85.240293
 20
104.269100
 30
0.0
 10
-85.470168
 20
103.763220
 30
0.0
 10
-85.594721
 20
102.601200
 30
0.0
 10
-85.637602
 20
101.603140
 30
0.0
  0
LINE
  5
203
100
AcDbEntity
  8
Layer_1
 62
3
100
AcDbLine
 10
-85.637602
 20
101.603140
 30
0.0
 11
-90.377525
 21
101.603140
 31
0.0
  0
SPLINE
  5
204
100
AcDbEntity
  8
Layer_1
 62
3
100
AcDbSpline
 70
8
 71
3
 72
8
 73
4
 74
0
 40
0
 40
0
 40
0
 40
0
 40
1
 40
1
 40
1
 40
1
 10
-90.377525
 20
101.603140
 30
0.0
 10
-90.362495
 20
101.882520
 30
0.0
 10
-90.340765
 20
102.385490
 30
0.0
 10
-90.309985
 20
102.636150
 30
0.0
  0
SPLINE
  5
205
100
AcDbEntity
  8
Layer_1
 62
3
100
AcDbSpline
 70
8
 71
3
 72
8
 73
4
 74
0
 40
0
 40
0
 40
0
 40
0
 40
1
 40
1
 40
1
 40
1
 10
-90.309985
 20
102.636150
 30
0.0
 10
-90.001063
 20
105.222270
 30
0.0
 10
-88.785578
 20
107.457790
 30
0.0
 10
-86.718290
 20
108.424980
 30
0.0
  0
SPLINE
  5
206
100
AcDbEntity
  8
Layer_1
 62
3
100
AcDbSpline
 70
8
 71
3
 72
8
 73
4
 74
0
 40
0
 40
0
 40
0
 40
0
 40
1
 40
1
 40
1
 40
1
 10
-86.718290
 20
108.424980
 30
0.0
 10
-85.433540
 20
109.020960
 30
0.0
 10
-84.153824
 20
109.296070
 30
0.0
 10
-82.494874
 20
109.326870
 30
0.0
  0
LINE
  5
207
100
AcDbEntity
  8
Layer_1
 62
3
100
AcDbLine
 10
-82.494874
 20
109.326870
 30
0.0
 11
-82.494873
 21
109.326870
 31
0.0
  0
LINE
  5
208
100
AcDbEntity
  8
Layer_1
 62
3
100
AcDbLine
 10
-135.476300
 20
109.191790
 30
0.0
 11
-130.462240
 21
108.810370
 31
0.0
  0
LINE
  5
209
100
AcDbEntity
  8
Layer_1
 62
3
100
AcDbLine
 10
-130.462240
 20
108.810370
 30
0.0
 11
-127.228130
 21
100.001980
 31
0.0
  0
LINE
  5
20a
100
AcDbEntity
  8
Layer_1
 62
3
100
AcDbLine
 10
-127.228130
 20
100.001980
 30
0.0
 11
-126.568590
 21
99.997980
 31
0.0
  0
LINE
  5
20b
100
AcDbEntity
  8
Layer_1
 62
3
100
AcDbLine
 10
-126.568590
 20
99.997980
 30
0.0
 11
-123.362290
 21
108.405090
 31
0.0
  0
LINE
  5
20c
100
AcDbEntity
  8
Layer_1
 62
3
100
AcDbLine
 10
-123.362290
 20
108.405090
 30
0.0
 11
-118.348220
 21
108.178620
 31
0.0
  0
SPLINE
  5
20d
100
AcDbEntity
  8
Layer_1
 62
3
100
AcDbSpline
 70
8
 71
3
 72
8
 73
4
 74
0
 40
0
 40
0
 40
0
 40
0
 40
1
 40
1
 40
1
 40
1
 10
-118.348220
 20
108.178620
 30
0.0
 10
-118.278920
 20
102.718660
 30
0.0
 10
-118.221090
 20
98.480340
 30
0.0
 10
-118.221090
 20
93.398650
 30
0.0
  0
LINE
  5
20e
100
AcDbEntity
  8
Layer_1
 62
3
100
AcDbLine
 10
-118.221090
 20
93.398650
 30
0.0
 11
-122.281600
 21
93.398650
 31
0.0
  0
LINE
  5
20f
100
AcDbEntity
  8
Layer_1
 62
3
100
AcDbLine
 10
-122.281600
 20
93.398650
 30
0.0
 11
-122.261700
 21
100.319810
 31
0.0
  0
LINE
  5
210
100
AcDbEntity
  8
Layer_1
 62
3
100
AcDbLine
 10
-122.261700
 20
100.319810
 30
0.0
 11
-122.603390
 21
100.439000
 31
0.0
  0
LINE
  5
211
100
AcDbEntity
  8
Layer_1
 62
3
100
AcDbLine
 10
-122.603390
 20
100.439000
 30
0.0
 11
-125.527600
 21
93.394670
 31
0.0
  0
SPLINE
  5
212
100
AcDbEntity
  8
Layer_1
 62
3
100
AcDbSpline
 70
8
 71
3
 72
8
 73
4
 74
0
 40
0
 40
0
 40
0
 40
0
 40
1
 40
1
 40
1
 40
1
 10
-125.527600
 20
93.394670
 30
0.0
 10
-126.470600
 20
93.408970
 30
0.0
 10
-127.413520
 20
93.427770
 30
0.0
 10
-128.356450
 20
93.446370
 30
0.0
  0
LINE
  5
213
100
AcDbEntity
  8
Layer_1
 62
3
100
AcDbLine
 10
-128.356450
 20
93.446370
 30
0.0
 11
-130.946920
 21
100.689350
 31
0.0
  0
LINE
  5
214
100
AcDbEntity
  8
Layer_1
 62
3
100
AcDbLine
 10
-130.946920
 20
100.689350
 30
0.0
 11
-131.610430
 21
100.462880
 31
0.0
  0
LINE
  5
215
100
AcDbEntity
  8
Layer_1
 62
3
100
AcDbLine
 10
-131.610430
 20
100.462880
 30
0.0
 11
-131.610430
 21
93.398690
 31
0.0
  0
LINE
  5
216
100
AcDbEntity
  8
Layer_1
 62
3
100
AcDbLine
 10
-131.610430
 20
93.398690
 30
0.0
 11
-135.476260
 21
93.398690
 31
0.0
  0
SPLINE
  5
217
100
AcDbEntity
  8
Layer_1
 62
3
100
AcDbSpline
 70
8
 71
3
 72
8
 73
4
 74
0
 40
0
 40
0
 40
0
 40
0
 40
1
 40
1
 40
1
 40
1
 10
-135.476260
 20
93.398690
 30
0.0
 10
-135.476270
 20
98.663060
 30
0.0
 10
-135.476270
 20
103.927430
 30
0.0
 10
-135.476260
 20
109.191800
 30
0.0
  0
LINE
  5
218
100
AcDbEntity
  8
Layer_1
 62
3
100
AcDbLine
 10
-135.476260
 20
109.191800
 30
0.0
 11
-135.476300
 21
109.191790
 31
0.0
  0
SPLINE
  5
219
100
AcDbEntity
  8
Layer_1
 62
3
100
AcDbSpline
 70
8
 71
3
 72
8
 73
4
 74
0
 40
0
 40
0
 40
0
 40
0
 40
1
 40
1
 40
1
 40
1
 10
-97.787377
 20
108.436900
 30
0.0
 10
-96.892977
 20
108.428900
 30
0.0
 10
-96.012168
 20
108.356100
 30
0.0
 10
-95.463107
 20
108.218380
 30
0.0
  0
SPLINE
  5
21a
100
AcDbEntity
  8
Layer_1
 62
3
100
AcDbSpline
 70
8
 71
3
 72
8
 73
4
 74
0
 40
0
 40
0
 40
0
 40
0
 40
1
 40
1
 40
1
 40
1
 10
-95.463107
 20
108.218380
 30
0.0
 10
-93.055695
 20
107.614550
 30
0.0
 10
-91.769678
 20
106.093020
 30
0.0
 10
-91.303260
 20
103.303630
 30
0.0
  0
SPLINE
  5
21b
100
AcDbEntity
  8
Layer_1
 62
3
100
AcDbSpline
 70
8
 71
3
 72
8
 73
4
 74
0
 40
0
 40
0
 40
0
 40
0
 40
1
 40
1
 40
1
 40
1
 10
-91.303260
 20
103.303630
 30
0.0
 10
-91.216160
 20
102.782770
 30
0.0
 10
-91.171026
 20
102.237230
 30
0.0
 10
-91.164202
 20
101.511770
 30
0.0
  0
LINE
  5
21c
100
AcDbEntity
  8
Layer_1
 62
3
100
AcDbLine
 10
-91.164202
 20
101.511770
 30
0.0
 11
-95.892203
 21
101.511770
 31
0.0
  0
SPLINE
  5
21d
100
AcDbEntity
  8
Layer_1
 62
3
100
AcDbSpline
 70
8
 71
3
 72
8
 73
4
 74
0
 40
0
 40
0
 40
0
 40
0
 40
1
 40
1
 40
1
 40
1
 10
-95.892203
 20
101.511770
 30
0.0
 10
-95.897203
 20
101.905840
 30
0.0
 10
-95.915853
 20
102.149790
 30
0.0
 10
-95.947823
 20
102.528880
 30
0.0
  0
SPLINE
  5
21e
100
AcDbEntity
  8
Layer_1
 62
3
100
AcDbSpline
 70
8
 71
3
 72
8
 73
4
 74
0
 40
0
 40
0
 40
0
 40
0
 40
1
 40
1
 40
1
 40
1
 10
-95.947823
 20
102.528880
 30
0.0
 10
-96.023043
 20
104.051420
 30
0.0
 10
-96.810460
 20
104.888910
 30
0.0
 10
-98.248259
 20
104.900820
 30
0.0
  0
SPLINE
  5
21f
100
AcDbEntity
  8
Layer_1
 62
3
100
AcDbSpline
 70
8
 71
3
 72
8
 73
4
 74
0
 40
0
 40
0
 40
0
 40
0
 40
1
 40
1
 40
1
 40
1
 10
-98.248259
 20
104.900820
 30
0.0
 10
-99.296800
 20
104.901820
 30
0.0
 10
-100.008740
 20
104.454140
 30
0.0
 10
-100.421550
 20
103.542020
 30
0.0
  0
SPLINE
  5
220
100
AcDbEntity
  8
Layer_1
 62
3
100
AcDbSpline
 70
8
 71
3
 72
8
 73
4
 74
0
 40
0
 40
0
 40
0
 40
0
 40
1
 40
1
 40
1
 40
1
 10
-100.421550
 20
103.542020
 30
0.0
 10
-100.543310
 20
103.058990
 30
0.0
 10
-100.626230
 20
102.242620
 30
0.0
 10
-100.659940
 20
101.368730
 30
0.0
  0
LINE
  5
221
100
AcDbEntity
  8
Layer_1
 62
3
100
AcDbLine
 10
-100.659940
 20
101.368730
 30
0.0
 11
-105.459450
 21
101.368730
 31
0.0
  0
SPLINE
  5
222
100
AcDbEntity
  8
Layer_1
 62
3
100
AcDbSpline
 70
8
 71
3
 72
8
 73
4
 74
0
 40
0
 40
0
 40
0
 40
0
 40
1
 40
1
 40
1
 40
1
 10
-105.459450
 20
101.368730
 30
0.0
 10
-105.458920
 20
101.383430
 30
0.0
 10
-105.459980
 20
101.397730
 30
0.0
 10
-105.459450
 20
101.412430
 30
0.0
  0
SPLINE
  5
223
100
AcDbEntity
  8
Layer_1
 62
3
100
AcDbSpline
 70
8
 71
3
 72
8
 73
4
 74
0
 40
0
 40
0
 40
0
 40
0
 40
1
 40
1
 40
1
 40
1
 10
-105.459450
 20
101.412430
 30
0.0
 10
-105.246130
 20
105.517260
 30
0.0
 10
-103.700500
 20
107.528360
 30
0.0
 10
-100.203030
 20
108.258100
 30
0.0
  0
SPLINE
  5
224
100
AcDbEntity
  8
Layer_1
 62
3
100
AcDbSpline
 70
8
 71
3
 72
8
 73
4
 74
0
 40
0
 40
0
 40
0
 40
0
 40
1
 40
1
 40
1
 40
1
 10
-100.203030
 20
108.258100
 30
0.0
 10
-99.591027
 20
108.385780
 30
0.0
 10
-98.681781
 20
108.444610
 30
0.0
 10
-97.787376
 20
108.436890
 30
0.0
  0
LINE
  5
225
100
AcDbEntity
  8
Layer_1
 62
3
100
AcDbLine
 10
-97.787376
 20
108.436890
 30
0.0
 11
-97.787377
 21
108.436900
 31
0.0
  0
SPLINE
  5
226
100
AcDbEntity
  8
Layer_1
 62
3
100
AcDbSpline
 70
8
 71
3
 72
8
 73
4
 74
0
 40
0
 40
0
 40
0
 40
0
 40
1
 40
1
 40
1
 40
1
 10
-116.524570
 20
108.226320
 30
0.0
 10
-116.524570
 20
108.226320
 30
0.0
 10
-113.572580
 20
108.107120
 30
0.0
 10
-111.907810
 20
108.107120
 30
0.0
  0
LINE
  5
227
100
AcDbEntity
  8
Layer_1
 62
3
100
AcDbLine
 10
-111.907810
 20
108.107120
 30
0.0
 11
-111.860110
 21
96.934740
 31
0.0
  0
SPLINE
  5
228
100
AcDbEntity
  8
Layer_1
 62
3
100
AcDbSpline
 70
8
 71
3
 72
8
 73
4
 74
0
 40
0
 40
0
 40
0
 40
0
 40
1
 40
1
 40
1
 40
1
 10
-111.860110
 20
96.934740
 30
0.0
 10
-109.990120
 20
96.914640
 30
0.0
 10
-108.120100
 20
96.898940
 30
0.0
 10
-106.250070
 20
96.883040
 30
0.0
  0
LINE
  5
229
100
AcDbEntity
  8
Layer_1
 62
3
100
AcDbLine
 10
-106.250070
 20
96.883040
 30
0.0
 11
-106.250070
 21
93.398630
 31
0.0
  0
LINE
  5
22a
100
AcDbEntity
  8
Layer_1
 62
3
100
AcDbLine
 10
-106.250070
 20
93.398630
 30
0.0
 11
-116.524540
 21
93.398630
 31
0.0
  0
LINE
  5
22b
100
AcDbEntity
  8
Layer_1
 62
3
100
AcDbLine
 10
-116.524540
 20
93.398630
 30
0.0
 11
-116.524570
 21
108.226320
 31
0.0
  0
LINE
  5
22c
100
AcDbEntity
  8
Layer_1
 62
3
100
AcDbLine
 10
-74.949938
 20
103.863840
 30
0.0
 11
-70.492106
 21
103.863840
 31
0.0
  0
SPLINE
  5
22d
100
AcDbEntity
  8
Layer_1
 62
3
100
AcDbSpline
 70
8
 71
3
 72
8
 73
4
 74
0
 40
0
 40
0
 40
0
 40
0
 40
1
 40
1
 40
1
 40
1
 10
-70.492106
 20
103.863840
 30
0.0
 10
-70.506206
 20
103.161410
 30
0.0
 10
-70.515946
 20
102.457400
 30
0.0
 10
-70.515946
 20
101.758090
 30
0.0
  0
SPLINE
  5
22e
100
AcDbEntity
  8
Layer_1
 62
3
100
AcDbSpline
 70
8
 71
3
 72
8
 73
4
 74
0
 40
0
 40
0
 40
0
 40
0
 40
1
 40
1
 40
1
 40
1
 10
-70.515946
 20
101.758090
 30
0.0
 10
-68.203940
 20
101.373260
 30
0.0
 10
-66.798457
 20
102.544850
 30
0.0
 10
-66.431589
 20
103.863840
 30
0.0
  0
LINE
  5
22f
100
AcDbEntity
  8
Layer_1
 62
3
100
AcDbLine
 10
-66.431589
 20
103.863840
 30
0.0
 11
-62.609458
 21
103.863840
 31
0.0
  0
SPLINE
  5
230
100
AcDbEntity
  8
Layer_1
 62
3
100
AcDbSpline
 70
8
 71
3
 72
8
 73
4
 74
0
 40
0
 40
0
 40
0
 40
0
 40
1
 40
1
 40
1
 40
1
 10
-62.609458
 20
103.863840
 30
0.0
 10
-63.223177
 20
99.592720
 30
0.0
 10
-65.827527
 20
98.402780
 30
0.0
 10
-70.500052
 20
98.086950
 30
0.0
  0
LINE
  5
231
100
AcDbEntity
  8
Layer_1
 62
3
100
AcDbLine
 10
-70.500052
 20
98.086950
 30
0.0
 11
-70.515922
 21
93.490050
 31
0.0
  0
LINE
  5
232
100
AcDbEntity
  8
Layer_1
 62
3
100
AcDbLine
 10
-70.515922
 20
93.490050
 30
0.0
 11
-75.041297
 21
93.490050
 31
0.0
  0
LINE
  5
233
100
AcDbEntity
  8
Layer_1
 62
3
100
AcDbLine
 10
-75.041297
 20
93.490050
 30
0.0
 11
-74.949917
 21
103.863840
 31
0.0
  0
LINE
  5
234
100
AcDbEntity
  8
Layer_1
 62
3
100
AcDbLine
 10
-74.949917
 20
103.863840
 30
0.0
 11
-74.949938
 21
103.863840
 31
0.0
  0
LINE
  5
235
100
AcDbEntity
  8
Layer_1
 62
3
100
AcDbLine
 10
-80.822193
 20
100.466840
 30
0.0
 11
-76.118034
 21
100.466840
 31
0.0
  0
SPLINE
  5
236
100
AcDbEntity
  8
Layer_1
 62
3
100
AcDbSpline
 70
8
 71
3
 72
8
 73
4
 74
0
 40
0
 40
0
 40
0
 40
0
 40
1
 40
1
 40
1
 40
1
 10
-76.118034
 20
100.466840
 30
0.0
 10
-76.214884
 20
98.900980
 30
0.0
 10
-76.524174
 20
97.514100
 30
0.0
 10
-77.027875
 20
96.461940
 30
0.0
  0
SPLINE
  5
237
100
AcDbEntity
  8
Layer_1
 62
3
100
AcDbSpline
 70
8
 71
3
 72
8
 73
4
 74
0
 40
0
 40
0
 40
0
 40
0
 40
1
 40
1
 40
1
 40
1
 10
-77.027875
 20
96.461940
 30
0.0
 10
-78.174481
 20
94.066820
 30
0.0
 10
-80.527569
 20
93.045310
 30
0.0
 10
-84.282774
 20
93.311260
 30
0.0
  0
SPLINE
  5
238
100
AcDbEntity
  8
Layer_1
 62
3
100
AcDbSpline
 70
8
 71
3
 72
8
 73
4
 74
0
 40
0
 40
0
 40
0
 40
0
 40
1
 40
1
 40
1
 40
1
 10
-84.282774
 20
93.311260
 30
0.0
 10
-87.438636
 20
93.534770
 30
0.0
 10
-89.352775
 20
95.047830
 30
0.0
 10
-90.091463
 20
97.900210
 30
0.0
  0
SPLINE
  5
239
100
AcDbEntity
  8
Layer_1
 62
3
100
AcDbSpline
 70
8
 71
3
 72
8
 73
4
 74
0
 40
0
 40
0
 40
0
 40
0
 40
1
 40
1
 40
1
 40
1
 10
-90.091463
 20
97.900210
 30
0.0
 10
-90.261087
 20
98.555190
 30
0.0
 10
-90.361843
 20
99.267780
 30
0.0
 10
-90.389444
 20
100.232430
 30
0.0
  0
LINE
  5
23a
100
AcDbEntity
  8
Layer_1
 62
3
100
AcDbLine
 10
-90.389444
 20
100.232430
 30
0.0
 11
-85.645552
 21
100.232430
 31
0.0
  0
SPLINE
  5
23b
100
AcDbEntity
  8
Layer_1
 62
3
100
AcDbSpline
 70
8
 71
3
 72
8
 73
4
 74
0
 40
0
 40
0
 40
0
 40
0
 40
1
 40
1
 40
1
 40
1
 10
-85.645552
 20
100.232430
 30
0.0
 10
-85.556552
 20
98.974020
 30
0.0
 10
-85.438566
 20
97.499850
 30
0.0
 10
-84.175501
 20
97.014210
 30
0.0
  0
SPLINE
  5
23c
100
AcDbEntity
  8
Layer_1
 62
3
100
AcDbSpline
 70
8
 71
3
 72
8
 73
4
 74
0
 40
0
 40
0
 40
0
 40
0
 40
1
 40
1
 40
1
 40
1
 10
-84.175501
 20
97.014210
 30
0.0
 10
-83.783426
 20
96.872320
 30
0.0
 10
-82.871719
 20
96.863680
 30
0.0
 10
-82.435278
 20
97.026110
 30
0.0
  0
SPLINE
  5
23d
100
AcDbEntity
  8
Layer_1
 62
3
100
AcDbSpline
 70
8
 71
3
 72
8
 73
4
 74
0
 40
0
 40
0
 40
0
 40
0
 40
1
 40
1
 40
1
 40
1
 10
-82.435278
 20
97.026110
 30
0.0
 10
-80.945941
 20
97.580440
 30
0.0
 10
-80.899552
 20
99.232810
 30
0.0
 10
-80.822193
 20
100.466820
 30
0.0
  0
LINE
  5
23e
100
AcDbEntity
  8
Layer_1
 62
3
100
AcDbLine
 10
-80.822193
 20
100.466820
 30
0.0
 11
-80.822193
 21
100.466840
 31
0.0
  0
LINE
  5
23f
100
AcDbEntity
  8
Layer_1
 62
3
100
AcDbLine
 10
-95.931936
 20
100.141040
 30
0.0
 11
-91.195984
 21
100.141040
 31
0.0
  0
SPLINE
  5
240
100
AcDbEntity
  8
Layer_1
 62
3
100
AcDbSpline
 70
8
 71
3
 72
8
 73
4
 74
0
 40
0
 40
0
 40
0
 40
0
 40
1
 40
1
 40
1
 40
1
 10
-91.195984
 20
100.141040
 30
0.0
 10
-91.195984
 20
100.141040
 30
0.0
 10
-91.338137
 20
98.338970
 30
0.0
 10
-91.478075
 20
97.804850
 30
0.0
  0
SPLINE
  5
241
100
AcDbEntity
  8
Layer_1
 62
3
100
AcDbSpline
 70
8
 71
3
 72
8
 73
4
 74
0
 40
0
 40
0
 40
0
 40
0
 40
1
 40
1
 40
1
 40
1
 10
-91.478075
 20
97.804850
 30
0.0
 10
-92.082487
 20
95.497920
 30
0.0
 10
-93.390401
 20
94.137430
 30
0.0
 10
-95.546544
 20
93.569510
 30
0.0
  0
SPLINE
  5
242
100
AcDbEntity
  8
Layer_1
 62
3
100
AcDbSpline
 70
8
 71
3
 72
8
 73
4
 74
0
 40
0
 40
0
 40
0
 40
0
 40
1
 40
1
 40
1
 40
1
 10
-95.546544
 20
93.569510
 30
0.0
 10
-96.357857
 20
93.355830
 30
0.0
 10
-97.941796
 20
93.217080
 30
0.0
 10
-98.987257
 20
93.271530
 30
0.0
  0
SPLINE
  5
243
100
AcDbEntity
  8
Layer_1
 62
3
100
AcDbSpline
 70
8
 71
3
 72
8
 73
4
 74
0
 40
0
 40
0
 40
0
 40
0
 40
1
 40
1
 40
1
 40
1
 10
-98.987257
 20
93.271530
 30
0.0
 10
-101.088550
 20
93.380980
 30
0.0
 10
-102.817360
 20
94.068130
 30
0.0
 10
-103.826510
 20
95.190540
 30
0.0
  0
SPLINE
  5
244
100
AcDbEntity
  8
Layer_1
 62
3
100
AcDbSpline
 70
8
 71
3
 72
8
 73
4
 74
0
 40
0
 40
0
 40
0
 40
0
 40
1
 40
1
 40
1
 40
1
 10
-103.826510
 20
95.190540
 30
0.0
 10
-104.797590
 20
96.270620
 30
0.0
 10
-105.364740
 20
97.956660
 30
0.0
 10
-105.463430
 20
99.998000
 30
0.0
  0
LINE
  5
245
100
AcDbEntity
  8
Layer_1
 62
3
100
AcDbLine
 10
-105.463430
 20
99.998000
 30
0.0
 11
-100.671850
 21
99.998000
 31
0.0
  0
SPLINE
  5
246
100
AcDbEntity
  8
Layer_1
 62
3
100
AcDbSpline
 70
8
 71
3
 72
8
 73
4
 74
0
 40
0
 40
0
 40
0
 40
0
 40
1
 40
1
 40
1
 40
1
 10
-100.671850
 20
99.998000
 30
0.0
 10
-100.647350
 20
99.104190
 30
0.0
 10
-100.558120
 20
98.303730
 30
0.0
 10
-100.389760
 20
97.912120
 30
0.0
  0
SPLINE
  5
247
100
AcDbEntity
  8
Layer_1
 62
3
100
AcDbSpline
 70
8
 71
3
 72
8
 73
4
 74
0
 40
0
 40
0
 40
0
 40
0
 40
1
 40
1
 40
1
 40
1
 10
-100.389760
 20
97.912120
 30
0.0
 10
-100.135280
 20
97.369400
 30
0.0
 10
-99.733615
 20
96.989130
 30
0.0
 10
-99.225644
 20
96.811570
 30
0.0
  0
SPLINE
  5
248
100
AcDbEntity
  8
Layer_1
 62
3
100
AcDbSpline
 70
8
 71
3
 72
8
 73
4
 74
0
 40
0
 40
0
 40
0
 40
0
 40
1
 40
1
 40
1
 40
1
 10
-99.225644
 20
96.811570
 30
0.0
 10
-98.849435
 20
96.680070
 30
0.0
 10
-97.900433
 20
96.673390
 30
0.0
 10
-97.445691
 20
96.799670
 30
0.0
  0
SPLINE
  5
249
100
AcDbEntity
  8
Layer_1
 62
3
100
AcDbSpline
 70
8
 71
3
 72
8
 73
4
 74
0
 40
0
 40
0
 40
0
 40
0
 40
1
 40
1
 40
1
 40
1
 10
-97.445691
 20
96.799670
 30
0.0
 10
-96.005368
 20
97.412600
 30
0.0
 10
-96.044122
 20
98.751500
 30
0.0
 10
-95.931936
 20
100.141060
 30
0.0
  0
LINE
  5
24a
100
AcDbEntity
  8
Layer_1
 62
3
100
AcDbLine
 10
-95.931936
 20
100.141060
 30
0.0
 11
-95.931936
 21
100.141040
 31
0.0
  0
LINE
  5
24b
100
AcDbEntity
  8
Layer_1
 62
3
100
AcDbLine
 10
-151.150230
 20
98.988830
 30
0.0
 11
-138.750150
 21
98.738540
 31
0.0
  0
LINE
  5
24c
100
AcDbEntity
  8
Layer_1
 62
3
100
AcDbLine
 10
-138.750150
 20
98.738540
 30
0.0
 11
-137.101310
 21
93.513900
 31
0.0
  0
LINE
  5
24d
100
AcDbEntity
  8
Layer_1
 62
3
100
AcDbLine
 10
-137.101310
 20
93.513900
 30
0.0
 11
-142.210730
 21
93.537700
 31
0.0
  0
LINE
  5
24e
100
AcDbEntity
  8
Layer_1
 62
3
100
AcDbLine
 10
-142.210730
 20
93.537700
 30
0.0
 11
-142.695450
 21
95.989110
 31
0.0
  0
LINE
  5
24f
100
AcDbEntity
  8
Layer_1
 62
3
100
AcDbLine
 10
-142.695450
 20
95.989110
 30
0.0
 11
-147.443310
 21
96.132140
 31
0.0
  0
LINE
  5
250
100
AcDbEntity
  8
Layer_1
 62
3
100
AcDbLine
 10
-147.443310
 20
96.132140
 30
0.0
 11
-147.979680
 21
93.656890
 31
0.0
  0
LINE
  5
251
100
AcDbEntity
  8
Layer_1
 62
3
100
AcDbLine
 10
-147.979680
 20
93.656890
 30
0.0
 11
-152.636170
 21
93.609190
 31
0.0
  0
LINE
  5
252
100
AcDbEntity
  8
Layer_1
 62
3
100
AcDbLine
 10
-152.636170
 20
93.609190
 30
0.0
 11
-151.150230
 21
98.988830
 31
0.0
  0
SPLINE
  5
253
100
AcDbEntity
  8
Layer_1
 62
3
100
AcDbSpline
 70
8
 71
3
 72
8
 73
4
 74
0
 40
0
 40
0
 40
0
 40
0
 40
1
 40
1
 40
1
 40
1
 10
-106.965260
 20
88.972620
 30
0.0
 10
-106.343790
 20
88.992920
 30
0.0
 10
-105.908420
 20
88.833560
 30
0.0
 10
-105.908420
 20
88.833560
 30
0.0
  0
LINE
  5
254
100
AcDbEntity
  8
Layer_1
 62
3
100
AcDbLine
 10
-105.908420
 20
88.833560
 30
0.0
 11
-106.051450
 21
87.784660
 31
0.0
  0
SPLINE
  5
255
100
AcDbEntity
  8
Layer_1
 62
3
100
AcDbSpline
 70
8
 71
3
 72
8
 73
4
 74
0
 40
0
 40
0
 40
0
 40
0
 40
1
 40
1
 40
1
 40
1
 10
-106.051450
 20
87.784660
 30
0.0
 10
-106.051450
 20
87.784660
 30
0.0
 10
-106.658730
 20
87.871060
 30
0.0
 10
-106.873880
 20
87.899880
 30
0.0
  0
SPLINE
  5
256
100
AcDbEntity
  8
Layer_1
 62
3
100
AcDbSpline
 70
8
 71
3
 72
8
 73
4
 74
0
 40
0
 40
0
 40
0
 40
0
 40
1
 40
1
 40
1
 40
1
 10
-106.873880
 20
87.899880
 30
0.0
 10
-107.894160
 20
87.838980
 30
0.0
 10
-107.367560
 20
86.894580
 30
0.0
 10
-106.857980
 20
86.854950
 30
0.0
  0
SPLINE
  5
257
100
AcDbEntity
  8
Layer_1
 62
3
100
AcDbSpline
 70
8
 71
3
 72
8
 73
4
 74
0
 40
0
 40
0
 40
0
 40
0
 40
1
 40
1
 40
1
 40
1
 10
-106.857980
 20
86.854950
 30
0.0
 10
-105.493650
 20
86.431570
 30
0.0
 10
-105.720100
 20
84.954710
 30
0.0
 10
-106.122950
 20
84.363820
 30
0.0
  0
SPLINE
  5
258
100
AcDbEntity
  8
Layer_1
 62
3
100
AcDbSpline
 70
8
 71
3
 72
8
 73
4
 74
0
 40
0
 40
0
 40
0
 40
0
 40
1
 40
1
 40
1
 40
1
 10
-106.122950
 20
84.363820
 30
0.0
 10
-106.511650
 20
83.833470
 30
0.0
 10
-107.358620
 20
83.638750
 30
0.0
 10
-108.133350
 20
83.902940
 30
0.0
  0
SPLINE
  5
259
100
AcDbEntity
  8
Layer_1
 62
3
100
AcDbSpline
 70
8
 71
3
 72
8
 73
4
 74
0
 40
0
 40
0
 40
0
 40
0
 40
1
 40
1
 40
1
 40
1
 10
-108.133350
 20
83.902940
 30
0.0
 10
-108.438620
 20
84.007050
 30
0.0
 10
-108.468210
 20
84.046820
 30
0.0
 10
-108.490930
 20
84.439300
 30
0.0
  0
SPLINE
  5
25a
100
AcDbEntity
  8
Layer_1
 62
3
100
AcDbSpline
 70
8
 71
3
 72
8
 73
4
 74
0
 40
0
 40
0
 40
0
 40
0
 40
1
 40
1
 40
1
 40
1
 10
-108.490930
 20
84.439300
 30
0.0
 10
-108.525530
 20
85.037650
 30
0.0
 10
-108.426230
 20
85.158230
 30
0.0
 10
-108.057860
 20
84.967730
 30
0.0
  0
SPLINE
  5
25b
100
AcDbEntity
  8
Layer_1
 62
3
100
AcDbSpline
 70
8
 71
3
 72
8
 73
4
 74
0
 40
0
 40
0
 40
0
 40
0
 40
1
 40
1
 40
1
 40
1
 10
-108.057860
 20
84.967730
 30
0.0
 10
-107.652770
 20
84.817010
 30
0.0
 10
-106.866770
 20
84.665500
 30
0.0
 10
-106.925520
 20
85.253790
 30
0.0
  0
SPLINE
  5
25c
100
AcDbEntity
  8
Layer_1
 62
3
100
AcDbSpline
 70
8
 71
3
 72
8
 73
4
 74
0
 40
0
 40
0
 40
0
 40
0
 40
1
 40
1
 40
1
 40
1
 10
-106.925520
 20
85.253790
 30
0.0
 10
-106.951420
 20
85.480930
 30
0.0
 10
-107.056760
 20
85.575290
 30
0.0
 10
-107.553270
 20
85.837840
 30
0.0
  0
SPLINE
  5
25d
100
AcDbEntity
  8
Layer_1
 62
3
100
AcDbSpline
 70
8
 71
3
 72
8
 73
4
 74
0
 40
0
 40
0
 40
0
 40
0
 40
1
 40
1
 40
1
 40
1
 10
-107.553270
 20
85.837840
 30
0.0
 10
-108.203810
 20
86.181830
 30
0.0
 10
-108.455880
 20
86.501460
 30
0.0
 10
-108.550520
 20
87.093340
 30
0.0
  0
SPLINE
  5
25e
100
AcDbEntity
  8
Layer_1
 62
3
100
AcDbSpline
 70
8
 71
3
 72
8
 73
4
 74
0
 40
0
 40
0
 40
0
 40
0
 40
1
 40
1
 40
1
 40
1
 10
-108.550520
 20
87.093340
 30
0.0
 10
-108.684390
 20
87.930530
 30
0.0
 10
-108.206290
 20
88.771130
 30
0.0
 10
-107.422160
 20
88.924950
 30
0.0
  0
SPLINE
  5
25f
100
AcDbEntity
  8
Layer_1
 62
3
100
AcDbSpline
 70
8
 71
3
 72
8
 73
4
 74
0
 40
0
 40
0
 40
0
 40
0
 40
1
 40
1
 40
1
 40
1
 10
-107.422160
 20
88.924950
 30
0.0
 10
-107.261760
 20
88.952650
 30
0.0
 10
-107.108670
 20
88.967950
 30
0.0
 10
-106.965250
 20
88.972650
 30
0.0
  0
LINE
  5
260
100
AcDbEntity
  8
Layer_1
 62
3
100
AcDbLine
 10
-106.965250
 20
88.972650
 30
0.0
 11
-106.965260
 21
88.972620
 31
0.0
  0
SPLINE
  5
261
100
AcDbEntity
  8
Layer_1
 62
3
100
AcDbSpline
 70
8
 71
3
 72
8
 73
4
 74
0
 40
0
 40
0
 40
0
 40
0
 40
1
 40
1
 40
1
 40
1
 10
-95.288289
 20
88.920920
 30
0.0
 10
-95.349799
 20
88.287410
 30
0.0
 10
-95.334849
 20
88.026930
 30
0.0
 10
-95.343909
 20
87.836270
 30
0.0
  0
SPLINE
  5
262
100
AcDbEntity
  8
Layer_1
 62
3
100
AcDbSpline
 70
8
 71
3
 72
8
 73
4
 74
0
 40
0
 40
0
 40
0
 40
0
 40
1
 40
1
 40
1
 40
1
 10
-95.343909
 20
87.836270
 30
0.0
 10
-95.955655
 20
87.854770
 30
0.0
 10
-96.706180
 20
87.787070
 30
0.0
 10
-96.726550
 20
86.374160
 30
0.0
  0
SPLINE
  5
263
100
AcDbEntity
  8
Layer_1
 62
3
100
AcDbSpline
 70
8
 71
3
 72
8
 73
4
 74
0
 40
0
 40
0
 40
0
 40
0
 40
1
 40
1
 40
1
 40
1
 10
-96.726550
 20
86.374160
 30
0.0
 10
-96.743240
 20
85.217320
 30
0.0
 10
-96.399088
 20
84.891260
 30
0.0
 10
-95.312122
 20
84.959730
 30
0.0
  0
SPLINE
  5
264
100
AcDbEntity
  8
Layer_1
 62
3
100
AcDbSpline
 70
8
 71
3
 72
8
 73
4
 74
0
 40
0
 40
0
 40
0
 40
0
 40
1
 40
1
 40
1
 40
1
 10
-95.312122
 20
84.959730
 30
0.0
 10
-95.317022
 20
84.588290
 30
0.0
 10
-95.320122
 20
83.839320
 30
0.0
 10
-95.320122
 20
83.839320
 30
0.0
  0
SPLINE
  5
265
100
AcDbEntity
  8
Layer_1
 62
3
100
AcDbSpline
 70
8
 71
3
 72
8
 73
4
 74
0
 40
0
 40
0
 40
0
 40
0
 40
1
 40
1
 40
1
 40
1
 10
-95.320122
 20
83.839320
 30
0.0
 10
-96.773071
 20
83.703510
 30
0.0
 10
-97.890555
 20
84.340600
 30
0.0
 10
-97.910589
 20
86.394020
 30
0.0
  0
SPLINE
  5
266
100
AcDbEntity
  8
Layer_1
 62
3
100
AcDbSpline
 70
8
 71
3
 72
8
 73
4
 74
0
 40
0
 40
0
 40
0
 40
0
 40
1
 40
1
 40
1
 40
1
 10
-97.910589
 20
86.394020
 30
0.0
 10
-97.787190
 20
88.280860
 30
0.0
 10
-96.932607
 20
88.920540
 30
0.0
 10
-95.288335
 20
88.920920
 30
0.0
  0
LINE
  5
267
100
AcDbEntity
  8
Layer_1
 62
3
100
AcDbLine
 10
-95.288335
 20
88.920920
 30
0.0
 11
-95.288289
 21
88.920920
 31
0.0
  0
SPLINE
  5
268
100
AcDbEntity
  8
Layer_1
 62
3
100
AcDbSpline
 70
8
 71
3
 72
8
 73
4
 74
0
 40
0
 40
0
 40
0
 40
0
 40
1
 40
1
 40
1
 40
1
 10
-112.328960
 20
88.893120
 30
0.0
 10
-110.900470
 20
88.822220
 30
0.0
 10
-109.780690
 20
89.000840
 30
0.0
 10
-109.480240
 20
87.852170
 30
0.0
  0
SPLINE
  5
269
100
AcDbEntity
  8
Layer_1
 62
3
100
AcDbSpline
 70
8
 71
3
 72
8
 73
4
 74
0
 40
0
 40
0
 40
0
 40
0
 40
1
 40
1
 40
1
 40
1
 10
-109.480240
 20
87.852170
 30
0.0
 10
-109.429440
 20
87.670270
 30
0.0
 10
-109.404240
 20
87.502230
 30
0.0
 10
-109.396840
 20
87.347590
 30
0.0
  0
LINE
  5
26a
100
AcDbEntity
  8
Layer_1
 62
3
100
AcDbLine
 10
-109.396840
 20
87.347590
 30
0.0
 11
-110.362300
 21
87.347590
 31
0.0
  0
SPLINE
  5
26b
100
AcDbEntity
  8
Layer_1
 62
3
100
AcDbSpline
 70
8
 71
3
 72
8
 73
4
 74
0
 40
0
 40
0
 40
0
 40
0
 40
1
 40
1
 40
1
 40
1
 10
-110.362300
 20
87.347590
 30
0.0
 10
-110.428100
 20
87.944090
 30
0.0
 10
-110.910160
 20
87.803890
 30
0.0
 10
-111.319820
 20
87.800530
 30
0.0
  0
SPLINE
  5
26c
100
AcDbEntity
  8
Layer_1
 62
3
100
AcDbSpline
 70
8
 71
3
 72
8
 73
4
 74
0
 40
0
 40
0
 40
0
 40
0
 40
1
 40
1
 40
1
 40
1
 10
-111.319820
 20
87.800530
 30
0.0
 10
-111.309520
 20
87.661650
 30
0.0
 10
-111.301920
 20
87.504130
 30
0.0
 10
-111.296020
 20
87.347590
 30
0.0
  0
LINE
  5
26d
100
AcDbEntity
  8
Layer_1
 62
3
100
AcDbLine
 10
-111.296020
 20
87.347590
 30
0.0
 11
-112.329030
 21
87.347590
 31
0.0
  0
LINE
  5
26e
100
AcDbEntity
  8
Layer_1
 62
3
100
AcDbLine
 10
-112.329030
 20
87.347590
 30
0.0
 11
-112.329030
 21
88.893120
 31
0.0
  0
LINE
  5
26f
100
AcDbEntity
  8
Layer_1
 62
3
100
AcDbLine
 10
-112.329030
 20
88.893120
 30
0.0
 11
-112.328960
 21
88.893120
 31
0.0
  0
SPLINE
  5
270
100
AcDbEntity
  8
Layer_1
 62
3
100
AcDbSpline
 70
8
 71
3
 72
8
 73
4
 74
0
 40
0
 40
0
 40
0
 40
0
 40
1
 40
1
 40
1
 40
1
 10
-104.140380
 20
88.881220
 30
0.0
 10
-103.743410
 20
88.885220
 30
0.0
 10
-103.357570
 20
88.858320
 30
0.0
 10
-103.043800
 20
88.706400
 30
0.0
  0
SPLINE
  5
271
100
AcDbEntity
  8
Layer_1
 62
3
100
AcDbSpline
 70
8
 71
3
 72
8
 73
4
 74
0
 40
0
 40
0
 40
0
 40
0
 40
1
 40
1
 40
1
 40
1
 10
-103.043800
 20
88.706400
 30
0.0
 10
-102.554680
 20
88.460660
 30
0.0
 10
-102.266790
 20
87.952310
 30
0.0
 10
-102.221370
 20
87.299920
 30
0.0
  0
LINE
  5
272
100
AcDbEntity
  8
Layer_1
 62
3
100
AcDbLine
 10
-102.221370
 20
87.299920
 30
0.0
 11
-103.357680
 21
87.299920
 31
0.0
  0
SPLINE
  5
273
100
AcDbEntity
  8
Layer_1
 62
3
100
AcDbSpline
 70
8
 71
3
 72
8
 73
4
 74
0
 40
0
 40
0
 40
0
 40
0
 40
1
 40
1
 40
1
 40
1
 10
-103.357680
 20
87.299920
 30
0.0
 10
-103.381080
 20
87.430730
 30
0.0
 10
-103.418680
 20
87.548250
 30
0.0
 10
-103.472900
 20
87.625720
 30
0.0
  0
SPLINE
  5
274
100
AcDbEntity
  8
Layer_1
 62
3
100
AcDbSpline
 70
8
 71
3
 72
8
 73
4
 74
0
 40
0
 40
0
 40
0
 40
0
 40
1
 40
1
 40
1
 40
1
 10
-103.472900
 20
87.625720
 30
0.0
 10
-103.724360
 20
87.875890
 30
0.0
 10
-103.935920
 20
87.836290
 30
0.0
 10
-104.267520
 20
87.836290
 30
0.0
  0
LINE
  5
275
100
AcDbEntity
  8
Layer_1
 62
3
100
AcDbLine
 10
-104.267520
 20
87.836290
 30
0.0
 11
-104.267520
 21
87.299920
 31
0.0
  0
LINE
  5
276
100
AcDbEntity
  8
Layer_1
 62
3
100
AcDbLine
 10
-104.267520
 20
87.299920
 30
0.0
 11
-105.304500
 21
87.299920
 31
0.0
  0
LINE
  5
277
100
AcDbEntity
  8
Layer_1
 62
3
100
AcDbLine
 10
-105.304500
 20
87.299920
 30
0.0
 11
-105.304500
 21
88.873270
 31
0.0
  0
SPLINE
  5
278
100
AcDbEntity
  8
Layer_1
 62
3
100
AcDbSpline
 70
8
 71
3
 72
8
 73
4
 74
0
 40
0
 40
0
 40
0
 40
0
 40
1
 40
1
 40
1
 40
1
 10
-105.304500
 20
88.873270
 30
0.0
 10
-104.945460
 20
88.843470
 30
0.0
 10
-104.537350
 20
88.877270
 30
0.0
 10
-104.140380
 20
88.881270
 30
0.0
  0
LINE
  5
279
100
AcDbEntity
  8
Layer_1
 62
3
100
AcDbLine
 10
-104.140380
 20
88.881270
 30
0.0
 11
-104.140380
 21
88.881220
 31
0.0
  0
SPLINE
  5
27a
100
AcDbEntity
  8
Layer_1
 62
3
100
AcDbSpline
 70
8
 71
3
 72
8
 73
4
 74
0
 40
0
 40
0
 40
0
 40
0
 40
1
 40
1
 40
1
 40
1
 10
-99.583223
 20
88.877220
 30
0.0
 10
-99.371363
 20
88.048410
 30
0.0
 10
-99.099043
 20
86.961450
 30
0.0
 10
-98.915740
 20
86.239070
 30
0.0
  0
LINE
  5
27b
100
AcDbEntity
  8
Layer_1
 62
3
100
AcDbLine
 10
-98.915740
 20
86.239070
 30
0.0
 11
-99.944776
 21
86.239070
 31
0.0
  0
SPLINE
  5
27c
100
AcDbEntity
  8
Layer_1
 62
3
100
AcDbSpline
 70
8
 71
3
 72
8
 73
4
 74
0
 40
0
 40
0
 40
0
 40
0
 40
1
 40
1
 40
1
 40
1
 10
-99.944776
 20
86.239070
 30
0.0
 10
-100.059750
 20
86.745300
 30
0.0
 10
-100.114950
 20
87.206890
 30
0.0
 10
-100.262620
 20
87.721040
 30
0.0
  0
SPLINE
  5
27d
100
AcDbEntity
  8
Layer_1
 62
3
100
AcDbSpline
 70
8
 71
3
 72
8
 73
4
 74
0
 40
0
 40
0
 40
0
 40
0
 40
1
 40
1
 40
1
 40
1
 10
-100.262620
 20
87.721040
 30
0.0
 10
-100.291120
 20
87.751640
 30
0.0
 10
-100.529370
 20
86.776100
 30
0.0
 10
-100.636100
 20
86.239070
 30
0.0
  0
LINE
  5
27e
100
AcDbEntity
  8
Layer_1
 62
3
100
AcDbLine
 10
-100.636100
 20
86.239070
 30
0.0
 11
-101.625400
 21
86.239070
 31
0.0
  0
SPLINE
  5
27f
100
AcDbEntity
  8
Layer_1
 62
3
100
AcDbSpline
 70
8
 71
3
 72
8
 73
4
 74
0
 40
0
 40
0
 40
0
 40
0
 40
1
 40
1
 40
1
 40
1
 10
-101.625400
 20
86.239070
 30
0.0
 10
-101.438640
 20
87.028250
 30
0.0
 10
-101.218320
 20
87.949770
 30
0.0
 10
-101.009570
 20
88.825570
 30
0.0
  0
SPLINE
  5
280
100
AcDbEntity
  8
Layer_1
 62
3
100
AcDbSpline
 70
8
 71
3
 72
8
 73
4
 74
0
 40
0
 40
0
 40
0
 40
0
 40
1
 40
1
 40
1
 40
1
 10
-101.009570
 20
88.825570
 30
0.0
 10
-100.534230
 20
88.845770
 30
0.0
 10
-100.058720
 20
88.861370
 30
0.0
 10
-99.583223
 20
88.877170
 30
0.0
  0
LINE
  5
281
100
AcDbEntity
  8
Layer_1
 62
3
100
AcDbLine
 10
-99.583223
 20
88.877170
 30
0.0
 11
-99.583223
 21
88.877220
 31
0.0
  0
LINE
  5
282
100
AcDbEntity
  8
Layer_1
 62
3
100
AcDbLine
 10
-128.499520
 20
88.873230
 30
0.0
 11
-127.220180
 21
88.873230
 31
0.0
  0
LINE
  5
283
100
AcDbEntity
  8
Layer_1
 62
3
100
AcDbLine
 10
-127.220180
 20
88.873230
 30
0.0
 11
-126.405690
 21
86.012590
 31
0.0
  0
LINE
  5
284
100
AcDbEntity
  8
Layer_1
 62
3
100
AcDbLine
 10
-126.405690
 20
86.012590
 30
0.0
 11
-125.376660
 21
88.873230
 31
0.0
  0
LINE
  5
285
100
AcDbEntity
  8
Layer_1
 62
3
100
AcDbLine
 10
-125.376660
 20
88.873230
 30
0.0
 11
-124.160890
 21
88.873230
 31
0.0
  0
LINE
  5
286
100
AcDbEntity
  8
Layer_1
 62
3
100
AcDbLine
 10
-124.160890
 20
88.873230
 30
0.0
 11
-124.160890
 21
83.875050
 31
0.0
  0
LINE
  5
287
100
AcDbEntity
  8
Layer_1
 62
3
100
AcDbLine
 10
-124.160890
 20
83.875050
 30
0.0
 11
-125.106490
 21
83.875050
 31
0.0
  0
LINE
  5
288
100
AcDbEntity
  8
Layer_1
 62
3
100
AcDbLine
 10
-125.106490
 20
83.875050
 30
0.0
 11
-125.233630
 21
86.231110
 31
0.0
  0
LINE
  5
289
100
AcDbEntity
  8
Layer_1
 62
3
100
AcDbLine
 10
-125.233630
 20
86.231110
 30
0.0
 11
-125.980570
 21
83.875050
 31
0.0
  0
LINE
  5
28a
100
AcDbEntity
  8
Layer_1
 62
3
100
AcDbLine
 10
-125.980570
 20
83.875050
 30
0.0
 11
-126.679840
 21
83.875050
 31
0.0
  0
LINE
  5
28b
100
AcDbEntity
  8
Layer_1
 62
3
100
AcDbLine
 10
-126.679840
 20
83.875050
 30
0.0
 11
-127.406920
 21
86.203290
 31
0.0
  0
LINE
  5
28c
100
AcDbEntity
  8
Layer_1
 62
3
100
AcDbLine
 10
-127.406920
 20
86.203290
 30
0.0
 11
-127.561870
 21
83.875050
 31
0.0
  0
LINE
  5
28d
100
AcDbEntity
  8
Layer_1
 62
3
100
AcDbLine
 10
-127.561870
 20
83.875050
 30
0.0
 11
-128.499520
 21
83.875050
 31
0.0
  0
LINE
  5
28e
100
AcDbEntity
  8
Layer_1
 62
3
100
AcDbLine
 10
-128.499520
 20
83.875050
 30
0.0
 11
-128.499520
 21
88.873230
 31
0.0
  0
LINE
  5
28f
100
AcDbEntity
  8
Layer_1
 62
3
100
AcDbLine
 10
-122.619320
 20
88.873230
 30
0.0
 11
-121.189000
 21
88.873230
 31
0.0
  0
LINE
  5
290
100
AcDbEntity
  8
Layer_1
 62
3
100
AcDbLine
 10
-121.189000
 20
88.873230
 30
0.0
 11
-120.533440
 21
86.239050
 31
0.0
  0
LINE
  5
291
100
AcDbEntity
  8
Layer_1
 62
3
100
AcDbLine
 10
-120.533440
 20
86.239050
 30
0.0
 11
-121.606180
 21
86.239050
 31
0.0
  0
SPLINE
  5
292
100
AcDbEntity
  8
Layer_1
 62
3
100
AcDbSpline
 70
8
 71
3
 72
8
 73
4
 74
0
 40
0
 40
0
 40
0
 40
0
 40
1
 40
1
 40
1
 40
1
 10
-121.606180
 20
86.239050
 30
0.0
 10
-121.700780
 20
86.741160
 30
0.0
 10
-121.805110
 20
87.233940
 30
0.0
 10
-121.892240
 20
87.665400
 30
0.0
  0
LINE
  5
293
100
AcDbEntity
  8
Layer_1
 62
3
100
AcDbLine
 10
-121.892240
 20
87.665400
 30
0.0
 11
-121.896240
 21
87.689200
 31
0.0
  0
LINE
  5
294
100
AcDbEntity
  8
Layer_1
 62
3
100
AcDbLine
 10
-121.896240
 20
87.689200
 30
0.0
 11
-121.900240
 21
87.673300
 31
0.0
  0
LINE
  5
295
100
AcDbEntity
  8
Layer_1
 62
3
100
AcDbLine
 10
-121.900240
 20
87.673300
 30
0.0
 11
-121.904240
 21
87.673300
 31
0.0
  0
LINE
  5
296
100
AcDbEntity
  8
Layer_1
 62
3
100
AcDbLine
 10
-121.904240
 20
87.673300
 30
0.0
 11
-122.222090
 21
86.239010
 31
0.0
  0
LINE
  5
297
100
AcDbEntity
  8
Layer_1
 62
3
100
AcDbLine
 10
-122.222090
 20
86.239010
 30
0.0
 11
-123.120000
 21
86.239010
 31
0.0
  0
LINE
  5
298
100
AcDbEntity
  8
Layer_1
 62
3
100
AcDbLine
 10
-123.120000
 20
86.239010
 30
0.0
 11
-122.619390
 21
88.873180
 31
0.0
  0
LINE
  5
299
100
AcDbEntity
  8
Layer_1
 62
3
100
AcDbLine
 10
-122.619390
 20
88.873180
 30
0.0
 11
-122.619320
 21
88.873230
 31
0.0
  0
LINE
  5
29a
100
AcDbEntity
  8
Layer_1
 62
3
100
AcDbLine
 10
-119.448780
 20
88.873230
 30
0.0
 11
-118.229030
 21
88.873230
 31
0.0
  0
LINE
  5
29b
100
AcDbEntity
  8
Layer_1
 62
3
100
AcDbLine
 10
-118.229030
 20
88.873230
 30
0.0
 11
-118.177430
 21
86.560870
 31
0.0
  0
LINE
  5
29c
100
AcDbEntity
  8
Layer_1
 62
3
100
AcDbLine
 10
-118.177430
 20
86.560870
 30
0.0
 11
-117.355000
 21
88.849390
 31
0.0
  0
LINE
  5
29d
100
AcDbEntity
  8
Layer_1
 62
3
100
AcDbLine
 10
-117.355000
 20
88.849390
 30
0.0
 11
-116.151140
 21
88.865290
 31
0.0
  0
LINE
  5
29e
100
AcDbEntity
  8
Layer_1
 62
3
100
AcDbLine
 10
-116.151140
 20
88.865290
 30
0.0
 11
-117.021260
 21
86.616510
 31
0.0
  0
LINE
  5
29f
100
AcDbEntity
  8
Layer_1
 62
3
100
AcDbLine
 10
-117.021260
 20
86.616510
 30
0.0
 11
-116.059760
 21
83.875060
 31
0.0
  0
LINE
  5
2a0
100
AcDbEntity
  8
Layer_1
 62
3
100
AcDbLine
 10
-116.059760
 20
83.875060
 30
0.0
 11
-117.347050
 21
83.875060
 31
0.0
  0
LINE
  5
2a1
100
AcDbEntity
  8
Layer_1
 62
3
100
AcDbLine
 10
-117.347050
 20
83.875060
 30
0.0
 11
-118.177430
 21
85.996700
 31
0.0
  0
LINE
  5
2a2
100
AcDbEntity
  8
Layer_1
 62
3
100
AcDbLine
 10
-118.177430
 20
85.996700
 30
0.0
 11
-118.229030
 21
83.875060
 31
0.0
  0
LINE
  5
2a3
100
AcDbEntity
  8
Layer_1
 62
3
100
AcDbLine
 10
-118.229030
 20
83.875060
 30
0.0
 11
-119.444800
 21
83.875060
 31
0.0
  0
LINE
  5
2a4
100
AcDbEntity
  8
Layer_1
 62
3
100
AcDbLine
 10
-119.444800
 20
83.875060
 30
0.0
 11
-119.448800
 21
88.873240
 31
0.0
  0
LINE
  5
2a5
100
AcDbEntity
  8
Layer_1
 62
3
100
AcDbLine
 10
-119.448800
 20
88.873240
 30
0.0
 11
-119.448780
 21
88.873230
 31
0.0
  0
LINE
  5
2a6
100
AcDbEntity
  8
Layer_1
 62
3
100
AcDbLine
 10
-115.574990
 20
88.873230
 30
0.0
 11
-112.849440
 21
88.873230
 31
0.0
  0
LINE
  5
2a7
100
AcDbEntity
  8
Layer_1
 62
3
100
AcDbLine
 10
-112.849440
 20
88.873230
 30
0.0
 11
-112.849440
 21
87.740890
 31
0.0
  0
LINE
  5
2a8
100
AcDbEntity
  8
Layer_1
 62
3
100
AcDbLine
 10
-112.849440
 20
87.740890
 30
0.0
 11
-114.450600
 21
87.740890
 31
0.0
  0
LINE
  5
2a9
100
AcDbEntity
  8
Layer_1
 62
3
100
AcDbLine
 10
-114.450600
 20
87.740890
 30
0.0
 11
-114.450600
 21
87.315770
 31
0.0
  0
LINE
  5
2aa
100
AcDbEntity
  8
Layer_1
 62
3
100
AcDbLine
 10
-114.450600
 20
87.315770
 30
0.0
 11
-114.450600
 21
86.890640
 31
0.0
  0
LINE
  5
2ab
100
AcDbEntity
  8
Layer_1
 62
3
100
AcDbLine
 10
-114.450600
 20
86.890640
 30
0.0
 11
-113.131530
 21
86.890640
 31
0.0
  0
LINE
  5
2ac
100
AcDbEntity
  8
Layer_1
 62
3
100
AcDbLine
 10
-113.131530
 20
86.890640
 30
0.0
 11
-113.131530
 21
85.949020
 31
0.0
  0
LINE
  5
2ad
100
AcDbEntity
  8
Layer_1
 62
3
100
AcDbLine
 10
-113.131530
 20
85.949020
 30
0.0
 11
-114.450600
 21
85.949020
 31
0.0
  0
LINE
  5
2ae
100
AcDbEntity
  8
Layer_1
 62
3
100
AcDbLine
 10
-114.450600
 20
85.949020
 30
0.0
 11
-114.450600
 21
85.007390
 31
0.0
  0
LINE
  5
2af
100
AcDbEntity
  8
Layer_1
 62
3
100
AcDbLine
 10
-114.450600
 20
85.007390
 30
0.0
 11
-112.746140
 21
85.007390
 31
0.0
  0
LINE
  5
2b0
100
AcDbEntity
  8
Layer_1
 62
3
100
AcDbLine
 10
-112.746140
 20
85.007390
 30
0.0
 11
-112.773940
 21
84.463070
 31
0.0
  0
LINE
  5
2b1
100
AcDbEntity
  8
Layer_1
 62
3
100
AcDbLine
 10
-112.773940
 20
84.463070
 30
0.0
 11
-112.801740
 21
83.922730
 31
0.0
  0
LINE
  5
2b2
100
AcDbEntity
  8
Layer_1
 62
3
100
AcDbLine
 10
-112.801740
 20
83.922730
 30
0.0
 11
-114.188360
 21
83.894930
 31
0.0
  0
LINE
  5
2b3
100
AcDbEntity
  8
Layer_1
 62
3
100
AcDbLine
 10
-114.188360
 20
83.894930
 30
0.0
 11
-115.574970
 21
83.871130
 31
0.0
  0
LINE
  5
2b4
100
AcDbEntity
  8
Layer_1
 62
3
100
AcDbLine
 10
-115.574970
 20
83.871130
 30
0.0
 11
-115.602770
 21
84.745210
 31
0.0
  0
SPLINE
  5
2b5
100
AcDbEntity
  8
Layer_1
 62
3
100
AcDbSpline
 70
8
 71
3
 72
8
 73
4
 74
0
 40
0
 40
0
 40
0
 40
0
 40
1
 40
1
 40
1
 40
1
 10
-115.602770
 20
84.745210
 30
0.0
 10
-115.617670
 20
85.226250
 30
0.0
 10
-115.618070
 20
86.349800
 30
0.0
 10
-115.602770
 20
87.244300
 30
0.0
  0
LINE
  5
2b6
100
AcDbEntity
  8
Layer_1
 62
3
100
AcDbLine
 10
-115.602770
 20
87.244300
 30
0.0
 11
-115.574970
 21
88.873280
 31
0.0
  0
LINE
  5
2b7
100
AcDbEntity
  8
Layer_1
 62
3
100
AcDbLine
 10
-115.574970
 20
88.873280
 30
0.0
 11
-115.574990
 21
88.873230
 31
0.0
  0
LINE
  5
2b8
100
AcDbEntity
  8
Layer_1
 62
3
100
AcDbLine
 10
-94.747947
 20
88.873230
 30
0.0
 11
-92.105828
 21
88.873230
 31
0.0
  0
LINE
  5
2b9
100
AcDbEntity
  8
Layer_1
 62
3
100
AcDbLine
 10
-92.105828
 20
88.873230
 30
0.0
 11
-92.105828
 21
87.740890
 31
0.0
  0
LINE
  5
2ba
100
AcDbEntity
  8
Layer_1
 62
3
100
AcDbLine
 10
-92.105828
 20
87.740890
 30
0.0
 11
-93.710965
 21
87.740890
 31
0.0
  0
LINE
  5
2bb
100
AcDbEntity
  8
Layer_1
 62
3
100
AcDbLine
 10
-93.710965
 20
87.740890
 30
0.0
 11
-93.710965
 21
86.890640
 31
0.0
  0
LINE
  5
2bc
100
AcDbEntity
  8
Layer_1
 62
3
100
AcDbLine
 10
-93.710965
 20
86.890640
 30
0.0
 11
-92.387919
 21
86.890640
 31
0.0
  0
LINE
  5
2bd
100
AcDbEntity
  8
Layer_1
 62
3
100
AcDbLine
 10
-92.387919
 20
86.890640
 30
0.0
 11
-92.387919
 21
85.956960
 31
0.0
  0
SPLINE
  5
2be
100
AcDbEntity
  8
Layer_1
 62
3
100
AcDbSpline
 70
8
 71
3
 72
8
 73
4
 74
0
 40
0
 40
0
 40
0
 40
0
 40
1
 40
1
 40
1
 40
1
 10
-92.387919
 20
85.956960
 30
0.0
 10
-92.813049
 20
85.938560
 30
0.0
 10
-93.305716
 20
85.951960
 30
0.0
 10
-93.730830
 20
85.933160
 30
0.0
  0
SPLINE
  5
2bf
100
AcDbEntity
  8
Layer_1
 62
3
100
AcDbSpline
 70
8
 71
3
 72
8
 73
4
 74
0
 40
0
 40
0
 40
0
 40
0
 40
1
 40
1
 40
1
 40
1
 10
-93.730830
 20
85.933160
 30
0.0
 10
-93.749190
 20
85.635170
 30
0.0
 10
-93.700280
 20
85.305410
 30
0.0
 10
-93.718920
 20
85.007430
 30
0.0
  0
LINE
  5
2c0
100
AcDbEntity
  8
Layer_1
 62
3
100
AcDbLine
 10
-93.718920
 20
85.007430
 30
0.0
 11
-92.010481
 21
85.007430
 31
0.0
  0
LINE
  5
2c1
100
AcDbEntity
  8
Layer_1
 62
3
100
AcDbLine
 10
-92.010481
 20
85.007430
 30
0.0
 11
-92.010481
 21
83.875090
 31
0.0
  0
LINE
  5
2c2
100
AcDbEntity
  8
Layer_1
 62
3
100
AcDbLine
 10
-92.010481
 20
83.875090
 30
0.0
 11
-94.747956
 21
83.875090
 31
0.0
  0
LINE
  5
2c3
100
AcDbEntity
  8
Layer_1
 62
3
100
AcDbLine
 10
-94.747956
 20
83.875090
 30
0.0
 11
-94.747956
 21
88.873270
 31
0.0
  0
LINE
  5
2c4
100
AcDbEntity
  8
Layer_1
 62
3
100
AcDbLine
 10
-94.747956
 20
88.873270
 30
0.0
 11
-94.747947
 21
88.873230
 31
0.0
  0
LINE
  5
2c5
100
AcDbEntity
  8
Layer_1
 62
3
100
AcDbLine
 10
-88.899531
 20
86.942290
 30
0.0
 11
-78.577386
 21
86.088070
 31
0.0
  0
LINE
  5
2c6
100
AcDbEntity
  8
Layer_1
 62
3
100
AcDbLine
 10
-78.577386
 20
86.088070
 30
0.0
 11
-88.891582
 21
85.198100
 31
0.0
  0
LINE
  5
2c7
100
AcDbEntity
  8
Layer_1
 62
3
100
AcDbLine
 10
-88.891582
 20
85.198100
 30
0.0
 11
-88.899582
 21
86.942290
 31
0.0
  0
LINE
  5
2c8
100
AcDbEntity
  8
Layer_1
 62
3
100
AcDbLine
 10
-88.899582
 20
86.942290
 30
0.0
 11
-88.899531
 21
86.942290
 31
0.0
  0
LINE
  5
2c9
100
AcDbEntity
  8
Layer_1
 62
3
100
AcDbLine
 10
-131.093960
 20
86.938290
 30
0.0
 11
-131.093960
 21
85.241770
 31
0.0
  0
LINE
  5
2ca
100
AcDbEntity
  8
Layer_1
 62
3
100
AcDbLine
 10
-131.093960
 20
85.241770
 30
0.0
 11
-141.368430
 21
86.092020
 31
0.0
  0
LINE
  5
2cb
100
AcDbEntity
  8
Layer_1
 62
3
100
AcDbLine
 10
-141.368430
 20
86.092020
 30
0.0
 11
-131.093960
 21
86.938290
 31
0.0
  0
LINE
  5
2cc
100
AcDbEntity
  8
Layer_1
 62
3
100
AcDbLine
 10
-112.328960
 20
86.874690
 30
0.0
 11
-111.284030
 21
86.874690
 31
0.0
  0
SPLINE
  5
2cd
100
AcDbEntity
  8
Layer_1
 62
3
100
AcDbSpline
 70
8
 71
3
 72
8
 73
4
 74
0
 40
0
 40
0
 40
0
 40
0
 40
1
 40
1
 40
1
 40
1
 10
-111.284030
 20
86.874690
 30
0.0
 10
-111.280030
 20
86.668200
 30
0.0
 10
-111.276030
 20
86.481350
 30
0.0
 10
-111.276030
 20
86.481350
 30
0.0
  0
SPLINE
  5
2ce
100
AcDbEntity
  8
Layer_1
 62
3
100
AcDbSpline
 70
8
 71
3
 72
8
 73
4
 74
0
 40
0
 40
0
 40
0
 40
0
 40
1
 40
1
 40
1
 40
1
 10
-111.276030
 20
86.481350
 30
0.0
 10
-110.953300
 20
86.497650
 30
0.0
 10
-110.504710
 20
86.338160
 30
0.0
 10
-110.378100
 20
86.874690
 30
0.0
  0
LINE
  5
2cf
100
AcDbEntity
  8
Layer_1
 62
3
100
AcDbLine
 10
-110.378100
 20
86.874690
 30
0.0
 11
-109.432500
 21
86.874690
 31
0.0
  0
SPLINE
  5
2d0
100
AcDbEntity
  8
Layer_1
 62
3
100
AcDbSpline
 70
8
 71
3
 72
8
 73
4
 74
0
 40
0
 40
0
 40
0
 40
0
 40
1
 40
1
 40
1
 40
1
 10
-109.432500
 20
86.874690
 30
0.0
 10
-109.573060
 20
86.237380
 30
0.0
 10
-110.032440
 20
85.941010
 30
0.0
 10
-110.032440
 20
85.941010
 30
0.0
  0
LINE
  5
2d1
100
AcDbEntity
  8
Layer_1
 62
3
100
AcDbLine
 10
-110.032440
 20
85.941010
 30
0.0
 11
-109.027240
 21
83.874990
 31
0.0
  0
LINE
  5
2d2
100
AcDbEntity
  8
Layer_1
 62
3
100
AcDbLine
 10
-109.027240
 20
83.874990
 30
0.0
 11
-109.666920
 21
83.874990
 31
0.0
  0
LINE
  5
2d3
100
AcDbEntity
  8
Layer_1
 62
3
100
AcDbLine
 10
-109.666920
 20
83.874990
 30
0.0
 11
-110.302610
 21
83.874990
 31
0.0
  0
LINE
  5
2d4
100
AcDbEntity
  8
Layer_1
 62
3
100
AcDbLine
 10
-110.302610
 20
83.874990
 30
0.0
 11
-110.727740
 21
84.888140
 31
0.0
  0
LINE
  5
2d5
100
AcDbEntity
  8
Layer_1
 62
3
100
AcDbLine
 10
-110.727740
 20
84.888140
 30
0.0
 11
-111.152860
 21
85.901280
 31
0.0
  0
LINE
  5
2d6
100
AcDbEntity
  8
Layer_1
 62
3
100
AcDbLine
 10
-111.152860
 20
85.901280
 30
0.0
 11
-111.176660
 21
84.888140
 31
0.0
  0
LINE
  5
2d7
100
AcDbEntity
  8
Layer_1
 62
3
100
AcDbLine
 10
-111.176660
 20
84.888140
 30
0.0
 11
-111.204460
 21
83.874990
 31
0.0
  0
LINE
  5
2d8
100
AcDbEntity
  8
Layer_1
 62
3
100
AcDbLine
 10
-111.204460
 20
83.874990
 30
0.0
 11
-111.768640
 21
83.874990
 31
0.0
  0
LINE
  5
2d9
100
AcDbEntity
  8
Layer_1
 62
3
100
AcDbLine
 10
-111.768640
 20
83.874990
 30
0.0
 11
-112.328850
 21
83.874990
 31
0.0
  0
LINE
  5
2da
100
AcDbEntity
  8
Layer_1
 62
3
100
AcDbLine
 10
-112.328850
 20
83.874990
 30
0.0
 11
-112.328850
 21
86.874690
 31
0.0
  0
LINE
  5
2db
100
AcDbEntity
  8
Layer_1
 62
3
100
AcDbLine
 10
-112.328850
 20
86.874690
 30
0.0
 11
-112.328960
 21
86.874690
 31
0.0
  0
LINE
  5
2dc
100
AcDbEntity
  8
Layer_1
 62
3
100
AcDbLine
 10
-105.304500
 20
86.826990
 30
0.0
 11
-104.267520
 21
86.826990
 31
0.0
  0
LINE
  5
2dd
100
AcDbEntity
  8
Layer_1
 62
3
100
AcDbLine
 10
-104.267520
 20
86.826990
 30
0.0
 11
-104.267520
 21
86.326380
 31
0.0
  0
SPLINE
  5
2de
100
AcDbEntity
  8
Layer_1
 62
3
100
AcDbSpline
 70
8
 71
3
 72
8
 73
4
 74
0
 40
0
 40
0
 40
0
 40
0
 40
1
 40
1
 40
1
 40
1
 10
-104.267520
 20
86.326380
 30
0.0
 10
-104.000900
 20
86.331380
 30
0.0
 10
-103.553070
 20
86.282780
 30
0.0
 10
-103.425220
 20
86.509140
 30
0.0
  0
SPLINE
  5
2df
100
AcDbEntity
  8
Layer_1
 62
3
100
AcDbSpline
 70
8
 71
3
 72
8
 73
4
 74
0
 40
0
 40
0
 40
0
 40
0
 40
1
 40
1
 40
1
 40
1
 10
-103.425220
 20
86.509140
 30
0.0
 10
-103.381520
 20
86.590740
 30
0.0
 10
-103.355320
 20
86.703610
 30
0.0
 10
-103.341820
 20
86.826990
 30
0.0
  0
LINE
  5
2e0
100
AcDbEntity
  8
Layer_1
 62
3
100
AcDbLine
 10
-103.341820
 20
86.826990
 30
0.0
 11
-102.225370
 21
86.826990
 31
0.0
  0
SPLINE
  5
2e1
100
AcDbEntity
  8
Layer_1
 62
3
100
AcDbSpline
 70
8
 71
3
 72
8
 73
4
 74
0
 40
0
 40
0
 40
0
 40
0
 40
1
 40
1
 40
1
 40
1
 10
-102.225370
 20
86.826990
 30
0.0
 10
-102.229370
 20
86.786490
 30
0.0
 10
-102.235570
 20
86.745090
 30
0.0
 10
-102.241270
 20
86.703830
 30
0.0
  0
SPLINE
  5
2e2
100
AcDbEntity
  8
Layer_1
 62
3
100
AcDbSpline
 70
8
 71
3
 72
8
 73
4
 74
0
 40
0
 40
0
 40
0
 40
0
 40
1
 40
1
 40
1
 40
1
 10
-102.241270
 20
86.703830
 30
0.0
 10
-102.539760
 20
85.303850
 30
0.0
 10
-103.256220
 20
85.308460
 30
0.0
 10
-104.267550
 20
85.277480
 30
0.0
  0
LINE
  5
2e3
100
AcDbEntity
  8
Layer_1
 62
3
100
AcDbLine
 10
-104.267550
 20
85.277480
 30
0.0
 11
-104.267550
 21
84.574240
 31
0.0
  0
LINE
  5
2e4
100
AcDbEntity
  8
Layer_1
 62
3
100
AcDbLine
 10
-104.267550
 20
84.574240
 30
0.0
 11
-104.267550
 21
83.874970
 31
0.0
  0
LINE
  5
2e5
100
AcDbEntity
  8
Layer_1
 62
3
100
AcDbLine
 10
-104.267550
 20
83.874970
 30
0.0
 11
-104.788030
 21
83.874970
 31
0.0
  0
LINE
  5
2e6
100
AcDbEntity
  8
Layer_1
 62
3
100
AcDbLine
 10
-104.788030
 20
83.874970
 30
0.0
 11
-105.304530
 21
83.874970
 31
0.0
  0
LINE
  5
2e7
100
AcDbEntity
  8
Layer_1
 62
3
100
AcDbLine
 10
-105.304530
 20
83.874970
 30
0.0
 11
-105.304530
 21
86.374060
 31
0.0
  0
LINE
  5
2e8
100
AcDbEntity
  8
Layer_1
 62
3
100
AcDbLine
 10
-105.304530
 20
86.374060
 30
0.0
 11
-105.304530
 21
86.826990
 31
0.0
  0
LINE
  5
2e9
100
AcDbEntity
  8
Layer_1
 62
3
100
AcDbLine
 10
-105.304530
 20
86.826990
 30
0.0
 11
-105.304500
 21
86.826990
 31
0.0
  0
LINE
  5
2ea
100
AcDbEntity
  8
Layer_1
 62
3
100
AcDbLine
 10
-123.207340
 20
85.766170
 30
0.0
 11
-120.414240
 21
85.766170
 31
0.0
  0
LINE
  5
2eb
100
AcDbEntity
  8
Layer_1
 62
3
100
AcDbLine
 10
-120.414240
 20
85.766170
 30
0.0
 11
-119.945420
 21
83.874970
 31
0.0
  0
LINE
  5
2ec
100
AcDbEntity
  8
Layer_1
 62
3
100
AcDbLine
 10
-119.945420
 20
83.874970
 30
0.0
 11
-121.073780
 21
83.898770
 31
0.0
  0
LINE
  5
2ed
100
AcDbEntity
  8
Layer_1
 62
3
100
AcDbLine
 10
-121.073780
 20
83.898770
 30
0.0
 11
-121.288330
 21
84.633790
 31
0.0
  0
LINE
  5
2ee
100
AcDbEntity
  8
Layer_1
 62
3
100
AcDbLine
 10
-121.288330
 20
84.633790
 30
0.0
 11
-122.531910
 21
84.629790
 31
0.0
  0
LINE
  5
2ef
100
AcDbEntity
  8
Layer_1
 62
3
100
AcDbLine
 10
-122.531910
 20
84.629790
 30
0.0
 11
-122.655080
 21
83.874900
 31
0.0
  0
LINE
  5
2f0
100
AcDbEntity
  8
Layer_1
 62
3
100
AcDbLine
 10
-122.655080
 20
83.874900
 30
0.0
 11
-123.572870
 21
83.851100
 31
0.0
  0
LINE
  5
2f1
100
AcDbEntity
  8
Layer_1
 62
3
100
AcDbLine
 10
-123.572870
 20
83.851100
 30
0.0
 11
-123.207340
 21
85.766130
 31
0.0
  0
LINE
  5
2f2
100
AcDbEntity
  8
Layer_1
 62
3
100
AcDbLine
 10
-123.207340
 20
85.766130
 30
0.0
 11
-123.207340
 21
85.766170
 31
0.0
  0
SPLINE
  5
2f3
100
AcDbEntity
  8
Layer_1
 62
3
100
AcDbSpline
 70
8
 71
3
 72
8
 73
4
 74
0
 40
0
 40
0
 40
0
 40
0
 40
1
 40
1
 40
1
 40
1
 10
-101.740620
 20
85.766170
 30
0.0
 10
-100.733390
 20
85.757170
 30
0.0
 10
-99.797107
 20
85.766170
 30
0.0
 10
-98.792574
 20
85.766170
 30
0.0
  0
SPLINE
  5
2f4
100
AcDbEntity
  8
Layer_1
 62
3
100
AcDbSpline
 70
8
 71
3
 72
8
 73
4
 74
0
 40
0
 40
0
 40
0
 40
0
 40
1
 40
1
 40
1
 40
1
 10
-98.792574
 20
85.766170
 30
0.0
 10
-98.608159
 20
85.042700
 30
0.0
 10
-98.295935
 20
83.886890
 30
0.0
 10
-98.295935
 20
83.886890
 30
0.0
  0
LINE
  5
2f5
100
AcDbEntity
  8
Layer_1
 62
3
100
AcDbLine
 10
-98.295935
 20
83.886890
 30
0.0
 11
-99.539519
 21
83.874990
 31
0.0
  0
LINE
  5
2f6
100
AcDbEntity
  8
Layer_1
 62
3
100
AcDbLine
 10
-99.539519
 20
83.874990
 30
0.0
 11
-99.666659
 21
84.629880
 31
0.0
  0
LINE
  5
2f7
100
AcDbEntity
  8
Layer_1
 62
3
100
AcDbLine
 10
-99.666659
 20
84.629880
 30
0.0
 11
-100.946000
 21
84.629880
 31
0.0
  0
LINE
  5
2f8
100
AcDbEntity
  8
Layer_1
 62
3
100
AcDbLine
 10
-100.946000
 20
84.629880
 30
0.0
 11
-101.065190
 21
83.874990
 31
0.0
  0
LINE
  5
2f9
100
AcDbEntity
  8
Layer_1
 62
3
100
AcDbLine
 10
-101.065190
 20
83.874990
 30
0.0
 11
-102.197530
 21
83.874990
 31
0.0
  0
SPLINE
  5
2fa
100
AcDbEntity
  8
Layer_1
 62
3
100
AcDbSpline
 70
8
 71
3
 72
8
 73
4
 74
0
 40
0
 40
0
 40
0
 40
0
 40
1
 40
1
 40
1
 40
1
 10
-102.197530
 20
83.874990
 30
0.0
 10
-102.197530
 20
83.874990
 30
0.0
 10
-101.879350
 20
85.188480
 30
0.0
 10
-101.740620
 20
85.766190
 30
0.0
  0
LINE
  5
2fb
100
AcDbEntity
  8
Layer_1
 62
3
100
AcDbLine
 10
-101.740620
 20
85.766190
 30
0.0
 11
-101.740620
 21
85.766170
 31
0.0
  0
ENDSEC
  0
SECTION
  2
OBJECTS
  0
DICTIONARY
  5
C
330
0
100
AcDbDictionary
  3
ACAD_GROUP
350
D
  3
ACAD_MLINESTYLE
350
17
  0
DICTIONARY
  5
D
330
C
100
AcDbDictionary
  0
DICTIONARY
  5
1A
330
C
100
AcDbDictionary
  0
DICTIONARY
  5
17
330
C
100
AcDbDictionary
  3
STANDARD
350
18
  0
DICTIONARY
  5
19
330
C
100
AcDbDictionary
  0
ENDSEC
  0
EOF
