  0
SECTION
  2
HEADER
  9
$ACADVER
  1
AC1009
  9
$INSBASE
 10
0.0
 20
0.0
 30
0.0
  9
$EXTMIN
 10
0.0
 20
0.0
 30
0.0
  9
$EXTMAX
 10
0.0
 20
0.0
 30
0.0
  0
ENDSEC
  0
SECTION
  2
TABLES
  0
TABLE
  2
VPORT
 70
0
  0
ENDTAB
  0
TABLE
  2
LTYPE
 70
1
  0
LTYPE
  2
CONTINUOUS
 70
0
  3
Solid line
 72
65
 73
0
 40
0.0
  0
ENDTAB
  0
TABLE
  2
LAYER
 70
1
  0
LAYER
  2
0
 70
64
 62
7
  6
continuous
  0
ENDTAB
  0
TABLE
  2
STYLE
 70
1
  0
STYLE
  2
STANDARD
 70
0
 40
0
 41
1.0
 50
0.0
 71
0
 42
1
 3
ARIAL.TTF
 4

  0
ENDTAB
  0
TABLE
  2
VIEW
 70
0
  0
ENDTAB
  0
ENDSEC
  0
SECTION
  2
BLOCKS
  0
BLOCK
  8
Body_Slices
  2
MYLAYER
 70
0
 10
0.0
 20
0.0
 30
0.0
  3
MYLAYER
  0
POLYLINE
  8
Body_Slices
 62
0
 70
1
 66
1
 10
0.0
 20
0.0
 30
0.0
  0
VERTEX
  8
Body_Slices
 10
65.0
 20
41.0
 30
0.0
 42
-1.0
  0
VERTEX
  8
Body_Slices
 10
65.0
 20
-41.0
 30
0.0
  0
VERTEX
  8
Body_Slices
 10
-65.0
 20
-41.0
 30
0.0
 42
-1.0
  0
VERTEX
  8
Body_Slices
 10
-65.0
 20
41.0
 30
0.0
  0
SEQEND
  8
Body_Slices
  0
CIRCLE
  8
Body_Slices
 62
0
 10
88.0
 20
-1.07768918325e-14
 30
0.0
 40
0.85
  0
CIRCLE
  8
Body_Slices
 62
0
 10
-88.0
 20
0.0
 30
0.0
 40
0.85
  0
ENDBLK
  0
BLOCK
  8
Body_Slices
  2
MYLAYER001
 70
0
 10
0.0
 20
0.0
 30
0.0
  3
MYLAYER001
  0
POLYLINE
  8
Body_Slices
 62
0
 70
1
 66
1
 10
0.0
 20
0.0
 30
0.0
  0
VERTEX
  8
Body_Slices
 10
282.0
 20
41.0
 30
0.0
 42
-1.0
  0
VERTEX
  8
Body_Slices
 10
282.0
 20
-41.0
 30
0.0
  0
VERTEX
  8
Body_Slices
 10
230.25
 20
-41.0
 30
0.0
  0
VERTEX
  8
Body_Slices
 10
230.25
 20
-6.0
 30
0.0
  0
VERTEX
  8
Body_Slices
 10
279.5
 20
-6.0
 30
0.0
 42
1.0
  0
VERTEX
  8
Body_Slices
 10
279.5
 20
6.0
 30
0.0
  0
VERTEX
  8
Body_Slices
 10
154.5
 20
6.0
 30
0.0
 42
1.0
  0
VERTEX
  8
Body_Slices
 10
154.5
 20
-6.0
 30
0.0
  0
VERTEX
  8
Body_Slices
 10
203.75
 20
-5.99999999996
 30
0.0
  0
VERTEX
  8
Body_Slices
 10
203.75
 20
-41.0
 30
0.0
  0
VERTEX
  8
Body_Slices
 10
152.0
 20
-41.0
 30
0.0
 42
-1.0
  0
VERTEX
  8
Body_Slices
 10
152.0
 20
41.0
 30
0.0
  0
SEQEND
  8
Body_Slices
  0
CIRCLE
  8
Body_Slices
 62
0
 10
305.0
 20
-1.07768918325e-14
 30
0.0
 40
0.85
  0
CIRCLE
  8
Body_Slices
 62
0
 10
129.0
 20
0.0
 30
0.0
 40
0.85
  0
ENDBLK
  0
BLOCK
  8
Body_Slices
  2
MYLAYER002
 70
0
 10
0.0
 20
0.0
 30
0.0
  3
MYLAYER002
  0
POLYLINE
  8
Body_Slices
 62
0
 70
1
 66
1
 10
0.0
 20
0.0
 30
0.0
  0
VERTEX
  8
Body_Slices
 10
65.0
 20
128.0
 30
0.0
 42
-1.0
  0
VERTEX
  8
Body_Slices
 10
65.0
 20
46.0
 30
0.0
  0
VERTEX
  8
Body_Slices
 10
13.25
 20
46.0
 30
0.0
  0
VERTEX
  8
Body_Slices
 10
13.25
 20
81.0
 30
0.0
  0
VERTEX
  8
Body_Slices
 10
62.5
 20
81.0
 30
0.0
 42
1.0
  0
VERTEX
  8
Body_Slices
 10
62.5
 20
93.0
 30
0.0
  0
VERTEX
  8
Body_Slices
 10
-62.5
 20
93.0
 30
0.0
 42
1.0
  0
VERTEX
  8
Body_Slices
 10
-62.5
 20
81.0
 30
0.0
  0
VERTEX
  8
Body_Slices
 10
-13.25
 20
81.0
 30
0.0
  0
VERTEX
  8
Body_Slices
 10
-13.25
 20
46.0
 30
0.0
  0
VERTEX
  8
Body_Slices
 10
-65.0
 20
46.0
 30
0.0
 42
-1.0
  0
VERTEX
  8
Body_Slices
 10
-65.0
 20
128.0
 30
0.0
  0
SEQEND
  8
Body_Slices
  0
CIRCLE
  8
Body_Slices
 62
0
 10
-88.0
 20
87.0
 30
0.0
 40
0.85
  0
CIRCLE
  8
Body_Slices
 62
0
 10
88.0
 20
87.0
 30
0.0
 40
0.85
  0
ENDBLK
  0
BLOCK
  8
Body_Slices
  2
MYLAYER003
 70
0
 10
0.0
 20
0.0
 30
0.0
  3
MYLAYER003
  0
POLYLINE
  8
Body_Slices
 62
0
 70
1
 66
1
 10
0.0
 20
0.0
 30
0.0
  0
VERTEX
  8
Body_Slices
 10
282.0
 20
128.0
 30
0.0
 42
-1.0
  0
VERTEX
  8
Body_Slices
 10
282.0
 20
46.0
 30
0.0
  0
VERTEX
  8
Body_Slices
 10
152.0
 20
46.0
 30
0.0
 42
-1.0
  0
VERTEX
  8
Body_Slices
 10
152.0
 20
128.0
 30
0.0
  0
SEQEND
  8
Body_Slices
  0
CIRCLE
  8
Body_Slices
 62
0
 10
305.0
 20
87.0
 30
0.0
 40
0.85
  0
CIRCLE
  8
Body_Slices
 62
0
 10
129.0
 20
87.0
 30
0.0
 40
0.85
  0
POLYLINE
  8
Body_Slices
 62
0
 70
1
 66
1
 10
0.0
 20
0.0
 30
0.0
  0
VERTEX
  8
Body_Slices
 10
153.5
 20
84.0
 30
0.0
  0
VERTEX
  8
Body_Slices
 10
153.5
 20
90.0
 30
0.0
  0
VERTEX
  8
Body_Slices
 10
280.5
 20
90.0
 30
0.0
  0
VERTEX
  8
Body_Slices
 10
280.5
 20
84.0
 30
0.0
  0
SEQEND
  8
Body_Slices
  0
ENDBLK
  0
ENDSEC
  0
SECTION
  2
ENTITIES
  0
INSERT
  2
MYLAYER
  8
Body_Slices
 62
0
 10
0.0
 20
0.0
 30
0.0
  0
INSERT
  2
MYLAYER001
  8
Body_Slices
 62
0
 10
0.0
 20
0.0
 30
0.0
  0
INSERT
  2
MYLAYER002
  8
Body_Slices
 62
0
 10
0.0
 20
0.0
 30
0.0
  0
INSERT
  2
MYLAYER003
  8
Body_Slices
 62
0
 10
0.0
 20
0.0
 30
0.0
  0
ENDSEC
  0
EOF
