<?xml version="1.0" encoding="UTF-8" standalone="no"?>
<svg
   xmlns:dc="http://purl.org/dc/elements/1.1/"
   xmlns:cc="http://creativecommons.org/ns#"
   xmlns:rdf="http://www.w3.org/1999/02/22-rdf-syntax-ns#"
   xmlns:svg="http://www.w3.org/2000/svg"
   xmlns="http://www.w3.org/2000/svg"
   xmlns:sodipodi="http://sodipodi.sourceforge.net/DTD/sodipodi-0.dtd"
   xmlns:inkscape="http://www.inkscape.org/namespaces/inkscape"
   width="567.123125887mm"
   height="146.110063225mm"
   viewBox="0 0 567.123125887 146.110063225"
   version="1.1"
   id="svg36"
   sodipodi:docname="Acry-Oval-Base-10-Tiny-FreeCAD-Flat-Thin-Lines-Vents.svg"
   inkscape:version="0.92.3 (2405546, 2018-03-11)">
  <metadata
     id="metadata42">
    <rdf:RDF>
      <cc:Work
         rdf:about="">
        <dc:format>image/svg+xml</dc:format>
        <dc:type
           rdf:resource="http://purl.org/dc/dcmitype/StillImage" />
        <dc:title></dc:title>
      </cc:Work>
    </rdf:RDF>
  </metadata>
  <defs
     id="defs40" />
  <sodipodi:namedview
     pagecolor="#ffffff"
     bordercolor="#666666"
     borderopacity="1"
     objecttolerance="10"
     gridtolerance="10"
     guidetolerance="10"
     inkscape:pageopacity="0"
     inkscape:pageshadow="2"
     inkscape:window-width="1680"
     inkscape:window-height="999"
     id="namedview38"
     showgrid="false"
     inkscape:measure-start="1037.71,104.158"
     inkscape:measure-end="1049.05,104.158"
     inkscape:zoom="1.2129935"
     inkscape:cx="278.7544"
     inkscape:cy="-92.558786"
     inkscape:window-x="0"
     inkscape:window-y="25"
     inkscape:window-maximized="1"
     inkscape:current-layer="svg36" />
  <g
     id="MyLayer"
     transform="matrix(1,0,0,-1,96.559929,108.03602)"
     style="fill:none;stroke:#000000;stroke-width:0.1;stroke-miterlimit:4;stroke-dasharray:none;stroke-opacity:1">
    <path
       id="MyLayer_w0000"
       d="m 91.001374,0 c 0.01637,-3.3524928 -1.520173,-6.5215231 -3.61333,-9.0672109 C 83.798789,-13.396711 78.926986,-16.428433 73.956285,-18.937441 68.25314,-21.690755 62.34307,-23.8964 56.226073,-25.554374 37.94791,-30.586341 18.917161,-32.439331 -5.8059011e-7,-32.5 -18.762188,-32.441774 -37.63183,-30.613391 -55.775383,-25.680038 c -8.138263,2.286972 -16.205029,5.181696 -23.412534,9.666399 -4.917095,3.153242 -9.895964,7.2818954 -11.46161,13.1584752 -1.127405,4.2235184 0.525218,8.6849492 3.261482,11.9223747 1.629905,1.9447031 3.476883,3.6577201 5.540932,5.1390511 7.651814,5.496667 16.632359,8.76747 25.62104,11.348112 C -37.94791,30.586341 -18.917161,32.439331 5.806347e-7,32.5 18.762188,32.441774 37.63183,30.613391 55.775383,25.680038 63.913646,23.393066 71.980412,20.498342 79.187917,16.013639 81.514204,14.57704 83.658712,12.908821 85.621442,11.008982 88.57587,8.1088022 91.015746,4.2697892 91.001374,0"
       style="fill:none;fill-rule:evenodd;stroke:#000000;stroke-width:0.1;stroke-miterlimit:4;stroke-dasharray:none;stroke-opacity:1"
       inkscape:connector-curvature="0" />
    <circle
       cx="86"
       cy="0"
       r="0.85000002"
       style="fill:none;stroke:#000000;stroke-width:0.1;stroke-miterlimit:4;stroke-dasharray:none;stroke-opacity:1"
       id="circle3" />
    <circle
       cx="-86"
       cy="0"
       r="0.85000002"
       style="fill:none;stroke:#000000;stroke-width:0.1;stroke-miterlimit:4;stroke-dasharray:none;stroke-opacity:1"
       id="circle5" />
    <title
       id="title7">MyLayer</title>
  </g>
  <g
     id="MyLayer002"
     transform="translate(96.559929,108.051641) scale(1,-1)"
     style="stroke-width:0.1;stroke-miterlimit:4;stroke-dasharray:none;stroke:#000000;stroke-opacity:1;fill:none">
    <path
       id="MyLayer002_w0000"
       d="M 465.003165888 0.0 C 465.019533776 -3.35249283394 463.482993738 -6.521523103 461.389836632 -9.0672109495 C 457.800580825 -13.3967106066 452.928778307 -16.4284325931 447.958077262 -18.9374405619 C 442.254932771 -21.6907551998 436.344862255 -23.8963996887 430.227865712 -25.5543740286 C 411.949702176 -30.5863409601 392.918953425 -32.4393308942 374.001791691 -32.4999999049 C 355.239604418 -32.4417739563 336.369962116 -30.6133905329 318.226409304 -25.6800377673 C 310.088146368 -23.3930663674 302.021380135 -20.49834174 294.813875463 -16.0136385913 C 289.896780448 -12.8603973252 284.917911643 -8.73174362687 283.352265652 -2.85516379944 C 282.224860704 1.36835461706 283.877483671 5.8297853731 286.613747756 9.06721093913 C 288.243652681 11.0119137763 290.090629788 12.7249309335 292.15467908 14.2062624107 C 299.806493147 19.7029290423 308.787037946 22.9737315525 317.775718831 25.5543740286 C 336.053882366 30.58634096 355.084631118 32.4393308942 374.001792852 32.4999999049 C 392.763980125 32.4417739563 411.633622428 30.6133905328 429.777175239 25.6800377673 C 437.915438175 23.3930663674 445.982204408 20.4983417401 453.18970908 16.0136385913 C 455.515995799 14.5770395223 457.660504206 12.9088207949 459.623234302 11.008982409 C 462.577662113 8.10880222558 465.017537868 4.26978916508 465.003165888 0.0 "
       stroke="#191919"
       stroke-width="0.35 px"
       style="stroke-width:0.1;stroke-miterlimit:4;stroke-dasharray:none;fill:none;fill-rule:evenodd;stroke:#000000;stroke-opacity:1" />
    <circle
       cx="288.001792272"
       cy="0.0"
       r="0.85"
       stroke="#191919"
       stroke-width="0.35 px"
       style="stroke-width:0.1;stroke-miterlimit:4;stroke-dasharray:none;fill:none;stroke:#000000;stroke-opacity:1"
       id="circle11" />
    <circle
       cx="460.001792272"
       cy="0.0"
       r="0.85"
       stroke="#191919"
       stroke-width="0.35 px"
       style="stroke-width:0.1;stroke-miterlimit:4;stroke-dasharray:none;fill:none;stroke:#000000;stroke-opacity:1"
       id="circle13" />
    <path
       id="MyLayer002_w0003"
       d="M 456.076792272 -2.22 L 456.076792272 2.22 L 291.926792272 2.22 L 291.926792272 -2.22 L 456.076792272 -2.22 "
       stroke="#191919"
       stroke-width="0.35 px"
       style="stroke-width:0.1;stroke-miterlimit:4;stroke-dasharray:none;fill:none;fill-rule:evenodd;stroke:#000000;stroke-opacity:1" />
    <title
       id="title16">MyLayer002</title>
  </g>
  <g
     id="MyLayer001"
     transform="matrix(1,0,0,-1,-90.440967,108.05164)"
     style="fill:none;stroke:#000000;stroke-width:0.1;stroke-miterlimit:4;stroke-dasharray:none;stroke-opacity:1">
    <path
       id="MyLayer001_w0000"
       d="m 191.0009,-30.5 h 5 v 20 h -3 V -5 h 77.5 V 5 h -77.5 -12 -77.5 V -5 h 77.5 v -5.5 h -3 v -20 h 5 v -1.968589 c -11.65943,0.155107 -23.2416,1.175677 -34.7465,3.06171 -10.83701,1.850846 -21.61828,4.47553 -31.73435,8.848349 -5.46564,2.419924 -10.83386,5.343039 -15.1406,9.549548 -2.424707,2.2701377 -4.100735,4.9880772 -5.02808,8.1538182 -1.127405,4.2235184 0.525218,8.6849492 3.261482,11.9223747 3.589258,4.3295001 8.461058,7.3612221 13.431758,9.8702301 5.70315,2.753314 11.61322,4.958959 17.73021,6.616933 18.27817,5.031967 37.30891,6.884957 56.22608,6.945626 13.00185,0.03279 25.91735,-0.998247 38.7465,-3.093121 10.837,-1.850846 21.61827,-4.47553 31.73434,-8.848349 5.46564,-2.419924 10.83386,-5.343039 15.1406,-9.549548 2.95443,-2.9001798 5.3943,-6.7391928 5.37993,-11.008982 0.0164,-3.3524928 -1.52017,-6.5215231 -3.61333,-9.0672109 -3.58926,-4.3295001 -8.46106,-7.3612221 -13.43176,-9.8702301 -5.70314,-2.753314 -11.61321,-4.958959 -17.73021,-6.616933 -16.98658,-4.6895 -34.64105,-6.58914 -52.22607,-6.914215 l 0,1.968589"
       style="fill:none;fill-rule:evenodd;stroke:#000000;stroke-width:0.1;stroke-miterlimit:4;stroke-dasharray:none;stroke-opacity:1"
       inkscape:connector-curvature="0" />
    <circle
       cx="273.00089"
       cy="0"
       r="0.85000002"
       style="fill:none;stroke:#000000;stroke-width:0.1;stroke-miterlimit:4;stroke-dasharray:none;stroke-opacity:1"
       id="circle20" />
    <circle
       cx="101.00089"
       cy="0"
       r="0.85000002"
       style="fill:none;stroke:#000000;stroke-width:0.1;stroke-miterlimit:4;stroke-dasharray:none;stroke-opacity:1"
       id="circle22" />
    <title
       id="title24">MyLayer001</title>
  </g>
  <g
     id="MyLayer003"
     transform="translate(96.559929,108.051641) scale(1,-1)"
     style="stroke-width:0.1;stroke-miterlimit:4;stroke-dasharray:none;stroke:#000000;stroke-opacity:1;fill:none">
    <path
       id="MyLayer003_w0000"
       d="M 91.001373616 69.9978609461 C 91.0177415041 66.6453681121 89.4812014663 63.4763378431 87.3880443605 60.9306499966 C 83.7987885537 56.6011503396 78.9269860354 53.569428353 73.9562849907 51.0604203841 C 68.2531404999 48.3071057463 62.3430699832 46.1014612574 56.2260734408 44.4434869174 C 37.9479099051 39.411519986 18.9171611539 37.5585300519 -5.80575851928e-07 37.4978610411 C -18.7621878541 37.5560869897 -37.6318301564 39.3844704133 -55.7753829671 44.3178231787 C -63.9136459037 46.6047945787 -71.9804121367 49.4995192059 -79.1879168089 53.9842223547 C -84.1050118239 57.1374636208 -89.0838806283 61.2661173192 -90.6495266195 67.1426971466 C -91.7769315673 71.3662155631 -90.1243086003 75.8276463191 -87.3880445153 79.0650718852 C -85.7581395909 81.0097747223 -83.9111624831 82.7227918795 -81.8471131917 84.2041233567 C -74.1952991247 89.7007899883 -65.2147543258 92.9715924986 -56.2260734408 95.5522349747 C -37.9479099052 100.584201906 -18.9171611539 102.43719184 5.80576468678e-07 102.497860851 C 18.762187854 102.439634902 37.6318301562 100.611251479 55.7753829671 95.6778987134 C 63.9136459037 93.3909273134 71.9804121367 90.4962026862 79.1879168089 86.0114995374 C 81.5142035272 84.5749004683 83.6587119342 82.9066817409 85.6214420302 81.0068433551 C 88.5758698414 78.1066631717 91.0157455961 74.2676501112 91.001373616 69.9978609461 "
       stroke="#191919"
       stroke-width="0.35 px"
       style="stroke-width:0.1;stroke-miterlimit:4;stroke-dasharray:none;fill:none;fill-rule:evenodd;stroke:#000000;stroke-opacity:1" />
    <circle
       cx="-86.0"
       cy="69.9978609461"
       r="0.85"
       stroke="#191919"
       stroke-width="0.35 px"
       style="stroke-width:0.1;stroke-miterlimit:4;stroke-dasharray:none;fill:none;stroke:#000000;stroke-opacity:1"
       id="circle28" />
    <circle
       cx="86.0"
       cy="69.9978609461"
       r="0.85"
       stroke="#191919"
       stroke-width="0.35 px"
       style="stroke-width:0.1;stroke-miterlimit:4;stroke-dasharray:none;fill:none;stroke:#000000;stroke-opacity:1"
       id="circle30" />
    <path
       id="MyLayer003_w0003"
       d="M -76.075 67.7478609461 L -76.075 72.2478609461 L 76.075 72.2478609461 L 76.075 67.7478609461 L -76.075 67.7478609461 "
       stroke="#191919"
       stroke-width="0.35 px"
       style="stroke-width:0.1;stroke-miterlimit:4;stroke-dasharray:none;fill:none;fill-rule:evenodd;stroke:#000000;stroke-opacity:1" />
    <title
       id="title33">MyLayer003</title>
  </g>
  <g
     id="layer1"
     inkscape:label="Livello 1"
     transform="matrix(0.0178338,0,0,0.0178338,89.867769,119.44389)"
     style="fill:none;stroke:#ff0000;stroke-width:3.43951106;stroke-miterlimit:4;stroke-dasharray:none;stroke-opacity:1">
    <path
       inkscape:export-filename="C:\Users\tore\Dropbox\OSHW\logo\LOGO.png"
       inkscape:export-ydpi="90"
       inkscape:export-xdpi="90"
       style="fill:none;stroke:#ff0000;stroke-width:3.43951106;stroke-miterlimit:4;stroke-dasharray:none;stroke-opacity:1"
       inkscape:connector-curvature="0"
       d="m 706.14808,504.68686 -82.195,-15.285 c -2,-0.375 -4.19,-2.255 -4.865,-4.185 l -25.195,-58.78 c -0.94,-1.815 -0.76,-4.665 0.4,-6.355 l 47.89,-69.8 c 1.145,-1.68 0.92,-4.235 -0.525,-5.68 l -59.815,-59.815 c -1.445,-1.445 -3.995,-1.68 -5.675,-0.525 l -71.025,48.74 c -1.68,1.155 -4.56,1.36 -6.385,0.46 l -56.98,-23.325 c -1.935,-0.64 -3.82,-2.805 -4.2,-4.81 l -15.825,-85.015 c -0.37,-2.005 -2.345,-3.645 -4.385,-3.645 h -84.6 c -2.035,0 -4.01,1.64 -4.38,3.645 l -15.82,85.015 c -0.38,2.005 -2.26,4.17 -4.2,4.81 l -56.985,23.325 c -1.83,0.9 -4.71,0.695 -6.385,-0.46 l -71.02,-48.74 c -1.685,-1.155 -4.24,-0.92 -5.68,0.525 l -59.82,59.815 c -1.44,1.445 -1.68,4 -0.525,5.68 l 47.895,69.8 c 1.15,1.69 1.33,4.54 0.395,6.355 l -25.2,58.78 c -0.67,1.93 -2.855,3.81 -4.865,4.185 l -82.190007,15.285 c -2.01,0.38 -3.645,2.35 -3.645,4.39 l 0.005,84.595 c 0,2.04 1.64,4.025 3.645,4.39 l 80.175007,14.92 c 2.005,0.365 4.15,2.27 4.76,4.215 l 25.03,62.525 c 0.895,1.835 0.685,4.705 -0.475,6.385 l -45.54,66.36496 c -1.15,1.68 -0.915,4.24 0.525,5.685 l 59.825,59.815 c 1.44,1.435 3.995,1.67 5.68,0.525 l 65.19,-44.745 c 1.68,-1.15 4.495,-1.24 6.25,-0.215 l 28.75,15.35 c 1.82,0.93 3.945,0.145 4.725,-1.74 l 59.28,-143.23496 c 0.785,-1.885 0,-4.29 -1.74,-5.355 l -7.195,-4.405 c -1.33,-0.81 -3.135,-2.205 -4.55,-3.485 -25.955,-16.62 -43.175,-45.695 -43.175,-78.805 0,-51.67 41.89,-93.555 93.555,-93.555 51.665,0 93.55,41.885 93.55,93.555 0,33.11 -17.215,62.185 -43.175,78.805 -1.405,1.28 -3.215,2.675 -4.54,3.485 l -7.195,4.405 c -1.73,1.065 -2.52,3.47 -1.74,5.355 l 59.275,143.23996 c 0.78,1.885 2.9,2.665 4.725,1.74 l 28.75,-15.35 c 1.76,-1.025 4.57,-0.94 6.25,0.215 l 65.195,44.745 c 1.68,1.145 4.24,0.91 5.675,-0.525 l 59.825,-59.815 c 1.445,-1.445 1.68,-4.005 0.525,-5.685 l -45.545,-66.36496 c -1.15,-1.68 -1.365,-4.55 -0.47,-6.385 l 25.03,-62.525 c 0.615,-1.945 2.745,-3.85 4.755,-4.215 l 80.175,-14.92 c 2,-0.365 3.645,-2.35 3.645,-4.39 l 0.01,-84.595 c 0.005,-2.045 -1.635,-4.015 -3.635,-4.395"
       id="path4045-5" />
  </g>
  <path
     sodipodi:type="star"
     style="opacity:1;fill:none;fill-opacity:1;stroke:#ff0000;stroke-width:0.1;stroke-linejoin:round;stroke-miterlimit:4;stroke-dasharray:none;stroke-opacity:1"
     id="use6900"
     sodipodi:sides="6"
     sodipodi:cx="22.113948"
     sodipodi:cy="108.03602"
     sodipodi:r1="2.8161826"
     sodipodi:r2="2.4388855"
     sodipodi:arg1="0.52359878"
     sodipodi:arg2="1.0471976"
     inkscape:flatsided="true"
     inkscape:rounded="0"
     inkscape:randomized="0"
     d="m 24.552835,109.44411 -2.438886,1.40809 -2.438886,-1.40809 0,-2.81618 2.438886,-1.40809 2.438886,1.40809 z"
     inkscape:transform-center-y="5.4430753e-06"
     inkscape:tile-x0="121.34033"
     inkscape:tile-y0="221.18023"
     inkscape:transform-center-x="1.8936673e-06" />
  <path
     sodipodi:type="star"
     style="opacity:1;fill:none;fill-opacity:1;stroke:#ff0000;stroke-width:0.1;stroke-linejoin:round;stroke-miterlimit:4;stroke-dasharray:none;stroke-opacity:1"
     id="use6912"
     sodipodi:sides="6"
     sodipodi:cx="38.656752"
     sodipodi:cy="108.03602"
     sodipodi:r1="2.8161826"
     sodipodi:r2="2.4388855"
     sodipodi:arg1="0.52359878"
     sodipodi:arg2="1.0471976"
     inkscape:flatsided="true"
     inkscape:rounded="0"
     inkscape:randomized="0"
     d="m 41.095639,109.44411 -2.438885,1.40809 -2.438886,-1.40809 0,-2.81618 2.438886,-1.40809 2.438885,1.40809 z"
     inkscape:transform-center-y="5.4430753e-06"
     inkscape:tile-x0="121.34033"
     inkscape:tile-y0="221.18023"
     inkscape:transform-center-x="1.8936673e-06" />
  <path
     sodipodi:type="star"
     style="opacity:1;fill:none;fill-opacity:1;stroke:#ff0000;stroke-width:0.1;stroke-linejoin:round;stroke-miterlimit:4;stroke-dasharray:none;stroke-opacity:1"
     id="use6924"
     sodipodi:sides="6"
     sodipodi:cx="55.199557"
     sodipodi:cy="108.03602"
     sodipodi:r1="2.8161826"
     sodipodi:r2="2.4388855"
     sodipodi:arg1="0.52359878"
     sodipodi:arg2="1.0471976"
     inkscape:flatsided="true"
     inkscape:rounded="0"
     inkscape:randomized="0"
     d="m 57.638444,109.44411 -2.438886,1.40809 -2.438885,-1.40809 0,-2.81618 2.438885,-1.40809 2.438886,1.40809 z"
     inkscape:transform-center-y="5.4430753e-06"
     inkscape:tile-x0="121.34033"
     inkscape:tile-y0="221.18023"
     inkscape:transform-center-x="1.8936673e-06" />
  <path
     sodipodi:type="star"
     style="opacity:1;fill:none;fill-opacity:1;stroke:#ff0000;stroke-width:0.1;stroke-linejoin:round;stroke-miterlimit:4;stroke-dasharray:none;stroke-opacity:1"
     id="use6936"
     sodipodi:sides="6"
     sodipodi:cx="71.742362"
     sodipodi:cy="108.03602"
     sodipodi:r1="2.8161826"
     sodipodi:r2="2.4388855"
     sodipodi:arg1="0.52359878"
     sodipodi:arg2="1.0471976"
     inkscape:flatsided="true"
     inkscape:rounded="0"
     inkscape:randomized="0"
     d="m 74.181249,109.44411 -2.438886,1.40809 -2.438886,-1.40809 0,-2.81618 2.438886,-1.40809 2.438886,1.40809 z"
     inkscape:transform-center-y="5.4430753e-06"
     inkscape:tile-x0="121.34033"
     inkscape:tile-y0="221.18023"
     inkscape:transform-center-x="1.8936673e-06" />
  <path
     sodipodi:type="star"
     style="opacity:1;fill:none;fill-opacity:1;stroke:#ff0000;stroke-width:0.1;stroke-linejoin:round;stroke-miterlimit:4;stroke-dasharray:none;stroke-opacity:1"
     id="use6948"
     sodipodi:sides="6"
     sodipodi:cx="88.28517"
     sodipodi:cy="108.03602"
     sodipodi:r1="2.8161826"
     sodipodi:r2="2.4388855"
     sodipodi:arg1="0.52359878"
     sodipodi:arg2="1.0471976"
     inkscape:flatsided="true"
     inkscape:rounded="0"
     inkscape:randomized="0"
     d="m 90.724057,109.44411 -2.438886,1.40809 -2.438885,-1.40809 0,-2.81618 2.438886,-1.40809 2.438885,1.40809 z"
     inkscape:transform-center-y="5.4430753e-06"
     inkscape:tile-x0="121.34033"
     inkscape:tile-y0="221.18023"
     inkscape:transform-center-x="1.8936673e-06" />
  <path
     sodipodi:type="star"
     style="opacity:1;fill:none;fill-opacity:1;stroke:#ff0000;stroke-width:0.1;stroke-linejoin:round;stroke-miterlimit:4;stroke-dasharray:none;stroke-opacity:1"
     id="use6960"
     sodipodi:sides="6"
     sodipodi:cx="104.82797"
     sodipodi:cy="108.03602"
     sodipodi:r1="2.8161826"
     sodipodi:r2="2.4388855"
     sodipodi:arg1="0.52359878"
     sodipodi:arg2="1.0471976"
     inkscape:flatsided="true"
     inkscape:rounded="0"
     inkscape:randomized="0"
     d="m 107.26686,109.44411 -2.43889,1.40809 -2.43888,-1.40809 0,-2.81618 2.43888,-1.40809 2.43889,1.40809 z"
     inkscape:transform-center-y="5.4430753e-06"
     inkscape:tile-x0="121.34033"
     inkscape:tile-y0="221.18023"
     inkscape:transform-center-x="1.8936673e-06" />
  <path
     sodipodi:type="star"
     style="opacity:1;fill:none;fill-opacity:1;stroke:#ff0000;stroke-width:0.1;stroke-linejoin:round;stroke-miterlimit:4;stroke-dasharray:none;stroke-opacity:1"
     id="use6972"
     sodipodi:sides="6"
     sodipodi:cx="121.37077"
     sodipodi:cy="108.03602"
     sodipodi:r1="2.8161826"
     sodipodi:r2="2.4388855"
     sodipodi:arg1="0.52359878"
     sodipodi:arg2="1.0471976"
     inkscape:flatsided="true"
     inkscape:rounded="0"
     inkscape:randomized="0"
     d="m 123.80966,109.44411 -2.43889,1.40809 -2.43888,-1.40809 0,-2.81618 2.43888,-1.40809 2.43889,1.40809 z"
     inkscape:transform-center-y="5.4430753e-06"
     inkscape:tile-x0="121.34033"
     inkscape:tile-y0="221.18023"
     inkscape:transform-center-x="1.8936673e-06" />
  <path
     sodipodi:type="star"
     style="opacity:1;fill:none;fill-opacity:1;stroke:#ff0000;stroke-width:0.1;stroke-linejoin:round;stroke-miterlimit:4;stroke-dasharray:none;stroke-opacity:1"
     id="use6984"
     sodipodi:sides="6"
     sodipodi:cx="137.91359"
     sodipodi:cy="108.03602"
     sodipodi:r1="2.8161826"
     sodipodi:r2="2.4388855"
     sodipodi:arg1="0.52359878"
     sodipodi:arg2="1.0471976"
     inkscape:flatsided="true"
     inkscape:rounded="0"
     inkscape:randomized="0"
     d="m 140.35248,109.44411 -2.43889,1.40809 -2.43889,-1.40809 0,-2.81618 2.43889,-1.40809 2.43889,1.40809 z"
     inkscape:transform-center-y="5.4430753e-06"
     inkscape:tile-x0="121.34033"
     inkscape:tile-y0="221.18023"
     inkscape:transform-center-x="1.8936673e-06" />
  <path
     sodipodi:type="star"
     style="opacity:1;fill:none;fill-opacity:1;stroke:#ff0000;stroke-width:0.1;stroke-linejoin:round;stroke-miterlimit:4;stroke-dasharray:none;stroke-opacity:1"
     id="use6996"
     sodipodi:sides="6"
     sodipodi:cx="154.45639"
     sodipodi:cy="108.03602"
     sodipodi:r1="2.8161826"
     sodipodi:r2="2.4388855"
     sodipodi:arg1="0.52359878"
     sodipodi:arg2="1.0471976"
     inkscape:flatsided="true"
     inkscape:rounded="0"
     inkscape:randomized="0"
     d="m 156.89528,109.44411 -2.43889,1.40809 -2.43889,-1.40809 0,-2.81618 2.43889,-1.40809 2.43889,1.40809 z"
     inkscape:transform-center-y="5.4430753e-06"
     inkscape:tile-x0="121.34033"
     inkscape:tile-y0="221.18023"
     inkscape:transform-center-x="1.8936673e-06" />
  <path
     sodipodi:type="star"
     style="opacity:1;fill:none;fill-opacity:1;stroke:#ff0000;stroke-width:0.1;stroke-linejoin:round;stroke-miterlimit:4;stroke-dasharray:none;stroke-opacity:1"
     id="use7008"
     sodipodi:sides="6"
     sodipodi:cx="170.99919"
     sodipodi:cy="108.03602"
     sodipodi:r1="2.8161826"
     sodipodi:r2="2.4388855"
     sodipodi:arg1="0.52359878"
     sodipodi:arg2="1.0471976"
     inkscape:flatsided="true"
     inkscape:rounded="0"
     inkscape:randomized="0"
     d="m 173.43808,109.44411 -2.43889,1.40809 -2.43888,-1.40809 0,-2.81618 2.43888,-1.40809 2.43889,1.40809 z"
     inkscape:transform-center-y="5.4430753e-06"
     inkscape:tile-x0="121.34033"
     inkscape:tile-y0="221.18023"
     inkscape:transform-center-x="1.8936673e-06" />
</svg>
