<?xml version="1.0" encoding="UTF-8" standalone="no"?>
<svg
   xmlns:dc="http://purl.org/dc/elements/1.1/"
   xmlns:cc="http://creativecommons.org/ns#"
   xmlns:rdf="http://www.w3.org/1999/02/22-rdf-syntax-ns#"
   xmlns:svg="http://www.w3.org/2000/svg"
   xmlns="http://www.w3.org/2000/svg"
   xmlns:sodipodi="http://sodipodi.sourceforge.net/DTD/sodipodi-0.dtd"
   xmlns:inkscape="http://www.inkscape.org/namespaces/inkscape"
   width="567.123125887mm"
   height="146.110063225mm"
   viewBox="0 0 567.123125887 146.110063225"
   version="1.1"
   id="svg36"
   sodipodi:docname="Acry-Oval-Base-10-Tiny-FreeCAD-Flat-Thin-Lines.svg"
   inkscape:version="0.92.3 (2405546, 2018-03-11)">
  <metadata
     id="metadata42">
    <rdf:RDF>
      <cc:Work
         rdf:about="">
        <dc:format>image/svg+xml</dc:format>
        <dc:type
           rdf:resource="http://purl.org/dc/dcmitype/StillImage" />
        <dc:title></dc:title>
      </cc:Work>
    </rdf:RDF>
  </metadata>
  <defs
     id="defs40" />
  <sodipodi:namedview
     pagecolor="#ffffff"
     bordercolor="#666666"
     borderopacity="1"
     objecttolerance="10"
     gridtolerance="10"
     guidetolerance="10"
     inkscape:pageopacity="0"
     inkscape:pageshadow="2"
     inkscape:window-width="1680"
     inkscape:window-height="999"
     id="namedview38"
     showgrid="false"
     inkscape:measure-start="1037.71,104.158"
     inkscape:measure-end="1049.05,104.158"
     inkscape:zoom="0.60649677"
     inkscape:cx="852.45161"
     inkscape:cy="151.80923"
     inkscape:window-x="0"
     inkscape:window-y="25"
     inkscape:window-maximized="1"
     inkscape:current-layer="svg36" />
  <g
     id="MyLayer"
     transform="translate(96.559929,108.051641) scale(1,-1)"
     style="stroke-width:0.1;stroke-miterlimit:4;stroke-dasharray:none;stroke:#000000;stroke-opacity:1;fill:none">
    <path
       id="MyLayer_w0000"
       d="M 91.001373616 0.0 C 91.0177415041 -3.35249283393 89.4812014663 -6.52152310298 87.3880443605 -9.0672109495 C 83.7987885535 -13.3967106066 78.9269860352 -16.4284325931 73.9562849907 -18.9374405619 C 68.2531404999 -21.6907551998 62.3430699832 -23.8963996887 56.2260734408 -25.5543740286 C 37.9479099052 -30.58634096 18.9171611539 -32.4393308942 -5.80590114652e-07 -32.4999999049 C -18.7621878541 -32.4417739563 -37.6318301565 -30.6133905327 -55.7753829671 -25.6800377673 C -63.9136459038 -23.3930663674 -71.9804121367 -20.4983417401 -79.1879168089 -16.0136385913 C -84.105011824 -12.8603973252 -89.0838806284 -8.73174362677 -90.6495266195 -2.85516379944 C -91.7769315673 1.36835461704 -90.1243086003 5.82978537309 -87.3880445153 9.06721093912 C -85.7581395909 11.0119137763 -83.9111624831 12.7249309335 -81.8471131917 14.2062624107 C -74.1952991246 19.7029290423 -65.2147543258 22.9737315525 -56.2260734408 25.5543740286 C -37.9479099053 30.58634096 -18.917161154 32.4393308942 5.80634696947e-07 32.4999999049 C 18.7621878539 32.4417739563 37.631830156 30.6133905328 55.7753829671 25.6800377673 C 63.9136459037 23.3930663674 71.9804121367 20.4983417401 79.1879168089 16.0136385913 C 81.5142035272 14.5770395223 83.6587119343 12.9088207949 85.6214420302 11.008982409 C 88.5758698414 8.10880222559 91.0157455961 4.26978916509 91.001373616 0.0 "
       stroke="#191919"
       stroke-width="0.35 px"
       style="stroke-width:0.1;stroke-miterlimit:4;stroke-dasharray:none;fill:none;fill-rule:evenodd;stroke:#000000;stroke-opacity:1" />
    <circle
       cx="86.0"
       cy="0.0"
       r="0.85"
       stroke="#191919"
       stroke-width="0.35 px"
       style="stroke-width:0.1;stroke-miterlimit:4;stroke-dasharray:none;fill:none;stroke:#000000;stroke-opacity:1"
       id="circle3" />
    <circle
       cx="-86.0"
       cy="0.0"
       r="0.85"
       stroke="#191919"
       stroke-width="0.35 px"
       style="stroke-width:0.1;stroke-miterlimit:4;stroke-dasharray:none;fill:none;stroke:#000000;stroke-opacity:1"
       id="circle5" />
    <title
       id="title7">MyLayer</title>
  </g>
  <g
     id="MyLayer002"
     transform="translate(96.559929,108.051641) scale(1,-1)"
     style="stroke-width:0.1;stroke-miterlimit:4;stroke-dasharray:none;stroke:#000000;stroke-opacity:1;fill:none">
    <path
       id="MyLayer002_w0000"
       d="M 465.003165888 0.0 C 465.019533776 -3.35249283394 463.482993738 -6.521523103 461.389836632 -9.0672109495 C 457.800580825 -13.3967106066 452.928778307 -16.4284325931 447.958077262 -18.9374405619 C 442.254932771 -21.6907551998 436.344862255 -23.8963996887 430.227865712 -25.5543740286 C 411.949702176 -30.5863409601 392.918953425 -32.4393308942 374.001791691 -32.4999999049 C 355.239604418 -32.4417739563 336.369962116 -30.6133905329 318.226409304 -25.6800377673 C 310.088146368 -23.3930663674 302.021380135 -20.49834174 294.813875463 -16.0136385913 C 289.896780448 -12.8603973252 284.917911643 -8.73174362687 283.352265652 -2.85516379944 C 282.224860704 1.36835461706 283.877483671 5.8297853731 286.613747756 9.06721093913 C 288.243652681 11.0119137763 290.090629788 12.7249309335 292.15467908 14.2062624107 C 299.806493147 19.7029290423 308.787037946 22.9737315525 317.775718831 25.5543740286 C 336.053882366 30.58634096 355.084631118 32.4393308942 374.001792852 32.4999999049 C 392.763980125 32.4417739563 411.633622428 30.6133905328 429.777175239 25.6800377673 C 437.915438175 23.3930663674 445.982204408 20.4983417401 453.18970908 16.0136385913 C 455.515995799 14.5770395223 457.660504206 12.9088207949 459.623234302 11.008982409 C 462.577662113 8.10880222558 465.017537868 4.26978916508 465.003165888 0.0 "
       stroke="#191919"
       stroke-width="0.35 px"
       style="stroke-width:0.1;stroke-miterlimit:4;stroke-dasharray:none;fill:none;fill-rule:evenodd;stroke:#000000;stroke-opacity:1" />
    <circle
       cx="288.001792272"
       cy="0.0"
       r="0.85"
       stroke="#191919"
       stroke-width="0.35 px"
       style="stroke-width:0.1;stroke-miterlimit:4;stroke-dasharray:none;fill:none;stroke:#000000;stroke-opacity:1"
       id="circle11" />
    <circle
       cx="460.001792272"
       cy="0.0"
       r="0.85"
       stroke="#191919"
       stroke-width="0.35 px"
       style="stroke-width:0.1;stroke-miterlimit:4;stroke-dasharray:none;fill:none;stroke:#000000;stroke-opacity:1"
       id="circle13" />
    <path
       id="MyLayer002_w0003"
       d="M 456.076792272 -2.22 L 456.076792272 2.22 L 291.926792272 2.22 L 291.926792272 -2.22 L 456.076792272 -2.22 "
       stroke="#191919"
       stroke-width="0.35 px"
       style="stroke-width:0.1;stroke-miterlimit:4;stroke-dasharray:none;fill:none;fill-rule:evenodd;stroke:#000000;stroke-opacity:1" />
    <title
       id="title16">MyLayer002</title>
  </g>
  <g
     id="MyLayer001"
     transform="translate(96.559929,108.051641) scale(1,-1)"
     style="stroke-width:0.1;stroke-miterlimit:4;stroke-dasharray:none;stroke:#000000;stroke-opacity:1;fill:none">
    <path
       id="MyLayer001_w0000"
       d="M 191.000896136 -30.5 L 196.000896136 -30.5 L 196.000896136 -10.5 L 193.000896136 -10.5 L 193.000896136 -5.0 L 270.500896136 -5.0 L 270.500896136 5.0 L 193.000896136 5.0 L 181.000896136 5.0 L 103.500896136 5.0 L 103.500896136 -5.0 L 181.000896136 -5.0 L 181.000896136 -10.5 L 178.000896136 -10.5 L 178.000896136 -30.5 L 183.000896136 -30.5 L 183.000896136 -32.4685885939 C 171.341470618 -32.313482187 159.75930362 -31.2929124496 148.254395141 -29.4068793379 C 137.41738843 -27.5560326806 126.636124451 -24.9313488178 116.520054074 -20.5585302312 C 111.054410192 -18.1386064902 105.686191304 -15.2154905067 101.379454106 -11.0089824091 C 98.9547428723 -8.73884431977 97.2787146758 -6.02090478324 96.3513695162 -2.85516379944 C 95.2239645685 1.36835461704 96.8765875354 5.82978537309 99.6128516204 9.06721093912 C 103.202107766 13.3967106188 108.073910013 16.4284325872 113.044611145 18.9374405619 C 118.747755636 21.6907551998 124.657826153 23.8963996887 130.774822695 25.5543740286 C 149.052986231 30.58634096 168.083734982 32.4393308942 187.000896716 32.4999999049 C 200.002747337 32.5327936713 212.918247475 31.5017534823 225.74739713 29.4068793379 C 236.584403842 27.5560326806 247.365667821 24.9313488178 257.481738198 20.5585302312 C 262.947382079 18.1386064902 268.315600968 15.2154905067 272.622338166 11.008982409 C 275.576765977 8.10880222559 278.016641732 4.26978916509 278.002269752 0.0 C 278.01863764 -3.35249283393 276.482097602 -6.52152310298 274.388940496 -9.0672109495 C 270.799684689 -13.3967106066 265.927882171 -16.4284325931 260.957181127 -18.9374405619 C 255.254036636 -21.6907551998 249.343966119 -23.8963996887 243.226969577 -25.5543740286 C 226.240394896 -30.2438740608 208.585920977 -32.1435138325 191.000896135 -32.4685885725 L 191.000896136 -30.5 "
       stroke="#191919"
       stroke-width="0.35 px"
       style="stroke-width:0.1;stroke-miterlimit:4;stroke-dasharray:none;fill:none;fill-rule:evenodd;stroke:#000000;stroke-opacity:1" />
    <circle
       cx="273.000896136"
       cy="0.0"
       r="0.85"
       stroke="#191919"
       stroke-width="0.35 px"
       style="stroke-width:0.1;stroke-miterlimit:4;stroke-dasharray:none;fill:none;stroke:#000000;stroke-opacity:1"
       id="circle20" />
    <circle
       cx="101.000896136"
       cy="0.0"
       r="0.85"
       stroke="#191919"
       stroke-width="0.35 px"
       style="stroke-width:0.1;stroke-miterlimit:4;stroke-dasharray:none;fill:none;stroke:#000000;stroke-opacity:1"
       id="circle22" />
    <title
       id="title24">MyLayer001</title>
  </g>
  <g
     id="MyLayer003"
     transform="translate(96.559929,108.051641) scale(1,-1)"
     style="stroke-width:0.1;stroke-miterlimit:4;stroke-dasharray:none;stroke:#000000;stroke-opacity:1;fill:none">
    <path
       id="MyLayer003_w0000"
       d="M 91.001373616 69.9978609461 C 91.0177415041 66.6453681121 89.4812014663 63.4763378431 87.3880443605 60.9306499966 C 83.7987885537 56.6011503396 78.9269860354 53.569428353 73.9562849907 51.0604203841 C 68.2531404999 48.3071057463 62.3430699832 46.1014612574 56.2260734408 44.4434869174 C 37.9479099051 39.411519986 18.9171611539 37.5585300519 -5.80575851928e-07 37.4978610411 C -18.7621878541 37.5560869897 -37.6318301564 39.3844704133 -55.7753829671 44.3178231787 C -63.9136459037 46.6047945787 -71.9804121367 49.4995192059 -79.1879168089 53.9842223547 C -84.1050118239 57.1374636208 -89.0838806283 61.2661173192 -90.6495266195 67.1426971466 C -91.7769315673 71.3662155631 -90.1243086003 75.8276463191 -87.3880445153 79.0650718852 C -85.7581395909 81.0097747223 -83.9111624831 82.7227918795 -81.8471131917 84.2041233567 C -74.1952991247 89.7007899883 -65.2147543258 92.9715924986 -56.2260734408 95.5522349747 C -37.9479099052 100.584201906 -18.9171611539 102.43719184 5.80576468678e-07 102.497860851 C 18.762187854 102.439634902 37.6318301562 100.611251479 55.7753829671 95.6778987134 C 63.9136459037 93.3909273134 71.9804121367 90.4962026862 79.1879168089 86.0114995374 C 81.5142035272 84.5749004683 83.6587119342 82.9066817409 85.6214420302 81.0068433551 C 88.5758698414 78.1066631717 91.0157455961 74.2676501112 91.001373616 69.9978609461 "
       stroke="#191919"
       stroke-width="0.35 px"
       style="stroke-width:0.1;stroke-miterlimit:4;stroke-dasharray:none;fill:none;fill-rule:evenodd;stroke:#000000;stroke-opacity:1" />
    <circle
       cx="-86.0"
       cy="69.9978609461"
       r="0.85"
       stroke="#191919"
       stroke-width="0.35 px"
       style="stroke-width:0.1;stroke-miterlimit:4;stroke-dasharray:none;fill:none;stroke:#000000;stroke-opacity:1"
       id="circle28" />
    <circle
       cx="86.0"
       cy="69.9978609461"
       r="0.85"
       stroke="#191919"
       stroke-width="0.35 px"
       style="stroke-width:0.1;stroke-miterlimit:4;stroke-dasharray:none;fill:none;stroke:#000000;stroke-opacity:1"
       id="circle30" />
    <path
       id="MyLayer003_w0003"
       d="M -76.075 67.7478609461 L -76.075 72.2478609461 L 76.075 72.2478609461 L 76.075 67.7478609461 L -76.075 67.7478609461 "
       stroke="#191919"
       stroke-width="0.35 px"
       style="stroke-width:0.1;stroke-miterlimit:4;stroke-dasharray:none;fill:none;fill-rule:evenodd;stroke:#000000;stroke-opacity:1" />
    <title
       id="title33">MyLayer003</title>
  </g>
</svg>
