<?xml version="1.0" encoding="UTF-8" standalone="no"?>
<svg
   xmlns:dc="http://purl.org/dc/elements/1.1/"
   xmlns:cc="http://creativecommons.org/ns#"
   xmlns:rdf="http://www.w3.org/1999/02/22-rdf-syntax-ns#"
   xmlns:svg="http://www.w3.org/2000/svg"
   xmlns="http://www.w3.org/2000/svg"
   xmlns:sodipodi="http://sodipodi.sourceforge.net/DTD/sodipodi-0.dtd"
   xmlns:inkscape="http://www.inkscape.org/namespaces/inkscape"
   width="567.123125887mm"
   height="146.110063225mm"
   viewBox="0 0 567.123125887 146.110063225"
   version="1.1"
   id="svg36"
   sodipodi:docname="Acry-Oval-Base-10-Tiny-FreeCAD-Flat-Thin-Lines-Vents-Branded-Dated-Webbed-Dialed.svg"
   inkscape:version="0.92.3 (2405546, 2018-03-11)">
  <metadata
     id="metadata42">
    <rdf:RDF>
      <cc:Work
         rdf:about="">
        <dc:format>image/svg+xml</dc:format>
        <dc:type
           rdf:resource="http://purl.org/dc/dcmitype/StillImage" />
        <dc:title></dc:title>
      </cc:Work>
    </rdf:RDF>
  </metadata>
  <defs
     id="defs40" />
  <sodipodi:namedview
     pagecolor="#ffffff"
     bordercolor="#666666"
     borderopacity="1"
     objecttolerance="10"
     gridtolerance="10"
     guidetolerance="10"
     inkscape:pageopacity="0"
     inkscape:pageshadow="2"
     inkscape:window-width="1680"
     inkscape:window-height="999"
     id="namedview38"
     showgrid="false"
     inkscape:measure-start="0,0"
     inkscape:measure-end="0,0"
     inkscape:zoom="1.2129935"
     inkscape:cx="480.58613"
     inkscape:cy="214.32263"
     inkscape:window-x="0"
     inkscape:window-y="25"
     inkscape:window-maximized="1"
     inkscape:current-layer="svg36" />
  <g
     id="MyLayer"
     transform="matrix(1,0,0,-1,96.559929,108.03602)"
     style="fill:none;stroke:#000000;stroke-width:0.1;stroke-miterlimit:4;stroke-dasharray:none;stroke-opacity:1">
    <path
       id="MyLayer_w0000"
       d="m 91.001374,0 c 0.01637,-3.3524928 -1.520173,-6.5215231 -3.61333,-9.0672109 C 83.798789,-13.396711 78.926986,-16.428433 73.956285,-18.937441 68.25314,-21.690755 62.34307,-23.8964 56.226073,-25.554374 37.94791,-30.586341 18.917161,-32.439331 -5.8059011e-7,-32.5 -18.762188,-32.441774 -37.63183,-30.613391 -55.775383,-25.680038 c -8.138263,2.286972 -16.205029,5.181696 -23.412534,9.666399 -4.917095,3.153242 -9.895964,7.2818954 -11.46161,13.1584752 -1.127405,4.2235184 0.525218,8.6849492 3.261482,11.9223747 1.629905,1.9447031 3.476883,3.6577201 5.540932,5.1390511 7.651814,5.496667 16.632359,8.76747 25.62104,11.348112 C -37.94791,30.586341 -18.917161,32.439331 5.806347e-7,32.5 18.762188,32.441774 37.63183,30.613391 55.775383,25.680038 63.913646,23.393066 71.980412,20.498342 79.187917,16.013639 81.514204,14.57704 83.658712,12.908821 85.621442,11.008982 88.57587,8.1088022 91.015746,4.2697892 91.001374,0"
       style="fill:none;fill-rule:evenodd;stroke:#000000;stroke-width:0.1;stroke-miterlimit:4;stroke-dasharray:none;stroke-opacity:1"
       inkscape:connector-curvature="0" />
    <circle
       cx="86"
       cy="0"
       r="0.85000002"
       style="fill:none;stroke:#000000;stroke-width:0.1;stroke-miterlimit:4;stroke-dasharray:none;stroke-opacity:1"
       id="circle3" />
    <circle
       cx="-86"
       cy="0"
       r="0.85000002"
       style="fill:none;stroke:#000000;stroke-width:0.1;stroke-miterlimit:4;stroke-dasharray:none;stroke-opacity:1"
       id="circle5" />
    <title
       id="title7">MyLayer</title>
  </g>
  <g
     id="MyLayer002"
     transform="translate(96.559929,108.051641) scale(1,-1)"
     style="stroke-width:0.1;stroke-miterlimit:4;stroke-dasharray:none;stroke:#000000;stroke-opacity:1;fill:none">
    <path
       id="MyLayer002_w0000"
       d="M 465.003165888 0.0 C 465.019533776 -3.35249283394 463.482993738 -6.521523103 461.389836632 -9.0672109495 C 457.800580825 -13.3967106066 452.928778307 -16.4284325931 447.958077262 -18.9374405619 C 442.254932771 -21.6907551998 436.344862255 -23.8963996887 430.227865712 -25.5543740286 C 411.949702176 -30.5863409601 392.918953425 -32.4393308942 374.001791691 -32.4999999049 C 355.239604418 -32.4417739563 336.369962116 -30.6133905329 318.226409304 -25.6800377673 C 310.088146368 -23.3930663674 302.021380135 -20.49834174 294.813875463 -16.0136385913 C 289.896780448 -12.8603973252 284.917911643 -8.73174362687 283.352265652 -2.85516379944 C 282.224860704 1.36835461706 283.877483671 5.8297853731 286.613747756 9.06721093913 C 288.243652681 11.0119137763 290.090629788 12.7249309335 292.15467908 14.2062624107 C 299.806493147 19.7029290423 308.787037946 22.9737315525 317.775718831 25.5543740286 C 336.053882366 30.58634096 355.084631118 32.4393308942 374.001792852 32.4999999049 C 392.763980125 32.4417739563 411.633622428 30.6133905328 429.777175239 25.6800377673 C 437.915438175 23.3930663674 445.982204408 20.4983417401 453.18970908 16.0136385913 C 455.515995799 14.5770395223 457.660504206 12.9088207949 459.623234302 11.008982409 C 462.577662113 8.10880222558 465.017537868 4.26978916508 465.003165888 0.0 "
       stroke="#191919"
       stroke-width="0.35 px"
       style="stroke-width:0.1;stroke-miterlimit:4;stroke-dasharray:none;fill:none;fill-rule:evenodd;stroke:#000000;stroke-opacity:1" />
    <circle
       cx="288.001792272"
       cy="0.0"
       r="0.85"
       stroke="#191919"
       stroke-width="0.35 px"
       style="stroke-width:0.1;stroke-miterlimit:4;stroke-dasharray:none;fill:none;stroke:#000000;stroke-opacity:1"
       id="circle11" />
    <circle
       cx="460.001792272"
       cy="0.0"
       r="0.85"
       stroke="#191919"
       stroke-width="0.35 px"
       style="stroke-width:0.1;stroke-miterlimit:4;stroke-dasharray:none;fill:none;stroke:#000000;stroke-opacity:1"
       id="circle13" />
    <path
       id="MyLayer002_w0003"
       d="M 456.076792272 -2.22 L 456.076792272 2.22 L 291.926792272 2.22 L 291.926792272 -2.22 L 456.076792272 -2.22 "
       stroke="#191919"
       stroke-width="0.35 px"
       style="stroke-width:0.1;stroke-miterlimit:4;stroke-dasharray:none;fill:none;fill-rule:evenodd;stroke:#000000;stroke-opacity:1" />
    <title
       id="title16">MyLayer002</title>
  </g>
  <g
     id="MyLayer001"
     transform="matrix(1,0,0,-1,97.800282,52.429948)"
     style="fill:none;stroke:#000000;stroke-width:0.1;stroke-miterlimit:4;stroke-dasharray:none;stroke-opacity:1">
    <path
       id="MyLayer001_w0000"
       d="m 191.0009,-30.5 h 5 v 20 h -3 V -5 h 77.5 V 5 h -77.5 -12 -77.5 V -5 h 77.5 v -5.5 h -3 v -20 h 5 v -1.968589 c -11.65943,0.155107 -23.2416,1.175677 -34.7465,3.06171 -10.83701,1.850846 -21.61828,4.47553 -31.73435,8.848349 -5.46564,2.419924 -10.83386,5.343039 -15.1406,9.549548 -2.424707,2.2701377 -4.100735,4.9880772 -5.02808,8.1538182 -1.127405,4.2235184 0.525218,8.6849492 3.261482,11.9223747 3.589258,4.3295001 8.461058,7.3612221 13.431758,9.8702301 5.70315,2.753314 11.61322,4.958959 17.73021,6.616933 18.27817,5.031967 37.30891,6.884957 56.22608,6.945626 13.00185,0.03279 25.91735,-0.998247 38.7465,-3.093121 10.837,-1.850846 21.61827,-4.47553 31.73434,-8.848349 5.46564,-2.419924 10.83386,-5.343039 15.1406,-9.549548 2.95443,-2.9001798 5.3943,-6.7391928 5.37993,-11.008982 0.0164,-3.3524928 -1.52017,-6.5215231 -3.61333,-9.0672109 -3.58926,-4.3295001 -8.46106,-7.3612221 -13.43176,-9.8702301 -5.70314,-2.753314 -11.61321,-4.958959 -17.73021,-6.616933 -16.98658,-4.6895 -34.64105,-6.58914 -52.22607,-6.914215 V -30.5"
       style="fill:none;fill-rule:evenodd;stroke:#000000;stroke-width:0.1;stroke-miterlimit:4;stroke-dasharray:none;stroke-opacity:1"
       inkscape:connector-curvature="0" />
    <circle
       cx="273.00089"
       cy="0"
       r="0.85000002"
       style="fill:none;stroke:#000000;stroke-width:0.1;stroke-miterlimit:4;stroke-dasharray:none;stroke-opacity:1"
       id="circle20" />
    <circle
       cx="101.00089"
       cy="0"
       r="0.85000002"
       style="fill:none;stroke:#000000;stroke-width:0.1;stroke-miterlimit:4;stroke-dasharray:none;stroke-opacity:1"
       id="circle22" />
    <title
       id="title24">MyLayer001</title>
  </g>
  <g
     id="MyLayer003"
     transform="translate(96.559929,108.051641) scale(1,-1)"
     style="stroke-width:0.1;stroke-miterlimit:4;stroke-dasharray:none;stroke:#000000;stroke-opacity:1;fill:none">
    <path
       id="MyLayer003_w0000"
       d="M 91.001373616 69.9978609461 C 91.0177415041 66.6453681121 89.4812014663 63.4763378431 87.3880443605 60.9306499966 C 83.7987885537 56.6011503396 78.9269860354 53.569428353 73.9562849907 51.0604203841 C 68.2531404999 48.3071057463 62.3430699832 46.1014612574 56.2260734408 44.4434869174 C 37.9479099051 39.411519986 18.9171611539 37.5585300519 -5.80575851928e-07 37.4978610411 C -18.7621878541 37.5560869897 -37.6318301564 39.3844704133 -55.7753829671 44.3178231787 C -63.9136459037 46.6047945787 -71.9804121367 49.4995192059 -79.1879168089 53.9842223547 C -84.1050118239 57.1374636208 -89.0838806283 61.2661173192 -90.6495266195 67.1426971466 C -91.7769315673 71.3662155631 -90.1243086003 75.8276463191 -87.3880445153 79.0650718852 C -85.7581395909 81.0097747223 -83.9111624831 82.7227918795 -81.8471131917 84.2041233567 C -74.1952991247 89.7007899883 -65.2147543258 92.9715924986 -56.2260734408 95.5522349747 C -37.9479099052 100.584201906 -18.9171611539 102.43719184 5.80576468678e-07 102.497860851 C 18.762187854 102.439634902 37.6318301562 100.611251479 55.7753829671 95.6778987134 C 63.9136459037 93.3909273134 71.9804121367 90.4962026862 79.1879168089 86.0114995374 C 81.5142035272 84.5749004683 83.6587119342 82.9066817409 85.6214420302 81.0068433551 C 88.5758698414 78.1066631717 91.0157455961 74.2676501112 91.001373616 69.9978609461 "
       stroke="#191919"
       stroke-width="0.35 px"
       style="stroke-width:0.1;stroke-miterlimit:4;stroke-dasharray:none;fill:none;fill-rule:evenodd;stroke:#000000;stroke-opacity:1" />
    <circle
       cx="-86.0"
       cy="69.9978609461"
       r="0.85"
       stroke="#191919"
       stroke-width="0.35 px"
       style="stroke-width:0.1;stroke-miterlimit:4;stroke-dasharray:none;fill:none;stroke:#000000;stroke-opacity:1"
       id="circle28" />
    <circle
       cx="86.0"
       cy="69.9978609461"
       r="0.85"
       stroke="#191919"
       stroke-width="0.35 px"
       style="stroke-width:0.1;stroke-miterlimit:4;stroke-dasharray:none;fill:none;stroke:#000000;stroke-opacity:1"
       id="circle30" />
    <path
       id="MyLayer003_w0003"
       d="M -76.075 67.7478609461 L -76.075 72.2478609461 L 76.075 72.2478609461 L 76.075 67.7478609461 L -76.075 67.7478609461 "
       stroke="#191919"
       stroke-width="0.35 px"
       style="stroke-width:0.1;stroke-miterlimit:4;stroke-dasharray:none;fill:none;fill-rule:evenodd;stroke:#000000;stroke-opacity:1" />
    <title
       id="title33">MyLayer003</title>
  </g>
  <g
     id="layer1"
     inkscape:label="Livello 1"
     transform="matrix(0.0178338,0,0,0.0178338,89.867769,118.91472)"
     style="fill:none;stroke:#ff0000;stroke-width:3.43951106;stroke-miterlimit:4;stroke-dasharray:none;stroke-opacity:1">
    <path
       inkscape:export-filename="C:\Users\tore\Dropbox\OSHW\logo\LOGO.png"
       inkscape:export-ydpi="90"
       inkscape:export-xdpi="90"
       style="fill:none;stroke:#ff0000;stroke-width:3.43951106;stroke-miterlimit:4;stroke-dasharray:none;stroke-opacity:1"
       inkscape:connector-curvature="0"
       d="m 706.14808,504.68686 -82.195,-15.285 c -2,-0.375 -4.19,-2.255 -4.865,-4.185 l -25.195,-58.78 c -0.94,-1.815 -0.76,-4.665 0.4,-6.355 l 47.89,-69.8 c 1.145,-1.68 0.92,-4.235 -0.525,-5.68 l -59.815,-59.815 c -1.445,-1.445 -3.995,-1.68 -5.675,-0.525 l -71.025,48.74 c -1.68,1.155 -4.56,1.36 -6.385,0.46 l -56.98,-23.325 c -1.935,-0.64 -3.82,-2.805 -4.2,-4.81 l -15.825,-85.015 c -0.37,-2.005 -2.345,-3.645 -4.385,-3.645 h -84.6 c -2.035,0 -4.01,1.64 -4.38,3.645 l -15.82,85.015 c -0.38,2.005 -2.26,4.17 -4.2,4.81 l -56.985,23.325 c -1.83,0.9 -4.71,0.695 -6.385,-0.46 l -71.02,-48.74 c -1.685,-1.155 -4.24,-0.92 -5.68,0.525 l -59.82,59.815 c -1.44,1.445 -1.68,4 -0.525,5.68 l 47.895,69.8 c 1.15,1.69 1.33,4.54 0.395,6.355 l -25.2,58.78 c -0.67,1.93 -2.855,3.81 -4.865,4.185 l -82.190007,15.285 c -2.01,0.38 -3.645,2.35 -3.645,4.39 l 0.005,84.595 c 0,2.04 1.64,4.025 3.645,4.39 l 80.175007,14.92 c 2.005,0.365 4.15,2.27 4.76,4.215 l 25.03,62.525 c 0.895,1.835 0.685,4.705 -0.475,6.385 l -45.54,66.36496 c -1.15,1.68 -0.915,4.24 0.525,5.685 l 59.825,59.815 c 1.44,1.435 3.995,1.67 5.68,0.525 l 65.19,-44.745 c 1.68,-1.15 4.495,-1.24 6.25,-0.215 l 28.75,15.35 c 1.82,0.93 3.945,0.145 4.725,-1.74 l 59.28,-143.23496 c 0.785,-1.885 0,-4.29 -1.74,-5.355 l -7.195,-4.405 c -1.33,-0.81 -3.135,-2.205 -4.55,-3.485 -25.955,-16.62 -43.175,-45.695 -43.175,-78.805 0,-51.67 41.89,-93.555 93.555,-93.555 51.665,0 93.55,41.885 93.55,93.555 0,33.11 -17.215,62.185 -43.175,78.805 -1.405,1.28 -3.215,2.675 -4.54,3.485 l -7.195,4.405 c -1.73,1.065 -2.52,3.47 -1.74,5.355 l 59.275,143.23996 c 0.78,1.885 2.9,2.665 4.725,1.74 l 28.75,-15.35 c 1.76,-1.025 4.57,-0.94 6.25,0.215 l 65.195,44.745 c 1.68,1.145 4.24,0.91 5.675,-0.525 l 59.825,-59.815 c 1.445,-1.445 1.68,-4.005 0.525,-5.685 l -45.545,-66.36496 c -1.15,-1.68 -1.365,-4.55 -0.47,-6.385 l 25.03,-62.525 c 0.615,-1.945 2.745,-3.85 4.755,-4.215 l 80.175,-14.92 c 2,-0.365 3.645,-2.35 3.645,-4.39 l 0.01,-84.595 c 0.005,-2.045 -1.635,-4.015 -3.635,-4.395"
       id="path4045-5" />
  </g>
  <path
     sodipodi:type="star"
     style="opacity:1;fill:none;fill-opacity:1;stroke:#ff0000;stroke-width:0.1;stroke-linejoin:round;stroke-miterlimit:4;stroke-dasharray:none;stroke-opacity:1"
     id="use6900"
     sodipodi:sides="6"
     sodipodi:cx="22.113948"
     sodipodi:cy="108.03602"
     sodipodi:r1="2.8161826"
     sodipodi:r2="2.4388855"
     sodipodi:arg1="0.52359878"
     sodipodi:arg2="1.0471976"
     inkscape:flatsided="true"
     inkscape:rounded="0"
     inkscape:randomized="0"
     d="m 24.552835,109.44411 -2.438886,1.40809 -2.438886,-1.40809 0,-2.81618 2.438886,-1.40809 2.438886,1.40809 z"
     inkscape:transform-center-y="5.4430753e-06"
     inkscape:tile-x0="121.34033"
     inkscape:tile-y0="221.18023"
     inkscape:transform-center-x="1.8936673e-06" />
  <path
     sodipodi:type="star"
     style="opacity:1;fill:none;fill-opacity:1;stroke:#ff0000;stroke-width:0.1;stroke-linejoin:round;stroke-miterlimit:4;stroke-dasharray:none;stroke-opacity:1"
     id="use6912"
     sodipodi:sides="6"
     sodipodi:cx="38.656752"
     sodipodi:cy="108.03602"
     sodipodi:r1="2.8161826"
     sodipodi:r2="2.4388855"
     sodipodi:arg1="0.52359878"
     sodipodi:arg2="1.0471976"
     inkscape:flatsided="true"
     inkscape:rounded="0"
     inkscape:randomized="0"
     d="m 41.095639,109.44411 -2.438885,1.40809 -2.438886,-1.40809 0,-2.81618 2.438886,-1.40809 2.438885,1.40809 z"
     inkscape:transform-center-y="5.4430753e-06"
     inkscape:tile-x0="121.34033"
     inkscape:tile-y0="221.18023"
     inkscape:transform-center-x="1.8936673e-06" />
  <path
     sodipodi:type="star"
     style="opacity:1;fill:none;fill-opacity:1;stroke:#ff0000;stroke-width:0.1;stroke-linejoin:round;stroke-miterlimit:4;stroke-dasharray:none;stroke-opacity:1"
     id="use6924"
     sodipodi:sides="6"
     sodipodi:cx="55.199557"
     sodipodi:cy="108.03602"
     sodipodi:r1="2.8161826"
     sodipodi:r2="2.4388855"
     sodipodi:arg1="0.52359878"
     sodipodi:arg2="1.0471976"
     inkscape:flatsided="true"
     inkscape:rounded="0"
     inkscape:randomized="0"
     d="m 57.638444,109.44411 -2.438886,1.40809 -2.438885,-1.40809 0,-2.81618 2.438885,-1.40809 2.438886,1.40809 z"
     inkscape:transform-center-y="5.4430753e-06"
     inkscape:tile-x0="121.34033"
     inkscape:tile-y0="221.18023"
     inkscape:transform-center-x="1.8936673e-06" />
  <path
     sodipodi:type="star"
     style="opacity:1;fill:none;fill-opacity:1;stroke:#ff0000;stroke-width:0.1;stroke-linejoin:round;stroke-miterlimit:4;stroke-dasharray:none;stroke-opacity:1"
     id="use6936"
     sodipodi:sides="6"
     sodipodi:cx="71.742362"
     sodipodi:cy="108.03602"
     sodipodi:r1="2.8161826"
     sodipodi:r2="2.4388855"
     sodipodi:arg1="0.52359878"
     sodipodi:arg2="1.0471976"
     inkscape:flatsided="true"
     inkscape:rounded="0"
     inkscape:randomized="0"
     d="m 74.181249,109.44411 -2.438886,1.40809 -2.438886,-1.40809 0,-2.81618 2.438886,-1.40809 2.438886,1.40809 z"
     inkscape:transform-center-y="5.4430753e-06"
     inkscape:tile-x0="121.34033"
     inkscape:tile-y0="221.18023"
     inkscape:transform-center-x="1.8936673e-06" />
  <path
     sodipodi:type="star"
     style="opacity:1;fill:none;fill-opacity:1;stroke:#ff0000;stroke-width:0.1;stroke-linejoin:round;stroke-miterlimit:4;stroke-dasharray:none;stroke-opacity:1"
     id="use6948"
     sodipodi:sides="6"
     sodipodi:cx="88.28517"
     sodipodi:cy="108.03602"
     sodipodi:r1="2.8161826"
     sodipodi:r2="2.4388855"
     sodipodi:arg1="0.52359878"
     sodipodi:arg2="1.0471976"
     inkscape:flatsided="true"
     inkscape:rounded="0"
     inkscape:randomized="0"
     d="m 90.724057,109.44411 -2.438886,1.40809 -2.438885,-1.40809 0,-2.81618 2.438886,-1.40809 2.438885,1.40809 z"
     inkscape:transform-center-y="5.4430753e-06"
     inkscape:tile-x0="121.34033"
     inkscape:tile-y0="221.18023"
     inkscape:transform-center-x="1.8936673e-06" />
  <path
     sodipodi:type="star"
     style="opacity:1;fill:none;fill-opacity:1;stroke:#ff0000;stroke-width:0.1;stroke-linejoin:round;stroke-miterlimit:4;stroke-dasharray:none;stroke-opacity:1"
     id="use6960"
     sodipodi:sides="6"
     sodipodi:cx="104.82797"
     sodipodi:cy="108.03602"
     sodipodi:r1="2.8161826"
     sodipodi:r2="2.4388855"
     sodipodi:arg1="0.52359878"
     sodipodi:arg2="1.0471976"
     inkscape:flatsided="true"
     inkscape:rounded="0"
     inkscape:randomized="0"
     d="m 107.26686,109.44411 -2.43889,1.40809 -2.43888,-1.40809 0,-2.81618 2.43888,-1.40809 2.43889,1.40809 z"
     inkscape:transform-center-y="5.4430753e-06"
     inkscape:tile-x0="121.34033"
     inkscape:tile-y0="221.18023"
     inkscape:transform-center-x="1.8936673e-06" />
  <path
     sodipodi:type="star"
     style="opacity:1;fill:none;fill-opacity:1;stroke:#ff0000;stroke-width:0.1;stroke-linejoin:round;stroke-miterlimit:4;stroke-dasharray:none;stroke-opacity:1"
     id="use6972"
     sodipodi:sides="6"
     sodipodi:cx="121.37077"
     sodipodi:cy="108.03602"
     sodipodi:r1="2.8161826"
     sodipodi:r2="2.4388855"
     sodipodi:arg1="0.52359878"
     sodipodi:arg2="1.0471976"
     inkscape:flatsided="true"
     inkscape:rounded="0"
     inkscape:randomized="0"
     d="m 123.80966,109.44411 -2.43889,1.40809 -2.43888,-1.40809 0,-2.81618 2.43888,-1.40809 2.43889,1.40809 z"
     inkscape:transform-center-y="5.4430753e-06"
     inkscape:tile-x0="121.34033"
     inkscape:tile-y0="221.18023"
     inkscape:transform-center-x="1.8936673e-06" />
  <path
     sodipodi:type="star"
     style="opacity:1;fill:none;fill-opacity:1;stroke:#ff0000;stroke-width:0.1;stroke-linejoin:round;stroke-miterlimit:4;stroke-dasharray:none;stroke-opacity:1"
     id="use6984"
     sodipodi:sides="6"
     sodipodi:cx="137.91359"
     sodipodi:cy="108.03602"
     sodipodi:r1="2.8161826"
     sodipodi:r2="2.4388855"
     sodipodi:arg1="0.52359878"
     sodipodi:arg2="1.0471976"
     inkscape:flatsided="true"
     inkscape:rounded="0"
     inkscape:randomized="0"
     d="m 140.35248,109.44411 -2.43889,1.40809 -2.43889,-1.40809 0,-2.81618 2.43889,-1.40809 2.43889,1.40809 z"
     inkscape:transform-center-y="5.4430753e-06"
     inkscape:tile-x0="121.34033"
     inkscape:tile-y0="221.18023"
     inkscape:transform-center-x="1.8936673e-06" />
  <path
     sodipodi:type="star"
     style="opacity:1;fill:none;fill-opacity:1;stroke:#ff0000;stroke-width:0.1;stroke-linejoin:round;stroke-miterlimit:4;stroke-dasharray:none;stroke-opacity:1"
     id="use6996"
     sodipodi:sides="6"
     sodipodi:cx="154.45639"
     sodipodi:cy="108.03602"
     sodipodi:r1="2.8161826"
     sodipodi:r2="2.4388855"
     sodipodi:arg1="0.52359878"
     sodipodi:arg2="1.0471976"
     inkscape:flatsided="true"
     inkscape:rounded="0"
     inkscape:randomized="0"
     d="m 156.89528,109.44411 -2.43889,1.40809 -2.43889,-1.40809 0,-2.81618 2.43889,-1.40809 2.43889,1.40809 z"
     inkscape:transform-center-y="5.4430753e-06"
     inkscape:tile-x0="121.34033"
     inkscape:tile-y0="221.18023"
     inkscape:transform-center-x="1.8936673e-06" />
  <path
     sodipodi:type="star"
     style="opacity:1;fill:none;fill-opacity:1;stroke:#ff0000;stroke-width:0.1;stroke-linejoin:round;stroke-miterlimit:4;stroke-dasharray:none;stroke-opacity:1"
     id="use7008"
     sodipodi:sides="6"
     sodipodi:cx="170.99919"
     sodipodi:cy="108.03602"
     sodipodi:r1="2.8161826"
     sodipodi:r2="2.4388855"
     sodipodi:arg1="0.52359878"
     sodipodi:arg2="1.0471976"
     inkscape:flatsided="true"
     inkscape:rounded="0"
     inkscape:randomized="0"
     d="m 173.43808,109.44411 -2.43889,1.40809 -2.43888,-1.40809 0,-2.81618 2.43888,-1.40809 2.43889,1.40809 z"
     inkscape:transform-center-y="5.4430753e-06"
     inkscape:tile-x0="121.34033"
     inkscape:tile-y0="221.18023"
     inkscape:transform-center-x="1.8936673e-06" />
  <g
     id="g7851"
     transform="matrix(0.36249669,0,0,0.36249669,46.586123,56.077092)"
     style="stroke-width:0.2758646;stroke-miterlimit:4;stroke-dasharray:none">
    <path
       inkscape:connector-curvature="0"
       id="path132"
       style="fill:none;fill-rule:evenodd;stroke:#00ff00;stroke-width:0.2758646;stroke-miterlimit:4;stroke-dasharray:none;stroke-opacity:1"
       d="m 141.48264,108.32336 c 0.10421,0.35217 -0.097,0.72211 -0.44913,0.82623 -0.35213,0.10408 -0.72209,-0.0968 -0.82621,-0.44911 -0.10408,-0.35218 0.0968,-0.72213 0.44915,-0.82624 0.35214,-0.10408 0.72206,0.0968 0.82619,0.44912 z m -0.21642,0.0643 -0.0513,0.21359 -0.0515,0.21351 -0.21062,0.0622 -0.21065,0.0622 -0.15924,-0.15125 -0.15905,-0.15123 0.0515,-0.21357 0.0513,-0.21357 0.21064,-0.0622 0.21063,-0.0622 0.15923,0.15123 z m -5.76731,-20.301123 c 0.10433,0.352151 -0.0968,0.722085 -0.4491,0.826212 -0.35218,0.104019 -0.7221,-0.09688 -0.82622,-0.449116 -0.10408,-0.352173 0.0968,-0.722105 0.44911,-0.826235 0.35214,-0.104006 0.7221,0.09689 0.82621,0.449139 z m -0.21641,0.06417 -0.0513,0.213572 -0.0516,0.213554 -0.21061,0.06224 -0.21065,0.06224 -0.15923,-0.151297 -0.15924,-0.151297 0.0515,-0.21359 0.0515,-0.213537 0.21064,-0.06241 0.21061,-0.06224 0.15924,0.151297 z m 12.50063,6.613576 c 0.35215,-0.104019 0.7221,0.09689 0.82621,0.449137 0.10409,0.352153 -0.097,0.722085 -0.44911,0.826214 -0.35219,0.103993 -0.7221,-0.09689 -0.82622,-0.449118 -0.10407,-0.352138 0.097,-0.722088 0.44912,-0.826233 z m 0.0641,0.216435 0.21358,0.05138 0.21353,0.05156 0.0622,0.210637 0.0622,0.210622 -0.15124,0.159298 -0.15124,0.159297 -0.21359,-0.05156 -0.21352,-0.05156 -0.0625,-0.21062 -0.0622,-0.210641 0.15123,-0.159297 z m -20.30112,5.767312 c 0.35216,-0.10402 0.72212,0.0969 0.82622,0.44912 0.10434,0.35215 -0.0968,0.72209 -0.44913,0.82622 -0.35216,0.10408 -0.72209,-0.0969 -0.82622,-0.44913 -0.10409,-0.35217 0.097,-0.72208 0.44913,-0.82621 z m 0.0641,0.2164 0.21359,0.0515 0.21355,0.0516 0.0622,0.21062 0.0622,0.21063 -0.15123,0.1593 -0.15124,0.15931 -0.21358,-0.0515 -0.21353,-0.0516 -0.0622,-0.21065 -0.0625,-0.21063 0.15124,-0.15929 z m -1.17809,0.40838 c -1.61427,-5.998674 1.76824,-12.220985 7.68015,-14.128447 l 0.072,0.243228 c -0.20004,0.172275 -0.32804,0.415942 -0.35579,0.679028 -5.01329,1.900738 -7.90018,7.199979 -6.78192,12.441071 -0.1978,0.1753 -0.32282,0.42134 -0.34647,0.68593 z m 1.4211,-1.01929 c -0.98312,-4.796392 1.65811,-9.628094 6.2344,-11.385256 0.16433,0.183202 0.38971,0.302942 0.63386,0.336385 l 0.51622,1.745872 c -3.81194,1.283707 -5.99502,5.299718 -4.99936,9.196899 l -1.68509,0.49827 c -0.17115,-0.21883 -0.42452,-0.36042 -0.69998,-0.39217 z m 21.16683,-5.659533 c -1.90733,-5.912005 -8.12971,-9.29436 -14.12834,-7.680103 l 0.0671,0.227015 c 0.27926,0.0263 0.53752,0.165698 0.71304,0.384242 5.22176,-1.106526 10.4976,1.760738 12.40994,6.743751 0.27867,0.02969 0.53556,0.171924 0.70858,0.393045 z m -1.7405,-0.06648 c -1.77346,-4.557917 -6.60288,-7.181491 -11.39229,-6.18784 -0.0413,0.255744 -0.17738,0.489191 -0.38166,0.650779 l 0.51145,1.729624 c 3.89707,-0.995696 7.91306,1.187382 9.19684,4.999352 l 1.72317,-0.50951 c 0.0233,-0.262781 0.14695,-0.507342 0.34249,-0.682405 z m -20.62392,7.501393 c 1.90745,5.91198 8.12985,9.29432 14.12849,7.68009 l -0.0791,-0.26716 c -0.25226,-0.0346 -0.48455,-0.16121 -0.64997,-0.35493 -5.25287,1.13941 -10.57224,-1.74926 -12.47729,-6.77423 -0.25158,-0.0386 -0.48201,-0.16907 -0.64455,-0.36588 z m 1.738,0.0601 c 1.77475,4.57034 6.62111,7.19825 11.4215,6.18879 0.0332,-0.25323 0.15924,-0.4866 0.35272,-0.6531 l -0.50916,-1.72194 c -3.89708,0.99573 -7.9131,-1.18737 -9.19687,-4.99934 l -1.69493,0.50114 c -0.031,0.26723 -0.1653,0.5137 -0.37326,0.68445 z m 20.84995,-6.73901 c 1.61437,5.99869 -1.7681,12.221 -7.68004,14.12846 l -0.0744,-0.25094 c 0.21261,-0.16823 0.35147,-0.41417 0.38621,-0.68221 4.9984,-1.91083 7.87283,-7.20403 6.75227,-12.437631 0.20969,-0.170849 0.34515,-0.418379 0.37625,-0.686851 z m -1.42913,0.978788 c 1.00309,4.793572 -1.61962,9.630662 -6.18037,11.407602 -0.17485,-0.20365 -0.42354,-0.3331 -0.6916,-0.35838 l -0.50438,-1.70572 c 3.81196,-1.28373 5.99501,-5.29967 4.99936,-9.196882 l 1.73296,-0.512393 c 0.16235,0.196612 0.39269,0.327036 0.64403,0.365773 z m -11.62974,0.542331 c -0.21034,0.390555 -0.42674,0.753395 -0.62086,1.154457 l 3.31765,1.885224 0.0101,0.0389 2.8086,-0.830448 -3.46621,-0.925524 2.40362,-2.639751 z m -3.1822,6.114381 c -0.73051,-0.75416 -1.29481,-1.6909 -1.61316,-2.76746 -0.31825,-1.076498 -0.35411,-2.169477 -0.15105,-3.199645 z m 11.37952,-3.123967 c -0.53923,2.266787 -2.24319,4.190397 -4.63748,4.898327 -1.59905,0.47281 -3.23444,0.32273 -4.64646,-0.30803 l -1.03434,-3.49818 0.72312,-1.42628 3.7826,2.05282 0.18577,-0.0549 0.24169,-0.0713 0.31339,-0.0926 z m -1.00674,-5.367404 c 0.39289,0.569993 0.7041,1.210709 0.91105,1.910573 0.20694,0.6999 0.29413,1.406787 0.27448,2.098829 l -0.0197,-0.06703 -0.11363,-0.02577 -3.50335,-1.00782 2.39772,-2.731382 0.0812,-0.08338 z M 135.9311,91.96292 c 2.39435,-0.70797 4.87039,-0.02045 6.55574,1.588854 -2.52663,0.750709 -5.04252,1.537368 -7.5702,2.284754 l -1.51234,2.98691 -1.20495,-4.075142 c 0.84183,-1.297307 2.13272,-2.312524 3.73175,-2.785376 z" />
    <path
       inkscape:connector-curvature="0"
       id="path136"
       style="fill:none;fill-rule:evenodd;stroke:#00ff00;stroke-width:0.2758646;stroke-miterlimit:4;stroke-dasharray:none;stroke-opacity:1"
       d="m 153.3306,101.45901 v -6.095732 h 1.14748 l 2.87172,3.684604 2.80873,-3.684604 h 1.1357 v 6.095732 h -1.3148 V 97.6937 c 0,-0.07279 0.004,-0.165342 0.0138,-0.277536 0.01,-0.112166 0.0236,-0.236193 0.0374,-0.373968 -0.0768,0.157471 -0.14368,0.287384 -0.20078,0.38777 -0.057,0.102345 -0.11021,0.18698 -0.15547,0.251918 l -2.28913,3.044916 h -0.28343 l -2.29499,-3.056704 c -0.0846,-0.116148 -0.15745,-0.224396 -0.21652,-0.32675 -0.059,-0.100377 -0.10824,-0.200764 -0.14761,-0.295228 0.0118,0.125968 0.0216,0.242087 0.0276,0.344442 0.005,0.104303 0.008,0.204681 0.008,0.30114 v 3.76531 z m 12.02975,-2.432783 h 2.66898 l -1.31481,-2.480041 z m -2.72804,2.432783 3.44841,-6.095732 h 1.36597 l 3.49567,6.095732 h -1.59233 l -0.73221,-1.33055 h -3.86371 l -0.70855,1.33055 z m 9.79184,0 v -6.095732 h 1.43092 v 2.543002 l 3.37951,-2.543002 h 2.05293 l -4.03696,2.87171 4.53297,3.224022 h -2.27729 l -3.65116,-2.680793 v 2.680793 z m 8.89821,0 v -6.095732 h 6.24138 v 1.037253 h -4.82227 v 1.362043 h 2.81462 v 1.037307 h -2.81462 v 1.511639 h 4.87936 v 1.14749 z m 13.02176,-5.04076 h -3.19058 v 1.696674 h 3.19058 c 0.24603,0 0.41333,-0.03544 0.50387,-0.106317 0.0906,-0.07079 0.13582,-0.19681 0.13582,-0.377886 v -0.73418 c 0,-0.177123 -0.0453,-0.301141 -0.13582,-0.371992 -0.0906,-0.07088 -0.25784,-0.106299 -0.50387,-0.106299 z m -4.58608,5.04076 v -6.095732 h 5.21395 c 0.48418,0 0.83455,0.09251 1.05302,0.279477 0.2165,0.186997 0.32478,0.488138 0.32478,0.90149 v 1.432895 c 0,0.411366 -0.10828,0.710539 -0.32478,0.897537 -0.21847,0.188938 -0.56884,0.28343 -1.05302,0.28343 h -0.7952 l 2.81268,2.300903 h -2.0352 l -2.45639,-2.300903 h -1.34434 v 2.300903 z m 14.2716,-5.028944 h -3.98969 v 1.308913 h 3.79877 c 0.5964,0 0.99986,0.102354 1.20853,0.305085 0.21061,0.20469 0.31491,0.582594 0.31491,1.137639 v 0.836547 c 0,0.55307 -0.1043,0.93098 -0.31491,1.13566 -0.20867,0.20275 -0.61213,0.3051 -1.20853,0.3051 h -3.76333 c -0.59638,0 -0.99988,-0.10235 -1.20852,-0.3051 -0.21061,-0.20468 -0.31494,-0.58259 -0.31494,-1.13566 v -0.167314 l 1.25182,-0.259835 v 0.720419 h 4.30658 v -1.389606 h -3.79874 c -0.59245,0 -0.99203,-0.102354 -1.20066,-0.305086 -0.20666,-0.204717 -0.31099,-0.582612 -0.31099,-1.137675 v -0.673151 c 0,-0.555044 0.10433,-0.932948 0.31099,-1.137638 0.20863,-0.202732 0.60821,-0.305086 1.20066,-0.305086 h 3.45823 c 0.57278,0 0.96839,0.09841 1.18492,0.29327 0.21847,0.196809 0.32673,0.545205 0.32673,1.045132 v 0.125996 l -1.25183,0.29521 z m 8.38057,-0.01184 h -3.19057 v 1.615965 h 3.19057 c 0.24603,0 0.41334,-0.03535 0.50389,-0.106298 0.0906,-0.07088 0.1358,-0.19681 0.1358,-0.377886 v -0.653491 c 0,-0.177122 -0.0453,-0.301131 -0.1358,-0.371991 -0.0905,-0.07088 -0.25786,-0.106299 -0.50389,-0.106299 z m -4.58606,5.040754 v -6.095726 h 5.21393 c 0.4842,0 0.83455,0.0925 1.05303,0.279476 0.21651,0.186998 0.32478,0.488139 0.32478,0.901482 v 1.362044 c 0,0.411375 -0.10827,0.710548 -0.32478,0.897509 -0.21848,0.186998 -0.56883,0.279504 -1.05303,0.279504 h -3.81844 v 2.375711 z m 9.21513,-2.432787 h 2.66898 l -1.3148,-2.480031 z m -2.72804,2.432787 3.44842,-6.095726 h 1.36597 l 3.49565,6.095726 h -1.59233 l -0.7322,-1.33055 h -3.86371 l -0.70858,1.33055 z m 14.70071,-5.005306 h -3.82239 v 3.857806 h 3.82239 v -1.308892 l 1.41912,0.293279 v 0.722353 c 0,0.55701 -0.10433,0.93688 -0.31492,1.13764 -0.20864,0.20274 -0.60819,0.30312 -1.19672,0.30312 h -3.63736 c -0.59244,0 -0.992,-0.10038 -1.20065,-0.30312 -0.20666,-0.20076 -0.31099,-0.58063 -0.31099,-1.13764 v -3.212242 c 0,-0.555045 0.10433,-0.932958 0.31099,-1.137648 0.20865,-0.202722 0.60821,-0.305076 1.20065,-0.305076 h 3.63736 c 0.58853,0 0.98808,0.102354 1.19672,0.305076 0.21059,0.20469 0.31492,0.582603 0.31492,1.137648 v 0.576718 l -1.41912,0.224359 z m 3.86338,5.005306 v -6.095726 h 6.24139 v 1.037243 h -4.82229 v 1.362053 h 2.81463 v 1.037307 h -2.81463 v 1.511623 h 4.87936 v 1.1475 z" />
    <g
       style="stroke:#00ff00;stroke-width:0.2758646;stroke-miterlimit:4;stroke-dasharray:none;stroke-opacity:1"
       transform="translate(-2.9148771,0.52916664)"
       id="g7713">
      <path
         d="m 40.55363,100.92874 v -6.093531 h 1.588733 v 2.542086 l 3.752219,-2.542086 h 2.279335 l -4.482167,2.870675 5.03288,3.222856 h -2.528443 l -4.053824,-2.679822 v 2.679822 z m 12.219156,-2.431902 h 2.963328 l -1.459802,-2.479147 z m -3.028898,2.431902 3.828735,-6.093531 h 1.516608 l 3.881177,6.093531 H 57.20246 l -0.81295,-1.330063 h -4.289813 l -0.786712,1.330063 z m 11.930715,0 v -6.093531 h 1.27404 l 3.188419,3.683277 3.118487,-3.683277 h 1.26095 v 6.093531 h -1.459801 v -3.763949 c 0,-0.07276 0.0043,-0.165282 0.01529,-0.277436 0.01088,-0.112125 0.02621,-0.236107 0.04152,-0.373833 -0.08524,0.157414 -0.159522,0.287281 -0.222897,0.38763 -0.06339,0.102309 -0.122387,0.186913 -0.172647,0.251828 l -2.54157,3.04382 h -0.314697 l -2.548104,-3.055604 c -0.09396,-0.116106 -0.174806,-0.224315 -0.240386,-0.326632 -0.06553,-0.100341 -0.120181,-0.200692 -0.163896,-0.295122 0.01312,0.125923 0.02404,0.242 0.03059,0.344318 0.0066,0.104265 0.0087,0.204607 0.0087,0.301031 v 3.763949 z m 12.693405,0 v -6.093531 h 1.575607 v 4.946455 h 5.076559 v 1.147076 z m 9.129069,-4.651327 c 0,-0.554844 0.115842,-0.932612 0.345281,-1.137228 0.23167,-0.202659 0.675294,-0.304976 1.333076,-0.304976 h 4.978223 c 0.657787,0 1.101394,0.102317 1.333024,0.304976 0.229487,0.204616 0.345287,0.582384 0.345287,1.137228 V 99.4885 c 0,0.55681 -0.1158,0.93653 -0.345287,1.13723 -0.23163,0.20268 -0.675237,0.30301 -1.333024,0.30301 h -4.978223 c -0.657782,0 -1.101406,-0.10033 -1.333076,-0.30301 -0.229439,-0.2007 -0.345281,-0.58042 -0.345281,-1.13723 z m 1.57564,3.504251 h 5.1902 v -3.856419 h -5.1902 z m 10.47742,-3.504251 c 0,-0.554844 0.11584,-0.932612 0.345287,-1.137228 0.23167,-0.202659 0.675277,-0.304976 1.333054,-0.304976 h 4.978222 c 0.65778,0 1.10139,0.102317 1.33303,0.304976 0.22949,0.204616 0.34528,0.582384 0.34528,1.137228 V 99.4885 c 0,0.55681 -0.11579,0.93653 -0.34528,1.13723 -0.23164,0.20268 -0.67525,0.30301 -1.33303,0.30301 h -4.978222 c -0.657777,0 -1.101384,-0.10033 -1.333054,-0.30301 -0.229447,-0.2007 -0.345287,-0.58042 -0.345287,-1.13723 z m 1.575631,3.504251 h 5.190192 v -3.856419 h -5.190192 z m 15.709162,-3.891863 h -3.54244 v 1.615384 h 3.54244 c 0.27317,0 0.45892,-0.03534 0.55944,-0.106252 0.1006,-0.07085 0.15079,-0.196757 0.15079,-0.377759 V 96.36792 c 0,-0.17706 -0.0503,-0.301033 -0.15079,-0.371858 -0.10059,-0.07085 -0.28627,-0.106261 -0.55944,-0.106261 z m -5.09184,5.038939 v -6.093531 h 5.78895 c 0.53761,0 0.9266,0.09248 1.16917,0.279376 0.24037,0.18693 0.3606,0.487962 0.3606,0.901166 v 1.361544 c 0,0.411218 -0.12023,0.710292 -0.3606,0.897196 -0.24257,0.186921 -0.63156,0.279403 -1.16917,0.279403 h -4.23955 v 2.374846 z m 16.14842,-5.027127 h -4.42971 v 1.308441 h 4.21773 c 0.66217,0 1.11013,0.102317 1.3418,0.304975 0.23384,0.204616 0.34963,0.582384 0.34963,1.137229 V 99.4885 c 0,0.55287 -0.11579,0.93065 -0.34963,1.13525 -0.23167,0.20268 -0.67963,0.30499 -1.3418,0.30499 h -4.17837 c -0.66216,0 -1.11017,-0.10231 -1.34179,-0.30499 -0.23385,-0.2046 -0.34968,-0.58238 -0.34968,-1.13525 v -0.16725 l 1.38986,-0.259741 v 0.720155 h 4.78154 v -1.389101 h -4.21768 c -0.65779,0 -1.10143,-0.102317 -1.3331,-0.304976 -0.22942,-0.204643 -0.34527,-0.582402 -0.34527,-1.137265 v -0.672909 c 0,-0.554844 0.11585,-0.932612 0.34527,-1.137228 0.23167,-0.202659 0.67531,-0.304976 1.3331,-0.304976 h 3.83961 c 0.63596,0 1.07518,0.09837 1.3156,0.293164 0.24256,0.196738 0.36275,0.545009 0.36275,1.044756 v 0.12595 l -1.38986,0.295104 z"
         style="fill:none;fill-rule:evenodd;stroke:#00ff00;stroke-width:0.2758646;stroke-miterlimit:4;stroke-dasharray:none;stroke-opacity:1"
         id="path134"
         inkscape:connector-curvature="0" />
      <path
         style="fill:none;fill-rule:evenodd;stroke:#00ff00;stroke-width:0.2758646;stroke-miterlimit:4;stroke-dasharray:none;stroke-opacity:1"
         d="m 39.605306,93.132162 h 89.020224 c -0.21015,0.18867 -0.4078,0.388623 -0.59183,0.598649 H 39.605306 c -0.635593,0 -1.155615,0.543506 -1.155615,1.20779 v 5.886729 c 0,0.66429 0.520022,1.20779 1.155615,1.20779 H 128.0337 c 0.18403,0.21003 0.38168,0.40996 0.59178,0.59863 H 39.605306 c -1.001262,0 -1.820494,-0.81287 -1.820494,-1.80642 v -5.886738 c 0,-0.993529 0.819232,-1.80643 1.820494,-1.80643 z"
         id="path7709"
         inkscape:connector-curvature="0" />
    </g>
    <path
       id="path138"
       d="m 149.98489,93.659617 h 89.20703 c 0.90181,0 1.63967,0.813194 1.63967,1.807081 v 5.888862 c 0,0.99391 -0.73786,1.80707 -1.63967,1.80707 h -89.20701 c 0.18924,-0.18874 0.36726,-0.38874 0.53301,-0.59884 h 88.67398 c 0.57246,0 1.04083,-0.5437 1.04083,-1.20823 v -5.888853 c 0,-0.664523 -0.46837,-1.208225 -1.04083,-1.208225 h -88.67398 c -0.16575,-0.210102 -0.34377,-0.410127 -0.53303,-0.598865 z"
       style="fill:none;fill-rule:evenodd;stroke:#00ff00;stroke-width:0.2758646;stroke-miterlimit:4;stroke-dasharray:none;stroke-opacity:1"
       inkscape:connector-curvature="0" />
  </g>
  <text
     xml:space="preserve"
     style="font-style:normal;font-weight:normal;font-size:3.8354435px;line-height:1.25;font-family:sans-serif;text-align:center;letter-spacing:0px;word-spacing:0px;text-anchor:middle;fill:none;fill-opacity:1;stroke:#00ff00;stroke-width:0.1;stroke-miterlimit:4;stroke-dasharray:none;stroke-opacity:1"
     x="96.470421"
     y="80.438431"
     id="text9689"><tspan
       sodipodi:role="line"
       id="tspan9687"
       x="96.470421"
       y="80.438431"
       style="fill:none;stroke:#00ff00;stroke-width:0.1;stroke-miterlimit:4;stroke-dasharray:none;stroke-opacity:1">Made by Open to Source</tspan><tspan
       sodipodi:role="line"
       x="96.470421"
       y="85.232735"
       style="fill:none;stroke:#00ff00;stroke-width:0.1;stroke-miterlimit:4;stroke-dasharray:none;stroke-opacity:1"
       id="tspan9691">@</tspan></text>
  <text
     xml:space="preserve"
     style="font-style:normal;font-weight:normal;font-size:4.76201725px;line-height:1.25;font-family:sans-serif;text-align:center;letter-spacing:0px;word-spacing:0px;text-anchor:middle;fill:none;fill-opacity:1;stroke:#00ff00;stroke-width:0.1;stroke-miterlimit:4;stroke-dasharray:none;stroke-opacity:1"
     x="96.491463"
     y="101.65716"
     id="text9695"><tspan
       sodipodi:role="line"
       id="tspan9693"
       x="96.491463"
       y="101.65716"
       style="fill:none;stroke:#00ff00;stroke-width:0.1;stroke-miterlimit:4;stroke-dasharray:none;stroke-opacity:1">For the Copper Island Swim</tspan></text>
  <text
     xml:space="preserve"
     style="font-style:normal;font-weight:normal;font-size:3.21613955px;line-height:1.25;font-family:sans-serif;text-align:center;letter-spacing:0px;word-spacing:0px;text-anchor:middle;fill:none;fill-opacity:1;stroke:#00ff00;stroke-width:0.10129572;stroke-miterlimit:4;stroke-dasharray:none;stroke-opacity:1"
     x="96.564423"
     y="138.57851"
     id="text9718"><tspan
       sodipodi:role="line"
       id="tspan9716"
       x="96.564423"
       y="138.57851"
       style="fill:none;stroke:#00ff00;stroke-width:0.10129572;stroke-miterlimit:4;stroke-dasharray:none;stroke-opacity:1">September 7th 2019</tspan></text>
  <text
     xml:space="preserve"
     style="font-style:normal;font-weight:normal;font-size:5.98687935px;line-height:1.25;font-family:sans-serif;text-align:center;letter-spacing:0px;word-spacing:0px;text-anchor:middle;fill:none;fill-opacity:1;stroke:#00eb00;stroke-width:0.18856312;stroke-miterlimit:4;stroke-dasharray:none;stroke-opacity:1"
     x="96.261459"
     y="118.27924"
     id="text9741"><tspan
       sodipodi:role="line"
       id="tspan9739"
       x="96.261459"
       y="118.27924"
       style="fill:none;stroke:#00eb00;stroke-width:0.18856312;stroke-miterlimit:4;stroke-dasharray:none;stroke-opacity:1">www.trytri.org</tspan></text>
  <text
     xml:space="preserve"
     style="font-style:normal;font-weight:normal;font-size:4.08609915px;line-height:1.25;font-family:sans-serif;text-align:center;letter-spacing:0px;word-spacing:0px;text-anchor:middle;fill:none;fill-opacity:1;stroke:#00f800;stroke-width:0.12869602;stroke-miterlimit:4;stroke-dasharray:none;stroke-opacity:1"
     x="41.580639"
     y="118.27814"
     id="text9745"><tspan
       sodipodi:role="line"
       id="tspan9743"
       x="41.580639"
       y="118.27814"
       style="fill:none;fill-opacity:1;stroke:#00f800;stroke-width:0.12869602;stroke-miterlimit:4;stroke-dasharray:none;stroke-opacity:1">OpentoSource.org</tspan></text>
  <text
     xml:space="preserve"
     style="font-style:normal;font-weight:normal;font-size:4.08609915px;line-height:1.25;font-family:sans-serif;text-align:center;letter-spacing:0px;word-spacing:0px;text-anchor:middle;fill:none;fill-opacity:1;stroke:#00f800;stroke-width:0.12869602;stroke-miterlimit:4;stroke-dasharray:none;stroke-opacity:1"
     x="151.94991"
     y="118.31403"
     id="text9749"><tspan
       sodipodi:role="line"
       id="tspan9747"
       x="151.94991"
       y="118.31403"
       style="fill:none;fill-opacity:1;stroke:#00f800;stroke-width:0.12869602;stroke-miterlimit:4;stroke-dasharray:none;stroke-opacity:1">KamloopsMakerspace.com</tspan></text>
</svg>
