  0
SECTION
  2
HEADER
  9
$ACADVER
  1
AC1009
  9
$INSBASE
 10
0.0
 20
0.0
 30
0.0
  9
$EXTMIN
 10
0.0
 20
0.0
 30
0.0
  9
$EXTMAX
 10
0.0
 20
0.0
 30
0.0
  0
ENDSEC
  0
SECTION
  2
TABLES
  0
TABLE
  2
VPORT
 70
0
  0
ENDTAB
  0
TABLE
  2
LTYPE
 70
1
  0
LTYPE
  2
CONTINUOUS
 70
0
  3
Solid line
 72
65
 73
0
 40
0.0
  0
ENDTAB
  0
TABLE
  2
LAYER
 70
1
  0
LAYER
  2
0
 70
64
 62
7
  6
continuous
  0
ENDTAB
  0
TABLE
  2
STYLE
 70
1
  0
STYLE
  2
STANDARD
 70
0
 40
0
 41
1.0
 50
0.0
 71
0
 42
1
 3
ARIAL.TTF
 4

  0
ENDTAB
  0
TABLE
  2
VIEW
 70
0
  0
ENDTAB
  0
ENDSEC
  0
SECTION
  2
BLOCKS
  0
BLOCK
  8
Body_Slices
  2
MYLAYER
 70
0
 10
0.0
 20
0.0
 30
0.0
  3
MYLAYER
  0
POLYLINE
  8
Body_Slices
 62
0
 70
1
 66
1
 10
0.0
 20
0.0
 30
0.0
  0
VERTEX
  8
Body_Slices
 10
75.0
 20
28.5
 30
0.0
 42
-1.0
  0
VERTEX
  8
Body_Slices
 10
75.0
 20
-28.5
 30
0.0
  0
VERTEX
  8
Body_Slices
 10
-75.0
 20
-28.5
 30
0.0
 42
-1.0
  0
VERTEX
  8
Body_Slices
 10
-75.0
 20
28.5
 30
0.0
  0
SEQEND
  8
Body_Slices
  0
CIRCLE
  8
Body_Slices
 62
0
 10
87.5
 20
0.0
 30
0.0
 40
0.825
  0
CIRCLE
  8
Body_Slices
 62
0
 10
-87.5
 20
0.0
 30
0.0
 40
0.825
  0
ENDBLK
  0
BLOCK
  8
Body_Slices
  2
MYLAYER003
 70
0
 10
0.0
 20
0.0
 30
0.0
  3
MYLAYER003
  0
POLYLINE
  8
Body_Slices
 62
0
 70
1
 66
1
 10
0.0
 20
0.0
 30
0.0
  0
VERTEX
  8
Body_Slices
 10
287.0
 20
90.4999999999
 30
0.0
 42
-1.0
  0
VERTEX
  8
Body_Slices
 10
287.0
 20
33.5
 30
0.0
  0
VERTEX
  8
Body_Slices
 10
137.0
 20
33.5
 30
0.0
 42
-1.0
  0
VERTEX
  8
Body_Slices
 10
137.0
 20
90.4999999999
 30
0.0
  0
SEQEND
  8
Body_Slices
  0
CIRCLE
  8
Body_Slices
 62
0
 10
299.5
 20
61.9999999999
 30
0.0
 40
0.825
  0
CIRCLE
  8
Body_Slices
 62
0
 10
124.5
 20
61.9999999999
 30
0.0
 40
0.825
  0
POLYLINE
  8
Body_Slices
 62
0
 70
1
 66
1
 10
0.0
 20
0.0
 30
0.0
  0
VERTEX
  8
Body_Slices
 10
148.5
 20
58.9999999999
 30
0.0
  0
VERTEX
  8
Body_Slices
 10
148.5
 20
64.9999999999
 30
0.0
  0
VERTEX
  8
Body_Slices
 10
275.5
 20
64.9999999999
 30
0.0
  0
VERTEX
  8
Body_Slices
 10
275.5
 20
58.9999999999
 30
0.0
  0
SEQEND
  8
Body_Slices
  0
ENDBLK
  0
BLOCK
  8
Body_Slices
  2
MYLAYER001
 70
0
 10
0.0
 20
0.0
 30
0.0
  3
MYLAYER001
  0
POLYLINE
  8
Body_Slices
 62
0
 70
1
 66
1
 10
0.0
 20
0.0
 30
0.0
  0
VERTEX
  8
Body_Slices
 10
287.0
 20
28.5
 30
0.0
 42
-1.0
  0
VERTEX
  8
Body_Slices
 10
287.0
 20
-28.5
 30
0.0
  0
VERTEX
  8
Body_Slices
 10
216.275
 20
-28.5
 30
0.0
  0
VERTEX
  8
Body_Slices
 10
216.275
 20
-26.85
 30
0.0
  0
VERTEX
  8
Body_Slices
 10
221.2
 20
-26.85
 30
0.0
  0
VERTEX
  8
Body_Slices
 10
221.2
 20
-6.0
 30
0.0
  0
VERTEX
  8
Body_Slices
 10
274.5
 20
-6.0
 30
0.0
 42
1.0
  0
VERTEX
  8
Body_Slices
 10
274.5
 20
6.0
 30
0.0
  0
VERTEX
  8
Body_Slices
 10
149.5
 20
6.0
 30
0.0
 42
1.0
  0
VERTEX
  8
Body_Slices
 10
149.5
 20
-6.0
 30
0.0
  0
VERTEX
  8
Body_Slices
 10
202.8
 20
-5.99999999995
 30
0.0
  0
VERTEX
  8
Body_Slices
 10
202.8
 20
-26.85
 30
0.0
  0
VERTEX
  8
Body_Slices
 10
207.725
 20
-26.85
 30
0.0
  0
VERTEX
  8
Body_Slices
 10
207.725
 20
-28.5
 30
0.0
  0
VERTEX
  8
Body_Slices
 10
137.0
 20
-28.5
 30
0.0
 42
-1.0
  0
VERTEX
  8
Body_Slices
 10
137.0
 20
28.5
 30
0.0
  0
SEQEND
  8
Body_Slices
  0
CIRCLE
  8
Body_Slices
 62
0
 10
299.5
 20
0.0
 30
0.0
 40
0.825
  0
CIRCLE
  8
Body_Slices
 62
0
 10
124.5
 20
0.0
 30
0.0
 40
0.825
  0
ENDBLK
  0
BLOCK
  8
Body_Slices
  2
MYLAYER002
 70
0
 10
0.0
 20
0.0
 30
0.0
  3
MYLAYER002
  0
POLYLINE
  8
Body_Slices
 62
0
 70
1
 66
1
 10
0.0
 20
0.0
 30
0.0
  0
VERTEX
  8
Body_Slices
 10
75.0
 20
90.4999999999
 30
0.0
 42
-1.0
  0
VERTEX
  8
Body_Slices
 10
75.0
 20
33.5
 30
0.0
  0
VERTEX
  8
Body_Slices
 10
-75.0
 20
33.5
 30
0.0
 42
-1.0
  0
VERTEX
  8
Body_Slices
 10
-75.0
 20
90.4999999999
 30
0.0
  0
SEQEND
  8
Body_Slices
  0
POLYLINE
  8
Body_Slices
 62
0
 70
1
 66
1
 10
0.0
 20
0.0
 30
0.0
  0
VERTEX
  8
Body_Slices
 10
62.5
 20
67.9999999999
 30
0.0
  0
VERTEX
  8
Body_Slices
 10
-62.5
 20
67.9999999999
 30
0.0
 42
1.0
  0
VERTEX
  8
Body_Slices
 10
-62.5
 20
55.9999999999
 30
0.0
  0
VERTEX
  8
Body_Slices
 10
62.5
 20
55.9999999999
 30
0.0
 42
1.0
  0
SEQEND
  8
Body_Slices
  0
CIRCLE
  8
Body_Slices
 62
0
 10
87.5
 20
61.9999999999
 30
0.0
 40
0.825
  0
CIRCLE
  8
Body_Slices
 62
0
 10
-87.5
 20
61.9999999999
 30
0.0
 40
0.825
  0
ENDBLK
  0
ENDSEC
  0
SECTION
  2
ENTITIES
  0
INSERT
  2
MYLAYER
  8
Body_Slices
 62
0
 10
0.0
 20
0.0
 30
0.0
  0
INSERT
  2
MYLAYER003
  8
Body_Slices
 62
0
 10
0.0
 20
0.0
 30
0.0
  0
INSERT
  2
MYLAYER001
  8
Body_Slices
 62
0
 10
0.0
 20
0.0
 30
0.0
  0
INSERT
  2
MYLAYER002
  8
Body_Slices
 62
0
 10
0.0
 20
0.0
 30
0.0
  0
ENDSEC
  0
EOF
