<?xml version="1.0"?>
<!DOCTYPE svg PUBLIC "-//W3C//DTD SVG 1.1//EN" "http://www.w3.org/Graphics/SVG/1.1/DTD/svg11.dtd">
<svg width="211.14mm" height="61.1399999999mm" viewBox="0 0 211.14 61.1399999999" xmlns="http://www.w3.org/2000/svg" version="1.1">
<g id="PolarPattern002" transform="translate(105.570000,30.570000) scale(1,-1)">
<path id="PolarPattern002_f0000"  d="M -75.0 -28.5 A 28.5 28.5 0 0 0 -75 28.5L -75.0 28.5 A 28.5 28.5 0 0 1 -75 -28.5L -75.0 -28.5 Z " stroke="#191919" stroke-width="0.35 px" style="stroke-width:0.35;stroke-miterlimit:4;stroke-dasharray:none;fill:#cccccc;fill-rule: evenodd "/>
<path id="PolarPattern002_f0001"  d="M -75.0 28.5 L -75.0 28.5 L 75.0 28.5 L 75.0 28.5 L -75.0 28.5 Z " stroke="#191919" stroke-width="0.35 px" style="stroke-width:0.35;stroke-miterlimit:4;stroke-dasharray:none;fill:#cccccc;fill-rule: evenodd "/>
<path id="PolarPattern002_f0002"  d="M -4.275 -28.5 L -4.275 -28.5 L 4.275 -28.5 L 4.275 -28.5 L 75.0 -28.4999999999 L 75.0 -28.4999999999 L -75.0 -28.5 L -75.0 -28.5 L -4.275 -28.5 Z " stroke="#191919" stroke-width="0.35 px" style="stroke-width:0.35;stroke-miterlimit:4;stroke-dasharray:none;fill:#cccccc;fill-rule: evenodd "/>
<circle cx="-66.64" cy="-7.79" r="0.825" stroke="#191919" stroke-width="0.35 px" style="stroke-width:0.35;stroke-miterlimit:4;stroke-dasharray:none;fill:#cccccc"/>
<path id="PolarPattern002_f0005"  d="M 75.0 28.5 A 28.5 28.5 0 1 0 75 -28.5L 75.0 -28.4999999999 A 28.5 28.5 0 1 1 75 28.5L 75.0 28.5 Z " stroke="#191919" stroke-width="0.35 px" style="stroke-width:0.35;stroke-miterlimit:4;stroke-dasharray:none;fill:#cccccc;fill-rule: evenodd "/>
<path id="PolarPattern002_f0007"  d="M 75.0 -28.5 L 4.275 -28.5 L -4.275 -28.5 L -75.0 -28.5 L -75.0 -28.5 L 75.0 -28.5 L 75.0 -28.5 Z " stroke="#191919" stroke-width="0.35 px" style="stroke-width:0.35;stroke-miterlimit:4;stroke-dasharray:none;fill:#cccccc;fill-rule: evenodd "/>
<path id="PolarPattern002_f0008"  d="M 4.275 -26.85 L 4.275 -26.85 L 4.275 -28.5 L 4.275 -28.5 L 4.275 -26.85 Z " stroke="#191919" stroke-width="0.35 px" style="stroke-width:0.35;stroke-miterlimit:4;stroke-dasharray:none;fill:#cccccc;fill-rule: evenodd "/>
<path id="PolarPattern002_f0009"  d="M 4.275 -26.85 L 4.275 -28.5 L -4.275 -28.5 L -4.275 -26.85 L 4.275 -26.85 Z " stroke="#191919" stroke-width="0.35 px" style="stroke-width:0.35;stroke-miterlimit:4;stroke-dasharray:none;fill:#cccccc;fill-rule: evenodd "/>
<path id="PolarPattern002_f0010"  d="M -4.275 -28.5 L -4.275 -28.5 L -4.275 -26.85 L -4.275 -26.85 L -4.275 -28.5 Z " stroke="#191919" stroke-width="0.35 px" style="stroke-width:0.35;stroke-miterlimit:4;stroke-dasharray:none;fill:#cccccc;fill-rule: evenodd "/>
<circle cx="-66.64" cy="-7.79" r="0.825" stroke="#191919" stroke-width="0.35 px" style="stroke-width:0.35;stroke-miterlimit:4;stroke-dasharray:none;fill:#cccccc"/>
<path d="M -65.815 7.79 L -65.815 7.79 " stroke="#191919" stroke-width="0.35 px" style="stroke-width:0.35;stroke-miterlimit:4;stroke-dasharray:none;fill:#cccccc"/>
<path d="M -49.175 7.79 L -49.175 7.79 " stroke="#191919" stroke-width="0.35 px" style="stroke-width:0.35;stroke-miterlimit:4;stroke-dasharray:none;fill:#cccccc"/>
<circle cx="-50.0" cy="-7.79" r="0.825" stroke="#191919" stroke-width="0.35 px" style="stroke-width:0.35;stroke-miterlimit:4;stroke-dasharray:none;fill:#cccccc"/>
<circle cx="50.0" cy="7.79" r="0.825" stroke="#191919" stroke-width="0.35 px" style="stroke-width:0.35;stroke-miterlimit:4;stroke-dasharray:none;fill:#cccccc"/>
<path d="M 49.175 -7.79000000001 L 49.175 -7.79000000001 " stroke="#191919" stroke-width="0.35 px" style="stroke-width:0.35;stroke-miterlimit:4;stroke-dasharray:none;fill:#cccccc"/>
<path d="M 65.815 -7.79000000001 L 65.815 -7.79000000001 " stroke="#191919" stroke-width="0.35 px" style="stroke-width:0.35;stroke-miterlimit:4;stroke-dasharray:none;fill:#cccccc"/>
<circle cx="66.64" cy="7.79" r="0.825" stroke="#191919" stroke-width="0.35 px" style="stroke-width:0.35;stroke-miterlimit:4;stroke-dasharray:none;fill:#cccccc"/>
<path id="PolarPattern002_f0020"  d="M 75.0 28.5 A 28.5 28.5 0 1 0 75 -28.5L 75.0 -28.5 A 28.5 28.5 0 1 1 75 28.5L 75.0 28.5 Z " stroke="#191919" stroke-width="0.35 px" style="stroke-width:0.35;stroke-miterlimit:4;stroke-dasharray:none;fill:#cccccc;fill-rule: evenodd "/>
<path id="PolarPattern002_f0022"  d="M 4.275 -26.85 L 9.2 -26.85 L 9.2 -5.99999999995 L -9.2 -6.0 L -9.2 -26.85 L -4.275 -26.85 L -4.275 -28.5 L 4.275 -28.5 L 4.275 -26.85 Z " stroke="#191919" stroke-width="0.35 px" style="stroke-width:0.35;stroke-miterlimit:4;stroke-dasharray:none;fill:#cccccc;fill-rule: evenodd "/>
<path id="PolarPattern002_f0023"  d="M 75.0 -28.5 L -75.0 -28.5 L -75.0 -28.5 L 75.0 -28.5 L 75.0 -28.5 Z " stroke="#191919" stroke-width="0.35 px" style="stroke-width:0.35;stroke-miterlimit:4;stroke-dasharray:none;fill:#cccccc;fill-rule: evenodd "/>
<path id="PolarPattern002_f0024"  d="M 4.275 -26.85 L 9.2 -26.85 L 9.2 -26.85 L 4.275 -26.85 L 4.275 -26.85 Z " stroke="#191919" stroke-width="0.35 px" style="stroke-width:0.35;stroke-miterlimit:4;stroke-dasharray:none;fill:#cccccc;fill-rule: evenodd "/>
<path id="PolarPattern002_f0025"  d="M 9.2 -5.99999999995 L 9.2 -26.85 L 4.275 -26.85 L -4.275 -26.85 L -9.2 -26.85 L -9.2 -5.99999999995 L 9.2 -5.99999999995 Z " stroke="#191919" stroke-width="0.35 px" style="stroke-width:0.35;stroke-miterlimit:4;stroke-dasharray:none;fill:#cccccc;fill-rule: evenodd "/>
<path id="PolarPattern002_f0026"  d="M -9.2 -26.85 L -4.275 -26.85 L -4.275 -26.85 L -9.2 -26.85 L -9.2 -26.85 Z " stroke="#191919" stroke-width="0.35 px" style="stroke-width:0.35;stroke-miterlimit:4;stroke-dasharray:none;fill:#cccccc;fill-rule: evenodd "/>
<circle cx="-66.64" cy="-7.79" r="0.825" stroke="#191919" stroke-width="0.35 px" style="stroke-width:0.35;stroke-miterlimit:4;stroke-dasharray:none;fill:#cccccc"/>
<path id="PolarPattern002_f0028"  d="M 75.0 28.5 A 28.5 28.5 0 1 0 75 -28.5L 75.0 -28.5 A 28.5 28.5 0 0 1 75 28.5L 75.0 28.5 Z " stroke="#191919" stroke-width="0.35 px" style="stroke-width:0.35;stroke-miterlimit:4;stroke-dasharray:none;fill:#cccccc;fill-rule: evenodd "/>
<path id="PolarPattern002_f0029"  d="M -9.2 -26.85 L -9.2 -26.85 L -9.2 -5.99999999995 L -9.2 -5.99999999995 L -9.2 -26.85 Z " stroke="#191919" stroke-width="0.35 px" style="stroke-width:0.35;stroke-miterlimit:4;stroke-dasharray:none;fill:#cccccc;fill-rule: evenodd "/>
<path id="PolarPattern002_f0030"  d="M -62.5 -6.0 L -62.5 -6.0 L 62.5 -6.0 L 62.5 -6.0 L 9.2 -6.0 L -9.2 -6.0 L -62.5 -6.0 Z " stroke="#191919" stroke-width="0.35 px" style="stroke-width:0.35;stroke-miterlimit:4;stroke-dasharray:none;fill:#cccccc;fill-rule: evenodd "/>
<path id="PolarPattern002_f0031"  d="M 9.2 -5.99999999995 L 9.2 -5.99999999995 L 9.2 -26.85 L 9.2 -26.85 L 9.2 -5.99999999995 Z " stroke="#191919" stroke-width="0.35 px" style="stroke-width:0.35;stroke-miterlimit:4;stroke-dasharray:none;fill:#cccccc;fill-rule: evenodd "/>
<path id="PolarPattern002_f0032"  d="M -62.5 6.0 A 6 6 0 1 1 -62.5 -6L -9.2 -5.99999999995 L 9.2 -5.99999999995 L 62.5 -6.0 A 6 6 0 0 1 62.5 6L -62.5 6.0 Z " stroke="#191919" stroke-width="0.35 px" style="stroke-width:0.35;stroke-miterlimit:4;stroke-dasharray:none;fill:#cccccc;fill-rule: evenodd "/>
<path id="PolarPattern002_f0033"  d="M 63.5 3.0 L -63.5 3.0 L -63.5 3.0 L 63.5 3.0 L 63.5 3.0 Z " stroke="#191919" stroke-width="0.35 px" style="stroke-width:0.35;stroke-miterlimit:4;stroke-dasharray:none;fill:#cccccc;fill-rule: evenodd "/>
<path id="PolarPattern002_f0034"  d="M -63.5 3.0 L -63.5 -3.0 L -63.5 -3.0 L -63.5 3.0 L -63.5 3.0 Z " stroke="#191919" stroke-width="0.35 px" style="stroke-width:0.35;stroke-miterlimit:4;stroke-dasharray:none;fill:#cccccc;fill-rule: evenodd "/>
<path id="PolarPattern002_f0035"  d="M 63.5 -3.0 L 63.5 3.0 L 63.5 3.0 L 63.5 -3.0 L 63.5 -3.0 Z " stroke="#191919" stroke-width="0.35 px" style="stroke-width:0.35;stroke-miterlimit:4;stroke-dasharray:none;fill:#cccccc;fill-rule: evenodd "/>
<path id="PolarPattern002_f0036"  d="M -63.5 -3.0 L 63.5 -3.0 L 63.5 -3.0 L -63.5 -3.0 L -63.5 -3.0 Z " stroke="#191919" stroke-width="0.35 px" style="stroke-width:0.35;stroke-miterlimit:4;stroke-dasharray:none;fill:#cccccc;fill-rule: evenodd "/>
<path id="PolarPattern002_f0037"  d="M -9.2 -5.99999999995 L -9.2 -5.99999999995 L -62.5 -6.0 L -62.5 -6.0 L -9.2 -5.99999999995 Z " stroke="#191919" stroke-width="0.35 px" style="stroke-width:0.35;stroke-miterlimit:4;stroke-dasharray:none;fill:#cccccc;fill-rule: evenodd "/>
<path id="PolarPattern002_f0038"  d="M -62.5 6.0 L -62.5 6.0 A 6 6 0 1 1 -62.5 -6L -62.5 -6.0 A 6 6 0 1 0 -62.5 6Z " stroke="#191919" stroke-width="0.35 px" style="stroke-width:0.35;stroke-miterlimit:4;stroke-dasharray:none;fill:#cccccc;fill-rule: evenodd "/>
<path id="PolarPattern002_f0039"  d="M 62.5 -6.0 L 62.5 -6.0 A 6 6 0 0 1 62.5 6L 62.5 6.0 A 6 6 0 0 0 62.5 -6Z " stroke="#191919" stroke-width="0.35 px" style="stroke-width:0.35;stroke-miterlimit:4;stroke-dasharray:none;fill:#cccccc;fill-rule: evenodd "/>
<path id="PolarPattern002_f0040"  d="M 62.5 -6.0 L 62.5 -6.0 L 9.2 -6.0 L 9.2 -5.99999999995 L 62.5 -6.0 Z " stroke="#191919" stroke-width="0.35 px" style="stroke-width:0.35;stroke-miterlimit:4;stroke-dasharray:none;fill:#cccccc;fill-rule: evenodd "/>
<path id="PolarPattern002_f0042"  d="M -62.5 -6.0 A 6 6 0 1 0 -62.5 6L -62.5 6.0 A 6 6 0 1 1 -62.5 -6L -62.5 -6.0 Z " stroke="#191919" stroke-width="0.35 px" style="stroke-width:0.35;stroke-miterlimit:4;stroke-dasharray:none;fill:#cccccc;fill-rule: evenodd "/>
<path id="PolarPattern002_f0043"  d="M 62.5 6.0 A 6 6 0 0 0 62.5 -6L 62.5 -6.0 A 6 6 0 0 1 62.5 6L 62.5 6.0 Z " stroke="#191919" stroke-width="0.35 px" style="stroke-width:0.35;stroke-miterlimit:4;stroke-dasharray:none;fill:#cccccc;fill-rule: evenodd "/>
<path id="PolarPattern002_f0044"  d="M -62.5 6.0 L -62.5 6.0 L 62.5 6.0 L 62.5 6.0 L -62.5 6.0 Z " stroke="#191919" stroke-width="0.35 px" style="stroke-width:0.35;stroke-miterlimit:4;stroke-dasharray:none;fill:#cccccc;fill-rule: evenodd "/>
<path id="PolarPattern002_f0045"  d="M 62.5 6.0 L -62.5 6.0 L -62.5 6.0 L 62.5 6.0 L 62.5 6.0 Z " stroke="#191919" stroke-width="0.35 px" style="stroke-width:0.35;stroke-miterlimit:4;stroke-dasharray:none;fill:#cccccc;fill-rule: evenodd "/>
<title>PolarPattern002</title>
</g>
</svg>