<?xml version="1.0"?>
<!DOCTYPE svg PUBLIC "-//W3C//DTD SVG 1.1//EN" "http://www.w3.org/Graphics/SVG/1.1/DTD/svg11.dtd">
<svg width="427.38mm" height="127.38mm" viewBox="0 0 427.38 127.38" xmlns="http://www.w3.org/2000/svg" version="1.1">
<g id="MyLayer" transform="translate(107.690000,94.690000) scale(1,-1)">
<path id="MyLayer_w0000"  d="M 75.0 28.5 A 28.5 28.5 0 1 0 75 -28.5L -75.0 -28.5 A 28.5 28.5 0 0 0 -75 28.5L 75.0 28.5 " stroke="#191919" stroke-width="0.35 px" style="stroke-width:0.35;stroke-miterlimit:4;stroke-dasharray:none;fill:none;fill-rule: evenodd "/>
<path d="M -65.815 7.79 L -65.815 7.79 " stroke="#191919" stroke-width="0.35 px" style="stroke-width:0.35;stroke-miterlimit:4;stroke-dasharray:none;fill:none"/>
<circle cx="-66.64" cy="-7.79" r="0.825" stroke="#191919" stroke-width="0.35 px" style="stroke-width:0.35;stroke-miterlimit:4;stroke-dasharray:none;fill:none"/>
<circle cx="-50.0" cy="-7.79" r="0.825" stroke="#191919" stroke-width="0.35 px" style="stroke-width:0.35;stroke-miterlimit:4;stroke-dasharray:none;fill:none"/>
<path d="M -49.175 7.79 L -49.175 7.79 " stroke="#191919" stroke-width="0.35 px" style="stroke-width:0.35;stroke-miterlimit:4;stroke-dasharray:none;fill:none"/>
<path d="M 49.175 -7.79000000001 L 49.175 -7.79000000001 " stroke="#191919" stroke-width="0.35 px" style="stroke-width:0.35;stroke-miterlimit:4;stroke-dasharray:none;fill:none"/>
<circle cx="50.0" cy="7.79" r="0.825" stroke="#191919" stroke-width="0.35 px" style="stroke-width:0.35;stroke-miterlimit:4;stroke-dasharray:none;fill:none"/>
<circle cx="66.64" cy="7.79" r="0.825" stroke="#191919" stroke-width="0.35 px" style="stroke-width:0.35;stroke-miterlimit:4;stroke-dasharray:none;fill:none"/>
<path d="M 65.815 -7.79000000001 L 65.815 -7.79000000001 " stroke="#191919" stroke-width="0.35 px" style="stroke-width:0.35;stroke-miterlimit:4;stroke-dasharray:none;fill:none"/>
<title>MyLayer</title>
</g>
<g id="MyLayer003" transform="translate(107.690000,94.690000) scale(1,-1)">
<path id="MyLayer003_w0000"  d="M 287.0 90.4999999999 A 28.5 28.5 0 1 0 287 33.5L 137.0 33.5 A 28.5 28.5 0 0 0 137 90.5L 287.0 90.4999999999 " stroke="#191919" stroke-width="0.35 px" style="stroke-width:0.35;stroke-miterlimit:4;stroke-dasharray:none;fill:none;fill-rule: evenodd "/>
<path d="M 277.815 54.2099999999 L 277.815 54.2099999999 " stroke="#191919" stroke-width="0.35 px" style="stroke-width:0.35;stroke-miterlimit:4;stroke-dasharray:none;fill:none"/>
<path d="M 146.185 69.7899999999 L 146.185 69.7899999999 " stroke="#191919" stroke-width="0.35 px" style="stroke-width:0.35;stroke-miterlimit:4;stroke-dasharray:none;fill:none"/>
<path d="M 261.175 54.2099999999 L 261.175 54.2099999999 " stroke="#191919" stroke-width="0.35 px" style="stroke-width:0.35;stroke-miterlimit:4;stroke-dasharray:none;fill:none"/>
<circle cx="162.0" cy="54.2099999999" r="0.825" stroke="#191919" stroke-width="0.35 px" style="stroke-width:0.35;stroke-miterlimit:4;stroke-dasharray:none;fill:none"/>
<path id="MyLayer003_w0005"  d="M 148.5 58.9999999999 L 148.5 64.9999999999 L 275.5 64.9999999999 L 275.5 58.9999999999 L 148.5 58.9999999999 " stroke="#191919" stroke-width="0.35 px" style="stroke-width:0.35;stroke-miterlimit:4;stroke-dasharray:none;fill:none;fill-rule: evenodd "/>
<path d="M 162.825 69.7899999999 L 162.825 69.7899999999 " stroke="#191919" stroke-width="0.35 px" style="stroke-width:0.35;stroke-miterlimit:4;stroke-dasharray:none;fill:none"/>
<circle cx="262.0" cy="69.7899999999" r="0.825" stroke="#191919" stroke-width="0.35 px" style="stroke-width:0.35;stroke-miterlimit:4;stroke-dasharray:none;fill:none"/>
<circle cx="278.64" cy="69.7899999999" r="0.825" stroke="#191919" stroke-width="0.35 px" style="stroke-width:0.35;stroke-miterlimit:4;stroke-dasharray:none;fill:none"/>
<circle cx="145.36" cy="54.2099999999" r="0.825" stroke="#191919" stroke-width="0.35 px" style="stroke-width:0.35;stroke-miterlimit:4;stroke-dasharray:none;fill:none"/>
<title>MyLayer003</title>
</g>
<g id="MyLayer002" transform="translate(107.690000,94.690000) scale(1,-1)">
<path id="MyLayer002_w0000"  d="M 75.0 90.4999999999 A 28.5 28.5 0 1 0 75 33.5L -75.0 33.5 A 28.5 28.5 0 0 0 -75 90.5L 75.0 90.4999999999 " stroke="#191919" stroke-width="0.35 px" style="stroke-width:0.35;stroke-miterlimit:4;stroke-dasharray:none;fill:none;fill-rule: evenodd "/>
<path d="M -65.815 69.7899999999 L -65.815 69.7899999999 " stroke="#191919" stroke-width="0.35 px" style="stroke-width:0.35;stroke-miterlimit:4;stroke-dasharray:none;fill:none"/>
<circle cx="-66.64" cy="54.2099999999" r="0.825" stroke="#191919" stroke-width="0.35 px" style="stroke-width:0.35;stroke-miterlimit:4;stroke-dasharray:none;fill:none"/>
<path d="M -49.175 69.7899999999 L -49.175 69.7899999999 " stroke="#191919" stroke-width="0.35 px" style="stroke-width:0.35;stroke-miterlimit:4;stroke-dasharray:none;fill:none"/>
<circle cx="50.0" cy="69.7899999999" r="0.825" stroke="#191919" stroke-width="0.35 px" style="stroke-width:0.35;stroke-miterlimit:4;stroke-dasharray:none;fill:none"/>
<path id="MyLayer002_w0005"  d="M 62.5 67.9999999999 L -62.5 67.9999999999 A 6 6 0 1 1 -62.5 56L 62.5 55.9999999999 A 6 6 0 0 1 62.5 68" stroke="#191919" stroke-width="0.35 px" style="stroke-width:0.35;stroke-miterlimit:4;stroke-dasharray:none;fill:none;fill-rule: evenodd "/>
<path d="M 49.175 54.2099999999 L 49.175 54.2099999999 " stroke="#191919" stroke-width="0.35 px" style="stroke-width:0.35;stroke-miterlimit:4;stroke-dasharray:none;fill:none"/>
<circle cx="-50.0" cy="54.2099999999" r="0.825" stroke="#191919" stroke-width="0.35 px" style="stroke-width:0.35;stroke-miterlimit:4;stroke-dasharray:none;fill:none"/>
<path d="M 65.815 54.2099999999 L 65.815 54.2099999999 " stroke="#191919" stroke-width="0.35 px" style="stroke-width:0.35;stroke-miterlimit:4;stroke-dasharray:none;fill:none"/>
<circle cx="66.64" cy="69.7899999999" r="0.825" stroke="#191919" stroke-width="0.35 px" style="stroke-width:0.35;stroke-miterlimit:4;stroke-dasharray:none;fill:none"/>
<title>MyLayer002</title>
</g>
<g id="MyLayer001" transform="translate(107.690000,94.690000) scale(1,-1)">
<path id="MyLayer001_w0000"  d="M 287.0 28.5 A 28.5 28.5 0 1 0 287 -28.5L 216.275 -28.5 L 216.275 -26.85 L 221.2 -26.85 L 221.2 -5.99999999995 L 274.5 -6.0 A 6 6 0 0 1 274.5 6L 149.5 6.0 A 6 6 0 1 1 149.5 -6L 202.8 -6.0 L 202.8 -26.85 L 207.725 -26.85 L 207.725 -28.5 L 137.0 -28.5 A 28.5 28.5 0 0 0 137 28.5L 287.0 28.5 " stroke="#191919" stroke-width="0.35 px" style="stroke-width:0.35;stroke-miterlimit:4;stroke-dasharray:none;fill:none;fill-rule: evenodd "/>
<circle cx="145.36" cy="-7.79" r="0.825" stroke="#191919" stroke-width="0.35 px" style="stroke-width:0.35;stroke-miterlimit:4;stroke-dasharray:none;fill:none"/>
<path d="M 146.185 7.79 L 146.185 7.79 " stroke="#191919" stroke-width="0.35 px" style="stroke-width:0.35;stroke-miterlimit:4;stroke-dasharray:none;fill:none"/>
<path d="M 162.825 7.79 L 162.825 7.79 " stroke="#191919" stroke-width="0.35 px" style="stroke-width:0.35;stroke-miterlimit:4;stroke-dasharray:none;fill:none"/>
<circle cx="162.0" cy="-7.79" r="0.825" stroke="#191919" stroke-width="0.35 px" style="stroke-width:0.35;stroke-miterlimit:4;stroke-dasharray:none;fill:none"/>
<circle cx="262.0" cy="7.79" r="0.825" stroke="#191919" stroke-width="0.35 px" style="stroke-width:0.35;stroke-miterlimit:4;stroke-dasharray:none;fill:none"/>
<path d="M 261.175 -7.79000000001 L 261.175 -7.79000000001 " stroke="#191919" stroke-width="0.35 px" style="stroke-width:0.35;stroke-miterlimit:4;stroke-dasharray:none;fill:none"/>
<path d="M 277.815 -7.79000000001 L 277.815 -7.79000000001 " stroke="#191919" stroke-width="0.35 px" style="stroke-width:0.35;stroke-miterlimit:4;stroke-dasharray:none;fill:none"/>
<circle cx="278.64" cy="7.79" r="0.825" stroke="#191919" stroke-width="0.35 px" style="stroke-width:0.35;stroke-miterlimit:4;stroke-dasharray:none;fill:none"/>
<title>MyLayer001</title>
</g>
</svg>