<?xml version="1.0"?>
<svg xmlns="http://www.w3.org/2000/svg" xmlns:lc="http://www.librecad.org" xmlns:xlink="http://www.w3.org/1999/xlink" width="419mm" height="119mm" viewBox="0 0 419 119">
    <g lc:layername="0" lc:is_locked="false" lc:is_construction="false" fill="none" stroke="black" stroke-width="1"/>
    <g lc:layername="Body_Slices" lc:is_locked="false" lc:is_construction="false" fill="none" stroke="black" stroke-width="1">
        <g lc:blockname="MYLAYER">
            <g lc:layername="0" lc:is_locked="false" lc:is_construction="false" fill="none" stroke="black" stroke-width="1"/>
            <g lc:layername="Body_Slices" lc:is_locked="false" lc:is_construction="false" fill="none" stroke="black" stroke-width="1">
                <path d="M282,33.5 A28.5,28.5 0 1,1 282,90.5 L132,90.5 A28.5,28.5 0 1,1 132,33.5 L282,33.5 Z "/>
                <circle cx="294.5" cy="62" r="0.825"/>
                <circle cx="119.5" cy="62" r="0.825"/>
            </g>
        </g>
        <g lc:blockname="MYLAYER003">
            <g lc:layername="0" lc:is_locked="false" lc:is_construction="false" fill="none" stroke="black" stroke-width="1"/>
            <g lc:layername="Body_Slices" lc:is_locked="false" lc:is_construction="false" fill="none" stroke="black" stroke-width="1">
                <path d="M494,-28.5 A28.5,28.5 0 1,1 494,28.5 L344,28.5 A28.5,28.5 0 1,1 344,-28.5 L494,-28.5 Z "/>
                <circle cx="506.5" cy="0" r="0.825"/>
                <circle cx="331.5" cy="0" r="0.825"/>
                <path d="M355.5,3 L355.5,-3 L482.5,-3 L482.5,3 L355.5,3 Z "/>
            </g>
        </g>
        <g lc:blockname="MYLAYER001">
            <g lc:layername="0" lc:is_locked="false" lc:is_construction="false" fill="none" stroke="black" stroke-width="1"/>
            <g lc:layername="Body_Slices" lc:is_locked="false" lc:is_construction="false" fill="none" stroke="black" stroke-width="1">
                <path d="M494,33.5 A28.5,28.5 0 1,1 494,90.5 L423.275,90.5 L423.275,88.85 L428.2,88.85 L428.2,68 L481.5,68 A6,6 0 0,0 481.5,56 L356.5,56 A6,6 0 0,0 356.5,68 L409.8,68 L409.8,88.85 L414.725,88.85 L414.725,90.5 L344,90.5 A28.5,28.5 0 1,1 344,33.5 L494,33.5 Z "/>
                <circle cx="506.5" cy="62" r="0.825"/>
                <circle cx="331.5" cy="62" r="0.825"/>
            </g>
        </g>
        <g lc:blockname="MYLAYER002">
            <g lc:layername="0" lc:is_locked="false" lc:is_construction="false" fill="none" stroke="black" stroke-width="1"/>
            <g lc:layername="Body_Slices" lc:is_locked="false" lc:is_construction="false" fill="none" stroke="black" stroke-width="1">
                <path d="M282,-28.5 A28.5,28.5 0 1,1 282,28.5 L132,28.5 A28.5,28.5 0 1,1 132,-28.5 L282,-28.5 Z "/>
                <path d="M269.5,-6 L144.5,-6 A6,6 0 0,0 144.5,6 L269.5,6 A6,6 0 0,0 269.5,-6 Z "/>
                <circle cx="294.5" cy="0" r="0.825"/>
                <circle cx="119.5" cy="0" r="0.825"/>
            </g>
        </g>
    </g>
</svg>
