  0
SECTION
  2
HEADER
  9
$ACADVER
  1
AC1009
  9
$INSBASE
 10
0.0
 20
0.0
 30
0.0
  9
$EXTMIN
 10
0.0
 20
0.0
 30
0.0
  9
$EXTMAX
 10
0.0
 20
0.0
 30
0.0
  0
ENDSEC
  0
SECTION
  2
TABLES
  0
TABLE
  2
VPORT
 70
0
  0
ENDTAB
  0
TABLE
  2
LTYPE
 70
1
  0
LTYPE
  2
CONTINUOUS
 70
0
  3
Solid line
 72
65
 73
0
 40
0.0
  0
ENDTAB
  0
TABLE
  2
LAYER
 70
1
  0
LAYER
  2
0
 70
64
 62
7
  6
continuous
  0
ENDTAB
  0
TABLE
  2
STYLE
 70
1
  0
STYLE
  2
STANDARD
 70
0
 40
0
 41
1.0
 50
0.0
 71
0
 42
1
 3
ARIAL.TTF
 4

  0
ENDTAB
  0
TABLE
  2
VIEW
 70
0
  0
ENDTAB
  0
ENDSEC
  0
SECTION
  2
BLOCKS
  0
BLOCK
  8
Body_Slices
  2
MYLAYER
 70
0
 10
0.0
 20
0.0
 30
0.0
  3
MYLAYER
  0
POLYLINE
  8
Body_Slices
 62
0
 70
1
 66
1
 10
0.0
 20
0.0
 30
0.0
  0
VERTEX
  8
Body_Slices
 10
95.0
 20
37.5
 30
0.0
 42
-1.0
  0
VERTEX
  8
Body_Slices
 10
95.0
 20
-37.5
 30
0.0
  0
VERTEX
  8
Body_Slices
 10
-95.0
 20
-37.5
 30
0.0
 42
-1.0
  0
VERTEX
  8
Body_Slices
 10
-95.0
 20
37.5
 30
0.0
  0
SEQEND
  8
Body_Slices
  0
CIRCLE
  8
Body_Slices
 62
0
 10
-76.0
 20
-8.0
 30
0.0
 40
0.8
  0
CIRCLE
  8
Body_Slices
 62
0
 10
-90.0
 20
-8.0
 30
0.0
 40
0.8
  0
CIRCLE
  8
Body_Slices
 62
0
 10
76.0
 20
-8.0
 30
0.0
 40
0.8
  0
CIRCLE
  8
Body_Slices
 62
0
 10
-90.0
 20
8.0
 30
0.0
 40
0.8
  0
CIRCLE
  8
Body_Slices
 62
0
 10
-76.0
 20
8.0
 30
0.0
 40
0.8
  0
CIRCLE
  8
Body_Slices
 62
0
 10
76.0
 20
8.0
 30
0.0
 40
0.8
  0
CIRCLE
  8
Body_Slices
 62
0
 10
90.0
 20
-8.0
 30
0.0
 40
0.8
  0
CIRCLE
  8
Body_Slices
 62
0
 10
90.0
 20
8.0
 30
0.0
 40
0.8
  0
ENDBLK
  0
BLOCK
  8
Body_Slices
  2
MYLAYER001
 70
0
 10
0.0
 20
0.0
 30
0.0
  3
MYLAYER001
  0
POLYLINE
  8
Body_Slices
 62
0
 70
1
 66
1
 10
0.0
 20
0.0
 30
0.0
  0
VERTEX
  8
Body_Slices
 10
364.988319008
 20
37.5
 30
0.0
 42
-1.0
  0
VERTEX
  8
Body_Slices
 10
364.988319008
 20
-37.5
 30
0.0
  0
VERTEX
  8
Body_Slices
 10
273.988319008
 20
-37.5
 30
0.0
  0
VERTEX
  8
Body_Slices
 10
273.988319008
 20
-35.85
 30
0.0
  0
VERTEX
  8
Body_Slices
 10
279.188319008
 20
-35.85
 30
0.0
  0
VERTEX
  8
Body_Slices
 10
279.188319008
 20
-15.0
 30
0.0
  0
VERTEX
  8
Body_Slices
 10
260.788319008
 20
-15.0
 30
0.0
  0
VERTEX
  8
Body_Slices
 10
260.788319008
 20
-35.85
 30
0.0
  0
VERTEX
  8
Body_Slices
 10
265.988319008
 20
-35.85
 30
0.0
  0
VERTEX
  8
Body_Slices
 10
265.988319008
 20
-37.5
 30
0.0
  0
VERTEX
  8
Body_Slices
 10
174.988319008
 20
-37.5
 30
0.0
 42
-1.0
  0
VERTEX
  8
Body_Slices
 10
174.988319008
 20
37.5
 30
0.0
  0
SEQEND
  8
Body_Slices
  0
CIRCLE
  8
Body_Slices
 62
0
 10
193.988319008
 20
-8.0
 30
0.0
 40
0.8
  0
CIRCLE
  8
Body_Slices
 62
0
 10
179.988319008
 20
-8.0
 30
0.0
 40
0.8
  0
CIRCLE
  8
Body_Slices
 62
0
 10
359.988319008
 20
-8.0
 30
0.0
 40
0.8
  0
CIRCLE
  8
Body_Slices
 62
0
 10
345.988319008
 20
-8.0
 30
0.0
 40
0.8
  0
POLYLINE
  8
Body_Slices
 62
0
 70
1
 66
1
 10
0.0
 20
0.0
 30
0.0
  0
VERTEX
  8
Body_Slices
 10
357.288319008
 20
-6.0
 30
0.0
 42
1.0
  0
VERTEX
  8
Body_Slices
 10
357.288319008
 20
6.0
 30
0.0
  0
VERTEX
  8
Body_Slices
 10
182.688319008
 20
6.0
 30
0.0
 42
1.0
  0
VERTEX
  8
Body_Slices
 10
182.688319008
 20
-6.0
 30
0.0
  0
SEQEND
  8
Body_Slices
  0
CIRCLE
  8
Body_Slices
 62
0
 10
193.988319008
 20
8.0
 30
0.0
 40
0.8
  0
CIRCLE
  8
Body_Slices
 62
0
 10
359.988319008
 20
8.0
 30
0.0
 40
0.8
  0
CIRCLE
  8
Body_Slices
 62
0
 10
345.988319008
 20
8.0
 30
0.0
 40
0.8
  0
CIRCLE
  8
Body_Slices
 62
0
 10
179.988319008
 20
8.0
 30
0.0
 40
0.8
  0
ENDBLK
  0
BLOCK
  8
Body_Slices
  2
MYLAYER003
 70
0
 10
0.0
 20
0.0
 30
0.0
  3
MYLAYER003
  0
POLYLINE
  8
Body_Slices
 62
0
 70
1
 66
1
 10
0.0
 20
0.0
 30
0.0
  0
VERTEX
  8
Body_Slices
 10
364.988319008
 20
117.5
 30
0.0
 42
-1.0
  0
VERTEX
  8
Body_Slices
 10
364.988319008
 20
42.5
 30
0.0
  0
VERTEX
  8
Body_Slices
 10
174.988319008
 20
42.5
 30
0.0
 42
-1.0
  0
VERTEX
  8
Body_Slices
 10
174.988319008
 20
117.5
 30
0.0
  0
SEQEND
  8
Body_Slices
  0
CIRCLE
  8
Body_Slices
 62
0
 10
193.988319008
 20
72.0
 30
0.0
 40
0.8
  0
CIRCLE
  8
Body_Slices
 62
0
 10
179.988319008
 20
72.0
 30
0.0
 40
0.8
  0
POLYLINE
  8
Body_Slices
 62
0
 70
1
 66
1
 10
0.0
 20
0.0
 30
0.0
  0
VERTEX
  8
Body_Slices
 10
184.738319008
 20
77.025
 30
0.0
  0
VERTEX
  8
Body_Slices
 10
184.738319008
 20
82.975
 30
0.0
  0
VERTEX
  8
Body_Slices
 10
355.238319008
 20
82.975
 30
0.0
  0
VERTEX
  8
Body_Slices
 10
355.238319008
 20
77.025
 30
0.0
  0
SEQEND
  8
Body_Slices
  0
CIRCLE
  8
Body_Slices
 62
0
 10
193.988319008
 20
88.0
 30
0.0
 40
0.8
  0
CIRCLE
  8
Body_Slices
 62
0
 10
359.988319008
 20
88.0
 30
0.0
 40
0.8
  0
CIRCLE
  8
Body_Slices
 62
0
 10
345.988319008
 20
88.0
 30
0.0
 40
0.8
  0
CIRCLE
  8
Body_Slices
 62
0
 10
345.988319008
 20
72.0
 30
0.0
 40
0.8
  0
CIRCLE
  8
Body_Slices
 62
0
 10
359.988319008
 20
72.0
 30
0.0
 40
0.8
  0
CIRCLE
  8
Body_Slices
 62
0
 10
179.988319008
 20
88.0
 30
0.0
 40
0.8
  0
ENDBLK
  0
BLOCK
  8
Body_Slices
  2
MYLAYER002
 70
0
 10
0.0
 20
0.0
 30
0.0
  3
MYLAYER002
  0
POLYLINE
  8
Body_Slices
 62
0
 70
1
 66
1
 10
0.0
 20
0.0
 30
0.0
  0
VERTEX
  8
Body_Slices
 10
95.0
 20
117.5
 30
0.0
 42
-1.0
  0
VERTEX
  8
Body_Slices
 10
95.0
 20
42.5
 30
0.0
  0
VERTEX
  8
Body_Slices
 10
-95.0
 20
42.5
 30
0.0
 42
-1.0
  0
VERTEX
  8
Body_Slices
 10
-95.0
 20
117.5
 30
0.0
  0
SEQEND
  8
Body_Slices
  0
CIRCLE
  8
Body_Slices
 62
0
 10
-76.0
 20
72.0
 30
0.0
 40
0.8
  0
CIRCLE
  8
Body_Slices
 62
0
 10
-90.0
 20
72.0
 30
0.0
 40
0.8
  0
POLYLINE
  8
Body_Slices
 62
0
 70
1
 66
1
 10
0.0
 20
0.0
 30
0.0
  0
VERTEX
  8
Body_Slices
 10
92.5387379205
 20
77.075
 30
0.0
  0
VERTEX
  8
Body_Slices
 10
-92.5387379205
 20
77.075
 30
0.0
  0
VERTEX
  8
Body_Slices
 10
-92.5387379205
 20
82.925
 30
0.0
  0
VERTEX
  8
Body_Slices
 10
92.5387379205
 20
82.925
 30
0.0
  0
SEQEND
  8
Body_Slices
  0
CIRCLE
  8
Body_Slices
 62
0
 10
-76.0
 20
88.0
 30
0.0
 40
0.8
  0
CIRCLE
  8
Body_Slices
 62
0
 10
90.0
 20
88.0
 30
0.0
 40
0.8
  0
CIRCLE
  8
Body_Slices
 62
0
 10
76.0
 20
88.0
 30
0.0
 40
0.8
  0
CIRCLE
  8
Body_Slices
 62
0
 10
76.0
 20
72.0
 30
0.0
 40
0.8
  0
CIRCLE
  8
Body_Slices
 62
0
 10
90.0
 20
72.0
 30
0.0
 40
0.8
  0
CIRCLE
  8
Body_Slices
 62
0
 10
-90.0
 20
88.0
 30
0.0
 40
0.8
  0
ENDBLK
  0
ENDSEC
  0
SECTION
  2
ENTITIES
  0
INSERT
  2
MYLAYER
  8
Body_Slices
 62
0
 10
0.0
 20
0.0
 30
0.0
  0
INSERT
  2
MYLAYER001
  8
Body_Slices
 62
0
 10
0.0
 20
0.0
 30
0.0
  0
INSERT
  2
MYLAYER003
  8
Body_Slices
 62
0
 10
0.0
 20
0.0
 30
0.0
  0
INSERT
  2
MYLAYER002
  8
Body_Slices
 62
0
 10
0.0
 20
0.0
 30
0.0
  0
ENDSEC
  0
EOF
