  0
SECTION
  2
HEADER
  9
$ACADVER
  1
AC1014
  9
$HANDSEED
  5
FFFF
  9
$MEASUREMENT
 70
     1
  0
ENDSEC
  0
SECTION
  2
TABLES
  0
TABLE
  2
VPORT
  5
8
330
0
100
AcDbSymbolTable
 70
     4
  0
VPORT
  5
2E
330
8
100
AcDbSymbolTableRecord
100
AcDbViewportTableRecord
  2
*ACTIVE
 70
     0
 10
0.0
 20
0.0
 11
1.0
 21
1.0
 12
210.0
 22
148.5
 13
0.0
 23
0.0
 14
10.0
 24
10.0
 15
10.0
 25
10.0
 16
0.0
 26
0.0
 36
1.0
 17
0.0
 27
0.0
 37
0.0
 40
341.0
 41
1.24
 42
50.0
 43
0.0
 44
0.0
 50
0.0
 51
0.0
 71
     0
 72
   100
 73
     1
 74
     3
 75
     0
 76
     0
 77
     0
 78
     0
  0
ENDTAB
  0
TABLE
  2
LTYPE
  5
5
330
0
100
AcDbSymbolTable
 70
     1
  0
LTYPE
  5
14
330
5
100
AcDbSymbolTableRecord
100
AcDbLinetypeTableRecord
  2
BYBLOCK
 70
     0
  3

 72
    65
 73
     0
 40
0.0
  0
LTYPE
  5
15
330
5
100
AcDbSymbolTableRecord
100
AcDbLinetypeTableRecord
  2
BYLAYER
 70
     0
  3

 72
    65
 73
     0
 40
0.0
  0
LTYPE
  5
16
330
5
100
AcDbSymbolTableRecord
100
AcDbLinetypeTableRecord
  2
CONTINUOUS
 70
     0
  3
Solid line
 72
    65
 73
     0
 40
0.0
  0
ENDTAB
  0
TABLE
  2
LAYER
  5
2
100
AcDbSymbolTable
 70
2
  0
LAYER
  5
50
100
AcDbSymbolTableRecord
100
AcDbLayerTableRecord
  2
0
 70
0
  6
CONTINUOUS
  0
LAYER
  5
51
100
AcDbSymbolTableRecord
100
AcDbLayerTableRecord
  2
Layer_1
 70
0
  6
CONTINUOUS
  0
ENDTAB
  0
TABLE
  2
STYLE
  5
3
330
0
100
AcDbSymbolTable
 70
     1
  0
STYLE
  5
11
330
3
100
AcDbSymbolTableRecord
100
AcDbTextStyleTableRecord
  2
STANDARD
 70
     0
 40
0.0
 41
1.0
 50
0.0
 71
     0
 42
2.5
  3
txt
  4

  0
ENDTAB
  0
TABLE
  2
VIEW
  5
6
330
0
100
AcDbSymbolTable
 70
     0
  0
ENDTAB
  0
TABLE
  2
UCS
  5
7
330
0
100
AcDbSymbolTable
 70
     0
  0
ENDTAB
  0
TABLE
  2
APPID
  5
9
330
0
100
AcDbSymbolTable
 70
     2
  0
APPID
  5
12
330
9
100
AcDbSymbolTableRecord
100
AcDbRegAppTableRecord
  2
ACAD
 70
     0
  0
ENDTAB
  0
TABLE
  2
DIMSTYLE
  5
A
330
0
100
AcDbSymbolTable
 70
     1
  0
DIMSTYLE
105
27
330
A
100
AcDbSymbolTableRecord
100
AcDbDimStyleTableRecord
  2
ISO-25
 70
     0
  3

  4

  5

  6

  7

 40
1.0
 41
2.5
 42
0.625
 43
3.75
 44
1.25
 45
0.0
 46
0.0
 47
0.0
 48
0.0
140
2.5
141
2.5
142
0.0
143
0.03937007874016
144
1.0
145
0.0
146
1.0
147
0.625
 71
     0
 72
     0
 73
     0
 74
     0
 75
     0
 76
     0
 77
     1
 78
     8
170
     0
171
     3
172
     1
173
     0
174
     0
175
     0
176
     0
177
     0
178
     0
270
     2
271
     2
272
     2
273
     2
274
     3
340
11
275
     0
280
     0
281
     0
282
     0
283
     0
284
     8
285
     0
286
     0
287
     3
288
     0
  0
ENDTAB
  0
TABLE
  2
BLOCK_RECORD
  5
1
330
0
100
AcDbSymbolTable
 70
     1
  0
BLOCK_RECORD
  5
1F
330
1
100
AcDbSymbolTableRecord
100
AcDbBlockTableRecord
  2
*MODEL_SPACE
  0
BLOCK_RECORD
  5
1B
330
1
100
AcDbSymbolTableRecord
100
AcDbBlockTableRecord
  2
*PAPER_SPACE
  0
ENDTAB
  0
ENDSEC
  0
SECTION
  2
BLOCKS
  0
BLOCK
  5
20
330
1F
100
AcDbEntity
  8
0
100
AcDbBlockBegin
  2
*MODEL_SPACE
 70
     0
 10
0.0
 20
0.0
 30
0.0
  3
*MODEL_SPACE
  1

  0
ENDBLK
  5
21
330
1F
100
AcDbEntity
  8
0
100
AcDbBlockEnd
  0
BLOCK
  5
1C
330
1B
100
AcDbEntity
 67
     1
  8
0
100
AcDbBlockBegin
  2
*PAPER_SPACE
  1

  0
ENDBLK
  5
1D
330
1B
100
AcDbEntity
 67
     1
  8
0
100
AcDbBlockEnd
  0
ENDSEC
  0
SECTION
  2
ENTITIES
  0
SPLINE
  5
100
100
AcDbEntity
  8
Layer_1
 62
5
100
AcDbSpline
 70
8
 71
3
 72
8
 73
4
 74
0
 40
0
 40
0
 40
0
 40
0
 40
1
 40
1
 40
1
 40
1
 10
207.448830
 20
243.563598
 30
0.0
 10
228.066823
 20
243.553970
 30
0.0
 10
244.775880
 20
226.837039
 30
0.0
 10
244.775794
 20
206.219044
 30
0.0
  0
SPLINE
  5
101
100
AcDbEntity
  8
Layer_1
 62
5
100
AcDbSpline
 70
8
 71
3
 72
8
 73
4
 74
0
 40
0
 40
0
 40
0
 40
0
 40
1
 40
1
 40
1
 40
1
 10
244.775794
 20
206.219044
 30
0.0
 10
244.775709
 20
185.601049
 30
0.0
 10
228.066513
 20
168.884257
 30
0.0
 10
207.448520
 20
168.874800
 30
0.0
  0
LINE
  5
102
100
AcDbEntity
  8
Layer_1
 62
5
100
AcDbLine
 10
207.448520
 20
168.874800
 30
0.0
 11
18.237194
 21
168.874800
 31
0.0
  0
SPLINE
  5
103
100
AcDbEntity
  8
Layer_1
 62
5
100
AcDbSpline
 70
8
 71
3
 72
8
 73
4
 74
0
 40
0
 40
0
 40
0
 40
0
 40
1
 40
1
 40
1
 40
1
 10
18.237194
 20
168.874800
 30
0.0
 10
4.891209
 20
168.868566
 30
0.0
 10
-7.443664
 20
175.984965
 30
0.0
 10
-14.118490
 20
187.541871
 30
0.0
  0
SPLINE
  5
104
100
AcDbEntity
  8
Layer_1
 62
5
100
AcDbSpline
 70
8
 71
3
 72
8
 73
4
 74
0
 40
0
 40
0
 40
0
 40
0
 40
1
 40
1
 40
1
 40
1
 10
-14.118490
 20
187.541871
 30
0.0
 10
-20.793316
 20
199.098776
 30
0.0
 10
-20.793376
 20
213.339289
 30
0.0
 10
-14.118649
 20
224.896252
 30
0.0
  0
SPLINE
  5
105
100
AcDbEntity
  8
Layer_1
 62
5
100
AcDbSpline
 70
8
 71
3
 72
8
 73
4
 74
0
 40
0
 40
0
 40
0
 40
0
 40
1
 40
1
 40
1
 40
1
 10
-14.118649
 20
224.896252
 30
0.0
 10
-7.443922
 20
236.453214
 30
0.0
 10
4.890891
 20
243.569718
 30
0.0
 10
18.236876
 20
243.563598
 30
0.0
  0
LINE
  5
106
100
AcDbEntity
  8
Layer_1
 62
5
100
AcDbLine
 10
18.236876
 20
243.563598
 30
0.0
 11
207.448830
 21
243.563598
 31
0.0
  0
SPLINE
  5
107
100
AcDbEntity
  8
Layer_1
 62
5
100
AcDbSpline
 70
8
 71
3
 72
8
 73
4
 74
0
 40
0
 40
0
 40
0
 40
0
 40
1
 40
1
 40
1
 40
1
 10
37.625569
 20
198.219199
 30
0.0
 10
37.625569
 20
198.505011
 30
0.0
 10
37.473090
 20
198.769113
 30
0.0
 10
37.225569
 20
198.912019
 30
0.0
  0
SPLINE
  5
108
100
AcDbEntity
  8
Layer_1
 62
5
100
AcDbSpline
 70
8
 71
3
 72
8
 73
4
 74
0
 40
0
 40
0
 40
0
 40
0
 40
1
 40
1
 40
1
 40
1
 10
37.225569
 20
198.912019
 30
0.0
 10
36.978048
 20
199.054925
 30
0.0
 10
36.673090
 20
199.054925
 30
0.0
 10
36.425569
 20
198.912019
 30
0.0
  0
SPLINE
  5
109
100
AcDbEntity
  8
Layer_1
 62
5
100
AcDbSpline
 70
8
 71
3
 72
8
 73
4
 74
0
 40
0
 40
0
 40
0
 40
0
 40
1
 40
1
 40
1
 40
1
 10
36.425569
 20
198.912019
 30
0.0
 10
36.178048
 20
198.769113
 30
0.0
 10
36.025569
 20
198.505011
 30
0.0
 10
36.025569
 20
198.219199
 30
0.0
  0
SPLINE
  5
10a
100
AcDbEntity
  8
Layer_1
 62
5
100
AcDbSpline
 70
8
 71
3
 72
8
 73
4
 74
0
 40
0
 40
0
 40
0
 40
0
 40
1
 40
1
 40
1
 40
1
 10
36.025569
 20
198.219199
 30
0.0
 10
36.025569
 20
197.777371
 30
0.0
 10
36.383742
 20
197.419199
 30
0.0
 10
36.825569
 20
197.419199
 30
0.0
  0
SPLINE
  5
10b
100
AcDbEntity
  8
Layer_1
 62
5
100
AcDbSpline
 70
8
 71
3
 72
8
 73
4
 74
0
 40
0
 40
0
 40
0
 40
0
 40
1
 40
1
 40
1
 40
1
 10
36.825569
 20
197.419199
 30
0.0
 10
37.267397
 20
197.419199
 30
0.0
 10
37.625569
 20
197.777371
 30
0.0
 10
37.625569
 20
198.219199
 30
0.0
  0
LINE
  5
10c
100
AcDbEntity
  8
Layer_1
 62
5
100
AcDbLine
 10
37.625569
 20
198.219199
 30
0.0
 11
37.625569
 21
198.219199
 31
0.0
  0
SPLINE
  5
10d
100
AcDbEntity
  8
Layer_1
 62
5
100
AcDbSpline
 70
8
 71
3
 72
8
 73
4
 74
0
 40
0
 40
0
 40
0
 40
0
 40
1
 40
1
 40
1
 40
1
 10
23.625565
 20
198.219199
 30
0.0
 10
23.625565
 20
198.505011
 30
0.0
 10
23.473086
 20
198.769113
 30
0.0
 10
23.225565
 20
198.912019
 30
0.0
  0
SPLINE
  5
10e
100
AcDbEntity
  8
Layer_1
 62
5
100
AcDbSpline
 70
8
 71
3
 72
8
 73
4
 74
0
 40
0
 40
0
 40
0
 40
0
 40
1
 40
1
 40
1
 40
1
 10
23.225565
 20
198.912019
 30
0.0
 10
22.978044
 20
199.054925
 30
0.0
 10
22.673086
 20
199.054925
 30
0.0
 10
22.425565
 20
198.912019
 30
0.0
  0
SPLINE
  5
10f
100
AcDbEntity
  8
Layer_1
 62
5
100
AcDbSpline
 70
8
 71
3
 72
8
 73
4
 74
0
 40
0
 40
0
 40
0
 40
0
 40
1
 40
1
 40
1
 40
1
 10
22.425565
 20
198.912019
 30
0.0
 10
22.178044
 20
198.769113
 30
0.0
 10
22.025565
 20
198.505011
 30
0.0
 10
22.025565
 20
198.219199
 30
0.0
  0
SPLINE
  5
110
100
AcDbEntity
  8
Layer_1
 62
5
100
AcDbSpline
 70
8
 71
3
 72
8
 73
4
 74
0
 40
0
 40
0
 40
0
 40
0
 40
1
 40
1
 40
1
 40
1
 10
22.025565
 20
198.219199
 30
0.0
 10
22.025565
 20
197.933386
 30
0.0
 10
22.178044
 20
197.669285
 30
0.0
 10
22.425565
 20
197.526378
 30
0.0
  0
SPLINE
  5
111
100
AcDbEntity
  8
Layer_1
 62
5
100
AcDbSpline
 70
8
 71
3
 72
8
 73
4
 74
0
 40
0
 40
0
 40
0
 40
0
 40
1
 40
1
 40
1
 40
1
 10
22.425565
 20
197.526378
 30
0.0
 10
22.673086
 20
197.383472
 30
0.0
 10
22.978044
 20
197.383472
 30
0.0
 10
23.225565
 20
197.526378
 30
0.0
  0
SPLINE
  5
112
100
AcDbEntity
  8
Layer_1
 62
5
100
AcDbSpline
 70
8
 71
3
 72
8
 73
4
 74
0
 40
0
 40
0
 40
0
 40
0
 40
1
 40
1
 40
1
 40
1
 10
23.225565
 20
197.526378
 30
0.0
 10
23.473086
 20
197.669285
 30
0.0
 10
23.625565
 20
197.933386
 30
0.0
 10
23.625565
 20
198.219199
 30
0.0
  0
LINE
  5
113
100
AcDbEntity
  8
Layer_1
 62
5
100
AcDbLine
 10
23.625565
 20
198.219199
 30
0.0
 11
23.625565
 21
198.219199
 31
0.0
  0
LINE
  5
114
100
AcDbEntity
  8
Layer_1
 62
5
100
AcDbLine
 10
26.879442
 20
202.773234
 30
0.0
 11
26.879442
 21
209.665170
 31
0.0
  0
LINE
  5
115
100
AcDbEntity
  8
Layer_1
 62
5
100
AcDbLine
 10
26.879442
 20
209.665170
 30
0.0
 11
198.771386
 21
209.665170
 31
0.0
  0
LINE
  5
116
100
AcDbEntity
  8
Layer_1
 62
5
100
AcDbLine
 10
198.771386
 20
209.665170
 30
0.0
 11
198.771386
 21
202.773234
 31
0.0
  0
LINE
  5
117
100
AcDbEntity
  8
Layer_1
 62
5
100
AcDbLine
 10
198.771386
 20
202.773234
 30
0.0
 11
26.879442
 21
202.773234
 31
0.0
  0
SPLINE
  5
118
100
AcDbEntity
  8
Layer_1
 62
5
100
AcDbSpline
 70
8
 71
3
 72
8
 73
4
 74
0
 40
0
 40
0
 40
0
 40
0
 40
1
 40
1
 40
1
 40
1
 10
37.625569
 20
214.219199
 30
0.0
 10
37.625569
 20
214.505011
 30
0.0
 10
37.473090
 20
214.769113
 30
0.0
 10
37.225569
 20
214.912019
 30
0.0
  0
SPLINE
  5
119
100
AcDbEntity
  8
Layer_1
 62
5
100
AcDbSpline
 70
8
 71
3
 72
8
 73
4
 74
0
 40
0
 40
0
 40
0
 40
0
 40
1
 40
1
 40
1
 40
1
 10
37.225569
 20
214.912019
 30
0.0
 10
36.978048
 20
215.054925
 30
0.0
 10
36.673090
 20
215.054925
 30
0.0
 10
36.425569
 20
214.912019
 30
0.0
  0
SPLINE
  5
11a
100
AcDbEntity
  8
Layer_1
 62
5
100
AcDbSpline
 70
8
 71
3
 72
8
 73
4
 74
0
 40
0
 40
0
 40
0
 40
0
 40
1
 40
1
 40
1
 40
1
 10
36.425569
 20
214.912019
 30
0.0
 10
36.178048
 20
214.769113
 30
0.0
 10
36.025569
 20
214.505011
 30
0.0
 10
36.025569
 20
214.219199
 30
0.0
  0
SPLINE
  5
11b
100
AcDbEntity
  8
Layer_1
 62
5
100
AcDbSpline
 70
8
 71
3
 72
8
 73
4
 74
0
 40
0
 40
0
 40
0
 40
0
 40
1
 40
1
 40
1
 40
1
 10
36.025569
 20
214.219199
 30
0.0
 10
36.025569
 20
213.777371
 30
0.0
 10
36.383742
 20
213.419199
 30
0.0
 10
36.825569
 20
213.419199
 30
0.0
  0
SPLINE
  5
11c
100
AcDbEntity
  8
Layer_1
 62
5
100
AcDbSpline
 70
8
 71
3
 72
8
 73
4
 74
0
 40
0
 40
0
 40
0
 40
0
 40
1
 40
1
 40
1
 40
1
 10
36.825569
 20
213.419199
 30
0.0
 10
37.267397
 20
213.419199
 30
0.0
 10
37.625569
 20
213.777371
 30
0.0
 10
37.625569
 20
214.219199
 30
0.0
  0
LINE
  5
11d
100
AcDbEntity
  8
Layer_1
 62
5
100
AcDbLine
 10
37.625569
 20
214.219199
 30
0.0
 11
37.625569
 21
214.219199
 31
0.0
  0
SPLINE
  5
11e
100
AcDbEntity
  8
Layer_1
 62
5
100
AcDbSpline
 70
8
 71
3
 72
8
 73
4
 74
0
 40
0
 40
0
 40
0
 40
0
 40
1
 40
1
 40
1
 40
1
 10
203.625576
 20
214.219199
 30
0.0
 10
203.625576
 20
214.505011
 30
0.0
 10
203.473097
 20
214.769113
 30
0.0
 10
203.225576
 20
214.912019
 30
0.0
  0
SPLINE
  5
11f
100
AcDbEntity
  8
Layer_1
 62
5
100
AcDbSpline
 70
8
 71
3
 72
8
 73
4
 74
0
 40
0
 40
0
 40
0
 40
0
 40
1
 40
1
 40
1
 40
1
 10
203.225576
 20
214.912019
 30
0.0
 10
202.978055
 20
215.054925
 30
0.0
 10
202.673097
 20
215.054925
 30
0.0
 10
202.425576
 20
214.912019
 30
0.0
  0
SPLINE
  5
120
100
AcDbEntity
  8
Layer_1
 62
5
100
AcDbSpline
 70
8
 71
3
 72
8
 73
4
 74
0
 40
0
 40
0
 40
0
 40
0
 40
1
 40
1
 40
1
 40
1
 10
202.425576
 20
214.912019
 30
0.0
 10
202.178055
 20
214.769113
 30
0.0
 10
202.025576
 20
214.505011
 30
0.0
 10
202.025576
 20
214.219199
 30
0.0
  0
SPLINE
  5
121
100
AcDbEntity
  8
Layer_1
 62
5
100
AcDbSpline
 70
8
 71
3
 72
8
 73
4
 74
0
 40
0
 40
0
 40
0
 40
0
 40
1
 40
1
 40
1
 40
1
 10
202.025576
 20
214.219199
 30
0.0
 10
202.025576
 20
213.933386
 30
0.0
 10
202.178055
 20
213.669285
 30
0.0
 10
202.425576
 20
213.526378
 30
0.0
  0
SPLINE
  5
122
100
AcDbEntity
  8
Layer_1
 62
5
100
AcDbSpline
 70
8
 71
3
 72
8
 73
4
 74
0
 40
0
 40
0
 40
0
 40
0
 40
1
 40
1
 40
1
 40
1
 10
202.425576
 20
213.526378
 30
0.0
 10
202.673097
 20
213.383472
 30
0.0
 10
202.978055
 20
213.383472
 30
0.0
 10
203.225576
 20
213.526378
 30
0.0
  0
SPLINE
  5
123
100
AcDbEntity
  8
Layer_1
 62
5
100
AcDbSpline
 70
8
 71
3
 72
8
 73
4
 74
0
 40
0
 40
0
 40
0
 40
0
 40
1
 40
1
 40
1
 40
1
 10
203.225576
 20
213.526378
 30
0.0
 10
203.473097
 20
213.669285
 30
0.0
 10
203.625576
 20
213.933386
 30
0.0
 10
203.625576
 20
214.219199
 30
0.0
  0
LINE
  5
124
100
AcDbEntity
  8
Layer_1
 62
5
100
AcDbLine
 10
203.625576
 20
214.219199
 30
0.0
 11
203.625576
 21
214.219199
 31
0.0
  0
SPLINE
  5
125
100
AcDbEntity
  8
Layer_1
 62
5
100
AcDbSpline
 70
8
 71
3
 72
8
 73
4
 74
0
 40
0
 40
0
 40
0
 40
0
 40
1
 40
1
 40
1
 40
1
 10
189.625576
 20
214.219199
 30
0.0
 10
189.625576
 20
214.505011
 30
0.0
 10
189.473097
 20
214.769113
 30
0.0
 10
189.225576
 20
214.912019
 30
0.0
  0
SPLINE
  5
126
100
AcDbEntity
  8
Layer_1
 62
5
100
AcDbSpline
 70
8
 71
3
 72
8
 73
4
 74
0
 40
0
 40
0
 40
0
 40
0
 40
1
 40
1
 40
1
 40
1
 10
189.225576
 20
214.912019
 30
0.0
 10
188.978055
 20
215.054925
 30
0.0
 10
188.673097
 20
215.054925
 30
0.0
 10
188.425576
 20
214.912019
 30
0.0
  0
SPLINE
  5
127
100
AcDbEntity
  8
Layer_1
 62
5
100
AcDbSpline
 70
8
 71
3
 72
8
 73
4
 74
0
 40
0
 40
0
 40
0
 40
0
 40
1
 40
1
 40
1
 40
1
 10
188.425576
 20
214.912019
 30
0.0
 10
188.178055
 20
214.769113
 30
0.0
 10
188.025576
 20
214.505011
 30
0.0
 10
188.025576
 20
214.219199
 30
0.0
  0
SPLINE
  5
128
100
AcDbEntity
  8
Layer_1
 62
5
100
AcDbSpline
 70
8
 71
3
 72
8
 73
4
 74
0
 40
0
 40
0
 40
0
 40
0
 40
1
 40
1
 40
1
 40
1
 10
188.025576
 20
214.219199
 30
0.0
 10
188.025576
 20
213.933386
 30
0.0
 10
188.178055
 20
213.669285
 30
0.0
 10
188.425576
 20
213.526378
 30
0.0
  0
SPLINE
  5
129
100
AcDbEntity
  8
Layer_1
 62
5
100
AcDbSpline
 70
8
 71
3
 72
8
 73
4
 74
0
 40
0
 40
0
 40
0
 40
0
 40
1
 40
1
 40
1
 40
1
 10
188.425576
 20
213.526378
 30
0.0
 10
188.673097
 20
213.383472
 30
0.0
 10
188.978055
 20
213.383472
 30
0.0
 10
189.225576
 20
213.526378
 30
0.0
  0
SPLINE
  5
12a
100
AcDbEntity
  8
Layer_1
 62
5
100
AcDbSpline
 70
8
 71
3
 72
8
 73
4
 74
0
 40
0
 40
0
 40
0
 40
0
 40
1
 40
1
 40
1
 40
1
 10
189.225576
 20
213.526378
 30
0.0
 10
189.473097
 20
213.669285
 30
0.0
 10
189.625576
 20
213.933386
 30
0.0
 10
189.625576
 20
214.219199
 30
0.0
  0
LINE
  5
12b
100
AcDbEntity
  8
Layer_1
 62
5
100
AcDbLine
 10
189.625576
 20
214.219199
 30
0.0
 11
189.625576
 21
214.219199
 31
0.0
  0
SPLINE
  5
12c
100
AcDbEntity
  8
Layer_1
 62
5
100
AcDbSpline
 70
8
 71
3
 72
8
 73
4
 74
0
 40
0
 40
0
 40
0
 40
0
 40
1
 40
1
 40
1
 40
1
 10
189.625576
 20
198.219199
 30
0.0
 10
189.625576
 20
198.505011
 30
0.0
 10
189.473097
 20
198.769113
 30
0.0
 10
189.225576
 20
198.912019
 30
0.0
  0
SPLINE
  5
12d
100
AcDbEntity
  8
Layer_1
 62
5
100
AcDbSpline
 70
8
 71
3
 72
8
 73
4
 74
0
 40
0
 40
0
 40
0
 40
0
 40
1
 40
1
 40
1
 40
1
 10
189.225576
 20
198.912019
 30
0.0
 10
188.978055
 20
199.054925
 30
0.0
 10
188.673097
 20
199.054925
 30
0.0
 10
188.425576
 20
198.912019
 30
0.0
  0
SPLINE
  5
12e
100
AcDbEntity
  8
Layer_1
 62
5
100
AcDbSpline
 70
8
 71
3
 72
8
 73
4
 74
0
 40
0
 40
0
 40
0
 40
0
 40
1
 40
1
 40
1
 40
1
 10
188.425576
 20
198.912019
 30
0.0
 10
188.178055
 20
198.769113
 30
0.0
 10
188.025576
 20
198.505011
 30
0.0
 10
188.025576
 20
198.219199
 30
0.0
  0
SPLINE
  5
12f
100
AcDbEntity
  8
Layer_1
 62
5
100
AcDbSpline
 70
8
 71
3
 72
8
 73
4
 74
0
 40
0
 40
0
 40
0
 40
0
 40
1
 40
1
 40
1
 40
1
 10
188.025576
 20
198.219199
 30
0.0
 10
188.025576
 20
197.933386
 30
0.0
 10
188.178055
 20
197.669285
 30
0.0
 10
188.425576
 20
197.526378
 30
0.0
  0
SPLINE
  5
130
100
AcDbEntity
  8
Layer_1
 62
5
100
AcDbSpline
 70
8
 71
3
 72
8
 73
4
 74
0
 40
0
 40
0
 40
0
 40
0
 40
1
 40
1
 40
1
 40
1
 10
188.425576
 20
197.526378
 30
0.0
 10
188.673097
 20
197.383472
 30
0.0
 10
188.978055
 20
197.383472
 30
0.0
 10
189.225576
 20
197.526378
 30
0.0
  0
SPLINE
  5
131
100
AcDbEntity
  8
Layer_1
 62
5
100
AcDbSpline
 70
8
 71
3
 72
8
 73
4
 74
0
 40
0
 40
0
 40
0
 40
0
 40
1
 40
1
 40
1
 40
1
 10
189.225576
 20
197.526378
 30
0.0
 10
189.473097
 20
197.669285
 30
0.0
 10
189.625576
 20
197.933386
 30
0.0
 10
189.625576
 20
198.219199
 30
0.0
  0
LINE
  5
132
100
AcDbEntity
  8
Layer_1
 62
5
100
AcDbLine
 10
189.625576
 20
198.219199
 30
0.0
 11
189.625576
 21
198.219199
 31
0.0
  0
SPLINE
  5
133
100
AcDbEntity
  8
Layer_1
 62
5
100
AcDbSpline
 70
8
 71
3
 72
8
 73
4
 74
0
 40
0
 40
0
 40
0
 40
0
 40
1
 40
1
 40
1
 40
1
 10
203.625576
 20
198.219199
 30
0.0
 10
203.625576
 20
198.505011
 30
0.0
 10
203.473097
 20
198.769113
 30
0.0
 10
203.225576
 20
198.912019
 30
0.0
  0
SPLINE
  5
134
100
AcDbEntity
  8
Layer_1
 62
5
100
AcDbSpline
 70
8
 71
3
 72
8
 73
4
 74
0
 40
0
 40
0
 40
0
 40
0
 40
1
 40
1
 40
1
 40
1
 10
203.225576
 20
198.912019
 30
0.0
 10
202.978055
 20
199.054925
 30
0.0
 10
202.673097
 20
199.054925
 30
0.0
 10
202.425576
 20
198.912019
 30
0.0
  0
SPLINE
  5
135
100
AcDbEntity
  8
Layer_1
 62
5
100
AcDbSpline
 70
8
 71
3
 72
8
 73
4
 74
0
 40
0
 40
0
 40
0
 40
0
 40
1
 40
1
 40
1
 40
1
 10
202.425576
 20
198.912019
 30
0.0
 10
202.178055
 20
198.769113
 30
0.0
 10
202.025576
 20
198.505011
 30
0.0
 10
202.025576
 20
198.219199
 30
0.0
  0
SPLINE
  5
136
100
AcDbEntity
  8
Layer_1
 62
5
100
AcDbSpline
 70
8
 71
3
 72
8
 73
4
 74
0
 40
0
 40
0
 40
0
 40
0
 40
1
 40
1
 40
1
 40
1
 10
202.025576
 20
198.219199
 30
0.0
 10
202.025576
 20
197.933386
 30
0.0
 10
202.178055
 20
197.669285
 30
0.0
 10
202.425576
 20
197.526378
 30
0.0
  0
SPLINE
  5
137
100
AcDbEntity
  8
Layer_1
 62
5
100
AcDbSpline
 70
8
 71
3
 72
8
 73
4
 74
0
 40
0
 40
0
 40
0
 40
0
 40
1
 40
1
 40
1
 40
1
 10
202.425576
 20
197.526378
 30
0.0
 10
202.673097
 20
197.383472
 30
0.0
 10
202.978055
 20
197.383472
 30
0.0
 10
203.225576
 20
197.526378
 30
0.0
  0
SPLINE
  5
138
100
AcDbEntity
  8
Layer_1
 62
5
100
AcDbSpline
 70
8
 71
3
 72
8
 73
4
 74
0
 40
0
 40
0
 40
0
 40
0
 40
1
 40
1
 40
1
 40
1
 10
203.225576
 20
197.526378
 30
0.0
 10
203.473097
 20
197.669285
 30
0.0
 10
203.625576
 20
197.933386
 30
0.0
 10
203.625576
 20
198.219199
 30
0.0
  0
LINE
  5
139
100
AcDbEntity
  8
Layer_1
 62
5
100
AcDbLine
 10
203.625576
 20
198.219199
 30
0.0
 11
203.625576
 21
198.219199
 31
0.0
  0
SPLINE
  5
13a
100
AcDbEntity
  8
Layer_1
 62
5
100
AcDbSpline
 70
8
 71
3
 72
8
 73
4
 74
0
 40
0
 40
0
 40
0
 40
0
 40
1
 40
1
 40
1
 40
1
 10
23.625565
 20
214.219199
 30
0.0
 10
23.625565
 20
214.505011
 30
0.0
 10
23.473086
 20
214.769113
 30
0.0
 10
23.225565
 20
214.912019
 30
0.0
  0
SPLINE
  5
13b
100
AcDbEntity
  8
Layer_1
 62
5
100
AcDbSpline
 70
8
 71
3
 72
8
 73
4
 74
0
 40
0
 40
0
 40
0
 40
0
 40
1
 40
1
 40
1
 40
1
 10
23.225565
 20
214.912019
 30
0.0
 10
22.978044
 20
215.054925
 30
0.0
 10
22.673086
 20
215.054925
 30
0.0
 10
22.425565
 20
214.912019
 30
0.0
  0
SPLINE
  5
13c
100
AcDbEntity
  8
Layer_1
 62
5
100
AcDbSpline
 70
8
 71
3
 72
8
 73
4
 74
0
 40
0
 40
0
 40
0
 40
0
 40
1
 40
1
 40
1
 40
1
 10
22.425565
 20
214.912019
 30
0.0
 10
22.178044
 20
214.769113
 30
0.0
 10
22.025565
 20
214.505011
 30
0.0
 10
22.025565
 20
214.219199
 30
0.0
  0
SPLINE
  5
13d
100
AcDbEntity
  8
Layer_1
 62
5
100
AcDbSpline
 70
8
 71
3
 72
8
 73
4
 74
0
 40
0
 40
0
 40
0
 40
0
 40
1
 40
1
 40
1
 40
1
 10
22.025565
 20
214.219199
 30
0.0
 10
22.025565
 20
213.933386
 30
0.0
 10
22.178044
 20
213.669285
 30
0.0
 10
22.425565
 20
213.526378
 30
0.0
  0
SPLINE
  5
13e
100
AcDbEntity
  8
Layer_1
 62
5
100
AcDbSpline
 70
8
 71
3
 72
8
 73
4
 74
0
 40
0
 40
0
 40
0
 40
0
 40
1
 40
1
 40
1
 40
1
 10
22.425565
 20
213.526378
 30
0.0
 10
22.673086
 20
213.383472
 30
0.0
 10
22.978044
 20
213.383472
 30
0.0
 10
23.225565
 20
213.526378
 30
0.0
  0
SPLINE
  5
13f
100
AcDbEntity
  8
Layer_1
 62
5
100
AcDbSpline
 70
8
 71
3
 72
8
 73
4
 74
0
 40
0
 40
0
 40
0
 40
0
 40
1
 40
1
 40
1
 40
1
 10
23.225565
 20
213.526378
 30
0.0
 10
23.473086
 20
213.669285
 30
0.0
 10
23.625565
 20
213.933386
 30
0.0
 10
23.625565
 20
214.219199
 30
0.0
  0
LINE
  5
140
100
AcDbEntity
  8
Layer_1
 62
5
100
AcDbLine
 10
23.625565
 20
214.219199
 30
0.0
 11
23.625565
 21
214.219199
 31
0.0
  0
SPLINE
  5
141
100
AcDbEntity
  8
Layer_1
 62
5
100
AcDbSpline
 70
8
 71
3
 72
8
 73
4
 74
0
 40
0
 40
0
 40
0
 40
0
 40
1
 40
1
 40
1
 40
1
 10
204.808640
 20
214.219199
 30
0.0
 10
204.808640
 20
213.510718
 30
0.0
 10
204.430670
 20
212.856055
 30
0.0
 10
203.817108
 20
212.501815
 30
0.0
  0
SPLINE
  5
142
100
AcDbEntity
  8
Layer_1
 62
5
100
AcDbSpline
 70
8
 71
3
 72
8
 73
4
 74
0
 40
0
 40
0
 40
0
 40
0
 40
1
 40
1
 40
1
 40
1
 10
203.817108
 20
212.501815
 30
0.0
 10
203.203546
 20
212.147575
 30
0.0
 10
202.447607
 20
212.147575
 30
0.0
 10
201.834045
 20
212.501815
 30
0.0
  0
SPLINE
  5
143
100
AcDbEntity
  8
Layer_1
 62
5
100
AcDbSpline
 70
8
 71
3
 72
8
 73
4
 74
0
 40
0
 40
0
 40
0
 40
0
 40
1
 40
1
 40
1
 40
1
 10
201.834045
 20
212.501815
 30
0.0
 10
201.220483
 20
212.856055
 30
0.0
 10
200.842513
 20
213.510718
 30
0.0
 10
200.842513
 20
214.219199
 30
0.0
  0
SPLINE
  5
144
100
AcDbEntity
  8
Layer_1
 62
5
100
AcDbSpline
 70
8
 71
3
 72
8
 73
4
 74
0
 40
0
 40
0
 40
0
 40
0
 40
1
 40
1
 40
1
 40
1
 10
200.842513
 20
214.219199
 30
0.0
 10
200.842513
 20
215.314414
 30
0.0
 10
201.730361
 20
216.202262
 30
0.0
 10
202.825576
 20
216.202262
 30
0.0
  0
SPLINE
  5
145
100
AcDbEntity
  8
Layer_1
 62
5
100
AcDbSpline
 70
8
 71
3
 72
8
 73
4
 74
0
 40
0
 40
0
 40
0
 40
0
 40
1
 40
1
 40
1
 40
1
 10
202.825576
 20
216.202262
 30
0.0
 10
203.920792
 20
216.202262
 30
0.0
 10
204.808640
 20
215.314414
 30
0.0
 10
204.808640
 20
214.219199
 30
0.0
  0
LINE
  5
146
100
AcDbEntity
  8
Layer_1
 62
5
100
AcDbLine
 10
204.808640
 20
214.219199
 30
0.0
 11
204.808640
 21
214.219199
 31
0.0
  0
SPLINE
  5
147
100
AcDbEntity
  8
Layer_1
 62
5
100
AcDbSpline
 70
8
 71
3
 72
8
 73
4
 74
0
 40
0
 40
0
 40
0
 40
0
 40
1
 40
1
 40
1
 40
1
 10
190.808640
 20
214.219199
 30
0.0
 10
190.808640
 20
213.123983
 30
0.0
 10
189.920792
 20
212.236135
 30
0.0
 10
188.825576
 20
212.236135
 30
0.0
  0
SPLINE
  5
148
100
AcDbEntity
  8
Layer_1
 62
5
100
AcDbSpline
 70
8
 71
3
 72
8
 73
4
 74
0
 40
0
 40
0
 40
0
 40
0
 40
1
 40
1
 40
1
 40
1
 10
188.825576
 20
212.236135
 30
0.0
 10
187.730361
 20
212.236135
 30
0.0
 10
186.842513
 20
213.123983
 30
0.0
 10
186.842513
 20
214.219199
 30
0.0
  0
SPLINE
  5
149
100
AcDbEntity
  8
Layer_1
 62
5
100
AcDbSpline
 70
8
 71
3
 72
8
 73
4
 74
0
 40
0
 40
0
 40
0
 40
0
 40
1
 40
1
 40
1
 40
1
 10
186.842513
 20
214.219199
 30
0.0
 10
186.842513
 20
215.314414
 30
0.0
 10
187.730361
 20
216.202262
 30
0.0
 10
188.825576
 20
216.202262
 30
0.0
  0
SPLINE
  5
14a
100
AcDbEntity
  8
Layer_1
 62
5
100
AcDbSpline
 70
8
 71
3
 72
8
 73
4
 74
0
 40
0
 40
0
 40
0
 40
0
 40
1
 40
1
 40
1
 40
1
 10
188.825576
 20
216.202262
 30
0.0
 10
189.920792
 20
216.202262
 30
0.0
 10
190.808640
 20
215.314414
 30
0.0
 10
190.808640
 20
214.219199
 30
0.0
  0
LINE
  5
14b
100
AcDbEntity
  8
Layer_1
 62
5
100
AcDbLine
 10
190.808640
 20
214.219199
 30
0.0
 11
190.808640
 21
214.219199
 31
0.0
  0
SPLINE
  5
14c
100
AcDbEntity
  8
Layer_1
 62
5
100
AcDbSpline
 70
8
 71
3
 72
8
 73
4
 74
0
 40
0
 40
0
 40
0
 40
0
 40
1
 40
1
 40
1
 40
1
 10
190.808640
 20
198.219199
 30
0.0
 10
190.808640
 20
197.123983
 30
0.0
 10
189.920792
 20
196.236135
 30
0.0
 10
188.825576
 20
196.236135
 30
0.0
  0
SPLINE
  5
14d
100
AcDbEntity
  8
Layer_1
 62
5
100
AcDbSpline
 70
8
 71
3
 72
8
 73
4
 74
0
 40
0
 40
0
 40
0
 40
0
 40
1
 40
1
 40
1
 40
1
 10
188.825576
 20
196.236135
 30
0.0
 10
187.730361
 20
196.236135
 30
0.0
 10
186.842513
 20
197.123983
 30
0.0
 10
186.842513
 20
198.219199
 30
0.0
  0
SPLINE
  5
14e
100
AcDbEntity
  8
Layer_1
 62
5
100
AcDbSpline
 70
8
 71
3
 72
8
 73
4
 74
0
 40
0
 40
0
 40
0
 40
0
 40
1
 40
1
 40
1
 40
1
 10
186.842513
 20
198.219199
 30
0.0
 10
186.842513
 20
199.314414
 30
0.0
 10
187.730361
 20
200.202262
 30
0.0
 10
188.825576
 20
200.202262
 30
0.0
  0
SPLINE
  5
14f
100
AcDbEntity
  8
Layer_1
 62
5
100
AcDbSpline
 70
8
 71
3
 72
8
 73
4
 74
0
 40
0
 40
0
 40
0
 40
0
 40
1
 40
1
 40
1
 40
1
 10
188.825576
 20
200.202262
 30
0.0
 10
189.920792
 20
200.202262
 30
0.0
 10
190.808640
 20
199.314414
 30
0.0
 10
190.808640
 20
198.219199
 30
0.0
  0
LINE
  5
150
100
AcDbEntity
  8
Layer_1
 62
5
100
AcDbLine
 10
190.808640
 20
198.219199
 30
0.0
 11
190.808640
 21
198.219199
 31
0.0
  0
SPLINE
  5
151
100
AcDbEntity
  8
Layer_1
 62
5
100
AcDbSpline
 70
8
 71
3
 72
8
 73
4
 74
0
 40
0
 40
0
 40
0
 40
0
 40
1
 40
1
 40
1
 40
1
 10
204.808640
 20
198.219199
 30
0.0
 10
204.808640
 20
197.510718
 30
0.0
 10
204.430670
 20
196.856055
 30
0.0
 10
203.817108
 20
196.501815
 30
0.0
  0
SPLINE
  5
152
100
AcDbEntity
  8
Layer_1
 62
5
100
AcDbSpline
 70
8
 71
3
 72
8
 73
4
 74
0
 40
0
 40
0
 40
0
 40
0
 40
1
 40
1
 40
1
 40
1
 10
203.817108
 20
196.501815
 30
0.0
 10
203.203546
 20
196.147575
 30
0.0
 10
202.447607
 20
196.147575
 30
0.0
 10
201.834045
 20
196.501815
 30
0.0
  0
SPLINE
  5
153
100
AcDbEntity
  8
Layer_1
 62
5
100
AcDbSpline
 70
8
 71
3
 72
8
 73
4
 74
0
 40
0
 40
0
 40
0
 40
0
 40
1
 40
1
 40
1
 40
1
 10
201.834045
 20
196.501815
 30
0.0
 10
201.220483
 20
196.856055
 30
0.0
 10
200.842513
 20
197.510718
 30
0.0
 10
200.842513
 20
198.219199
 30
0.0
  0
SPLINE
  5
154
100
AcDbEntity
  8
Layer_1
 62
5
100
AcDbSpline
 70
8
 71
3
 72
8
 73
4
 74
0
 40
0
 40
0
 40
0
 40
0
 40
1
 40
1
 40
1
 40
1
 10
200.842513
 20
198.219199
 30
0.0
 10
200.842513
 20
199.314414
 30
0.0
 10
201.730361
 20
200.202262
 30
0.0
 10
202.825576
 20
200.202262
 30
0.0
  0
SPLINE
  5
155
100
AcDbEntity
  8
Layer_1
 62
5
100
AcDbSpline
 70
8
 71
3
 72
8
 73
4
 74
0
 40
0
 40
0
 40
0
 40
0
 40
1
 40
1
 40
1
 40
1
 10
202.825576
 20
200.202262
 30
0.0
 10
203.920792
 20
200.202262
 30
0.0
 10
204.808640
 20
199.314414
 30
0.0
 10
204.808640
 20
198.219199
 30
0.0
  0
LINE
  5
156
100
AcDbEntity
  8
Layer_1
 62
5
100
AcDbLine
 10
204.808640
 20
198.219199
 30
0.0
 11
204.808640
 21
198.219199
 31
0.0
  0
SPLINE
  5
157
100
AcDbEntity
  8
Layer_1
 62
5
100
AcDbSpline
 70
8
 71
3
 72
8
 73
4
 74
0
 40
0
 40
0
 40
0
 40
0
 40
1
 40
1
 40
1
 40
1
 10
38.808633
 20
214.219199
 30
0.0
 10
38.808633
 20
213.510718
 30
0.0
 10
38.430663
 20
212.856055
 30
0.0
 10
37.817101
 20
212.501815
 30
0.0
  0
SPLINE
  5
158
100
AcDbEntity
  8
Layer_1
 62
5
100
AcDbSpline
 70
8
 71
3
 72
8
 73
4
 74
0
 40
0
 40
0
 40
0
 40
0
 40
1
 40
1
 40
1
 40
1
 10
37.817101
 20
212.501815
 30
0.0
 10
37.203539
 20
212.147575
 30
0.0
 10
36.447600
 20
212.147575
 30
0.0
 10
35.834038
 20
212.501815
 30
0.0
  0
SPLINE
  5
159
100
AcDbEntity
  8
Layer_1
 62
5
100
AcDbSpline
 70
8
 71
3
 72
8
 73
4
 74
0
 40
0
 40
0
 40
0
 40
0
 40
1
 40
1
 40
1
 40
1
 10
35.834038
 20
212.501815
 30
0.0
 10
35.220475
 20
212.856055
 30
0.0
 10
34.842506
 20
213.510718
 30
0.0
 10
34.842506
 20
214.219199
 30
0.0
  0
SPLINE
  5
15a
100
AcDbEntity
  8
Layer_1
 62
5
100
AcDbSpline
 70
8
 71
3
 72
8
 73
4
 74
0
 40
0
 40
0
 40
0
 40
0
 40
1
 40
1
 40
1
 40
1
 10
34.842506
 20
214.219199
 30
0.0
 10
34.842506
 20
214.927679
 30
0.0
 10
35.220475
 20
215.582342
 30
0.0
 10
35.834038
 20
215.936582
 30
0.0
  0
SPLINE
  5
15b
100
AcDbEntity
  8
Layer_1
 62
5
100
AcDbSpline
 70
8
 71
3
 72
8
 73
4
 74
0
 40
0
 40
0
 40
0
 40
0
 40
1
 40
1
 40
1
 40
1
 10
35.834038
 20
215.936582
 30
0.0
 10
36.447600
 20
216.290822
 30
0.0
 10
37.203539
 20
216.290822
 30
0.0
 10
37.817101
 20
215.936582
 30
0.0
  0
SPLINE
  5
15c
100
AcDbEntity
  8
Layer_1
 62
5
100
AcDbSpline
 70
8
 71
3
 72
8
 73
4
 74
0
 40
0
 40
0
 40
0
 40
0
 40
1
 40
1
 40
1
 40
1
 10
37.817101
 20
215.936582
 30
0.0
 10
38.430663
 20
215.582342
 30
0.0
 10
38.808633
 20
214.927679
 30
0.0
 10
38.808633
 20
214.219199
 30
0.0
  0
LINE
  5
15d
100
AcDbEntity
  8
Layer_1
 62
5
100
AcDbLine
 10
38.808633
 20
214.219199
 30
0.0
 11
38.808633
 21
214.219199
 31
0.0
  0
SPLINE
  5
15e
100
AcDbEntity
  8
Layer_1
 62
5
100
AcDbSpline
 70
8
 71
3
 72
8
 73
4
 74
0
 40
0
 40
0
 40
0
 40
0
 40
1
 40
1
 40
1
 40
1
 10
38.808633
 20
198.219199
 30
0.0
 10
38.808633
 20
197.510718
 30
0.0
 10
38.430663
 20
196.856055
 30
0.0
 10
37.817101
 20
196.501815
 30
0.0
  0
SPLINE
  5
15f
100
AcDbEntity
  8
Layer_1
 62
5
100
AcDbSpline
 70
8
 71
3
 72
8
 73
4
 74
0
 40
0
 40
0
 40
0
 40
0
 40
1
 40
1
 40
1
 40
1
 10
37.817101
 20
196.501815
 30
0.0
 10
37.203539
 20
196.147575
 30
0.0
 10
36.447600
 20
196.147575
 30
0.0
 10
35.834038
 20
196.501815
 30
0.0
  0
SPLINE
  5
160
100
AcDbEntity
  8
Layer_1
 62
5
100
AcDbSpline
 70
8
 71
3
 72
8
 73
4
 74
0
 40
0
 40
0
 40
0
 40
0
 40
1
 40
1
 40
1
 40
1
 10
35.834038
 20
196.501815
 30
0.0
 10
35.220475
 20
196.856055
 30
0.0
 10
34.842506
 20
197.510718
 30
0.0
 10
34.842506
 20
198.219199
 30
0.0
  0
SPLINE
  5
161
100
AcDbEntity
  8
Layer_1
 62
5
100
AcDbSpline
 70
8
 71
3
 72
8
 73
4
 74
0
 40
0
 40
0
 40
0
 40
0
 40
1
 40
1
 40
1
 40
1
 10
34.842506
 20
198.219199
 30
0.0
 10
34.842506
 20
198.927679
 30
0.0
 10
35.220475
 20
199.582342
 30
0.0
 10
35.834038
 20
199.936582
 30
0.0
  0
SPLINE
  5
162
100
AcDbEntity
  8
Layer_1
 62
5
100
AcDbSpline
 70
8
 71
3
 72
8
 73
4
 74
0
 40
0
 40
0
 40
0
 40
0
 40
1
 40
1
 40
1
 40
1
 10
35.834038
 20
199.936582
 30
0.0
 10
36.447600
 20
200.290822
 30
0.0
 10
37.203539
 20
200.290822
 30
0.0
 10
37.817101
 20
199.936582
 30
0.0
  0
SPLINE
  5
163
100
AcDbEntity
  8
Layer_1
 62
5
100
AcDbSpline
 70
8
 71
3
 72
8
 73
4
 74
0
 40
0
 40
0
 40
0
 40
0
 40
1
 40
1
 40
1
 40
1
 10
37.817101
 20
199.936582
 30
0.0
 10
38.430663
 20
199.582342
 30
0.0
 10
38.808633
 20
198.927679
 30
0.0
 10
38.808633
 20
198.219199
 30
0.0
  0
LINE
  5
164
100
AcDbEntity
  8
Layer_1
 62
5
100
AcDbLine
 10
38.808633
 20
198.219199
 30
0.0
 11
38.808633
 21
198.219199
 31
0.0
  0
SPLINE
  5
165
100
AcDbEntity
  8
Layer_1
 62
5
100
AcDbSpline
 70
8
 71
3
 72
8
 73
4
 74
0
 40
0
 40
0
 40
0
 40
0
 40
1
 40
1
 40
1
 40
1
 10
24.808629
 20
198.219199
 30
0.0
 10
24.808629
 20
197.510718
 30
0.0
 10
24.430659
 20
196.856055
 30
0.0
 10
23.817097
 20
196.501815
 30
0.0
  0
SPLINE
  5
166
100
AcDbEntity
  8
Layer_1
 62
5
100
AcDbSpline
 70
8
 71
3
 72
8
 73
4
 74
0
 40
0
 40
0
 40
0
 40
0
 40
1
 40
1
 40
1
 40
1
 10
23.817097
 20
196.501815
 30
0.0
 10
23.203535
 20
196.147575
 30
0.0
 10
22.447596
 20
196.147575
 30
0.0
 10
21.834034
 20
196.501815
 30
0.0
  0
SPLINE
  5
167
100
AcDbEntity
  8
Layer_1
 62
5
100
AcDbSpline
 70
8
 71
3
 72
8
 73
4
 74
0
 40
0
 40
0
 40
0
 40
0
 40
1
 40
1
 40
1
 40
1
 10
21.834034
 20
196.501815
 30
0.0
 10
21.220471
 20
196.856055
 30
0.0
 10
20.842502
 20
197.510718
 30
0.0
 10
20.842502
 20
198.219199
 30
0.0
  0
SPLINE
  5
168
100
AcDbEntity
  8
Layer_1
 62
5
100
AcDbSpline
 70
8
 71
3
 72
8
 73
4
 74
0
 40
0
 40
0
 40
0
 40
0
 40
1
 40
1
 40
1
 40
1
 10
20.842502
 20
198.219199
 30
0.0
 10
20.842502
 20
198.927679
 30
0.0
 10
21.220471
 20
199.582342
 30
0.0
 10
21.834034
 20
199.936582
 30
0.0
  0
SPLINE
  5
169
100
AcDbEntity
  8
Layer_1
 62
5
100
AcDbSpline
 70
8
 71
3
 72
8
 73
4
 74
0
 40
0
 40
0
 40
0
 40
0
 40
1
 40
1
 40
1
 40
1
 10
21.834034
 20
199.936582
 30
0.0
 10
22.447596
 20
200.290822
 30
0.0
 10
23.203535
 20
200.290822
 30
0.0
 10
23.817097
 20
199.936582
 30
0.0
  0
SPLINE
  5
16a
100
AcDbEntity
  8
Layer_1
 62
5
100
AcDbSpline
 70
8
 71
3
 72
8
 73
4
 74
0
 40
0
 40
0
 40
0
 40
0
 40
1
 40
1
 40
1
 40
1
 10
23.817097
 20
199.936582
 30
0.0
 10
24.430659
 20
199.582342
 30
0.0
 10
24.808629
 20
198.927679
 30
0.0
 10
24.808629
 20
198.219199
 30
0.0
  0
LINE
  5
16b
100
AcDbEntity
  8
Layer_1
 62
5
100
AcDbLine
 10
24.808629
 20
198.219199
 30
0.0
 11
24.808629
 21
198.219199
 31
0.0
  0
SPLINE
  5
16c
100
AcDbEntity
  8
Layer_1
 62
5
100
AcDbSpline
 70
8
 71
3
 72
8
 73
4
 74
0
 40
0
 40
0
 40
0
 40
0
 40
1
 40
1
 40
1
 40
1
 10
24.808629
 20
214.219199
 30
0.0
 10
24.808629
 20
213.510718
 30
0.0
 10
24.430659
 20
212.856055
 30
0.0
 10
23.817097
 20
212.501815
 30
0.0
  0
SPLINE
  5
16d
100
AcDbEntity
  8
Layer_1
 62
5
100
AcDbSpline
 70
8
 71
3
 72
8
 73
4
 74
0
 40
0
 40
0
 40
0
 40
0
 40
1
 40
1
 40
1
 40
1
 10
23.817097
 20
212.501815
 30
0.0
 10
23.203535
 20
212.147575
 30
0.0
 10
22.447596
 20
212.147575
 30
0.0
 10
21.834034
 20
212.501815
 30
0.0
  0
SPLINE
  5
16e
100
AcDbEntity
  8
Layer_1
 62
5
100
AcDbSpline
 70
8
 71
3
 72
8
 73
4
 74
0
 40
0
 40
0
 40
0
 40
0
 40
1
 40
1
 40
1
 40
1
 10
21.834034
 20
212.501815
 30
0.0
 10
21.220471
 20
212.856055
 30
0.0
 10
20.842502
 20
213.510718
 30
0.0
 10
20.842502
 20
214.219199
 30
0.0
  0
SPLINE
  5
16f
100
AcDbEntity
  8
Layer_1
 62
5
100
AcDbSpline
 70
8
 71
3
 72
8
 73
4
 74
0
 40
0
 40
0
 40
0
 40
0
 40
1
 40
1
 40
1
 40
1
 10
20.842502
 20
214.219199
 30
0.0
 10
20.842502
 20
214.927679
 30
0.0
 10
21.220471
 20
215.582342
 30
0.0
 10
21.834034
 20
215.936582
 30
0.0
  0
SPLINE
  5
170
100
AcDbEntity
  8
Layer_1
 62
5
100
AcDbSpline
 70
8
 71
3
 72
8
 73
4
 74
0
 40
0
 40
0
 40
0
 40
0
 40
1
 40
1
 40
1
 40
1
 10
21.834034
 20
215.936582
 30
0.0
 10
22.447596
 20
216.290822
 30
0.0
 10
23.203535
 20
216.290822
 30
0.0
 10
23.817097
 20
215.936582
 30
0.0
  0
SPLINE
  5
171
100
AcDbEntity
  8
Layer_1
 62
5
100
AcDbSpline
 70
8
 71
3
 72
8
 73
4
 74
0
 40
0
 40
0
 40
0
 40
0
 40
1
 40
1
 40
1
 40
1
 10
23.817097
 20
215.936582
 30
0.0
 10
24.430659
 20
215.582342
 30
0.0
 10
24.808629
 20
214.927679
 30
0.0
 10
24.808629
 20
214.219199
 30
0.0
  0
LINE
  5
172
100
AcDbEntity
  8
Layer_1
 62
5
100
AcDbLine
 10
24.808629
 20
214.219199
 30
0.0
 11
24.808629
 21
214.219199
 31
0.0
  0
ENDSEC
  0
SECTION
  2
OBJECTS
  0
DICTIONARY
  5
C
330
0
100
AcDbDictionary
  3
ACAD_GROUP
350
D
  3
ACAD_MLINESTYLE
350
17
  0
DICTIONARY
  5
D
330
C
100
AcDbDictionary
  0
DICTIONARY
  5
1A
330
C
100
AcDbDictionary
  0
DICTIONARY
  5
17
330
C
100
AcDbDictionary
  3
STANDARD
350
18
  0
DICTIONARY
  5
19
330
C
100
AcDbDictionary
  0
ENDSEC
  0
EOF
