  0
SECTION
  2
HEADER
  9
$ACADVER
  1
AC1014
  9
$HANDSEED
  5
FFFF
  9
$MEASUREMENT
 70
     1
  0
ENDSEC
  0
SECTION
  2
TABLES
  0
TABLE
  2
VPORT
  5
8
330
0
100
AcDbSymbolTable
 70
     4
  0
VPORT
  5
2E
330
8
100
AcDbSymbolTableRecord
100
AcDbViewportTableRecord
  2
*ACTIVE
 70
     0
 10
0.0
 20
0.0
 11
1.0
 21
1.0
 12
210.0
 22
148.5
 13
0.0
 23
0.0
 14
10.0
 24
10.0
 15
10.0
 25
10.0
 16
0.0
 26
0.0
 36
1.0
 17
0.0
 27
0.0
 37
0.0
 40
341.0
 41
1.24
 42
50.0
 43
0.0
 44
0.0
 50
0.0
 51
0.0
 71
     0
 72
   100
 73
     1
 74
     3
 75
     0
 76
     0
 77
     0
 78
     0
  0
ENDTAB
  0
TABLE
  2
LTYPE
  5
5
330
0
100
AcDbSymbolTable
 70
     1
  0
LTYPE
  5
14
330
5
100
AcDbSymbolTableRecord
100
AcDbLinetypeTableRecord
  2
BYBLOCK
 70
     0
  3

 72
    65
 73
     0
 40
0.0
  0
LTYPE
  5
15
330
5
100
AcDbSymbolTableRecord
100
AcDbLinetypeTableRecord
  2
BYLAYER
 70
     0
  3

 72
    65
 73
     0
 40
0.0
  0
LTYPE
  5
16
330
5
100
AcDbSymbolTableRecord
100
AcDbLinetypeTableRecord
  2
CONTINUOUS
 70
     0
  3
Solid line
 72
    65
 73
     0
 40
0.0
  0
ENDTAB
  0
TABLE
  2
LAYER
  5
2
100
AcDbSymbolTable
 70
2
  0
LAYER
  5
50
100
AcDbSymbolTableRecord
100
AcDbLayerTableRecord
  2
0
 70
0
  6
CONTINUOUS
  0
LAYER
  5
51
100
AcDbSymbolTableRecord
100
AcDbLayerTableRecord
  2
Layer_1
 70
0
  6
CONTINUOUS
  0
ENDTAB
  0
TABLE
  2
STYLE
  5
3
330
0
100
AcDbSymbolTable
 70
     1
  0
STYLE
  5
11
330
3
100
AcDbSymbolTableRecord
100
AcDbTextStyleTableRecord
  2
STANDARD
 70
     0
 40
0.0
 41
1.0
 50
0.0
 71
     0
 42
2.5
  3
txt
  4

  0
ENDTAB
  0
TABLE
  2
VIEW
  5
6
330
0
100
AcDbSymbolTable
 70
     0
  0
ENDTAB
  0
TABLE
  2
UCS
  5
7
330
0
100
AcDbSymbolTable
 70
     0
  0
ENDTAB
  0
TABLE
  2
APPID
  5
9
330
0
100
AcDbSymbolTable
 70
     2
  0
APPID
  5
12
330
9
100
AcDbSymbolTableRecord
100
AcDbRegAppTableRecord
  2
ACAD
 70
     0
  0
ENDTAB
  0
TABLE
  2
DIMSTYLE
  5
A
330
0
100
AcDbSymbolTable
 70
     1
  0
DIMSTYLE
105
27
330
A
100
AcDbSymbolTableRecord
100
AcDbDimStyleTableRecord
  2
ISO-25
 70
     0
  3

  4

  5

  6

  7

 40
1.0
 41
2.5
 42
0.625
 43
3.75
 44
1.25
 45
0.0
 46
0.0
 47
0.0
 48
0.0
140
2.5
141
2.5
142
0.0
143
0.03937007874016
144
1.0
145
0.0
146
1.0
147
0.625
 71
     0
 72
     0
 73
     0
 74
     0
 75
     0
 76
     0
 77
     1
 78
     8
170
     0
171
     3
172
     1
173
     0
174
     0
175
     0
176
     0
177
     0
178
     0
270
     2
271
     2
272
     2
273
     2
274
     3
340
11
275
     0
280
     0
281
     0
282
     0
283
     0
284
     8
285
     0
286
     0
287
     3
288
     0
  0
ENDTAB
  0
TABLE
  2
BLOCK_RECORD
  5
1
330
0
100
AcDbSymbolTable
 70
     1
  0
BLOCK_RECORD
  5
1F
330
1
100
AcDbSymbolTableRecord
100
AcDbBlockTableRecord
  2
*MODEL_SPACE
  0
BLOCK_RECORD
  5
1B
330
1
100
AcDbSymbolTableRecord
100
AcDbBlockTableRecord
  2
*PAPER_SPACE
  0
ENDTAB
  0
ENDSEC
  0
SECTION
  2
BLOCKS
  0
BLOCK
  5
20
330
1F
100
AcDbEntity
  8
0
100
AcDbBlockBegin
  2
*MODEL_SPACE
 70
     0
 10
0.0
 20
0.0
 30
0.0
  3
*MODEL_SPACE
  1

  0
ENDBLK
  5
21
330
1F
100
AcDbEntity
  8
0
100
AcDbBlockEnd
  0
BLOCK
  5
1C
330
1B
100
AcDbEntity
 67
     1
  8
0
100
AcDbBlockBegin
  2
*PAPER_SPACE
  1

  0
ENDBLK
  5
1D
330
1B
100
AcDbEntity
 67
     1
  8
0
100
AcDbBlockEnd
  0
ENDSEC
  0
SECTION
  2
ENTITIES
  0
SPLINE
  5
100
100
AcDbEntity
  8
Layer_1
 62
5
100
AcDbSpline
 70
8
 71
3
 72
8
 73
4
 74
0
 40
0
 40
0
 40
0
 40
0
 40
1
 40
1
 40
1
 40
1
 10
207.144630
 20
243.463274
 30
0.0
 10
227.736918
 20
243.456445
 30
0.0
 10
244.426622
 20
226.761137
 30
0.0
 10
244.426536
 20
206.168847
 30
0.0
  0
SPLINE
  5
101
100
AcDbEntity
  8
Layer_1
 62
5
100
AcDbSpline
 70
8
 71
3
 72
8
 73
4
 74
0
 40
0
 40
0
 40
0
 40
0
 40
1
 40
1
 40
1
 40
1
 10
244.426536
 20
206.168847
 30
0.0
 10
244.426451
 20
185.576558
 30
0.0
 10
227.736608
 20
168.881388
 30
0.0
 10
207.144320
 20
168.874730
 30
0.0
  0
SPLINE
  5
102
100
AcDbEntity
  8
Layer_1
 62
5
100
AcDbSpline
 70
8
 71
3
 72
8
 73
4
 74
0
 40
0
 40
0
 40
0
 40
0
 40
1
 40
1
 40
1
 40
1
 10
207.144320
 20
168.874730
 30
0.0
 10
207.144320
 20
168.874730
 30
0.0
 10
18.186975
 20
168.874730
 30
0.0
 10
18.186975
 20
168.874730
 30
0.0
  0
SPLINE
  5
103
100
AcDbEntity
  8
Layer_1
 62
5
100
AcDbSpline
 70
8
 71
3
 72
8
 73
4
 74
0
 40
0
 40
0
 40
0
 40
0
 40
1
 40
1
 40
1
 40
1
 10
18.186975
 20
168.874730
 30
0.0
 10
4.860106
 20
168.870309
 30
0.0
 10
-7.456326
 20
175.977550
 30
0.0
 10
-14.121070
 20
187.518202
 30
0.0
  0
SPLINE
  5
104
100
AcDbEntity
  8
Layer_1
 62
5
100
AcDbSpline
 70
8
 71
3
 72
8
 73
4
 74
0
 40
0
 40
0
 40
0
 40
0
 40
1
 40
1
 40
1
 40
1
 10
-14.121070
 20
187.518202
 30
0.0
 10
-20.785814
 20
199.058854
 30
0.0
 10
-20.785875
 20
213.278818
 30
0.0
 10
-14.121229
 20
224.819527
 30
0.0
  0
SPLINE
  5
105
100
AcDbEntity
  8
Layer_1
 62
5
100
AcDbSpline
 70
8
 71
3
 72
8
 73
4
 74
0
 40
0
 40
0
 40
0
 40
0
 40
1
 40
1
 40
1
 40
1
 10
-14.121229
 20
224.819527
 30
0.0
 10
-7.456584
 20
236.360235
 30
0.0
 10
4.859788
 20
243.467581
 30
0.0
 10
18.186657
 20
243.463274
 30
0.0
  0
LINE
  5
106
100
AcDbEntity
  8
Layer_1
 62
5
100
AcDbLine
 10
18.186657
 20
243.463274
 30
0.0
 11
207.144630
 21
243.463274
 31
0.0
  0
SPLINE
  5
107
100
AcDbEntity
  8
Layer_1
 62
5
100
AcDbSpline
 70
8
 71
3
 72
8
 73
4
 74
0
 40
0
 40
0
 40
0
 40
0
 40
1
 40
1
 40
1
 40
1
 10
37.453431
 20
198.169002
 30
0.0
 10
37.453431
 20
198.454814
 30
0.0
 10
37.300952
 20
198.718916
 30
0.0
 10
37.053431
 20
198.861822
 30
0.0
  0
SPLINE
  5
108
100
AcDbEntity
  8
Layer_1
 62
5
100
AcDbSpline
 70
8
 71
3
 72
8
 73
4
 74
0
 40
0
 40
0
 40
0
 40
0
 40
1
 40
1
 40
1
 40
1
 10
37.053431
 20
198.861822
 30
0.0
 10
36.805910
 20
199.004728
 30
0.0
 10
36.500952
 20
199.004728
 30
0.0
 10
36.253431
 20
198.861822
 30
0.0
  0
SPLINE
  5
109
100
AcDbEntity
  8
Layer_1
 62
5
100
AcDbSpline
 70
8
 71
3
 72
8
 73
4
 74
0
 40
0
 40
0
 40
0
 40
0
 40
1
 40
1
 40
1
 40
1
 10
36.253431
 20
198.861822
 30
0.0
 10
36.005910
 20
198.718916
 30
0.0
 10
35.853431
 20
198.454814
 30
0.0
 10
35.853431
 20
198.169002
 30
0.0
  0
SPLINE
  5
10a
100
AcDbEntity
  8
Layer_1
 62
5
100
AcDbSpline
 70
8
 71
3
 72
8
 73
4
 74
0
 40
0
 40
0
 40
0
 40
0
 40
1
 40
1
 40
1
 40
1
 10
35.853431
 20
198.169002
 30
0.0
 10
35.853431
 20
197.727174
 30
0.0
 10
36.211603
 20
197.369002
 30
0.0
 10
36.653431
 20
197.369002
 30
0.0
  0
SPLINE
  5
10b
100
AcDbEntity
  8
Layer_1
 62
5
100
AcDbSpline
 70
8
 71
3
 72
8
 73
4
 74
0
 40
0
 40
0
 40
0
 40
0
 40
1
 40
1
 40
1
 40
1
 10
36.653431
 20
197.369002
 30
0.0
 10
37.095259
 20
197.369002
 30
0.0
 10
37.453431
 20
197.727174
 30
0.0
 10
37.453431
 20
198.169002
 30
0.0
  0
LINE
  5
10c
100
AcDbEntity
  8
Layer_1
 62
5
100
AcDbLine
 10
37.453431
 20
198.169002
 30
0.0
 11
37.453431
 21
198.169002
 31
0.0
  0
SPLINE
  5
10d
100
AcDbEntity
  8
Layer_1
 62
5
100
AcDbSpline
 70
8
 71
3
 72
8
 73
4
 74
0
 40
0
 40
0
 40
0
 40
0
 40
1
 40
1
 40
1
 40
1
 10
23.453427
 20
198.169002
 30
0.0
 10
23.453427
 20
198.454814
 30
0.0
 10
23.300948
 20
198.718916
 30
0.0
 10
23.053427
 20
198.861822
 30
0.0
  0
SPLINE
  5
10e
100
AcDbEntity
  8
Layer_1
 62
5
100
AcDbSpline
 70
8
 71
3
 72
8
 73
4
 74
0
 40
0
 40
0
 40
0
 40
0
 40
1
 40
1
 40
1
 40
1
 10
23.053427
 20
198.861822
 30
0.0
 10
22.805906
 20
199.004728
 30
0.0
 10
22.500948
 20
199.004728
 30
0.0
 10
22.253427
 20
198.861822
 30
0.0
  0
SPLINE
  5
10f
100
AcDbEntity
  8
Layer_1
 62
5
100
AcDbSpline
 70
8
 71
3
 72
8
 73
4
 74
0
 40
0
 40
0
 40
0
 40
0
 40
1
 40
1
 40
1
 40
1
 10
22.253427
 20
198.861822
 30
0.0
 10
22.005906
 20
198.718916
 30
0.0
 10
21.853427
 20
198.454814
 30
0.0
 10
21.853427
 20
198.169002
 30
0.0
  0
SPLINE
  5
110
100
AcDbEntity
  8
Layer_1
 62
5
100
AcDbSpline
 70
8
 71
3
 72
8
 73
4
 74
0
 40
0
 40
0
 40
0
 40
0
 40
1
 40
1
 40
1
 40
1
 10
21.853427
 20
198.169002
 30
0.0
 10
21.853427
 20
197.883189
 30
0.0
 10
22.005906
 20
197.619088
 30
0.0
 10
22.253427
 20
197.476181
 30
0.0
  0
SPLINE
  5
111
100
AcDbEntity
  8
Layer_1
 62
5
100
AcDbSpline
 70
8
 71
3
 72
8
 73
4
 74
0
 40
0
 40
0
 40
0
 40
0
 40
1
 40
1
 40
1
 40
1
 10
22.253427
 20
197.476181
 30
0.0
 10
22.500948
 20
197.333275
 30
0.0
 10
22.805906
 20
197.333275
 30
0.0
 10
23.053427
 20
197.476181
 30
0.0
  0
SPLINE
  5
112
100
AcDbEntity
  8
Layer_1
 62
5
100
AcDbSpline
 70
8
 71
3
 72
8
 73
4
 74
0
 40
0
 40
0
 40
0
 40
0
 40
1
 40
1
 40
1
 40
1
 10
23.053427
 20
197.476181
 30
0.0
 10
23.300948
 20
197.619088
 30
0.0
 10
23.453427
 20
197.883189
 30
0.0
 10
23.453427
 20
198.169002
 30
0.0
  0
LINE
  5
113
100
AcDbEntity
  8
Layer_1
 62
5
100
AcDbLine
 10
23.453427
 20
198.169002
 30
0.0
 11
23.453427
 21
198.169002
 31
0.0
  0
LINE
  5
114
100
AcDbEntity
  8
Layer_1
 62
5
100
AcDbLine
 10
26.707304
 20
202.723037
 30
0.0
 11
26.707304
 21
209.614973
 31
0.0
  0
LINE
  5
115
100
AcDbEntity
  8
Layer_1
 62
5
100
AcDbLine
 10
26.707304
 20
209.614973
 30
0.0
 11
198.599248
 21
209.614973
 31
0.0
  0
LINE
  5
116
100
AcDbEntity
  8
Layer_1
 62
5
100
AcDbLine
 10
198.599248
 20
209.614973
 30
0.0
 11
198.599248
 21
202.723037
 31
0.0
  0
LINE
  5
117
100
AcDbEntity
  8
Layer_1
 62
5
100
AcDbLine
 10
198.599248
 20
202.723037
 30
0.0
 11
26.707304
 21
202.723037
 31
0.0
  0
SPLINE
  5
118
100
AcDbEntity
  8
Layer_1
 62
5
100
AcDbSpline
 70
8
 71
3
 72
8
 73
4
 74
0
 40
0
 40
0
 40
0
 40
0
 40
1
 40
1
 40
1
 40
1
 10
37.453431
 20
214.169002
 30
0.0
 10
37.453431
 20
214.454814
 30
0.0
 10
37.300952
 20
214.718916
 30
0.0
 10
37.053431
 20
214.861822
 30
0.0
  0
SPLINE
  5
119
100
AcDbEntity
  8
Layer_1
 62
5
100
AcDbSpline
 70
8
 71
3
 72
8
 73
4
 74
0
 40
0
 40
0
 40
0
 40
0
 40
1
 40
1
 40
1
 40
1
 10
37.053431
 20
214.861822
 30
0.0
 10
36.805910
 20
215.004728
 30
0.0
 10
36.500952
 20
215.004728
 30
0.0
 10
36.253431
 20
214.861822
 30
0.0
  0
SPLINE
  5
11a
100
AcDbEntity
  8
Layer_1
 62
5
100
AcDbSpline
 70
8
 71
3
 72
8
 73
4
 74
0
 40
0
 40
0
 40
0
 40
0
 40
1
 40
1
 40
1
 40
1
 10
36.253431
 20
214.861822
 30
0.0
 10
36.005910
 20
214.718916
 30
0.0
 10
35.853431
 20
214.454814
 30
0.0
 10
35.853431
 20
214.169002
 30
0.0
  0
SPLINE
  5
11b
100
AcDbEntity
  8
Layer_1
 62
5
100
AcDbSpline
 70
8
 71
3
 72
8
 73
4
 74
0
 40
0
 40
0
 40
0
 40
0
 40
1
 40
1
 40
1
 40
1
 10
35.853431
 20
214.169002
 30
0.0
 10
35.853431
 20
213.727174
 30
0.0
 10
36.211603
 20
213.369002
 30
0.0
 10
36.653431
 20
213.369002
 30
0.0
  0
SPLINE
  5
11c
100
AcDbEntity
  8
Layer_1
 62
5
100
AcDbSpline
 70
8
 71
3
 72
8
 73
4
 74
0
 40
0
 40
0
 40
0
 40
0
 40
1
 40
1
 40
1
 40
1
 10
36.653431
 20
213.369002
 30
0.0
 10
37.095259
 20
213.369002
 30
0.0
 10
37.453431
 20
213.727174
 30
0.0
 10
37.453431
 20
214.169002
 30
0.0
  0
LINE
  5
11d
100
AcDbEntity
  8
Layer_1
 62
5
100
AcDbLine
 10
37.453431
 20
214.169002
 30
0.0
 11
37.453431
 21
214.169002
 31
0.0
  0
SPLINE
  5
11e
100
AcDbEntity
  8
Layer_1
 62
5
100
AcDbSpline
 70
8
 71
3
 72
8
 73
4
 74
0
 40
0
 40
0
 40
0
 40
0
 40
1
 40
1
 40
1
 40
1
 10
203.453438
 20
214.169002
 30
0.0
 10
203.453438
 20
214.454814
 30
0.0
 10
203.300959
 20
214.718916
 30
0.0
 10
203.053438
 20
214.861822
 30
0.0
  0
SPLINE
  5
11f
100
AcDbEntity
  8
Layer_1
 62
5
100
AcDbSpline
 70
8
 71
3
 72
8
 73
4
 74
0
 40
0
 40
0
 40
0
 40
0
 40
1
 40
1
 40
1
 40
1
 10
203.053438
 20
214.861822
 30
0.0
 10
202.805917
 20
215.004728
 30
0.0
 10
202.500959
 20
215.004728
 30
0.0
 10
202.253438
 20
214.861822
 30
0.0
  0
SPLINE
  5
120
100
AcDbEntity
  8
Layer_1
 62
5
100
AcDbSpline
 70
8
 71
3
 72
8
 73
4
 74
0
 40
0
 40
0
 40
0
 40
0
 40
1
 40
1
 40
1
 40
1
 10
202.253438
 20
214.861822
 30
0.0
 10
202.005917
 20
214.718916
 30
0.0
 10
201.853438
 20
214.454814
 30
0.0
 10
201.853438
 20
214.169002
 30
0.0
  0
SPLINE
  5
121
100
AcDbEntity
  8
Layer_1
 62
5
100
AcDbSpline
 70
8
 71
3
 72
8
 73
4
 74
0
 40
0
 40
0
 40
0
 40
0
 40
1
 40
1
 40
1
 40
1
 10
201.853438
 20
214.169002
 30
0.0
 10
201.853438
 20
213.883189
 30
0.0
 10
202.005917
 20
213.619088
 30
0.0
 10
202.253438
 20
213.476181
 30
0.0
  0
SPLINE
  5
122
100
AcDbEntity
  8
Layer_1
 62
5
100
AcDbSpline
 70
8
 71
3
 72
8
 73
4
 74
0
 40
0
 40
0
 40
0
 40
0
 40
1
 40
1
 40
1
 40
1
 10
202.253438
 20
213.476181
 30
0.0
 10
202.500959
 20
213.333275
 30
0.0
 10
202.805917
 20
213.333275
 30
0.0
 10
203.053438
 20
213.476181
 30
0.0
  0
SPLINE
  5
123
100
AcDbEntity
  8
Layer_1
 62
5
100
AcDbSpline
 70
8
 71
3
 72
8
 73
4
 74
0
 40
0
 40
0
 40
0
 40
0
 40
1
 40
1
 40
1
 40
1
 10
203.053438
 20
213.476181
 30
0.0
 10
203.300959
 20
213.619088
 30
0.0
 10
203.453438
 20
213.883189
 30
0.0
 10
203.453438
 20
214.169002
 30
0.0
  0
LINE
  5
124
100
AcDbEntity
  8
Layer_1
 62
5
100
AcDbLine
 10
203.453438
 20
214.169002
 30
0.0
 11
203.453438
 21
214.169002
 31
0.0
  0
SPLINE
  5
125
100
AcDbEntity
  8
Layer_1
 62
5
100
AcDbSpline
 70
8
 71
3
 72
8
 73
4
 74
0
 40
0
 40
0
 40
0
 40
0
 40
1
 40
1
 40
1
 40
1
 10
189.453438
 20
214.169002
 30
0.0
 10
189.453438
 20
214.454814
 30
0.0
 10
189.300959
 20
214.718916
 30
0.0
 10
189.053438
 20
214.861822
 30
0.0
  0
SPLINE
  5
126
100
AcDbEntity
  8
Layer_1
 62
5
100
AcDbSpline
 70
8
 71
3
 72
8
 73
4
 74
0
 40
0
 40
0
 40
0
 40
0
 40
1
 40
1
 40
1
 40
1
 10
189.053438
 20
214.861822
 30
0.0
 10
188.805917
 20
215.004728
 30
0.0
 10
188.500959
 20
215.004728
 30
0.0
 10
188.253438
 20
214.861822
 30
0.0
  0
SPLINE
  5
127
100
AcDbEntity
  8
Layer_1
 62
5
100
AcDbSpline
 70
8
 71
3
 72
8
 73
4
 74
0
 40
0
 40
0
 40
0
 40
0
 40
1
 40
1
 40
1
 40
1
 10
188.253438
 20
214.861822
 30
0.0
 10
188.005917
 20
214.718916
 30
0.0
 10
187.853438
 20
214.454814
 30
0.0
 10
187.853438
 20
214.169002
 30
0.0
  0
SPLINE
  5
128
100
AcDbEntity
  8
Layer_1
 62
5
100
AcDbSpline
 70
8
 71
3
 72
8
 73
4
 74
0
 40
0
 40
0
 40
0
 40
0
 40
1
 40
1
 40
1
 40
1
 10
187.853438
 20
214.169002
 30
0.0
 10
187.853438
 20
213.883189
 30
0.0
 10
188.005917
 20
213.619088
 30
0.0
 10
188.253438
 20
213.476181
 30
0.0
  0
SPLINE
  5
129
100
AcDbEntity
  8
Layer_1
 62
5
100
AcDbSpline
 70
8
 71
3
 72
8
 73
4
 74
0
 40
0
 40
0
 40
0
 40
0
 40
1
 40
1
 40
1
 40
1
 10
188.253438
 20
213.476181
 30
0.0
 10
188.500959
 20
213.333275
 30
0.0
 10
188.805917
 20
213.333275
 30
0.0
 10
189.053438
 20
213.476181
 30
0.0
  0
SPLINE
  5
12a
100
AcDbEntity
  8
Layer_1
 62
5
100
AcDbSpline
 70
8
 71
3
 72
8
 73
4
 74
0
 40
0
 40
0
 40
0
 40
0
 40
1
 40
1
 40
1
 40
1
 10
189.053438
 20
213.476181
 30
0.0
 10
189.300959
 20
213.619088
 30
0.0
 10
189.453438
 20
213.883189
 30
0.0
 10
189.453438
 20
214.169002
 30
0.0
  0
LINE
  5
12b
100
AcDbEntity
  8
Layer_1
 62
5
100
AcDbLine
 10
189.453438
 20
214.169002
 30
0.0
 11
189.453438
 21
214.169002
 31
0.0
  0
SPLINE
  5
12c
100
AcDbEntity
  8
Layer_1
 62
5
100
AcDbSpline
 70
8
 71
3
 72
8
 73
4
 74
0
 40
0
 40
0
 40
0
 40
0
 40
1
 40
1
 40
1
 40
1
 10
189.453438
 20
198.169002
 30
0.0
 10
189.453438
 20
198.454814
 30
0.0
 10
189.300959
 20
198.718916
 30
0.0
 10
189.053438
 20
198.861822
 30
0.0
  0
SPLINE
  5
12d
100
AcDbEntity
  8
Layer_1
 62
5
100
AcDbSpline
 70
8
 71
3
 72
8
 73
4
 74
0
 40
0
 40
0
 40
0
 40
0
 40
1
 40
1
 40
1
 40
1
 10
189.053438
 20
198.861822
 30
0.0
 10
188.805917
 20
199.004728
 30
0.0
 10
188.500959
 20
199.004728
 30
0.0
 10
188.253438
 20
198.861822
 30
0.0
  0
SPLINE
  5
12e
100
AcDbEntity
  8
Layer_1
 62
5
100
AcDbSpline
 70
8
 71
3
 72
8
 73
4
 74
0
 40
0
 40
0
 40
0
 40
0
 40
1
 40
1
 40
1
 40
1
 10
188.253438
 20
198.861822
 30
0.0
 10
188.005917
 20
198.718916
 30
0.0
 10
187.853438
 20
198.454814
 30
0.0
 10
187.853438
 20
198.169002
 30
0.0
  0
SPLINE
  5
12f
100
AcDbEntity
  8
Layer_1
 62
5
100
AcDbSpline
 70
8
 71
3
 72
8
 73
4
 74
0
 40
0
 40
0
 40
0
 40
0
 40
1
 40
1
 40
1
 40
1
 10
187.853438
 20
198.169002
 30
0.0
 10
187.853438
 20
197.883189
 30
0.0
 10
188.005917
 20
197.619088
 30
0.0
 10
188.253438
 20
197.476181
 30
0.0
  0
SPLINE
  5
130
100
AcDbEntity
  8
Layer_1
 62
5
100
AcDbSpline
 70
8
 71
3
 72
8
 73
4
 74
0
 40
0
 40
0
 40
0
 40
0
 40
1
 40
1
 40
1
 40
1
 10
188.253438
 20
197.476181
 30
0.0
 10
188.500959
 20
197.333275
 30
0.0
 10
188.805917
 20
197.333275
 30
0.0
 10
189.053438
 20
197.476181
 30
0.0
  0
SPLINE
  5
131
100
AcDbEntity
  8
Layer_1
 62
5
100
AcDbSpline
 70
8
 71
3
 72
8
 73
4
 74
0
 40
0
 40
0
 40
0
 40
0
 40
1
 40
1
 40
1
 40
1
 10
189.053438
 20
197.476181
 30
0.0
 10
189.300959
 20
197.619088
 30
0.0
 10
189.453438
 20
197.883189
 30
0.0
 10
189.453438
 20
198.169002
 30
0.0
  0
LINE
  5
132
100
AcDbEntity
  8
Layer_1
 62
5
100
AcDbLine
 10
189.453438
 20
198.169002
 30
0.0
 11
189.453438
 21
198.169002
 31
0.0
  0
SPLINE
  5
133
100
AcDbEntity
  8
Layer_1
 62
5
100
AcDbSpline
 70
8
 71
3
 72
8
 73
4
 74
0
 40
0
 40
0
 40
0
 40
0
 40
1
 40
1
 40
1
 40
1
 10
203.453438
 20
198.169002
 30
0.0
 10
203.453438
 20
198.454814
 30
0.0
 10
203.300959
 20
198.718916
 30
0.0
 10
203.053438
 20
198.861822
 30
0.0
  0
SPLINE
  5
134
100
AcDbEntity
  8
Layer_1
 62
5
100
AcDbSpline
 70
8
 71
3
 72
8
 73
4
 74
0
 40
0
 40
0
 40
0
 40
0
 40
1
 40
1
 40
1
 40
1
 10
203.053438
 20
198.861822
 30
0.0
 10
202.805917
 20
199.004728
 30
0.0
 10
202.500959
 20
199.004728
 30
0.0
 10
202.253438
 20
198.861822
 30
0.0
  0
SPLINE
  5
135
100
AcDbEntity
  8
Layer_1
 62
5
100
AcDbSpline
 70
8
 71
3
 72
8
 73
4
 74
0
 40
0
 40
0
 40
0
 40
0
 40
1
 40
1
 40
1
 40
1
 10
202.253438
 20
198.861822
 30
0.0
 10
202.005917
 20
198.718916
 30
0.0
 10
201.853438
 20
198.454814
 30
0.0
 10
201.853438
 20
198.169002
 30
0.0
  0
SPLINE
  5
136
100
AcDbEntity
  8
Layer_1
 62
5
100
AcDbSpline
 70
8
 71
3
 72
8
 73
4
 74
0
 40
0
 40
0
 40
0
 40
0
 40
1
 40
1
 40
1
 40
1
 10
201.853438
 20
198.169002
 30
0.0
 10
201.853438
 20
197.883189
 30
0.0
 10
202.005917
 20
197.619088
 30
0.0
 10
202.253438
 20
197.476181
 30
0.0
  0
SPLINE
  5
137
100
AcDbEntity
  8
Layer_1
 62
5
100
AcDbSpline
 70
8
 71
3
 72
8
 73
4
 74
0
 40
0
 40
0
 40
0
 40
0
 40
1
 40
1
 40
1
 40
1
 10
202.253438
 20
197.476181
 30
0.0
 10
202.500959
 20
197.333275
 30
0.0
 10
202.805917
 20
197.333275
 30
0.0
 10
203.053438
 20
197.476181
 30
0.0
  0
SPLINE
  5
138
100
AcDbEntity
  8
Layer_1
 62
5
100
AcDbSpline
 70
8
 71
3
 72
8
 73
4
 74
0
 40
0
 40
0
 40
0
 40
0
 40
1
 40
1
 40
1
 40
1
 10
203.053438
 20
197.476181
 30
0.0
 10
203.300959
 20
197.619088
 30
0.0
 10
203.453438
 20
197.883189
 30
0.0
 10
203.453438
 20
198.169002
 30
0.0
  0
LINE
  5
139
100
AcDbEntity
  8
Layer_1
 62
5
100
AcDbLine
 10
203.453438
 20
198.169002
 30
0.0
 11
203.453438
 21
198.169002
 31
0.0
  0
SPLINE
  5
13a
100
AcDbEntity
  8
Layer_1
 62
5
100
AcDbSpline
 70
8
 71
3
 72
8
 73
4
 74
0
 40
0
 40
0
 40
0
 40
0
 40
1
 40
1
 40
1
 40
1
 10
23.453427
 20
214.169002
 30
0.0
 10
23.453427
 20
214.454814
 30
0.0
 10
23.300948
 20
214.718916
 30
0.0
 10
23.053427
 20
214.861822
 30
0.0
  0
SPLINE
  5
13b
100
AcDbEntity
  8
Layer_1
 62
5
100
AcDbSpline
 70
8
 71
3
 72
8
 73
4
 74
0
 40
0
 40
0
 40
0
 40
0
 40
1
 40
1
 40
1
 40
1
 10
23.053427
 20
214.861822
 30
0.0
 10
22.805906
 20
215.004728
 30
0.0
 10
22.500948
 20
215.004728
 30
0.0
 10
22.253427
 20
214.861822
 30
0.0
  0
SPLINE
  5
13c
100
AcDbEntity
  8
Layer_1
 62
5
100
AcDbSpline
 70
8
 71
3
 72
8
 73
4
 74
0
 40
0
 40
0
 40
0
 40
0
 40
1
 40
1
 40
1
 40
1
 10
22.253427
 20
214.861822
 30
0.0
 10
22.005906
 20
214.718916
 30
0.0
 10
21.853427
 20
214.454814
 30
0.0
 10
21.853427
 20
214.169002
 30
0.0
  0
SPLINE
  5
13d
100
AcDbEntity
  8
Layer_1
 62
5
100
AcDbSpline
 70
8
 71
3
 72
8
 73
4
 74
0
 40
0
 40
0
 40
0
 40
0
 40
1
 40
1
 40
1
 40
1
 10
21.853427
 20
214.169002
 30
0.0
 10
21.853427
 20
213.883189
 30
0.0
 10
22.005906
 20
213.619088
 30
0.0
 10
22.253427
 20
213.476181
 30
0.0
  0
SPLINE
  5
13e
100
AcDbEntity
  8
Layer_1
 62
5
100
AcDbSpline
 70
8
 71
3
 72
8
 73
4
 74
0
 40
0
 40
0
 40
0
 40
0
 40
1
 40
1
 40
1
 40
1
 10
22.253427
 20
213.476181
 30
0.0
 10
22.500948
 20
213.333275
 30
0.0
 10
22.805906
 20
213.333275
 30
0.0
 10
23.053427
 20
213.476181
 30
0.0
  0
SPLINE
  5
13f
100
AcDbEntity
  8
Layer_1
 62
5
100
AcDbSpline
 70
8
 71
3
 72
8
 73
4
 74
0
 40
0
 40
0
 40
0
 40
0
 40
1
 40
1
 40
1
 40
1
 10
23.053427
 20
213.476181
 30
0.0
 10
23.300948
 20
213.619088
 30
0.0
 10
23.453427
 20
213.883189
 30
0.0
 10
23.453427
 20
214.169002
 30
0.0
  0
LINE
  5
140
100
AcDbEntity
  8
Layer_1
 62
5
100
AcDbLine
 10
23.453427
 20
214.169002
 30
0.0
 11
23.453427
 21
214.169002
 31
0.0
  0
SPLINE
  5
141
100
AcDbEntity
  8
Layer_1
 62
5
100
AcDbSpline
 70
8
 71
3
 72
8
 73
4
 74
0
 40
0
 40
0
 40
0
 40
0
 40
1
 40
1
 40
1
 40
1
 10
204.636501
 20
214.169002
 30
0.0
 10
204.636501
 20
213.460521
 30
0.0
 10
204.258532
 20
212.805859
 30
0.0
 10
203.644970
 20
212.451618
 30
0.0
  0
SPLINE
  5
142
100
AcDbEntity
  8
Layer_1
 62
5
100
AcDbSpline
 70
8
 71
3
 72
8
 73
4
 74
0
 40
0
 40
0
 40
0
 40
0
 40
1
 40
1
 40
1
 40
1
 10
203.644970
 20
212.451618
 30
0.0
 10
203.031408
 20
212.097378
 30
0.0
 10
202.275468
 20
212.097378
 30
0.0
 10
201.661906
 20
212.451618
 30
0.0
  0
SPLINE
  5
143
100
AcDbEntity
  8
Layer_1
 62
5
100
AcDbSpline
 70
8
 71
3
 72
8
 73
4
 74
0
 40
0
 40
0
 40
0
 40
0
 40
1
 40
1
 40
1
 40
1
 10
201.661906
 20
212.451618
 30
0.0
 10
201.048344
 20
212.805859
 30
0.0
 10
200.670374
 20
213.460521
 30
0.0
 10
200.670374
 20
214.169002
 30
0.0
  0
SPLINE
  5
144
100
AcDbEntity
  8
Layer_1
 62
5
100
AcDbSpline
 70
8
 71
3
 72
8
 73
4
 74
0
 40
0
 40
0
 40
0
 40
0
 40
1
 40
1
 40
1
 40
1
 10
200.670374
 20
214.169002
 30
0.0
 10
200.670374
 20
215.264217
 30
0.0
 10
201.558222
 20
216.152065
 30
0.0
 10
202.653438
 20
216.152065
 30
0.0
  0
SPLINE
  5
145
100
AcDbEntity
  8
Layer_1
 62
5
100
AcDbSpline
 70
8
 71
3
 72
8
 73
4
 74
0
 40
0
 40
0
 40
0
 40
0
 40
1
 40
1
 40
1
 40
1
 10
202.653438
 20
216.152065
 30
0.0
 10
203.748654
 20
216.152065
 30
0.0
 10
204.636501
 20
215.264217
 30
0.0
 10
204.636501
 20
214.169002
 30
0.0
  0
LINE
  5
146
100
AcDbEntity
  8
Layer_1
 62
5
100
AcDbLine
 10
204.636501
 20
214.169002
 30
0.0
 11
204.636501
 21
214.169002
 31
0.0
  0
SPLINE
  5
147
100
AcDbEntity
  8
Layer_1
 62
5
100
AcDbSpline
 70
8
 71
3
 72
8
 73
4
 74
0
 40
0
 40
0
 40
0
 40
0
 40
1
 40
1
 40
1
 40
1
 10
190.636501
 20
214.169002
 30
0.0
 10
190.636501
 20
213.073786
 30
0.0
 10
189.748654
 20
212.185938
 30
0.0
 10
188.653438
 20
212.185938
 30
0.0
  0
SPLINE
  5
148
100
AcDbEntity
  8
Layer_1
 62
5
100
AcDbSpline
 70
8
 71
3
 72
8
 73
4
 74
0
 40
0
 40
0
 40
0
 40
0
 40
1
 40
1
 40
1
 40
1
 10
188.653438
 20
212.185938
 30
0.0
 10
187.558222
 20
212.185938
 30
0.0
 10
186.670374
 20
213.073786
 30
0.0
 10
186.670374
 20
214.169002
 30
0.0
  0
SPLINE
  5
149
100
AcDbEntity
  8
Layer_1
 62
5
100
AcDbSpline
 70
8
 71
3
 72
8
 73
4
 74
0
 40
0
 40
0
 40
0
 40
0
 40
1
 40
1
 40
1
 40
1
 10
186.670374
 20
214.169002
 30
0.0
 10
186.670374
 20
215.264217
 30
0.0
 10
187.558222
 20
216.152065
 30
0.0
 10
188.653438
 20
216.152065
 30
0.0
  0
SPLINE
  5
14a
100
AcDbEntity
  8
Layer_1
 62
5
100
AcDbSpline
 70
8
 71
3
 72
8
 73
4
 74
0
 40
0
 40
0
 40
0
 40
0
 40
1
 40
1
 40
1
 40
1
 10
188.653438
 20
216.152065
 30
0.0
 10
189.748654
 20
216.152065
 30
0.0
 10
190.636501
 20
215.264217
 30
0.0
 10
190.636501
 20
214.169002
 30
0.0
  0
LINE
  5
14b
100
AcDbEntity
  8
Layer_1
 62
5
100
AcDbLine
 10
190.636501
 20
214.169002
 30
0.0
 11
190.636501
 21
214.169002
 31
0.0
  0
SPLINE
  5
14c
100
AcDbEntity
  8
Layer_1
 62
5
100
AcDbSpline
 70
8
 71
3
 72
8
 73
4
 74
0
 40
0
 40
0
 40
0
 40
0
 40
1
 40
1
 40
1
 40
1
 10
190.636501
 20
198.169002
 30
0.0
 10
190.636501
 20
197.073786
 30
0.0
 10
189.748654
 20
196.185938
 30
0.0
 10
188.653438
 20
196.185938
 30
0.0
  0
SPLINE
  5
14d
100
AcDbEntity
  8
Layer_1
 62
5
100
AcDbSpline
 70
8
 71
3
 72
8
 73
4
 74
0
 40
0
 40
0
 40
0
 40
0
 40
1
 40
1
 40
1
 40
1
 10
188.653438
 20
196.185938
 30
0.0
 10
187.558222
 20
196.185938
 30
0.0
 10
186.670374
 20
197.073786
 30
0.0
 10
186.670374
 20
198.169002
 30
0.0
  0
SPLINE
  5
14e
100
AcDbEntity
  8
Layer_1
 62
5
100
AcDbSpline
 70
8
 71
3
 72
8
 73
4
 74
0
 40
0
 40
0
 40
0
 40
0
 40
1
 40
1
 40
1
 40
1
 10
186.670374
 20
198.169002
 30
0.0
 10
186.670374
 20
199.264217
 30
0.0
 10
187.558222
 20
200.152065
 30
0.0
 10
188.653438
 20
200.152065
 30
0.0
  0
SPLINE
  5
14f
100
AcDbEntity
  8
Layer_1
 62
5
100
AcDbSpline
 70
8
 71
3
 72
8
 73
4
 74
0
 40
0
 40
0
 40
0
 40
0
 40
1
 40
1
 40
1
 40
1
 10
188.653438
 20
200.152065
 30
0.0
 10
189.748654
 20
200.152065
 30
0.0
 10
190.636501
 20
199.264217
 30
0.0
 10
190.636501
 20
198.169002
 30
0.0
  0
LINE
  5
150
100
AcDbEntity
  8
Layer_1
 62
5
100
AcDbLine
 10
190.636501
 20
198.169002
 30
0.0
 11
190.636501
 21
198.169002
 31
0.0
  0
SPLINE
  5
151
100
AcDbEntity
  8
Layer_1
 62
5
100
AcDbSpline
 70
8
 71
3
 72
8
 73
4
 74
0
 40
0
 40
0
 40
0
 40
0
 40
1
 40
1
 40
1
 40
1
 10
204.636501
 20
198.169002
 30
0.0
 10
204.636501
 20
197.460521
 30
0.0
 10
204.258532
 20
196.805859
 30
0.0
 10
203.644970
 20
196.451618
 30
0.0
  0
SPLINE
  5
152
100
AcDbEntity
  8
Layer_1
 62
5
100
AcDbSpline
 70
8
 71
3
 72
8
 73
4
 74
0
 40
0
 40
0
 40
0
 40
0
 40
1
 40
1
 40
1
 40
1
 10
203.644970
 20
196.451618
 30
0.0
 10
203.031408
 20
196.097378
 30
0.0
 10
202.275468
 20
196.097378
 30
0.0
 10
201.661906
 20
196.451618
 30
0.0
  0
SPLINE
  5
153
100
AcDbEntity
  8
Layer_1
 62
5
100
AcDbSpline
 70
8
 71
3
 72
8
 73
4
 74
0
 40
0
 40
0
 40
0
 40
0
 40
1
 40
1
 40
1
 40
1
 10
201.661906
 20
196.451618
 30
0.0
 10
201.048344
 20
196.805859
 30
0.0
 10
200.670374
 20
197.460521
 30
0.0
 10
200.670374
 20
198.169002
 30
0.0
  0
SPLINE
  5
154
100
AcDbEntity
  8
Layer_1
 62
5
100
AcDbSpline
 70
8
 71
3
 72
8
 73
4
 74
0
 40
0
 40
0
 40
0
 40
0
 40
1
 40
1
 40
1
 40
1
 10
200.670374
 20
198.169002
 30
0.0
 10
200.670374
 20
199.264217
 30
0.0
 10
201.558222
 20
200.152065
 30
0.0
 10
202.653438
 20
200.152065
 30
0.0
  0
SPLINE
  5
155
100
AcDbEntity
  8
Layer_1
 62
5
100
AcDbSpline
 70
8
 71
3
 72
8
 73
4
 74
0
 40
0
 40
0
 40
0
 40
0
 40
1
 40
1
 40
1
 40
1
 10
202.653438
 20
200.152065
 30
0.0
 10
203.748654
 20
200.152065
 30
0.0
 10
204.636501
 20
199.264217
 30
0.0
 10
204.636501
 20
198.169002
 30
0.0
  0
LINE
  5
156
100
AcDbEntity
  8
Layer_1
 62
5
100
AcDbLine
 10
204.636501
 20
198.169002
 30
0.0
 11
204.636501
 21
198.169002
 31
0.0
  0
SPLINE
  5
157
100
AcDbEntity
  8
Layer_1
 62
5
100
AcDbSpline
 70
8
 71
3
 72
8
 73
4
 74
0
 40
0
 40
0
 40
0
 40
0
 40
1
 40
1
 40
1
 40
1
 10
38.636494
 20
214.169002
 30
0.0
 10
38.636494
 20
213.460521
 30
0.0
 10
38.258525
 20
212.805859
 30
0.0
 10
37.644963
 20
212.451618
 30
0.0
  0
SPLINE
  5
158
100
AcDbEntity
  8
Layer_1
 62
5
100
AcDbSpline
 70
8
 71
3
 72
8
 73
4
 74
0
 40
0
 40
0
 40
0
 40
0
 40
1
 40
1
 40
1
 40
1
 10
37.644963
 20
212.451618
 30
0.0
 10
37.031401
 20
212.097378
 30
0.0
 10
36.275461
 20
212.097378
 30
0.0
 10
35.661899
 20
212.451618
 30
0.0
  0
SPLINE
  5
159
100
AcDbEntity
  8
Layer_1
 62
5
100
AcDbSpline
 70
8
 71
3
 72
8
 73
4
 74
0
 40
0
 40
0
 40
0
 40
0
 40
1
 40
1
 40
1
 40
1
 10
35.661899
 20
212.451618
 30
0.0
 10
35.048337
 20
212.805859
 30
0.0
 10
34.670367
 20
213.460521
 30
0.0
 10
34.670367
 20
214.169002
 30
0.0
  0
SPLINE
  5
15a
100
AcDbEntity
  8
Layer_1
 62
5
100
AcDbSpline
 70
8
 71
3
 72
8
 73
4
 74
0
 40
0
 40
0
 40
0
 40
0
 40
1
 40
1
 40
1
 40
1
 10
34.670367
 20
214.169002
 30
0.0
 10
34.670367
 20
214.877482
 30
0.0
 10
35.048337
 20
215.532145
 30
0.0
 10
35.661899
 20
215.886385
 30
0.0
  0
SPLINE
  5
15b
100
AcDbEntity
  8
Layer_1
 62
5
100
AcDbSpline
 70
8
 71
3
 72
8
 73
4
 74
0
 40
0
 40
0
 40
0
 40
0
 40
1
 40
1
 40
1
 40
1
 10
35.661899
 20
215.886385
 30
0.0
 10
36.275461
 20
216.240625
 30
0.0
 10
37.031401
 20
216.240625
 30
0.0
 10
37.644963
 20
215.886385
 30
0.0
  0
SPLINE
  5
15c
100
AcDbEntity
  8
Layer_1
 62
5
100
AcDbSpline
 70
8
 71
3
 72
8
 73
4
 74
0
 40
0
 40
0
 40
0
 40
0
 40
1
 40
1
 40
1
 40
1
 10
37.644963
 20
215.886385
 30
0.0
 10
38.258525
 20
215.532145
 30
0.0
 10
38.636494
 20
214.877482
 30
0.0
 10
38.636494
 20
214.169002
 30
0.0
  0
LINE
  5
15d
100
AcDbEntity
  8
Layer_1
 62
5
100
AcDbLine
 10
38.636494
 20
214.169002
 30
0.0
 11
38.636494
 21
214.169002
 31
0.0
  0
SPLINE
  5
15e
100
AcDbEntity
  8
Layer_1
 62
5
100
AcDbSpline
 70
8
 71
3
 72
8
 73
4
 74
0
 40
0
 40
0
 40
0
 40
0
 40
1
 40
1
 40
1
 40
1
 10
38.636494
 20
198.169002
 30
0.0
 10
38.636494
 20
197.460521
 30
0.0
 10
38.258525
 20
196.805859
 30
0.0
 10
37.644963
 20
196.451618
 30
0.0
  0
SPLINE
  5
15f
100
AcDbEntity
  8
Layer_1
 62
5
100
AcDbSpline
 70
8
 71
3
 72
8
 73
4
 74
0
 40
0
 40
0
 40
0
 40
0
 40
1
 40
1
 40
1
 40
1
 10
37.644963
 20
196.451618
 30
0.0
 10
37.031401
 20
196.097378
 30
0.0
 10
36.275461
 20
196.097378
 30
0.0
 10
35.661899
 20
196.451618
 30
0.0
  0
SPLINE
  5
160
100
AcDbEntity
  8
Layer_1
 62
5
100
AcDbSpline
 70
8
 71
3
 72
8
 73
4
 74
0
 40
0
 40
0
 40
0
 40
0
 40
1
 40
1
 40
1
 40
1
 10
35.661899
 20
196.451618
 30
0.0
 10
35.048337
 20
196.805859
 30
0.0
 10
34.670367
 20
197.460521
 30
0.0
 10
34.670367
 20
198.169002
 30
0.0
  0
SPLINE
  5
161
100
AcDbEntity
  8
Layer_1
 62
5
100
AcDbSpline
 70
8
 71
3
 72
8
 73
4
 74
0
 40
0
 40
0
 40
0
 40
0
 40
1
 40
1
 40
1
 40
1
 10
34.670367
 20
198.169002
 30
0.0
 10
34.670367
 20
198.877482
 30
0.0
 10
35.048337
 20
199.532145
 30
0.0
 10
35.661899
 20
199.886385
 30
0.0
  0
SPLINE
  5
162
100
AcDbEntity
  8
Layer_1
 62
5
100
AcDbSpline
 70
8
 71
3
 72
8
 73
4
 74
0
 40
0
 40
0
 40
0
 40
0
 40
1
 40
1
 40
1
 40
1
 10
35.661899
 20
199.886385
 30
0.0
 10
36.275461
 20
200.240625
 30
0.0
 10
37.031401
 20
200.240625
 30
0.0
 10
37.644963
 20
199.886385
 30
0.0
  0
SPLINE
  5
163
100
AcDbEntity
  8
Layer_1
 62
5
100
AcDbSpline
 70
8
 71
3
 72
8
 73
4
 74
0
 40
0
 40
0
 40
0
 40
0
 40
1
 40
1
 40
1
 40
1
 10
37.644963
 20
199.886385
 30
0.0
 10
38.258525
 20
199.532145
 30
0.0
 10
38.636494
 20
198.877482
 30
0.0
 10
38.636494
 20
198.169002
 30
0.0
  0
LINE
  5
164
100
AcDbEntity
  8
Layer_1
 62
5
100
AcDbLine
 10
38.636494
 20
198.169002
 30
0.0
 11
38.636494
 21
198.169002
 31
0.0
  0
SPLINE
  5
165
100
AcDbEntity
  8
Layer_1
 62
5
100
AcDbSpline
 70
8
 71
3
 72
8
 73
4
 74
0
 40
0
 40
0
 40
0
 40
0
 40
1
 40
1
 40
1
 40
1
 10
24.636490
 20
198.169002
 30
0.0
 10
24.636490
 20
197.460521
 30
0.0
 10
24.258521
 20
196.805859
 30
0.0
 10
23.644959
 20
196.451618
 30
0.0
  0
SPLINE
  5
166
100
AcDbEntity
  8
Layer_1
 62
5
100
AcDbSpline
 70
8
 71
3
 72
8
 73
4
 74
0
 40
0
 40
0
 40
0
 40
0
 40
1
 40
1
 40
1
 40
1
 10
23.644959
 20
196.451618
 30
0.0
 10
23.031397
 20
196.097378
 30
0.0
 10
22.275457
 20
196.097378
 30
0.0
 10
21.661895
 20
196.451618
 30
0.0
  0
SPLINE
  5
167
100
AcDbEntity
  8
Layer_1
 62
5
100
AcDbSpline
 70
8
 71
3
 72
8
 73
4
 74
0
 40
0
 40
0
 40
0
 40
0
 40
1
 40
1
 40
1
 40
1
 10
21.661895
 20
196.451618
 30
0.0
 10
21.048333
 20
196.805859
 30
0.0
 10
20.670363
 20
197.460521
 30
0.0
 10
20.670363
 20
198.169002
 30
0.0
  0
SPLINE
  5
168
100
AcDbEntity
  8
Layer_1
 62
5
100
AcDbSpline
 70
8
 71
3
 72
8
 73
4
 74
0
 40
0
 40
0
 40
0
 40
0
 40
1
 40
1
 40
1
 40
1
 10
20.670363
 20
198.169002
 30
0.0
 10
20.670363
 20
198.877482
 30
0.0
 10
21.048333
 20
199.532145
 30
0.0
 10
21.661895
 20
199.886385
 30
0.0
  0
SPLINE
  5
169
100
AcDbEntity
  8
Layer_1
 62
5
100
AcDbSpline
 70
8
 71
3
 72
8
 73
4
 74
0
 40
0
 40
0
 40
0
 40
0
 40
1
 40
1
 40
1
 40
1
 10
21.661895
 20
199.886385
 30
0.0
 10
22.275457
 20
200.240625
 30
0.0
 10
23.031397
 20
200.240625
 30
0.0
 10
23.644959
 20
199.886385
 30
0.0
  0
SPLINE
  5
16a
100
AcDbEntity
  8
Layer_1
 62
5
100
AcDbSpline
 70
8
 71
3
 72
8
 73
4
 74
0
 40
0
 40
0
 40
0
 40
0
 40
1
 40
1
 40
1
 40
1
 10
23.644959
 20
199.886385
 30
0.0
 10
24.258521
 20
199.532145
 30
0.0
 10
24.636490
 20
198.877482
 30
0.0
 10
24.636490
 20
198.169002
 30
0.0
  0
LINE
  5
16b
100
AcDbEntity
  8
Layer_1
 62
5
100
AcDbLine
 10
24.636490
 20
198.169002
 30
0.0
 11
24.636490
 21
198.169002
 31
0.0
  0
SPLINE
  5
16c
100
AcDbEntity
  8
Layer_1
 62
5
100
AcDbSpline
 70
8
 71
3
 72
8
 73
4
 74
0
 40
0
 40
0
 40
0
 40
0
 40
1
 40
1
 40
1
 40
1
 10
24.636490
 20
214.169002
 30
0.0
 10
24.636490
 20
213.460521
 30
0.0
 10
24.258521
 20
212.805859
 30
0.0
 10
23.644959
 20
212.451618
 30
0.0
  0
SPLINE
  5
16d
100
AcDbEntity
  8
Layer_1
 62
5
100
AcDbSpline
 70
8
 71
3
 72
8
 73
4
 74
0
 40
0
 40
0
 40
0
 40
0
 40
1
 40
1
 40
1
 40
1
 10
23.644959
 20
212.451618
 30
0.0
 10
23.031397
 20
212.097378
 30
0.0
 10
22.275457
 20
212.097378
 30
0.0
 10
21.661895
 20
212.451618
 30
0.0
  0
SPLINE
  5
16e
100
AcDbEntity
  8
Layer_1
 62
5
100
AcDbSpline
 70
8
 71
3
 72
8
 73
4
 74
0
 40
0
 40
0
 40
0
 40
0
 40
1
 40
1
 40
1
 40
1
 10
21.661895
 20
212.451618
 30
0.0
 10
21.048333
 20
212.805859
 30
0.0
 10
20.670363
 20
213.460521
 30
0.0
 10
20.670363
 20
214.169002
 30
0.0
  0
SPLINE
  5
16f
100
AcDbEntity
  8
Layer_1
 62
5
100
AcDbSpline
 70
8
 71
3
 72
8
 73
4
 74
0
 40
0
 40
0
 40
0
 40
0
 40
1
 40
1
 40
1
 40
1
 10
20.670363
 20
214.169002
 30
0.0
 10
20.670363
 20
214.877482
 30
0.0
 10
21.048333
 20
215.532145
 30
0.0
 10
21.661895
 20
215.886385
 30
0.0
  0
SPLINE
  5
170
100
AcDbEntity
  8
Layer_1
 62
5
100
AcDbSpline
 70
8
 71
3
 72
8
 73
4
 74
0
 40
0
 40
0
 40
0
 40
0
 40
1
 40
1
 40
1
 40
1
 10
21.661895
 20
215.886385
 30
0.0
 10
22.275457
 20
216.240625
 30
0.0
 10
23.031397
 20
216.240625
 30
0.0
 10
23.644959
 20
215.886385
 30
0.0
  0
SPLINE
  5
171
100
AcDbEntity
  8
Layer_1
 62
5
100
AcDbSpline
 70
8
 71
3
 72
8
 73
4
 74
0
 40
0
 40
0
 40
0
 40
0
 40
1
 40
1
 40
1
 40
1
 10
23.644959
 20
215.886385
 30
0.0
 10
24.258521
 20
215.532145
 30
0.0
 10
24.636490
 20
214.877482
 30
0.0
 10
24.636490
 20
214.169002
 30
0.0
  0
LINE
  5
172
100
AcDbEntity
  8
Layer_1
 62
5
100
AcDbLine
 10
24.636490
 20
214.169002
 30
0.0
 11
24.636490
 21
214.169002
 31
0.0
  0
ENDSEC
  0
SECTION
  2
OBJECTS
  0
DICTIONARY
  5
C
330
0
100
AcDbDictionary
  3
ACAD_GROUP
350
D
  3
ACAD_MLINESTYLE
350
17
  0
DICTIONARY
  5
D
330
C
100
AcDbDictionary
  0
DICTIONARY
  5
1A
330
C
100
AcDbDictionary
  0
DICTIONARY
  5
17
330
C
100
AcDbDictionary
  3
STANDARD
350
18
  0
DICTIONARY
  5
19
330
C
100
AcDbDictionary
  0
ENDSEC
  0
EOF
