<?xml version="1.0" encoding="UTF-8" standalone="no"?>
<!-- Created with Inkscape (http://www.inkscape.org/) -->

<svg
   xmlns:dc="http://purl.org/dc/elements/1.1/"
   xmlns:cc="http://creativecommons.org/ns#"
   xmlns:rdf="http://www.w3.org/1999/02/22-rdf-syntax-ns#"
   xmlns:svg="http://www.w3.org/2000/svg"
   xmlns="http://www.w3.org/2000/svg"
   xmlns:sodipodi="http://sodipodi.sourceforge.net/DTD/sodipodi-0.dtd"
   xmlns:inkscape="http://www.inkscape.org/namespaces/inkscape"
   width="210mm"
   height="297mm"
   viewBox="0 0 210 297"
   version="1.1"
   id="svg1207"
   inkscape:version="0.92.3 (2405546, 2018-03-11)"
   sodipodi:docname="KamloopsMakerspace-Sign-alt.svg">
  <defs
     id="defs1201">
    <clipPath
       id="clipPath18"
       clipPathUnits="userSpaceOnUse">
      <path
         inkscape:connector-curvature="0"
         id="path20"
         d="M 0,792 612,792 612,0 0,0 0,792 z" />
    </clipPath>
  </defs>
  <sodipodi:namedview
     id="base"
     pagecolor="#ffffff"
     bordercolor="#666666"
     borderopacity="1.0"
     inkscape:pageopacity="0.0"
     inkscape:pageshadow="2"
     inkscape:zoom="1.4"
     inkscape:cx="-387.31642"
     inkscape:cy="395.48154"
     inkscape:document-units="mm"
     inkscape:current-layer="layer1"
     showgrid="false"
     inkscape:measure-start="-160.221,284.965"
     inkscape:measure-end="-652.488,284.965"
     inkscape:window-width="1680"
     inkscape:window-height="999"
     inkscape:window-x="0"
     inkscape:window-y="25"
     inkscape:window-maximized="1" />
  <metadata
     id="metadata1204">
    <rdf:RDF>
      <cc:Work
         rdf:about="">
        <dc:format>image/svg+xml</dc:format>
        <dc:type
           rdf:resource="http://purl.org/dc/dcmitype/StillImage" />
        <dc:title></dc:title>
      </cc:Work>
    </rdf:RDF>
  </metadata>
  <g
     inkscape:label="Layer 1"
     inkscape:groupmode="layer"
     id="layer1">
    <g
       style="fill:none;stroke:#000000;stroke-width:0.13958205;stroke-miterlimit:4;stroke-dasharray:none;stroke-opacity:1"
       id="g14"
       transform="matrix(0.31329156,0,0,-0.31329156,-186.54066,399.53733)">
      <g
         style="fill:none;stroke:#000000;stroke-width:0.13958205;stroke-miterlimit:4;stroke-dasharray:none;stroke-opacity:1"
         id="g16"
         clip-path="url(#clipPath18)">
        <g
           style="fill:none;stroke:#000000;stroke-width:0.13958205;stroke-miterlimit:4;stroke-dasharray:none;stroke-opacity:1"
           id="g3292"
           transform="translate(260.0693,594.876)" />
        <g
           style="fill:none;stroke:#000000;stroke-width:0.13958205;stroke-miterlimit:4;stroke-dasharray:none;stroke-opacity:1"
           id="g3296"
           transform="translate(230.5771,593.3442)" />
        <g
           style="fill:none;stroke:#000000;stroke-width:0.13958205;stroke-miterlimit:4;stroke-dasharray:none;stroke-opacity:1"
           id="g3300"
           transform="translate(197.2505,594.876)" />
        <g
           style="fill:none;stroke:#000000;stroke-width:0.13958205;stroke-miterlimit:4;stroke-dasharray:none;stroke-opacity:1"
           id="g3304"
           transform="translate(313.9463,635.7412)" />
        <g
           style="fill:none;stroke:#000000;stroke-width:0.13958205;stroke-miterlimit:4;stroke-dasharray:none;stroke-opacity:1"
           id="g3312"
           transform="translate(249.5732,595.1743)" />
        <g
           style="fill:none;stroke:#000000;stroke-width:0.13958205;stroke-miterlimit:4;stroke-dasharray:none;stroke-opacity:1"
           id="g3316"
           transform="translate(259.5039,640.3477)" />
        <g
           style="fill:none;stroke:#000000;stroke-width:0.13958205;stroke-miterlimit:4;stroke-dasharray:none;stroke-opacity:1"
           id="g3320"
           transform="translate(353.0244,643.2485)" />
        <g
           style="fill:none;stroke:#000000;stroke-width:0.13958205;stroke-miterlimit:4;stroke-dasharray:none;stroke-opacity:1"
           id="g3328"
           transform="translate(81.1328,612.8979)" />
        <g
           style="fill:none;stroke:#000000;stroke-width:0.13958205;stroke-miterlimit:4;stroke-dasharray:none;stroke-opacity:1"
           id="g3336"
           transform="translate(251.8184,560.4102)" />
        <g
           style="fill:none;stroke:#000000;stroke-width:0.13958205;stroke-miterlimit:4;stroke-dasharray:none;stroke-opacity:1"
           id="g3348"
           transform="translate(67.5649,724.2886)" />
        <g
           style="fill:none;stroke:#000000;stroke-width:0.13958205;stroke-miterlimit:4;stroke-dasharray:none;stroke-opacity:1"
           id="g3352"
           transform="translate(204.0254,736.9946)" />
      </g>
      <g
         style="fill:none;stroke:#000000;stroke-width:0.13958205;stroke-miterlimit:4;stroke-dasharray:none;stroke-opacity:1"
         id="g3344"
         transform="translate(-48.416769,681.07519)" />
    </g>
    <g
       id="g7243">
      <path
         d="m -175.43945,826.24608 -2.39015,-54.28165 -0.36038,-99.34904 c 0,0 0.42589,-11.78426 -11.14225,-22.91516 -13.60724,-13.09293 -35.6191,-15.25674 -35.6191,-15.25674 l -188.08146,-25.66315 -196.74591,26.6993 c 0,0 -16.04191,2.41077 -27.57026,13.51484 -14.30479,13.77823 -12.64388,26.18872 -12.64388,26.18872 v 97.26176 l -2.49543,53.80112 m -10e-6,10e-6 v 11.3086 h -15.21875 v 17.18359 h 507.48633 v -17.18359 h -15.21875 v -11.3086"
         style="opacity:1;fill:none;fill-opacity:1;stroke:#000000;stroke-width:0.45620412;stroke-linejoin:round;stroke-miterlimit:4;stroke-dasharray:none;stroke-opacity:1"
         transform="scale(0.26458333)"
         id="path7036" />
      <path
         id="path7032"
         d="m -166.54206,164.7562 c -0.0479,0.0175 -0.0912,0.0377 -0.13906,0.0556 0.0248,0.0172 0.049,0.0318 0.0834,0.0397 0.0279,-0.0227 0.0429,-0.0582 0.0556,-0.0954 z"
         style="opacity:1;fill:none;fill-opacity:1;stroke:#000000;stroke-width:0.120704;stroke-linejoin:round;stroke-miterlimit:4;stroke-dasharray:none;stroke-opacity:1"
         inkscape:connector-curvature="0" />
      <path
         id="path7022"
         d="m -87.731435,171.34362 1.330995,2.63814 2.773227,0.45294 -1.91901,2.10177 0.389364,2.80105 -2.534843,-1.23961 -2.622254,1.24358 0.4728,-2.80899 -2.010394,-2.06204 2.896399,-0.45691 z"
         style="opacity:1;fill:none;fill-opacity:1;stroke:#ff0000;stroke-width:0.1;stroke-linejoin:round;stroke-miterlimit:4;stroke-dasharray:none;stroke-opacity:1"
         inkscape:connector-curvature="0" />
      <path
         id="path7020"
         d="m -130.34305,171.35553 1.38662,2.65006 2.75337,0.44102 -1.99848,2.14547 0.43307,2.69378 -2.57855,-1.14028 -2.63814,1.31906 -0.0834,-0.0834 0.0397,-0.1192 0.53637,-2.70568 -1.97066,-2.09383 2.62225,-0.42911 z"
         style="opacity:1;fill:none;fill-opacity:1;stroke:#ff0000;stroke-width:0.1;stroke-linejoin:round;stroke-miterlimit:4;stroke-dasharray:none;stroke-opacity:1"
         inkscape:connector-curvature="0" />
      <path
         id="path7014"
         d="m -143.0133,173.71555 1.03301,1.7879 1.97464,0.34964 -1.44621,1.52964 0.34566,2.10177 -1.90312,-1.00916 -1.92299,1.02108 0.34566,-2.18123 -1.45018,-1.42635 2.02628,-0.33374 z"
         style="opacity:1;fill:none;fill-opacity:1;stroke:#00ff00;stroke-width:0.1;stroke-linejoin:round;stroke-miterlimit:4;stroke-dasharray:none;stroke-opacity:1"
         inkscape:connector-curvature="0" />
      <path
         id="path7012"
         d="m -75.037346,173.71555 1.03301,1.7879 1.974636,0.34964 -1.438267,1.52566 0.313875,1.99054 -1.879282,-0.89395 -1.8912,0.87806 0.357582,-2.00642 -1.489919,-1.48595 2.026285,-0.30593 z"
         style="opacity:1;fill:none;fill-opacity:1;stroke:#00ff00;stroke-width:0.1;stroke-linejoin:round;stroke-miterlimit:4;stroke-dasharray:none;stroke-opacity:1"
         inkscape:connector-curvature="0" />
      <path
         id="path7010"
         d="m -64.746991,175.45974 0.675431,1.35086 1.255501,0.19866 -0.842296,1.02903 0.238387,1.31113 -1.358805,-0.55227 -1.211799,0.50061 0.218519,-1.25947 -0.878054,-0.97738 1.299207,-0.25429 z"
         style="opacity:1;fill:none;fill-opacity:1;stroke:#0000ff;stroke-width:0.120704;stroke-linejoin:round;stroke-miterlimit:4;stroke-dasharray:none;stroke-opacity:1"
         inkscape:connector-curvature="0" />
      <path
         id="path7008"
         d="m -153.29571,175.60278 0.64762,1.20384 1.23167,0.23443 -0.8582,0.98533 0.23839,1.43825 -1.24358,-0.66748 -1.33497,0.64762 0.25825,-1.37469 -0.88997,-1.02507 1.30318,-0.23839 z"
         style="opacity:1;fill:none;fill-opacity:1;stroke:#0000ff;stroke-width:0.120704;stroke-linejoin:round;stroke-miterlimit:4;stroke-dasharray:none;stroke-opacity:1"
         inkscape:connector-curvature="0" />
      <g
         style="fill:none;stroke:#00f200;stroke-opacity:1"
         id="g7142">
        <path
           inkscape:connector-curvature="0"
           style="opacity:1;fill:none;fill-opacity:1;stroke:#00f200;stroke-width:0.120704;stroke-linejoin:round;stroke-miterlimit:4;stroke-dasharray:none;stroke-opacity:1"
           d="m -119.58386,160.38181 c -0.0442,0.009 -0.0354,0.0748 -0.0318,0.13111 l 0.1033,-0.0159 c -0.0114,-0.0441 -0.0265,-0.0859 -0.0516,-0.11521 -0.009,-0.001 -0.0135,-0.001 -0.0199,0 z"
           id="path7038" />
        <path
           inkscape:connector-curvature="0"
           style="opacity:1;fill:none;fill-opacity:1;stroke:#00f200;stroke-width:0.120704;stroke-linejoin:round;stroke-miterlimit:4;stroke-dasharray:none;stroke-opacity:1"
           d="m -109.52792,163.012 c 6.91587,0 12.523247,5.60738 12.523247,12.52325 0,2.49576 -0.732065,4.82124 -1.990529,6.77415 l -0.162896,-0.1033 c 1.2476,-1.92903 1.970659,-4.22662 1.970659,-6.69469 0,-6.81626 -5.524211,-12.34048 -12.340481,-12.34048 -3.94974,0 -7.46754,1.8536 -9.72617,4.73992 l -0.13906,-0.0914 c 2.29246,-2.92659 5.85985,-4.80747 9.86523,-4.80747 z"
           id="path7034" />
        <path
           inkscape:connector-curvature="0"
           style="opacity:1;fill:none;fill-opacity:1;stroke:#00f200;stroke-width:0.120704;stroke-linejoin:round;stroke-miterlimit:4;stroke-dasharray:none;stroke-opacity:1"
           d="m -109.79809,165.11775 c 0.0892,-0.002 0.18045,0 0.27017,0 2.36209,0 4.53948,0.79111 6.28546,2.11767 l -0.1629,0.19071 c -1.69738,-1.30053 -3.81823,-2.07396 -6.12256,-2.07396 -5.56516,0 -10.07581,4.50667 -10.07581,10.07183 0,3.17811 1.4721,6.01504 3.77048,7.86279 l -0.24633,0.29401 c -2.34612,-1.90654 -3.84597,-4.81116 -3.84597,-8.06939 0,-5.65208 4.50973,-10.25138 10.12746,-10.39366 z"
           id="path7030" />
        <path
           inkscape:connector-curvature="0"
           style="opacity:1;fill:none;fill-opacity:1;stroke:#00f200;stroke-width:0.120704;stroke-linejoin:round;stroke-miterlimit:4;stroke-dasharray:none;stroke-opacity:1"
           d="m -109.52792,166.93744 c 4.59734,0 8.33574,3.65381 8.47862,8.21639 l -0.29798,-0.008 c -0.14914,-4.39748 -3.75479,-7.91842 -8.18859,-7.91842 -0.0708,0 -0.14421,-0.002 -0.21454,0 -0.83077,0.021 -1.62816,0.16663 -2.3799,0.41718 -0.10631,0.0354 -0.21352,0.0756 -0.31785,0.11522 -0.0421,0.016 -0.0854,0.031 -0.12714,0.0477 -0.0763,0.0305 -0.15127,0.0627 -0.22646,0.0953 -0.0498,0.0216 -0.0977,0.045 -0.14701,0.0675 -0.0575,0.0264 -0.11406,0.0518 -0.17084,0.0795 -0.0989,0.0487 -0.19738,0.10246 -0.29401,0.15495 -0.11645,0.0633 -0.22872,0.12604 -0.34169,0.19468 -0.11296,0.0686 -0.22841,0.1407 -0.33771,0.21455 -2.08157,1.40628 -3.48214,3.73964 -3.61156,6.40863 l -0.29798,-0.008 c 0.21339,-4.49779 3.92391,-8.07733 8.47464,-8.07733 z"
           id="path7028" />
        <path
           inkscape:connector-curvature="0"
           style="opacity:1;fill:none;fill-opacity:1;stroke:#00f200;stroke-width:0.120704;stroke-linejoin:round;stroke-miterlimit:4;stroke-dasharray:none;stroke-opacity:1"
           d="m -102.72198,167.6526 c 2.20033,1.90552 3.591692,4.71931 3.591692,7.85881 0,5.7418 -4.655832,10.39763 -10.397632,10.39763 -2.24388,0 -4.32015,-0.71394 -6.01926,-1.92298 l 0.2503,-0.29799 c 1.63437,1.14433 3.62262,1.81571 5.76896,1.81571 5.56516,0 10.075809,-4.51461 10.075809,-10.07978 0,-3.02058 -1.331729,-5.72717 -3.436739,-7.57275 z"
           id="path7026" />
        <path
           inkscape:connector-curvature="0"
           style="opacity:1;fill:none;fill-opacity:1;stroke:#00f200;stroke-width:0.120704;stroke-linejoin:round;stroke-miterlimit:4;stroke-dasharray:none;stroke-opacity:1"
           d="m -119.79444,168.36379 0.14303,0.0874 c -1.39761,2.00038 -2.21699,4.43445 -2.21699,7.06022 0,6.81626 5.52422,12.34445 12.34048,12.34445 4.10807,0 7.74544,-2.00971 9.988401,-5.0975 l 0.166873,0.1033 c -2.274764,3.14825 -5.974824,5.19683 -10.155274,5.19683 -6.91587,0 -12.52324,-5.60737 -12.52324,-12.52324 0,-2.66718 0.83529,-5.14011 2.25672,-7.17146 z"
           id="path7024" />
        <path
           inkscape:connector-curvature="0"
           style="opacity:1;fill:none;fill-opacity:1;stroke:#00f200;stroke-width:0.120704;stroke-linejoin:round;stroke-miterlimit:4;stroke-dasharray:none;stroke-opacity:1"
           d="m -109.02731,172.0548 h 6.30533 0.20263 v 0.1907 1.01713 0.11124 l -0.0993,0.0556 -3.00367,1.89518 3.00367,1.91504 0.0993,0.0556 v 1.29126 h -0.20263 -5.82855 -0.49267 v -1.43827 h 0.21852 2.88448 l -2.99175,-1.82764 2.9838,-1.80777 h -3.07916 z"
           id="path7018" />
        <path
           inkscape:connector-curvature="0"
           style="opacity:1;fill:none;fill-opacity:1;stroke:#00f200;stroke-width:0.120704;stroke-linejoin:round;stroke-miterlimit:4;stroke-dasharray:none;stroke-opacity:1"
           d="m -116.33386,172.09849 h 1.55746 v 2.37989 l 2.18521,-2.31235 0.0596,-0.0675 h 0.0874 0.4132 1.13631 0.45691 l -0.30991,0.34167 c -0.59952,0.86359 -1.22654,1.33935 -1.81173,1.9826 l 2.58649,2.68582 v 1.478 h -0.75489 l -2.97586,-2.97189 -1.07274,1.13631 v 1.62102 0.20264 h -0.20263 -1.1522 -0.20263 v -0.20264 z"
           id="path7016" />
        <path
           inkscape:connector-curvature="0"
           style="opacity:1;fill:none;fill-opacity:1;stroke:#00f200;stroke-width:0.120704;stroke-linejoin:round;stroke-miterlimit:4;stroke-dasharray:none;stroke-opacity:1"
           d="m -118.00654,175.68228 0.29401,0.008 c 0.0902,2.86906 1.65486,5.36725 3.95722,6.7662 0.10291,0.0619 0.20411,0.12528 0.3099,0.18276 0.0104,0.006 0.0213,0.0102 0.0318,0.0159 0.10908,0.0587 0.2178,0.11705 0.32977,0.17085 0.008,0.004 0.0162,0.008 0.0238,0.0119 0.10919,0.0521 0.21798,0.0997 0.32977,0.14701 0.98115,0.41508 2.06223,0.64365 3.19438,0.64365 4.39774,0 7.98105,-3.46375 8.1846,-7.81114 l 0.29799,0.008 c -0.20942,4.50172 -3.92126,8.08925 -8.47464,8.08925 -4.60134,0 -8.34188,-3.66402 -8.47862,-8.23227 z"
           id="path7006" />
      </g>
      <g
         style="stroke:#00f400;stroke-opacity:1;stroke-width:0.1;stroke-miterlimit:4;stroke-dasharray:none"
         id="g7156">
        <path
           inkscape:connector-curvature="0"
           style="opacity:1;fill:none;fill-opacity:1;stroke:#00f400;stroke-width:0.1;stroke-linejoin:round;stroke-miterlimit:4;stroke-dasharray:none;stroke-opacity:1"
           d="m -167.20954,183.5411 4.60484,0.79461 0.30593,8.55014 3.15465,-7.40986 4.95446,0.70325 -3.31357,7.85483 3.83008,9.43217 h -5.35178 l -3.23411,-7.97403 h -0.008 l -0.0119,0.0437 -0.0596,-0.15495 -0.0159,8.14091 -2.23289,0.008 -2.66198,-0.0238 0.0397,-19.96488 z"
           id="path7004" />
        <path
           inkscape:connector-curvature="0"
           style="opacity:1;fill:none;fill-opacity:1;stroke:#00f400;stroke-width:0.1;stroke-linejoin:round;stroke-miterlimit:4;stroke-dasharray:none;stroke-opacity:1"
           d="m -53.081935,183.76756 c 1.626108,-0.0101 2.650064,0.39732 2.650064,0.39732 0,0 -0.42344,4.32075 -0.468826,4.37439 -1.931122,-0.35664 -5.317556,-1.05881 -5.621951,1.25948 -0.388123,2.95593 3.45613,2.35404 5.288208,3.9572 1.224349,1.07138 1.644042,2.84156 1.46608,4.23535 -0.361799,2.83355 -0.86759,4.5055 -3.965167,5.41932 -2.758969,0.47076 -7.449582,-0.67941 -7.449582,-0.67941 l 0.508558,-3.86583 c 0,0 2.457736,0.60223 3.547989,0.78271 1.858719,0.28767 2.814674,-0.17874 2.904344,-1.4184 0.06561,-0.907 -0.274357,-1.22264 -1.915041,-1.79188 -3.54471,-1.22987 -4.708147,-2.619 -4.696216,-5.61004 0.01373,-3.43978 1.542084,-5.73147 5.200803,-6.71058 0.948679,-0.25387 1.811597,-0.34505 2.550737,-0.34963 z"
           id="path7002" />
        <path
           inkscape:connector-curvature="0"
           style="opacity:1;fill:none;fill-opacity:1;stroke:#00f400;stroke-width:0.1;stroke-linejoin:round;stroke-miterlimit:4;stroke-dasharray:none;stroke-opacity:1"
           d="m -69.606101,186.26267 c 0.763683,-0.002 1.603542,0.0454 2.538817,0.15893 3.596085,0.4366 4.476274,3.12715 4.565103,5.34384 h -3.929407 c -0.265996,-0.8977 -1.091287,-1.61736 -2.522924,-1.63295 -0.425854,-0.005 -0.903737,0.0531 -1.438269,0.18673 v 0.0199 c -0.008,8e-4 -0.01587,0.003 -0.02384,0.004 -0.015,0.47006 -0.02641,0.94586 -0.03973,1.42238 h -4.481666 l 0.03973,-4.61676 c 1.400053,-0.42794 3.001137,-0.87912 5.292182,-0.886 z"
           id="path7000" />
        <path
           inkscape:connector-curvature="0"
           style="opacity:1;fill:none;fill-opacity:1;stroke:#00f400;stroke-width:0.1;stroke-linejoin:round;stroke-miterlimit:4;stroke-dasharray:none;stroke-opacity:1"
           d="m -147.92406,186.58053 5.68155,0.61186 3.05929,9.69041 -4.60881,-0.0914 c -0.36337,-1.65817 -0.80432,-3.3149 -1.20385,-4.9624 l -0.008,-0.0397 -0.008,0.0318 -0.75489,2.54278 c -0.1884,0.79488 -0.40995,1.58105 -0.61583,2.37195 l -4.39426,-0.0874 2.7772,-10.05593 0.0755,-0.0119 z"
           id="path6998" />
        <path
           inkscape:connector-curvature="0"
           style="opacity:1;fill:none;fill-opacity:1;stroke:#00f400;stroke-width:0.1;stroke-linejoin:round;stroke-miterlimit:4;stroke-dasharray:none;stroke-opacity:1"
           d="m -82.494873,187.67313 c 1.763681,0.0304 3.557757,0.45563 4.600863,1.46608 0.97544,0.97272 1.5245,2.39255 1.720356,4.45783 0.05041,0.53155 0.07947,1.05452 0.08741,1.56541 h -4.704165 c -0.01707,-1.15484 -0.142486,-2.22381 -0.377444,-2.68186 -0.358039,-0.698 -0.975159,-1.04095 -1.871337,-1.04095 -1.100182,0 -1.753835,0.38273 -2.201103,1.29126 -0.229875,0.50588 -0.354428,1.6679 -0.397309,2.66596 h -4.739923 c 0.01503,-0.27938 0.03676,-0.78235 0.06754,-1.03301 0.308922,-2.58612 1.524407,-4.82164 3.591695,-5.78883 1.28475,-0.59598 2.564466,-0.87109 4.223416,-0.90189 z"
           id="path6996" />
        <path
           inkscape:connector-curvature="0"
           style="opacity:1;fill:none;fill-opacity:1;stroke:#00f400;stroke-width:0.1;stroke-linejoin:round;stroke-miterlimit:4;stroke-dasharray:none;stroke-opacity:1"
           d="m -135.4763,187.80821 5.01406,0.38142 3.23411,8.80839 0.65954,0.004 3.2063,-8.40711 5.01407,0.22647 c 0.0693,5.45996 0.12713,9.69828 0.12713,14.77997 h -4.06051 l 0.0199,-6.92116 -0.34169,-0.11919 -2.92421,7.04433 c -0.943,-0.0143 -1.88592,-0.0331 -2.82885,-0.0517 l -2.59047,-7.24298 -0.66351,0.22647 v 7.06419 h -3.86583 c -1e-5,-5.26437 -1e-5,-10.52874 0,-15.79311 z"
           id="path6994" />
        <path
           inkscape:connector-curvature="0"
           style="opacity:1;fill:none;fill-opacity:1;stroke:#00f400;stroke-width:0.1;stroke-linejoin:round;stroke-miterlimit:4;stroke-dasharray:none;stroke-opacity:1"
           d="m -97.787377,188.5631 c 0.8944,0.008 1.775209,0.0808 2.32427,0.21852 2.407412,0.60383 3.693429,2.12536 4.159847,4.91475 0.0871,0.52086 0.132234,1.0664 0.139058,1.79186 h -4.728001 c -0.005,-0.39407 -0.02365,-0.63802 -0.05562,-1.01711 -0.07522,-1.52254 -0.862637,-2.36003 -2.300436,-2.37194 -1.048541,-10e-4 -1.760481,0.44668 -2.173291,1.3588 -0.12176,0.48303 -0.20468,1.2994 -0.23839,2.17329 h -4.79951 c 5.3e-4,-0.0147 -5.3e-4,-0.029 0,-0.0437 0.21332,-4.10483 1.75895,-6.11593 5.25642,-6.84567 0.612003,-0.12768 1.521249,-0.18651 2.415654,-0.17879 z"
           id="path6992" />
        <path
           inkscape:connector-curvature="0"
           style="opacity:1;fill:none;fill-opacity:1;stroke:#00f400;stroke-width:0.1;stroke-linejoin:round;stroke-miterlimit:4;stroke-dasharray:none;stroke-opacity:1"
           d="m -116.52457,188.77368 c 0,0 2.95199,0.1192 4.61676,0.1192 l 0.0477,11.17238 c 1.86999,0.0201 3.74001,0.0358 5.61004,0.0517 v 3.48441 h -10.27447 z"
           id="path6990" />
        <path
           inkscape:connector-curvature="0"
           style="opacity:1;fill:none;fill-opacity:1;stroke:#00f400;stroke-width:0.1;stroke-linejoin:round;stroke-miterlimit:4;stroke-dasharray:none;stroke-opacity:1"
           d="m -74.949938,193.13616 h 4.457832 c -0.0141,0.70243 -0.02384,1.40644 -0.02384,2.10575 2.312006,0.38483 3.717489,-0.78676 4.084357,-2.10575 h 3.822131 c -0.613719,4.27112 -3.218069,5.46106 -7.890594,5.77689 l -0.01587,4.5969 h -4.525375 l 0.09138,-10.37379 z"
           id="path6988" />
        <path
           inkscape:connector-curvature="0"
           style="opacity:1;fill:none;fill-opacity:1;stroke:#00f400;stroke-width:0.1;stroke-linejoin:round;stroke-miterlimit:4;stroke-dasharray:none;stroke-opacity:1"
           d="m -80.822193,196.53316 h 4.704159 c -0.09685,1.56586 -0.40614,2.95274 -0.909841,4.0049 -1.146606,2.39512 -3.499694,3.41663 -7.254899,3.15068 -3.155862,-0.22351 -5.070001,-1.73657 -5.808689,-4.58895 -0.169624,-0.65498 -0.27038,-1.36757 -0.297981,-2.33222 h 4.743892 c 0.089,1.25841 0.206986,2.73258 1.470051,3.21822 0.392075,0.14189 1.303782,0.15053 1.740223,-0.0119 1.489337,-0.55433 1.535726,-2.2067 1.613085,-3.44071 z"
           id="path6986" />
        <path
           inkscape:connector-curvature="0"
           style="opacity:1;fill:none;fill-opacity:1;stroke:#00f400;stroke-width:0.1;stroke-linejoin:round;stroke-miterlimit:4;stroke-dasharray:none;stroke-opacity:1"
           d="m -95.931936,196.85896 h 4.735952 c 0,0 -0.142153,1.80207 -0.282091,2.33619 -0.604412,2.30693 -1.912326,3.66742 -4.068469,4.23534 -0.811313,0.21368 -2.395252,0.35243 -3.440713,0.29798 -2.101293,-0.10945 -3.830103,-0.7966 -4.839253,-1.91901 -0.97108,-1.08008 -1.53823,-2.76612 -1.63692,-4.80746 h 4.79158 c 0.0245,0.89381 0.11373,1.69427 0.28209,2.08588 0.25448,0.54272 0.656145,0.92299 1.164116,1.10055 0.376209,0.1315 1.325211,0.13818 1.779953,0.0119 1.440323,-0.61293 1.401569,-1.95183 1.513755,-3.34139 z"
           id="path6984" />
        <path
           inkscape:connector-curvature="0"
           style="opacity:1;fill:none;fill-opacity:1;stroke:#00f400;stroke-width:0.1;stroke-linejoin:round;stroke-miterlimit:4;stroke-dasharray:none;stroke-opacity:1"
           d="m -151.15023,198.01117 12.40008,0.25029 1.64884,5.22464 -5.10942,-0.0238 -0.48472,-2.45141 -4.74786,-0.14303 -0.53637,2.47525 -4.65649,0.0477 z"
           id="path6982" />
      </g>
      <g
         style="stroke:#00ff00;stroke-opacity:1;stroke-width:0.1;stroke-miterlimit:4;stroke-dasharray:none"
         id="g7174">
        <path
           inkscape:connector-curvature="0"
           style="opacity:1;fill:none;fill-opacity:1;stroke:#00ff00;stroke-width:0.1;stroke-linejoin:round;stroke-miterlimit:4;stroke-dasharray:none;stroke-opacity:1"
           d="m -106.96526,208.02738 c 0.62147,-0.0203 1.05684,0.13906 1.05684,0.13906 l -0.14303,1.0489 c 0,0 -0.60728,-0.0864 -0.82243,-0.11522 -1.02028,0.0609 -0.49368,1.0053 0.0159,1.04493 1.36433,0.42338 1.13788,1.90024 0.73503,2.49113 -0.3887,0.53035 -1.23567,0.72507 -2.0104,0.46088 -0.30527,-0.10411 -0.33486,-0.14388 -0.35758,-0.53636 -0.0346,-0.59835 0.0647,-0.71893 0.43307,-0.52843 0.40509,0.15072 1.19109,0.30223 1.13234,-0.28606 -0.0259,-0.22714 -0.13124,-0.3215 -0.62775,-0.58405 -0.65054,-0.34399 -0.90261,-0.66362 -0.99725,-1.2555 -0.13387,-0.83719 0.34423,-1.67779 1.12836,-1.83161 0.1604,-0.0277 0.31349,-0.043 0.45691,-0.0477 z"
           id="path6980" />
        <path
           inkscape:connector-curvature="0"
           style="opacity:1;fill:none;fill-opacity:1;stroke:#00ff00;stroke-width:0.1;stroke-linejoin:round;stroke-miterlimit:4;stroke-dasharray:none;stroke-opacity:1"
           d="m -95.288289,208.07908 c -0.06151,0.63351 -0.04656,0.89399 -0.05562,1.08465 -0.611746,-0.0185 -1.362271,0.0492 -1.382641,1.46211 -0.01669,1.15684 0.327462,1.4829 1.414428,1.41443 -0.0049,0.37144 -0.008,1.12041 -0.008,1.12041 -1.452949,0.13581 -2.570433,-0.50128 -2.590467,-2.5547 0.123399,-1.88684 0.977982,-2.52652 2.622254,-2.5269 z"
           id="path6978" />
        <path
           inkscape:connector-curvature="0"
           style="opacity:1;fill:none;fill-opacity:1;stroke:#00ff00;stroke-width:0.1;stroke-linejoin:round;stroke-miterlimit:4;stroke-dasharray:none;stroke-opacity:1"
           d="m -112.32896,208.10688 c 1.42849,0.0709 2.54827,-0.10772 2.84872,1.04095 0.0508,0.1819 0.076,0.34994 0.0834,0.50458 h -0.96546 c -0.0658,-0.5965 -0.54786,-0.4563 -0.95752,-0.45294 0.0103,0.13888 0.0179,0.2964 0.0238,0.45294 h -1.03301 v -1.54553 z"
           id="path6976" />
        <path
           inkscape:connector-curvature="0"
           style="opacity:1;fill:none;fill-opacity:1;stroke:#00ff00;stroke-width:0.1;stroke-linejoin:round;stroke-miterlimit:4;stroke-dasharray:none;stroke-opacity:1"
           d="m -104.14038,208.11878 c 0.39697,-0.004 0.78281,0.0229 1.09658,0.17482 0.48912,0.24574 0.77701,0.75409 0.82243,1.40648 h -1.13631 c -0.0234,-0.13081 -0.061,-0.24833 -0.11522,-0.3258 -0.25146,-0.25017 -0.46302,-0.21057 -0.79462,-0.21057 v 0.53637 h -1.03698 v -1.57335 c 0.35904,0.0298 0.76715,-0.004 1.16412,-0.008 z"
           id="path6974" />
        <path
           inkscape:connector-curvature="0"
           style="opacity:1;fill:none;fill-opacity:1;stroke:#00ff00;stroke-width:0.1;stroke-linejoin:round;stroke-miterlimit:4;stroke-dasharray:none;stroke-opacity:1"
           d="m -99.583223,208.12278 c 0.21186,0.82881 0.48418,1.91577 0.667483,2.63815 h -1.029036 c -0.114974,-0.50623 -0.170174,-0.96782 -0.317844,-1.48197 -0.0285,-0.0306 -0.26675,0.94494 -0.37348,1.48197 h -0.9893 c 0.18676,-0.78918 0.40708,-1.7107 0.61583,-2.5865 0.47534,-0.0202 0.95085,-0.0358 1.426347,-0.0516 z"
           id="path6972" />
        <path
           inkscape:connector-curvature="0"
           style="opacity:1;fill:none;fill-opacity:1;stroke:#00ff00;stroke-width:0.1;stroke-linejoin:round;stroke-miterlimit:4;stroke-dasharray:none;stroke-opacity:1"
           d="m -128.49952,208.12677 h 1.27934 l 0.81449,2.86064 1.02903,-2.86064 h 1.21577 v 4.99818 h -0.9456 l -0.12714,-2.35606 -0.74694,2.35606 h -0.69927 l -0.72708,-2.32824 -0.15495,2.32824 h -0.93765 z"
           id="path6970" />
        <path
           inkscape:connector-curvature="0"
           style="opacity:1;fill:none;fill-opacity:1;stroke:#00ff00;stroke-width:0.1;stroke-linejoin:round;stroke-miterlimit:4;stroke-dasharray:none;stroke-opacity:1"
           d="m -122.61932,208.12677 h 1.43032 l 0.65556,2.63418 h -1.07274 c -0.0946,-0.50211 -0.19893,-0.99489 -0.28606,-1.42635 l -0.004,-0.0238 -0.004,0.0159 h -0.004 l -0.31785,1.43429 H -123.12 l 0.50061,-2.63417 z"
           id="path6968" />
        <path
           inkscape:connector-curvature="0"
           style="opacity:1;fill:none;fill-opacity:1;stroke:#00ff00;stroke-width:0.1;stroke-linejoin:round;stroke-miterlimit:4;stroke-dasharray:none;stroke-opacity:1"
           d="m -119.44878,208.12677 h 1.21975 l 0.0516,2.31236 0.82243,-2.28852 1.20386,-0.0159 -0.87012,2.24878 0.9615,2.74145 h -1.28729 l -0.83038,-2.12164 -0.0516,2.12164 h -1.21577 l -0.004,-4.99818 z"
           id="path6966" />
        <path
           inkscape:connector-curvature="0"
           style="opacity:1;fill:none;fill-opacity:1;stroke:#00ff00;stroke-width:0.1;stroke-linejoin:round;stroke-miterlimit:4;stroke-dasharray:none;stroke-opacity:1"
           d="m -115.57499,208.12677 h 2.72555 v 1.13234 h -1.60116 v 0.42512 0.42513 h 1.31907 v 0.94162 h -1.31907 v 0.94163 h 1.70446 l -0.0278,0.54432 -0.0278,0.54034 -1.38662,0.0278 -1.38661,0.0238 -0.0278,-0.87408 c -0.0149,-0.48104 -0.0153,-1.60459 0,-2.49909 l 0.0278,-1.62898 z"
           id="path6964" />
        <path
           inkscape:connector-curvature="0"
           style="opacity:1;fill:none;fill-opacity:1;stroke:#00ff00;stroke-width:0.1;stroke-linejoin:round;stroke-miterlimit:4;stroke-dasharray:none;stroke-opacity:1"
           d="m -94.747947,208.12677 h 2.642119 v 1.13234 h -1.605137 v 0.85025 h 1.323046 v 0.93368 c -0.42513,0.0184 -0.917797,0.005 -1.342911,0.0238 -0.01836,0.29799 0.03055,0.62775 0.01191,0.92573 h 1.708439 v 1.13234 h -2.737475 v -4.99818 z"
           id="path6962" />
        <path
           inkscape:connector-curvature="0"
           style="opacity:1;fill:none;fill-opacity:1;stroke:#00ff00;stroke-width:0.1;stroke-linejoin:round;stroke-miterlimit:4;stroke-dasharray:none;stroke-opacity:1"
           d="m -88.899531,210.05771 10.322145,0.85422 -10.314196,0.88997 -0.008,-1.74419 z"
           id="path6960" />
        <path
           inkscape:connector-curvature="0"
           style="opacity:1;fill:none;fill-opacity:1;stroke:#00ff00;stroke-width:0.1;stroke-linejoin:round;stroke-miterlimit:4;stroke-dasharray:none;stroke-opacity:1"
           d="m -131.09396,210.06171 v 1.69652 l -10.27447,-0.85025 z"
           id="path6958" />
        <path
           inkscape:connector-curvature="0"
           style="opacity:1;fill:none;fill-opacity:1;stroke:#00ff00;stroke-width:0.1;stroke-linejoin:round;stroke-miterlimit:4;stroke-dasharray:none;stroke-opacity:1"
           d="m -112.32896,210.12531 h 1.04493 c 0.004,0.20649 0.008,0.39334 0.008,0.39334 0.32273,-0.0163 0.77132,0.14319 0.89793,-0.39334 h 0.9456 c -0.14056,0.63731 -0.59994,0.93368 -0.59994,0.93368 l 1.0052,2.06602 h -0.63968 -0.63569 l -0.42513,-1.01315 -0.42512,-1.01314 -0.0238,1.01314 -0.0278,1.01315 h -0.56418 -0.56021 v -2.9997 z"
           id="path6956" />
        <path
           inkscape:connector-curvature="0"
           style="opacity:1;fill:none;fill-opacity:1;stroke:#00ff00;stroke-width:0.1;stroke-linejoin:round;stroke-miterlimit:4;stroke-dasharray:none;stroke-opacity:1"
           d="m -105.3045,210.17301 h 1.03698 v 0.50061 c 0.26662,-0.005 0.71445,0.0436 0.8423,-0.18276 0.0437,-0.0816 0.0699,-0.19447 0.0834,-0.31785 h 1.11645 c -0.004,0.0405 -0.0102,0.0819 -0.0159,0.12316 -0.29849,1.39998 -1.01495,1.39537 -2.02628,1.42635 v 0.70324 0.69927 h -0.52048 -0.5165 v -2.49909 -0.45293 z"
           id="path6954" />
        <path
           inkscape:connector-curvature="0"
           style="opacity:1;fill:none;fill-opacity:1;stroke:#00ff00;stroke-width:0.1;stroke-linejoin:round;stroke-miterlimit:4;stroke-dasharray:none;stroke-opacity:1"
           d="m -123.20734,211.23383 h 2.7931 l 0.46882,1.8912 -1.12836,-0.0238 -0.21455,-0.73502 -1.24358,0.004 -0.12317,0.75489 -0.91779,0.0238 0.36553,-1.91503 z"
           id="path6952" />
        <path
           inkscape:connector-curvature="0"
           style="opacity:1;fill:none;fill-opacity:1;stroke:#00ff00;stroke-width:0.1;stroke-linejoin:round;stroke-miterlimit:4;stroke-dasharray:none;stroke-opacity:1"
           d="m -101.74062,211.23383 c 1.00723,0.009 1.943513,0 2.948046,0 0.184415,0.72347 0.496639,1.87928 0.496639,1.87928 l -1.243584,0.0119 -0.12714,-0.75489 H -100.946 l -0.11919,0.75489 h -1.13234 c 0,0 0.31818,-1.31349 0.45691,-1.8912 z"
           id="rect6943" />
      </g>
    </g>
  </g>
</svg>
