<?xml version="1.0"?>
<!DOCTYPE svg PUBLIC "-//W3C//DTD SVG 1.1//EN" "http://www.w3.org/Graphics/SVG/1.1/DTD/svg11.dtd">
<svg width="457.959531342mm" height="177.979598654mm" viewBox="0 0 457.959531342 177.979598654" xmlns="http://www.w3.org/2000/svg" version="1.1">
<g id="MyLayer" transform="translate(115.479766,132.489799) scale(1,-1)">
<path id="MyLayer_w0000"  d="M 70.0 41.0 A 41 41 0 1 0 70 -41L -70.0 -41.0 A 41 41 0 1 0 -70 41L 70.0 41.0 " stroke="#191919" stroke-width="0.35 px" style="stroke-width:0.35;stroke-miterlimit:4;stroke-dasharray:none;fill:none;fill-rule: evenodd "/>
<circle cx="-50.0" cy="8.0" r="0.85" stroke="#191919" stroke-width="0.35 px" style="stroke-width:0.35;stroke-miterlimit:4;stroke-dasharray:none;fill:none"/>
<circle cx="-68.0" cy="8.0" r="0.85" stroke="#191919" stroke-width="0.35 px" style="stroke-width:0.35;stroke-miterlimit:4;stroke-dasharray:none;fill:none"/>
<circle cx="50.0" cy="8.0" r="0.85" stroke="#191919" stroke-width="0.35 px" style="stroke-width:0.35;stroke-miterlimit:4;stroke-dasharray:none;fill:none"/>
<circle cx="-50.0" cy="-8.0" r="0.85" stroke="#191919" stroke-width="0.35 px" style="stroke-width:0.35;stroke-miterlimit:4;stroke-dasharray:none;fill:none"/>
<circle cx="-68.0" cy="-8.0" r="0.85" stroke="#191919" stroke-width="0.35 px" style="stroke-width:0.35;stroke-miterlimit:4;stroke-dasharray:none;fill:none"/>
<circle cx="50.0" cy="-8.0" r="0.85" stroke="#191919" stroke-width="0.35 px" style="stroke-width:0.35;stroke-miterlimit:4;stroke-dasharray:none;fill:none"/>
<circle cx="68.0" cy="-8.0" r="0.85" stroke="#191919" stroke-width="0.35 px" style="stroke-width:0.35;stroke-miterlimit:4;stroke-dasharray:none;fill:none"/>
<circle cx="68.0" cy="8.0" r="0.85" stroke="#191919" stroke-width="0.35 px" style="stroke-width:0.35;stroke-miterlimit:4;stroke-dasharray:none;fill:none"/>
<title>MyLayer</title>
</g>
<g id="MyLayer001" transform="translate(115.479766,132.489799) scale(1,-1)">
<path id="MyLayer001_w0000"  d="M 297.0 41.0 A 41 41 0 1 0 297 -41L 240.25 -41.0 L 213.75 -41.0 L 157.0 -41.0 A 41 41 0 1 0 157 41L 297.0 41.0 " stroke="#191919" stroke-width="0.35 px" style="stroke-width:0.35;stroke-miterlimit:4;stroke-dasharray:none;fill:none;fill-rule: evenodd "/>
<circle cx="177.0" cy="8.0" r="0.85" stroke="#191919" stroke-width="0.35 px" style="stroke-width:0.35;stroke-miterlimit:4;stroke-dasharray:none;fill:none"/>
<circle cx="159.0" cy="8.0" r="0.85" stroke="#191919" stroke-width="0.35 px" style="stroke-width:0.35;stroke-miterlimit:4;stroke-dasharray:none;fill:none"/>
<circle cx="159.0" cy="-8.0" r="0.85" stroke="#191919" stroke-width="0.35 px" style="stroke-width:0.35;stroke-miterlimit:4;stroke-dasharray:none;fill:none"/>
<circle cx="177.0" cy="-8.0" r="0.85" stroke="#191919" stroke-width="0.35 px" style="stroke-width:0.35;stroke-miterlimit:4;stroke-dasharray:none;fill:none"/>
<path id="MyLayer001_w0005"  d="M 289.5 -6.0 A 6 6 0 0 1 289.5 6L 164.5 6.0 A 6 6 0 1 1 164.5 -6L 213.75 -6.0 L 213.75 -33.25 L 240.25 -33.25 L 240.25 -5.99999999996 L 289.5 -6.0 " stroke="#191919" stroke-width="0.35 px" style="stroke-width:0.35;stroke-miterlimit:4;stroke-dasharray:none;fill:none;fill-rule: evenodd "/>
<circle cx="295.0" cy="-8.0" r="0.85" stroke="#191919" stroke-width="0.35 px" style="stroke-width:0.35;stroke-miterlimit:4;stroke-dasharray:none;fill:none"/>
<circle cx="295.0" cy="8.0" r="0.85" stroke="#191919" stroke-width="0.35 px" style="stroke-width:0.35;stroke-miterlimit:4;stroke-dasharray:none;fill:none"/>
<circle cx="277.0" cy="8.0" r="0.85" stroke="#191919" stroke-width="0.35 px" style="stroke-width:0.35;stroke-miterlimit:4;stroke-dasharray:none;fill:none"/>
<circle cx="277.0" cy="-8.0" r="0.85" stroke="#191919" stroke-width="0.35 px" style="stroke-width:0.35;stroke-miterlimit:4;stroke-dasharray:none;fill:none"/>
<title>MyLayer001</title>
</g>
<g id="MyLayer003" transform="translate(115.479766,132.489799) scale(1,-1)">
<path id="MyLayer003_w0000"  d="M 297.0 128.0 A 41 41 0 1 0 297 46L 157.0 46.0 A 41 41 0 1 0 157 128L 297.0 128.0 " stroke="#191919" stroke-width="0.35 px" style="stroke-width:0.35;stroke-miterlimit:4;stroke-dasharray:none;fill:none;fill-rule: evenodd "/>
<circle cx="159.0" cy="95.0" r="0.85" stroke="#191919" stroke-width="0.35 px" style="stroke-width:0.35;stroke-miterlimit:4;stroke-dasharray:none;fill:none"/>
<circle cx="277.0" cy="95.0" r="0.85" stroke="#191919" stroke-width="0.35 px" style="stroke-width:0.35;stroke-miterlimit:4;stroke-dasharray:none;fill:none"/>
<circle cx="177.0" cy="95.0" r="0.85" stroke="#191919" stroke-width="0.35 px" style="stroke-width:0.35;stroke-miterlimit:4;stroke-dasharray:none;fill:none"/>
<path id="MyLayer003_w0004"  d="M 163.5 84.025 L 163.5 89.975 L 290.5 89.975 L 290.5 84.025 L 163.5 84.025 " stroke="#191919" stroke-width="0.35 px" style="stroke-width:0.35;stroke-miterlimit:4;stroke-dasharray:none;fill:none;fill-rule: evenodd "/>
<circle cx="177.0" cy="79.0" r="0.85" stroke="#191919" stroke-width="0.35 px" style="stroke-width:0.35;stroke-miterlimit:4;stroke-dasharray:none;fill:none"/>
<circle cx="159.0" cy="79.0" r="0.85" stroke="#191919" stroke-width="0.35 px" style="stroke-width:0.35;stroke-miterlimit:4;stroke-dasharray:none;fill:none"/>
<circle cx="277.0" cy="79.0" r="0.85" stroke="#191919" stroke-width="0.35 px" style="stroke-width:0.35;stroke-miterlimit:4;stroke-dasharray:none;fill:none"/>
<circle cx="295.0" cy="95.0" r="0.85" stroke="#191919" stroke-width="0.35 px" style="stroke-width:0.35;stroke-miterlimit:4;stroke-dasharray:none;fill:none"/>
<circle cx="295.0" cy="79.0" r="0.85" stroke="#191919" stroke-width="0.35 px" style="stroke-width:0.35;stroke-miterlimit:4;stroke-dasharray:none;fill:none"/>
<title>MyLayer003</title>
</g>
<g id="MyLayer002" transform="translate(115.479766,132.489799) scale(1,-1)">
<path id="MyLayer002_w0000"  d="M 70.0 128.0 A 41 41 0 1 0 70 46L 13.25 46.0 L 13.25 81.0 L 62.5 81.0 A 6 6 0 0 1 62.5 93L -62.5 93.0 A 6 6 0 1 1 -62.5 81L -13.25 81.0 L -13.25 46.0 L -70.0 46.0 A 41 41 0 1 0 -70 128L 70.0 128.0 " stroke="#191919" stroke-width="0.35 px" style="stroke-width:0.35;stroke-miterlimit:4;stroke-dasharray:none;fill:none;fill-rule: evenodd "/>
<circle cx="-68.0" cy="95.0" r="0.85" stroke="#191919" stroke-width="0.35 px" style="stroke-width:0.35;stroke-miterlimit:4;stroke-dasharray:none;fill:none"/>
<circle cx="-50.0" cy="95.0" r="0.85" stroke="#191919" stroke-width="0.35 px" style="stroke-width:0.35;stroke-miterlimit:4;stroke-dasharray:none;fill:none"/>
<circle cx="-68.0" cy="79.0" r="0.85" stroke="#191919" stroke-width="0.35 px" style="stroke-width:0.35;stroke-miterlimit:4;stroke-dasharray:none;fill:none"/>
<circle cx="-50.0" cy="79.0" r="0.85" stroke="#191919" stroke-width="0.35 px" style="stroke-width:0.35;stroke-miterlimit:4;stroke-dasharray:none;fill:none"/>
<circle cx="50.0" cy="79.0" r="0.85" stroke="#191919" stroke-width="0.35 px" style="stroke-width:0.35;stroke-miterlimit:4;stroke-dasharray:none;fill:none"/>
<circle cx="50.0" cy="95.0" r="0.85" stroke="#191919" stroke-width="0.35 px" style="stroke-width:0.35;stroke-miterlimit:4;stroke-dasharray:none;fill:none"/>
<circle cx="68.0" cy="95.0" r="0.85" stroke="#191919" stroke-width="0.35 px" style="stroke-width:0.35;stroke-miterlimit:4;stroke-dasharray:none;fill:none"/>
<circle cx="68.0" cy="79.0" r="0.85" stroke="#191919" stroke-width="0.35 px" style="stroke-width:0.35;stroke-miterlimit:4;stroke-dasharray:none;fill:none"/>
<title>MyLayer002</title>
</g>
</svg>